{
  "accessors": [
    {
      "bufferView": 0,
      "componentType": 5126,
      "count": 83,
      "type": "MAT4"
    },
    {
      "bufferView": 1,
      "componentType": 5126,
      "count": 27239,
      "max": [
        1.0097965002059937,
        3.2461929321289063,
        3.775017499923706
      ],
      "min": [
        -1.0097965002059937,
        -4.977202892303467,
        -0.008545182645320892
      ],
      "type": "VEC3"
    },
    {
      "bufferView": 2,
      "componentType": 5126,
      "count": 27239,
      "type": "VEC3"
    },
    {
      "bufferView": 3,
      "componentType": 5126,
      "count": 27239,
      "type": "VEC4"
    },
    {
      "bufferView": 4,
      "componentType": 5126,
      "count": 27239,
      "type": "VEC2"
    },
    {
      "bufferView": 5,
      "componentType": 5126,
      "count": 27239,
      "type": "VEC4"
    },
    {
      "bufferView": 6,
      "componentType": 5126,
      "count": 27239,
      "type": "VEC4"
    },
    {
      "bufferView": 7,
      "componentType": 5123,
      "count": 27239,
      "type": "VEC4"
    },
    {
      "bufferView": 8,
      "componentType": 5123,
      "count": 27239,
      "type": "VEC4"
    },
    {
      "bufferView": 9,
      "componentType": 5123,
      "count": 101490,
      "type": "SCALAR"
    }
  ],
  "asset": {
    "generator": "NifSkope glTF 2.0 Exporter v1.2",
    "version": "2.0"
  },
  "bufferViews": [
    {
      "buffer": 0,
      "byteLength": 5312
    },
    {
      "buffer": 0,
      "byteLength": 326868,
      "byteOffset": 5312,
      "target": 34962
    },
    {
      "buffer": 0,
      "byteLength": 326868,
      "byteOffset": 332180,
      "target": 34962
    },
    {
      "buffer": 0,
      "byteLength": 435824,
      "byteOffset": 659048,
      "target": 34962
    },
    {
      "buffer": 0,
      "byteLength": 217912,
      "byteOffset": 1094872,
      "target": 34962
    },
    {
      "buffer": 0,
      "byteLength": 435824,
      "byteOffset": 1312784,
      "target": 34962
    },
    {
      "buffer": 0,
      "byteLength": 435824,
      "byteOffset": 1748608,
      "target": 34962
    },
    {
      "buffer": 0,
      "byteLength": 217912,
      "byteOffset": 2184432,
      "target": 34962
    },
    {
      "buffer": 0,
      "byteLength": 217912,
      "byteOffset": 2402344,
      "target": 34962
    },
    {
      "buffer": 0,
      "byteLength": 202980,
      "byteOffset": 2620256,
      "target": 34963
    }
  ],
  "buffers": [
    {
      "byteLength": 2823236,
      "name": "Foxbat.bin",
      "uri": "Foxbat.bin"
    }
  ],
  "materials": [
    {
      "extras": {
        "Material Path": "Default"
      },
      "name": "Default"
    },
    {
      "extras": {
        "Material Path": "materials/actors/bipeda/bipeda_foxbat/bipeda_foxbat.mat"
      },
      "name": "Materials/Actors/Bipeda/Bipeda_Foxbat/Bipeda_Foxbat"
    }
  ],
  "meshes": [
    {
      "name": "BipedA_FoxBat:0",
      "primitives": [
        {
          "attributes": {
            "JOINTS_0": 7,
            "JOINTS_1": 8,
            "NORMAL": 2,
            "POSITION": 1,
            "TANGENT": 3,
            "TEXCOORD_0": 4,
            "WEIGHTS_0": 5,
            "WEIGHTS_1": 6
          },
          "indices": 9,
          "material": 1,
          "mode": 4
        }
      ]
    }
  ],
  "nodes": [
    {
      "children": [
        1,
        146
      ],
      "extras": {
        "Flags": 14,
        "ID": 3,
        "Parent ID": 0
      },
      "name": "Root",
      "rotation": [
        -0.7071067690849304,
        0.0,
        0.0,
        0.7071067690849304
      ],
      "scale": [
        1.0,
        1.0,
        1.0
      ],
      "translation": [
        0.0,
        0.0,
        -0.0
      ]
    },
    {
      "children": [
        2,
        96
      ],
      "extras": {
        "Flags": 14,
        "ID": 5,
        "Parent ID": 3
      },
      "name": "COM",
      "rotation": [
        0.0,
        0.0,
        0.0,
        1.0
      ],
      "scale": [
        1.0,
        1.0,
        1.0
      ],
      "translation": [
        0.0,
        0.3429628610610962,
        2.0094964504241943
      ]
    },
    {
      "children": [
        3,
        95
      ],
      "extras": {
        "Flags": 14,
        "ID": 9,
        "Parent ID": 5
      },
      "name": "C_Spine",
      "rotation": [
        -0.5070126056671143,
        -0.4928876757621765,
        0.5070143938064575,
        0.4928857088088989
      ],
      "scale": [
        1.0,
        1.0,
        1.0
      ],
      "translation": [
        2.309473302375409e-06,
        0.05575118958950043,
        -0.01837722770869732
      ]
    },
    {
      "children": [
        4
      ],
      "extras": {
        "Flags": 14,
        "ID": 12,
        "Parent ID": 9
      },
      "name": "C_Spine1",
      "rotation": [
        -2.8891285808185785e-08,
        6.35195146969636e-06,
        -0.032988760620355606,
        0.9994557499885559
      ],
      "scale": [
        1.0,
        1.0,
        1.0
      ],
      "translation": [
        0.1693333387374878,
        1.5258788721439487e-07,
        -2.91038298062124e-13
      ]
    },
    {
      "children": [
        5,
        60,
        77,
        94
      ],
      "extras": {
        "Flags": 14,
        "ID": 15,
        "Parent ID": 12
      },
      "name": "C_Spine2",
      "rotation": [
        1.8924594769487157e-05,
        -1.417091152688954e-05,
        -0.005495521239936352,
        0.9999849200248718
      ],
      "scale": [
        1.0,
        1.0,
        1.0
      ],
      "translation": [
        0.17534500360488892,
        0.0,
        0.0
      ]
    },
    {
      "children": [
        6,
        18,
        38,
        39,
        40
      ],
      "extras": {
        "Flags": 14,
        "ID": 18,
        "Parent ID": 15
      },
      "name": "C_Chest",
      "rotation": [
        -2.7034819140681066e-05,
        9.27841665543383e-06,
        -0.015989098697900772,
        0.9998721480369568
      ],
      "scale": [
        1.0,
        1.0,
        1.0
      ],
      "translation": [
        0.21643973886966705,
        -3.0517577442878974e-07,
        9.313225537987968e-12
      ]
    },
    {
      "children": [
        7
      ],
      "extras": {
        "Flags": 14,
        "ID": 21,
        "Parent ID": 18
      },
      "name": "C_Neck1",
      "rotation": [
        6.125249996102866e-08,
        9.038146799866809e-07,
        -0.0676179900765419,
        0.9977113008499146
      ],
      "scale": [
        1.0,
        1.0,
        1.0
      ],
      "translation": [
        0.45655378699302673,
        -3.0517577442878974e-07,
        -6.984919153490976e-12
      ]
    },
    {
      "children": [
        8
      ],
      "extras": {
        "Flags": 14,
        "ID": 24,
        "Parent ID": 21
      },
      "name": "C_Neck2",
      "rotation": [
        8.098695616354235e-06,
        6.586038807654404e-07,
        -0.05765313655138016,
        0.998336672782898
      ],
      "scale": [
        1.0,
        1.0,
        1.0
      ],
      "translation": [
        0.2764279246330261,
        -3.0517577442878974e-07,
        4.656612768993984e-12
      ]
    },
    {
      "children": [
        9
      ],
      "extras": {
        "Flags": 14,
        "ID": 27,
        "Parent ID": 24
      },
      "name": "C_Neck3",
      "rotation": [
        1.5538175190954462e-09,
        3.8044081662746976e-08,
        -0.0408085398375988,
        0.9991669654846191
      ],
      "scale": [
        1.0,
        1.0,
        1.0
      ],
      "translation": [
        0.26407989859580994,
        -1.5258788721439487e-07,
        2.7105053706292436e-22
      ]
    },
    {
      "children": [
        10,
        16,
        17
      ],
      "extras": {
        "Flags": 14,
        "ID": 30,
        "Parent ID": 27
      },
      "name": "C_Neck4",
      "rotation": [
        -3.308722450212111e-24,
        -2.6645354708586125e-15,
        -5.551115123125783e-17,
        1.0
      ],
      "scale": [
        1.0,
        1.0,
        1.0
      ],
      "translation": [
        0.27387329936027527,
        1.5258788721439487e-07,
        -7.2759574515531e-14
      ]
    },
    {
      "children": [
        11,
        12,
        13,
        14,
        15
      ],
      "extras": {
        "Flags": 14,
        "ID": 32,
        "Parent ID": 30
      },
      "name": "C_Head",
      "rotation": [
        -2.8243971428310033e-07,
        1.8540202972872066e-07,
        0.20506244897842407,
        0.9787489175796509
      ],
      "scale": [
        1.0,
        1.0,
        1.0
      ],
      "translation": [
        0.27874326705932617,
        -0.20040008425712585,
        4.207802462019572e-08
      ]
    },
    {
      "extras": {
        "Flags": 14,
        "ID": 35,
        "Parent ID": 32
      },
      "name": "C_Jaw",
      "rotation": [
        2.842170943040401e-14,
        3.0972064648214503e-15,
        -7.105427357601002e-15,
        1.0
      ],
      "scale": [
        1.0,
        1.0,
        1.0
      ],
      "translation": [
        0.13734939694404602,
        0.024683531373739243,
        -0.002196718007326126
      ]
    },
    {
      "extras": {
        "Flags": 14,
        "ID": 37,
        "Parent ID": 32
      },
      "name": "L_Mandible",
      "rotation": [
        0.9966238737106323,
        0.08210250735282898,
        -1.3376200591608267e-08,
        -1.6237065381119464e-07
      ],
      "scale": [
        1.0,
        1.0,
        1.0
      ],
      "translation": [
        0.2128419429063797,
        -0.011206969618797302,
        0.372787743806839
      ]
    },
    {
      "extras": {
        "Flags": 14,
        "ID": 39,
        "Parent ID": 32
      },
      "name": "R_Mandible",
      "rotation": [
        -0.08210247755050659,
        0.9966238737106323,
        2.4157219513654127e-07,
        5.608774245047243e-07
      ],
      "scale": [
        1.0,
        1.0,
        1.0
      ],
      "translation": [
        0.21284347772598267,
        -0.011210327036678791,
        -0.372787743806839
      ]
    },
    {
      "extras": {
        "Flags": 67108878,
        "ID": 340,
        "Parent ID": 32
      },
      "name": "EarL_Lookat_Bone",
      "rotation": [
        -0.22865287959575653,
        -0.48204004764556885,
        0.8093013167381287,
        0.24573686718940735
      ],
      "scale": [
        1.0,
        1.0,
        1.0
      ],
      "translation": [
        0.13933531939983368,
        -0.618355393409729,
        0.3301559388637543
      ]
    },
    {
      "extras": {
        "Flags": 67108878,
        "ID": 342,
        "Parent ID": 32
      },
      "name": "EarR_Lookat_Bone",
      "rotation": [
        0.2508537173271179,
        0.8046039342880249,
        -0.4789504110813141,
        -0.24554318189620972
      ],
      "scale": [
        0.9999989867210388,
        0.9999989867210388,
        0.9999989867210388
      ],
      "translation": [
        0.12062377482652664,
        -0.6599151492118835,
        -0.3531759977340698
      ]
    },
    {
      "extras": {
        "Flags": 14,
        "ID": 41,
        "Parent ID": 30
      },
      "name": "C_NeckJiggle2",
      "rotation": [
        7.377445143674777e-08,
        2.6244833861710504e-07,
        0.7016088962554932,
        0.7125622630119324
      ],
      "scale": [
        1.0,
        1.0,
        1.0
      ],
      "translation": [
        0.025275878608226776,
        0.13383376598358154,
        2.38062781932058e-07
      ]
    },
    {
      "extras": {
        "Flags": 14,
        "ID": 43,
        "Parent ID": 30
      },
      "name": "C_NeckFin",
      "rotation": [
        1.1539423212525435e-06,
        -7.556946002296172e-07,
        -0.7863898277282715,
        0.6177306175231934
      ],
      "scale": [
        1.0,
        1.0,
        1.0
      ],
      "translation": [
        0.14838165044784546,
        -0.3639141619205475,
        -6.471531719398627e-07
      ]
    },
    {
      "children": [
        19
      ],
      "extras": {
        "Flags": 14,
        "ID": 45,
        "Parent ID": 18
      },
      "name": "L_ClavicleFront",
      "rotation": [
        0.5394293069839478,
        0.5484322309494019,
        0.4179159998893738,
        -0.48330560326576233
      ],
      "scale": [
        1.0,
        1.0,
        1.0
      ],
      "translation": [
        0.3671495020389557,
        0.15367171168327332,
        0.07742764055728912
      ]
    },
    {
      "children": [
        20,
        36,
        37
      ],
      "extras": {
        "Flags": 14,
        "ID": 47,
        "Parent ID": 45
      },
      "name": "L_BicepsFront",
      "rotation": [
        0.09177640080451965,
        -0.6080315709114075,
        0.05112358182668686,
        0.7869314551353455
      ],
      "scale": [
        1.0,
        1.0,
        1.0
      ],
      "translation": [
        0.3313480317592621,
        3.0517577442878974e-07,
        0.0
      ]
    },
    {
      "children": [
        21,
        34,
        35
      ],
      "extras": {
        "Flags": 14,
        "ID": 50,
        "Parent ID": 47
      },
      "name": "L_ForearmFront",
      "rotation": [
        -2.1822453177833268e-08,
        6.3818350604094576e-09,
        0.3204610049724579,
        0.9472617506980896
      ],
      "scale": [
        1.0,
        1.0,
        1.0
      ],
      "translation": [
        0.6447749137878418,
        7.629394360719743e-08,
        0.0
      ]
    },
    {
      "children": [
        22,
        26,
        30
      ],
      "extras": {
        "Flags": 14,
        "ID": 53,
        "Parent ID": 50
      },
      "name": "L_WristFront",
      "rotation": [
        -1.303851338008144e-08,
        5.587935447692871e-09,
        1.5612509960302284e-16,
        1.0
      ],
      "scale": [
        1.0,
        1.0,
        1.0
      ],
      "translation": [
        0.6011494398117065,
        1.5258788721439487e-07,
        1.5258788721439487e-07
      ]
    },
    {
      "children": [
        23
      ],
      "extras": {
        "Flags": 14,
        "ID": 56,
        "Parent ID": 53
      },
      "name": "L_IndexFront1",
      "rotation": [
        0.948609471321106,
        0.0932026207447052,
        0.24346086382865906,
        -0.17938807606697083
      ],
      "scale": [
        1.0,
        1.0,
        1.0
      ],
      "translation": [
        0.16422435641288757,
        -0.01754959113895893,
        0.11182837933301926
      ]
    },
    {
      "children": [
        24
      ],
      "extras": {
        "Flags": 14,
        "ID": 58,
        "Parent ID": 56
      },
      "name": "L_IndexFront2",
      "rotation": [
        5.160747917898334e-08,
        1.2438933438829736e-08,
        0.23431934416294098,
        0.9721596837043762
      ],
      "scale": [
        1.0,
        1.0,
        1.0
      ],
      "translation": [
        0.16269652545452118,
        -7.629394360719743e-08,
        -3.0517577442878974e-07
      ]
    },
    {
      "children": [
        25
      ],
      "extras": {
        "Flags": 14,
        "ID": 60,
        "Parent ID": 58
      },
      "name": "L_IndexFront3",
      "rotation": [
        -1.7198246382577054e-08,
        -1.0368264025117924e-09,
        0.060177501291036606,
        0.9981876611709595
      ],
      "scale": [
        1.0,
        1.0,
        1.0
      ],
      "translation": [
        0.10617358982563019,
        -1.4210854397564648e-16,
        0.0
      ]
    },
    {
      "extras": {
        "Flags": 14,
        "ID": 62,
        "Parent ID": 60
      },
      "name": "xL_IndexFront",
      "rotation": [
        -1.8626450382086546e-09,
        7.450580596923828e-09,
        7.450581485102248e-09,
        1.0
      ],
      "scale": [
        1.0,
        1.0,
        1.0
      ],
      "translation": [
        0.1264588087797165,
        -7.629394360719743e-08,
        0.0
      ]
    },
    {
      "children": [
        27
      ],
      "extras": {
        "Flags": 14,
        "ID": 64,
        "Parent ID": 53
      },
      "name": "L_MiddleFront1",
      "rotation": [
        0.9984390139579773,
        0.008602702058851719,
        0.04970495402812958,
        -0.02397782914340496
      ],
      "scale": [
        1.0,
        1.0,
        1.0
      ],
      "translation": [
        0.20454265177249908,
        0.0005809020949527621,
        0.0038201904390007257
      ]
    },
    {
      "children": [
        28
      ],
      "extras": {
        "Flags": 14,
        "ID": 66,
        "Parent ID": 64
      },
      "name": "L_MiddleFront2",
      "rotation": [
        -7.027941339998733e-09,
        -1.075284128404519e-08,
        0.1798839420080185,
        0.9836878180503845
      ],
      "scale": [
        1.0,
        1.0,
        1.0
      ],
      "translation": [
        0.17295891046524048,
        -3.0517577442878974e-07,
        -7.629394360719743e-08
      ]
    },
    {
      "children": [
        29
      ],
      "extras": {
        "Flags": 14,
        "ID": 68,
        "Parent ID": 66
      },
      "name": "L_MiddleFront3",
      "rotation": [
        4.858092239601319e-08,
        2.2720809608745007e-12,
        0.03838782757520676,
        0.9992628693580627
      ],
      "scale": [
        1.0,
        1.0,
        1.0
      ],
      "translation": [
        0.09545005857944489,
        0.0,
        2.288818308215923e-07
      ]
    },
    {
      "extras": {
        "Flags": 14,
        "ID": 70,
        "Parent ID": 68
      },
      "name": "xL_MiddleFront",
      "rotation": [
        1.5133991837501526e-09,
        6.51925802230835e-09,
        -9.86623976961809e-18,
        1.0
      ],
      "scale": [
        1.0,
        1.0,
        1.0
      ],
      "translation": [
        0.12359341979026794,
        -3.0517577442878974e-07,
        0.0
      ]
    },
    {
      "children": [
        31
      ],
      "extras": {
        "Flags": 14,
        "ID": 72,
        "Parent ID": 53
      },
      "name": "L_PinkyFront1",
      "rotation": [
        0.9637793898582458,
        0.08035428076982498,
        -0.15527427196502686,
        0.20140090584754944
      ],
      "scale": [
        1.0,
        1.0,
        1.0
      ],
      "translation": [
        0.17947536706924438,
        -0.02906295657157898,
        -0.10808905959129333
      ]
    },
    {
      "children": [
        32
      ],
      "extras": {
        "Flags": 14,
        "ID": 74,
        "Parent ID": 72
      },
      "name": "L_PinkyFront2",
      "rotation": [
        1.9082200264364246e-09,
        -3.332243814213598e-09,
        0.27163365483283997,
        0.9624007344245911
      ],
      "scale": [
        1.0,
        1.0,
        1.0
      ],
      "translation": [
        0.1555059850215912,
        -1.5258788721439487e-07,
        8.583068478174027e-08
      ]
    },
    {
      "children": [
        33
      ],
      "extras": {
        "Flags": 14,
        "ID": 76,
        "Parent ID": 74
      },
      "name": "L_PinkyFront3",
      "rotation": [
        -1.2120024983630628e-08,
        5.0329522771619395e-09,
        0.046234771609306335,
        0.9989305734634399
      ],
      "scale": [
        1.0,
        1.0,
        1.0
      ],
      "translation": [
        0.10133004933595657,
        -4.577636616431846e-07,
        4.291534239087014e-08
      ]
    },
    {
      "extras": {
        "Flags": 14,
        "ID": 78,
        "Parent ID": 76
      },
      "name": "xL_PinkyFront",
      "rotation": [
        1.0943039363553453e-08,
        1.862645149230957e-09,
        -2.0382999188366258e-17,
        1.0
      ],
      "scale": [
        1.0,
        1.0,
        1.0
      ],
      "translation": [
        0.1391952633857727,
        -1.5258788721439487e-07,
        -5.2452087118126656e-08
      ]
    },
    {
      "extras": {
        "Flags": 14,
        "ID": 80,
        "Parent ID": 50
      },
      "name": "L_ForearmFront1",
      "rotation": [
        -1.1175869119028903e-08,
        5.587935447692871e-09,
        1.45716758747162e-16,
        1.0
      ],
      "scale": [
        1.0,
        1.0,
        1.0
      ],
      "translation": [
        0.2607540786266327,
        -0.022033844143152237,
        -0.01800491288304329
      ]
    },
    {
      "extras": {
        "Flags": 14,
        "ID": 82,
        "Parent ID": 50
      },
      "name": "L_ForearmFront2",
      "rotation": [
        -1.1175869119028903e-08,
        5.587935447692871e-09,
        1.45716758747162e-16,
        1.0
      ],
      "scale": [
        1.0,
        1.0,
        1.0
      ],
      "translation": [
        0.5269716382026672,
        -0.00331954937428236,
        -0.006576003972440958
      ]
    },
    {
      "extras": {
        "Flags": 14,
        "ID": 84,
        "Parent ID": 47
      },
      "name": "L_BicepsFrontTwist1",
      "rotation": [
        -1.2572852092773701e-08,
        3.7252898543727042e-09,
        4.683751730776154e-17,
        1.0
      ],
      "scale": [
        1.0,
        1.0,
        1.0
      ],
      "translation": [
        0.029361266642808914,
        7.629394360719743e-08,
        -7.629394360719743e-08
      ]
    },
    {
      "extras": {
        "Flags": 14,
        "ID": 86,
        "Parent ID": 47
      },
      "name": "L_BicepsFrontTwist2",
      "rotation": [
        -1.2572852092773701e-08,
        3.7252898543727042e-09,
        4.683751730776154e-17,
        1.0
      ],
      "scale": [
        1.0,
        1.0,
        1.0
      ],
      "translation": [
        0.3240765333175659,
        -0.016170348972082138,
        0.021896591410040855
      ]
    },
    {
      "extras": {
        "Flags": 14,
        "ID": 88,
        "Parent ID": 18
      },
      "name": "C_SpineFin1",
      "rotation": [
        4.341472049418371e-06,
        6.610165655729361e-06,
        -0.8326341509819031,
        0.5538234114646912
      ],
      "scale": [
        1.0,
        1.0,
        1.0
      ],
      "translation": [
        0.01215438824146986,
        -0.4394609034061432,
        -7.6014475780539215e-06
      ]
    },
    {
      "extras": {
        "Flags": 14,
        "ID": 90,
        "Parent ID": 18
      },
      "name": "DirectAt",
      "rotation": [
        0.4794265627861023,
        0.5197675824165344,
        -0.4794176518917084,
        0.519760251045227
      ],
      "scale": [
        1.0,
        1.0,
        1.0
      ],
      "translation": [
        -1.4210854397564648e-16,
        0.0,
        3.801891423904635e-08
      ]
    },
    {
      "children": [
        41
      ],
      "extras": {
        "Flags": 14,
        "ID": 92,
        "Parent ID": 18
      },
      "name": "R_ClavicleFront",
      "rotation": [
        0.5484391450881958,
        -0.5394371151924133,
        0.48329684138298035,
        0.41790705919265747
      ],
      "scale": [
        1.0,
        1.0,
        1.0
      ],
      "translation": [
        0.3671533167362213,
        0.15367339551448822,
        -0.07742263376712799
      ]
    },
    {
      "children": [
        42,
        58,
        59
      ],
      "extras": {
        "Flags": 14,
        "ID": 94,
        "Parent ID": 92
      },
      "name": "R_BicepsFront",
      "rotation": [
        0.09177643805742264,
        -0.6080314517021179,
        0.05112361162900925,
        0.7869315147399902
      ],
      "scale": [
        1.0,
        1.0,
        1.0
      ],
      "translation": [
        -0.3313472270965576,
        3.204345603080583e-06,
        4.577636616431846e-07
      ]
    },
    {
      "children": [
        43,
        56,
        57
      ],
      "extras": {
        "Flags": 14,
        "ID": 97,
        "Parent ID": 94
      },
      "name": "R_ForearmFront",
      "rotation": [
        -1.883792855039701e-08,
        -2.4402246889820844e-09,
        0.3204610049724579,
        0.9472617506980896
      ],
      "scale": [
        1.0,
        1.0,
        1.0
      ],
      "translation": [
        -0.6447817087173462,
        -3.814697265625e-06,
        4.577636616431846e-07
      ]
    },
    {
      "children": [
        44,
        48,
        52
      ],
      "extras": {
        "Flags": 14,
        "ID": 100,
        "Parent ID": 97
      },
      "name": "R_WristFront",
      "rotation": [
        -7.450582373280668e-09,
        -3.725290076417309e-09,
        -1.4901161193847656e-08,
        1.0
      ],
      "scale": [
        1.0,
        1.0,
        1.0
      ],
      "translation": [
        -0.601145327091217,
        -2.7465819130156888e-06,
        9.91821252682712e-07
      ]
    },
    {
      "children": [
        45
      ],
      "extras": {
        "Flags": 14,
        "ID": 103,
        "Parent ID": 100
      },
      "name": "R_IndexFront1",
      "rotation": [
        0.9486095309257507,
        0.0932026207447052,
        0.24346090853214264,
        -0.17938806116580963
      ],
      "scale": [
        1.0,
        1.0,
        1.0
      ],
      "translation": [
        -0.1642242819070816,
        0.017549896612763405,
        -0.1118287667632103
      ]
    },
    {
      "children": [
        46
      ],
      "extras": {
        "Flags": 14,
        "ID": 105,
        "Parent ID": 103
      },
      "name": "R_IndexFront2",
      "rotation": [
        3.008565840900701e-09,
        3.521290992125614e-08,
        0.23431934416294098,
        0.9721596837043762
      ],
      "scale": [
        1.0,
        1.0,
        1.0
      ],
      "translation": [
        -0.16269446909427643,
        -2.593994167909841e-06,
        4.425048700795742e-06
      ]
    },
    {
      "children": [
        47
      ],
      "extras": {
        "Flags": 14,
        "ID": 107,
        "Parent ID": 105
      },
      "name": "R_IndexFront3",
      "rotation": [
        1.926523474082842e-08,
        -1.0034724162721886e-08,
        0.06017754226922989,
        0.9981876611709595
      ],
      "scale": [
        1.0,
        1.0,
        1.0
      ],
      "translation": [
        -0.1061742976307869,
        3.662109293145477e-06,
        -3.967285010730848e-06
      ]
    },
    {
      "extras": {
        "Flags": 14,
        "ID": 109,
        "Parent ID": 107
      },
      "name": "xR_IndexFront",
      "rotation": [
        -1.30385160446167e-08,
        -3.725290298461914e-09,
        -4.85722573273506e-17,
        1.0
      ],
      "scale": [
        1.0,
        1.0,
        1.0
      ],
      "translation": [
        -0.1264590173959732,
        -4.95910626341356e-06,
        4.425048700795742e-06
      ]
    },
    {
      "children": [
        49
      ],
      "extras": {
        "Flags": 14,
        "ID": 111,
        "Parent ID": 100
      },
      "name": "R_MiddleFront1",
      "rotation": [
        0.9984390139579773,
        0.008602670393884182,
        0.049704939126968384,
        -0.02397780865430832
      ],
      "scale": [
        1.0,
        1.0,
        1.0
      ],
      "translation": [
        -0.2045416235923767,
        -0.0005799865466542542,
        -0.0038211059290915728
      ]
    },
    {
      "children": [
        50
      ],
      "extras": {
        "Flags": 14,
        "ID": 113,
        "Parent ID": 111
      },
      "name": "R_MiddleFront2",
      "rotation": [
        1.7452139289275692e-08,
        1.975983110469315e-08,
        0.1798839271068573,
        0.9836878180503845
      ],
      "scale": [
        1.0,
        1.0,
        1.0
      ],
      "translation": [
        -0.17295993864536285,
        0.0,
        -7.629394076502649e-07
      ]
    },
    {
      "children": [
        51
      ],
      "extras": {
        "Flags": 14,
        "ID": 115,
        "Parent ID": 113
      },
      "name": "R_MiddleFront3",
      "rotation": [
        2.514505581530102e-08,
        4.999708980157891e-10,
        0.03838781639933586,
        0.9992628693580627
      ],
      "scale": [
        1.0,
        1.0,
        1.0
      ],
      "translation": [
        -0.09544876217842102,
        -1.220703097715159e-06,
        9.91821252682712e-07
      ]
    },
    {
      "extras": {
        "Flags": 14,
        "ID": 117,
        "Parent ID": 115
      },
      "name": "xR_MiddleFront",
      "rotation": [
        9.546056389808655e-09,
        9.313225746154785e-10,
        3.2742905609062234e-17,
        1.0
      ],
      "scale": [
        1.0,
        1.0,
        1.0
      ],
      "translation": [
        -0.12359347939491272,
        -2.7465819130156888e-06,
        1.2969970839549205e-06
      ]
    },
    {
      "children": [
        53
      ],
      "extras": {
        "Flags": 14,
        "ID": 119,
        "Parent ID": 100
      },
      "name": "R_PinkyFront1",
      "rotation": [
        0.9637793898582458,
        0.08035428076982498,
        -0.15527433156967163,
        0.20140096545219421
      ],
      "scale": [
        1.0,
        1.0,
        1.0
      ],
      "translation": [
        -0.17947593331336975,
        0.02906341478228569,
        0.10808883607387543
      ]
    },
    {
      "children": [
        54
      ],
      "extras": {
        "Flags": 14,
        "ID": 121,
        "Parent ID": 119
      },
      "name": "R_PinkyFront2",
      "rotation": [
        4.365918737647689e-09,
        5.103093503322498e-09,
        0.27163365483283997,
        0.9624007344245911
      ],
      "scale": [
        1.0,
        1.0,
        1.0
      ],
      "translation": [
        -0.15550026297569275,
        -5.187988335819682e-06,
        -1.3589858554041712e-06
      ]
    },
    {
      "children": [
        55
      ],
      "extras": {
        "Flags": 14,
        "ID": 123,
        "Parent ID": 121
      },
      "name": "R_PinkyFront3",
      "rotation": [
        3.1700251312827277e-09,
        2.011362187914756e-09,
        0.04623475670814514,
        0.9989305734634399
      ],
      "scale": [
        1.0,
        1.0,
        1.0
      ],
      "translation": [
        -0.10133028030395508,
        9.155273232863692e-07,
        3.6716460272145923e-07
      ]
    },
    {
      "extras": {
        "Flags": 14,
        "ID": 125,
        "Parent ID": 123
      },
      "name": "xR_PinkyFront",
      "rotation": [
        9.778886145284105e-09,
        3.7252898543727042e-09,
        -7.4505797087454084e-09,
        1.0
      ],
      "scale": [
        1.0,
        1.0,
        1.0
      ],
      "translation": [
        -0.13919538259506226,
        2.2888182229507947e-06,
        9.250640573554847e-07
      ]
    },
    {
      "extras": {
        "Flags": 14,
        "ID": 127,
        "Parent ID": 97
      },
      "name": "R_ForearmFront1",
      "rotation": [
        -9.313226634333205e-09,
        -3.725290076417309e-09,
        -1.4901161193847656e-08,
        1.0
      ],
      "scale": [
        1.0,
        1.0,
        1.0
      ],
      "translation": [
        -0.2607458531856537,
        0.022036895155906677,
        0.018003234639763832
      ]
    },
    {
      "extras": {
        "Flags": 14,
        "ID": 129,
        "Parent ID": 97
      },
      "name": "R_ForearmFront2",
      "rotation": [
        -9.313226634333205e-09,
        -3.725290076417309e-09,
        -1.4901161193847656e-08,
        1.0
      ],
      "scale": [
        1.0,
        1.0,
        1.0
      ],
      "translation": [
        -0.5269648432731628,
        0.0033209228422492743,
        0.006574859376996756
      ]
    },
    {
      "extras": {
        "Flags": 14,
        "ID": 131,
        "Parent ID": 94
      },
      "name": "R_BicepsFrontTwist1",
      "rotation": [
        -1.1641529962247432e-09,
        -3.7252894102834944e-09,
        1.8626447051417472e-09,
        1.0
      ],
      "scale": [
        1.0,
        1.0,
        1.0
      ],
      "translation": [
        -0.02936599589884281,
        -1.8310546465727384e-06,
        6.866454782539222e-07
      ]
    },
    {
      "extras": {
        "Flags": 14,
        "ID": 133,
        "Parent ID": 94
      },
      "name": "R_BicepsFrontTwist2",
      "rotation": [
        -1.1641529962247432e-09,
        -3.7252894102834944e-09,
        1.8626447051417472e-09,
        1.0
      ],
      "scale": [
        1.0,
        1.0,
        1.0
      ],
      "translation": [
        -0.32407423853874207,
        0.016167372465133667,
        -0.021895140409469604
      ]
    },
    {
      "children": [
        61
      ],
      "extras": {
        "Flags": 14,
        "ID": 135,
        "Parent ID": 15
      },
      "name": "L_ClavicleRear",
      "rotation": [
        0.6126463413238525,
        0.6138954758644104,
        0.3348006010055542,
        -0.3683820366859436
      ],
      "scale": [
        1.0,
        1.0,
        1.0
      ],
      "translation": [
        0.1748068928718567,
        0.027750244364142418,
        0.11015137284994125
      ]
    },
    {
      "children": [
        62,
        75,
        76
      ],
      "extras": {
        "Flags": 14,
        "ID": 137,
        "Parent ID": 135
      },
      "name": "L_BicepsRear",
      "rotation": [
        0.03592265397310257,
        -0.46892446279525757,
        -0.07895690947771072,
        0.8789682984352112
      ],
      "scale": [
        1.0,
        1.0,
        1.0
      ],
      "translation": [
        0.3387007415294647,
        -1.5258788721439487e-07,
        0.0
      ]
    },
    {
      "children": [
        63,
        73,
        74
      ],
      "extras": {
        "Flags": 14,
        "ID": 140,
        "Parent ID": 137
      },
      "name": "L_ForearmRear",
      "rotation": [
        4.2348852202778176e-10,
        2.038986535168874e-09,
        0.25598210096359253,
        0.9666815400123596
      ],
      "scale": [
        1.0,
        1.0,
        1.0
      ],
      "translation": [
        0.5133001804351807,
        3.8146970382513246e-07,
        7.629394360719743e-08
      ]
    },
    {
      "children": [
        64,
        67,
        70
      ],
      "extras": {
        "Flags": 14,
        "ID": 143,
        "Parent ID": 140
      },
      "name": "L_WristRear",
      "rotation": [
        -1.7347236827719602e-18,
        -3.7252889661942845e-09,
        -5.551115123125783e-17,
        1.0
      ],
      "scale": [
        1.0,
        1.0,
        1.0
      ],
      "translation": [
        0.510895848274231,
        -1.4210854397564648e-16,
        -3.814697180359872e-08
      ]
    },
    {
      "children": [
        65
      ],
      "extras": {
        "Flags": 14,
        "ID": 146,
        "Parent ID": 143
      },
      "name": "L_IndexRear1",
      "rotation": [
        0.9634642601013184,
        0.02739652246236801,
        0.2523009181022644,
        0.08561632037162781
      ],
      "scale": [
        1.0,
        1.0,
        1.0
      ],
      "translation": [
        0.17769962549209595,
        -0.01980537362396717,
        0.1085444986820221
      ]
    },
    {
      "children": [
        66
      ],
      "extras": {
        "Flags": 14,
        "ID": 148,
        "Parent ID": 146
      },
      "name": "L_IndexRear2",
      "rotation": [
        -4.555636312630895e-09,
        1.4218235477869712e-08,
        0.24513040482997894,
        0.969490110874176
      ],
      "scale": [
        1.0,
        1.0,
        1.0
      ],
      "translation": [
        0.12725503742694855,
        -1.5258788721439487e-07,
        -1.907348590179936e-08
      ]
    },
    {
      "extras": {
        "Flags": 14,
        "ID": 150,
        "Parent ID": 148
      },
      "name": "xL_IndexRear",
      "rotation": [
        9.313225746154785e-10,
        1.4901162970204496e-08,
        1.862645149230957e-09,
        1.0
      ],
      "scale": [
        1.0,
        1.0,
        1.0
      ],
      "translation": [
        0.20116721093654633,
        7.629394360719743e-08,
        1.907348590179936e-08
      ]
    },
    {
      "children": [
        68
      ],
      "extras": {
        "Flags": 14,
        "ID": 152,
        "Parent ID": 143
      },
      "name": "L_MiddleRear1",
      "rotation": [
        0.9876594543457031,
        -0.05310922861099243,
        0.02578243613243103,
        0.14506380259990692
      ],
      "scale": [
        1.0,
        1.0,
        1.0
      ],
      "translation": [
        0.1997661143541336,
        -0.03921562060713768,
        0.022624624893069267
      ]
    },
    {
      "children": [
        69
      ],
      "extras": {
        "Flags": 14,
        "ID": 154,
        "Parent ID": 152
      },
      "name": "L_MiddleRear2",
      "rotation": [
        9.272068446364301e-09,
        -5.995601348729451e-09,
        0.1658787727355957,
        0.9861461520195007
      ],
      "scale": [
        1.0,
        1.0,
        1.0
      ],
      "translation": [
        0.14661286771297455,
        -1.5258788721439487e-07,
        -9.53674295089968e-09
      ]
    },
    {
      "extras": {
        "Flags": 14,
        "ID": 156,
        "Parent ID": 154
      },
      "name": "xL_MiddleRear",
      "rotation": [
        8.847564458847046e-09,
        -3.725290298461914e-09,
        3.9898639947466563e-17,
        1.0
      ],
      "scale": [
        1.0,
        1.0,
        1.0
      ],
      "translation": [
        0.20075492560863495,
        7.629394360719743e-08,
        4.768371297814156e-08
      ]
    },
    {
      "children": [
        71
      ],
      "extras": {
        "Flags": 14,
        "ID": 158,
        "Parent ID": 143
      },
      "name": "L_PinkyRear1",
      "rotation": [
        0.9134879112243652,
        -0.07235725969076157,
        -0.17725850641727448,
        0.3590037226676941
      ],
      "scale": [
        1.0,
        1.0,
        1.0
      ],
      "translation": [
        0.172535702586174,
        -0.10103157162666321,
        -0.05862190201878548
      ]
    },
    {
      "children": [
        72
      ],
      "extras": {
        "Flags": 14,
        "ID": 160,
        "Parent ID": 158
      },
      "name": "L_PinkyRear2",
      "rotation": [
        3.1173168935083595e-08,
        1.441683217251466e-08,
        0.21286985278129578,
        0.9770805239677429
      ],
      "scale": [
        1.0,
        1.0,
        1.0
      ],
      "translation": [
        0.13245581090450287,
        -7.629394360719743e-08,
        1.4210854397564648e-16
      ]
    },
    {
      "extras": {
        "Flags": 14,
        "ID": 162,
        "Parent ID": 160
      },
      "name": "xL_PinkyRear",
      "rotation": [
        -1.30385160446167e-08,
        -1.1102230246251565e-16,
        7.450580596923828e-09,
        1.0
      ],
      "scale": [
        1.0,
        1.0,
        1.0
      ],
      "translation": [
        0.16108427941799164,
        -1.4210854397564648e-16,
        -1.907348590179936e-08
      ]
    },
    {
      "extras": {
        "Flags": 14,
        "ID": 164,
        "Parent ID": 140
      },
      "name": "L_ForearmRearTwist1",
      "rotation": [
        1.8626447051417472e-09,
        -1.8626447051417472e-09,
        -1.4901157641133977e-08,
        1.0
      ],
      "scale": [
        1.0,
        1.0,
        1.0
      ],
      "translation": [
        0.2262609750032425,
        -2.8421708795129297e-16,
        -0.004390716552734375
      ]
    },
    {
      "extras": {
        "Flags": 14,
        "ID": 166,
        "Parent ID": 140
      },
      "name": "L_ForearmRearTwist2",
      "rotation": [
        1.8626447051417472e-09,
        -1.8626447051417472e-09,
        -1.4901157641133977e-08,
        1.0
      ],
      "scale": [
        1.0,
        1.0,
        1.0
      ],
      "translation": [
        0.4385908544063568,
        0.0047837067395448685,
        0.0024072646629065275
      ]
    },
    {
      "extras": {
        "Flags": 14,
        "ID": 168,
        "Parent ID": 137
      },
      "name": "L_BicepsRearTwist2",
      "rotation": [
        1.3969838619232178e-09,
        1.862645149230957e-09,
        -7.450580596923828e-09,
        1.0
      ],
      "scale": [
        1.0,
        1.0,
        1.0
      ],
      "translation": [
        0.26898422837257385,
        0.009183960035443306,
        -0.014476623386144638
      ]
    },
    {
      "extras": {
        "Flags": 14,
        "ID": 170,
        "Parent ID": 137
      },
      "name": "L_BicepsRearTwist1",
      "rotation": [
        1.3969838619232178e-09,
        1.862645149230957e-09,
        -7.450580596923828e-09,
        1.0
      ],
      "scale": [
        1.0,
        1.0,
        1.0
      ],
      "translation": [
        0.03043518029153347,
        2.288818308215923e-07,
        0.0
      ]
    },
    {
      "children": [
        78
      ],
      "extras": {
        "Flags": 14,
        "ID": 172,
        "Parent ID": 15
      },
      "name": "R_ClavicleRear",
      "rotation": [
        0.6138898730278015,
        -0.6126261353492737,
        0.3683934807777405,
        0.3348352611064911
      ],
      "scale": [
        1.0,
        1.0,
        1.0
      ],
      "translation": [
        0.17480285465717316,
        0.027743376791477203,
        -0.1101599857211113
      ]
    },
    {
      "children": [
        79,
        92,
        93
      ],
      "extras": {
        "Flags": 14,
        "ID": 174,
        "Parent ID": 172
      },
      "name": "R_BicepsRear",
      "rotation": [
        0.03592264652252197,
        -0.4689244031906128,
        -0.07895690947771072,
        0.8789682984352112
      ],
      "scale": [
        1.0,
        1.0,
        1.0
      ],
      "translation": [
        -0.33869731426239014,
        7.629394360719743e-08,
        4.882812390860636e-06
      ]
    },
    {
      "children": [
        80,
        90,
        91
      ],
      "extras": {
        "Flags": 14,
        "ID": 177,
        "Parent ID": 174
      },
      "name": "R_ForearmRear",
      "rotation": [
        2.2240724817379487e-09,
        2.5157902427963563e-09,
        0.2559821307659149,
        0.9666815400123596
      ],
      "scale": [
        1.0,
        1.0,
        1.0
      ],
      "translation": [
        -0.5133050680160522,
        -1.5258788721439487e-07,
        0.0
      ]
    },
    {
      "children": [
        81,
        84,
        87
      ],
      "extras": {
        "Flags": 14,
        "ID": 180,
        "Parent ID": 177
      },
      "name": "R_WristRear",
      "rotation": [
        2.7939677238464355e-09,
        1.862645149230957e-09,
        1.4901161193847656e-08,
        1.0
      ],
      "scale": [
        1.0,
        1.0,
        1.0
      ],
      "translation": [
        -0.5108951926231384,
        7.629394076502649e-07,
        3.8146970382513246e-07
      ]
    },
    {
      "children": [
        82
      ],
      "extras": {
        "Flags": 14,
        "ID": 183,
        "Parent ID": 180
      },
      "name": "R_IndexRear1",
      "rotation": [
        0.9634643197059631,
        0.0273965485394001,
        0.2523009479045868,
        0.08561631292104721
      ],
      "scale": [
        1.0,
        1.0,
        1.0
      ],
      "translation": [
        -0.17769911885261536,
        0.019807280972599983,
        -0.10854480415582657
      ]
    },
    {
      "children": [
        83
      ],
      "extras": {
        "Flags": 14,
        "ID": 185,
        "Parent ID": 183
      },
      "name": "R_IndexRear2",
      "rotation": [
        -2.6676287845361912e-09,
        -1.604459676229908e-08,
        0.24513040482997894,
        0.969490110874176
      ],
      "scale": [
        1.0,
        1.0,
        1.0
      ],
      "translation": [
        -0.12725837528705597,
        7.476806331396801e-06,
        -3.0517577442878974e-07
      ]
    },
    {
      "extras": {
        "Flags": 14,
        "ID": 187,
        "Parent ID": 185
      },
      "name": "xR_IndexRear",
      "rotation": [
        2.7939675018018306e-09,
        1.4901159417490817e-08,
        -5.204169766185931e-17,
        1.0
      ],
      "scale": [
        1.0,
        1.0,
        1.0
      ],
      "translation": [
        -0.20116698741912842,
        -1.449584942747606e-06,
        3.8146970382513246e-07
      ]
    },
    {
      "children": [
        85
      ],
      "extras": {
        "Flags": 14,
        "ID": 189,
        "Parent ID": 180
      },
      "name": "R_MiddleRear1",
      "rotation": [
        0.9876594543457031,
        -0.05310920253396034,
        0.025782441720366478,
        0.14506380259990692
      ],
      "scale": [
        1.0,
        1.0,
        1.0
      ],
      "translation": [
        -0.1997656524181366,
        0.03921722248196602,
        -0.022625425830483437
      ]
    },
    {
      "children": [
        86
      ],
      "extras": {
        "Flags": 14,
        "ID": 191,
        "Parent ID": 189
      },
      "name": "R_MiddleRear2",
      "rotation": [
        2.6673934172549707e-09,
        8.003929963251721e-09,
        0.1658787578344345,
        0.9861461520195007
      ],
      "scale": [
        1.0,
        1.0,
        1.0
      ],
      "translation": [
        -0.14661286771297455,
        5.340576194612368e-07,
        -8.583068478174027e-08
      ]
    },
    {
      "extras": {
        "Flags": 14,
        "ID": 193,
        "Parent ID": 191
      },
      "name": "xR_MiddleRear",
      "rotation": [
        -4.190951585769653e-09,
        -8.67361903424526e-18,
        3.725290742551124e-09,
        1.0
      ],
      "scale": [
        1.0,
        1.0,
        1.0
      ],
      "translation": [
        -0.20075500011444092,
        -1.9073486328125e-06,
        -4.95910626341356e-07
      ]
    },
    {
      "children": [
        88
      ],
      "extras": {
        "Flags": 14,
        "ID": 195,
        "Parent ID": 180
      },
      "name": "R_PinkyRear1",
      "rotation": [
        0.9134879112243652,
        -0.07235724478960037,
        -0.17725853621959686,
        0.3590037524700165
      ],
      "scale": [
        1.0,
        1.0,
        1.0
      ],
      "translation": [
        -0.17253604531288147,
        0.10103057324886322,
        0.058621786534786224
      ]
    },
    {
      "children": [
        89
      ],
      "extras": {
        "Flags": 14,
        "ID": 197,
        "Parent ID": 195
      },
      "name": "R_PinkyRear2",
      "rotation": [
        -1.0477652523377401e-08,
        -1.753339340382354e-08,
        0.21286983788013458,
        0.9770805239677429
      ],
      "scale": [
        1.0,
        1.0,
        1.0
      ],
      "translation": [
        -0.13245545327663422,
        -1.0681152389224735e-06,
        -1.678466787780053e-06
      ]
    },
    {
      "extras": {
        "Flags": 14,
        "ID": 199,
        "Parent ID": 197
      },
      "name": "xR_PinkyRear",
      "rotation": [
        5.587935447692871e-09,
        -2.0816681711721685e-17,
        -3.725290298461914e-09,
        1.0
      ],
      "scale": [
        1.0,
        1.0,
        1.0
      ],
      "translation": [
        -0.16108402609825134,
        1.3732909565078444e-06,
        2.0599363779183477e-06
      ]
    },
    {
      "extras": {
        "Flags": 14,
        "ID": 201,
        "Parent ID": 177
      },
      "name": "R_ForearmRearTwist1",
      "rotation": [
        2.7939677238464355e-09,
        1.862645149230957e-09,
        1.4901161193847656e-08,
        1.0
      ],
      "scale": [
        1.0,
        1.0,
        1.0
      ],
      "translation": [
        -0.22625762224197388,
        -1.5258788153005298e-06,
        0.004390602000057697
      ]
    },
    {
      "extras": {
        "Flags": 14,
        "ID": 203,
        "Parent ID": 177
      },
      "name": "R_ForearmRearTwist2",
      "rotation": [
        2.7939677238464355e-09,
        1.862645149230957e-09,
        1.4901161193847656e-08,
        1.0
      ],
      "scale": [
        1.0,
        1.0,
        1.0
      ],
      "translation": [
        -0.43859079480171204,
        -0.004785079974681139,
        -0.0024072264786809683
      ]
    },
    {
      "extras": {
        "Flags": 14,
        "ID": 205,
        "Parent ID": 174
      },
      "name": "R_BicepsRearTwist2",
      "rotation": [
        -1.3969836398786128e-09,
        1.862645149230957e-09,
        -7.450580596923828e-09,
        1.0
      ],
      "scale": [
        1.0,
        1.0,
        1.0
      ],
      "translation": [
        -0.2689855992794037,
        -0.009183425456285477,
        0.014476737938821316
      ]
    },
    {
      "extras": {
        "Flags": 14,
        "ID": 207,
        "Parent ID": 174
      },
      "name": "R_BicepsRearTwist1",
      "rotation": [
        -1.3969836398786128e-09,
        1.862645149230957e-09,
        -7.450580596923828e-09,
        1.0
      ],
      "scale": [
        1.0,
        1.0,
        1.0
      ],
      "translation": [
        -0.0304377730935812,
        5.340576194612368e-07,
        7.629394360719743e-08
      ]
    },
    {
      "extras": {
        "Flags": 14,
        "ID": 209,
        "Parent ID": 15
      },
      "name": "C_SpineFin2",
      "rotation": [
        -1.8240069039165974e-05,
        -1.0865918739000335e-05,
        -0.8413829803466797,
        0.5404394865036011
      ],
      "scale": [
        1.0,
        1.0,
        1.0
      ],
      "translation": [
        -0.2170044630765915,
        -0.48736006021499634,
        2.6163570510107093e-05
      ]
    },
    {
      "extras": {
        "Flags": 14,
        "ID": 211,
        "Parent ID": 9
      },
      "name": "C_SpineFin3",
      "rotation": [
        1.5370102346423664e-06,
        -7.703618507548526e-07,
        0.8687219619750977,
        -0.4953000247478485
      ],
      "scale": [
        0.9999989867210388,
        0.9999989867210388,
        0.9999989867210388
      ],
      "translation": [
        -0.29238346219062805,
        -0.3801954686641693,
        3.7041193081677193e-06
      ]
    },
    {
      "children": [
        97,
        114,
        130
      ],
      "extras": {
        "Flags": 14,
        "ID": 213,
        "Parent ID": 5
      },
      "name": "C_hips",
      "rotation": [
        -0.500001072883606,
        0.4999997019767761,
        -0.49999892711639404,
        0.5000002980232239
      ],
      "scale": [
        1.0,
        1.0,
        1.0
      ],
      "translation": [
        -3.0237836199376034e-06,
        -0.061704594641923904,
        -0.00545501708984375
      ]
    },
    {
      "children": [
        98
      ],
      "extras": {
        "Flags": 14,
        "ID": 216,
        "Parent ID": 213
      },
      "name": "C_Tail1",
      "rotation": [
        0.0,
        4.2454870185799215e-14,
        0.0,
        1.0
      ],
      "scale": [
        1.0,
        1.0,
        1.0
      ],
      "translation": [
        0.47351402044296265,
        0.04622329771518707,
        -6.024073400112684e-07
      ]
    },
    {
      "children": [
        99,
        113
      ],
      "extras": {
        "Flags": 14,
        "ID": 218,
        "Parent ID": 216
      },
      "name": "C_Tail2",
      "rotation": [
        -2.8094276420918933e-37,
        4.2454870185799215e-14,
        6.617444900424222e-24,
        1.0
      ],
      "scale": [
        1.0,
        1.0,
        1.0
      ],
      "translation": [
        0.4753668010234833,
        0.0,
        -1.4713825748913223e-06
      ]
    },
    {
      "children": [
        100
      ],
      "extras": {
        "Flags": 14,
        "ID": 221,
        "Parent ID": 218
      },
      "name": "C_Tail3",
      "rotation": [
        -2.8094276420918933e-37,
        4.2454870185799215e-14,
        6.617444900424222e-24,
        1.0
      ],
      "scale": [
        1.0,
        1.0,
        1.0
      ],
      "translation": [
        0.4753667414188385,
        -4.577636616431846e-07,
        -1.4598341522287228e-06
      ]
    },
    {
      "children": [
        101,
        105,
        109
      ],
      "extras": {
        "Flags": 14,
        "ID": 223,
        "Parent ID": 221
      },
      "name": "C_Tail4",
      "rotation": [
        -2.8094276420918933e-37,
        4.2454870185799215e-14,
        6.617444900424222e-24,
        1.0
      ],
      "scale": [
        1.0,
        1.0,
        1.0
      ],
      "translation": [
        0.5323666930198669,
        0.0,
        -1.4935887975298101e-06
      ]
    },
    {
      "children": [
        102
      ],
      "extras": {
        "Flags": 14,
        "ID": 226,
        "Parent ID": 223
      },
      "name": "C_Tail5",
      "rotation": [
        0.0,
        4.2454870185799215e-14,
        0.0,
        1.0
      ],
      "scale": [
        1.0,
        1.0,
        1.0
      ],
      "translation": [
        0.5323667526245117,
        0.0,
        -1.404609065502882e-06
      ]
    },
    {
      "children": [
        103
      ],
      "extras": {
        "Flags": 14,
        "ID": 228,
        "Parent ID": 226
      },
      "name": "C_Tail6",
      "rotation": [
        0.0,
        4.2454870185799215e-14,
        0.0,
        1.0
      ],
      "scale": [
        1.0,
        1.0,
        1.0
      ],
      "translation": [
        0.532366156578064,
        -3.0517577442878974e-07,
        -1.3080727967462735e-06
      ]
    },
    {
      "children": [
        104
      ],
      "extras": {
        "Flags": 14,
        "ID": 231,
        "Parent ID": 228
      },
      "name": "C_Tail7",
      "rotation": [
        2.117582368135751e-22,
        4.2454870185799215e-14,
        -8.990168454694059e-36,
        1.0
      ],
      "scale": [
        1.0,
        1.0,
        1.0
      ],
      "translation": [
        0.5323666334152222,
        -1.5258788721439487e-07,
        -1.3619102219308843e-06
      ]
    },
    {
      "extras": {
        "Flags": 14,
        "ID": 233,
        "Parent ID": 231
      },
      "name": "C_Tail9",
      "rotation": [
        -2.8094276420918933e-37,
        4.2454870185799215e-14,
        6.617444900424222e-24,
        1.0
      ],
      "scale": [
        1.0,
        1.0,
        1.0
      ],
      "translation": [
        0.5323666334152222,
        -2.8421708795129297e-16,
        -1.0412651363367331e-06
      ]
    },
    {
      "children": [
        106
      ],
      "extras": {
        "Flags": 14,
        "ID": 236,
        "Parent ID": 223
      },
      "name": "L_Tail1",
      "rotation": [
        -0.0017884605331346393,
        0.148705393075943,
        -0.011892177164554596,
        0.9888083934783936
      ],
      "scale": [
        1.0,
        1.0,
        1.0
      ],
      "translation": [
        0.40655776858329773,
        -0.014848021790385246,
        -0.3016313910484314
      ]
    },
    {
      "children": [
        107
      ],
      "extras": {
        "Flags": 14,
        "ID": 238,
        "Parent ID": 236
      },
      "name": "L_Tail2",
      "rotation": [
        -2.2816945555170776e-10,
        -1.0819396045746998e-08,
        -2.4686556044864257e-18,
        1.0
      ],
      "scale": [
        1.0,
        1.0,
        1.0
      ],
      "translation": [
        0.7253674268722534,
        -2.8421708795129297e-16,
        -1.2969970839549205e-06
      ]
    },
    {
      "children": [
        108
      ],
      "extras": {
        "Flags": 14,
        "ID": 240,
        "Parent ID": 238
      },
      "name": "L_Tail3",
      "rotation": [
        2.373213014994491e-10,
        4.087360672144769e-09,
        9.313227966600834e-10,
        1.0
      ],
      "scale": [
        1.0,
        1.0,
        1.0
      ],
      "translation": [
        0.7253661751747131,
        -1.5258788721439487e-07,
        -1.220703097715159e-06
      ]
    },
    {
      "extras": {
        "Flags": 14,
        "ID": 242,
        "Parent ID": 240
      },
      "name": "L_Tail4",
      "rotation": [
        4.888537057795572e-12,
        4.081768700814337e-09,
        -9.313223525708736e-10,
        1.0
      ],
      "scale": [
        1.0,
        1.0,
        1.0
      ],
      "translation": [
        0.7253674268722534,
        -1.5258788721439487e-07,
        -1.4877318790240679e-06
      ]
    },
    {
      "children": [
        110
      ],
      "extras": {
        "Flags": 14,
        "ID": 244,
        "Parent ID": 223
      },
      "name": "R_Tail1",
      "rotation": [
        -0.14869655668735504,
        -0.0017896913923323154,
        0.9888097643852234,
        0.011892475187778473
      ],
      "scale": [
        1.0,
        1.0,
        1.0
      ],
      "translation": [
        0.40655484795570374,
        -0.014852294698357582,
        0.30162906646728516
      ]
    },
    {
      "children": [
        111
      ],
      "extras": {
        "Flags": 14,
        "ID": 246,
        "Parent ID": 244
      },
      "name": "R_Tail2",
      "rotation": [
        1.4256738722906448e-07,
        5.899077223148197e-06,
        9.3048135862972e-10,
        1.0
      ],
      "scale": [
        1.0,
        1.0,
        1.0
      ],
      "translation": [
        -0.7253747582435608,
        -5.187988335819682e-06,
        7.667541467526462e-06
      ]
    },
    {
      "children": [
        112
      ],
      "extras": {
        "Flags": 14,
        "ID": 248,
        "Parent ID": 246
      },
      "name": "R_Tail3",
      "rotation": [
        3.901448331067314e-10,
        6.271649866107509e-09,
        9.313224635931761e-10,
        1.0
      ],
      "scale": [
        1.0,
        1.0,
        1.0
      ],
      "translation": [
        -0.725366473197937,
        4.425048700795742e-06,
        1.7929077102962765e-06
      ]
    },
    {
      "extras": {
        "Flags": 14,
        "ID": 250,
        "Parent ID": 248
      },
      "name": "R_Tail4",
      "rotation": [
        5.712909683097678e-07,
        -8.629513104096986e-09,
        9.313275706190893e-10,
        1.0
      ],
      "scale": [
        1.0,
        1.0,
        1.0
      ],
      "translation": [
        -0.7253643870353699,
        -5.34057608092553e-06,
        1.8692015828492003e-06
      ]
    },
    {
      "extras": {
        "Flags": 67108878,
        "ID": 344,
        "Parent ID": 218
      },
      "name": "Tail_Lookat_Bone",
      "rotation": [
        0.699281632900238,
        -0.10491282492876053,
        0.6992794275283813,
        0.10491316020488739
      ],
      "scale": [
        1.0,
        1.0,
        1.0
      ],
      "translation": [
        0.02990119904279709,
        -0.1765296906232834,
        2.2888182229507947e-06
      ]
    },
    {
      "children": [
        115,
        128,
        129
      ],
      "extras": {
        "Flags": 14,
        "ID": 252,
        "Parent ID": 213
      },
      "name": "L_Thigh",
      "rotation": [
        0.6967754364013672,
        0.7136813402175903,
        -0.007253570947796106,
        0.0714864730834961
      ],
      "scale": [
        1.0,
        1.0,
        1.0
      ],
      "translation": [
        0.19308261573314667,
        0.01957000605762005,
        -0.35007616877555847
      ]
    },
    {
      "children": [
        116
      ],
      "extras": {
        "Flags": 14,
        "ID": 255,
        "Parent ID": 252
      },
      "name": "L_Calf",
      "rotation": [
        -1.8444626936897635e-09,
        -4.934929798139365e-09,
        0.41479557752609253,
        0.9099146127700806
      ],
      "scale": [
        1.0,
        1.0,
        1.0
      ],
      "translation": [
        0.9085162281990051,
        1.907348590179936e-08,
        -3.814697180359872e-08
      ]
    },
    {
      "children": [
        117
      ],
      "extras": {
        "Flags": 14,
        "ID": 258,
        "Parent ID": 255
      },
      "name": "L_Ankle",
      "rotation": [
        0.015942081809043884,
        0.041123006492853165,
        -0.5777052044868469,
        0.8150529861450195
      ],
      "scale": [
        1.0,
        1.0,
        1.0
      ],
      "translation": [
        0.6370164155960083,
        0.0,
        -7.629394360719743e-08
      ]
    },
    {
      "children": [
        118,
        119,
        122,
        125
      ],
      "extras": {
        "Flags": 14,
        "ID": 261,
        "Parent ID": 258
      },
      "name": "L_Foot",
      "rotation": [
        0.016960205510258675,
        0.040344007313251495,
        -0.39985692501068115,
        0.9155321717262268
      ],
      "scale": [
        1.0,
        1.0,
        1.0
      ],
      "translation": [
        0.5562670230865479,
        -0.03496626764535904,
        0.02274635247886181
      ]
    },
    {
      "extras": {
        "Flags": 14,
        "ID": 264,
        "Parent ID": 261
      },
      "name": "xL_Foot",
      "rotation": [
        -4.336808689942018e-19,
        1.1641532182693481e-10,
        -2.7755575615628914e-17,
        1.0
      ],
      "scale": [
        1.0,
        1.0,
        1.0
      ],
      "translation": [
        0.5621109008789063,
        0.0,
        3.814697180359872e-08
      ]
    },
    {
      "children": [
        120
      ],
      "extras": {
        "Flags": 14,
        "ID": 266,
        "Parent ID": 261
      },
      "name": "L_ToePinky",
      "rotation": [
        -0.09779074788093567,
        -0.21564224362373352,
        0.020199058577418327,
        0.9713534116744995
      ],
      "scale": [
        1.0,
        1.0,
        1.0
      ],
      "translation": [
        -0.02520284615457058,
        0.008614816702902317,
        0.052844006568193436
      ]
    },
    {
      "children": [
        121
      ],
      "extras": {
        "Flags": 14,
        "ID": 268,
        "Parent ID": 266
      },
      "name": "L_ToePinky1",
      "rotation": [
        0.01427476853132248,
        0.006824812851846218,
        -0.15014927089214325,
        0.9885367155075073
      ],
      "scale": [
        1.0,
        1.0,
        1.0
      ],
      "translation": [
        0.2822989523410797,
        -3.814697180359872e-08,
        -1.1444091541079615e-07
      ]
    },
    {
      "extras": {
        "Flags": 14,
        "ID": 270,
        "Parent ID": 268
      },
      "name": "xL_ToePinky",
      "rotation": [
        -2.3283064365386963e-09,
        -4.94765117764473e-09,
        -1.8458541986565713e-17,
        1.0
      ],
      "scale": [
        1.0,
        1.0,
        1.0
      ],
      "translation": [
        0.2301500290632248,
        0.0,
        3.814697180359872e-08
      ]
    },
    {
      "children": [
        123
      ],
      "extras": {
        "Flags": 14,
        "ID": 272,
        "Parent ID": 261
      },
      "name": "L_ToeIndex",
      "rotation": [
        0.08585511147975922,
        0.17548854649066925,
        0.021377256140112877,
        0.9804976582527161
      ],
      "scale": [
        1.0,
        1.0,
        1.0
      ],
      "translation": [
        -0.013166961260139942,
        0.0047495365142822266,
        -0.06351291388273239
      ]
    },
    {
      "children": [
        124
      ],
      "extras": {
        "Flags": 14,
        "ID": 274,
        "Parent ID": 272
      },
      "name": "L_ToeIndex1",
      "rotation": [
        -0.020940272137522697,
        -0.004779310431331396,
        -0.13955219089984894,
        0.9899817705154419
      ],
      "scale": [
        1.0,
        1.0,
        1.0
      ],
      "translation": [
        0.2861974239349365,
        2.38418573772492e-09,
        7.629394360719743e-08
      ]
    },
    {
      "extras": {
        "Flags": 14,
        "ID": 276,
        "Parent ID": 274
      },
      "name": "xL_ToeIndex",
      "rotation": [
        1.3969839729455202e-09,
        1.7113054084916257e-08,
        -3.725290742551124e-09,
        1.0
      ],
      "scale": [
        1.0,
        1.0,
        1.0
      ],
      "translation": [
        0.2483845055103302,
        -4.76837147544984e-09,
        -3.814697180359872e-08
      ]
    },
    {
      "children": [
        126
      ],
      "extras": {
        "Flags": 14,
        "ID": 278,
        "Parent ID": 261
      },
      "name": "L_ToeMiddle",
      "rotation": [
        -0.005551166366785765,
        -0.04393704980611801,
        0.008117906749248505,
        0.9989858865737915
      ],
      "scale": [
        1.0,
        1.0,
        1.0
      ],
      "translation": [
        0.0014045333955436945,
        0.003593072760850191,
        -0.009927940554916859
      ]
    },
    {
      "children": [
        127
      ],
      "extras": {
        "Flags": 14,
        "ID": 280,
        "Parent ID": 278
      },
      "name": "L_ToeMiddle1",
      "rotation": [
        0.0014351302525028586,
        -0.0006830958882346749,
        -0.14360395073890686,
        0.9896339774131775
      ],
      "scale": [
        1.0,
        1.0,
        1.0
      ],
      "translation": [
        0.3160662055015564,
        0.0,
        -3.814697180359872e-08
      ]
    },
    {
      "extras": {
        "Flags": 14,
        "ID": 282,
        "Parent ID": 280
      },
      "name": "xL_ToeMiddle",
      "rotation": [
        -4.656613428188905e-10,
        6.461050361394882e-09,
        3.008661442237581e-18,
        1.0
      ],
      "scale": [
        1.0,
        1.0,
        1.0
      ],
      "translation": [
        0.3079480230808258,
        8.881783998477905e-18,
        0.0
      ]
    },
    {
      "extras": {
        "Flags": 14,
        "ID": 284,
        "Parent ID": 252
      },
      "name": "L_ThighTwist2",
      "rotation": [
        -0.030538512393832207,
        5.688241197510102e-11,
        -1.8617763997141878e-09,
        0.9995335936546326
      ],
      "scale": [
        1.0,
        1.0,
        1.0
      ],
      "translation": [
        0.5167672634124756,
        0.014230537228286266,
        7.629394360719743e-08
      ]
    },
    {
      "extras": {
        "Flags": 14,
        "ID": 286,
        "Parent ID": 252
      },
      "name": "L_ThighTwist1",
      "rotation": [
        -0.07410849630832672,
        1.3803783116550505e-10,
        -1.8575232463291513e-09,
        0.9972501993179321
      ],
      "scale": [
        1.0,
        1.0,
        1.0
      ],
      "translation": [
        0.10082137584686279,
        1.907348590179936e-08,
        0.0
      ]
    },
    {
      "children": [
        131,
        144,
        145
      ],
      "extras": {
        "Flags": 14,
        "ID": 288,
        "Parent ID": 213
      },
      "name": "R_Thigh",
      "rotation": [
        0.7136812210083008,
        -0.6967751979827881,
        -0.07148943841457367,
        -0.007252485491335392
      ],
      "scale": [
        1.0,
        1.0,
        1.0
      ],
      "translation": [
        0.19308467209339142,
        0.019571075215935707,
        0.35007551312446594
      ]
    },
    {
      "children": [
        132
      ],
      "extras": {
        "Flags": 14,
        "ID": 291,
        "Parent ID": 288
      },
      "name": "R_Calf",
      "rotation": [
        -1.262760274643345e-17,
        -5.756443767756044e-18,
        0.41479548811912537,
        0.9099146723747253
      ],
      "scale": [
        1.0,
        1.0,
        1.0
      ],
      "translation": [
        -0.9085127115249634,
        3.814697180359872e-08,
        -3.0517577442878974e-07
      ]
    },
    {
      "children": [
        133
      ],
      "extras": {
        "Flags": 14,
        "ID": 294,
        "Parent ID": 291
      },
      "name": "R_Ankle",
      "rotation": [
        0.015942074358463287,
        0.041123002767562866,
        -0.5777052044868469,
        0.8150529861450195
      ],
      "scale": [
        1.0,
        1.0,
        1.0
      ],
      "translation": [
        -0.6370172500610352,
        1.0681152389224735e-06,
        6.866454782539222e-07
      ]
    },
    {
      "children": [
        134,
        135,
        138,
        141
      ],
      "extras": {
        "Flags": 14,
        "ID": 297,
        "Parent ID": 294
      },
      "name": "R_Foot",
      "rotation": [
        0.016960201784968376,
        0.0403439998626709,
        -0.399856835603714,
        0.9155322313308716
      ],
      "scale": [
        1.0,
        1.0,
        1.0
      ],
      "translation": [
        -0.5562678575515747,
        0.03496607765555382,
        -0.0227467343211174
      ]
    },
    {
      "extras": {
        "Flags": 14,
        "ID": 300,
        "Parent ID": 297
      },
      "name": "xR_Foot",
      "rotation": [
        -2.3283064365386963e-10,
        -0.0,
        0.0,
        1.0
      ],
      "scale": [
        1.0,
        1.0,
        1.0
      ],
      "translation": [
        -0.562110185623169,
        2.0027160019253643e-07,
        6.484985419774603e-07
      ]
    },
    {
      "children": [
        136
      ],
      "extras": {
        "Flags": 14,
        "ID": 302,
        "Parent ID": 297
      },
      "name": "R_ToePinky",
      "rotation": [
        -0.09779076278209686,
        -0.21564224362373352,
        0.020199056714773178,
        0.9713534116744995
      ],
      "scale": [
        1.0,
        1.0,
        1.0
      ],
      "translation": [
        0.025202959775924683,
        -0.008614740334451199,
        -0.052843816578388214
      ]
    },
    {
      "children": [
        137
      ],
      "extras": {
        "Flags": 14,
        "ID": 304,
        "Parent ID": 302
      },
      "name": "R_ToePinky1",
      "rotation": [
        0.014274773187935352,
        0.006824786309152842,
        -0.15014927089214325,
        0.9885367155075073
      ],
      "scale": [
        1.0,
        1.0,
        1.0
      ],
      "translation": [
        -0.2822988033294678,
        2.670288097306184e-07,
        -3.8146970382513246e-07
      ]
    },
    {
      "extras": {
        "Flags": 14,
        "ID": 306,
        "Parent ID": 304
      },
      "name": "xR_ToePinky",
      "rotation": [
        -4.6566123179658803e-10,
        -2.3283066585833012e-09,
        -3.725290742551124e-09,
        1.0
      ],
      "scale": [
        1.0,
        1.0,
        1.0
      ],
      "translation": [
        -0.23014995455741882,
        -1.907348590179936e-08,
        4.577636616431846e-07
      ]
    },
    {
      "children": [
        139
      ],
      "extras": {
        "Flags": 14,
        "ID": 308,
        "Parent ID": 297
      },
      "name": "R_ToeIndex",
      "rotation": [
        0.08585512638092041,
        0.17548857629299164,
        0.021377310156822205,
        0.9804976582527161
      ],
      "scale": [
        1.0,
        1.0,
        1.0
      ],
      "translation": [
        0.013167113997042179,
        -0.004748983308672905,
        0.0635128766298294
      ]
    },
    {
      "children": [
        140
      ],
      "extras": {
        "Flags": 14,
        "ID": 310,
        "Parent ID": 308
      },
      "name": "R_ToeIndex1",
      "rotation": [
        -0.020940274000167847,
        -0.004779285751283169,
        -0.13955219089984894,
        0.9899817705154419
      ],
      "scale": [
        1.0,
        1.0,
        1.0
      ],
      "translation": [
        -0.28619709610939026,
        -2.0742416495522775e-07,
        1.5258788721439487e-07
      ]
    },
    {
      "extras": {
        "Flags": 14,
        "ID": 312,
        "Parent ID": 310
      },
      "name": "xR_ToeIndex",
      "rotation": [
        1.3969838619232178e-09,
        1.05355866253376e-08,
        -3.725290298461914e-09,
        1.0
      ],
      "scale": [
        1.0,
        1.0,
        1.0
      ],
      "translation": [
        -0.24838462471961975,
        0.0,
        -3.0517577442878974e-07
      ]
    },
    {
      "children": [
        142
      ],
      "extras": {
        "Flags": 14,
        "ID": 314,
        "Parent ID": 297
      },
      "name": "R_ToeMiddle",
      "rotation": [
        -0.005551164969801903,
        -0.04393704608082771,
        0.00811791978776455,
        0.9989858865737915
      ],
      "scale": [
        1.0,
        1.0,
        1.0
      ],
      "translation": [
        -0.0014040946261957288,
        -0.003592862980440259,
        0.009928397834300995
      ]
    },
    {
      "children": [
        143
      ],
      "extras": {
        "Flags": 14,
        "ID": 316,
        "Parent ID": 314
      },
      "name": "R_ToeMiddle1",
      "rotation": [
        0.001435127342119813,
        -0.0006830960628576577,
        -0.14360395073890686,
        0.9896339774131775
      ],
      "scale": [
        1.0,
        1.0,
        1.0
      ],
      "translation": [
        -0.31606587767601013,
        -8.583068478174027e-08,
        1.5258788721439487e-07
      ]
    },
    {
      "extras": {
        "Flags": 14,
        "ID": 318,
        "Parent ID": 316
      },
      "name": "xR_ToeMiddle",
      "rotation": [
        4.656613428188905e-10,
        1.3387762010097504e-09,
        3.725290298461914e-09,
        1.0
      ],
      "scale": [
        1.0,
        1.0,
        1.0
      ],
      "translation": [
        -0.3079480826854706,
        2.8610228852699038e-08,
        1.1444091541079615e-07
      ]
    },
    {
      "extras": {
        "Flags": 14,
        "ID": 320,
        "Parent ID": 288
      },
      "name": "R_ThighTwist2",
      "rotation": [
        -0.030538512393832207,
        -3.751993382650198e-09,
        8.17123368967998e-10,
        0.9995335936546326
      ],
      "scale": [
        1.0,
        1.0,
        1.0
      ],
      "translation": [
        -0.5167604088783264,
        -0.014230308122932911,
        -2.670288097306184e-07
      ]
    },
    {
      "extras": {
        "Flags": 14,
        "ID": 322,
        "Parent ID": 288
      },
      "name": "R_ThighTwist1",
      "rotation": [
        -0.07410848885774612,
        -3.78406550538557e-09,
        6.526860163447168e-10,
        0.9972501993179321
      ],
      "scale": [
        1.0,
        1.0,
        1.0
      ],
      "translation": [
        -0.10082381963729858,
        -1.1444091541079615e-07,
        1.0299681889591739e-06
      ]
    },
    {
      "extras": {
        "Flags": 526,
        "Has GPU LODs": false,
        "ID": 346,
        "Material Path": "Materials\\Actors\\BipedA\\BipedA_FoxBat\\BipedA_FoxBat.mat",
        "NiIntegerExtraData:MaterialID": 1188208629,
        "Parent ID": 3
      },
      "mesh": 0,
      "name": "BipedA_FoxBat:0",
      "rotation": [
        0.0,
        0.0,
        0.0,
        1.0
      ],
      "scale": [
        1.0,
        1.0,
        1.0
      ],
      "skin": 0,
      "translation": [
        0.0,
        0.0,
        0.0
      ]
    }
  ],
  "scenes": [
    {
      "name": "ExportScene",
      "nodes": [
        0
      ]
    }
  ],
  "skins": [
    {
      "inverseBindMatrices": 0,
      "joints": [
        10,
        96,
        97,
        98,
        129,
        2,
        3,
        4,
        99,
        100,
        145,
        101,
        114,
        115,
        116,
        128,
        117,
        125,
        122,
        8,
        9,
        16,
        20,
        34,
        19,
        35,
        21,
        26,
        30,
        27,
        28,
        22,
        23,
        24,
        31,
        32,
        37,
        36,
        18,
        5,
        6,
        7,
        126,
        119,
        120,
        123,
        103,
        104,
        102,
        11,
        13,
        15,
        12,
        14,
        42,
        56,
        41,
        57,
        43,
        48,
        52,
        49,
        50,
        44,
        45,
        46,
        53,
        54,
        59,
        58,
        40,
        130,
        131,
        132,
        144,
        142,
        141,
        133,
        135,
        138,
        136,
        139,
        113
      ],
      "skeleton": 1
    }
  ]
}
