{
  "accessors": [
    {
      "bufferView": 0,
      "componentType": 5126,
      "count": 46,
      "type": "MAT4"
    },
    {
      "bufferView": 1,
      "componentType": 5126,
      "count": 13435,
      "max": [
        2.5812554359436035,
        2.151310682296753,
        1.6735129356384277
      ],
      "min": [
        -2.5812554359436035,
        -2.077333927154541,
        0.7591784596443176
      ],
      "type": "VEC3"
    },
    {
      "bufferView": 2,
      "componentType": 5126,
      "count": 13435,
      "type": "VEC3"
    },
    {
      "bufferView": 3,
      "componentType": 5126,
      "count": 13435,
      "type": "VEC4"
    },
    {
      "bufferView": 4,
      "componentType": 5126,
      "count": 13435,
      "type": "VEC2"
    },
    {
      "bufferView": 5,
      "componentType": 5126,
      "count": 13435,
      "type": "VEC4"
    },
    {
      "bufferView": 6,
      "componentType": 5123,
      "count": 13435,
      "type": "VEC4"
    },
    {
      "bufferView": 7,
      "componentType": 5123,
      "count": 71760,
      "type": "SCALAR"
    }
  ],
  "asset": {
    "generator": "NifSkope glTF 2.0 Exporter v1.2",
    "version": "2.0"
  },
  "bufferViews": [
    {
      "buffer": 0,
      "byteLength": 2944
    },
    {
      "buffer": 0,
      "byteLength": 161220,
      "byteOffset": 2944,
      "target": 34962
    },
    {
      "buffer": 0,
      "byteLength": 161220,
      "byteOffset": 164164,
      "target": 34962
    },
    {
      "buffer": 0,
      "byteLength": 214960,
      "byteOffset": 325384,
      "target": 34962
    },
    {
      "buffer": 0,
      "byteLength": 107480,
      "byteOffset": 540344,
      "target": 34962
    },
    {
      "buffer": 0,
      "byteLength": 214960,
      "byteOffset": 647824,
      "target": 34962
    },
    {
      "buffer": 0,
      "byteLength": 107480,
      "byteOffset": 862784,
      "target": 34962
    },
    {
      "buffer": 0,
      "byteLength": 143520,
      "byteOffset": 970264,
      "target": 34963
    }
  ],
  "buffers": [
    {
      "byteLength": 1113784,
      "name": "Flapwheel.bin",
      "uri": "Flapwheel.bin"
    }
  ],
  "materials": [
    {
      "extras": {
        "Material Path": "Default"
      },
      "name": "Default"
    },
    {
      "extras": {
        "Material Path": "materials/actors/mantaa/mantaa_flapwheel/mantaa_flapwheel.mat"
      },
      "name": "Materials/Actors/Mantaa/Mantaa_Flapwheel/Mantaa_Flapwheel"
    }
  ],
  "meshes": [
    {
      "name": "MantaA_FlapWheel:0",
      "primitives": [
        {
          "attributes": {
            "JOINTS_0": 6,
            "NORMAL": 2,
            "POSITION": 1,
            "TANGENT": 3,
            "TEXCOORD_0": 4,
            "WEIGHTS_0": 5
          },
          "indices": 7,
          "material": 1,
          "mode": 4
        }
      ]
    }
  ],
  "nodes": [
    {
      "children": [
        1,
        80
      ],
      "extras": {
        "Flags": 14,
        "ID": 3,
        "Parent ID": 0
      },
      "name": "Root",
      "rotation": [
        -0.7071067690849304,
        0.0,
        0.0,
        0.7071067690849304
      ],
      "scale": [
        1.0,
        1.0,
        1.0
      ],
      "translation": [
        0.0,
        0.0,
        -0.0
      ]
    },
    {
      "children": [
        2,
        33
      ],
      "extras": {
        "Flags": 14,
        "ID": 5,
        "Parent ID": 3
      },
      "name": "COM",
      "rotation": [
        0.0,
        0.0,
        0.0,
        1.0
      ],
      "scale": [
        1.0,
        1.0,
        1.0
      ],
      "translation": [
        0.0,
        0.0,
        0.28800490498542786
      ]
    },
    {
      "children": [
        3,
        31,
        32
      ],
      "extras": {
        "Flags": 14,
        "ID": 9,
        "Parent ID": 5
      },
      "name": "C_tail",
      "rotation": [
        -0.4999990463256836,
        0.5000010132789612,
        -0.5000009536743164,
        0.4999989867210388
      ],
      "scale": [
        1.0,
        1.0,
        1.0
      ],
      "translation": [
        2.327331003471045e-06,
        -0.26511213183403015,
        -0.0006355285295285285
      ]
    },
    {
      "children": [
        4,
        18,
        24,
        30
      ],
      "extras": {
        "Flags": 14,
        "ID": 12,
        "Parent ID": 9
      },
      "name": "C_tail2",
      "rotation": [
        0.0,
        -4.988007341188171e-24,
        7.95023881043051e-30,
        1.0
      ],
      "scale": [
        1.0,
        1.0,
        1.0
      ],
      "translation": [
        0.41241323947906494,
        0.0,
        -4.59910353356463e-07
      ]
    },
    {
      "children": [
        5
      ],
      "extras": {
        "Flags": 14,
        "ID": 15,
        "Parent ID": 12
      },
      "name": "C_tail3",
      "rotation": [
        0.0,
        -4.988007341188171e-24,
        1.6713990429370188e-29,
        1.0
      ],
      "scale": [
        1.0,
        1.0,
        1.0
      ],
      "translation": [
        0.49474775791168213,
        0.0,
        3.06497759083868e-06
      ]
    },
    {
      "children": [
        6,
        10,
        14
      ],
      "extras": {
        "Flags": 14,
        "ID": 18,
        "Parent ID": 15
      },
      "name": "C_tail4",
      "rotation": [
        0.0,
        -4.988007341188171e-24,
        -6.673270220103997e-29,
        1.0
      ],
      "scale": [
        1.0,
        1.0,
        1.0
      ],
      "translation": [
        0.5010355114936829,
        7.629394360719743e-08,
        4.550745416054269e-06
      ]
    },
    {
      "children": [
        7
      ],
      "extras": {
        "Flags": 14,
        "ID": 21,
        "Parent ID": 18
      },
      "name": "C_tail5",
      "rotation": [
        0.0,
        -4.988007341188171e-24,
        -3.1677695725281255e-29,
        1.0
      ],
      "scale": [
        1.0,
        1.0,
        1.0
      ],
      "translation": [
        0.6973423361778259,
        7.629394360719743e-08,
        4.755863756145118e-06
      ]
    },
    {
      "children": [
        8
      ],
      "extras": {
        "Flags": 14,
        "ID": 24,
        "Parent ID": 21
      },
      "name": "C_tail6",
      "rotation": [
        0.0,
        -4.988007341188171e-24,
        -6.254187864205334e-29,
        1.0
      ],
      "scale": [
        1.0,
        1.0,
        1.0
      ],
      "translation": [
        0.5500001311302185,
        -3.552713599391162e-17,
        2.5653721422713716e-06
      ]
    },
    {
      "children": [
        9
      ],
      "extras": {
        "Flags": 14,
        "ID": 27,
        "Parent ID": 24
      },
      "name": "C_tail7",
      "rotation": [
        0.0,
        -4.988007341188171e-24,
        -2.3296048607308005e-29,
        1.0
      ],
      "scale": [
        1.0,
        1.0,
        1.0
      ],
      "translation": [
        0.44999998807907104,
        1.5258788721439487e-07,
        2.083560730170575e-06
      ]
    },
    {
      "extras": {
        "Flags": 14,
        "ID": 29,
        "Parent ID": 27
      },
      "name": "C_tail8",
      "rotation": [
        1.3234889800848443e-23,
        -4.660500002079703e-25,
        -2.7755575615628914e-17,
        1.0
      ],
      "scale": [
        1.0,
        1.0,
        1.0
      ],
      "translation": [
        0.3203018009662628,
        0.0,
        1.492456021878752e-06
      ]
    },
    {
      "children": [
        11
      ],
      "extras": {
        "Flags": 14,
        "ID": 31,
        "Parent ID": 18
      },
      "name": "R_rear2",
      "rotation": [
        1.3113021850585938e-05,
        1.153903426143188e-07,
        1.0,
        -1.9470869005999702e-07
      ],
      "scale": [
        1.0,
        1.0,
        1.0
      ],
      "translation": [
        0.09734206646680832,
        6.103515488575795e-07,
        0.32838669419288635
      ]
    },
    {
      "children": [
        12
      ],
      "extras": {
        "Flags": 14,
        "ID": 34,
        "Parent ID": 31
      },
      "name": "R_rear3",
      "rotation": [
        1.0535360139840577e-08,
        7.91060028859647e-06,
        1.604877475358535e-08,
        1.0
      ],
      "scale": [
        1.0,
        1.0,
        1.0
      ],
      "translation": [
        -0.5999996662139893,
        7.629394360719743e-08,
        8.77380352903856e-06
      ]
    },
    {
      "children": [
        13
      ],
      "extras": {
        "Flags": 14,
        "ID": 37,
        "Parent ID": 34
      },
      "name": "R_rear4",
      "rotation": [
        -2.6469779601696886e-23,
        8.741586014077152e-14,
        2.6469779601696886e-23,
        1.0
      ],
      "scale": [
        1.0,
        1.0,
        1.0
      ],
      "translation": [
        -0.5500003099441528,
        7.629394360719743e-08,
        2.670288097306184e-07
      ]
    },
    {
      "extras": {
        "Flags": 14,
        "ID": 40,
        "Parent ID": 37
      },
      "name": "R_rear5",
      "rotation": [
        1.4068746168049984e-12,
        2.418902578238402e-11,
        4.5378412623828137e-23,
        1.0
      ],
      "scale": [
        1.0,
        1.0,
        1.0
      ],
      "translation": [
        -0.44999998807907104,
        0.0,
        -7.629394076502649e-07
      ]
    },
    {
      "children": [
        15
      ],
      "extras": {
        "Flags": 14,
        "ID": 42,
        "Parent ID": 18
      },
      "name": "L_rear2",
      "rotation": [
        1.1515688669305746e-07,
        -1.0251998901367188e-05,
        1.1701450830514659e-07,
        1.0
      ],
      "scale": [
        1.0,
        1.0,
        1.0
      ],
      "translation": [
        0.09734313935041428,
        1.5258788721439487e-07,
        -0.3284018933773041
      ]
    },
    {
      "children": [
        16
      ],
      "extras": {
        "Flags": 14,
        "ID": 45,
        "Parent ID": 42
      },
      "name": "L_rear3",
      "rotation": [
        -5.60743281557254e-20,
        7.89269142842386e-06,
        7.105427357601002e-15,
        1.0
      ],
      "scale": [
        1.0,
        1.0,
        1.0
      ],
      "translation": [
        0.5999999642372131,
        3.552713599391162e-17,
        -8.163451639120467e-06
      ]
    },
    {
      "children": [
        17
      ],
      "extras": {
        "Flags": 14,
        "ID": 48,
        "Parent ID": 45
      },
      "name": "L_rear4",
      "rotation": [
        -1.0436885535795267e-37,
        7.88588775036585e-15,
        1.3234889800848443e-23,
        1.0
      ],
      "scale": [
        1.0,
        1.0,
        1.0
      ],
      "translation": [
        0.5500001311302185,
        3.0517577442878974e-07,
        1.1444091541079615e-07
      ]
    },
    {
      "extras": {
        "Flags": 14,
        "ID": 51,
        "Parent ID": 48
      },
      "name": "L_rear5",
      "rotation": [
        1.2079226507921703e-13,
        7.885888597398798e-15,
        7.105427357601002e-15,
        1.0
      ],
      "scale": [
        1.0,
        1.0,
        1.0
      ],
      "translation": [
        0.44999998807907104,
        -7.629394360719743e-08,
        1.1444091541079615e-07
      ]
    },
    {
      "children": [
        19
      ],
      "extras": {
        "Flags": 14,
        "ID": 53,
        "Parent ID": 12
      },
      "name": "R_wingD",
      "rotation": [
        0.7071076035499573,
        -1.3767861162250483e-07,
        -0.7071058750152588,
        -1.3767892426130857e-07
      ],
      "scale": [
        1.0,
        1.0,
        1.0
      ],
      "translation": [
        -0.0014036559732630849,
        6.103515488575795e-07,
        0.32839977741241455
      ]
    },
    {
      "children": [
        20
      ],
      "extras": {
        "Flags": 14,
        "ID": 56,
        "Parent ID": 53
      },
      "name": "R_wingD2",
      "rotation": [
        1.8198069787200843e-11,
        -9.298324584960938e-06,
        5.388493491409463e-07,
        1.0
      ],
      "scale": [
        1.0,
        1.0,
        1.0
      ],
      "translation": [
        -0.3500003218650818,
        -2.288818308215923e-07,
        -9.155273232863692e-07
      ]
    },
    {
      "children": [
        21
      ],
      "extras": {
        "Flags": 14,
        "ID": 59,
        "Parent ID": 56
      },
      "name": "R_wingD3",
      "rotation": [
        1.3046510920211585e-11,
        7.910554813861381e-06,
        1.6048375073296484e-08,
        1.0
      ],
      "scale": [
        1.0,
        1.0,
        1.0
      ],
      "translation": [
        -0.3199999928474426,
        7.629394360719743e-08,
        5.645752025884576e-06
      ]
    },
    {
      "children": [
        22
      ],
      "extras": {
        "Flags": 14,
        "ID": 62,
        "Parent ID": 59
      },
      "name": "R_wingD4",
      "rotation": [
        1.3201884030422661e-11,
        4.752156784401662e-13,
        2.0548449545411204e-22,
        1.0
      ],
      "scale": [
        1.0,
        1.0,
        1.0
      ],
      "translation": [
        -0.31000036001205444,
        5.7220457705398076e-08,
        3.8146970382513246e-07
      ]
    },
    {
      "children": [
        23
      ],
      "extras": {
        "Flags": 14,
        "ID": 65,
        "Parent ID": 62
      },
      "name": "R_wingD5",
      "rotation": [
        1.3201884030422661e-11,
        4.752324835738397e-13,
        2.0548426826217133e-22,
        1.0
      ],
      "scale": [
        1.0,
        1.0,
        1.0
      ],
      "translation": [
        -0.29999998211860657,
        1.7166136956348055e-07,
        1.5258788721439487e-07
      ]
    },
    {
      "extras": {
        "Flags": 14,
        "ID": 68,
        "Parent ID": 65
      },
      "name": "R_wingD6",
      "rotation": [
        1.3201884030422661e-11,
        4.752492887075133e-13,
        2.0548405369200511e-22,
        1.0
      ],
      "scale": [
        1.0,
        1.0,
        1.0
      ],
      "translation": [
        -0.29999998211860657,
        1.5258788721439487e-07,
        -1.4210854397564648e-16
      ]
    },
    {
      "children": [
        25
      ],
      "extras": {
        "Flags": 14,
        "ID": 70,
        "Parent ID": 12
      },
      "name": "L_wingD",
      "rotation": [
        2.27117153209222e-12,
        0.7071043848991394,
        -2.2711565701022396e-12,
        0.7071091532707214
      ],
      "scale": [
        1.0,
        1.0,
        1.0
      ],
      "translation": [
        -0.0013992309104651213,
        1.5258788721439487e-07,
        -0.32840025424957275
      ]
    },
    {
      "children": [
        26
      ],
      "extras": {
        "Flags": 14,
        "ID": 73,
        "Parent ID": 70
      },
      "name": "L_wingD2",
      "rotation": [
        7.274103736888693e-13,
        -9.298324584960938e-06,
        7.821832070931123e-08,
        1.0
      ],
      "scale": [
        1.0,
        1.0,
        1.0
      ],
      "translation": [
        0.3500001132488251,
        -3.0517577442878974e-07,
        -1.983642505365424e-06
      ]
    },
    {
      "children": [
        27
      ],
      "extras": {
        "Flags": 14,
        "ID": 76,
        "Parent ID": 73
      },
      "name": "L_wingD3",
      "rotation": [
        -1.2684594856687131e-13,
        7.910544809419662e-06,
        1.6049080286961726e-08,
        1.0
      ],
      "scale": [
        1.0,
        1.0,
        1.0
      ],
      "translation": [
        0.3199999928474426,
        0.0,
        -8.239745511673391e-06
      ]
    },
    {
      "children": [
        28
      ],
      "extras": {
        "Flags": 14,
        "ID": 79,
        "Parent ID": 76
      },
      "name": "L_wingD4",
      "rotation": [
        -2.168404344971009e-19,
        6.254996327988506e-20,
        1.6543612251060553e-24,
        1.0
      ],
      "scale": [
        1.0,
        1.0,
        1.0
      ],
      "translation": [
        0.30999985337257385,
        -1.907348590179936e-08,
        1.4210854397564648e-16
      ]
    },
    {
      "children": [
        29
      ],
      "extras": {
        "Flags": 14,
        "ID": 82,
        "Parent ID": 79
      },
      "name": "L_wingD5",
      "rotation": [
        -2.168404344971009e-19,
        6.254995681753652e-20,
        1.6543612251060553e-24,
        1.0
      ],
      "scale": [
        1.0,
        1.0,
        1.0
      ],
      "translation": [
        0.29999998211860657,
        -2.288818308215923e-07,
        4.577636616431846e-07
      ]
    },
    {
      "extras": {
        "Flags": 14,
        "ID": 85,
        "Parent ID": 82
      },
      "name": "L_wingD6",
      "rotation": [
        -2.168404344971009e-19,
        6.254995681753652e-20,
        1.6543612251060553e-24,
        1.0
      ],
      "scale": [
        1.0,
        1.0,
        1.0
      ],
      "translation": [
        0.29999998211860657,
        -1.907348590179936e-08,
        -3.0517577442878974e-07
      ]
    },
    {
      "extras": {
        "Flags": 14,
        "ID": 87,
        "Parent ID": 12
      },
      "name": "C_UpperBack",
      "rotation": [
        0.7071090936660767,
        -3.090851663500871e-08,
        0.7071044445037842,
        3.09087191396884e-08
      ],
      "scale": [
        1.0,
        1.0,
        1.0
      ],
      "translation": [
        0.4155998229980469,
        -0.5248745679855347,
        -1.2788592584911385e-06
      ]
    },
    {
      "extras": {
        "Flags": 14,
        "ID": 89,
        "Parent ID": 9
      },
      "name": "C_UpperMid",
      "rotation": [
        0.7071090936660767,
        -3.090851663500871e-08,
        0.7071044445037842,
        3.09087191396884e-08
      ],
      "scale": [
        1.0,
        1.0,
        1.0
      ],
      "translation": [
        0.01232223492115736,
        -0.5935083031654358,
        -3.2306904813594883e-06
      ]
    },
    {
      "extras": {
        "Flags": 14,
        "ID": 91,
        "Parent ID": 9
      },
      "name": "C_LowerMid",
      "rotation": [
        0.7071090936660767,
        -3.090851663500871e-08,
        0.7071044445037842,
        3.09087191396884e-08
      ],
      "scale": [
        1.0,
        1.0,
        1.0
      ],
      "translation": [
        -0.04569564759731293,
        0.49180540442466736,
        -2.9050665943941567e-06
      ]
    },
    {
      "children": [
        34,
        66,
        72,
        78,
        79
      ],
      "extras": {
        "Flags": 14,
        "ID": 93,
        "Parent ID": 5
      },
      "name": "C_spine",
      "rotation": [
        0.5,
        0.5000000596046448,
        -0.5,
        -0.4999999403953552
      ],
      "scale": [
        1.0,
        1.0,
        1.0
      ],
      "translation": [
        1.7093030919568264e-06,
        0.2036263644695282,
        -0.0006355285295285285
      ]
    },
    {
      "children": [
        35,
        52,
        58,
        64,
        65
      ],
      "extras": {
        "Flags": 14,
        "ID": 96,
        "Parent ID": 93
      },
      "name": "C_spine2",
      "rotation": [
        -4.5974657999874047e-14,
        1.1856350283778738e-06,
        3.8776398980644444e-08,
        1.0
      ],
      "scale": [
        1.0,
        1.0,
        1.0
      ],
      "translation": [
        0.4245707094669342,
        -0.0023490905296057463,
        -1.5251841887220507e-06
      ]
    },
    {
      "children": [
        36,
        37,
        38,
        44,
        50,
        51
      ],
      "extras": {
        "Flags": 14,
        "ID": 99,
        "Parent ID": 96
      },
      "name": "C_spine3",
      "rotation": [
        4.4888208937223394e-29,
        -6.317453782594008e-15,
        7.105427357601002e-15,
        1.0
      ],
      "scale": [
        1.0,
        1.0,
        1.0
      ],
      "translation": [
        0.4950352609157562,
        3.8146970382513246e-07,
        6.097910727476119e-07
      ]
    },
    {
      "extras": {
        "Flags": 14,
        "ID": 102,
        "Parent ID": 99
      },
      "name": "C_spine4",
      "rotation": [
        1.3234933977059135e-23,
        -6.317454629626955e-15,
        7.105427357601002e-15,
        1.0
      ],
      "scale": [
        1.0,
        1.0,
        1.0
      ],
      "translation": [
        0.5527790188789368,
        0.0,
        2.0748966562678106e-06
      ]
    },
    {
      "extras": {
        "Flags": 14,
        "ID": 104,
        "Parent ID": 99
      },
      "name": "DirectAt",
      "rotation": [
        0.5000005960464478,
        0.49999940395355225,
        -0.49999940395355225,
        0.5000005960464478
      ],
      "scale": [
        1.0,
        1.0,
        1.0
      ],
      "translation": [
        0.0,
        0.0,
        0.0
      ]
    },
    {
      "children": [
        39
      ],
      "extras": {
        "Flags": 14,
        "ID": 106,
        "Parent ID": 99
      },
      "name": "L_wingA",
      "rotation": [
        5.024296628833866e-15,
        -0.7071065902709961,
        5.024294511251498e-15,
        0.70710688829422
      ],
      "scale": [
        1.0,
        1.0,
        1.0
      ],
      "translation": [
        0.03754493594169617,
        0.0023491668980568647,
        0.3284003436565399
      ]
    },
    {
      "children": [
        40
      ],
      "extras": {
        "Flags": 14,
        "ID": 109,
        "Parent ID": 106
      },
      "name": "L_wingA2",
      "rotation": [
        7.274882194048538e-13,
        -9.298324584960938e-06,
        7.823863512612661e-08,
        1.0
      ],
      "scale": [
        1.0,
        1.0,
        1.0
      ],
      "translation": [
        0.34999990463256836,
        0.0,
        -2.136230477844947e-06
      ]
    },
    {
      "children": [
        41
      ],
      "extras": {
        "Flags": 14,
        "ID": 112,
        "Parent ID": 109
      },
      "name": "L_wingA3",
      "rotation": [
        -1.3051281518190738e-13,
        7.910576641734224e-06,
        1.6049412465690693e-08,
        1.0
      ],
      "scale": [
        1.0,
        1.0,
        1.0
      ],
      "translation": [
        0.3199999928474426,
        3.552713599391162e-17,
        -8.163451639120467e-06
      ]
    },
    {
      "children": [
        42
      ],
      "extras": {
        "Flags": 14,
        "ID": 115,
        "Parent ID": 112
      },
      "name": "L_wingA4",
      "rotation": [
        -7.912781880424608e-28,
        2.7840626193862718e-14,
        2.842170943040401e-14,
        1.0
      ],
      "scale": [
        1.0,
        1.0,
        1.0
      ],
      "translation": [
        0.30999991297721863,
        0.0,
        7.629394360719743e-08
      ]
    },
    {
      "children": [
        43
      ],
      "extras": {
        "Flags": 14,
        "ID": 118,
        "Parent ID": 115
      },
      "name": "L_wingA5",
      "rotation": [
        1.3234098573360506e-23,
        2.7840627887928612e-14,
        2.842170943040401e-14,
        1.0
      ],
      "scale": [
        1.0,
        1.0,
        1.0
      ],
      "translation": [
        0.29999998211860657,
        -2.0980834847250662e-07,
        -7.629394360719743e-08
      ]
    },
    {
      "extras": {
        "Flags": 14,
        "ID": 121,
        "Parent ID": 118
      },
      "name": "L_wingA6",
      "rotation": [
        -7.912782361907094e-28,
        2.7840627887928612e-14,
        2.842170943040401e-14,
        1.0
      ],
      "scale": [
        1.0,
        1.0,
        1.0
      ],
      "translation": [
        0.29999998211860657,
        0.0,
        0.0
      ]
    },
    {
      "children": [
        45
      ],
      "extras": {
        "Flags": 14,
        "ID": 123,
        "Parent ID": 99
      },
      "name": "R_wingA",
      "rotation": [
        0.7071101069450378,
        -2.2197141902324802e-07,
        0.707103431224823,
        2.2197350801889115e-07
      ],
      "scale": [
        1.0,
        1.0,
        1.0
      ],
      "translation": [
        0.0375463105738163,
        0.0023497771471738815,
        -0.32840031385421753
      ]
    },
    {
      "children": [
        46
      ],
      "extras": {
        "Flags": 14,
        "ID": 126,
        "Parent ID": 123
      },
      "name": "R_wingA2",
      "rotation": [
        1.824120943183516e-08,
        -1.1682510375976563e-05,
        5.38849462827784e-07,
        1.0
      ],
      "scale": [
        1.0,
        1.0,
        1.0
      ],
      "translation": [
        -0.3499996066093445,
        -2.288818308215923e-07,
        4.577636616431846e-07
      ]
    },
    {
      "children": [
        47
      ],
      "extras": {
        "Flags": 14,
        "ID": 129,
        "Parent ID": 126
      },
      "name": "R_wingA3",
      "rotation": [
        2.235189988653019e-08,
        7.910550266387872e-06,
        1.6048282702740835e-08,
        1.0
      ],
      "scale": [
        1.0,
        1.0,
        1.0
      ],
      "translation": [
        -0.3199999928474426,
        9.536742595628311e-08,
        7.705688403802924e-06
      ]
    },
    {
      "children": [
        48
      ],
      "extras": {
        "Flags": 14,
        "ID": 132,
        "Parent ID": 129
      },
      "name": "R_wingA4",
      "rotation": [
        -1.4210854715202004e-14,
        -2.220911307507581e-13,
        8.526512829121202e-14,
        1.0
      ],
      "scale": [
        1.0,
        1.0,
        1.0
      ],
      "translation": [
        -0.309996098279953,
        1.5258788721439487e-07,
        2.288818308215923e-07
      ]
    },
    {
      "children": [
        49
      ],
      "extras": {
        "Flags": 14,
        "ID": 135,
        "Parent ID": 132
      },
      "name": "R_wingA5",
      "rotation": [
        -1.4210854715202004e-14,
        -2.220911307507581e-13,
        8.526512829121202e-14,
        1.0
      ],
      "scale": [
        1.0,
        1.0,
        1.0
      ],
      "translation": [
        -0.29999998211860657,
        1.5258788721439487e-07,
        -9.155273232863692e-07
      ]
    },
    {
      "extras": {
        "Flags": 14,
        "ID": 138,
        "Parent ID": 135
      },
      "name": "R_wingA6",
      "rotation": [
        -1.4210854715202004e-14,
        -2.220911307507581e-13,
        8.526512829121202e-14,
        1.0
      ],
      "scale": [
        1.0,
        1.0,
        1.0
      ],
      "translation": [
        -0.29999998211860657,
        7.629394360719743e-08,
        1.5258788721439487e-07
      ]
    },
    {
      "extras": {
        "Flags": 14,
        "ID": 140,
        "Parent ID": 99
      },
      "name": "C_upperLip",
      "rotation": [
        1.3234933977059135e-23,
        -6.317454629626955e-15,
        7.105427357601002e-15,
        1.0
      ],
      "scale": [
        1.0,
        1.0,
        1.0
      ],
      "translation": [
        0.23504585027694702,
        -0.0407114215195179,
        2.074896883641486e-06
      ]
    },
    {
      "extras": {
        "Flags": 14,
        "ID": 142,
        "Parent ID": 99
      },
      "name": "C_jaw",
      "rotation": [
        1.3234933977059135e-23,
        -6.317454629626955e-15,
        7.105427357601002e-15,
        1.0
      ],
      "scale": [
        1.0,
        1.0,
        1.0
      ],
      "translation": [
        0.08066512644290924,
        0.15210342407226563,
        2.0748966562678106e-06
      ]
    },
    {
      "children": [
        53
      ],
      "extras": {
        "Flags": 14,
        "ID": 144,
        "Parent ID": 96
      },
      "name": "L_wingB",
      "rotation": [
        5.024296628833866e-15,
        -0.7071065902709961,
        5.024294511251498e-15,
        0.70710688829422
      ],
      "scale": [
        1.0,
        1.0,
        1.0
      ],
      "translation": [
        -0.057329099625349045,
        0.0023495673667639494,
        0.3284006714820862
      ]
    },
    {
      "children": [
        54
      ],
      "extras": {
        "Flags": 14,
        "ID": 147,
        "Parent ID": 144
      },
      "name": "L_wingB2",
      "rotation": [
        7.274882194048538e-13,
        -9.298324584960938e-06,
        7.823863512612661e-08,
        1.0
      ],
      "scale": [
        1.0,
        1.0,
        1.0
      ],
      "translation": [
        0.35000014305114746,
        0.0,
        -1.6021728015402914e-06
      ]
    },
    {
      "children": [
        55
      ],
      "extras": {
        "Flags": 14,
        "ID": 150,
        "Parent ID": 147
      },
      "name": "L_wingB3",
      "rotation": [
        -1.3051281518190738e-13,
        7.910576641734224e-06,
        1.6049412465690693e-08,
        1.0
      ],
      "scale": [
        1.0,
        1.0,
        1.0
      ],
      "translation": [
        0.3199999928474426,
        -3.8146970382513246e-07,
        -8.201598575396929e-06
      ]
    },
    {
      "children": [
        56
      ],
      "extras": {
        "Flags": 14,
        "ID": 153,
        "Parent ID": 150
      },
      "name": "L_wingB4",
      "rotation": [
        -6.618236127912158e-24,
        2.7840624499796823e-14,
        2.842170943040401e-14,
        1.0
      ],
      "scale": [
        1.0,
        1.0,
        1.0
      ],
      "translation": [
        0.30999961495399475,
        -3.623962356869015e-07,
        -7.105427198782324e-17
      ]
    },
    {
      "children": [
        57
      ],
      "extras": {
        "Flags": 14,
        "ID": 156,
        "Parent ID": 153
      },
      "name": "L_wingB5",
      "rotation": [
        -6.618236127912158e-24,
        2.7840626193862718e-14,
        2.842170943040401e-14,
        1.0
      ],
      "scale": [
        1.0,
        1.0,
        1.0
      ],
      "translation": [
        0.29999998211860657,
        1.5258788721439487e-07,
        0.0
      ]
    },
    {
      "extras": {
        "Flags": 14,
        "ID": 159,
        "Parent ID": 156
      },
      "name": "L_wingB6",
      "rotation": [
        6.616653672936285e-24,
        2.7840627887928612e-14,
        2.842170943040401e-14,
        1.0
      ],
      "scale": [
        1.0,
        1.0,
        1.0
      ],
      "translation": [
        0.29999998211860657,
        1.907348590179936e-08,
        -7.105427198782324e-17
      ]
    },
    {
      "children": [
        59
      ],
      "extras": {
        "Flags": 14,
        "ID": 161,
        "Parent ID": 96
      },
      "name": "R_wingB",
      "rotation": [
        0.7071101069450378,
        -2.2197141902324802e-07,
        0.707103431224823,
        2.2197350801889115e-07
      ],
      "scale": [
        1.0,
        1.0,
        1.0
      ],
      "translation": [
        -0.05732753500342369,
        0.0023497771471738815,
        -0.32840007543563843
      ]
    },
    {
      "children": [
        60
      ],
      "extras": {
        "Flags": 14,
        "ID": 164,
        "Parent ID": 161
      },
      "name": "R_wingB2",
      "rotation": [
        1.824123785354459e-08,
        -1.1682510375976563e-05,
        5.388499175751349e-07,
        1.0
      ],
      "scale": [
        1.0,
        1.0,
        1.0
      ],
      "translation": [
        -0.349999338388443,
        -2.288818308215923e-07,
        -1.1444091541079615e-07
      ]
    },
    {
      "children": [
        61
      ],
      "extras": {
        "Flags": 14,
        "ID": 167,
        "Parent ID": 164
      },
      "name": "R_wingB3",
      "rotation": [
        2.235192830823962e-08,
        7.910550266387872e-06,
        1.6048794293510582e-08,
        1.0
      ],
      "scale": [
        1.0,
        1.0,
        1.0
      ],
      "translation": [
        -0.3199999928474426,
        1.907348590179936e-08,
        8.430481102550402e-06
      ]
    },
    {
      "children": [
        62
      ],
      "extras": {
        "Flags": 14,
        "ID": 170,
        "Parent ID": 167
      },
      "name": "R_wingB4",
      "rotation": [
        1.4210854715202004e-14,
        -2.2209163219426287e-13,
        1.1368683772161603e-13,
        1.0
      ],
      "scale": [
        1.0,
        1.0,
        1.0
      ],
      "translation": [
        -0.3099960386753082,
        1.5258788721439487e-07,
        -7.629394360719743e-08
      ]
    },
    {
      "children": [
        63
      ],
      "extras": {
        "Flags": 14,
        "ID": 173,
        "Parent ID": 170
      },
      "name": "R_wingB5",
      "rotation": [
        1.4210854715202004e-14,
        -2.2209164574679002e-13,
        1.1368683772161603e-13,
        1.0
      ],
      "scale": [
        1.0,
        1.0,
        1.0
      ],
      "translation": [
        -0.29999998211860657,
        -7.629394360719743e-08,
        3.814697180359872e-08
      ]
    },
    {
      "extras": {
        "Flags": 14,
        "ID": 176,
        "Parent ID": 173
      },
      "name": "R_wingB6",
      "rotation": [
        1.4210854715202004e-14,
        -2.2209165929931718e-13,
        1.1368683772161603e-13,
        1.0
      ],
      "scale": [
        1.0,
        1.0,
        1.0
      ],
      "translation": [
        -0.29999998211860657,
        1.5258788721439487e-07,
        7.629394360719743e-08
      ]
    },
    {
      "extras": {
        "Flags": 14,
        "ID": 178,
        "Parent ID": 96
      },
      "name": "C_Lower",
      "rotation": [
        0.707107663154602,
        3.090858058385493e-08,
        -0.7071058750152588,
        3.090865519084218e-08
      ],
      "scale": [
        1.0,
        1.0,
        1.0
      ],
      "translation": [
        0.19643718004226685,
        0.47341108322143555,
        3.834708422800759e-06
      ]
    },
    {
      "extras": {
        "Flags": 14,
        "ID": 180,
        "Parent ID": 96
      },
      "name": "C_Upper",
      "rotation": [
        0.707107663154602,
        3.090858058385493e-08,
        -0.7071058750152588,
        3.090865519084218e-08
      ],
      "scale": [
        1.0,
        1.0,
        1.0
      ],
      "translation": [
        0.1964370310306549,
        -0.36638006567955017,
        3.5719008337764535e-06
      ]
    },
    {
      "children": [
        67
      ],
      "extras": {
        "Flags": 14,
        "ID": 182,
        "Parent ID": 93
      },
      "name": "R_wingC",
      "rotation": [
        0.7071077227592468,
        -2.219721579876932e-07,
        0.7071057558059692,
        2.2197276905444596e-07
      ],
      "scale": [
        1.0,
        1.0,
        1.0
      ],
      "translation": [
        -0.21746394038200378,
        6.103515488575795e-07,
        -0.32840144634246826
      ]
    },
    {
      "children": [
        68
      ],
      "extras": {
        "Flags": 14,
        "ID": 185,
        "Parent ID": 182
      },
      "name": "R_wingC2",
      "rotation": [
        5.038815718838574e-12,
        -9.298323675466236e-06,
        5.388491786106897e-07,
        1.0
      ],
      "scale": [
        1.0,
        1.0,
        1.0
      ],
      "translation": [
        -0.34999972581863403,
        1.5258788721439487e-07,
        2.3722648165858118e-06
      ]
    },
    {
      "children": [
        69
      ],
      "extras": {
        "Flags": 14,
        "ID": 188,
        "Parent ID": 185
      },
      "name": "R_wingC3",
      "rotation": [
        -9.853668445428121e-14,
        7.910546628409065e-06,
        1.6049256146288826e-08,
        1.0
      ],
      "scale": [
        1.0,
        1.0,
        1.0
      ],
      "translation": [
        -0.3199999928474426,
        1.5258788721439487e-07,
        8.232593245338649e-06
      ]
    },
    {
      "children": [
        70
      ],
      "extras": {
        "Flags": 14,
        "ID": 191,
        "Parent ID": 188
      },
      "name": "R_wingC4",
      "rotation": [
        2.842170943040401e-14,
        1.294375847823992e-12,
        -5.684341886080802e-14,
        1.0
      ],
      "scale": [
        1.0,
        1.0,
        1.0
      ],
      "translation": [
        -0.3099958598613739,
        0.0,
        1.5258788721439487e-07
      ]
    },
    {
      "children": [
        71
      ],
      "extras": {
        "Flags": 14,
        "ID": 194,
        "Parent ID": 191
      },
      "name": "R_wingC5",
      "rotation": [
        2.842170943040401e-14,
        1.294375847823992e-12,
        -5.684341886080802e-14,
        1.0
      ],
      "scale": [
        1.0,
        1.0,
        1.0
      ],
      "translation": [
        -0.29999998211860657,
        1.5258788721439487e-07,
        1.5258788721439487e-07
      ]
    },
    {
      "extras": {
        "Flags": 14,
        "ID": 197,
        "Parent ID": 194
      },
      "name": "R_wingC6",
      "rotation": [
        -4.11262135457946e-11,
        1.294375847823992e-12,
        -5.684341886080802e-14,
        1.0
      ],
      "scale": [
        1.0,
        1.0,
        1.0
      ],
      "translation": [
        -0.29999998211860657,
        1.5258788721439487e-07,
        -9.107589562518115e-07
      ]
    },
    {
      "children": [
        73
      ],
      "extras": {
        "Flags": 14,
        "ID": 199,
        "Parent ID": 93
      },
      "name": "L_wingC",
      "rotation": [
        4.213126576801558e-18,
        -0.7071059346199036,
        4.213135675788296e-18,
        0.7071075439453125
      ],
      "scale": [
        1.0,
        1.0,
        1.0
      ],
      "translation": [
        -0.21746349334716797,
        7.629394360719743e-08,
        0.32840052247047424
      ]
    },
    {
      "children": [
        74
      ],
      "extras": {
        "Flags": 14,
        "ID": 202,
        "Parent ID": 199
      },
      "name": "L_wingC2",
      "rotation": [
        7.274916888518057e-13,
        -9.298324584960938e-06,
        7.823899750292185e-08,
        1.0
      ],
      "scale": [
        1.0,
        1.0,
        1.0
      ],
      "translation": [
        0.3500005006790161,
        3.8146970382513246e-07,
        -1.6021728015402914e-06
      ]
    },
    {
      "children": [
        75
      ],
      "extras": {
        "Flags": 14,
        "ID": 205,
        "Parent ID": 202
      },
      "name": "L_wingC3",
      "rotation": [
        -1.2695663205615493e-13,
        7.910562999313697e-06,
        1.6049000350903952e-08,
        1.0
      ],
      "scale": [
        1.0,
        1.0,
        1.0
      ],
      "translation": [
        0.3199999928474426,
        -1.907348590179936e-08,
        -8.163451639120467e-06
      ]
    },
    {
      "children": [
        76
      ],
      "extras": {
        "Flags": 14,
        "ID": 208,
        "Parent ID": 205
      },
      "name": "L_wingC4",
      "rotation": [
        -2.710505431213761e-20,
        2.7799490611731134e-21,
        -5.293955920339377e-23,
        1.0
      ],
      "scale": [
        1.0,
        1.0,
        1.0
      ],
      "translation": [
        0.3099996745586395,
        0.0,
        0.0
      ]
    },
    {
      "children": [
        77
      ],
      "extras": {
        "Flags": 14,
        "ID": 211,
        "Parent ID": 208
      },
      "name": "L_wingC5",
      "rotation": [
        -2.710505431213761e-20,
        2.7799395695987018e-21,
        -5.293955920339377e-23,
        1.0
      ],
      "scale": [
        1.0,
        1.0,
        1.0
      ],
      "translation": [
        0.29999998211860657,
        1.5258788721439487e-07,
        -8.34465012644614e-08
      ]
    },
    {
      "extras": {
        "Flags": 14,
        "ID": 214,
        "Parent ID": 211
      },
      "name": "L_wingC6",
      "rotation": [
        -1.0842021724855044e-19,
        2.77993007802429e-21,
        -5.293955920339377e-23,
        1.0
      ],
      "scale": [
        1.0,
        1.0,
        1.0
      ],
      "translation": [
        0.29999998211860657,
        -2.0980834847250662e-07,
        -2.2204459996194763e-18
      ]
    },
    {
      "extras": {
        "Flags": 14,
        "ID": 216,
        "Parent ID": 93
      },
      "name": "C_Upper2",
      "rotation": [
        0.7071067690849304,
        1.376787679419067e-07,
        -0.7071067094802856,
        1.376787679419067e-07
      ],
      "scale": [
        1.0,
        1.0,
        1.0
      ],
      "translation": [
        0.24588778614997864,
        -0.6082699298858643,
        1.592462922417326e-06
      ]
    },
    {
      "extras": {
        "Flags": 14,
        "ID": 218,
        "Parent ID": 93
      },
      "name": "C_Lower2",
      "rotation": [
        0.7071067690849304,
        1.376787679419067e-07,
        -0.7071067094802856,
        1.376787679419067e-07
      ],
      "scale": [
        1.0,
        1.0,
        1.0
      ],
      "translation": [
        0.13994204998016357,
        0.5594955682754517,
        1.8585328689368907e-06
      ]
    },
    {
      "extras": {
        "Flags": 526,
        "Has GPU LODs": false,
        "ID": 227,
        "Material Path": "Materials\\Actors\\MantaA\\MantaA_FlapWheel\\MantaA_FlapWheel.mat",
        "NiIntegerExtraData:MaterialID": -2118807923,
        "Parent ID": 3
      },
      "mesh": 0,
      "name": "MantaA_FlapWheel:0",
      "rotation": [
        0.0,
        0.0,
        0.0,
        1.0
      ],
      "scale": [
        1.0,
        1.0,
        1.0
      ],
      "skin": 0,
      "translation": [
        0.0,
        0.0,
        0.0
      ]
    }
  ],
  "scenes": [
    {
      "name": "ExportScene",
      "nodes": [
        0
      ]
    }
  ],
  "skins": [
    {
      "inverseBindMatrices": 0,
      "joints": [
        36,
        3,
        25,
        26,
        27,
        75,
        76,
        74,
        54,
        55,
        41,
        42,
        56,
        73,
        40,
        39,
        53,
        24,
        4,
        72,
        35,
        38,
        34,
        52,
        33,
        2,
        5,
        44,
        58,
        66,
        18,
        45,
        19,
        20,
        21,
        69,
        70,
        68,
        60,
        61,
        47,
        48,
        62,
        67,
        46,
        59
      ],
      "skeleton": 1
    }
  ]
}
