{
  "accessors": [
    {
      "bufferView": 0,
      "componentType": 5126,
      "count": 57,
      "type": "MAT4"
    },
    {
      "bufferView": 1,
      "componentType": 5126,
      "count": 17839,
      "max": [
        2.537308931350708,
        2.065980911254883,
        1.1012299060821533
      ],
      "min": [
        -2.537308931350708,
        -1.3617359399795532,
        -0.018066957592964172
      ],
      "type": "VEC3"
    },
    {
      "bufferView": 2,
      "componentType": 5126,
      "count": 17839,
      "type": "VEC3"
    },
    {
      "bufferView": 3,
      "componentType": 5126,
      "count": 17839,
      "type": "VEC4"
    },
    {
      "bufferView": 4,
      "componentType": 5126,
      "count": 17839,
      "type": "VEC2"
    },
    {
      "bufferView": 5,
      "componentType": 5126,
      "count": 17839,
      "type": "VEC4"
    },
    {
      "bufferView": 6,
      "componentType": 5126,
      "count": 17839,
      "type": "VEC4"
    },
    {
      "bufferView": 7,
      "componentType": 5123,
      "count": 17839,
      "type": "VEC4"
    },
    {
      "bufferView": 8,
      "componentType": 5123,
      "count": 94950,
      "type": "SCALAR"
    }
  ],
  "asset": {
    "generator": "NifSkope glTF 2.0 Exporter v1.2",
    "version": "2.0"
  },
  "bufferViews": [
    {
      "buffer": 0,
      "byteLength": 3648
    },
    {
      "buffer": 0,
      "byteLength": 214068,
      "byteOffset": 3648,
      "target": 34962
    },
    {
      "buffer": 0,
      "byteLength": 214068,
      "byteOffset": 217716,
      "target": 34962
    },
    {
      "buffer": 0,
      "byteLength": 285424,
      "byteOffset": 431784,
      "target": 34962
    },
    {
      "buffer": 0,
      "byteLength": 142712,
      "byteOffset": 717208,
      "target": 34962
    },
    {
      "buffer": 0,
      "byteLength": 285424,
      "byteOffset": 859920,
      "target": 34962
    },
    {
      "buffer": 0,
      "byteLength": 285424,
      "byteOffset": 1145344,
      "target": 34962
    },
    {
      "buffer": 0,
      "byteLength": 142712,
      "byteOffset": 1430768,
      "target": 34962
    },
    {
      "buffer": 0,
      "byteLength": 189900,
      "byteOffset": 1573480,
      "target": 34963
    }
  ],
  "buffers": [
    {
      "byteLength": 1763380,
      "name": "Gloam.bin",
      "uri": "Gloam.bin"
    }
  ],
  "materials": [
    {
      "extras": {
        "Material Path": "Default"
      },
      "name": "Default"
    },
    {
      "extras": {
        "Material Path": "materials/actors/flyera/flyera_gloam/flyera_gloam.mat"
      },
      "name": "Materials/Actors/Flyera/Flyera_Gloam/Flyera_Gloam"
    }
  ],
  "meshes": [
    {
      "name": "FlyerA_Gloam:0",
      "primitives": [
        {
          "attributes": {
            "COLOR_0": 5,
            "JOINTS_0": 7,
            "NORMAL": 2,
            "POSITION": 1,
            "TANGENT": 3,
            "TEXCOORD_0": 4,
            "WEIGHTS_0": 6
          },
          "indices": 8,
          "material": 1,
          "mode": 4
        }
      ]
    }
  ],
  "nodes": [
    {
      "children": [
        1,
        90
      ],
      "extras": {
        "Flags": 14,
        "ID": 3,
        "Parent ID": 0
      },
      "name": "Root",
      "rotation": [
        -0.7071067690849304,
        0.0,
        0.0,
        0.7071067690849304
      ],
      "scale": [
        1.0,
        1.0,
        1.0
      ],
      "translation": [
        0.0,
        0.0,
        -0.0
      ]
    },
    {
      "children": [
        2,
        52
      ],
      "extras": {
        "Flags": 14,
        "ID": 5,
        "Parent ID": 3
      },
      "name": "COM",
      "rotation": [
        0.0,
        0.0,
        0.0,
        1.0
      ],
      "scale": [
        1.0,
        1.0,
        1.0
      ],
      "translation": [
        0.0,
        0.02466331422328949,
        0.7544398903846741
      ]
    },
    {
      "children": [
        3
      ],
      "extras": {
        "Flags": 14,
        "ID": 9,
        "Parent ID": 5
      },
      "name": "C_spine",
      "rotation": [
        -0.5000007748603821,
        -0.49999958276748657,
        0.4999992847442627,
        0.5000004172325134
      ],
      "scale": [
        1.0,
        1.0,
        1.0
      ],
      "translation": [
        2.0200661765557015e-06,
        0.04766510799527168,
        0.04382064566016197
      ]
    },
    {
      "children": [
        4
      ],
      "extras": {
        "Flags": 14,
        "ID": 12,
        "Parent ID": 9
      },
      "name": "C_spine2",
      "rotation": [
        -3.386849520380142e-29,
        -1.906626779742994e-14,
        -1.7763568394002505e-15,
        1.0
      ],
      "scale": [
        1.0,
        1.0,
        1.0
      ],
      "translation": [
        0.25,
        7.629394360719743e-08,
        3.796594705285372e-10
      ]
    },
    {
      "children": [
        5,
        11,
        31,
        32
      ],
      "extras": {
        "Flags": 14,
        "ID": 15,
        "Parent ID": 12
      },
      "name": "C_spine3",
      "rotation": [
        -3.386849520380142e-29,
        -1.906626779742994e-14,
        -1.7763568394002505e-15,
        1.0
      ],
      "scale": [
        1.0,
        1.0,
        1.0
      ],
      "translation": [
        0.21772949397563934,
        0.0,
        1.7750329561749822e-06
      ]
    },
    {
      "children": [
        6
      ],
      "extras": {
        "Flags": 14,
        "ID": 18,
        "Parent ID": 15
      },
      "name": "C_spine4",
      "rotation": [
        6.990706841528138e-13,
        -9.298324584960938e-06,
        7.823908276805014e-08,
        1.0
      ],
      "scale": [
        1.0,
        1.0,
        1.0
      ],
      "translation": [
        0.15324541926383972,
        -0.029941406100988388,
        -1.6650288898745202e-06
      ]
    },
    {
      "children": [
        7
      ],
      "extras": {
        "Flags": 14,
        "ID": 21,
        "Parent ID": 18
      },
      "name": "C_spine5",
      "rotation": [
        -1.5537863964215637e-13,
        7.910563908808399e-06,
        1.604903587804074e-08,
        1.0
      ],
      "scale": [
        1.0,
        1.0,
        1.0
      ],
      "translation": [
        0.13095450401306152,
        0.0007419586181640625,
        9.687034889793722e-07
      ]
    },
    {
      "children": [
        8
      ],
      "extras": {
        "Flags": 14,
        "ID": 24,
        "Parent ID": 21
      },
      "name": "C_spine6",
      "rotation": [
        8.526512829121202e-14,
        -7.938838659810737e-14,
        5.294633078540419e-23,
        1.0
      ],
      "scale": [
        1.0,
        1.0,
        1.0
      ],
      "translation": [
        0.15357719361782074,
        0.0016177367651835084,
        3.1157139801507583e-06
      ]
    },
    {
      "children": [
        9,
        10
      ],
      "extras": {
        "Flags": 14,
        "ID": 27,
        "Parent ID": 24
      },
      "name": "C_Head",
      "rotation": [
        9.414203357843709e-14,
        5.140695975569542e-07,
        -2.384185791015625e-07,
        1.0
      ],
      "scale": [
        1.0,
        1.0,
        1.0
      ],
      "translation": [
        0.13481445610523224,
        0.0010782623430714011,
        -2.0931847757310607e-06
      ]
    },
    {
      "extras": {
        "Flags": 14,
        "ID": 30,
        "Parent ID": 27
      },
      "name": "C_Jaw",
      "rotation": [
        -2.842170943040401e-14,
        -9.738835849955677e-14,
        7.105427357601002e-15,
        1.0
      ],
      "scale": [
        1.0,
        1.0,
        1.0
      ],
      "translation": [
        0.03959960862994194,
        0.027573011815547943,
        7.2759574515531e-14
      ]
    },
    {
      "extras": {
        "Flags": 67108878,
        "ID": 223,
        "Parent ID": 27
      },
      "name": "LookAt_Nose",
      "rotation": [
        -0.05338182672858238,
        0.7050885558128357,
        0.0533817782998085,
        0.7050892114639282
      ],
      "scale": [
        1.0,
        1.0,
        1.0
      ],
      "translation": [
        0.29778623580932617,
        -0.0542990118265152,
        -6.103513783273229e-07
      ]
    },
    {
      "children": [
        12,
        29
      ],
      "extras": {
        "Flags": 14,
        "ID": 33,
        "Parent ID": 15
      },
      "name": "L_Biceps",
      "rotation": [
        0.43780404329299927,
        0.5625596642494202,
        0.5557786822319031,
        -0.4277433156967163
      ],
      "scale": [
        1.0,
        1.0,
        1.0
      ],
      "translation": [
        0.029926376417279243,
        -0.13095298409461975,
        0.18746501207351685
      ]
    },
    {
      "children": [
        13,
        25,
        27
      ],
      "extras": {
        "Flags": 14,
        "ID": 36,
        "Parent ID": 33
      },
      "name": "L_Forearm",
      "rotation": [
        0.0022156620398163795,
        0.012420176528394222,
        0.2133878469467163,
        0.9768860936164856
      ],
      "scale": [
        1.0,
        1.0,
        1.0
      ],
      "translation": [
        0.6503525376319885,
        3.814697180359872e-08,
        -7.629394360719743e-08
      ]
    },
    {
      "children": [
        14,
        20,
        22,
        24
      ],
      "extras": {
        "Flags": 14,
        "ID": 39,
        "Parent ID": 36
      },
      "name": "L_Wrist",
      "rotation": [
        0.00025111145805567503,
        -0.014137150719761848,
        -0.19313718378543854,
        0.9810698628425598
      ],
      "scale": [
        1.0,
        1.0,
        1.0
      ],
      "translation": [
        0.5998854637145996,
        0.02533693239092827,
        -0.0015325164422392845
      ]
    },
    {
      "children": [
        15,
        18
      ],
      "extras": {
        "Flags": 14,
        "ID": 42,
        "Parent ID": 39
      },
      "name": "L_Finger",
      "rotation": [
        0.0008061546832323074,
        -0.0011032050242647529,
        -0.13583417236804962,
        0.9907306432723999
      ],
      "scale": [
        1.0,
        1.0,
        1.0
      ],
      "translation": [
        0.8679079413414001,
        0.0013019561301916838,
        6.805419980082661e-05
      ]
    },
    {
      "children": [
        16
      ],
      "extras": {
        "Flags": 14,
        "ID": 45,
        "Parent ID": 42
      },
      "name": "L_Finger1",
      "rotation": [
        -8.673617379884035e-19,
        5.204170427930421e-18,
        8.549251973022365e-09,
        1.0
      ],
      "scale": [
        1.0,
        1.0,
        1.0
      ],
      "translation": [
        0.36211273074150085,
        -1.5258788721439487e-07,
        0.0
      ]
    },
    {
      "children": [
        17
      ],
      "extras": {
        "Flags": 14,
        "ID": 47,
        "Parent ID": 45
      },
      "name": "L_Feather7",
      "rotation": [
        0.6783665418624878,
        -0.1732381135225296,
        -0.20134353637695313,
        0.6850314736366272
      ],
      "scale": [
        1.0,
        1.0,
        1.0
      ],
      "translation": [
        0.07901382446289063,
        -0.0211140438914299,
        -0.0074600218795239925
      ]
    },
    {
      "extras": {
        "Flags": 14,
        "ID": 49,
        "Parent ID": 47
      },
      "name": "xL_Feather7",
      "rotation": [
        -4.2042808123810005e-10,
        1.123259441015989e-08,
        8.191945146110732e-18,
        1.0
      ],
      "scale": [
        1.0,
        1.0,
        1.0
      ],
      "translation": [
        0.41814252734184265,
        0.0,
        3.0517577442878974e-07
      ]
    },
    {
      "children": [
        19
      ],
      "extras": {
        "Flags": 14,
        "ID": 51,
        "Parent ID": 42
      },
      "name": "L_Feather6",
      "rotation": [
        0.6155501008033752,
        -0.3314814865589142,
        -0.3145275115966797,
        0.6420985460281372
      ],
      "scale": [
        1.0,
        1.0,
        1.0
      ],
      "translation": [
        0.05074920505285263,
        -0.06989791989326477,
        0.0006521606119349599
      ]
    },
    {
      "extras": {
        "Flags": 14,
        "ID": 53,
        "Parent ID": 51
      },
      "name": "xL_Feather6",
      "rotation": [
        4.302692230284677e-11,
        2.108720531524e-09,
        -1.862645149230957e-09,
        1.0
      ],
      "scale": [
        1.0,
        1.0,
        1.0
      ],
      "translation": [
        0.6589655876159668,
        1.5258788721439487e-07,
        0.0
      ]
    },
    {
      "children": [
        21
      ],
      "extras": {
        "Flags": 14,
        "ID": 55,
        "Parent ID": 39
      },
      "name": "L_Feather4",
      "rotation": [
        0.5446709990501404,
        -0.4397435188293457,
        -0.4516654908657074,
        0.5531342029571533
      ],
      "scale": [
        1.0,
        1.0,
        1.0
      ],
      "translation": [
        0.05741981416940689,
        -0.11934608221054077,
        0.01255187951028347
      ]
    },
    {
      "extras": {
        "Flags": 14,
        "ID": 57,
        "Parent ID": 55
      },
      "name": "xL_Feather4",
      "rotation": [
        1.3358203432289883e-12,
        -1.1507444996894378e-10,
        1.537187865212361e-22,
        1.0
      ],
      "scale": [
        1.0,
        1.0,
        1.0
      ],
      "translation": [
        0.9472954869270325,
        7.629394360719743e-08,
        1.5258788721439487e-07
      ]
    },
    {
      "children": [
        23
      ],
      "extras": {
        "Flags": 14,
        "ID": 59,
        "Parent ID": 39
      },
      "name": "L_Feather5",
      "rotation": [
        0.5431222915649414,
        -0.44165658950805664,
        -0.43689247965812683,
        0.5648741126060486
      ],
      "scale": [
        1.0,
        1.0,
        1.0
      ],
      "translation": [
        0.491149365901947,
        -0.08097793161869049,
        0.002415313618257642
      ]
    },
    {
      "extras": {
        "Flags": 14,
        "ID": 61,
        "Parent ID": 59
      },
      "name": "xL_Feather5",
      "rotation": [
        -5.044852122854104e-12,
        -6.00612726220362e-10,
        -1.737753438560589e-18,
        1.0
      ],
      "scale": [
        1.0,
        1.0,
        1.0
      ],
      "translation": [
        0.8320299386978149,
        7.629394360719743e-08,
        -1.5258788721439487e-07
      ]
    },
    {
      "extras": {
        "Flags": 14,
        "ID": 63,
        "Parent ID": 39
      },
      "name": "L_thumb",
      "rotation": [
        0.08186075836420059,
        -0.7023522853851318,
        0.7038435339927673,
        -0.0678546354174614
      ],
      "scale": [
        1.0,
        1.0,
        1.0
      ],
      "translation": [
        0.010922164656221867,
        0.041717834770679474,
        -0.0013838958693668246
      ]
    },
    {
      "children": [
        26
      ],
      "extras": {
        "Flags": 14,
        "ID": 65,
        "Parent ID": 36
      },
      "name": "L_Feather2",
      "rotation": [
        -0.4484597146511078,
        0.5505110025405884,
        0.545509934425354,
        -0.4452419579029083
      ],
      "scale": [
        1.0,
        1.0,
        1.0
      ],
      "translation": [
        -0.12889602780342102,
        -0.03832942992448807,
        0.006919478997588158
      ]
    },
    {
      "extras": {
        "Flags": 14,
        "ID": 67,
        "Parent ID": 65
      },
      "name": "xL_Feather2",
      "rotation": [
        2.1316282072803006e-13,
        2.4731180991999224e-10,
        1.0836749740919726e-19,
        1.0
      ],
      "scale": [
        1.0,
        1.0,
        1.0
      ],
      "translation": [
        0.9393922090530396,
        -7.629394360719743e-08,
        -1.5258788721439487e-07
      ]
    },
    {
      "children": [
        28
      ],
      "extras": {
        "Flags": 14,
        "ID": 69,
        "Parent ID": 36
      },
      "name": "L_Feather3",
      "rotation": [
        -0.4499962329864502,
        0.5492555499076843,
        0.5477216839790344,
        -0.4425186514854431
      ],
      "scale": [
        1.0,
        1.0,
        1.0
      ],
      "translation": [
        0.24899275600910187,
        -0.07125657796859741,
        0.008481673896312714
      ]
    },
    {
      "extras": {
        "Flags": 14,
        "ID": 71,
        "Parent ID": 69
      },
      "name": "xL_Feather3",
      "rotation": [
        -9.180213013382232e-12,
        2.400605270125311e-10,
        4.358846849411962e-19,
        1.0
      ],
      "scale": [
        1.0,
        1.0,
        1.0
      ],
      "translation": [
        1.017059326171875,
        1.5258788721439487e-07,
        0.0
      ]
    },
    {
      "children": [
        30
      ],
      "extras": {
        "Flags": 14,
        "ID": 73,
        "Parent ID": 33
      },
      "name": "L_Feather1",
      "rotation": [
        0.545508861541748,
        -0.4406399428844452,
        -0.44933265447616577,
        0.5534950494766235
      ],
      "scale": [
        1.0,
        1.0,
        1.0
      ],
      "translation": [
        0.22525379061698914,
        -0.10269752144813538,
        0.014089202508330345
      ]
    },
    {
      "extras": {
        "Flags": 14,
        "ID": 75,
        "Parent ID": 73
      },
      "name": "xL_Feather1",
      "rotation": [
        -3.240074441385188e-12,
        -1.4688685823216474e-09,
        -2.21599669850213e-19,
        1.0
      ],
      "scale": [
        1.0,
        1.0,
        1.0
      ],
      "translation": [
        0.9308317303657532,
        0.0,
        -7.629394360719743e-08
      ]
    },
    {
      "extras": {
        "Flags": 14,
        "ID": 77,
        "Parent ID": 15
      },
      "name": "DirectAt",
      "rotation": [
        0.5000007152557373,
        0.49999940395355225,
        -0.499999463558197,
        0.500000536441803
      ],
      "scale": [
        1.0,
        1.0,
        1.0
      ],
      "translation": [
        0.0,
        0.0,
        0.0
      ]
    },
    {
      "children": [
        33,
        50
      ],
      "extras": {
        "Flags": 14,
        "ID": 79,
        "Parent ID": 15
      },
      "name": "R_Biceps",
      "rotation": [
        0.562558650970459,
        -0.43780559301376343,
        0.42774447798728943,
        0.5557776093482971
      ],
      "scale": [
        1.0,
        1.0,
        1.0
      ],
      "translation": [
        0.02992759644985199,
        -0.1309525966644287,
        -0.18746455013751984
      ]
    },
    {
      "children": [
        34,
        46,
        48
      ],
      "extras": {
        "Flags": 14,
        "ID": 82,
        "Parent ID": 79
      },
      "name": "R_Forearm",
      "rotation": [
        0.002215661108493805,
        0.012420175597071648,
        0.2133878618478775,
        0.9768860936164856
      ],
      "scale": [
        1.0,
        1.0,
        1.0
      ],
      "translation": [
        -0.6503528356552124,
        7.629394076502649e-07,
        7.629394076502649e-07
      ]
    },
    {
      "children": [
        35,
        41,
        43,
        45
      ],
      "extras": {
        "Flags": 14,
        "ID": 85,
        "Parent ID": 82
      },
      "name": "R_Wrist",
      "rotation": [
        0.00025111145805567503,
        -0.014137150719761848,
        -0.19313718378543854,
        0.9810698628425598
      ],
      "scale": [
        1.0,
        1.0,
        1.0
      ],
      "translation": [
        -0.599890410900116,
        -0.025336207821965218,
        0.0015321349492296576
      ]
    },
    {
      "children": [
        36,
        39
      ],
      "extras": {
        "Flags": 14,
        "ID": 88,
        "Parent ID": 85
      },
      "name": "R_Finger",
      "rotation": [
        0.0008061548578552902,
        -0.0011032059555873275,
        -0.1358342170715332,
        0.9907306432723999
      ],
      "scale": [
        1.0,
        1.0,
        1.0
      ],
      "translation": [
        -0.8679016828536987,
        -0.0013008880196139216,
        -6.874084647279233e-05
      ]
    },
    {
      "children": [
        37
      ],
      "extras": {
        "Flags": 14,
        "ID": 91,
        "Parent ID": 88
      },
      "name": "R_Finger1",
      "rotation": [
        -2.6020852139652106e-18,
        1.734723475976807e-18,
        -2.9031077541930017e-09,
        1.0
      ],
      "scale": [
        1.0,
        1.0,
        1.0
      ],
      "translation": [
        -0.3621101379394531,
        6.103515488575795e-07,
        2.288818308215923e-07
      ]
    },
    {
      "children": [
        38
      ],
      "extras": {
        "Flags": 14,
        "ID": 93,
        "Parent ID": 91
      },
      "name": "R_Feather7",
      "rotation": [
        0.678366482257843,
        -0.17323806881904602,
        -0.20134350657463074,
        0.685031533241272
      ],
      "scale": [
        1.0,
        1.0,
        1.0
      ],
      "translation": [
        -0.07902175933122635,
        0.021110687404870987,
        0.007459945511072874
      ]
    },
    {
      "extras": {
        "Flags": 14,
        "ID": 95,
        "Parent ID": 93
      },
      "name": "xR_Feather7",
      "rotation": [
        -5.75596459384542e-10,
        -5.999937435774427e-09,
        -1.71881927433925e-18,
        1.0
      ],
      "scale": [
        1.0,
        1.0,
        1.0
      ],
      "translation": [
        -0.41814056038856506,
        5.340576194612368e-07,
        -2.899169885495212e-06
      ]
    },
    {
      "children": [
        40
      ],
      "extras": {
        "Flags": 14,
        "ID": 97,
        "Parent ID": 88
      },
      "name": "R_Feather6",
      "rotation": [
        0.6155501008033752,
        -0.3314814865589142,
        -0.3145275115966797,
        0.6420985460281372
      ],
      "scale": [
        1.0,
        1.0,
        1.0
      ],
      "translation": [
        -0.05075530707836151,
        0.0698947161436081,
        -0.0006521606119349599
      ]
    },
    {
      "extras": {
        "Flags": 14,
        "ID": 99,
        "Parent ID": 97
      },
      "name": "xR_Feather6",
      "rotation": [
        9.615064994195066e-11,
        -3.2035623043213945e-09,
        -1.862645371275562e-09,
        1.0
      ],
      "scale": [
        1.0,
        1.0,
        1.0
      ],
      "translation": [
        -0.6589641571044922,
        1.5258788721439487e-07,
        -8.850097401591484e-06
      ]
    },
    {
      "children": [
        42
      ],
      "extras": {
        "Flags": 14,
        "ID": 101,
        "Parent ID": 85
      },
      "name": "R_Feather4",
      "rotation": [
        0.5446709990501404,
        -0.4397435188293457,
        -0.4516654908657074,
        0.5531342029571533
      ],
      "scale": [
        1.0,
        1.0,
        1.0
      ],
      "translation": [
        -0.05741187930107117,
        0.11934737861156464,
        -0.012552337720990181
      ]
    },
    {
      "extras": {
        "Flags": 14,
        "ID": 103,
        "Parent ID": 101
      },
      "name": "xR_Feather4",
      "rotation": [
        1.421085607045472e-13,
        -7.517321834460411e-12,
        4.3368195466875575e-19,
        1.0
      ],
      "scale": [
        1.0,
        1.0,
        1.0
      ],
      "translation": [
        -0.9472951889038086,
        1.5258788721439487e-07,
        5.798339770990424e-06
      ]
    },
    {
      "children": [
        44
      ],
      "extras": {
        "Flags": 14,
        "ID": 105,
        "Parent ID": 85
      },
      "name": "R_Feather5",
      "rotation": [
        0.5431222915649414,
        -0.44165658950805664,
        -0.43689247965812683,
        0.5648741126060486
      ],
      "scale": [
        1.0,
        1.0,
        1.0
      ],
      "translation": [
        -0.49115025997161865,
        0.08097770810127258,
        -0.0024153899867087603
      ]
    },
    {
      "extras": {
        "Flags": 14,
        "ID": 107,
        "Parent ID": 105
      },
      "name": "xR_Feather5",
      "rotation": [
        8.697042218341888e-12,
        6.174251665491681e-10,
        -9.313224635931761e-10,
        1.0
      ],
      "scale": [
        1.0,
        1.0,
        1.0
      ],
      "translation": [
        -0.8320295810699463,
        -7.629394360719743e-08,
        -7.019042641331907e-06
      ]
    },
    {
      "extras": {
        "Flags": 14,
        "ID": 109,
        "Parent ID": 85
      },
      "name": "R_thumb",
      "rotation": [
        0.0818607434630394,
        -0.7023522853851318,
        0.7038435339927673,
        -0.0678546354174614
      ],
      "scale": [
        1.0,
        1.0,
        1.0
      ],
      "translation": [
        -0.010917434468865395,
        -0.04171790927648544,
        0.0013837432488799095
      ]
    },
    {
      "children": [
        47
      ],
      "extras": {
        "Flags": 14,
        "ID": 111,
        "Parent ID": 82
      },
      "name": "R_Feather2",
      "rotation": [
        -0.4484597146511078,
        0.5505110025405884,
        0.545509934425354,
        -0.4452419579029083
      ],
      "scale": [
        1.0,
        1.0,
        1.0
      ],
      "translation": [
        0.12889571487903595,
        0.03832893446087837,
        -0.0069197844713926315
      ]
    },
    {
      "extras": {
        "Flags": 14,
        "ID": 113,
        "Parent ID": 111
      },
      "name": "xR_Feather2",
      "rotation": [
        -2.5579538487363607e-13,
        -2.94819890722664e-10,
        1.0834480164114034e-19,
        1.0
      ],
      "scale": [
        1.0,
        1.0,
        1.0
      ],
      "translation": [
        -0.9393922090530396,
        2.288818308215923e-07,
        -3.0517577442878974e-07
      ]
    },
    {
      "children": [
        49
      ],
      "extras": {
        "Flags": 14,
        "ID": 115,
        "Parent ID": 82
      },
      "name": "R_Feather3",
      "rotation": [
        -0.4499962329864502,
        0.5492555499076843,
        0.5477216839790344,
        -0.4425186514854431
      ],
      "scale": [
        1.0,
        1.0,
        1.0
      ],
      "translation": [
        -0.24899475276470184,
        0.07125646620988846,
        -0.008482055738568306
      ]
    },
    {
      "extras": {
        "Flags": 14,
        "ID": 117,
        "Parent ID": 115
      },
      "name": "xR_Feather3",
      "rotation": [
        2.4158453015843406e-12,
        5.239986222704829e-10,
        -8.686276345183394e-19,
        1.0
      ],
      "scale": [
        1.0,
        1.0,
        1.0
      ],
      "translation": [
        -1.017059564590454,
        6.866454782539222e-07,
        -1.0681152389224735e-06
      ]
    },
    {
      "children": [
        51
      ],
      "extras": {
        "Flags": 14,
        "ID": 119,
        "Parent ID": 79
      },
      "name": "R_Feather1",
      "rotation": [
        0.545508861541748,
        -0.4406399130821228,
        -0.449332594871521,
        0.5534950494766235
      ],
      "scale": [
        1.0,
        1.0,
        1.0
      ],
      "translation": [
        -0.2252541333436966,
        0.10269802063703537,
        -0.01408897340297699
      ]
    },
    {
      "extras": {
        "Flags": 14,
        "ID": 121,
        "Parent ID": 119
      },
      "name": "xR_Feather1",
      "rotation": [
        -4.234834271449328e-12,
        -6.32840502223786e-10,
        2.1416045978530858e-19,
        1.0
      ],
      "scale": [
        1.0,
        1.0,
        1.0
      ],
      "translation": [
        -0.9308311343193054,
        5.340576194612368e-07,
        3.8146970382513246e-07
      ]
    },
    {
      "children": [
        53,
        69,
        74
      ],
      "extras": {
        "Flags": 14,
        "ID": 123,
        "Parent ID": 5
      },
      "name": "C_hips",
      "rotation": [
        -0.500001072883606,
        0.4999997019767761,
        -0.49999892711639404,
        0.5000002980232239
      ],
      "scale": [
        1.0,
        1.0,
        1.0
      ],
      "translation": [
        -3.090695372520713e-06,
        -0.04842090606689453,
        -0.00020523070998024195
      ]
    },
    {
      "children": [
        54
      ],
      "extras": {
        "Flags": 14,
        "ID": 126,
        "Parent ID": 123
      },
      "name": "L_Thigh",
      "rotation": [
        0.020815087482333183,
        0.008996337652206421,
        0.8715783357620239,
        0.4897315800189972
      ],
      "scale": [
        1.0,
        1.0,
        1.0
      ],
      "translation": [
        0.009647607803344727,
        0.016041945666074753,
        -0.17194610834121704
      ]
    },
    {
      "children": [
        55
      ],
      "extras": {
        "Flags": 14,
        "ID": 129,
        "Parent ID": 126
      },
      "name": "L_Calf",
      "rotation": [
        -0.02189839631319046,
        -0.0035603144206106663,
        -0.5327714681625366,
        0.8459683060646057
      ],
      "scale": [
        1.0,
        1.0,
        1.0
      ],
      "translation": [
        0.1911570280790329,
        -0.03981975466012955,
        -0.05049465224146843
      ]
    },
    {
      "children": [
        56
      ],
      "extras": {
        "Flags": 14,
        "ID": 132,
        "Parent ID": 129
      },
      "name": "L_Foot",
      "rotation": [
        5.309435668898743e-10,
        2.385623087963751e-10,
        0.4098469913005829,
        0.9121542572975159
      ],
      "scale": [
        1.0,
        1.0,
        1.0
      ],
      "translation": [
        0.2378338724374771,
        -3.814697180359872e-08,
        -3.814697180359872e-08
      ]
    },
    {
      "children": [
        57,
        60,
        63,
        66
      ],
      "extras": {
        "Flags": 14,
        "ID": 135,
        "Parent ID": 132
      },
      "name": "L_Toe",
      "rotation": [
        -0.0011513101635500789,
        -0.002768527017906308,
        0.25863465666770935,
        0.9659705758094788
      ],
      "scale": [
        1.0,
        1.0,
        1.0
      ],
      "translation": [
        0.2361585944890976,
        -4.76837147544984e-09,
        1.907348590179936e-08
      ]
    },
    {
      "children": [
        58
      ],
      "extras": {
        "Flags": 14,
        "ID": 138,
        "Parent ID": 135
      },
      "name": "L_ClawMiddle",
      "rotation": [
        0.007104183081537485,
        0.00495587894693017,
        0.32472318410873413,
        0.9457694292068481
      ],
      "scale": [
        1.0,
        1.0,
        1.0
      ],
      "translation": [
        0.12478359788656235,
        -0.004335322417318821,
        -0.006505317520350218
      ]
    },
    {
      "children": [
        59
      ],
      "extras": {
        "Flags": 14,
        "ID": 140,
        "Parent ID": 138
      },
      "name": "L_ClawMiddle2",
      "rotation": [
        -0.0036183285992592573,
        0.025097019970417023,
        -0.022392749786376953,
        0.9994276165962219
      ],
      "scale": [
        1.0,
        1.0,
        1.0
      ],
      "translation": [
        0.09443708509206772,
        -4.76837147544984e-09,
        1.907348590179936e-08
      ]
    },
    {
      "extras": {
        "Flags": 14,
        "ID": 142,
        "Parent ID": 140
      },
      "name": "L_ClawMiddle3",
      "rotation": [
        -3.7471184488602205e-10,
        1.8444550331508935e-09,
        6.911391285913182e-19,
        1.0
      ],
      "scale": [
        1.0,
        1.0,
        1.0
      ],
      "translation": [
        0.07971283048391342,
        0.0,
        1.907348590179936e-08
      ]
    },
    {
      "children": [
        61
      ],
      "extras": {
        "Flags": 14,
        "ID": 144,
        "Parent ID": 135
      },
      "name": "L_ClawIndex",
      "rotation": [
        0.1448872834444046,
        -0.26673978567123413,
        0.2872065007686615,
        0.9084987640380859
      ],
      "scale": [
        1.0,
        1.0,
        1.0
      ],
      "translation": [
        0.10266294330358505,
        -0.0365811325609684,
        0.029975680634379387
      ]
    },
    {
      "children": [
        62
      ],
      "extras": {
        "Flags": 14,
        "ID": 146,
        "Parent ID": 144
      },
      "name": "L_ClawIndex2",
      "rotation": [
        -0.0019000687170773745,
        0.018274221569299698,
        0.06006668508052826,
        0.9980252385139465
      ],
      "scale": [
        1.0,
        1.0,
        1.0
      ],
      "translation": [
        0.08615267276763916,
        1.19209286886246e-09,
        -9.53674295089968e-09
      ]
    },
    {
      "extras": {
        "Flags": 14,
        "ID": 148,
        "Parent ID": 146
      },
      "name": "L_ClawIndex3",
      "rotation": [
        -1.7462299661819003e-10,
        6.500159077660328e-09,
        1.862645371275562e-09,
        1.0
      ],
      "scale": [
        1.0,
        1.0,
        1.0
      ],
      "translation": [
        0.07912250608205795,
        -1.19209286886246e-09,
        9.53674295089968e-09
      ]
    },
    {
      "children": [
        64
      ],
      "extras": {
        "Flags": 14,
        "ID": 150,
        "Parent ID": 135
      },
      "name": "L_ClawPinky",
      "rotation": [
        -0.11260803788900375,
        0.26507553458213806,
        0.3303941488265991,
        0.8988292813301086
      ],
      "scale": [
        1.0,
        1.0,
        1.0
      ],
      "translation": [
        0.10886155813932419,
        -0.033894043415784836,
        -0.056550197303295135
      ]
    },
    {
      "children": [
        65
      ],
      "extras": {
        "Flags": 14,
        "ID": 152,
        "Parent ID": 150
      },
      "name": "L_ClawPinky2",
      "rotation": [
        -0.005262431222945452,
        0.04696980491280556,
        -0.029850175604224205,
        0.9984363317489624
      ],
      "scale": [
        1.0,
        1.0,
        1.0
      ],
      "translation": [
        0.06959812343120575,
        0.0,
        -1.907348590179936e-08
      ]
    },
    {
      "extras": {
        "Flags": 14,
        "ID": 154,
        "Parent ID": 152
      },
      "name": "L_ClawPinky3",
      "rotation": [
        -5.842594852367711e-09,
        1.7696949683454477e-08,
        1.0339610749636057e-16,
        1.0
      ],
      "scale": [
        1.0,
        1.0,
        1.0
      ],
      "translation": [
        0.07982557266950607,
        0.0,
        -1.907348590179936e-08
      ]
    },
    {
      "children": [
        67
      ],
      "extras": {
        "Flags": 14,
        "ID": 156,
        "Parent ID": 135
      },
      "name": "L_ClawBack",
      "rotation": [
        -0.5088527202606201,
        0.8605319857597351,
        0.003054666565731168,
        -0.023331107571721077
      ],
      "scale": [
        1.0,
        1.0,
        1.0
      ],
      "translation": [
        0.04565724357962608,
        -0.07251886278390884,
        -0.00808725319802761
      ]
    },
    {
      "children": [
        68
      ],
      "extras": {
        "Flags": 14,
        "ID": 158,
        "Parent ID": 156
      },
      "name": "L_ClawBack2",
      "rotation": [
        0.00010024025687016547,
        -0.000381716265110299,
        0.03291333466768265,
        0.9994581341743469
      ],
      "scale": [
        1.0,
        1.0,
        1.0
      ],
      "translation": [
        0.06464478373527527,
        4.76837147544984e-09,
        1.907348590179936e-08
      ]
    },
    {
      "extras": {
        "Flags": 14,
        "ID": 160,
        "Parent ID": 158
      },
      "name": "L_ClawBack3",
      "rotation": [
        -2.473825866378121e-10,
        -1.3205864179965943e-09,
        -3.2669007154293125e-19,
        1.0
      ],
      "scale": [
        1.0,
        1.0,
        1.0
      ],
      "translation": [
        0.06819035112857819,
        0.0,
        0.0
      ]
    },
    {
      "children": [
        70
      ],
      "extras": {
        "Flags": 14,
        "ID": 162,
        "Parent ID": 123
      },
      "name": "C_tail",
      "rotation": [
        0.0,
        4.2454870185799215e-14,
        0.0,
        1.0
      ],
      "scale": [
        1.0,
        1.0,
        1.0
      ],
      "translation": [
        0.1273527890443802,
        -0.06981254369020462,
        -1.2361729204712901e-06
      ]
    },
    {
      "children": [
        71
      ],
      "extras": {
        "Flags": 14,
        "ID": 165,
        "Parent ID": 162
      },
      "name": "C_tail2",
      "rotation": [
        2.117582368135751e-22,
        4.2454870185799215e-14,
        6.617444900424222e-24,
        1.0
      ],
      "scale": [
        1.0,
        1.0,
        1.0
      ],
      "translation": [
        0.29999998211860657,
        -1.5258788721439487e-07,
        -1.5996116644600988e-06
      ]
    },
    {
      "children": [
        72
      ],
      "extras": {
        "Flags": 14,
        "ID": 168,
        "Parent ID": 165
      },
      "name": "C_tail3",
      "rotation": [
        -2.8094276420918933e-37,
        4.2454870185799215e-14,
        6.617444900424222e-24,
        1.0
      ],
      "scale": [
        1.0,
        1.0,
        1.0
      ],
      "translation": [
        0.2800000011920929,
        -7.629394360719743e-08,
        2.8166860488454404e-07
      ]
    },
    {
      "children": [
        73
      ],
      "extras": {
        "Flags": 14,
        "ID": 171,
        "Parent ID": 168
      },
      "name": "C_tail4",
      "rotation": [
        -2.8094276420918933e-37,
        4.2454870185799215e-14,
        6.617444900424222e-24,
        1.0
      ],
      "scale": [
        1.0,
        1.0,
        1.0
      ],
      "translation": [
        0.25999999046325684,
        7.629394360719743e-08,
        -9.548733714836999e-08
      ]
    },
    {
      "extras": {
        "Flags": 14,
        "ID": 174,
        "Parent ID": 171
      },
      "name": "C_tail5",
      "rotation": [
        0.0,
        4.2454870185799215e-14,
        0.0,
        1.0
      ],
      "scale": [
        1.0,
        1.0,
        1.0
      ],
      "translation": [
        0.25,
        0.0,
        1.3618100638268515e-06
      ]
    },
    {
      "children": [
        75
      ],
      "extras": {
        "Flags": 14,
        "ID": 176,
        "Parent ID": 123
      },
      "name": "R_Thigh",
      "rotation": [
        0.008996005170047283,
        -0.020811893045902252,
        -0.4897317886352539,
        0.8715782761573792
      ],
      "scale": [
        1.0,
        1.0,
        1.0
      ],
      "translation": [
        0.009648618288338184,
        0.016041487455368042,
        0.17194604873657227
      ]
    },
    {
      "children": [
        76
      ],
      "extras": {
        "Flags": 14,
        "ID": 179,
        "Parent ID": 176
      },
      "name": "R_Calf",
      "rotation": [
        -0.02189839631319046,
        -0.0035603169817477465,
        -0.5327712297439575,
        0.8459684252738953
      ],
      "scale": [
        1.0,
        1.0,
        1.0
      ],
      "translation": [
        -0.191157266497612,
        0.03981996327638626,
        0.050494689494371414
      ]
    },
    {
      "children": [
        77
      ],
      "extras": {
        "Flags": 14,
        "ID": 182,
        "Parent ID": 179
      },
      "name": "R_Foot",
      "rotation": [
        -2.9703861592622616e-10,
        3.7704259159276887e-10,
        0.4098469614982605,
        0.9121543169021606
      ],
      "scale": [
        1.0,
        1.0,
        1.0
      ],
      "translation": [
        -0.23783373832702637,
        7.629394360719743e-08,
        1.335144048653092e-07
      ]
    },
    {
      "children": [
        78,
        81,
        84,
        87
      ],
      "extras": {
        "Flags": 14,
        "ID": 185,
        "Parent ID": 182
      },
      "name": "R_Toe",
      "rotation": [
        -0.001151310047134757,
        -0.0027685267850756645,
        0.25863468647003174,
        0.9659705758094788
      ],
      "scale": [
        1.0,
        1.0,
        1.0
      ],
      "translation": [
        -0.23615878820419312,
        7.86781271244763e-08,
        -4.95910626341356e-07
      ]
    },
    {
      "children": [
        79
      ],
      "extras": {
        "Flags": 14,
        "ID": 188,
        "Parent ID": 185
      },
      "name": "R_ClawMiddle",
      "rotation": [
        0.007104181684553623,
        0.004955879412591457,
        0.32472318410873413,
        0.9457694292068481
      ],
      "scale": [
        1.0,
        1.0,
        1.0
      ],
      "translation": [
        -0.12478338927030563,
        0.004335074219852686,
        0.00650520296767354
      ]
    },
    {
      "children": [
        80
      ],
      "extras": {
        "Flags": 14,
        "ID": 190,
        "Parent ID": 188
      },
      "name": "R_ClawMiddle2",
      "rotation": [
        -0.0036183285992592573,
        0.02509702369570732,
        -0.022392740473151207,
        0.9994276165962219
      ],
      "scale": [
        1.0,
        1.0,
        1.0
      ],
      "translation": [
        -0.0944371223449707,
        -2.384185648907078e-08,
        3.623962356869015e-07
      ]
    },
    {
      "extras": {
        "Flags": 14,
        "ID": 192,
        "Parent ID": 190
      },
      "name": "R_ClawMiddle3",
      "rotation": [
        -3.4924596548080444e-10,
        5.775291356258094e-10,
        2.0169972056493027e-19,
        1.0
      ],
      "scale": [
        1.0,
        1.0,
        1.0
      ],
      "translation": [
        -0.0797128826379776,
        2.8610228852699038e-08,
        -2.0980834847250662e-07
      ]
    },
    {
      "children": [
        82
      ],
      "extras": {
        "Flags": 14,
        "ID": 194,
        "Parent ID": 185
      },
      "name": "R_ClawIndex",
      "rotation": [
        0.14488723874092102,
        -0.2667398154735565,
        0.2872065305709839,
        0.9084987640380859
      ],
      "scale": [
        1.0,
        1.0,
        1.0
      ],
      "translation": [
        -0.10266271978616714,
        0.036580901592969894,
        -0.029975643381476402
      ]
    },
    {
      "children": [
        83
      ],
      "extras": {
        "Flags": 14,
        "ID": 196,
        "Parent ID": 194
      },
      "name": "R_ClawIndex2",
      "rotation": [
        -0.0019000633619725704,
        0.01827421970665455,
        0.06006669998168945,
        0.9980252385139465
      ],
      "scale": [
        1.0,
        1.0,
        1.0
      ],
      "translation": [
        -0.08615265041589737,
        -1.4305114426349519e-08,
        -3.814697180359872e-08
      ]
    },
    {
      "extras": {
        "Flags": 14,
        "ID": 198,
        "Parent ID": 196
      },
      "name": "R_ClawIndex3",
      "rotation": [
        -4.3655748460658117e-10,
        -8.590177458245307e-09,
        -3.750106025070406e-18,
        1.0
      ],
      "scale": [
        1.0,
        1.0,
        1.0
      ],
      "translation": [
        -0.07912252098321915,
        -5.7220457705398076e-08,
        2.193450825416221e-07
      ]
    },
    {
      "children": [
        85
      ],
      "extras": {
        "Flags": 14,
        "ID": 200,
        "Parent ID": 185
      },
      "name": "R_ClawPinky",
      "rotation": [
        -0.11260803043842316,
        0.26507553458213806,
        0.3303941488265991,
        0.8988292813301086
      ],
      "scale": [
        1.0,
        1.0,
        1.0
      ],
      "translation": [
        -0.10886125266551971,
        0.033893756568431854,
        0.056550826877355576
      ]
    },
    {
      "children": [
        86
      ],
      "extras": {
        "Flags": 14,
        "ID": 202,
        "Parent ID": 200
      },
      "name": "R_ClawPinky2",
      "rotation": [
        -0.005262432619929314,
        0.04696980118751526,
        -0.029850177466869354,
        0.9984363317489624
      ],
      "scale": [
        1.0,
        1.0,
        1.0
      ],
      "translation": [
        -0.06959790736436844,
        4.768371297814156e-08,
        -3.433227391269611e-07
      ]
    },
    {
      "extras": {
        "Flags": 14,
        "ID": 204,
        "Parent ID": 202
      },
      "name": "R_ClawPinky3",
      "rotation": [
        3.6452547647058964e-09,
        -4.018147592432797e-09,
        2.8524959464421636e-17,
        1.0
      ],
      "scale": [
        1.0,
        1.0,
        1.0
      ],
      "translation": [
        -0.07982587814331055,
        -2.8610228852699038e-08,
        -1.335144048653092e-07
      ]
    },
    {
      "children": [
        88
      ],
      "extras": {
        "Flags": 14,
        "ID": 206,
        "Parent ID": 185
      },
      "name": "R_ClawBack",
      "rotation": [
        -0.5088527202606201,
        0.8605319261550903,
        0.003054663771763444,
        -0.023331111297011375
      ],
      "scale": [
        1.0,
        1.0,
        1.0
      ],
      "translation": [
        -0.04565694183111191,
        0.07251857966184616,
        0.00808774959295988
      ]
    },
    {
      "children": [
        89
      ],
      "extras": {
        "Flags": 14,
        "ID": 208,
        "Parent ID": 206
      },
      "name": "R_ClawBack2",
      "rotation": [
        0.0001002390927169472,
        -0.00038171480991877615,
        0.03291335329413414,
        0.9994581341743469
      ],
      "scale": [
        1.0,
        1.0,
        1.0
      ],
      "translation": [
        -0.06464450806379318,
        1.6212463549436507e-07,
        -3.814697180359872e-08
      ]
    },
    {
      "extras": {
        "Flags": 14,
        "ID": 210,
        "Parent ID": 208
      },
      "name": "R_ClawBack3",
      "rotation": [
        1.4551912626281638e-11,
        2.0008884826783202e-10,
        7.450581485102248e-09,
        1.0
      ],
      "scale": [
        1.0,
        1.0,
        1.0
      ],
      "translation": [
        -0.0681903138756752,
        -2.384185648907078e-08,
        5.340576194612368e-07
      ]
    },
    {
      "extras": {
        "Flags": 526,
        "Has GPU LODs": false,
        "ID": 225,
        "Material Path": "Materials\\Actors\\FlyerA\\FlyerA_Gloam\\FlyerA_Gloam.mat",
        "NiIntegerExtraData:MaterialID": 906732138,
        "Parent ID": 3
      },
      "mesh": 0,
      "name": "FlyerA_Gloam:0",
      "rotation": [
        3.0616171314629196e-17,
        0.0,
        0.0,
        1.0
      ],
      "scale": [
        1.0,
        1.0,
        1.0
      ],
      "skin": 0,
      "translation": [
        0.0,
        3.814697180359872e-08,
        0.0
      ]
    }
  ],
  "scenes": [
    {
      "name": "ExportScene",
      "nodes": [
        0
      ]
    }
  ],
  "skins": [
    {
      "inverseBindMatrices": 0,
      "joints": [
        8,
        7,
        2,
        52,
        74,
        9,
        10,
        6,
        5,
        4,
        3,
        53,
        32,
        69,
        70,
        71,
        72,
        73,
        48,
        41,
        33,
        34,
        35,
        43,
        39,
        46,
        11,
        20,
        27,
        12,
        13,
        14,
        18,
        22,
        25,
        77,
        78,
        81,
        76,
        87,
        84,
        82,
        79,
        85,
        88,
        75,
        56,
        57,
        60,
        55,
        66,
        63,
        61,
        58,
        64,
        67,
        54
      ],
      "skeleton": 1
    }
  ]
}
