{
  "accessors": [
    {
      "bufferView": 0,
      "componentType": 5126,
      "count": 33,
      "type": "MAT4"
    },
    {
      "bufferView": 1,
      "componentType": 5126,
      "count": 47,
      "type": "MAT4"
    },
    {
      "bufferView": 2,
      "componentType": 5126,
      "count": 4,
      "type": "MAT4"
    },
    {
      "bufferView": 3,
      "componentType": 5126,
      "count": 1,
      "type": "MAT4"
    },
    {
      "bufferView": 4,
      "componentType": 5126,
      "count": 11944,
      "max": [
        0.8095950484275818,
        1.2934964895248413,
        2.401196241378784
      ],
      "min": [
        -0.8095950484275818,
        -0.7197485566139221,
        -0.03003021329641342
      ],
      "type": "VEC3"
    },
    {
      "bufferView": 5,
      "componentType": 5126,
      "count": 11944,
      "type": "VEC3"
    },
    {
      "bufferView": 6,
      "componentType": 5126,
      "count": 11944,
      "type": "VEC4"
    },
    {
      "bufferView": 7,
      "componentType": 5126,
      "count": 11944,
      "type": "VEC2"
    },
    {
      "bufferView": 8,
      "componentType": 5126,
      "count": 11944,
      "type": "VEC4"
    },
    {
      "bufferView": 9,
      "componentType": 5126,
      "count": 11944,
      "type": "VEC4"
    },
    {
      "bufferView": 10,
      "componentType": 5123,
      "count": 11944,
      "type": "VEC4"
    },
    {
      "bufferView": 11,
      "componentType": 5123,
      "count": 11944,
      "type": "VEC4"
    },
    {
      "bufferView": 12,
      "componentType": 5123,
      "count": 55134,
      "type": "SCALAR"
    },
    {
      "bufferView": 13,
      "componentType": 5126,
      "count": 7119,
      "max": [
        0.7070528268814087,
        0.024903103709220886,
        1.8828699588775635
      ],
      "min": [
        -0.7070528268814087,
        -4.355113506317139,
        -0.02612384408712387
      ],
      "type": "VEC3"
    },
    {
      "bufferView": 14,
      "componentType": 5126,
      "count": 7119,
      "type": "VEC3"
    },
    {
      "bufferView": 15,
      "componentType": 5126,
      "count": 7119,
      "type": "VEC4"
    },
    {
      "bufferView": 16,
      "componentType": 5126,
      "count": 7119,
      "type": "VEC2"
    },
    {
      "bufferView": 17,
      "componentType": 5126,
      "count": 7119,
      "type": "VEC4"
    },
    {
      "bufferView": 18,
      "componentType": 5126,
      "count": 7119,
      "type": "VEC4"
    },
    {
      "bufferView": 19,
      "componentType": 5123,
      "count": 7119,
      "type": "VEC4"
    },
    {
      "bufferView": 20,
      "componentType": 5123,
      "count": 7119,
      "type": "VEC4"
    },
    {
      "bufferView": 21,
      "componentType": 5123,
      "count": 33690,
      "type": "SCALAR"
    },
    {
      "bufferView": 22,
      "componentType": 5126,
      "count": 666,
      "max": [
        0.06445509195327759,
        1.2952055931091309,
        1.0625324249267578
      ],
      "min": [
        -0.06445509195327759,
        0.773705244064331,
        0.8779565095901489
      ],
      "type": "VEC3"
    },
    {
      "bufferView": 23,
      "componentType": 5126,
      "count": 666,
      "type": "VEC3"
    },
    {
      "bufferView": 24,
      "componentType": 5126,
      "count": 666,
      "type": "VEC4"
    },
    {
      "bufferView": 25,
      "componentType": 5126,
      "count": 666,
      "type": "VEC2"
    },
    {
      "bufferView": 26,
      "componentType": 5126,
      "count": 666,
      "type": "VEC4"
    },
    {
      "bufferView": 27,
      "componentType": 5123,
      "count": 666,
      "type": "VEC4"
    },
    {
      "bufferView": 28,
      "componentType": 5123,
      "count": 2994,
      "type": "SCALAR"
    },
    {
      "bufferView": 29,
      "componentType": 5126,
      "count": 1072,
      "max": [
        0.17883846163749695,
        0.12024293094873428,
        0.3273720443248749
      ],
      "min": [
        -0.17883846163749695,
        -0.24179814755916595,
        -0.08401745557785034
      ],
      "type": "VEC3"
    },
    {
      "bufferView": 30,
      "componentType": 5126,
      "count": 1072,
      "type": "VEC3"
    },
    {
      "bufferView": 31,
      "componentType": 5126,
      "count": 1072,
      "type": "VEC4"
    },
    {
      "bufferView": 32,
      "componentType": 5126,
      "count": 1072,
      "type": "VEC2"
    },
    {
      "bufferView": 33,
      "componentType": 5126,
      "count": 1072,
      "type": "VEC4"
    },
    {
      "bufferView": 34,
      "componentType": 5123,
      "count": 1072,
      "type": "VEC4"
    },
    {
      "bufferView": 35,
      "componentType": 5123,
      "count": 4434,
      "type": "SCALAR"
    }
  ],
  "asset": {
    "generator": "NifSkope glTF 2.0 Exporter v1.2",
    "version": "2.0"
  },
  "bufferViews": [
    {
      "buffer": 0,
      "byteLength": 2112
    },
    {
      "buffer": 0,
      "byteLength": 3008,
      "byteOffset": 2112
    },
    {
      "buffer": 0,
      "byteLength": 256,
      "byteOffset": 5120
    },
    {
      "buffer": 0,
      "byteLength": 64,
      "byteOffset": 5376
    },
    {
      "buffer": 0,
      "byteLength": 143328,
      "byteOffset": 5440,
      "target": 34962
    },
    {
      "buffer": 0,
      "byteLength": 143328,
      "byteOffset": 148768,
      "target": 34962
    },
    {
      "buffer": 0,
      "byteLength": 191104,
      "byteOffset": 292096,
      "target": 34962
    },
    {
      "buffer": 0,
      "byteLength": 95552,
      "byteOffset": 483200,
      "target": 34962
    },
    {
      "buffer": 0,
      "byteLength": 191104,
      "byteOffset": 578752,
      "target": 34962
    },
    {
      "buffer": 0,
      "byteLength": 191104,
      "byteOffset": 769856,
      "target": 34962
    },
    {
      "buffer": 0,
      "byteLength": 95552,
      "byteOffset": 960960,
      "target": 34962
    },
    {
      "buffer": 0,
      "byteLength": 95552,
      "byteOffset": 1056512,
      "target": 34962
    },
    {
      "buffer": 0,
      "byteLength": 110268,
      "byteOffset": 1152064,
      "target": 34963
    },
    {
      "buffer": 0,
      "byteLength": 85428,
      "byteOffset": 1262332,
      "target": 34962
    },
    {
      "buffer": 0,
      "byteLength": 85428,
      "byteOffset": 1347760,
      "target": 34962
    },
    {
      "buffer": 0,
      "byteLength": 113904,
      "byteOffset": 1433188,
      "target": 34962
    },
    {
      "buffer": 0,
      "byteLength": 56952,
      "byteOffset": 1547092,
      "target": 34962
    },
    {
      "buffer": 0,
      "byteLength": 113904,
      "byteOffset": 1604044,
      "target": 34962
    },
    {
      "buffer": 0,
      "byteLength": 113904,
      "byteOffset": 1717948,
      "target": 34962
    },
    {
      "buffer": 0,
      "byteLength": 56952,
      "byteOffset": 1831852,
      "target": 34962
    },
    {
      "buffer": 0,
      "byteLength": 56952,
      "byteOffset": 1888804,
      "target": 34962
    },
    {
      "buffer": 0,
      "byteLength": 67380,
      "byteOffset": 1945756,
      "target": 34963
    },
    {
      "buffer": 0,
      "byteLength": 7992,
      "byteOffset": 2013136,
      "target": 34962
    },
    {
      "buffer": 0,
      "byteLength": 7992,
      "byteOffset": 2021128,
      "target": 34962
    },
    {
      "buffer": 0,
      "byteLength": 10656,
      "byteOffset": 2029120,
      "target": 34962
    },
    {
      "buffer": 0,
      "byteLength": 5328,
      "byteOffset": 2039776,
      "target": 34962
    },
    {
      "buffer": 0,
      "byteLength": 10656,
      "byteOffset": 2045104,
      "target": 34962
    },
    {
      "buffer": 0,
      "byteLength": 5328,
      "byteOffset": 2055760,
      "target": 34962
    },
    {
      "buffer": 0,
      "byteLength": 5988,
      "byteOffset": 2061088,
      "target": 34963
    },
    {
      "buffer": 0,
      "byteLength": 12864,
      "byteOffset": 2067076,
      "target": 34962
    },
    {
      "buffer": 0,
      "byteLength": 12864,
      "byteOffset": 2079940,
      "target": 34962
    },
    {
      "buffer": 0,
      "byteLength": 17152,
      "byteOffset": 2092804,
      "target": 34962
    },
    {
      "buffer": 0,
      "byteLength": 8576,
      "byteOffset": 2109956,
      "target": 34962
    },
    {
      "buffer": 0,
      "byteLength": 17152,
      "byteOffset": 2118532,
      "target": 34962
    },
    {
      "buffer": 0,
      "byteLength": 8576,
      "byteOffset": 2135684,
      "target": 34962
    },
    {
      "buffer": 0,
      "byteLength": 8868,
      "byteOffset": 2144260,
      "target": 34963
    }
  ],
  "buffers": [
    {
      "byteLength": 2153128,
      "name": "Sirens Implanted.bin",
      "uri": "Sirens Implanted.bin"
    }
  ],
  "materials": [
    {
      "extras": {
        "Material Path": "Default"
      },
      "name": "Default"
    },
    {
      "extras": {
        "Material Path": "materials/actors/quadrupeda/quadrupeda_sirens/quadrupeda_sirens_01.mat"
      },
      "name": "Materials/Actors/Quadrupeda/Quadrupeda_Sirens/Quadrupeda_Sirens_01"
    },
    {
      "extras": {
        "Material Path": "materials/actors/quadrupeda/quadrupeda_sirens/quadrupeda_sirens_02.mat"
      },
      "name": "Materials/Actors/Quadrupeda/Quadrupeda_Sirens/Quadrupeda_Sirens_02"
    },
    {
      "extras": {
        "Material Path": "materials/actors/quadrupeda/quadrupeda_sirens/quadrupeda_sirens_implant.mat"
      },
      "name": "Materials/Actors/Quadrupeda/Quadrupeda_Sirens/Quadrupeda_Sirens_Implant"
    }
  ],
  "meshes": [
    {
      "name": "QuadrupedA_Sirens:0",
      "primitives": [
        {
          "attributes": {
            "JOINTS_0": 10,
            "JOINTS_1": 11,
            "NORMAL": 5,
            "POSITION": 4,
            "TANGENT": 6,
            "TEXCOORD_0": 7,
            "WEIGHTS_0": 8,
            "WEIGHTS_1": 9
          },
          "indices": 12,
          "material": 1,
          "mode": 4
        }
      ]
    },
    {
      "name": "QuadrupedA_Sirens:1",
      "primitives": [
        {
          "attributes": {
            "JOINTS_0": 19,
            "JOINTS_1": 20,
            "NORMAL": 14,
            "POSITION": 13,
            "TANGENT": 15,
            "TEXCOORD_0": 16,
            "WEIGHTS_0": 17,
            "WEIGHTS_1": 18
          },
          "indices": 21,
          "material": 2,
          "mode": 4
        }
      ]
    },
    {
      "name": "QuadrupedA_Sirens_Tongue:0",
      "primitives": [
        {
          "attributes": {
            "JOINTS_0": 27,
            "NORMAL": 23,
            "POSITION": 22,
            "TANGENT": 24,
            "TEXCOORD_0": 25,
            "WEIGHTS_0": 26
          },
          "indices": 28,
          "material": 1,
          "mode": 4
        }
      ]
    },
    {
      "name": "QuadrupedA_Sirens_NCI_Implant:0",
      "primitives": [
        {
          "attributes": {
            "JOINTS_0": 34,
            "NORMAL": 30,
            "POSITION": 29,
            "TANGENT": 31,
            "TEXCOORD_0": 32,
            "WEIGHTS_0": 33
          },
          "indices": 35,
          "material": 3,
          "mode": 4
        }
      ]
    }
  ],
  "nodes": [
    {
      "children": [
        1,
        73,
        74,
        75,
        76
      ],
      "extras": {
        "Flags": 14,
        "ID": 3,
        "Parent ID": 0
      },
      "name": "Root",
      "rotation": [
        -0.7071067690849304,
        0.0,
        0.0,
        0.7071067690849304
      ],
      "scale": [
        1.0,
        1.0,
        1.0
      ],
      "translation": [
        0.0,
        0.0,
        -0.0
      ]
    },
    {
      "children": [
        2,
        46
      ],
      "extras": {
        "Flags": 14,
        "ID": 5,
        "Parent ID": 3
      },
      "name": "COM",
      "rotation": [
        0.0,
        0.0,
        0.0,
        1.0
      ],
      "scale": [
        1.0,
        1.0,
        1.0
      ],
      "translation": [
        -3.9321099620792666e-07,
        -1.057860016822815,
        1.3137500286102295
      ]
    },
    {
      "children": [
        3
      ],
      "extras": {
        "Flags": 14,
        "ID": 9,
        "Parent ID": 5
      },
      "name": "C_spine",
      "rotation": [
        -0.49087440967559814,
        -0.508960485458374,
        0.490876168012619,
        0.5089619159698486
      ],
      "scale": [
        1.0,
        1.0,
        1.0
      ],
      "translation": [
        4.074536281289953e-12,
        -1.0070800271932967e-05,
        0.0
      ]
    },
    {
      "children": [
        4
      ],
      "extras": {
        "Flags": 14,
        "ID": 12,
        "Parent ID": 9
      },
      "name": "C_spine2",
      "rotation": [
        -2.382442403359164e-07,
        -9.114168086910013e-09,
        0.038227662444114685,
        0.9992690682411194
      ],
      "scale": [
        1.0,
        1.0,
        1.0
      ],
      "translation": [
        0.2790139615535736,
        -9.765624781721272e-06,
        -7.756723334750859e-07
      ]
    },
    {
      "children": [
        5,
        45
      ],
      "extras": {
        "Flags": 14,
        "ID": 15,
        "Parent ID": 12
      },
      "name": "C_spine3",
      "rotation": [
        -2.859676442312775e-06,
        -4.84846339077194e-07,
        0.0028000769671052694,
        0.9999960660934448
      ],
      "scale": [
        1.0,
        1.0,
        1.0
      ],
      "translation": [
        0.23474101722240448,
        2.593994167909841e-06,
        1.061118609868572e-06
      ]
    },
    {
      "children": [
        6,
        44
      ],
      "extras": {
        "Flags": 14,
        "ID": 18,
        "Parent ID": 15
      },
      "name": "C_spine4",
      "rotation": [
        -1.9789267753367312e-05,
        2.1296099816936476e-07,
        0.0022353418171405792,
        0.9999974966049194
      ],
      "scale": [
        1.0,
        1.0,
        1.0
      ],
      "translation": [
        0.23044456541538239,
        -3.967285010730848e-06,
        -1.9905107819795376e-06
      ]
    },
    {
      "children": [
        7,
        8,
        22,
        23,
        24,
        25,
        34,
        43
      ],
      "extras": {
        "Flags": 14,
        "ID": 21,
        "Parent ID": 18
      },
      "name": "C_spine5",
      "rotation": [
        -2.9580420232377946e-05,
        -1.631204781915585e-06,
        -0.009337764233350754,
        0.9999563694000244
      ],
      "scale": [
        1.0,
        1.0,
        1.0
      ],
      "translation": [
        0.2539708912372589,
        2.441406195430318e-06,
        3.808070914601558e-06
      ]
    },
    {
      "extras": {
        "Flags": 14,
        "ID": 24,
        "Parent ID": 21
      },
      "name": "C_ChestDef_Def",
      "rotation": [
        0.5054822564125061,
        0.4945138990879059,
        -0.5054689049720764,
        0.4944136440753937
      ],
      "scale": [
        1.0,
        1.0,
        1.0
      ],
      "translation": [
        4.768371297814156e-08,
        2.8421708795129297e-16,
        1.6784854324214393e-06
      ]
    },
    {
      "children": [
        9,
        19,
        20,
        21
      ],
      "extras": {
        "Flags": 14,
        "ID": 26,
        "Parent ID": 21
      },
      "name": "C_Neck1",
      "rotation": [
        9.959985902696644e-08,
        5.08283983435831e-06,
        0.053476568311452866,
        0.998569130897522
      ],
      "scale": [
        1.0,
        1.0,
        1.0
      ],
      "translation": [
        0.356209397315979,
        -0.00015823364083189517,
        1.1457409527793061e-05
      ]
    },
    {
      "children": [
        10,
        18
      ],
      "extras": {
        "Flags": 14,
        "ID": 29,
        "Parent ID": 26
      },
      "name": "C_Neck2",
      "rotation": [
        6.83886526076094e-07,
        2.577445741280826e-07,
        0.003925262950360775,
        0.999992311000824
      ],
      "scale": [
        1.0,
        1.0,
        1.0
      ],
      "translation": [
        0.19565343856811523,
        1.0070800271932967e-05,
        5.136429876984039e-07
      ]
    },
    {
      "children": [
        11,
        16,
        17
      ],
      "extras": {
        "Flags": 14,
        "ID": 32,
        "Parent ID": 29
      },
      "name": "C_Head1",
      "rotation": [
        -4.2680089791247156e-06,
        -2.896001205954235e-06,
        0.008172561414539814,
        0.9999666213989258
      ],
      "scale": [
        1.0,
        1.0,
        1.0
      ],
      "translation": [
        0.23296144604682922,
        1.5258788153005298e-06,
        -1.380247908855381e-06
      ]
    },
    {
      "children": [
        12
      ],
      "extras": {
        "Flags": 14,
        "ID": 35,
        "Parent ID": 32
      },
      "name": "C_Jaw1",
      "rotation": [
        3.90623017665348e-06,
        -2.9806238671881147e-05,
        0.09335833787918091,
        0.9956325888633728
      ],
      "scale": [
        1.0,
        1.0,
        1.0
      ],
      "translation": [
        0.010496139526367188,
        0.20056289434432983,
        2.4977363864309154e-05
      ]
    },
    {
      "children": [
        13
      ],
      "extras": {
        "Flags": 14,
        "ID": 38,
        "Parent ID": 35
      },
      "name": "C_Tongue1",
      "rotation": [
        4.7835619625402614e-05,
        1.976756720978301e-05,
        -0.11694550514221191,
        0.993138313293457
      ],
      "scale": [
        1.0,
        1.0,
        1.0
      ],
      "translation": [
        -0.034405019134283066,
        0.007338180206716061,
        -1.0832352018042002e-05
      ]
    },
    {
      "children": [
        14
      ],
      "extras": {
        "Flags": 14,
        "ID": 40,
        "Parent ID": 38
      },
      "name": "C_Tongue2",
      "rotation": [
        -1.6635368638162618e-06,
        -2.7352425036042405e-07,
        0.02106655016541481,
        0.9997780919075012
      ],
      "scale": [
        1.0,
        1.0,
        1.0
      ],
      "translation": [
        0.19565849006175995,
        2.288818308215923e-07,
        1.0740463096681196e-07
      ]
    },
    {
      "children": [
        15
      ],
      "extras": {
        "Flags": 14,
        "ID": 42,
        "Parent ID": 40
      },
      "name": "C_Tongue3",
      "rotation": [
        -7.14326063189219e-07,
        1.197735883806672e-07,
        -0.007950945757329464,
        0.999968409538269
      ],
      "scale": [
        1.0,
        1.0,
        1.0
      ],
      "translation": [
        0.18258902430534363,
        6.179809588502394e-06,
        3.753055111133108e-08
      ]
    },
    {
      "extras": {
        "Flags": 14,
        "ID": 44,
        "Parent ID": 42
      },
      "name": "C_Tongue4",
      "rotation": [
        -3.085079697484616e-06,
        -1.2287845265746e-06,
        0.011865203268826008,
        0.9999296069145203
      ],
      "scale": [
        1.0,
        1.0,
        1.0
      ],
      "translation": [
        0.16078101098537445,
        -1.220703097715159e-06,
        -1.5737313674435427e-07
      ]
    },
    {
      "extras": {
        "Flags": 14,
        "ID": 46,
        "Parent ID": 32
      },
      "name": "L_Ear1",
      "rotation": [
        -0.3772624731063843,
        0.7410951256752014,
        -0.5504283905029297,
        -0.07402469962835312
      ],
      "scale": [
        1.0,
        1.0,
        1.0
      ],
      "translation": [
        0.12064193189144135,
        -0.031208494678139687,
        0.18569259345531464
      ]
    },
    {
      "extras": {
        "Flags": 14,
        "ID": 48,
        "Parent ID": 32
      },
      "name": "R_Ear1",
      "rotation": [
        -0.07407569885253906,
        -0.5505020618438721,
        0.7410346865653992,
        -0.3772636651992798
      ],
      "scale": [
        1.0,
        1.0,
        1.0
      ],
      "translation": [
        0.12064651399850845,
        -0.031168363988399506,
        -0.1857103705406189
      ]
    },
    {
      "extras": {
        "Flags": 14,
        "ID": 50,
        "Parent ID": 29
      },
      "name": "C_BackSpike_1_1",
      "rotation": [
        6.246900011319667e-05,
        3.90821551263798e-05,
        -0.835432231426239,
        0.5495933294296265
      ],
      "scale": [
        1.0,
        1.0,
        1.0
      ],
      "translation": [
        0.11660543084144592,
        -0.13658156991004944,
        -2.776769906631671e-05
      ]
    },
    {
      "extras": {
        "Flags": 14,
        "ID": 52,
        "Parent ID": 26
      },
      "name": "C_BackSpike_2_1",
      "rotation": [
        -2.857527397281956e-05,
        -4.177047230768949e-05,
        0.9060042500495911,
        -0.42326855659484863
      ],
      "scale": [
        1.0,
        1.0,
        1.0
      ],
      "translation": [
        0.07585535198450089,
        -0.22718901932239532,
        -3.617567926994525e-05
      ]
    },
    {
      "extras": {
        "Flags": 14,
        "ID": 54,
        "Parent ID": 26
      },
      "name": "R_BackSpike_1_1",
      "rotation": [
        0.1830933541059494,
        -0.11557072401046753,
        0.889663577079773,
        -0.40201860666275024
      ],
      "scale": [
        1.0,
        1.0,
        1.0
      ],
      "translation": [
        0.016520213335752487,
        -0.18311674892902374,
        -0.24802933633327484
      ]
    },
    {
      "extras": {
        "Flags": 14,
        "ID": 56,
        "Parent ID": 26
      },
      "name": "L_BackSpike_1_1",
      "rotation": [
        -0.34849244356155396,
        0.9119608402252197,
        -0.1044156476855278,
        0.1896783858537674
      ],
      "scale": [
        1.0,
        1.0,
        1.0
      ],
      "translation": [
        0.016512393951416016,
        -0.18316680192947388,
        0.24795863032341003
      ]
    },
    {
      "extras": {
        "Flags": 14,
        "ID": 58,
        "Parent ID": 21
      },
      "name": "C_BackSpike_3_1",
      "rotation": [
        -5.0577767979120836e-05,
        -6.714929622830823e-05,
        0.9395726919174194,
        -0.34234949946403503
      ],
      "scale": [
        1.0,
        1.0,
        1.0
      ],
      "translation": [
        0.20396536588668823,
        -0.35695403814315796,
        0.010164681822061539
      ]
    },
    {
      "extras": {
        "Flags": 14,
        "ID": 60,
        "Parent ID": 21
      },
      "name": "L_BackSpike_2_1",
      "rotation": [
        -0.31750959157943726,
        0.9232032895088196,
        -0.0767631083726883,
        0.20246177911758423
      ],
      "scale": [
        1.0,
        1.0,
        1.0
      ],
      "translation": [
        0.14614945650100708,
        -0.23638153076171875,
        0.30851349234580994
      ]
    },
    {
      "extras": {
        "Flags": 14,
        "ID": 62,
        "Parent ID": 21
      },
      "name": "R_BackSpike_2_1",
      "rotation": [
        0.20243443548679352,
        -0.0768573209643364,
        0.9231942296028137,
        -0.3175305724143982
      ],
      "scale": [
        1.0,
        1.0,
        1.0
      ],
      "translation": [
        0.1461465060710907,
        -0.23631851375102997,
        -0.3085702955722809
      ]
    },
    {
      "children": [
        26
      ],
      "extras": {
        "Flags": 14,
        "ID": 64,
        "Parent ID": 21
      },
      "name": "R_FrontHip",
      "rotation": [
        0.7841047048568726,
        0.5901800394058228,
        -0.13920825719833374,
        0.13224372267723083
      ],
      "scale": [
        1.0,
        1.0,
        1.0
      ],
      "translation": [
        0.05983908846974373,
        -0.13563033938407898,
        -0.2383807748556137
      ]
    },
    {
      "children": [
        27,
        32
      ],
      "extras": {
        "Flags": 14,
        "ID": 67,
        "Parent ID": 64
      },
      "name": "R_Thigh",
      "rotation": [
        -0.05952713266015053,
        0.0949261486530304,
        -0.34703513979911804,
        0.9311348795890808
      ],
      "scale": [
        1.0,
        1.0,
        1.0
      ],
      "translation": [
        0.4154665172100067,
        1.3351440202313825e-06,
        1.2969970839549205e-06
      ]
    },
    {
      "children": [
        28
      ],
      "extras": {
        "Flags": 14,
        "ID": 70,
        "Parent ID": 67
      },
      "name": "R_Calf",
      "rotation": [
        3.867134637403069e-06,
        3.9857344091842606e-08,
        0.37945103645324707,
        0.9252118468284607
      ],
      "scale": [
        1.0,
        1.0,
        1.0
      ],
      "translation": [
        0.4864230155944824,
        -8.010864007701457e-07,
        1.5258788721439487e-07
      ]
    },
    {
      "children": [
        29
      ],
      "extras": {
        "Flags": 14,
        "ID": 73,
        "Parent ID": 70
      },
      "name": "R_Ankle",
      "rotation": [
        0.1594655066728592,
        0.012424789369106293,
        0.210631862282753,
        0.96439129114151
      ],
      "scale": [
        1.0,
        1.0,
        1.0
      ],
      "translation": [
        0.4266826808452606,
        3.8623809928139963e-07,
        -7.629394360719743e-08
      ]
    },
    {
      "children": [
        30,
        31
      ],
      "extras": {
        "Flags": 14,
        "ID": 76,
        "Parent ID": 73
      },
      "name": "R_Foot",
      "rotation": [
        0.0009562435443513095,
        -0.0032898173667490482,
        0.36672863364219666,
        0.9303216934204102
      ],
      "scale": [
        1.0,
        1.0,
        1.0
      ],
      "translation": [
        0.21598529815673828,
        7.629394360719743e-08,
        1.7547606603329768e-06
      ]
    },
    {
      "extras": {
        "Flags": 14,
        "ID": 79,
        "Parent ID": 76
      },
      "name": "R_OutterFrontToe1",
      "rotation": [
        0.019459212198853493,
        -0.26733529567718506,
        -0.05016958713531494,
        0.9620998501777649
      ],
      "scale": [
        1.0,
        1.0,
        1.0
      ],
      "translation": [
        0.011166763491928577,
        0.0020649528596550226,
        0.08562812954187393
      ]
    },
    {
      "extras": {
        "Flags": 14,
        "ID": 81,
        "Parent ID": 76
      },
      "name": "R_InnerFrontToe1",
      "rotation": [
        -0.023669488728046417,
        0.2684095501899719,
        -0.049408745020627975,
        0.9617457389831543
      ],
      "scale": [
        1.0,
        1.0,
        1.0
      ],
      "translation": [
        -0.014988422393798828,
        0.0013231182238087058,
        -0.07909263670444489
      ]
    },
    {
      "children": [
        33
      ],
      "extras": {
        "Flags": 14,
        "ID": 83,
        "Parent ID": 67
      },
      "name": "R_FrontLegUpperTwist1",
      "rotation": [
        0.00016019490431062877,
        1.7508482414996251e-06,
        -2.3869907295193116e-07,
        1.0
      ],
      "scale": [
        1.0,
        1.0,
        1.0
      ],
      "translation": [
        -3.8146970382513246e-07,
        3.814697180359872e-08,
        -2.0599363779183477e-06
      ]
    },
    {
      "extras": {
        "Flags": 14,
        "ID": 85,
        "Parent ID": 83
      },
      "name": "R_FrontLegUpperTwist2",
      "rotation": [
        -8.225813508033752e-05,
        2.607175133562123e-07,
        6.407711339306843e-07,
        1.0
      ],
      "scale": [
        1.0,
        1.0,
        1.0
      ],
      "translation": [
        0.18188156187534332,
        1.983642505365424e-06,
        1.3351440202313825e-06
      ]
    },
    {
      "children": [
        35
      ],
      "extras": {
        "Flags": 14,
        "ID": 87,
        "Parent ID": 21
      },
      "name": "L_FrontHip",
      "rotation": [
        0.13232667744159698,
        -0.13926361501216888,
        0.5901655554771423,
        0.7840917706489563
      ],
      "scale": [
        1.0,
        1.0,
        1.0
      ],
      "translation": [
        0.059841588139534,
        -0.13567900657653809,
        0.23834532499313354
      ]
    },
    {
      "children": [
        36,
        41
      ],
      "extras": {
        "Flags": 14,
        "ID": 90,
        "Parent ID": 87
      },
      "name": "L_Thigh",
      "rotation": [
        0.05959758535027504,
        0.09492595493793488,
        0.34702715277671814,
        0.9311333894729614
      ],
      "scale": [
        1.0,
        1.0,
        1.0
      ],
      "translation": [
        0.41546615958213806,
        -1.945495569088962e-06,
        1.3732909565078444e-06
      ]
    },
    {
      "children": [
        37
      ],
      "extras": {
        "Flags": 14,
        "ID": 93,
        "Parent ID": 90
      },
      "name": "L_Calf",
      "rotation": [
        -3.88955277230707e-06,
        5.644296265927551e-07,
        -0.3794500529766083,
        0.9252122044563293
      ],
      "scale": [
        1.0,
        1.0,
        1.0
      ],
      "translation": [
        0.4864231050014496,
        4.1961669694501325e-07,
        -2.288818308215923e-07
      ]
    },
    {
      "children": [
        38
      ],
      "extras": {
        "Flags": 14,
        "ID": 96,
        "Parent ID": 93
      },
      "name": "L_Ankle",
      "rotation": [
        -0.159772589802742,
        0.01204733271151781,
        -0.21048352122306824,
        0.9643776416778564
      ],
      "scale": [
        1.0,
        1.0,
        1.0
      ],
      "translation": [
        0.42668208479881287,
        -4.95910626341356e-07,
        -1.9073485191256623e-07
      ]
    },
    {
      "children": [
        39,
        40
      ],
      "extras": {
        "Flags": 14,
        "ID": 99,
        "Parent ID": 96
      },
      "name": "L_Foot",
      "rotation": [
        -0.0007508703856728971,
        -0.002767859259620309,
        -0.36700594425201416,
        0.9302141666412354
      ],
      "scale": [
        1.0,
        1.0,
        1.0
      ],
      "translation": [
        0.21598593890666962,
        1.1444091541079615e-07,
        2.2888182229507947e-06
      ]
    },
    {
      "extras": {
        "Flags": 14,
        "ID": 102,
        "Parent ID": 99
      },
      "name": "L_OutterFrontToe1",
      "rotation": [
        -0.01945933885872364,
        -0.26733505725860596,
        0.05016905814409256,
        0.9620999693870544
      ],
      "scale": [
        1.0,
        1.0,
        1.0
      ],
      "translation": [
        0.011165580712258816,
        -0.002064886037260294,
        0.08562816679477692
      ]
    },
    {
      "extras": {
        "Flags": 14,
        "ID": 104,
        "Parent ID": 99
      },
      "name": "L_InnerFrontToe1",
      "rotation": [
        0.023669375106692314,
        0.2684095501899719,
        0.04940906539559364,
        0.9617457389831543
      ],
      "scale": [
        1.0,
        1.0,
        1.0
      ],
      "translation": [
        -0.014988746494054794,
        -0.0013230991316959262,
        -0.07909251749515533
      ]
    },
    {
      "children": [
        42
      ],
      "extras": {
        "Flags": 14,
        "ID": 106,
        "Parent ID": 90
      },
      "name": "L_FrontLegUpperTwist1",
      "rotation": [
        1.9557778614398558e-06,
        1.2740496231344878e-06,
        8.940448736893813e-08,
        1.0
      ],
      "scale": [
        1.0,
        1.0,
        1.0
      ],
      "translation": [
        -2.288818308215923e-07,
        -3.814697180359872e-08,
        -1.678466787780053e-06
      ]
    },
    {
      "extras": {
        "Flags": 14,
        "ID": 108,
        "Parent ID": 106
      },
      "name": "L_FrontLegUpperTwist2",
      "rotation": [
        2.1643934360326966e-06,
        8.195640788244418e-08,
        -1.7741366644015433e-13,
        1.0
      ],
      "scale": [
        1.0,
        1.0,
        1.0
      ],
      "translation": [
        0.1818823218345642,
        -1.7929077102962765e-06,
        7.24792471373803e-07
      ]
    },
    {
      "extras": {
        "Flags": 14,
        "ID": 110,
        "Parent ID": 21
      },
      "name": "DirectAt",
      "rotation": [
        0.5078842639923096,
        0.49204084277153015,
        -0.5078370571136475,
        0.49198663234710693
      ],
      "scale": [
        1.0,
        1.0,
        1.0
      ],
      "translation": [
        0.0,
        0.0,
        0.0
      ]
    },
    {
      "extras": {
        "Flags": 14,
        "ID": 112,
        "Parent ID": 18
      },
      "name": "C_MidChestDef_Def",
      "rotation": [
        0.5077014565467834,
        0.49223804473876953,
        -0.5076915621757507,
        0.49212825298309326
      ],
      "scale": [
        1.0,
        1.0,
        1.0
      ],
      "translation": [
        0.0,
        0.0,
        -1.6784714489403996e-06
      ]
    },
    {
      "extras": {
        "Flags": 14,
        "ID": 114,
        "Parent ID": 15
      },
      "name": "C_BellyDef_Def",
      "rotation": [
        0.5358005166053772,
        0.4614308476448059,
        -0.5357961058616638,
        0.4614347219467163
      ],
      "scale": [
        1.0,
        1.0,
        1.0
      ],
      "translation": [
        1.5258788721439487e-07,
        0.0,
        -4.577639458602789e-07
      ]
    },
    {
      "children": [
        47,
        55,
        64
      ],
      "extras": {
        "Flags": 14,
        "ID": 116,
        "Parent ID": 5
      },
      "name": "C_hips",
      "rotation": [
        -0.4853661358356476,
        0.5142175555229187,
        -0.4853655993938446,
        0.5142179727554321
      ],
      "scale": [
        1.0,
        1.0,
        1.0
      ],
      "translation": [
        -1.0986695928028034e-11,
        -1.0070800271932967e-05,
        0.0
      ]
    },
    {
      "children": [
        48
      ],
      "extras": {
        "Flags": 14,
        "ID": 119,
        "Parent ID": 116
      },
      "name": "C_Tail1",
      "rotation": [
        1.9118898819669994e-07,
        1.2801575621779193e-06,
        0.051865220069885254,
        0.9986541271209717
      ],
      "scale": [
        1.0,
        1.0,
        1.0
      ],
      "translation": [
        0.4248596727848053,
        -0.06704787909984589,
        -3.0430917377088917e-06
      ]
    },
    {
      "children": [
        49
      ],
      "extras": {
        "Flags": 14,
        "ID": 122,
        "Parent ID": 119
      },
      "name": "C_Tail2",
      "rotation": [
        -1.8908714309873176e-06,
        6.488983217423083e-07,
        -0.026408931240439415,
        0.9996511936187744
      ],
      "scale": [
        1.0,
        1.0,
        1.0
      ],
      "translation": [
        0.3355357348918915,
        7.629394076502649e-07,
        1.3332909247765201e-06
      ]
    },
    {
      "children": [
        50
      ],
      "extras": {
        "Flags": 14,
        "ID": 125,
        "Parent ID": 122
      },
      "name": "C_Tail3",
      "rotation": [
        -3.332185315230163e-06,
        5.756275527346588e-07,
        -0.010157645680010319,
        0.9999483823776245
      ],
      "scale": [
        1.0,
        1.0,
        1.0
      ],
      "translation": [
        0.3415144383907318,
        2.899169885495212e-06,
        -4.2722851389953576e-07
      ]
    },
    {
      "children": [
        51
      ],
      "extras": {
        "Flags": 14,
        "ID": 128,
        "Parent ID": 125
      },
      "name": "C_Tail4",
      "rotation": [
        -4.770646228280384e-06,
        -1.4229095768314437e-06,
        -0.0015938265714794397,
        0.9999987483024597
      ],
      "scale": [
        1.0,
        1.0,
        1.0
      ],
      "translation": [
        0.3748413026332855,
        -3.814697265625e-06,
        7.599708737870969e-07
      ]
    },
    {
      "children": [
        52
      ],
      "extras": {
        "Flags": 14,
        "ID": 131,
        "Parent ID": 128
      },
      "name": "C_Tail5",
      "rotation": [
        -7.64594915381167e-06,
        -1.3392165101322462e-06,
        -0.011952830478549004,
        0.9999285340309143
      ],
      "scale": [
        1.0,
        1.0,
        1.0
      ],
      "translation": [
        0.35921141505241394,
        5.798339770990424e-06,
        -4.3367967350604886e-07
      ]
    },
    {
      "children": [
        53
      ],
      "extras": {
        "Flags": 14,
        "ID": 134,
        "Parent ID": 131
      },
      "name": "C_Tail6",
      "rotation": [
        -8.101327694021165e-06,
        1.002345243250602e-06,
        -0.004994610324501991,
        0.9999875426292419
      ],
      "scale": [
        1.0,
        1.0,
        1.0
      ],
      "translation": [
        0.337503045797348,
        -7.629394076502649e-07,
        -4.27588815909985e-07
      ]
    },
    {
      "children": [
        54
      ],
      "extras": {
        "Flags": 14,
        "ID": 137,
        "Parent ID": 134
      },
      "name": "C_Tail7",
      "rotation": [
        -4.768370217789197e-06,
        9.103371780838643e-07,
        5.625231551675824e-07,
        1.0
      ],
      "scale": [
        1.0,
        1.0,
        1.0
      ],
      "translation": [
        0.34703367948532104,
        -1.3580322047346272e-05,
        1.9308178877963655e-07
      ]
    },
    {
      "extras": {
        "Flags": 14,
        "ID": 140,
        "Parent ID": 137
      },
      "name": "C_Tail8",
      "rotation": [
        -3.099447894783225e-06,
        1.631436362004024e-06,
        3.8035266243241495e-06,
        1.0
      ],
      "scale": [
        1.0,
        1.0,
        1.0
      ],
      "translation": [
        0.2786257863044739,
        1.2512206922110636e-05,
        -2.9270535151226795e-07
      ]
    },
    {
      "children": [
        56
      ],
      "extras": {
        "Flags": 14,
        "ID": 143,
        "Parent ID": 116
      },
      "name": "R_Hip",
      "rotation": [
        0.1559479683637619,
        -0.3337072730064392,
        0.5459983944892883,
        0.7524662613868713
      ],
      "scale": [
        1.0,
        1.0,
        1.0
      ],
      "translation": [
        0.197550430893898,
        -0.09914016723632813,
        0.10360933095216751
      ]
    },
    {
      "children": [
        57,
        62
      ],
      "extras": {
        "Flags": 14,
        "ID": 146,
        "Parent ID": 143
      },
      "name": "R_BackFemur",
      "rotation": [
        0.16963909566402435,
        0.21758441627025604,
        0.26763665676116943,
        0.9231739640235901
      ],
      "scale": [
        1.0,
        1.0,
        1.0
      ],
      "translation": [
        0.2524995505809784,
        -2.2888182229507947e-06,
        3.0517577442878974e-07
      ]
    },
    {
      "children": [
        58
      ],
      "extras": {
        "Flags": 14,
        "ID": 149,
        "Parent ID": 146
      },
      "name": "R_BackTibia",
      "rotation": [
        -0.004540577996522188,
        0.00703612482175231,
        -0.5432694554328918,
        0.8395166397094727
      ],
      "scale": [
        1.0,
        1.0,
        1.0
      ],
      "translation": [
        0.5879855155944824,
        0.0,
        3.8146970382513246e-07
      ]
    },
    {
      "children": [
        59
      ],
      "extras": {
        "Flags": 14,
        "ID": 152,
        "Parent ID": 149
      },
      "name": "R_BackAnkle",
      "rotation": [
        0.08747436851263046,
        0.11491390317678452,
        0.5911160111427307,
        0.7935521006584167
      ],
      "scale": [
        1.0,
        1.0,
        1.0
      ],
      "translation": [
        0.46099624037742615,
        -1.5258788153005298e-06,
        4.95910626341356e-07
      ]
    },
    {
      "children": [
        60,
        61
      ],
      "extras": {
        "Flags": 14,
        "ID": 155,
        "Parent ID": 152
      },
      "name": "R_BackToe",
      "rotation": [
        0.05157981812953949,
        -0.05930742993950844,
        0.39249998331069946,
        0.9163874387741089
      ],
      "scale": [
        1.0,
        1.0,
        1.0
      ],
      "translation": [
        0.2861475348472595,
        1.0375976671639364e-05,
        -3.128051730527659e-06
      ]
    },
    {
      "extras": {
        "Flags": 14,
        "ID": 158,
        "Parent ID": 155
      },
      "name": "R_OutterBackToe1",
      "rotation": [
        0.03698399290442467,
        -0.18422549962997437,
        0.08678176999092102,
        0.978346586227417
      ],
      "scale": [
        1.0,
        1.0,
        1.0
      ],
      "translation": [
        0.02992912195622921,
        -0.0365738682448864,
        0.05624900758266449
      ]
    },
    {
      "extras": {
        "Flags": 14,
        "ID": 160,
        "Parent ID": 155
      },
      "name": "R_InnerBackToe1",
      "rotation": [
        -0.037442874163389206,
        0.19271153211593628,
        0.06547057628631592,
        0.9783526659011841
      ],
      "scale": [
        1.0,
        1.0,
        1.0
      ],
      "translation": [
        0.04534057527780533,
        -0.032470643520355225,
        -0.08255050331354141
      ]
    },
    {
      "children": [
        63
      ],
      "extras": {
        "Flags": 14,
        "ID": 162,
        "Parent ID": 146
      },
      "name": "R_BackLegUpperTwist1",
      "rotation": [
        0.07514066249132156,
        2.5278550310758874e-06,
        -1.3560691058955854e-06,
        0.9971729516983032
      ],
      "scale": [
        1.0,
        1.0,
        1.0
      ],
      "translation": [
        3.0517577442878974e-07,
        -4.577636616431846e-07,
        0.0
      ]
    },
    {
      "extras": {
        "Flags": 14,
        "ID": 164,
        "Parent ID": 162
      },
      "name": "R_BackLegUpperTwist2",
      "rotation": [
        -0.03759690374135971,
        1.2995831184525741e-06,
        1.5251532659021905e-06,
        0.9992929697036743
      ],
      "scale": [
        1.0,
        1.0,
        1.0
      ],
      "translation": [
        0.1818884164094925,
        -4.806518518307712e-06,
        -7.629394076502649e-07
      ]
    },
    {
      "children": [
        65
      ],
      "extras": {
        "Flags": 14,
        "ID": 166,
        "Parent ID": 116
      },
      "name": "L_Hip",
      "rotation": [
        0.752466082572937,
        0.5459982752799988,
        -0.3337083160877228,
        0.15594694018363953
      ],
      "scale": [
        1.0,
        1.0,
        1.0
      ],
      "translation": [
        0.19755035638809204,
        -0.09913970530033112,
        -0.10360874235630035
      ]
    },
    {
      "children": [
        66,
        71
      ],
      "extras": {
        "Flags": 14,
        "ID": 169,
        "Parent ID": 166
      },
      "name": "L_BackFemur",
      "rotation": [
        -0.16963611543178558,
        0.21758633852005005,
        -0.26763853430747986,
        0.9231735467910767
      ],
      "scale": [
        1.0,
        1.0,
        1.0
      ],
      "translation": [
        0.25249969959259033,
        2.899169885495212e-06,
        1.9073485191256623e-07
      ]
    },
    {
      "children": [
        67
      ],
      "extras": {
        "Flags": 14,
        "ID": 172,
        "Parent ID": 169
      },
      "name": "L_BackTibia",
      "rotation": [
        0.004541023634374142,
        0.007033791393041611,
        0.5432690978050232,
        0.8395168781280518
      ],
      "scale": [
        1.0,
        1.0,
        1.0
      ],
      "translation": [
        0.5879849195480347,
        -3.8146970382513246e-07,
        6.103515488575795e-07
      ]
    },
    {
      "children": [
        68
      ],
      "extras": {
        "Flags": 14,
        "ID": 175,
        "Parent ID": 172
      },
      "name": "L_BackAnkle",
      "rotation": [
        -0.08747778087854385,
        0.11491737514734268,
        -0.5911152958869934,
        0.7935517430305481
      ],
      "scale": [
        1.0,
        1.0,
        1.0
      ],
      "translation": [
        0.46099653840065,
        1.5258788153005298e-06,
        1.411438006471144e-06
      ]
    },
    {
      "children": [
        69,
        70
      ],
      "extras": {
        "Flags": 14,
        "ID": 178,
        "Parent ID": 175
      },
      "name": "L_BackToe",
      "rotation": [
        -0.051737964153289795,
        -0.05931903049349785,
        -0.39214321970939636,
        0.9165304899215698
      ],
      "scale": [
        1.0,
        1.0,
        1.0
      ],
      "translation": [
        0.2861478328704834,
        -1.1444091796875e-05,
        -3.5095213206659537e-06
      ]
    },
    {
      "extras": {
        "Flags": 14,
        "ID": 181,
        "Parent ID": 178
      },
      "name": "L_OutterBackToe1",
      "rotation": [
        -0.03698398917913437,
        -0.18422603607177734,
        -0.08678122609853745,
        0.9783465266227722
      ],
      "scale": [
        1.0,
        1.0,
        1.0
      ],
      "translation": [
        0.029930267482995987,
        0.03657303750514984,
        0.05624908208847046
      ]
    },
    {
      "extras": {
        "Flags": 14,
        "ID": 183,
        "Parent ID": 178
      },
      "name": "L_InnerBackToe1",
      "rotation": [
        0.03744286298751831,
        0.1927117109298706,
        -0.06546986848115921,
        0.9783526659011841
      ],
      "scale": [
        1.0,
        1.0,
        1.0
      ],
      "translation": [
        0.04533592239022255,
        0.03247138112783432,
        -0.08254867047071457
      ]
    },
    {
      "children": [
        72
      ],
      "extras": {
        "Flags": 14,
        "ID": 185,
        "Parent ID": 169
      },
      "name": "L_BackLegUpperTwist1",
      "rotation": [
        -0.0751442015171051,
        1.75670902535785e-06,
        1.178419665848196e-06,
        0.9971726536750793
      ],
      "scale": [
        1.0,
        1.0,
        1.0
      ],
      "translation": [
        -2.8421708795129297e-16,
        7.629394360719743e-08,
        -1.5258788721439487e-07
      ]
    },
    {
      "extras": {
        "Flags": 14,
        "ID": 187,
        "Parent ID": 185
      },
      "name": "L_BackLegUpperTwist2",
      "rotation": [
        0.037597887217998505,
        1.6884191609278787e-06,
        -1.4950496733945329e-06,
        0.9992929697036743
      ],
      "scale": [
        1.0,
        1.0,
        1.0
      ],
      "translation": [
        0.18188980221748352,
        4.348754828242818e-06,
        -6.866454782539222e-07
      ]
    },
    {
      "extras": {
        "Flags": 526,
        "Has GPU LODs": false,
        "ID": 200,
        "Material Path": "Materials\\Actors\\QuadrupedA\\QuadrupedA_Sirens\\QuadrupedA_Sirens_01.mat",
        "NiIntegerExtraData:MaterialID": 1538839999,
        "Parent ID": 3
      },
      "mesh": 0,
      "name": "QuadrupedA_Sirens:0",
      "rotation": [
        0.0,
        0.0,
        0.0,
        1.0
      ],
      "scale": [
        1.0,
        1.0,
        1.0
      ],
      "skin": 0,
      "translation": [
        0.0,
        0.0,
        0.0
      ]
    },
    {
      "extras": {
        "Flags": 526,
        "Has GPU LODs": false,
        "ID": 206,
        "Material Path": "Materials\\Actors\\QuadrupedA\\QuadrupedA_Sirens\\QuadrupedA_Sirens_02.mat",
        "NiIntegerExtraData:MaterialID": 471379823,
        "Parent ID": 3
      },
      "mesh": 1,
      "name": "QuadrupedA_Sirens:1",
      "rotation": [
        0.0,
        0.0,
        0.0,
        1.0
      ],
      "scale": [
        1.0,
        1.0,
        1.0
      ],
      "skin": 1,
      "translation": [
        0.0,
        0.0,
        0.0
      ]
    },
    {
      "extras": {
        "Flags": 526,
        "Has GPU LODs": false,
        "ID": 212,
        "Material Path": "Materials\\Actors\\QuadrupedA\\QuadrupedA_Sirens\\QuadrupedA_Sirens_01.mat",
        "NiIntegerExtraData:MaterialID": 1538839999,
        "Parent ID": 3
      },
      "mesh": 2,
      "name": "QuadrupedA_Sirens_Tongue:0",
      "rotation": [
        0.0,
        0.0,
        0.0,
        1.0
      ],
      "scale": [
        1.0,
        1.0,
        1.0
      ],
      "skin": 2,
      "translation": [
        0.0,
        0.0,
        0.0
      ]
    },
    {
      "extras": {
        "Flags": 526,
        "Has GPU LODs": false,
        "ID": 218,
        "Material Path": "Materials\\Actors\\QuadrupedA\\QuadrupedA_Sirens\\QuadrupedA_Sirens_Implant.mat",
        "NiIntegerExtraData:MaterialID": 1116596747,
        "Parent ID": 3
      },
      "mesh": 3,
      "name": "QuadrupedA_Sirens_NCI_Implant:0",
      "rotation": [
        0.0,
        0.0,
        0.0,
        1.0
      ],
      "scale": [
        1.0,
        1.0,
        1.0
      ],
      "skin": 3,
      "translation": [
        0.0,
        1.1152724027633667,
        1.248087763786316
      ]
    }
  ],
  "scenes": [
    {
      "name": "ExportScene",
      "nodes": [
        0
      ]
    }
  ],
  "skins": [
    {
      "inverseBindMatrices": 0,
      "joints": [
        28,
        29,
        31,
        30,
        27,
        26,
        33,
        32,
        6,
        5,
        25,
        4,
        7,
        8,
        9,
        3,
        24,
        10,
        11,
        22,
        42,
        44,
        45,
        2,
        23,
        37,
        38,
        40,
        39,
        34,
        36,
        35,
        41
      ],
      "skeleton": 1
    },
    {
      "inverseBindMatrices": 1,
      "joints": [
        26,
        33,
        32,
        6,
        5,
        25,
        4,
        7,
        8,
        9,
        3,
        24,
        42,
        44,
        45,
        2,
        46,
        55,
        47,
        64,
        48,
        49,
        50,
        62,
        63,
        51,
        52,
        53,
        54,
        56,
        57,
        72,
        71,
        58,
        59,
        60,
        61,
        23,
        34,
        35,
        41,
        65,
        66,
        67,
        68,
        69,
        70
      ],
      "skeleton": 1
    },
    {
      "inverseBindMatrices": 2,
      "joints": [
        14,
        15,
        13,
        12
      ],
      "skeleton": 1
    },
    {
      "inverseBindMatrices": 3,
      "joints": [
        10
      ],
      "skeleton": 1
    }
  ]
}
