{
  "accessors": [
    {
      "bufferView": 0,
      "componentType": 5126,
      "count": 41,
      "type": "MAT4"
    },
    {
      "bufferView": 1,
      "componentType": 5126,
      "count": 23,
      "type": "MAT4"
    },
    {
      "bufferView": 2,
      "componentType": 5126,
      "count": 14072,
      "max": [
        1.7109897136688232,
        2.397534132003784,
        8.256599426269531
      ],
      "min": [
        -1.7105014324188232,
        -1.529831886291504,
        0.0
      ],
      "type": "VEC3"
    },
    {
      "bufferView": 3,
      "componentType": 5126,
      "count": 14072,
      "type": "VEC3"
    },
    {
      "bufferView": 4,
      "componentType": 5126,
      "count": 14072,
      "type": "VEC4"
    },
    {
      "bufferView": 5,
      "componentType": 5126,
      "count": 14072,
      "type": "VEC2"
    },
    {
      "bufferView": 6,
      "componentType": 5126,
      "count": 14072,
      "type": "VEC2"
    },
    {
      "bufferView": 7,
      "componentType": 5126,
      "count": 14072,
      "type": "VEC4"
    },
    {
      "bufferView": 8,
      "componentType": 5123,
      "count": 14072,
      "type": "VEC4"
    },
    {
      "bufferView": 9,
      "componentType": 5123,
      "count": 67470,
      "type": "SCALAR"
    },
    {
      "bufferView": 10,
      "componentType": 5126,
      "count": 8066,
      "max": [
        0.5073397159576416,
        1.1621448993682861,
        1.608935832977295
      ],
      "min": [
        -0.5068514347076416,
        -2.4917752742767334,
        0.4668111205101013
      ],
      "type": "VEC3"
    },
    {
      "bufferView": 11,
      "componentType": 5126,
      "count": 8066,
      "type": "VEC3"
    },
    {
      "bufferView": 12,
      "componentType": 5126,
      "count": 8066,
      "type": "VEC4"
    },
    {
      "bufferView": 13,
      "componentType": 5126,
      "count": 8066,
      "type": "VEC2"
    },
    {
      "bufferView": 14,
      "componentType": 5126,
      "count": 8066,
      "type": "VEC2"
    },
    {
      "bufferView": 15,
      "componentType": 5126,
      "count": 8066,
      "type": "VEC4"
    },
    {
      "bufferView": 16,
      "componentType": 5126,
      "count": 8066,
      "type": "VEC4"
    },
    {
      "bufferView": 17,
      "componentType": 5123,
      "count": 8066,
      "type": "VEC4"
    },
    {
      "bufferView": 18,
      "componentType": 5123,
      "count": 8066,
      "type": "VEC4"
    },
    {
      "bufferView": 19,
      "componentType": 5123,
      "count": 37518,
      "type": "SCALAR"
    }
  ],
  "asset": {
    "generator": "NifSkope glTF 2.0 Exporter v1.2",
    "version": "2.0"
  },
  "bufferViews": [
    {
      "buffer": 0,
      "byteLength": 2624
    },
    {
      "buffer": 0,
      "byteLength": 1472,
      "byteOffset": 2624
    },
    {
      "buffer": 0,
      "byteLength": 168864,
      "byteOffset": 4096,
      "target": 34962
    },
    {
      "buffer": 0,
      "byteLength": 168864,
      "byteOffset": 172960,
      "target": 34962
    },
    {
      "buffer": 0,
      "byteLength": 225152,
      "byteOffset": 341824,
      "target": 34962
    },
    {
      "buffer": 0,
      "byteLength": 112576,
      "byteOffset": 566976,
      "target": 34962
    },
    {
      "buffer": 0,
      "byteLength": 112576,
      "byteOffset": 679552,
      "target": 34962
    },
    {
      "buffer": 0,
      "byteLength": 225152,
      "byteOffset": 792128,
      "target": 34962
    },
    {
      "buffer": 0,
      "byteLength": 112576,
      "byteOffset": 1017280,
      "target": 34962
    },
    {
      "buffer": 0,
      "byteLength": 134940,
      "byteOffset": 1129856,
      "target": 34963
    },
    {
      "buffer": 0,
      "byteLength": 96792,
      "byteOffset": 1264796,
      "target": 34962
    },
    {
      "buffer": 0,
      "byteLength": 96792,
      "byteOffset": 1361588,
      "target": 34962
    },
    {
      "buffer": 0,
      "byteLength": 129056,
      "byteOffset": 1458380,
      "target": 34962
    },
    {
      "buffer": 0,
      "byteLength": 64528,
      "byteOffset": 1587436,
      "target": 34962
    },
    {
      "buffer": 0,
      "byteLength": 64528,
      "byteOffset": 1651964,
      "target": 34962
    },
    {
      "buffer": 0,
      "byteLength": 129056,
      "byteOffset": 1716492,
      "target": 34962
    },
    {
      "buffer": 0,
      "byteLength": 129056,
      "byteOffset": 1845548,
      "target": 34962
    },
    {
      "buffer": 0,
      "byteLength": 64528,
      "byteOffset": 1974604,
      "target": 34962
    },
    {
      "buffer": 0,
      "byteLength": 64528,
      "byteOffset": 2039132,
      "target": 34962
    },
    {
      "buffer": 0,
      "byteLength": 75036,
      "byteOffset": 2103660,
      "target": 34963
    }
  ],
  "buffers": [
    {
      "byteLength": 2178696,
      "name": "Coralcrab.bin",
      "uri": "Coralcrab.bin"
    }
  ],
  "materials": [
    {
      "extras": {
        "Material Path": "Default"
      },
      "name": "Default"
    },
    {
      "extras": {
        "Material Path": "materials/actors/hexapoda/hexapoda_coralcrab/hexapoda_coralcrab_a.mat"
      },
      "name": "Materials/Actors/Hexapoda/Hexapoda_Coralcrab/Hexapoda_Coralcrab_A"
    },
    {
      "extras": {
        "Material Path": "materials/actors/hexapoda/hexapoda_coralcrab/hexapoda_coralcrab_b.mat"
      },
      "name": "Materials/Actors/Hexapoda/Hexapoda_Coralcrab/Hexapoda_Coralcrab_B"
    }
  ],
  "meshes": [
    {
      "name": "HexapodA_CoralCrab:0",
      "primitives": [
        {
          "attributes": {
            "JOINTS_0": 8,
            "NORMAL": 3,
            "POSITION": 2,
            "TANGENT": 4,
            "TEXCOORD_0": 5,
            "TEXCOORD_1": 6,
            "WEIGHTS_0": 7
          },
          "indices": 9,
          "material": 1,
          "mode": 4
        }
      ]
    },
    {
      "name": "HexapodA_CoralCrab:1",
      "primitives": [
        {
          "attributes": {
            "JOINTS_0": 17,
            "JOINTS_1": 18,
            "NORMAL": 11,
            "POSITION": 10,
            "TANGENT": 12,
            "TEXCOORD_0": 13,
            "TEXCOORD_1": 14,
            "WEIGHTS_0": 15,
            "WEIGHTS_1": 16
          },
          "indices": 19,
          "material": 2,
          "mode": 4
        }
      ]
    }
  ],
  "nodes": [
    {
      "children": [
        1,
        70,
        71
      ],
      "extras": {
        "Flags": 14,
        "ID": 3,
        "Parent ID": 0
      },
      "name": "Root",
      "rotation": [
        -0.7071067690849304,
        -1.0677029393946214e-07,
        1.0677029393946214e-07,
        0.7071067690849304
      ],
      "scale": [
        1.0,
        1.0,
        1.0
      ],
      "translation": [
        0.0,
        0.0,
        -0.0
      ]
    },
    {
      "children": [
        2,
        47
      ],
      "extras": {
        "Flags": 14,
        "ID": 5,
        "Parent ID": 3
      },
      "name": "COM",
      "rotation": [
        1.5060099940455984e-06,
        7.549800074002633e-08,
        7.549799363459897e-08,
        1.0
      ],
      "scale": [
        1.0,
        1.0,
        1.0
      ],
      "translation": [
        -8.223767622439482e-08,
        -0.422004759311676,
        0.6995697021484375
      ]
    },
    {
      "children": [
        3
      ],
      "extras": {
        "Flags": 14,
        "ID": 9,
        "Parent ID": 5
      },
      "name": "C_Spine",
      "rotation": [
        0.4999992251396179,
        0.5000007152557373,
        0.4999992251396179,
        0.5000007748603821
      ],
      "scale": [
        1.0,
        1.0,
        1.0
      ],
      "translation": [
        -4.5196191678087416e-08,
        1.5258788153005298e-06,
        -5.294799848343246e-05
      ]
    },
    {
      "children": [
        4,
        39,
        43
      ],
      "extras": {
        "Flags": 14,
        "ID": 12,
        "Parent ID": 9
      },
      "name": "C_Spine2",
      "rotation": [
        1.63429775897235e-13,
        1.4204430817330027e-14,
        -0.000347137451171875,
        0.9999999403953552
      ],
      "scale": [
        1.0,
        1.0,
        1.0
      ],
      "translation": [
        0.14999990165233612,
        -1.5258788721439487e-07,
        -3.63797872577655e-14
      ]
    },
    {
      "children": [
        5,
        38
      ],
      "extras": {
        "Flags": 14,
        "ID": 15,
        "Parent ID": 12
      },
      "name": "C_Spine3",
      "rotation": [
        3.5321468718082193e-15,
        1.1413926512379886e-14,
        0.0018024282762780786,
        0.9999983906745911
      ],
      "scale": [
        1.0,
        1.0,
        1.0
      ],
      "translation": [
        0.15942588448524475,
        7.629394360719743e-08,
        -3.63797872577655e-14
      ]
    },
    {
      "children": [
        6,
        18,
        22,
        28,
        34
      ],
      "extras": {
        "Flags": 14,
        "ID": 18,
        "Parent ID": 15
      },
      "name": "C_Spine4",
      "rotation": [
        3.552713678800501e-15,
        1.1421419365831298e-14,
        4.336808689942018e-19,
        1.0
      ],
      "scale": [
        1.0,
        1.0,
        1.0
      ],
      "translation": [
        0.16026698052883148,
        0.0,
        -3.63797872577655e-14
      ]
    },
    {
      "children": [
        7
      ],
      "extras": {
        "Flags": 14,
        "ID": 21,
        "Parent ID": 18
      },
      "name": "C_Head",
      "rotation": [
        3.016916211751215e-14,
        2.4168565572794086e-14,
        -0.0693022608757019,
        0.9975957274436951
      ],
      "scale": [
        1.0000004768371582,
        1.0000004768371582,
        1.0000004768371582
      ],
      "translation": [
        0.15061524510383606,
        -0.04794837906956673,
        -5.456968088664825e-14
      ]
    },
    {
      "children": [
        8,
        11,
        13,
        16
      ],
      "extras": {
        "Flags": 14,
        "ID": 24,
        "Parent ID": 21
      },
      "name": "C_Head2",
      "rotation": [
        -3.552714525833448e-15,
        8.437696681217084e-15,
        7.450582373280668e-09,
        1.0
      ],
      "scale": [
        0.9999998211860657,
        0.9999998211860657,
        0.9999998211860657
      ],
      "translation": [
        0.16998565196990967,
        2.288818308215923e-07,
        -1.818989362888275e-14
      ]
    },
    {
      "children": [
        9
      ],
      "extras": {
        "Flags": 14,
        "ID": 26,
        "Parent ID": 24
      },
      "name": "L_Mandible",
      "rotation": [
        -0.015415450558066368,
        0.1919274479150772,
        0.04880587011575699,
        0.9800735712051392
      ],
      "scale": [
        1.0000001192092896,
        1.0000001192092896,
        1.0000001192092896
      ],
      "translation": [
        0.14414718747138977,
        0.019697189331054688,
        -0.04784610494971275
      ]
    },
    {
      "children": [
        10
      ],
      "extras": {
        "Flags": 14,
        "ID": 29,
        "Parent ID": 26
      },
      "name": "L_Mandible2",
      "rotation": [
        0.09235501289367676,
        -0.2533210515975952,
        -0.3021950125694275,
        0.9143179059028625
      ],
      "scale": [
        1.0000001192092896,
        1.0000001192092896,
        1.0000001192092896
      ],
      "translation": [
        0.11470469832420349,
        7.629394360719743e-08,
        1.907348590179936e-08
      ]
    },
    {
      "extras": {
        "Flags": 14,
        "ID": 32,
        "Parent ID": 29
      },
      "name": "L_Mandible3",
      "rotation": [
        6.984919753705299e-09,
        -8.702046194741797e-09,
        -1.4901162970204496e-08,
        1.0
      ],
      "scale": [
        0.9999999403953552,
        0.9999999403953552,
        0.9999999403953552
      ],
      "translation": [
        0.09424708783626556,
        7.629394360719743e-08,
        -3.814697180359872e-08
      ]
    },
    {
      "children": [
        12
      ],
      "extras": {
        "Flags": 14,
        "ID": 34,
        "Parent ID": 24
      },
      "name": "L_Pedipalp",
      "rotation": [
        -0.03521672263741493,
        0.21509118378162384,
        -0.06854010373353958,
        0.9735490679740906
      ],
      "scale": [
        1.0,
        1.0,
        1.0
      ],
      "translation": [
        0.06222926825284958,
        -0.06335663050413132,
        -0.11975915729999542
      ]
    },
    {
      "extras": {
        "Flags": 14,
        "ID": 37,
        "Parent ID": 34
      },
      "name": "L_Pedipalp2",
      "rotation": [
        0.024979740381240845,
        -0.12884213030338287,
        0.008196373470127583,
        0.991316556930542
      ],
      "scale": [
        1.0,
        1.0,
        1.0
      ],
      "translation": [
        0.26715582609176636,
        -1.5258788721439487e-07,
        -2.384185648907078e-08
      ]
    },
    {
      "children": [
        14
      ],
      "extras": {
        "Flags": 14,
        "ID": 40,
        "Parent ID": 24
      },
      "name": "R_Mandible",
      "rotation": [
        -0.19192743301391602,
        -0.015415456146001816,
        0.9800735712051392,
        -0.048805903643369675
      ],
      "scale": [
        1.0,
        1.0,
        1.0
      ],
      "translation": [
        0.1441478282213211,
        0.01969749480485916,
        0.04784608632326126
      ]
    },
    {
      "children": [
        15
      ],
      "extras": {
        "Flags": 14,
        "ID": 43,
        "Parent ID": 40
      },
      "name": "R_Mandible2",
      "rotation": [
        0.09235500544309616,
        -0.25332111120224,
        -0.30219510197639465,
        0.9143178462982178
      ],
      "scale": [
        1.0000001192092896,
        1.0000001192092896,
        1.0000001192092896
      ],
      "translation": [
        -0.11470447480678558,
        3.8146970382513246e-07,
        1.0490417423625331e-07
      ]
    },
    {
      "extras": {
        "Flags": 14,
        "ID": 46,
        "Parent ID": 43
      },
      "name": "R_Mandible3",
      "rotation": [
        1.1874362826347351e-08,
        -6.402842700481415e-09,
        1.0378525296117491e-16,
        1.0
      ],
      "scale": [
        1.0,
        1.0,
        1.0
      ],
      "translation": [
        -0.09424667060375214,
        0.0,
        -5.7220457705398076e-08
      ]
    },
    {
      "children": [
        17
      ],
      "extras": {
        "Flags": 14,
        "ID": 48,
        "Parent ID": 24
      },
      "name": "R_Pedipalp",
      "rotation": [
        -0.215091273188591,
        -0.03521667420864105,
        0.9735490679740906,
        0.0685402899980545
      ],
      "scale": [
        0.9999998211860657,
        0.9999998211860657,
        0.9999998211860657
      ],
      "translation": [
        0.062228962779045105,
        -0.06335616856813431,
        0.11975899338722229
      ]
    },
    {
      "extras": {
        "Flags": 14,
        "ID": 51,
        "Parent ID": 48
      },
      "name": "R_Pedipalp2",
      "rotation": [
        0.024979738518595695,
        -0.12884211540222168,
        0.008196395821869373,
        0.991316556930542
      ],
      "scale": [
        1.0000001192092896,
        1.0000001192092896,
        1.0000001192092896
      ],
      "translation": [
        -0.26715555787086487,
        7.629394360719743e-08,
        -2.8610228852699038e-08
      ]
    },
    {
      "children": [
        19
      ],
      "extras": {
        "Flags": 14,
        "ID": 54,
        "Parent ID": 18
      },
      "name": "L_LegFrontBase",
      "rotation": [
        -0.027583260089159012,
        0.22234401106834412,
        -0.1410062313079834,
        0.9643233418464661
      ],
      "scale": [
        1.0,
        1.0,
        1.0
      ],
      "translation": [
        0.07781185954809189,
        -0.13396568596363068,
        -0.18179963529109955
      ]
    },
    {
      "children": [
        20
      ],
      "extras": {
        "Flags": 14,
        "ID": 57,
        "Parent ID": 54
      },
      "name": "L_LegFrontFont",
      "rotation": [
        -0.011545884422957897,
        -0.012242318131029606,
        0.5454627871513367,
        0.8379660844802856
      ],
      "scale": [
        1.0,
        1.0,
        1.0
      ],
      "translation": [
        0.5236091017723083,
        0.024056624621152878,
        -0.04621552303433418
      ]
    },
    {
      "children": [
        21
      ],
      "extras": {
        "Flags": 14,
        "ID": 60,
        "Parent ID": 57
      },
      "name": "L_LegFront2",
      "rotation": [
        0.012581934221088886,
        -0.00951474905014038,
        -0.6030951142311096,
        0.7975132465362549
      ],
      "scale": [
        1.0000001192092896,
        1.0000001192092896,
        1.0000001192092896
      ],
      "translation": [
        0.9506896734237671,
        -5.7220457705398076e-08,
        5.7220457705398076e-08
      ]
    },
    {
      "extras": {
        "Flags": 14,
        "ID": 63,
        "Parent ID": 60
      },
      "name": "L_LegFront3",
      "rotation": [
        -9.428235969721754e-09,
        1.1166738644874385e-08,
        -0.3284456431865692,
        0.9445228576660156
      ],
      "scale": [
        1.000000238418579,
        1.000000238418579,
        1.000000238418579
      ],
      "translation": [
        1.1158275604248047,
        1.5258788721439487e-07,
        -1.7166136956348055e-07
      ]
    },
    {
      "children": [
        23
      ],
      "extras": {
        "Flags": 14,
        "ID": 66,
        "Parent ID": 18
      },
      "name": "L_Clav",
      "rotation": [
        0.024912215769290924,
        0.002337339101359248,
        0.6939713954925537,
        0.7195676565170288
      ],
      "scale": [
        1.0,
        1.0,
        1.0
      ],
      "translation": [
        0.02795771136879921,
        0.14538811147212982,
        -0.131058469414711
      ]
    },
    {
      "children": [
        24
      ],
      "extras": {
        "Flags": 14,
        "ID": 69,
        "Parent ID": 66
      },
      "name": "L_ArmBase",
      "rotation": [
        0.01858516037464142,
        0.0323302187025547,
        0.04509847238659859,
        0.998286247253418
      ],
      "scale": [
        1.000000238418579,
        1.000000238418579,
        1.000000238418579
      ],
      "translation": [
        0.09770888835191727,
        -0.2992059886455536,
        -0.02615543268620968
      ]
    },
    {
      "children": [
        25
      ],
      "extras": {
        "Flags": 14,
        "ID": 72,
        "Parent ID": 69
      },
      "name": "L_Arm1",
      "rotation": [
        -0.02086440473794937,
        -0.017619917169213295,
        -0.28158193826675415,
        0.9591485261917114
      ],
      "scale": [
        0.9999997615814209,
        0.9999997615814209,
        0.9999997615814209
      ],
      "translation": [
        1.0845619440078735,
        7.629394360719743e-08,
        -3.814697180359872e-08
      ]
    },
    {
      "children": [
        26
      ],
      "extras": {
        "Flags": 14,
        "ID": 75,
        "Parent ID": 72
      },
      "name": "L_Arm2",
      "rotation": [
        0.0007877605385147035,
        0.0022474313154816628,
        0.09537611156702042,
        0.9954384565353394
      ],
      "scale": [
        0.9999997019767761,
        0.9999997019767761,
        0.9999997019767761
      ],
      "translation": [
        1.5266410112380981,
        -7.629394360719743e-08,
        0.0
      ]
    },
    {
      "children": [
        27
      ],
      "extras": {
        "Flags": 14,
        "ID": 78,
        "Parent ID": 75
      },
      "name": "L_ArmElbow",
      "rotation": [
        0.0013421500334516168,
        0.0017376032192260027,
        0.2575623691082001,
        0.9662591814994812
      ],
      "scale": [
        0.9999998211860657,
        0.9999998211860657,
        0.9999998211860657
      ],
      "translation": [
        0.14586517214775085,
        2.288818308215923e-07,
        8.583068478174027e-08
      ]
    },
    {
      "extras": {
        "Flags": 14,
        "ID": 81,
        "Parent ID": 78
      },
      "name": "L_Arm3",
      "rotation": [
        -1.5377903395119574e-09,
        1.1495581153653234e-09,
        -0.38660314679145813,
        0.9222461581230164
      ],
      "scale": [
        1.0000005960464478,
        1.0000005960464478,
        1.0000005960464478
      ],
      "translation": [
        3.3496203422546387,
        1.5258788721439487e-07,
        3.552713599391162e-17
      ]
    },
    {
      "children": [
        29
      ],
      "extras": {
        "Flags": 14,
        "ID": 84,
        "Parent ID": 18
      },
      "name": "R_Clav",
      "rotation": [
        0.002337345387786627,
        -0.024912219494581223,
        -0.7195677161216736,
        0.6939714550971985
      ],
      "scale": [
        1.0,
        1.0,
        1.0
      ],
      "translation": [
        0.027957715094089508,
        0.14538848400115967,
        0.1310579776763916
      ]
    },
    {
      "children": [
        30
      ],
      "extras": {
        "Flags": 14,
        "ID": 87,
        "Parent ID": 84
      },
      "name": "R_ArmBase",
      "rotation": [
        0.018585162237286568,
        0.0323302298784256,
        0.04509846866130829,
        0.998286247253418
      ],
      "scale": [
        1.0,
        1.0,
        1.0
      ],
      "translation": [
        -0.09770888835191727,
        0.2992056906223297,
        0.026155786588788033
      ]
    },
    {
      "children": [
        31
      ],
      "extras": {
        "Flags": 14,
        "ID": 90,
        "Parent ID": 87
      },
      "name": "R_Arm1",
      "rotation": [
        -0.020864399150013924,
        -0.017619917169213295,
        -0.28158193826675415,
        0.9591485261917114
      ],
      "scale": [
        1.0,
        1.0,
        1.0
      ],
      "translation": [
        -1.0845611095428467,
        -4.577636616431846e-07,
        5.626678216685832e-07
      ]
    },
    {
      "children": [
        32
      ],
      "extras": {
        "Flags": 14,
        "ID": 93,
        "Parent ID": 90
      },
      "name": "R_Arm2",
      "rotation": [
        0.0007877558819018304,
        0.002247428987175226,
        0.0953761488199234,
        0.9954384565353394
      ],
      "scale": [
        1.0000003576278687,
        1.0000003576278687,
        1.0000003576278687
      ],
      "translation": [
        -1.526643991470337,
        -1.5258788721439487e-07,
        -7.820129326319147e-07
      ]
    },
    {
      "children": [
        33
      ],
      "extras": {
        "Flags": 14,
        "ID": 96,
        "Parent ID": 93
      },
      "name": "R_ArmElbow",
      "rotation": [
        0.0013421494513750076,
        0.0017376015894114971,
        0.2575623393058777,
        0.9662591814994812
      ],
      "scale": [
        0.9999998211860657,
        0.9999998211860657,
        0.9999998211860657
      ],
      "translation": [
        -0.14586424827575684,
        2.670288040462765e-06,
        7.534026735811494e-07
      ]
    },
    {
      "extras": {
        "Flags": 14,
        "ID": 99,
        "Parent ID": 96
      },
      "name": "R_Arm3",
      "rotation": [
        1.6818118453443276e-08,
        -8.059946488003789e-09,
        -0.3866029679775238,
        0.9222462177276611
      ],
      "scale": [
        1.000000238418579,
        1.000000238418579,
        1.000000238418579
      ],
      "translation": [
        -3.349623441696167,
        -1.983642505365424e-06,
        -7.24792471373803e-07
      ]
    },
    {
      "children": [
        35
      ],
      "extras": {
        "Flags": 14,
        "ID": 102,
        "Parent ID": 18
      },
      "name": "R_LegFrontBase",
      "rotation": [
        -0.22234396636486053,
        -0.027583271265029907,
        0.9643234014511108,
        0.14100618660449982
      ],
      "scale": [
        0.9999998211860657,
        0.9999998211860657,
        0.9999998211860657
      ],
      "translation": [
        0.07781151682138443,
        -0.13396576046943665,
        0.1817999929189682
      ]
    },
    {
      "children": [
        36
      ],
      "extras": {
        "Flags": 14,
        "ID": 105,
        "Parent ID": 102
      },
      "name": "R_LegFrontFont",
      "rotation": [
        -0.011545885354280472,
        -0.012242317199707031,
        0.5454630255699158,
        0.8379659652709961
      ],
      "scale": [
        1.0000001192092896,
        1.0000001192092896,
        1.0000001192092896
      ],
      "translation": [
        -0.5236091017723083,
        -0.024056777358055115,
        0.04621506482362747
      ]
    },
    {
      "children": [
        37
      ],
      "extras": {
        "Flags": 14,
        "ID": 108,
        "Parent ID": 105
      },
      "name": "R_LegFront2",
      "rotation": [
        0.012581969611346722,
        -0.009514737874269485,
        -0.6030951142311096,
        0.7975132465362549
      ],
      "scale": [
        1.0000001192092896,
        1.0000001192092896,
        1.0000001192092896
      ],
      "translation": [
        -0.9506905674934387,
        5.7220457705398076e-08,
        3.2424927098873013e-07
      ]
    },
    {
      "extras": {
        "Flags": 14,
        "ID": 111,
        "Parent ID": 108
      },
      "name": "R_LegFront3",
      "rotation": [
        3.6145484383354187e-09,
        -5.201007180488659e-09,
        -0.3284456431865692,
        0.9445228576660156
      ],
      "scale": [
        1.0000004768371582,
        1.0000004768371582,
        1.0000004768371582
      ],
      "translation": [
        -1.1158301830291748,
        -9.155273232863692e-07,
        -1.1444091541079615e-07
      ]
    },
    {
      "extras": {
        "Flags": 14,
        "ID": 114,
        "Parent ID": 15
      },
      "name": "DirectAt",
      "rotation": [
        0.500727117061615,
        0.49927178025245667,
        0.500727117061615,
        -0.49927178025245667
      ],
      "scale": [
        1.0,
        1.0,
        1.0
      ],
      "translation": [
        -1.907348590179936e-08,
        0.0,
        6.776263426573109e-23
      ]
    },
    {
      "children": [
        40
      ],
      "extras": {
        "Flags": 14,
        "ID": 116,
        "Parent ID": 12
      },
      "name": "L_LegMidBase",
      "rotation": [
        -0.11085960268974304,
        0.6367014646530151,
        -0.1305518001317978,
        0.7518494725227356
      ],
      "scale": [
        0.9999998807907104,
        0.9999998807907104,
        0.9999998807907104
      ],
      "translation": [
        0.05615180730819702,
        -0.24410346150398254,
        -0.19973985850811005
      ]
    },
    {
      "children": [
        41
      ],
      "extras": {
        "Flags": 14,
        "ID": 119,
        "Parent ID": 116
      },
      "name": "L_LegMidFont",
      "rotation": [
        -0.011016794480383396,
        -0.03087456524372101,
        0.6217583417892456,
        0.7825227975845337
      ],
      "scale": [
        1.000000238418579,
        1.000000238418579,
        1.000000238418579
      ],
      "translation": [
        0.4951743185520172,
        -1.5258788721439487e-07,
        5.7220457705398076e-08
      ]
    },
    {
      "children": [
        42
      ],
      "extras": {
        "Flags": 14,
        "ID": 122,
        "Parent ID": 119
      },
      "name": "L_LegMid2",
      "rotation": [
        4.59060123247923e-09,
        1.0204860956264383e-08,
        -0.6601604223251343,
        0.7511246204376221
      ],
      "scale": [
        1.0000001192092896,
        1.0000001192092896,
        1.0000001192092896
      ],
      "translation": [
        0.5026304721832275,
        1.1444091541079615e-07,
        1.907348590179936e-08
      ]
    },
    {
      "extras": {
        "Flags": 14,
        "ID": 125,
        "Parent ID": 122
      },
      "name": "L_LegMid3",
      "rotation": [
        0.06724580377340317,
        -0.032220035791397095,
        -0.3265910744667053,
        0.9422197937965393
      ],
      "scale": [
        1.0,
        1.0,
        1.0
      ],
      "translation": [
        0.6509524583816528,
        7.629394360719743e-08,
        1.907348590179936e-08
      ]
    },
    {
      "children": [
        44
      ],
      "extras": {
        "Flags": 14,
        "ID": 128,
        "Parent ID": 12
      },
      "name": "R_LegMidBase",
      "rotation": [
        -0.6367014646530151,
        -0.11085934191942215,
        0.7518494725227356,
        0.13055197894573212
      ],
      "scale": [
        1.000000238418579,
        1.000000238418579,
        1.000000238418579
      ],
      "translation": [
        0.05615173280239105,
        -0.24410411715507507,
        0.19974000751972198
      ]
    },
    {
      "children": [
        45
      ],
      "extras": {
        "Flags": 14,
        "ID": 131,
        "Parent ID": 128
      },
      "name": "R_LegMidFont",
      "rotation": [
        -0.011016792617738247,
        -0.030874554067850113,
        0.6217583417892456,
        0.7825227975845337
      ],
      "scale": [
        1.0,
        1.0,
        1.0
      ],
      "translation": [
        -0.49517378211021423,
        -3.8146970382513246e-07,
        -1.1444091541079615e-07
      ]
    },
    {
      "children": [
        46
      ],
      "extras": {
        "Flags": 14,
        "ID": 134,
        "Parent ID": 131
      },
      "name": "R_LegMid2",
      "rotation": [
        3.825994521200471e-10,
        3.030602713227637e-10,
        -0.6601604223251343,
        0.7511246204376221
      ],
      "scale": [
        1.000000238418579,
        1.000000238418579,
        1.000000238418579
      ],
      "translation": [
        -0.502630889415741,
        -2.288818308215923e-07,
        9.536742595628311e-08
      ]
    },
    {
      "extras": {
        "Flags": 14,
        "ID": 137,
        "Parent ID": 134
      },
      "name": "R_LegMid3",
      "rotation": [
        0.06724579632282257,
        -0.0322200171649456,
        -0.32659104466438293,
        0.9422197937965393
      ],
      "scale": [
        0.9999997615814209,
        0.9999997615814209,
        0.9999997615814209
      ],
      "translation": [
        -0.6509509682655334,
        9.155273232863692e-07,
        -4.577636616431846e-07
      ]
    },
    {
      "children": [
        48,
        52,
        66
      ],
      "extras": {
        "Flags": 14,
        "ID": 140,
        "Parent ID": 5
      },
      "name": "C_Hips",
      "rotation": [
        0.4999992251396179,
        0.5000007152557373,
        0.4999992251396179,
        0.5000007748603821
      ],
      "scale": [
        1.0,
        1.0,
        1.0
      ],
      "translation": [
        -5.109366441047314e-08,
        -0.07416526973247528,
        -0.03516235202550888
      ]
    },
    {
      "children": [
        49
      ],
      "extras": {
        "Flags": 14,
        "ID": 143,
        "Parent ID": 140
      },
      "name": "L_LegBackBase",
      "rotation": [
        -0.03195055574178696,
        0.8942781686782837,
        -0.06367979198694229,
        0.44180387258529663
      ],
      "scale": [
        1.0,
        1.0,
        1.0
      ],
      "translation": [
        -0.08615767955780029,
        -0.22194713354110718,
        -0.14763519167900085
      ]
    },
    {
      "children": [
        50
      ],
      "extras": {
        "Flags": 14,
        "ID": 146,
        "Parent ID": 143
      },
      "name": "L_LegBackFont",
      "rotation": [
        0.009090447798371315,
        0.01807493530213833,
        0.45554786920547485,
        0.8899813294410706
      ],
      "scale": [
        1.0000001192092896,
        1.0000001192092896,
        1.0000001192092896
      ],
      "translation": [
        0.40417346358299255,
        7.629394360719743e-08,
        1.9073485191256623e-07
      ]
    },
    {
      "children": [
        51
      ],
      "extras": {
        "Flags": 14,
        "ID": 149,
        "Parent ID": 146
      },
      "name": "L_LegBack2",
      "rotation": [
        -0.002893890952691436,
        -0.03795672208070755,
        -0.6408700346946716,
        0.7667049765586853
      ],
      "scale": [
        1.0000001192092896,
        1.0000001192092896,
        1.0000001192092896
      ],
      "translation": [
        0.5268346071243286,
        -7.629394360719743e-08,
        1.1444091541079615e-07
      ]
    },
    {
      "extras": {
        "Flags": 14,
        "ID": 152,
        "Parent ID": 149
      },
      "name": "L_LegBack3",
      "rotation": [
        4.0608407235151364e-17,
        1.8630976677443977e-19,
        -0.33742767572402954,
        0.9413514733314514
      ],
      "scale": [
        1.000000238418579,
        1.000000238418579,
        1.000000238418579
      ],
      "translation": [
        0.7190342545509338,
        -2.8421708795129297e-16,
        -7.629394360719743e-08
      ]
    },
    {
      "children": [
        53
      ],
      "extras": {
        "Flags": 14,
        "ID": 155,
        "Parent ID": 140
      },
      "name": "C_Tail",
      "rotation": [
        0.48306265473365784,
        0.8755857944488525,
        1.7048286338194885e-07,
        9.405577117149733e-08
      ],
      "scale": [
        1.0,
        1.0,
        1.0
      ],
      "translation": [
        -0.02936473861336708,
        0.038213346153497696,
        0.0
      ]
    },
    {
      "children": [
        54
      ],
      "extras": {
        "Flags": 14,
        "ID": 158,
        "Parent ID": 155
      },
      "name": "C_Abdomen",
      "rotation": [
        2.856965898123502e-14,
        2.827299246772278e-14,
        -0.005218980368226767,
        0.9999863505363464
      ],
      "scale": [
        1.0,
        1.0,
        1.0
      ],
      "translation": [
        0.08017883449792862,
        -1.1444091541079615e-07,
        -1.818989362888275e-14
      ]
    },
    {
      "children": [
        55
      ],
      "extras": {
        "Flags": 14,
        "ID": 161,
        "Parent ID": 158
      },
      "name": "C_Abdomen2",
      "rotation": [
        -2.51134172729291e-15,
        3.4899929219353934e-14,
        -0.3395042419433594,
        0.9406045079231262
      ],
      "scale": [
        1.0,
        1.0,
        1.0
      ],
      "translation": [
        0.1719898134469986,
        0.0,
        -1.818989362888275e-14
      ]
    },
    {
      "children": [
        56
      ],
      "extras": {
        "Flags": 14,
        "ID": 164,
        "Parent ID": 161
      },
      "name": "C_Abdomen3",
      "rotation": [
        -3.5801605956101504e-14,
        4.277507913304744e-14,
        -0.1721966713666916,
        0.9850625991821289
      ],
      "scale": [
        1.0000003576278687,
        1.0000003576278687,
        1.0000003576278687
      ],
      "translation": [
        0.2929639518260956,
        -7.629394360719743e-08,
        -7.2759574515531e-14
      ]
    },
    {
      "children": [
        57
      ],
      "extras": {
        "Flags": 14,
        "ID": 167,
        "Parent ID": 164
      },
      "name": "C_Abdomen4",
      "rotation": [
        1.4192881523094215e-14,
        -7.144927256788548e-16,
        -0.0502779521048069,
        0.9987353086471558
      ],
      "scale": [
        0.9999999403953552,
        0.9999999403953552,
        0.9999999403953552
      ],
      "translation": [
        0.3126634955406189,
        0.0,
        0.0
      ]
    },
    {
      "children": [
        58
      ],
      "extras": {
        "Flags": 14,
        "ID": 170,
        "Parent ID": 167
      },
      "name": "C_Abdomen5",
      "rotation": [
        -1.4228940562691778e-14,
        5.240540434498745e-16,
        0.025602495297789574,
        0.9996721744537354
      ],
      "scale": [
        0.9999998807907104,
        0.9999998807907104,
        0.9999998807907104
      ],
      "translation": [
        0.33740249276161194,
        1.5258788721439487e-07,
        -3.3881317132865545e-23
      ]
    },
    {
      "children": [
        59
      ],
      "extras": {
        "Flags": 14,
        "ID": 173,
        "Parent ID": 170
      },
      "name": "C_Abdomen6",
      "rotation": [
        -2.1260842959076934e-17,
        -1.7762287256669783e-15,
        -0.011968797072768211,
        0.99992835521698
      ],
      "scale": [
        1.0000004768371582,
        1.0000004768371582,
        1.0000004768371582
      ],
      "translation": [
        0.3379260301589966,
        -1.5258788721439487e-07,
        -5.456968088664825e-14
      ]
    },
    {
      "children": [
        60
      ],
      "extras": {
        "Flags": 14,
        "ID": 176,
        "Parent ID": 173
      },
      "name": "C_Abdomen7",
      "rotation": [
        1.4216521365619135e-14,
        3.52995707988133e-15,
        -0.0016009749379009008,
        0.9999986886978149
      ],
      "scale": [
        1.000000238418579,
        1.000000238418579,
        1.000000238418579
      ],
      "translation": [
        0.2889198362827301,
        3.0517577442878974e-07,
        5.456968088664825e-14
      ]
    },
    {
      "children": [
        61
      ],
      "extras": {
        "Flags": 14,
        "ID": 179,
        "Parent ID": 176
      },
      "name": "C_Abdomen8",
      "rotation": [
        -1.4156791143277603e-14,
        -3.762339510169363e-15,
        0.014778569340705872,
        0.9998908042907715
      ],
      "scale": [
        1.0000004768371582,
        1.0000004768371582,
        1.0000004768371582
      ],
      "translation": [
        0.24448241293430328,
        7.629394360719743e-08,
        1.818989362888275e-14
      ]
    },
    {
      "children": [
        62
      ],
      "extras": {
        "Flags": 14,
        "ID": 182,
        "Parent ID": 179
      },
      "name": "C_Abdomen9",
      "rotation": [
        2.8412710552372378e-14,
        1.9146942603458228e-15,
        0.004868085961788893,
        0.9999881386756897
      ],
      "scale": [
        1.0000004768371582,
        1.0000004768371582,
        1.0000004768371582
      ],
      "translation": [
        0.22547653317451477,
        -7.629394360719743e-08,
        1.818989362888275e-14
      ]
    },
    {
      "children": [
        63
      ],
      "extras": {
        "Flags": 14,
        "ID": 185,
        "Parent ID": 182
      },
      "name": "C_Abdomen10",
      "rotation": [
        -2.843122330446757e-14,
        1.6170596940539889e-15,
        0.005603805184364319,
        0.9999842643737793
      ],
      "scale": [
        0.9999998807907104,
        0.9999998807907104,
        0.9999998807907104
      ],
      "translation": [
        0.19559966027736664,
        7.629394360719743e-08,
        -7.2759574515531e-14
      ]
    },
    {
      "children": [
        64
      ],
      "extras": {
        "Flags": 14,
        "ID": 188,
        "Parent ID": 185
      },
      "name": "C_Abdomen11",
      "rotation": [
        3.4364949628544654e-27,
        -1.6543576752319819e-24,
        0.0020772337447851896,
        0.9999978542327881
      ],
      "scale": [
        1.0,
        1.0,
        1.0
      ],
      "translation": [
        0.2018093764781952,
        1.4210854397564648e-16,
        1.818989362888275e-14
      ]
    },
    {
      "children": [
        65
      ],
      "extras": {
        "Flags": 14,
        "ID": 191,
        "Parent ID": 188
      },
      "name": "C_Abdomen12",
      "rotation": [
        1.6543612251060553e-23,
        8.881787373374805e-16,
        1.1175874448099421e-08,
        1.0
      ],
      "scale": [
        0.9999997615814209,
        0.9999997615814209,
        0.9999997615814209
      ],
      "translation": [
        0.20329497754573822,
        -0.0014655303675681353,
        0.0
      ]
    },
    {
      "extras": {
        "Flags": 14,
        "ID": 194,
        "Parent ID": 191
      },
      "name": "C_Abdomen13",
      "rotation": [
        -1.4210856409267898e-14,
        1.7763570511584873e-15,
        7.450582373280668e-09,
        1.0
      ],
      "scale": [
        0.9999998807907104,
        0.9999998807907104,
        0.9999998807907104
      ],
      "translation": [
        0.15890319645404816,
        1.5258788721439487e-07,
        0.0
      ]
    },
    {
      "children": [
        67
      ],
      "extras": {
        "Flags": 14,
        "ID": 197,
        "Parent ID": 140
      },
      "name": "R_LegBackBase",
      "rotation": [
        0.8942781090736389,
        0.03195052966475487,
        -0.44180387258529663,
        -0.06367979943752289
      ],
      "scale": [
        1.0,
        1.0,
        1.0
      ],
      "translation": [
        -0.08615722507238388,
        -0.22194716334342957,
        0.14763495326042175
      ]
    },
    {
      "children": [
        68
      ],
      "extras": {
        "Flags": 14,
        "ID": 200,
        "Parent ID": 197
      },
      "name": "R_LegBackFont",
      "rotation": [
        0.009090391919016838,
        0.018074821680784225,
        0.4555477797985077,
        0.8899813890457153
      ],
      "scale": [
        1.0000003576278687,
        1.0000003576278687,
        1.0000003576278687
      ],
      "translation": [
        -0.40417400002479553,
        3.0517577442878974e-07,
        1.1444091541079615e-07
      ]
    },
    {
      "children": [
        69
      ],
      "extras": {
        "Flags": 14,
        "ID": 203,
        "Parent ID": 200
      },
      "name": "R_LegBack2",
      "rotation": [
        -0.0028939347248524427,
        -0.03795676305890083,
        -0.6408700346946716,
        0.7667049765586853
      ],
      "scale": [
        0.9999996423721313,
        0.9999996423721313,
        0.9999996423721313
      ],
      "translation": [
        -0.526836097240448,
        1.8692015828492003e-06,
        3.814697265625e-06
      ]
    },
    {
      "extras": {
        "Flags": 14,
        "ID": 206,
        "Parent ID": 203
      },
      "name": "R_LegBack3",
      "rotation": [
        3.65572319083185e-08,
        -2.4976106516305663e-08,
        -0.33742767572402954,
        0.9413514733314514
      ],
      "scale": [
        0.9999998807907104,
        0.9999998807907104,
        0.9999998807907104
      ],
      "translation": [
        -0.7190298438072205,
        2.7465819130156888e-06,
        5.340576194612368e-07
      ]
    },
    {
      "extras": {
        "Flags": 526,
        "Has GPU LODs": false,
        "ID": 216,
        "Material Path": "Materials\\Actors\\HexapodA\\HexapodA_CoralCrab\\HexapodA_CoralCrab_A.mat",
        "NiIntegerExtraData:MaterialID": -604568545,
        "Parent ID": 3
      },
      "mesh": 0,
      "name": "HexapodA_CoralCrab:0",
      "rotation": [
        0.0,
        0.0,
        0.0,
        1.0
      ],
      "scale": [
        1.0,
        1.0,
        1.0
      ],
      "skin": 0,
      "translation": [
        0.0,
        1.8119811784345075e-07,
        0.0
      ]
    },
    {
      "extras": {
        "Flags": 526,
        "Has GPU LODs": false,
        "ID": 222,
        "Material Path": "Materials\\Actors\\HexapodA\\HexapodA_CoralCrab\\HexapodA_CoralCrab_B.mat",
        "NiIntegerExtraData:MaterialID": -1671987505,
        "Parent ID": 3
      },
      "mesh": 1,
      "name": "HexapodA_CoralCrab:1",
      "rotation": [
        0.0,
        0.0,
        0.0,
        1.0
      ],
      "scale": [
        1.0,
        1.0,
        1.0
      ],
      "skin": 1,
      "translation": [
        0.0,
        1.8119811784345075e-07,
        0.0
      ]
    }
  ],
  "scenes": [
    {
      "name": "ExportScene",
      "nodes": [
        0
      ]
    }
  ],
  "skins": [
    {
      "inverseBindMatrices": 0,
      "joints": [
        5,
        20,
        21,
        19,
        18,
        4,
        3,
        24,
        25,
        26,
        27,
        47,
        66,
        68,
        67,
        69,
        43,
        2,
        45,
        46,
        44,
        48,
        39,
        34,
        22,
        23,
        29,
        28,
        30,
        31,
        32,
        50,
        49,
        51,
        36,
        37,
        35,
        33,
        41,
        40,
        42
      ],
      "skeleton": 1
    },
    {
      "inverseBindMatrices": 1,
      "joints": [
        5,
        18,
        4,
        3,
        47,
        66,
        54,
        43,
        2,
        55,
        56,
        53,
        57,
        58,
        59,
        48,
        52,
        39,
        34,
        22,
        23,
        29,
        28
      ],
      "skeleton": 1
    }
  ]
}
