{
  "accessors": [
    {
      "bufferView": 0,
      "componentType": 5126,
      "count": 52,
      "type": "MAT4"
    },
    {
      "bufferView": 1,
      "componentType": 5126,
      "count": 21521,
      "max": [
        0.9504684805870056,
        1.2130497694015503,
        3.849360704421997
      ],
      "min": [
        -0.9504684805870056,
        -2.9543137550354004,
        0.0
      ],
      "type": "VEC3"
    },
    {
      "bufferView": 2,
      "componentType": 5126,
      "count": 21521,
      "type": "VEC3"
    },
    {
      "bufferView": 3,
      "componentType": 5126,
      "count": 21521,
      "type": "VEC4"
    },
    {
      "bufferView": 4,
      "componentType": 5126,
      "count": 21521,
      "type": "VEC2"
    },
    {
      "bufferView": 5,
      "componentType": 5126,
      "count": 21521,
      "type": "VEC4"
    },
    {
      "bufferView": 6,
      "componentType": 5126,
      "count": 21521,
      "type": "VEC4"
    },
    {
      "bufferView": 7,
      "componentType": 5123,
      "count": 21521,
      "type": "VEC4"
    },
    {
      "bufferView": 8,
      "componentType": 5123,
      "count": 21521,
      "type": "VEC4"
    },
    {
      "bufferView": 9,
      "componentType": 5123,
      "count": 105000,
      "type": "SCALAR"
    }
  ],
  "asset": {
    "generator": "NifSkope glTF 2.0 Exporter v1.2",
    "version": "2.0"
  },
  "bufferViews": [
    {
      "buffer": 0,
      "byteLength": 3328
    },
    {
      "buffer": 0,
      "byteLength": 258252,
      "byteOffset": 3328,
      "target": 34962
    },
    {
      "buffer": 0,
      "byteLength": 258252,
      "byteOffset": 261580,
      "target": 34962
    },
    {
      "buffer": 0,
      "byteLength": 344336,
      "byteOffset": 519832,
      "target": 34962
    },
    {
      "buffer": 0,
      "byteLength": 172168,
      "byteOffset": 864168,
      "target": 34962
    },
    {
      "buffer": 0,
      "byteLength": 344336,
      "byteOffset": 1036336,
      "target": 34962
    },
    {
      "buffer": 0,
      "byteLength": 344336,
      "byteOffset": 1380672,
      "target": 34962
    },
    {
      "buffer": 0,
      "byteLength": 172168,
      "byteOffset": 1725008,
      "target": 34962
    },
    {
      "buffer": 0,
      "byteLength": 172168,
      "byteOffset": 1897176,
      "target": 34962
    },
    {
      "buffer": 0,
      "byteLength": 210000,
      "byteOffset": 2069344,
      "target": 34963
    }
  ],
  "buffers": [
    {
      "byteLength": 2279344,
      "name": "Crockroach.bin",
      "uri": "Crockroach.bin"
    }
  ],
  "materials": [
    {
      "extras": {
        "Material Path": "Default"
      },
      "name": "Default"
    },
    {
      "extras": {
        "Material Path": "materials/actors/mantida/mantida_cockroach/mantida_cockroach.mat"
      },
      "name": "Materials/Actors/Mantida/Mantida_Cockroach/Mantida_Cockroach"
    }
  ],
  "meshes": [
    {
      "name": "MantidA_Cockroach:0",
      "primitives": [
        {
          "attributes": {
            "JOINTS_0": 7,
            "JOINTS_1": 8,
            "NORMAL": 2,
            "POSITION": 1,
            "TANGENT": 3,
            "TEXCOORD_0": 4,
            "WEIGHTS_0": 5,
            "WEIGHTS_1": 6
          },
          "indices": 9,
          "material": 1,
          "mode": 4
        }
      ]
    }
  ],
  "nodes": [
    {
      "children": [
        1,
        74
      ],
      "extras": {
        "Flags": 14,
        "ID": 3,
        "Parent ID": 0
      },
      "name": "Root",
      "rotation": [
        -0.7071067690849304,
        0.0,
        0.0,
        0.7071067690849304
      ],
      "scale": [
        1.0,
        1.0,
        1.0
      ],
      "translation": [
        0.0,
        0.0,
        -0.0
      ]
    },
    {
      "children": [
        2,
        54
      ],
      "extras": {
        "Flags": 14,
        "ID": 5,
        "Parent ID": 3
      },
      "name": "COM",
      "rotation": [
        0.002352148061618209,
        -2.3897874257272633e-07,
        -2.3785715086432901e-07,
        0.9999971985816956
      ],
      "scale": [
        1.0,
        1.0,
        1.0
      ],
      "translation": [
        -1.7690699394279363e-07,
        -0.5582839250564575,
        1.297879934310913
      ]
    },
    {
      "children": [
        3
      ],
      "extras": {
        "Flags": 14,
        "ID": 9,
        "Parent ID": 5
      },
      "name": "C_Spine",
      "rotation": [
        -0.425644189119339,
        -0.564644992351532,
        0.4256451725959778,
        0.5646495819091797
      ],
      "scale": [
        1.0,
        1.0,
        1.0
      ],
      "translation": [
        4.2357547158644593e-07,
        0.019520414993166924,
        0.0040582274086773396
      ]
    },
    {
      "children": [
        4
      ],
      "extras": {
        "Flags": 14,
        "ID": 12,
        "Parent ID": 9
      },
      "name": "C_Spine1",
      "rotation": [
        -1.650768354011234e-05,
        3.1331574064097367e-06,
        -0.0714220404624939,
        0.9974461793899536
      ],
      "scale": [
        0.9999989867210388,
        0.9999989867210388,
        0.9999989867210388
      ],
      "translation": [
        0.1757453829050064,
        -1.8310546465727384e-06,
        -1.2344537481112638e-06
      ]
    },
    {
      "children": [
        5,
        33,
        37,
        40,
        44,
        47,
        50,
        53
      ],
      "extras": {
        "Flags": 14,
        "ID": 15,
        "Parent ID": 12
      },
      "name": "C_Spine2",
      "rotation": [
        5.726275958295446e-06,
        -8.417081517109182e-06,
        -0.08996086567640305,
        0.9959452748298645
      ],
      "scale": [
        1.0,
        1.0,
        1.0
      ],
      "translation": [
        0.18341952562332153,
        1.678466787780053e-06,
        2.814317099364416e-07
      ]
    },
    {
      "children": [
        6,
        23,
        28
      ],
      "extras": {
        "Flags": 14,
        "ID": 18,
        "Parent ID": 15
      },
      "name": "C_Spine3",
      "rotation": [
        3.020221811311785e-05,
        2.2548131255462067e-06,
        -0.049174726009368896,
        0.9987902045249939
      ],
      "scale": [
        1.0000020265579224,
        1.0000020265579224,
        1.0000020265579224
      ],
      "translation": [
        0.18058715760707855,
        -3.0517577442878974e-07,
        9.262910793950141e-07
      ]
    },
    {
      "children": [
        7
      ],
      "extras": {
        "Flags": 14,
        "ID": 21,
        "Parent ID": 18
      },
      "name": "C_Neck1",
      "rotation": [
        5.237626101006754e-05,
        -1.1581577382457908e-05,
        -0.19851377606391907,
        0.9800980687141418
      ],
      "scale": [
        0.9999989867210388,
        0.9999989867210388,
        0.9999989867210388
      ],
      "translation": [
        0.13879059255123138,
        7.095336968632182e-06,
        -7.1735071287548635e-06
      ]
    },
    {
      "children": [
        8
      ],
      "extras": {
        "Flags": 14,
        "ID": 24,
        "Parent ID": 21
      },
      "name": "C_Neck2",
      "rotation": [
        -5.708960088668391e-06,
        3.8805040958322934e-07,
        -0.06235390529036522,
        0.9980540871620178
      ],
      "scale": [
        1.0000009536743164,
        1.0000009536743164,
        1.0000009536743164
      ],
      "translation": [
        0.24758483469486237,
        -5.416869953478454e-06,
        1.9725878246390494e-06
      ]
    },
    {
      "children": [
        9
      ],
      "extras": {
        "Flags": 14,
        "ID": 27,
        "Parent ID": 24
      },
      "name": "C_Neck3",
      "rotation": [
        -3.3369744869560236e-06,
        6.8635999923571944e-06,
        -0.00012803051504306495,
        1.0
      ],
      "scale": [
        1.0000020265579224,
        1.0000020265579224,
        1.0000020265579224
      ],
      "translation": [
        0.31517013907432556,
        9.74655122263357e-05,
        4.068184352945536e-06
      ]
    },
    {
      "children": [
        10,
        11,
        17
      ],
      "extras": {
        "Flags": 14,
        "ID": 30,
        "Parent ID": 27
      },
      "name": "C_Head1",
      "rotation": [
        -1.0603325790725648e-05,
        -1.9214674466638826e-05,
        0.6953057646751404,
        0.7187140583992004
      ],
      "scale": [
        0.9999989867210388,
        0.9999989867210388,
        0.9999989867210388
      ],
      "translation": [
        0.17385558784008026,
        -9.147643868345767e-05,
        5.485992915055249e-06
      ]
    },
    {
      "extras": {
        "Flags": 14,
        "ID": 33,
        "Parent ID": 30
      },
      "name": "C_Jaw",
      "rotation": [
        2.4933462555054575e-05,
        6.622736691497266e-05,
        0.2033642679452896,
        0.979103147983551
      ],
      "scale": [
        1.0000020265579224,
        1.0000020265579224,
        1.0000020265579224
      ],
      "translation": [
        0.16791874170303345,
        0.0648287981748581,
        -3.645816832431592e-05
      ]
    },
    {
      "children": [
        12
      ],
      "extras": {
        "Flags": 14,
        "ID": 36,
        "Parent ID": 30
      },
      "name": "R_Antenna",
      "rotation": [
        -0.48089784383773804,
        0.8653329610824585,
        0.09495281428098679,
        0.10449898988008499
      ],
      "scale": [
        1.0000009536743164,
        1.0000009536743164,
        1.0000009536743164
      ],
      "translation": [
        0.09381591528654099,
        -0.2704649269580841,
        -0.1025085598230362
      ]
    },
    {
      "children": [
        13
      ],
      "extras": {
        "Flags": 14,
        "ID": 39,
        "Parent ID": 36
      },
      "name": "R_Antenna2",
      "rotation": [
        -9.103694173973054e-05,
        0.009381725452840328,
        0.016538411378860474,
        0.9998192191123962
      ],
      "scale": [
        0.9999979734420776,
        0.9999979734420776,
        0.9999979734420776
      ],
      "translation": [
        0.364044189453125,
        -2.822876012942288e-06,
        -3.0517576306010596e-06
      ]
    },
    {
      "children": [
        14
      ],
      "extras": {
        "Flags": 14,
        "ID": 42,
        "Parent ID": 39
      },
      "name": "R_Antenna3",
      "rotation": [
        -1.2011098533548648e-06,
        9.045682531905186e-07,
        0.00990225002169609,
        0.9999509453773499
      ],
      "scale": [
        1.0000040531158447,
        1.0000040531158447,
        1.0000040531158447
      ],
      "translation": [
        0.2781289517879486,
        2.5177000679832418e-06,
        2.7465819130156888e-06
      ]
    },
    {
      "children": [
        15
      ],
      "extras": {
        "Flags": 14,
        "ID": 45,
        "Parent ID": 42
      },
      "name": "R_Antenna4",
      "rotation": [
        2.5561716938682366e-06,
        -4.6860532165737823e-07,
        0.009057808667421341,
        0.9999589920043945
      ],
      "scale": [
        0.9999979734420776,
        0.9999979734420776,
        0.9999979734420776
      ],
      "translation": [
        0.26816099882125854,
        7.629394076502649e-07,
        1.9073485191256623e-07
      ]
    },
    {
      "children": [
        16
      ],
      "extras": {
        "Flags": 14,
        "ID": 48,
        "Parent ID": 45
      },
      "name": "R_Antenna5",
      "rotation": [
        2.102298822137527e-06,
        -2.8757717700500507e-06,
        -0.0034608810674399137,
        0.9999939799308777
      ],
      "scale": [
        0.9999979734420776,
        0.9999979734420776,
        0.9999979734420776
      ],
      "translation": [
        0.16247253119945526,
        -3.0517576306010596e-06,
        -1.5640258652638295e-06
      ]
    },
    {
      "extras": {
        "Flags": 14,
        "ID": 51,
        "Parent ID": 48
      },
      "name": "R_Antenna6",
      "rotation": [
        3.7085811754877795e-07,
        6.653409627688234e-07,
        -0.014230002649128437,
        0.9998987317085266
      ],
      "scale": [
        1.0000020265579224,
        1.0000020265579224,
        1.0000020265579224
      ],
      "translation": [
        0.15525054931640625,
        7.629394076502649e-07,
        2.899169885495212e-06
      ]
    },
    {
      "children": [
        18
      ],
      "extras": {
        "Flags": 14,
        "ID": 54,
        "Parent ID": 30
      },
      "name": "L_Antenna",
      "rotation": [
        0.10462330281734467,
        0.09488732367753983,
        0.8653191924095154,
        -0.48090851306915283
      ],
      "scale": [
        1.0000029802322388,
        1.0000029802322388,
        1.0000029802322388
      ],
      "translation": [
        0.09384387731552124,
        -0.27046340703964233,
        0.10251128673553467
      ]
    },
    {
      "children": [
        19
      ],
      "extras": {
        "Flags": 14,
        "ID": 57,
        "Parent ID": 54
      },
      "name": "L_Antenna2",
      "rotation": [
        9.03284817468375e-05,
        0.009381461888551712,
        -0.016538439318537712,
        0.9998192191123962
      ],
      "scale": [
        1.0,
        1.0,
        1.0
      ],
      "translation": [
        0.3640446364879608,
        3.5095213206659537e-06,
        -1.4877318790240679e-06
      ]
    },
    {
      "children": [
        20
      ],
      "extras": {
        "Flags": 14,
        "ID": 60,
        "Parent ID": 57
      },
      "name": "L_Antenna3",
      "rotation": [
        1.2059064147251775e-06,
        1.3888303556086612e-06,
        -0.009902792051434517,
        0.9999509453773499
      ],
      "scale": [
        1.0000040531158447,
        1.0000040531158447,
        1.0000040531158447
      ],
      "translation": [
        0.2781292796134949,
        -1.678466787780053e-06,
        1.3732909565078444e-06
      ]
    },
    {
      "children": [
        21
      ],
      "extras": {
        "Flags": 14,
        "ID": 63,
        "Parent ID": 60
      },
      "name": "L_Antenna4",
      "rotation": [
        -2.867908733605873e-06,
        -1.1587151220737724e-06,
        -0.009058339521288872,
        0.9999589920043945
      ],
      "scale": [
        0.9999970197677612,
        0.9999970197677612,
        0.9999970197677612
      ],
      "translation": [
        0.26816099882125854,
        5.340576194612368e-07,
        1.9073486328125e-06
      ]
    },
    {
      "children": [
        22
      ],
      "extras": {
        "Flags": 14,
        "ID": 66,
        "Parent ID": 63
      },
      "name": "L_Antenna5",
      "rotation": [
        -2.843231868610019e-06,
        -4.070432169100968e-06,
        0.0034592854790389538,
        0.9999939799308777
      ],
      "scale": [
        0.9999989867210388,
        0.9999989867210388,
        0.9999989867210388
      ],
      "translation": [
        0.16247282922267914,
        3.204345603080583e-06,
        -2.0217894416418858e-06
      ]
    },
    {
      "extras": {
        "Flags": 14,
        "ID": 69,
        "Parent ID": 66
      },
      "name": "L_Antenna6",
      "rotation": [
        -7.234804115796578e-07,
        4.931401420549264e-08,
        0.014230641536414623,
        0.9998987317085266
      ],
      "scale": [
        1.0000009536743164,
        1.0000009536743164,
        1.0000009536743164
      ],
      "translation": [
        0.15525023639202118,
        -1.449584942747606e-06,
        2.822876012942288e-06
      ]
    },
    {
      "children": [
        24
      ],
      "extras": {
        "Flags": 14,
        "ID": 72,
        "Parent ID": 18
      },
      "name": "R_Clavicle",
      "rotation": [
        0.41293638944625854,
        0.632826030254364,
        -0.2051917314529419,
        0.6220217943191528
      ],
      "scale": [
        1.0000059604644775,
        1.0000059604644775,
        1.0000059604644775
      ],
      "translation": [
        0.16041046380996704,
        0.037445068359375,
        -0.08007965236902237
      ]
    },
    {
      "children": [
        25,
        27
      ],
      "extras": {
        "Flags": 14,
        "ID": 75,
        "Parent ID": 72
      },
      "name": "R_Biceps",
      "rotation": [
        0.32596009969711304,
        0.5530011057853699,
        0.11481768637895584,
        0.7581270933151245
      ],
      "scale": [
        1.0000009536743164,
        1.0000009536743164,
        1.0000009536743164
      ],
      "translation": [
        0.2127753645181656,
        -2.0599363779183477e-06,
        1.9226074073230848e-05
      ]
    },
    {
      "children": [
        26
      ],
      "extras": {
        "Flags": 14,
        "ID": 78,
        "Parent ID": 75
      },
      "name": "R_Forarm",
      "rotation": [
        3.468102249826188e-06,
        3.1161848710326012e-06,
        0.8644505143165588,
        0.502717912197113
      ],
      "scale": [
        1.0000020265579224,
        1.0000020265579224,
        1.0000020265579224
      ],
      "translation": [
        0.6339016556739807,
        1.5258788721439487e-07,
        2.670288097306184e-07
      ]
    },
    {
      "extras": {
        "Flags": 14,
        "ID": 81,
        "Parent ID": 78
      },
      "name": "R_Wrist",
      "rotation": [
        0.009809194132685661,
        0.005957281682640314,
        0.9254472851753235,
        -0.3787025809288025
      ],
      "scale": [
        1.0000029802322388,
        1.0000029802322388,
        1.0000029802322388
      ],
      "translation": [
        0.8710973858833313,
        1.3732909565078444e-06,
        -5.149840944795869e-07
      ]
    },
    {
      "extras": {
        "Flags": 14,
        "ID": 84,
        "Parent ID": 75
      },
      "name": "R_BicepTwist",
      "rotation": [
        5.964195679553086e-06,
        2.7446119474916486e-06,
        1.9371295820747036e-06,
        1.0
      ],
      "scale": [
        1.0000029802322388,
        1.0000029802322388,
        1.0000029802322388
      ],
      "translation": [
        0.0,
        0.0,
        0.0
      ]
    },
    {
      "children": [
        29
      ],
      "extras": {
        "Flags": 14,
        "ID": 86,
        "Parent ID": 18
      },
      "name": "L_Clavicle",
      "rotation": [
        0.6220071911811829,
        -0.20516152679920197,
        0.6328321099281311,
        0.4129640758037567
      ],
      "scale": [
        1.0000059604644775,
        1.0000059604644775,
        1.0000059604644775
      ],
      "translation": [
        0.16041114926338196,
        0.0374518558382988,
        0.08007581532001495
      ]
    },
    {
      "children": [
        30,
        32
      ],
      "extras": {
        "Flags": 14,
        "ID": 89,
        "Parent ID": 86
      },
      "name": "L_Biceps",
      "rotation": [
        -0.32595714926719666,
        0.5530019402503967,
        -0.11481788009405136,
        0.758127748966217
      ],
      "scale": [
        1.0,
        1.0,
        1.0
      ],
      "translation": [
        0.21277539432048798,
        1.716613724056515e-06,
        1.9989012798760086e-05
      ]
    },
    {
      "children": [
        31
      ],
      "extras": {
        "Flags": 14,
        "ID": 92,
        "Parent ID": 89
      },
      "name": "L_Forarm",
      "rotation": [
        -3.3389412692486076e-06,
        3.846324034384452e-06,
        -0.8644511699676514,
        0.5027167797088623
      ],
      "scale": [
        1.0000029802322388,
        1.0000029802322388,
        1.0000029802322388
      ],
      "translation": [
        0.6339012384414673,
        -3.0517577442878974e-07,
        5.149840944795869e-07
      ]
    },
    {
      "extras": {
        "Flags": 14,
        "ID": 95,
        "Parent ID": 92
      },
      "name": "L_Wrist",
      "rotation": [
        0.009809881448745728,
        -0.005958098918199539,
        0.9254473447799683,
        0.37870240211486816
      ],
      "scale": [
        1.0000020265579224,
        1.0000020265579224,
        1.0000020265579224
      ],
      "translation": [
        0.8710973858833313,
        -3.8146970382513246e-07,
        -1.0108947208209429e-06
      ]
    },
    {
      "extras": {
        "Flags": 14,
        "ID": 98,
        "Parent ID": 89
      },
      "name": "L_BicepTwist",
      "rotation": [
        -7.149761586333625e-06,
        1.8142400222131982e-06,
        -3.7848747069801902e-06,
        1.0
      ],
      "scale": [
        1.0000020265579224,
        1.0000020265579224,
        1.0000020265579224
      ],
      "translation": [
        0.0,
        0.0,
        0.0
      ]
    },
    {
      "children": [
        34
      ],
      "extras": {
        "Flags": 14,
        "ID": 100,
        "Parent ID": 15
      },
      "name": "R_FrontLeg1",
      "rotation": [
        0.6003447771072388,
        0.7471798658370972,
        -0.2737736701965332,
        -0.07972665131092072
      ],
      "scale": [
        1.0000029802322388,
        1.0000029802322388,
        1.0000029802322388
      ],
      "translation": [
        -0.0012871550861746073,
        0.20695441961288452,
        -0.4081583619117737
      ]
    },
    {
      "children": [
        35
      ],
      "extras": {
        "Flags": 14,
        "ID": 103,
        "Parent ID": 100
      },
      "name": "R_FrontLeg2",
      "rotation": [
        -0.0012747283326461911,
        -0.002636078977957368,
        0.5563390851020813,
        0.8309502005577087
      ],
      "scale": [
        1.0000020265579224,
        1.0000020265579224,
        1.0000020265579224
      ],
      "translation": [
        0.4695643484592438,
        -6.866454782539222e-07,
        3.318786639283644e-06
      ]
    },
    {
      "children": [
        36
      ],
      "extras": {
        "Flags": 14,
        "ID": 106,
        "Parent ID": 103
      },
      "name": "R_FrontLeg3",
      "rotation": [
        0.004576332867145538,
        0.0017049341695383191,
        -0.5206499099731445,
        0.853756308555603
      ],
      "scale": [
        1.0,
        1.0,
        1.0
      ],
      "translation": [
        0.5133470892906189,
        -5.0354001359664835e-06,
        -3.43322744811303e-06
      ]
    },
    {
      "extras": {
        "Flags": 14,
        "ID": 109,
        "Parent ID": 106
      },
      "name": "R_FrontLeg4",
      "rotation": [
        -1.978791260626167e-05,
        6.4819046201591846e-06,
        -0.23589010536670685,
        0.9717797040939331
      ],
      "scale": [
        1.0,
        1.0,
        1.0
      ],
      "translation": [
        0.43291744589805603,
        6.713867151120212e-06,
        -7.24792471373803e-07
      ]
    },
    {
      "children": [
        38
      ],
      "extras": {
        "Flags": 14,
        "ID": 112,
        "Parent ID": 15
      },
      "name": "R_Wing",
      "rotation": [
        -0.2895408272743225,
        0.9244880676269531,
        0.0740550234913826,
        0.23665107786655426
      ],
      "scale": [
        1.0000009536743164,
        1.0000009536743164,
        1.0000009536743164
      ],
      "translation": [
        0.29094716906547546,
        -0.16606947779655457,
        -0.27134376764297485
      ]
    },
    {
      "children": [
        39
      ],
      "extras": {
        "Flags": 14,
        "ID": 115,
        "Parent ID": 112
      },
      "name": "R_Wing1",
      "rotation": [
        -9.54966026256443e-07,
        -1.1875455356857856e-06,
        -0.0010828968370333314,
        0.9999994039535522
      ],
      "scale": [
        1.0000020265579224,
        1.0000020265579224,
        1.0000020265579224
      ],
      "translation": [
        0.5725011825561523,
        -4.5776364459015895e-06,
        -1.201629629576928e-06
      ]
    },
    {
      "extras": {
        "Flags": 14,
        "ID": 118,
        "Parent ID": 115
      },
      "name": "R_Wing2",
      "rotation": [
        1.2512048215285176e-06,
        3.058608854189515e-06,
        -0.0036618635058403015,
        0.9999932646751404
      ],
      "scale": [
        1.0000040531158447,
        1.0000040531158447,
        1.0000040531158447
      ],
      "translation": [
        0.4636248052120209,
        -1.1596679541980848e-05,
        -2.288818308215923e-07
      ]
    },
    {
      "children": [
        41
      ],
      "extras": {
        "Flags": 14,
        "ID": 121,
        "Parent ID": 15
      },
      "name": "L_FrontLeg1",
      "rotation": [
        -0.07970624417066574,
        -0.2737800180912018,
        0.747176468372345,
        0.6003488302230835
      ],
      "scale": [
        1.0000009536743164,
        1.0000009536743164,
        1.0000009536743164
      ],
      "translation": [
        -0.001277389470487833,
        0.20693938434123993,
        0.40817248821258545
      ]
    },
    {
      "children": [
        42
      ],
      "extras": {
        "Flags": 14,
        "ID": 124,
        "Parent ID": 121
      },
      "name": "L_FrontLeg2",
      "rotation": [
        0.0013801638269796968,
        -0.0027804605197161436,
        -0.556340754032135,
        0.8309484720230103
      ],
      "scale": [
        1.0000020265579224,
        1.0000020265579224,
        1.0000020265579224
      ],
      "translation": [
        0.46956321597099304,
        1.9073485191256623e-07,
        3.128051730527659e-06
      ]
    },
    {
      "children": [
        43
      ],
      "extras": {
        "Flags": 14,
        "ID": 127,
        "Parent ID": 124
      },
      "name": "L_FrontLeg3",
      "rotation": [
        -0.004576502367854118,
        0.0017050745664164424,
        0.5206497311592102,
        0.8537564277648926
      ],
      "scale": [
        1.0000009536743164,
        1.0000009536743164,
        1.0000009536743164
      ],
      "translation": [
        0.513347327709198,
        5.874633643543348e-06,
        -2.9754637580481358e-06
      ]
    },
    {
      "extras": {
        "Flags": 14,
        "ID": 130,
        "Parent ID": 127
      },
      "name": "L_FrontLeg4",
      "rotation": [
        1.9436899947322672e-06,
        1.8858819430533913e-06,
        0.23588994145393372,
        0.9717797636985779
      ],
      "scale": [
        1.0000009536743164,
        1.0000009536743164,
        1.0000009536743164
      ],
      "translation": [
        0.4329184591770172,
        -5.9509275160962716e-06,
        6.484985419774603e-07
      ]
    },
    {
      "children": [
        45
      ],
      "extras": {
        "Flags": 14,
        "ID": 133,
        "Parent ID": 15
      },
      "name": "L_Wing",
      "rotation": [
        0.23665682971477509,
        0.07403473556041718,
        0.9244866967201233,
        -0.2895457148551941
      ],
      "scale": [
        1.0,
        1.0,
        1.0
      ],
      "translation": [
        0.290953665971756,
        -0.1660791039466858,
        0.2713378965854645
      ]
    },
    {
      "children": [
        46
      ],
      "extras": {
        "Flags": 14,
        "ID": 136,
        "Parent ID": 133
      },
      "name": "L_Wing1",
      "rotation": [
        3.5772958995039517e-07,
        -1.4118625131231965e-06,
        0.001083043753169477,
        0.9999994039535522
      ],
      "scale": [
        1.0000029802322388,
        1.0000029802322388,
        1.0000029802322388
      ],
      "translation": [
        0.5725005865097046,
        5.0354001359664835e-06,
        -7.05719003235572e-07
      ]
    },
    {
      "extras": {
        "Flags": 14,
        "ID": 139,
        "Parent ID": 136
      },
      "name": "L_Wing2",
      "rotation": [
        -7.255892455759749e-07,
        2.8752781418006634e-06,
        0.0036622202023863792,
        0.9999932646751404
      ],
      "scale": [
        1.0000009536743164,
        1.0000009536743164,
        1.0000009536743164
      ],
      "translation": [
        0.4636256992816925,
        1.1749267287086695e-05,
        3.814697180359872e-08
      ]
    },
    {
      "children": [
        48
      ],
      "extras": {
        "Flags": 14,
        "ID": 142,
        "Parent ID": 15
      },
      "name": "R_FrontVentralBicep",
      "rotation": [
        0.2871783673763275,
        0.9562269449234009,
        -0.026718340814113617,
        -0.04944450035691261
      ],
      "scale": [
        0.9999979734420776,
        0.9999979734420776,
        0.9999979734420776
      ],
      "translation": [
        0.10063774138689041,
        0.4007197618484497,
        -0.08376111090183258
      ]
    },
    {
      "children": [
        49
      ],
      "extras": {
        "Flags": 14,
        "ID": 145,
        "Parent ID": 142
      },
      "name": "R_FrontVentralForeArm",
      "rotation": [
        5.014877615394653e-07,
        2.5637455109972507e-06,
        0.6023607850074768,
        0.7982239723205566
      ],
      "scale": [
        1.0,
        1.0,
        1.0
      ],
      "translation": [
        0.38434919714927673,
        -4.234314019413432e-06,
        -7.05719003235572e-07
      ]
    },
    {
      "extras": {
        "Flags": 14,
        "ID": 148,
        "Parent ID": 145
      },
      "name": "R_FrontVentralWrist",
      "rotation": [
        5.9437244459559224e-08,
        -1.5870516563154524e-06,
        -0.4028339982032776,
        0.9152730703353882
      ],
      "scale": [
        1.0000050067901611,
        1.0000050067901611,
        1.0000050067901611
      ],
      "translation": [
        0.4153655767440796,
        -1.5258788721439487e-07,
        3.147125084979052e-07
      ]
    },
    {
      "children": [
        51
      ],
      "extras": {
        "Flags": 14,
        "ID": 151,
        "Parent ID": 15
      },
      "name": "L_FrontVentralBicep",
      "rotation": [
        -0.04942762106657028,
        -0.026732616126537323,
        0.9562273025512695,
        0.28717872500419617
      ],
      "scale": [
        1.0,
        1.0,
        1.0
      ],
      "translation": [
        0.10063979774713516,
        0.4007168412208557,
        0.08378121256828308
      ]
    },
    {
      "children": [
        52
      ],
      "extras": {
        "Flags": 14,
        "ID": 154,
        "Parent ID": 151
      },
      "name": "L_FrontVentralForeArm",
      "rotation": [
        -7.557541721325833e-07,
        2.560770781201427e-06,
        -0.6023604273796082,
        0.7982242107391357
      ],
      "scale": [
        1.0000020265579224,
        1.0000020265579224,
        1.0000020265579224
      ],
      "translation": [
        0.3843488097190857,
        4.158020146860508e-06,
        -8.84532880718325e-07
      ]
    },
    {
      "extras": {
        "Flags": 14,
        "ID": 157,
        "Parent ID": 154
      },
      "name": "L_FrontVentralWrist",
      "rotation": [
        -2.0340492028481094e-06,
        -2.458166136420914e-06,
        0.40283507108688354,
        0.91527259349823
      ],
      "scale": [
        1.0000040531158447,
        1.0000040531158447,
        1.0000040531158447
      ],
      "translation": [
        0.41536569595336914,
        -7.629394360719743e-08,
        2.980232238769531e-07
      ]
    },
    {
      "extras": {
        "Flags": 14,
        "ID": 160,
        "Parent ID": 15
      },
      "name": "DirectAt",
      "rotation": [
        0.3265118896961212,
        0.627200186252594,
        -0.32651185989379883,
        0.6272159218788147
      ],
      "scale": [
        1.0,
        1.0,
        1.0
      ],
      "translation": [
        0.18058723211288452,
        -4.577636616431846e-07,
        9.319116429651331e-07
      ]
    },
    {
      "children": [
        55,
        66,
        70
      ],
      "extras": {
        "Flags": 14,
        "ID": 162,
        "Parent ID": 5
      },
      "name": "C_hips",
      "rotation": [
        -0.42443764209747314,
        0.5655540823936462,
        -0.4244314134120941,
        0.5655609965324402
      ],
      "scale": [
        1.0,
        1.0,
        1.0
      ],
      "translation": [
        6.637972660428204e-08,
        -0.014215964823961258,
        -0.0027534484397619963
      ]
    },
    {
      "children": [
        56,
        60,
        63
      ],
      "extras": {
        "Flags": 14,
        "ID": 165,
        "Parent ID": 162
      },
      "name": "C_Tail1",
      "rotation": [
        -5.049241735832766e-07,
        6.986439530010102e-06,
        -0.09871047735214233,
        0.9951161742210388
      ],
      "scale": [
        0.9999989867210388,
        0.9999989867210388,
        0.9999989867210388
      ],
      "translation": [
        0.1756914108991623,
        -0.021844329312443733,
        -2.9109473871358205e-06
      ]
    },
    {
      "children": [
        57
      ],
      "extras": {
        "Flags": 14,
        "ID": 168,
        "Parent ID": 165
      },
      "name": "C_Tail2",
      "rotation": [
        -1.4255573432819801e-06,
        2.827251535109099e-07,
        -0.0183743666857481,
        0.9998311996459961
      ],
      "scale": [
        1.0000020265579224,
        1.0000020265579224,
        1.0000020265579224
      ],
      "translation": [
        0.38711628317832947,
        0.0004904174711555243,
        1.1128624919365393e-06
      ]
    },
    {
      "children": [
        58
      ],
      "extras": {
        "Flags": 14,
        "ID": 171,
        "Parent ID": 168
      },
      "name": "C_Tail3",
      "rotation": [
        -9.53673520598386e-07,
        -1.4364823774926094e-09,
        0.0015063052996993065,
        0.9999988675117493
      ],
      "scale": [
        0.9999989867210388,
        0.9999989867210388,
        0.9999989867210388
      ],
      "translation": [
        0.3887244462966919,
        1.220703097715159e-06,
        -1.3369519820116693e-06
      ]
    },
    {
      "children": [
        59
      ],
      "extras": {
        "Flags": 14,
        "ID": 174,
        "Parent ID": 171
      },
      "name": "C_Tail4",
      "rotation": [
        -5.705640887754271e-06,
        7.411698561554658e-07,
        -0.024432852864265442,
        0.9997014403343201
      ],
      "scale": [
        1.0000029802322388,
        1.0000029802322388,
        1.0000029802322388
      ],
      "translation": [
        0.3526611328125,
        -4.730224645754788e-06,
        1.17117302522729e-07
      ]
    },
    {
      "extras": {
        "Flags": 14,
        "ID": 177,
        "Parent ID": 174
      },
      "name": "C_Tail5",
      "rotation": [
        -7.619887128385017e-06,
        -1.7118067034971318e-06,
        0.005623387638479471,
        0.9999842047691345
      ],
      "scale": [
        0.9999979734420776,
        0.9999979734420776,
        0.9999979734420776
      ],
      "translation": [
        0.34643951058387756,
        -3.890991138177924e-06,
        -4.746892727780505e-07
      ]
    },
    {
      "children": [
        61
      ],
      "extras": {
        "Flags": 14,
        "ID": 180,
        "Parent ID": 165
      },
      "name": "R_BackVentralBicep",
      "rotation": [
        -0.017748743295669556,
        -0.06278690695762634,
        0.8006921410560608,
        0.5955122709274292
      ],
      "scale": [
        1.0000009536743164,
        1.0000009536743164,
        1.0000009536743164
      ],
      "translation": [
        -0.004094390664249659,
        0.08194198459386826,
        0.09160146862268448
      ]
    },
    {
      "children": [
        62
      ],
      "extras": {
        "Flags": 14,
        "ID": 183,
        "Parent ID": 180
      },
      "name": "R_BackVentralForeArm",
      "rotation": [
        1.814529241528362e-06,
        -1.961760972335469e-06,
        -0.6023039817810059,
        0.7982668280601501
      ],
      "scale": [
        1.0000029802322388,
        1.0000029802322388,
        1.0000029802322388
      ],
      "translation": [
        0.37899139523506165,
        1.8882750509874313e-06,
        -2.9563904035967425e-07
      ]
    },
    {
      "extras": {
        "Flags": 14,
        "ID": 186,
        "Parent ID": 183
      },
      "name": "R_BackVentralWrist",
      "rotation": [
        -1.2167382692496176e-06,
        3.6092586697122897e-07,
        0.41608503460884094,
        0.9093257188796997
      ],
      "scale": [
        0.9999989867210388,
        0.9999989867210388,
        0.9999989867210388
      ],
      "translation": [
        0.4184103310108185,
        4.577636616431846e-07,
        -4.768371297814156e-08
      ]
    },
    {
      "children": [
        64
      ],
      "extras": {
        "Flags": 14,
        "ID": 189,
        "Parent ID": 165
      },
      "name": "L_BackVentralBicep",
      "rotation": [
        0.5955126881599426,
        0.8006919026374817,
        -0.06278640031814575,
        -0.017748171463608742
      ],
      "scale": [
        1.0000020265579224,
        1.0000020265579224,
        1.0000020265579224
      ],
      "translation": [
        -0.00409420020878315,
        0.08194175362586975,
        -0.09160001575946808
      ]
    },
    {
      "children": [
        65
      ],
      "extras": {
        "Flags": 14,
        "ID": 192,
        "Parent ID": 189
      },
      "name": "L_BackVentralForeArm",
      "rotation": [
        -1.8919262174676987e-06,
        -2.638501655383152e-06,
        0.6023046374320984,
        0.7982662916183472
      ],
      "scale": [
        1.0000020265579224,
        1.0000020265579224,
        1.0000020265579224
      ],
      "translation": [
        0.37899139523506165,
        -2.326965386600932e-06,
        2.193450825416221e-07
      ]
    },
    {
      "extras": {
        "Flags": 14,
        "ID": 195,
        "Parent ID": 192
      },
      "name": "L_BackVentralWrist",
      "rotation": [
        1.2794649819625192e-06,
        4.6332044689734175e-07,
        -0.416084885597229,
        0.9093257784843445
      ],
      "scale": [
        0.9999989867210388,
        0.9999989867210388,
        0.9999989867210388
      ],
      "translation": [
        0.41841045022010803,
        -6.866454782539222e-07,
        -3.52859501617786e-07
      ]
    },
    {
      "children": [
        67
      ],
      "extras": {
        "Flags": 14,
        "ID": 198,
        "Parent ID": 162
      },
      "name": "R_BackLeg",
      "rotation": [
        -0.23637725412845612,
        -0.21431313455104828,
        0.44563156366348267,
        0.8364258408546448
      ],
      "scale": [
        1.0000040531158447,
        1.0000040531158447,
        1.0000040531158447
      ],
      "translation": [
        -0.032805901020765305,
        0.09950042515993118,
        0.2933014929294586
      ]
    },
    {
      "children": [
        68
      ],
      "extras": {
        "Flags": 14,
        "ID": 201,
        "Parent ID": 198
      },
      "name": "R_BackLeg2",
      "rotation": [
        0.05053632706403732,
        0.03188149258494377,
        -0.8447367548942566,
        0.5318359136581421
      ],
      "scale": [
        1.0,
        1.0,
        1.0
      ],
      "translation": [
        0.4702984094619751,
        -4.1198727558366954e-06,
        -2.0408629097801168e-06
      ]
    },
    {
      "children": [
        69
      ],
      "extras": {
        "Flags": 14,
        "ID": 204,
        "Parent ID": 201
      },
      "name": "R_BackLeg3",
      "rotation": [
        -0.0027291160076856613,
        0.024928146973252296,
        0.7600491046905518,
        0.649381697177887
      ],
      "scale": [
        1.0000029802322388,
        1.0000029802322388,
        1.0000029802322388
      ],
      "translation": [
        0.5377357602119446,
        2.708434976739227e-06,
        6.818771112193645e-07
      ]
    },
    {
      "extras": {
        "Flags": 14,
        "ID": 207,
        "Parent ID": 204
      },
      "name": "R_BackLeg4",
      "rotation": [
        0.061658475548028946,
        0.012158800847828388,
        0.12059393525123596,
        0.9907106161117554
      ],
      "scale": [
        1.0000009536743164,
        1.0000009536743164,
        1.0000009536743164
      ],
      "translation": [
        0.6292295455932617,
        5.0354001359664835e-06,
        -6.3991546994657256e-06
      ]
    },
    {
      "children": [
        71
      ],
      "extras": {
        "Flags": 14,
        "ID": 210,
        "Parent ID": 162
      },
      "name": "L_BackLeg",
      "rotation": [
        0.8364229202270508,
        0.4456290602684021,
        -0.21432307362556458,
        -0.2363833785057068
      ],
      "scale": [
        1.0000040531158447,
        1.0000040531158447,
        1.0000040531158447
      ],
      "translation": [
        -0.03281322494149208,
        0.09950042515993118,
        -0.29330044984817505
      ]
    },
    {
      "children": [
        72
      ],
      "extras": {
        "Flags": 14,
        "ID": 213,
        "Parent ID": 210
      },
      "name": "L_BackLeg2",
      "rotation": [
        -0.05058573558926582,
        0.03169366344809532,
        0.8450995087623596,
        0.5312657356262207
      ],
      "scale": [
        0.9999979734420776,
        0.9999979734420776,
        0.9999979734420776
      ],
      "translation": [
        0.47029876708984375,
        5.111694008519407e-06,
        -1.4019011587151908e-06
      ]
    },
    {
      "children": [
        73
      ],
      "extras": {
        "Flags": 14,
        "ID": 216,
        "Parent ID": 213
      },
      "name": "L_BackLeg3",
      "rotation": [
        0.0027296938933432102,
        0.024928001686930656,
        -0.7600487470626831,
        0.6493820548057556
      ],
      "scale": [
        1.0000020265579224,
        1.0000020265579224,
        1.0000020265579224
      ],
      "translation": [
        0.5377334356307983,
        -4.158020146860508e-06,
        2.2196768441062886e-06
      ]
    },
    {
      "extras": {
        "Flags": 14,
        "ID": 219,
        "Parent ID": 216
      },
      "name": "L_BackLeg4",
      "rotation": [
        -0.06165820360183716,
        0.012157990597188473,
        -0.12059438973665237,
        0.9907106161117554
      ],
      "scale": [
        1.0000009536743164,
        1.0000009536743164,
        1.0000009536743164
      ],
      "translation": [
        0.6292271018028259,
        -2.136230477844947e-06,
        -7.309913598874118e-06
      ]
    },
    {
      "extras": {
        "Flags": 526,
        "Has GPU LODs": false,
        "ID": 229,
        "Material Path": "Materials\\Actors\\MantidA\\MantidA_Cockroach\\MantidA_Cockroach.mat",
        "NiIntegerExtraData:MaterialID": -1075375745,
        "Parent ID": 3
      },
      "mesh": 0,
      "name": "MantidA_Cockroach:0",
      "rotation": [
        0.0,
        0.0,
        0.0,
        1.0
      ],
      "scale": [
        1.0,
        1.0,
        1.0
      ],
      "skin": 0,
      "translation": [
        0.0,
        0.0,
        0.0
      ]
    }
  ],
  "scenes": [
    {
      "name": "ExportScene",
      "nodes": [
        0
      ]
    }
  ],
  "skins": [
    {
      "inverseBindMatrices": 0,
      "joints": [
        64,
        65,
        54,
        55,
        63,
        43,
        42,
        41,
        40,
        4,
        3,
        5,
        56,
        57,
        58,
        59,
        9,
        8,
        7,
        6,
        32,
        31,
        23,
        26,
        70,
        2,
        28,
        29,
        30,
        27,
        24,
        50,
        61,
        62,
        47,
        49,
        48,
        60,
        25,
        33,
        36,
        35,
        34,
        66,
        67,
        68,
        69,
        71,
        73,
        72,
        52,
        51
      ],
      "skeleton": 1
    }
  ]
}
