{
  "accessors": [
    {
      "bufferView": 0,
      "componentType": 5126,
      "count": 17,
      "type": "MAT4"
    },
    {
      "bufferView": 1,
      "componentType": 5126,
      "count": 4096,
      "max": [
        0.2608111798763275,
        0.2608111798763275,
        0.35444197058677673
      ],
      "min": [
        -0.2608111798763275,
        -0.2608111798763275,
        -0.5774102210998535
      ],
      "type": "VEC3"
    },
    {
      "bufferView": 2,
      "componentType": 5126,
      "count": 4096,
      "type": "VEC3"
    },
    {
      "bufferView": 3,
      "componentType": 5126,
      "count": 4096,
      "type": "VEC4"
    },
    {
      "bufferView": 4,
      "componentType": 5126,
      "count": 4096,
      "type": "VEC2"
    },
    {
      "bufferView": 5,
      "componentType": 5126,
      "count": 4096,
      "type": "VEC4"
    },
    {
      "bufferView": 6,
      "componentType": 5123,
      "count": 4096,
      "type": "VEC4"
    },
    {
      "bufferView": 7,
      "componentType": 5123,
      "count": 18888,
      "type": "SCALAR"
    }
  ],
  "asset": {
    "generator": "NifSkope glTF 2.0 Exporter v1.2",
    "version": "2.0"
  },
  "bufferViews": [
    {
      "buffer": 0,
      "byteLength": 1088
    },
    {
      "buffer": 0,
      "byteLength": 49152,
      "byteOffset": 1088,
      "target": 34962
    },
    {
      "buffer": 0,
      "byteLength": 49152,
      "byteOffset": 50240,
      "target": 34962
    },
    {
      "buffer": 0,
      "byteLength": 65536,
      "byteOffset": 99392,
      "target": 34962
    },
    {
      "buffer": 0,
      "byteLength": 32768,
      "byteOffset": 164928,
      "target": 34962
    },
    {
      "buffer": 0,
      "byteLength": 65536,
      "byteOffset": 197696,
      "target": 34962
    },
    {
      "buffer": 0,
      "byteLength": 32768,
      "byteOffset": 263232,
      "target": 34962
    },
    {
      "buffer": 0,
      "byteLength": 37776,
      "byteOffset": 296000,
      "target": 34963
    }
  ],
  "buffers": [
    {
      "byteLength": 333776,
      "name": "Artichoke.bin",
      "uri": "Artichoke.bin"
    }
  ],
  "materials": [
    {
      "extras": {
        "Material Path": "Default"
      },
      "name": "Default"
    },
    {
      "extras": {
        "Material Path": "materials/actors/floatera/floatera_artichoke/floatera_artichoke.mat"
      },
      "name": "Materials/Actors/Floatera/Floatera_Artichoke/Floatera_Artichoke"
    }
  ],
  "meshes": [
    {
      "name": "FloaterA_Artichoke:0",
      "primitives": [
        {
          "attributes": {
            "JOINTS_0": 6,
            "NORMAL": 2,
            "POSITION": 1,
            "TANGENT": 3,
            "TEXCOORD_0": 4,
            "WEIGHTS_0": 5
          },
          "indices": 7,
          "material": 1,
          "mode": 4
        }
      ]
    }
  ],
  "nodes": [
    {
      "children": [
        1,
        25
      ],
      "extras": {
        "Flags": 14,
        "ID": 3,
        "Parent ID": 0
      },
      "name": "Root",
      "rotation": [
        -0.7071067690849304,
        0.0,
        0.0,
        0.7071067690849304
      ],
      "scale": [
        1.0,
        1.0,
        1.0
      ],
      "translation": [
        0.0,
        0.0,
        -0.0
      ]
    },
    {
      "children": [
        2,
        4,
        23,
        24
      ],
      "extras": {
        "Flags": 14,
        "ID": 5,
        "Parent ID": 3
      },
      "name": "COM",
      "rotation": [
        0.0,
        0.0,
        0.0,
        1.0
      ],
      "scale": [
        1.0,
        1.0,
        1.0
      ],
      "translation": [
        0.0,
        0.0,
        1.800459861755371
      ]
    },
    {
      "children": [
        3
      ],
      "extras": {
        "Flags": 14,
        "ID": 9,
        "Parent ID": 5
      },
      "name": "C_spine",
      "rotation": [
        0.0,
        -0.7071034908294678,
        0.0,
        0.7071100473403931
      ],
      "scale": [
        1.0,
        1.0,
        1.0
      ],
      "translation": [
        0.0,
        0.0,
        0.0
      ]
    },
    {
      "extras": {
        "Flags": 14,
        "ID": 12,
        "Parent ID": 9
      },
      "name": "xC_spine",
      "rotation": [
        5.245208285487024e-07,
        -3.576278459149762e-06,
        2.344790811167896e-12,
        1.0
      ],
      "scale": [
        1.0,
        1.0,
        1.0
      ],
      "translation": [
        0.1484997570514679,
        3.9239598237372775e-08,
        -4.577659922233579e-07
      ]
    },
    {
      "children": [
        5,
        10,
        11,
        12,
        13,
        14,
        15,
        16,
        17,
        18,
        19,
        20,
        21,
        22
      ],
      "extras": {
        "Flags": 14,
        "ID": 14,
        "Parent ID": 5
      },
      "name": "C_hips",
      "rotation": [
        3.392837584215158e-07,
        0.7071033716201782,
        -3.392805467683502e-07,
        0.7071101665496826
      ],
      "scale": [
        1.0,
        1.0,
        1.0
      ],
      "translation": [
        0.0,
        -2.000479959463064e-08,
        0.0
      ]
    },
    {
      "children": [
        6
      ],
      "extras": {
        "Flags": 14,
        "ID": 17,
        "Parent ID": 14
      },
      "name": "C_hips2",
      "rotation": [
        -2.384185791015625e-06,
        1.430511474609375e-06,
        1.0684954657169676e-11,
        1.0
      ],
      "scale": [
        1.0,
        1.0,
        1.0
      ],
      "translation": [
        0.3977999687194824,
        -1.9533253237113968e-07,
        -2.2888182229507947e-06
      ]
    },
    {
      "children": [
        7
      ],
      "extras": {
        "Flags": 14,
        "ID": 20,
        "Parent ID": 17
      },
      "name": "C_hips3",
      "rotation": [
        -4.76837158203125e-06,
        2.980229965032777e-07,
        1.648425319855651e-11,
        1.0
      ],
      "scale": [
        1.0,
        1.0,
        1.0
      ],
      "translation": [
        0.3994598388671875,
        1.8131551087208209e-06,
        -9.329872909802361e-07
      ]
    },
    {
      "children": [
        8
      ],
      "extras": {
        "Flags": 14,
        "ID": 23,
        "Parent ID": 20
      },
      "name": "C_hips4",
      "rotation": [
        -2.384185791015625e-06,
        1.0132789611816406e-06,
        1.4010754362248079e-11,
        1.0
      ],
      "scale": [
        1.0,
        1.0,
        1.0
      ],
      "translation": [
        0.36256805062294006,
        9.43586883295211e-07,
        6.044515998837596e-08
      ]
    },
    {
      "children": [
        9
      ],
      "extras": {
        "Flags": 14,
        "ID": 26,
        "Parent ID": 23
      },
      "name": "C_Hips5",
      "rotation": [
        -1.430511474609375e-06,
        8.344651405423065e-07,
        1.1140376815488295e-11,
        1.0
      ],
      "scale": [
        1.0,
        1.0,
        1.0
      ],
      "translation": [
        0.33581995964050293,
        -3.1648903586756205e-06,
        -3.6195688153384253e-06
      ]
    },
    {
      "extras": {
        "Flags": 14,
        "ID": 29,
        "Parent ID": 26
      },
      "name": "xC_Hips",
      "rotation": [
        -7.629395440744702e-06,
        2.9802333756379085e-07,
        1.1538879227113163e-11,
        1.0
      ],
      "scale": [
        1.0,
        1.0,
        1.0
      ],
      "translation": [
        0.2765215337276459,
        2.848467772764707e-07,
        -5.7220457705398076e-08
      ]
    },
    {
      "extras": {
        "Flags": 14,
        "ID": 31,
        "Parent ID": 14
      },
      "name": "C_BodyDeform2_Def",
      "rotation": [
        -1.6109943240527613e-12,
        -0.7071033120155334,
        -1.6109788199616948e-12,
        0.7071101665496826
      ],
      "scale": [
        0.9999999403953552,
        0.9999999403953552,
        0.9999999403953552
      ],
      "translation": [
        0.11936965584754944,
        1.3087570138736737e-08,
        -1.073332896339707e-06
      ]
    },
    {
      "extras": {
        "Flags": 67108878,
        "ID": 40,
        "Parent ID": 14
      },
      "name": "LookAt_Bone_11",
      "rotation": [
        -0.28240522742271423,
        -0.2892952561378479,
        0.6482648253440857,
        0.6452195048332214
      ],
      "scale": [
        1.0,
        1.0,
        1.0
      ],
      "translation": [
        0.14612838625907898,
        0.002131428336724639,
        -0.13467039167881012
      ]
    },
    {
      "extras": {
        "Flags": 67108878,
        "ID": 42,
        "Parent ID": 14
      },
      "name": "LookAt_Bone_10",
      "rotation": [
        -0.2525324523448944,
        -0.6665536761283875,
        -0.25810518860816956,
        0.6521620154380798
      ],
      "scale": [
        1.0,
        1.0,
        1.0
      ],
      "translation": [
        0.1452101171016693,
        -0.13398003578186035,
        0.0032098384108394384
      ]
    },
    {
      "extras": {
        "Flags": 67108878,
        "ID": 44,
        "Parent ID": 14
      },
      "name": "LookAt_Bone_09",
      "rotation": [
        0.6458142995834351,
        0.6465499997138977,
        -0.2879648804664612,
        -0.2863095700740814
      ],
      "scale": [
        1.0,
        1.0,
        1.0
      ],
      "translation": [
        0.1498207002878189,
        0.0005234114942140877,
        0.13693544268608093
      ]
    },
    {
      "extras": {
        "Flags": 67108878,
        "ID": 46,
        "Parent ID": 14
      },
      "name": "LookAt_Bone_08",
      "rotation": [
        0.2554171085357666,
        -0.6603627800941467,
        0.2563300132751465,
        0.658010721206665
      ],
      "scale": [
        1.0000009536743164,
        1.0000009536743164,
        1.0000009536743164
      ],
      "translation": [
        0.14639969170093536,
        0.13548192381858826,
        0.0005291748675517738
      ]
    },
    {
      "extras": {
        "Flags": 67108878,
        "ID": 48,
        "Parent ID": 14
      },
      "name": "LookAt_Bone_07",
      "rotation": [
        -0.07318578660488129,
        -0.44248130917549133,
        0.7033095359802246,
        0.5515522360801697
      ],
      "scale": [
        1.0,
        1.0,
        1.0
      ],
      "translation": [
        0.08033416420221329,
        0.07528899610042572,
        -0.08307784795761108
      ]
    },
    {
      "extras": {
        "Flags": 67108878,
        "ID": 50,
        "Parent ID": 14
      },
      "name": "LookAt_Bone_06",
      "rotation": [
        -0.03168896213173866,
        -0.04443121328949928,
        0.7063963413238525,
        0.7057094573974609
      ],
      "scale": [
        0.9999989867210388,
        0.9999989867210388,
        0.9999989867210388
      ],
      "translation": [
        0.010877074673771858,
        0.0021314448677003384,
        -0.11740998178720474
      ]
    },
    {
      "extras": {
        "Flags": 67108878,
        "ID": 52,
        "Parent ID": 14
      },
      "name": "LookAt_Bone_05",
      "rotation": [
        -0.4476192891597748,
        -0.07444979250431061,
        0.5473912358283997,
        0.7031763792037964
      ],
      "scale": [
        1.0,
        1.0,
        1.0
      ],
      "translation": [
        0.07881011813879013,
        -0.07429122179746628,
        -0.07973846048116684
      ]
    },
    {
      "extras": {
        "Flags": 67108878,
        "ID": 54,
        "Parent ID": 14
      },
      "name": "LookAt_Bone_04",
      "rotation": [
        0.38685500621795654,
        0.6039059162139893,
        0.5558903217315674,
        -0.42026999592781067
      ],
      "scale": [
        1.0,
        1.0,
        1.0
      ],
      "translation": [
        0.0068478393368422985,
        -0.11142127960920334,
        0.0032112125772982836
      ]
    },
    {
      "extras": {
        "Flags": 67108878,
        "ID": 56,
        "Parent ID": 14
      },
      "name": "LookAt_Bone_03",
      "rotation": [
        0.11523469537496567,
        0.8775291442871094,
        0.26357290148735046,
        -0.38365721702575684
      ],
      "scale": [
        1.0000009536743164,
        1.0000009536743164,
        1.0000009536743164
      ],
      "translation": [
        0.07948943972587585,
        -0.07313288003206253,
        0.07521256059408188
      ]
    },
    {
      "extras": {
        "Flags": 67108878,
        "ID": 58,
        "Parent ID": 14
      },
      "name": "LookAt_Bone_02",
      "rotation": [
        0.7063926458358765,
        0.706222414970398,
        -0.0317729227244854,
        -0.035353321582078934
      ],
      "scale": [
        1.0,
        1.0,
        1.0
      ],
      "translation": [
        0.008698119781911373,
        -0.0005621624877676368,
        0.11040058732032776
      ]
    },
    {
      "extras": {
        "Flags": 67108878,
        "ID": 60,
        "Parent ID": 14
      },
      "name": "LookAt_Bone_01",
      "rotation": [
        0.5360150337219238,
        0.704340398311615,
        -0.46118101477622986,
        -0.06248713284730911
      ],
      "scale": [
        1.0,
        1.0,
        1.0
      ],
      "translation": [
        0.08093200623989105,
        0.08278465270996094,
        0.08053258061408997
      ]
    },
    {
      "extras": {
        "Flags": 67108878,
        "ID": 62,
        "Parent ID": 14
      },
      "name": "LookAt_Bone_00",
      "rotation": [
        0.46527406573295593,
        -0.534662663936615,
        0.49319323897361755,
        0.5043969750404358
      ],
      "scale": [
        0.9999989867210388,
        0.9999989867210388,
        0.9999989867210388
      ],
      "translation": [
        0.007280578371137381,
        0.11276572942733765,
        0.000530395598616451
      ]
    },
    {
      "extras": {
        "Flags": 14,
        "ID": 33,
        "Parent ID": 5
      },
      "name": "C_BodyDeform_Def",
      "rotation": [
        0.0,
        0.0,
        0.0,
        1.0
      ],
      "scale": [
        1.0,
        1.0,
        1.0
      ],
      "translation": [
        0.0,
        0.0,
        0.0
      ]
    },
    {
      "extras": {
        "Flags": 14,
        "ID": 35,
        "Parent ID": 5
      },
      "name": "DirectAt",
      "rotation": [
        0.0,
        0.0,
        0.0,
        1.0
      ],
      "scale": [
        1.0,
        1.0,
        1.0
      ],
      "translation": [
        -1.531513333929979e-07,
        1.577721775177193e-32,
        -5.996703839628026e-05
      ]
    },
    {
      "extras": {
        "Flags": 526,
        "Has GPU LODs": false,
        "ID": 64,
        "Material Path": "Materials\\Actors\\FloaterA\\FloaterA_Artichoke\\FloaterA_Artichoke.mat",
        "NiIntegerExtraData:MaterialID": -1015629053,
        "Parent ID": 3
      },
      "mesh": 0,
      "name": "FloaterA_Artichoke:0",
      "rotation": [
        0.0,
        0.0,
        0.0,
        1.0
      ],
      "scale": [
        1.0,
        1.0,
        1.0
      ],
      "skin": 0,
      "translation": [
        0.0,
        0.0,
        1.665099859237671
      ]
    }
  ],
  "scenes": [
    {
      "name": "ExportScene",
      "nodes": [
        0
      ]
    }
  ],
  "skins": [
    {
      "inverseBindMatrices": 0,
      "joints": [
        23,
        16,
        2,
        4,
        10,
        17,
        11,
        15,
        5,
        18,
        19,
        12,
        20,
        21,
        13,
        22,
        14
      ],
      "skeleton": 1
    }
  ]
}
