{
  "accessors": [
    {
      "bufferView": 0,
      "componentType": 5126,
      "count": 15,
      "type": "MAT4"
    },
    {
      "bufferView": 1,
      "componentType": 5126,
      "count": 3903,
      "max": [
        0.4676656424999237,
        0.43983274698257446,
        2.462233304977417
      ],
      "min": [
        -0.5338297486305237,
        -0.4200567603111267,
        0.06884975731372833
      ],
      "type": "VEC3"
    },
    {
      "bufferView": 2,
      "componentType": 5126,
      "count": 3903,
      "type": "VEC3"
    },
    {
      "bufferView": 3,
      "componentType": 5126,
      "count": 3903,
      "type": "VEC4"
    },
    {
      "bufferView": 4,
      "componentType": 5126,
      "count": 3903,
      "type": "VEC2"
    },
    {
      "bufferView": 5,
      "componentType": 5126,
      "count": 3903,
      "type": "VEC4"
    },
    {
      "bufferView": 6,
      "componentType": 5123,
      "count": 3903,
      "type": "VEC4"
    },
    {
      "bufferView": 7,
      "componentType": 5123,
      "count": 18918,
      "type": "SCALAR"
    }
  ],
  "asset": {
    "generator": "NifSkope glTF 2.0 Exporter v1.2",
    "version": "2.0"
  },
  "bufferViews": [
    {
      "buffer": 0,
      "byteLength": 960
    },
    {
      "buffer": 0,
      "byteLength": 46836,
      "byteOffset": 960,
      "target": 34962
    },
    {
      "buffer": 0,
      "byteLength": 46836,
      "byteOffset": 47796,
      "target": 34962
    },
    {
      "buffer": 0,
      "byteLength": 62448,
      "byteOffset": 94632,
      "target": 34962
    },
    {
      "buffer": 0,
      "byteLength": 31224,
      "byteOffset": 157080,
      "target": 34962
    },
    {
      "buffer": 0,
      "byteLength": 62448,
      "byteOffset": 188304,
      "target": 34962
    },
    {
      "buffer": 0,
      "byteLength": 31224,
      "byteOffset": 250752,
      "target": 34962
    },
    {
      "buffer": 0,
      "byteLength": 37836,
      "byteOffset": 281976,
      "target": 34963
    }
  ],
  "buffers": [
    {
      "byteLength": 319812,
      "name": "Citrus Rose.bin",
      "uri": "Citrus Rose.bin"
    }
  ],
  "materials": [
    {
      "extras": {
        "Material Path": "Default"
      },
      "name": "Default"
    },
    {
      "extras": {
        "Material Path": "materials/actors/floatera/floatera_citrusrose/floatera_citrusrose.mat"
      },
      "name": "Materials/Actors/Floatera/Floatera_Citrusrose/Floatera_Citrusrose"
    }
  ],
  "meshes": [
    {
      "name": "FloaterA_CitrusRose:0",
      "primitives": [
        {
          "attributes": {
            "JOINTS_0": 6,
            "NORMAL": 2,
            "POSITION": 1,
            "TANGENT": 3,
            "TEXCOORD_0": 4,
            "WEIGHTS_0": 5
          },
          "indices": 7,
          "material": 1,
          "mode": 4
        }
      ]
    }
  ],
  "nodes": [
    {
      "children": [
        1,
        20
      ],
      "extras": {
        "Flags": 14,
        "ID": 3,
        "Parent ID": 0
      },
      "name": "Root",
      "rotation": [
        -0.7071067690849304,
        0.0,
        0.0,
        0.7071067690849304
      ],
      "scale": [
        1.0,
        1.0,
        1.0
      ],
      "translation": [
        0.0,
        0.0,
        -0.0
      ]
    },
    {
      "children": [
        2,
        4,
        18,
        19
      ],
      "extras": {
        "Flags": 14,
        "ID": 5,
        "Parent ID": 3
      },
      "name": "COM",
      "rotation": [
        0.0,
        0.0,
        0.0,
        1.0
      ],
      "scale": [
        1.0,
        1.0,
        1.0
      ],
      "translation": [
        0.0,
        0.0,
        1.800459861755371
      ]
    },
    {
      "children": [
        3
      ],
      "extras": {
        "Flags": 14,
        "ID": 9,
        "Parent ID": 5
      },
      "name": "C_spine",
      "rotation": [
        0.0,
        -0.7071034908294678,
        0.0,
        0.7071100473403931
      ],
      "scale": [
        1.0,
        1.0,
        1.0
      ],
      "translation": [
        0.0,
        0.0,
        0.0
      ]
    },
    {
      "extras": {
        "Flags": 14,
        "ID": 12,
        "Parent ID": 9
      },
      "name": "xC_spine",
      "rotation": [
        5.245208285487024e-07,
        -3.576278459149762e-06,
        2.344790811167896e-12,
        1.0
      ],
      "scale": [
        1.0,
        1.0,
        1.0
      ],
      "translation": [
        0.1484997570514679,
        3.9239598237372775e-08,
        -4.577659922233579e-07
      ]
    },
    {
      "children": [
        5,
        12,
        13,
        14,
        15,
        16,
        17
      ],
      "extras": {
        "Flags": 14,
        "ID": 14,
        "Parent ID": 5
      },
      "name": "C_hips",
      "rotation": [
        3.392837584215158e-07,
        0.7071033716201782,
        -3.392805467683502e-07,
        0.7071101665496826
      ],
      "scale": [
        1.0,
        1.0,
        1.0
      ],
      "translation": [
        0.0,
        -2.000479959463064e-08,
        0.0
      ]
    },
    {
      "children": [
        6,
        10,
        11
      ],
      "extras": {
        "Flags": 14,
        "ID": 17,
        "Parent ID": 14
      },
      "name": "C_hips2",
      "rotation": [
        -2.384185791015625e-06,
        1.430511474609375e-06,
        1.0684954657169676e-11,
        1.0
      ],
      "scale": [
        1.0,
        1.0,
        1.0
      ],
      "translation": [
        0.3977999687194824,
        -1.9533253237113968e-07,
        -2.2888182229507947e-06
      ]
    },
    {
      "children": [
        7
      ],
      "extras": {
        "Flags": 14,
        "ID": 20,
        "Parent ID": 17
      },
      "name": "C_hips3",
      "rotation": [
        -4.76837158203125e-06,
        2.980229965032777e-07,
        1.648425319855651e-11,
        1.0
      ],
      "scale": [
        1.0,
        1.0,
        1.0
      ],
      "translation": [
        0.3994598388671875,
        1.8131551087208209e-06,
        -9.329872909802361e-07
      ]
    },
    {
      "children": [
        8
      ],
      "extras": {
        "Flags": 14,
        "ID": 23,
        "Parent ID": 20
      },
      "name": "C_hips4",
      "rotation": [
        -2.384185791015625e-06,
        1.0132789611816406e-06,
        1.4010754362248079e-11,
        1.0
      ],
      "scale": [
        1.0,
        1.0,
        1.0
      ],
      "translation": [
        0.36256805062294006,
        9.43586883295211e-07,
        6.044515998837596e-08
      ]
    },
    {
      "children": [
        9
      ],
      "extras": {
        "Flags": 14,
        "ID": 26,
        "Parent ID": 23
      },
      "name": "C_Hips5",
      "rotation": [
        -1.430511474609375e-06,
        8.344651405423065e-07,
        1.1140376815488295e-11,
        1.0
      ],
      "scale": [
        1.0,
        1.0,
        1.0
      ],
      "translation": [
        0.33581995964050293,
        -3.1648903586756205e-06,
        -3.6195688153384253e-06
      ]
    },
    {
      "extras": {
        "Flags": 14,
        "ID": 29,
        "Parent ID": 26
      },
      "name": "xC_Hips",
      "rotation": [
        -7.629395440744702e-06,
        2.9802333756379085e-07,
        1.1538879227113163e-11,
        1.0
      ],
      "scale": [
        1.0,
        1.0,
        1.0
      ],
      "translation": [
        0.2765215337276459,
        2.848467772764707e-07,
        -5.7220457705398076e-08
      ]
    },
    {
      "extras": {
        "Flags": 67108878,
        "ID": 40,
        "Parent ID": 17
      },
      "name": "LookAt_Bone_05",
      "rotation": [
        0.3115556538105011,
        0.1294962465763092,
        0.8142904043197632,
        0.4723292887210846
      ],
      "scale": [
        1.0,
        1.0,
        1.0
      ],
      "translation": [
        0.1201435849070549,
        -0.13597728312015533,
        0.20920135080814362
      ]
    },
    {
      "extras": {
        "Flags": 67108878,
        "ID": 42,
        "Parent ID": 17
      },
      "name": "LookAt_Bone_06",
      "rotation": [
        0.4713993966579437,
        0.8449648022651672,
        0.22941382229328156,
        0.10576586425304413
      ],
      "scale": [
        1.0,
        1.0,
        1.0
      ],
      "translation": [
        0.23222243785858154,
        0.13550667464733124,
        -0.27429014444351196
      ]
    },
    {
      "extras": {
        "Flags": 14,
        "ID": 31,
        "Parent ID": 14
      },
      "name": "C_BodyDeform2_Def",
      "rotation": [
        -1.6109943240527613e-12,
        -0.7071033120155334,
        -1.6109788199616948e-12,
        0.7071101665496826
      ],
      "scale": [
        0.9999999403953552,
        0.9999999403953552,
        0.9999999403953552
      ],
      "translation": [
        0.11936965584754944,
        1.3087570138736737e-08,
        -1.073332896339707e-06
      ]
    },
    {
      "extras": {
        "Flags": 67108878,
        "ID": 44,
        "Parent ID": 14
      },
      "name": "LookAt_Bone_03",
      "rotation": [
        0.6604778170585632,
        0.6459081768989563,
        -0.37038806080818176,
        0.09687298536300659
      ],
      "scale": [
        1.0,
        1.0,
        1.0
      ],
      "translation": [
        0.1465296894311905,
        0.13621549308300018,
        -0.29887130856513977
      ]
    },
    {
      "extras": {
        "Flags": 67108878,
        "ID": 46,
        "Parent ID": 14
      },
      "name": "LookAt_Bone_02",
      "rotation": [
        -0.6922769546508789,
        -0.49275678396224976,
        0.14406108856201172,
        0.5071387887001038
      ],
      "scale": [
        1.0,
        1.0,
        1.0
      ],
      "translation": [
        -0.22927458584308624,
        -0.025521449744701385,
        -0.22593627870082855
      ]
    },
    {
      "extras": {
        "Flags": 67108878,
        "ID": 48,
        "Parent ID": 14
      },
      "name": "LookAt_Bone_01",
      "rotation": [
        -0.6540030837059021,
        -0.29704344272613525,
        0.4038325250148773,
        0.5665372610092163
      ],
      "scale": [
        1.0,
        1.0,
        1.0
      ],
      "translation": [
        -0.3391571044921875,
        0.02426343597471714,
        -0.03913162276148796
      ]
    },
    {
      "extras": {
        "Flags": 67108878,
        "ID": 50,
        "Parent ID": 14
      },
      "name": "LookAt_Bone_00",
      "rotation": [
        -0.13848820328712463,
        -0.47696852684020996,
        0.6224871873855591,
        0.6048402786254883
      ],
      "scale": [
        1.0,
        1.0,
        1.0
      ],
      "translation": [
        -0.3193763792514801,
        0.037301044911146164,
        0.13888107240200043
      ]
    },
    {
      "extras": {
        "Flags": 67108878,
        "ID": 52,
        "Parent ID": 14
      },
      "name": "LookAt_Bone_04",
      "rotation": [
        -0.03464611992239952,
        -0.4180251955986023,
        0.6513994336128235,
        0.6322447061538696
      ],
      "scale": [
        1.0,
        1.0,
        1.0
      ],
      "translation": [
        0.030057525262236595,
        0.23714777827262878,
        0.2641458213329315
      ]
    },
    {
      "extras": {
        "Flags": 14,
        "ID": 33,
        "Parent ID": 5
      },
      "name": "C_BodyDeform_Def",
      "rotation": [
        0.0,
        0.0,
        0.0,
        1.0
      ],
      "scale": [
        1.0,
        1.0,
        1.0
      ],
      "translation": [
        0.0,
        0.0,
        0.0
      ]
    },
    {
      "extras": {
        "Flags": 14,
        "ID": 35,
        "Parent ID": 5
      },
      "name": "DirectAt",
      "rotation": [
        0.0,
        0.0,
        0.0,
        1.0
      ],
      "scale": [
        1.0,
        1.0,
        1.0
      ],
      "translation": [
        -1.531513333929979e-07,
        1.577721775177193e-32,
        -5.996703839628026e-05
      ]
    },
    {
      "extras": {
        "Flags": 526,
        "Has GPU LODs": false,
        "ID": 54,
        "Material Path": "Materials\\Actors\\FloaterA\\FloaterA_CitrusRose\\FloaterA_CitrusRose.mat",
        "NiIntegerExtraData:MaterialID": -2105661244,
        "Parent ID": 3
      },
      "mesh": 0,
      "name": "FloaterA_CitrusRose:0",
      "rotation": [
        0.0,
        0.0,
        0.0,
        1.0
      ],
      "scale": [
        1.0,
        1.0,
        1.0
      ],
      "skin": 0,
      "translation": [
        0.0,
        0.0,
        0.0
      ]
    }
  ],
  "scenes": [
    {
      "name": "ExportScene",
      "nodes": [
        0
      ]
    }
  ],
  "skins": [
    {
      "inverseBindMatrices": 0,
      "joints": [
        4,
        5,
        6,
        7,
        8,
        12,
        11,
        2,
        16,
        13,
        18,
        10,
        17,
        14,
        15
      ],
      "skeleton": 1
    }
  ]
}
