{
  "accessors": [
    {
      "bufferView": 0,
      "componentType": 5126,
      "count": 20,
      "type": "MAT4"
    },
    {
      "bufferView": 1,
      "componentType": 5126,
      "count": 6959,
      "max": [
        0.20264290273189545,
        0.19544053077697754,
        2.0466933250427246
      ],
      "min": [
        -0.20068971812725067,
        -0.23291726410388947,
        -0.1982482373714447
      ],
      "type": "VEC3"
    },
    {
      "bufferView": 2,
      "componentType": 5126,
      "count": 6959,
      "type": "VEC3"
    },
    {
      "bufferView": 3,
      "componentType": 5126,
      "count": 6959,
      "type": "VEC4"
    },
    {
      "bufferView": 4,
      "componentType": 5126,
      "count": 6959,
      "type": "VEC2"
    },
    {
      "bufferView": 5,
      "componentType": 5126,
      "count": 6959,
      "type": "VEC4"
    },
    {
      "bufferView": 6,
      "componentType": 5126,
      "count": 6959,
      "type": "VEC4"
    },
    {
      "bufferView": 7,
      "componentType": 5123,
      "count": 6959,
      "type": "VEC4"
    },
    {
      "bufferView": 8,
      "componentType": 5123,
      "count": 6959,
      "type": "VEC4"
    },
    {
      "bufferView": 9,
      "componentType": 5123,
      "count": 35328,
      "type": "SCALAR"
    }
  ],
  "asset": {
    "generator": "NifSkope glTF 2.0 Exporter v1.2",
    "version": "2.0"
  },
  "bufferViews": [
    {
      "buffer": 0,
      "byteLength": 1280
    },
    {
      "buffer": 0,
      "byteLength": 83508,
      "byteOffset": 1280,
      "target": 34962
    },
    {
      "buffer": 0,
      "byteLength": 83508,
      "byteOffset": 84788,
      "target": 34962
    },
    {
      "buffer": 0,
      "byteLength": 111344,
      "byteOffset": 168296,
      "target": 34962
    },
    {
      "buffer": 0,
      "byteLength": 55672,
      "byteOffset": 279640,
      "target": 34962
    },
    {
      "buffer": 0,
      "byteLength": 111344,
      "byteOffset": 335312,
      "target": 34962
    },
    {
      "buffer": 0,
      "byteLength": 111344,
      "byteOffset": 446656,
      "target": 34962
    },
    {
      "buffer": 0,
      "byteLength": 55672,
      "byteOffset": 558000,
      "target": 34962
    },
    {
      "buffer": 0,
      "byteLength": 55672,
      "byteOffset": 613672,
      "target": 34962
    },
    {
      "buffer": 0,
      "byteLength": 70656,
      "byteOffset": 669344,
      "target": 34963
    }
  ],
  "buffers": [
    {
      "byteLength": 740000,
      "name": "Eggsack.bin",
      "uri": "Eggsack.bin"
    }
  ],
  "materials": [
    {
      "extras": {
        "Material Path": "Default"
      },
      "name": "Default"
    },
    {
      "extras": {
        "Material Path": "materials/actors/floatera/floatera_eggsack/floatera_eggsack.mat"
      },
      "name": "Materials/Actors/Floatera/Floatera_Eggsack/Floatera_Eggsack"
    }
  ],
  "meshes": [
    {
      "name": "FloaterA_Eggsack:0",
      "primitives": [
        {
          "attributes": {
            "JOINTS_0": 7,
            "JOINTS_1": 8,
            "NORMAL": 2,
            "POSITION": 1,
            "TANGENT": 3,
            "TEXCOORD_0": 4,
            "WEIGHTS_0": 5,
            "WEIGHTS_1": 6
          },
          "indices": 9,
          "material": 1,
          "mode": 4
        }
      ]
    }
  ],
  "nodes": [
    {
      "children": [
        1,
        29
      ],
      "extras": {
        "Flags": 14,
        "ID": 3,
        "Parent ID": 0
      },
      "name": "Root",
      "rotation": [
        -0.7071067690849304,
        0.0,
        0.0,
        0.7071067690849304
      ],
      "scale": [
        1.0,
        1.0,
        1.0
      ],
      "translation": [
        0.0,
        0.0,
        -0.0
      ]
    },
    {
      "children": [
        2,
        4,
        27,
        28
      ],
      "extras": {
        "Flags": 14,
        "ID": 5,
        "Parent ID": 3
      },
      "name": "COM",
      "rotation": [
        0.0,
        0.0,
        0.0,
        1.0
      ],
      "scale": [
        1.0,
        1.0,
        1.0
      ],
      "translation": [
        0.0,
        0.0,
        1.800459861755371
      ]
    },
    {
      "children": [
        3
      ],
      "extras": {
        "Flags": 14,
        "ID": 9,
        "Parent ID": 5
      },
      "name": "C_spine",
      "rotation": [
        0.0,
        -0.7071034908294678,
        0.0,
        0.7071100473403931
      ],
      "scale": [
        1.0,
        1.0,
        1.0
      ],
      "translation": [
        0.0,
        0.0,
        0.0
      ]
    },
    {
      "extras": {
        "Flags": 14,
        "ID": 12,
        "Parent ID": 9
      },
      "name": "xC_spine",
      "rotation": [
        5.245208285487024e-07,
        -3.576278459149762e-06,
        2.344790811167896e-12,
        1.0
      ],
      "scale": [
        1.0,
        1.0,
        1.0
      ],
      "translation": [
        0.1484997570514679,
        3.9239598237372775e-08,
        -4.577659922233579e-07
      ]
    },
    {
      "children": [
        5,
        10,
        11,
        16,
        21
      ],
      "extras": {
        "Flags": 14,
        "ID": 14,
        "Parent ID": 5
      },
      "name": "C_hips",
      "rotation": [
        3.392837584215158e-07,
        0.7071033716201782,
        -3.392805467683502e-07,
        0.7071101665496826
      ],
      "scale": [
        1.0,
        1.0,
        1.0
      ],
      "translation": [
        0.0,
        -2.000479959463064e-08,
        0.0
      ]
    },
    {
      "children": [
        6
      ],
      "extras": {
        "Flags": 14,
        "ID": 17,
        "Parent ID": 14
      },
      "name": "C_hips2",
      "rotation": [
        -2.384185791015625e-06,
        1.430511474609375e-06,
        1.0684954657169676e-11,
        1.0
      ],
      "scale": [
        1.0,
        1.0,
        1.0
      ],
      "translation": [
        0.3977999687194824,
        -1.9533253237113968e-07,
        -2.2888182229507947e-06
      ]
    },
    {
      "children": [
        7
      ],
      "extras": {
        "Flags": 14,
        "ID": 20,
        "Parent ID": 17
      },
      "name": "C_hips3",
      "rotation": [
        -4.76837158203125e-06,
        2.980229965032777e-07,
        1.648425319855651e-11,
        1.0
      ],
      "scale": [
        1.0,
        1.0,
        1.0
      ],
      "translation": [
        0.3994598388671875,
        1.8131551087208209e-06,
        -9.329872909802361e-07
      ]
    },
    {
      "children": [
        8
      ],
      "extras": {
        "Flags": 14,
        "ID": 23,
        "Parent ID": 20
      },
      "name": "C_hips4",
      "rotation": [
        -2.384185791015625e-06,
        1.0132789611816406e-06,
        1.4010754362248079e-11,
        1.0
      ],
      "scale": [
        1.0,
        1.0,
        1.0
      ],
      "translation": [
        0.36256805062294006,
        9.43586883295211e-07,
        6.044515998837596e-08
      ]
    },
    {
      "children": [
        9
      ],
      "extras": {
        "Flags": 14,
        "ID": 26,
        "Parent ID": 23
      },
      "name": "C_Hips5",
      "rotation": [
        -1.430511474609375e-06,
        8.344651405423065e-07,
        1.1140376815488295e-11,
        1.0
      ],
      "scale": [
        1.0,
        1.0,
        1.0
      ],
      "translation": [
        0.33581995964050293,
        -3.1648903586756205e-06,
        -3.6195688153384253e-06
      ]
    },
    {
      "extras": {
        "Flags": 14,
        "ID": 29,
        "Parent ID": 26
      },
      "name": "xC_Hips",
      "rotation": [
        -7.629395440744702e-06,
        2.9802333756379085e-07,
        1.1538879227113163e-11,
        1.0
      ],
      "scale": [
        1.0,
        1.0,
        1.0
      ],
      "translation": [
        0.2765215337276459,
        2.848467772764707e-07,
        -5.7220457705398076e-08
      ]
    },
    {
      "extras": {
        "Flags": 14,
        "ID": 31,
        "Parent ID": 14
      },
      "name": "C_BodyDeform2_Def",
      "rotation": [
        -1.6109943240527613e-12,
        -0.7071033120155334,
        -1.6109788199616948e-12,
        0.7071101665496826
      ],
      "scale": [
        0.9999999403953552,
        0.9999999403953552,
        0.9999999403953552
      ],
      "translation": [
        0.11936965584754944,
        1.3087570138736737e-08,
        -1.073332896339707e-06
      ]
    },
    {
      "children": [
        12
      ],
      "extras": {
        "Flags": 67108878,
        "ID": 40,
        "Parent ID": 14
      },
      "name": "CLOTH_Bone_11",
      "rotation": [
        0.9870486259460449,
        -0.0013908450491726398,
        -0.00857979990541935,
        0.16018564999103546
      ],
      "scale": [
        1.0,
        1.0,
        1.0
      ],
      "translation": [
        0.2504812479019165,
        0.010557225905358791,
        -0.06765532493591309
      ]
    },
    {
      "children": [
        13
      ],
      "extras": {
        "Flags": 67108878,
        "ID": 42,
        "Parent ID": 40
      },
      "name": "CLOTH_Bone_12",
      "rotation": [
        -1.9548424461390823e-05,
        -2.3377127433832356e-07,
        4.772940656039282e-07,
        1.0
      ],
      "scale": [
        1.0,
        1.0,
        1.0
      ],
      "translation": [
        0.3476966917514801,
        -1.0251998361354708e-07,
        -2.288818308215923e-07
      ]
    },
    {
      "children": [
        14
      ],
      "extras": {
        "Flags": 67108878,
        "ID": 44,
        "Parent ID": 42
      },
      "name": "CLOTH_Bone_13",
      "rotation": [
        1.985233939194586e-05,
        2.467957926910458e-07,
        -2.414336108813586e-07,
        1.0
      ],
      "scale": [
        1.0,
        1.0,
        1.0
      ],
      "translation": [
        0.29231497645378113,
        -1.907348590179936e-08,
        7.629394360719743e-08
      ]
    },
    {
      "children": [
        15
      ],
      "extras": {
        "Flags": 67108878,
        "ID": 46,
        "Parent ID": 44
      },
      "name": "CLOTH_Bone_14",
      "rotation": [
        -2.142588982678717e-06,
        9.313245730169228e-10,
        -8.991756783593985e-10,
        1.0
      ],
      "scale": [
        1.0,
        1.0,
        1.0
      ],
      "translation": [
        0.3095519542694092,
        -1.0728835775353218e-07,
        -2.8610228852699038e-08
      ]
    },
    {
      "extras": {
        "Flags": 67108878,
        "ID": 48,
        "Parent ID": 46
      },
      "name": "CLOTH_Bone_15",
      "rotation": [
        2.686834022824769e-06,
        -4.656599372765413e-08,
        5.287907711704065e-08,
        1.0
      ],
      "scale": [
        1.0,
        1.0,
        1.0
      ],
      "translation": [
        0.2500585615634918,
        -5.4836270635405526e-08,
        9.53674295089968e-09
      ]
    },
    {
      "children": [
        17
      ],
      "extras": {
        "Flags": 67108878,
        "ID": 50,
        "Parent ID": 14
      },
      "name": "CLOTH_Bone_06",
      "rotation": [
        0.6583494544029236,
        -0.016054928302764893,
        -0.01405408326536417,
        0.7524099349975586
      ],
      "scale": [
        1.0,
        1.0,
        1.0
      ],
      "translation": [
        0.2714793384075165,
        -0.06535654515028,
        0.023030852898955345
      ]
    },
    {
      "children": [
        18
      ],
      "extras": {
        "Flags": 67108878,
        "ID": 52,
        "Parent ID": 50
      },
      "name": "CLOTH_Bone_07",
      "rotation": [
        1.878440116342972e-06,
        7.133930921554565e-07,
        8.733493217505384e-08,
        1.0
      ],
      "scale": [
        1.0,
        1.0,
        1.0
      ],
      "translation": [
        0.3409949541091919,
        -2.6226043559063328e-08,
        8.583068478174027e-08
      ]
    },
    {
      "children": [
        19
      ],
      "extras": {
        "Flags": 67108878,
        "ID": 54,
        "Parent ID": 52
      },
      "name": "CLOTH_Bone_08",
      "rotation": [
        -1.1709730642905924e-06,
        -4.786999170391937e-07,
        -5.6238687318188596e-11,
        1.0
      ],
      "scale": [
        1.0,
        1.0,
        1.0
      ],
      "translation": [
        0.32610756158828735,
        -1.0609626599489275e-07,
        1.9073485191256623e-07
      ]
    },
    {
      "children": [
        20
      ],
      "extras": {
        "Flags": 67108878,
        "ID": 56,
        "Parent ID": 54
      },
      "name": "CLOTH_Bone_09",
      "rotation": [
        -7.216631274786778e-07,
        3.725355135486552e-09,
        -9.067311168564629e-08,
        1.0
      ],
      "scale": [
        1.0,
        1.0,
        1.0
      ],
      "translation": [
        0.2909599244594574,
        -8.82148754044465e-08,
        -9.536742595628311e-08
      ]
    },
    {
      "extras": {
        "Flags": 67108878,
        "ID": 58,
        "Parent ID": 56
      },
      "name": "CLOTH_Bone_10",
      "rotation": [
        1.1458995459179278e-06,
        -3.166498743212287e-07,
        -2.819368773998576e-07,
        1.0
      ],
      "scale": [
        1.0,
        1.0,
        1.0
      ],
      "translation": [
        0.23696307837963104,
        1.907348590179936e-08,
        -3.52859501617786e-07
      ]
    },
    {
      "children": [
        22
      ],
      "extras": {
        "Flags": 67108878,
        "ID": 60,
        "Parent ID": 14
      },
      "name": "CLOTH_Bone_00",
      "rotation": [
        -0.3550637364387512,
        -0.009039525873959064,
        0.003436804749071598,
        0.9347921013832092
      ],
      "scale": [
        1.0,
        1.0,
        1.0
      ],
      "translation": [
        0.26227691769599915,
        0.045931413769721985,
        0.03892471641302109
      ]
    },
    {
      "children": [
        23
      ],
      "extras": {
        "Flags": 67108878,
        "ID": 62,
        "Parent ID": 60
      },
      "name": "CLOTH_Bone_01",
      "rotation": [
        1.1077720955654513e-05,
        1.60189244979847e-07,
        1.620370824184647e-07,
        1.0
      ],
      "scale": [
        1.0,
        1.0,
        1.0
      ],
      "translation": [
        0.34345465898513794,
        9.596347894103019e-08,
        2.288818308215923e-07
      ]
    },
    {
      "children": [
        24
      ],
      "extras": {
        "Flags": 67108878,
        "ID": 64,
        "Parent ID": 62
      },
      "name": "CLOTH_Bone_02",
      "rotation": [
        -8.212129614548758e-06,
        -2.3655404390865442e-07,
        -2.3603357135471015e-07,
        1.0
      ],
      "scale": [
        1.0,
        1.0,
        1.0
      ],
      "translation": [
        0.31144553422927856,
        -1.6868114016688196e-07,
        2.384185791015625e-07
      ]
    },
    {
      "children": [
        25
      ],
      "extras": {
        "Flags": 67108878,
        "ID": 66,
        "Parent ID": 64
      },
      "name": "CLOTH_Bone_03",
      "rotation": [
        -3.3391340821253834e-06,
        -1.8628900644301893e-09,
        7.355973963285578e-08,
        1.0
      ],
      "scale": [
        1.0,
        1.0,
        1.0
      ],
      "translation": [
        0.294702410697937,
        2.0265579436795633e-08,
        0.0
      ]
    },
    {
      "children": [
        26
      ],
      "extras": {
        "Flags": 67108878,
        "ID": 68,
        "Parent ID": 66
      },
      "name": "CLOTH_Bone_04",
      "rotation": [
        -8.626830663160945e-07,
        1.648439962309567e-07,
        1.6110568878957565e-07,
        1.0
      ],
      "scale": [
        1.0,
        1.0,
        1.0
      ],
      "translation": [
        0.25442951917648315,
        -1.7881393032936899e-09,
        6.67572024326546e-08
      ]
    },
    {
      "extras": {
        "Flags": 67108878,
        "ID": 70,
        "Parent ID": 68
      },
      "name": "CLOTH_Bone_05",
      "rotation": [
        -1.4615514373872429e-05,
        -4.787045213561214e-07,
        3.2177933917409973e-07,
        1.0
      ],
      "scale": [
        1.0,
        1.0,
        1.0
      ],
      "translation": [
        0.20131680369377136,
        -1.2159347306806012e-07,
        -2.8610228852699038e-08
      ]
    },
    {
      "extras": {
        "Flags": 14,
        "ID": 33,
        "Parent ID": 5
      },
      "name": "C_BodyDeform_Def",
      "rotation": [
        0.0,
        0.0,
        0.0,
        1.0
      ],
      "scale": [
        1.0,
        1.0,
        1.0
      ],
      "translation": [
        0.0,
        0.0,
        0.0
      ]
    },
    {
      "extras": {
        "Flags": 14,
        "ID": 35,
        "Parent ID": 5
      },
      "name": "DirectAt",
      "rotation": [
        0.0,
        0.0,
        0.0,
        1.0
      ],
      "scale": [
        1.0,
        1.0,
        1.0
      ],
      "translation": [
        -1.531513333929979e-07,
        1.577721775177193e-32,
        -5.996703839628026e-05
      ]
    },
    {
      "extras": {
        "Flags": 526,
        "Has GPU LODs": false,
        "ID": 72,
        "Material Path": "Materials\\Actors\\FloaterA\\FloaterA_EggSack\\FloaterA_EggSack.mat",
        "NiIntegerExtraData:MaterialID": 1666484563,
        "Parent ID": 3
      },
      "mesh": 0,
      "name": "FloaterA_Eggsack:0",
      "rotation": [
        0.0,
        0.0,
        0.0,
        1.0
      ],
      "scale": [
        1.0,
        1.0,
        1.0
      ],
      "skin": 0,
      "translation": [
        0.0,
        0.0,
        0.0
      ]
    }
  ],
  "scenes": [
    {
      "name": "ExportScene",
      "nodes": [
        0
      ]
    }
  ],
  "skins": [
    {
      "inverseBindMatrices": 0,
      "joints": [
        4,
        21,
        22,
        10,
        27,
        2,
        16,
        19,
        20,
        18,
        26,
        13,
        14,
        15,
        17,
        11,
        12,
        25,
        24,
        23
      ],
      "skeleton": 1
    }
  ]
}
