{
  "accessors": [
    {
      "bufferView": 0,
      "componentType": 5126,
      "count": 7,
      "type": "MAT4"
    },
    {
      "bufferView": 1,
      "componentType": 5126,
      "count": 7,
      "type": "MAT4"
    },
    {
      "bufferView": 2,
      "componentType": 5126,
      "count": 18,
      "type": "MAT4"
    },
    {
      "bufferView": 3,
      "componentType": 5126,
      "count": 2822,
      "max": [
        0.22754600644111633,
        0.317514568567276,
        2.217352867126465
      ],
      "min": [
        -0.19348734617233276,
        -0.3800164759159088,
        0.8556169271469116
      ],
      "type": "VEC3"
    },
    {
      "bufferView": 4,
      "componentType": 5126,
      "count": 2822,
      "type": "VEC3"
    },
    {
      "bufferView": 5,
      "componentType": 5126,
      "count": 2822,
      "type": "VEC4"
    },
    {
      "bufferView": 6,
      "componentType": 5126,
      "count": 2822,
      "type": "VEC2"
    },
    {
      "bufferView": 7,
      "componentType": 5126,
      "count": 2822,
      "type": "VEC4"
    },
    {
      "bufferView": 8,
      "componentType": 5123,
      "count": 2822,
      "type": "VEC4"
    },
    {
      "bufferView": 9,
      "componentType": 5123,
      "count": 14976,
      "type": "SCALAR"
    },
    {
      "bufferView": 10,
      "componentType": 5126,
      "count": 2393,
      "max": [
        0.2152165323495865,
        0.3011566400527954,
        2.1912288665771484
      ],
      "min": [
        -0.17920468747615814,
        -0.3570665717124939,
        0.8596453666687012
      ],
      "type": "VEC3"
    },
    {
      "bufferView": 11,
      "componentType": 5126,
      "count": 2393,
      "type": "VEC3"
    },
    {
      "bufferView": 12,
      "componentType": 5126,
      "count": 2393,
      "type": "VEC4"
    },
    {
      "bufferView": 13,
      "componentType": 5126,
      "count": 2393,
      "type": "VEC2"
    },
    {
      "bufferView": 14,
      "componentType": 5126,
      "count": 2393,
      "type": "VEC4"
    },
    {
      "bufferView": 15,
      "componentType": 5123,
      "count": 2393,
      "type": "VEC4"
    },
    {
      "bufferView": 16,
      "componentType": 5123,
      "count": 12510,
      "type": "SCALAR"
    },
    {
      "bufferView": 17,
      "componentType": 5126,
      "count": 2089,
      "max": [
        0.11535996943712234,
        0.10046693682670593,
        1.1026947498321533
      ],
      "min": [
        -0.11560411751270294,
        -0.05688650161027908,
        -0.01672414317727089
      ],
      "type": "VEC3"
    },
    {
      "bufferView": 18,
      "componentType": 5126,
      "count": 2089,
      "type": "VEC3"
    },
    {
      "bufferView": 19,
      "componentType": 5126,
      "count": 2089,
      "type": "VEC4"
    },
    {
      "bufferView": 20,
      "componentType": 5126,
      "count": 2089,
      "type": "VEC2"
    },
    {
      "bufferView": 21,
      "componentType": 5126,
      "count": 2089,
      "type": "VEC4"
    },
    {
      "bufferView": 22,
      "componentType": 5126,
      "count": 2089,
      "type": "VEC4"
    },
    {
      "bufferView": 23,
      "componentType": 5123,
      "count": 2089,
      "type": "VEC4"
    },
    {
      "bufferView": 24,
      "componentType": 5123,
      "count": 2089,
      "type": "VEC4"
    },
    {
      "bufferView": 25,
      "componentType": 5123,
      "count": 9822,
      "type": "SCALAR"
    }
  ],
  "asset": {
    "generator": "NifSkope glTF 2.0 Exporter v1.2",
    "version": "2.0"
  },
  "bufferViews": [
    {
      "buffer": 0,
      "byteLength": 448
    },
    {
      "buffer": 0,
      "byteLength": 448,
      "byteOffset": 448
    },
    {
      "buffer": 0,
      "byteLength": 1152,
      "byteOffset": 896
    },
    {
      "buffer": 0,
      "byteLength": 33864,
      "byteOffset": 2048,
      "target": 34962
    },
    {
      "buffer": 0,
      "byteLength": 33864,
      "byteOffset": 35912,
      "target": 34962
    },
    {
      "buffer": 0,
      "byteLength": 45152,
      "byteOffset": 69776,
      "target": 34962
    },
    {
      "buffer": 0,
      "byteLength": 22576,
      "byteOffset": 114928,
      "target": 34962
    },
    {
      "buffer": 0,
      "byteLength": 45152,
      "byteOffset": 137504,
      "target": 34962
    },
    {
      "buffer": 0,
      "byteLength": 22576,
      "byteOffset": 182656,
      "target": 34962
    },
    {
      "buffer": 0,
      "byteLength": 29952,
      "byteOffset": 205232,
      "target": 34963
    },
    {
      "buffer": 0,
      "byteLength": 28716,
      "byteOffset": 235184,
      "target": 34962
    },
    {
      "buffer": 0,
      "byteLength": 28716,
      "byteOffset": 263900,
      "target": 34962
    },
    {
      "buffer": 0,
      "byteLength": 38288,
      "byteOffset": 292616,
      "target": 34962
    },
    {
      "buffer": 0,
      "byteLength": 19144,
      "byteOffset": 330904,
      "target": 34962
    },
    {
      "buffer": 0,
      "byteLength": 38288,
      "byteOffset": 350048,
      "target": 34962
    },
    {
      "buffer": 0,
      "byteLength": 19144,
      "byteOffset": 388336,
      "target": 34962
    },
    {
      "buffer": 0,
      "byteLength": 25020,
      "byteOffset": 407480,
      "target": 34963
    },
    {
      "buffer": 0,
      "byteLength": 25068,
      "byteOffset": 432500,
      "target": 34962
    },
    {
      "buffer": 0,
      "byteLength": 25068,
      "byteOffset": 457568,
      "target": 34962
    },
    {
      "buffer": 0,
      "byteLength": 33424,
      "byteOffset": 482636,
      "target": 34962
    },
    {
      "buffer": 0,
      "byteLength": 16712,
      "byteOffset": 516060,
      "target": 34962
    },
    {
      "buffer": 0,
      "byteLength": 33424,
      "byteOffset": 532772,
      "target": 34962
    },
    {
      "buffer": 0,
      "byteLength": 33424,
      "byteOffset": 566196,
      "target": 34962
    },
    {
      "buffer": 0,
      "byteLength": 16712,
      "byteOffset": 599620,
      "target": 34962
    },
    {
      "buffer": 0,
      "byteLength": 16712,
      "byteOffset": 616332,
      "target": 34962
    },
    {
      "buffer": 0,
      "byteLength": 19644,
      "byteOffset": 633044,
      "target": 34963
    }
  ],
  "buffers": [
    {
      "byteLength": 652688,
      "name": "Gossamer.bin",
      "uri": "Gossamer.bin"
    }
  ],
  "materials": [
    {
      "extras": {
        "Material Path": "Default"
      },
      "name": "Default"
    },
    {
      "extras": {
        "Material Path": "materials/actors/floatera/floatera_gossamer/floatera_gossamer_fx.mat"
      },
      "name": "Materials/Actors/Floatera/Floatera_Gossamer/Floatera_Gossamer_Fx"
    },
    {
      "extras": {
        "Material Path": "materials/actors/floatera/floatera_gossamer/floatera_gossamer.mat"
      },
      "name": "Materials/Actors/Floatera/Floatera_Gossamer/Floatera_Gossamer"
    }
  ],
  "meshes": [
    {
      "name": "FloaterA_Gossamer_OuterShell:1",
      "primitives": [
        {
          "attributes": {
            "JOINTS_0": 8,
            "NORMAL": 4,
            "POSITION": 3,
            "TANGENT": 5,
            "TEXCOORD_0": 6,
            "WEIGHTS_0": 7
          },
          "indices": 9,
          "material": 1,
          "mode": 4
        }
      ]
    },
    {
      "name": "FloaterA_Gossamer_InnerShell:0",
      "primitives": [
        {
          "attributes": {
            "JOINTS_0": 15,
            "NORMAL": 11,
            "POSITION": 10,
            "TANGENT": 12,
            "TEXCOORD_0": 13,
            "WEIGHTS_0": 14
          },
          "indices": 16,
          "material": 2,
          "mode": 4
        }
      ]
    },
    {
      "name": "FloaterA_Gossamer_Tendrils:0",
      "primitives": [
        {
          "attributes": {
            "JOINTS_0": 23,
            "JOINTS_1": 24,
            "NORMAL": 18,
            "POSITION": 17,
            "TANGENT": 19,
            "TEXCOORD_0": 20,
            "WEIGHTS_0": 21,
            "WEIGHTS_1": 22
          },
          "indices": 25,
          "material": 2,
          "mode": 4
        }
      ]
    }
  ],
  "nodes": [
    {
      "children": [
        1,
        28,
        29,
        30
      ],
      "extras": {
        "Flags": 14,
        "ID": 3,
        "Parent ID": 0
      },
      "name": "Root",
      "rotation": [
        -0.7071067690849304,
        0.0,
        0.0,
        0.7071067690849304
      ],
      "scale": [
        1.0,
        1.0,
        1.0
      ],
      "translation": [
        0.0,
        0.0,
        -0.0
      ]
    },
    {
      "children": [
        2,
        4,
        26,
        27
      ],
      "extras": {
        "Flags": 14,
        "ID": 5,
        "Parent ID": 3
      },
      "name": "COM",
      "rotation": [
        0.0,
        0.0,
        0.0,
        1.0
      ],
      "scale": [
        1.0,
        1.0,
        1.0
      ],
      "translation": [
        0.0,
        0.0,
        1.800459861755371
      ]
    },
    {
      "children": [
        3
      ],
      "extras": {
        "Flags": 14,
        "ID": 9,
        "Parent ID": 5
      },
      "name": "C_spine",
      "rotation": [
        0.0,
        -0.7071034908294678,
        0.0,
        0.7071100473403931
      ],
      "scale": [
        1.0,
        1.0,
        1.0
      ],
      "translation": [
        0.0,
        0.0,
        0.0
      ]
    },
    {
      "extras": {
        "Flags": 14,
        "ID": 12,
        "Parent ID": 9
      },
      "name": "xC_spine",
      "rotation": [
        5.245208285487024e-07,
        -3.576278459149762e-06,
        2.344790811167896e-12,
        1.0
      ],
      "scale": [
        1.0,
        1.0,
        1.0
      ],
      "translation": [
        0.1484997570514679,
        3.9239598237372775e-08,
        -4.577659922233579e-07
      ]
    },
    {
      "children": [
        5,
        25
      ],
      "extras": {
        "Flags": 14,
        "ID": 14,
        "Parent ID": 5
      },
      "name": "C_hips",
      "rotation": [
        3.392837584215158e-07,
        0.7071033716201782,
        -3.392805467683502e-07,
        0.7071101665496826
      ],
      "scale": [
        1.0,
        1.0,
        1.0
      ],
      "translation": [
        0.0,
        -2.000479959463064e-08,
        0.0
      ]
    },
    {
      "children": [
        6
      ],
      "extras": {
        "Flags": 14,
        "ID": 17,
        "Parent ID": 14
      },
      "name": "C_hips2",
      "rotation": [
        -2.384185791015625e-06,
        1.430511474609375e-06,
        1.0684954657169676e-11,
        1.0
      ],
      "scale": [
        1.0,
        1.0,
        1.0
      ],
      "translation": [
        0.3977999687194824,
        -1.9533253237113968e-07,
        -2.2888182229507947e-06
      ]
    },
    {
      "children": [
        7,
        10,
        17
      ],
      "extras": {
        "Flags": 14,
        "ID": 20,
        "Parent ID": 17
      },
      "name": "C_hips3",
      "rotation": [
        -4.76837158203125e-06,
        2.980229965032777e-07,
        1.648425319855651e-11,
        1.0
      ],
      "scale": [
        1.0,
        1.0,
        1.0
      ],
      "translation": [
        0.3994598388671875,
        1.8131551087208209e-06,
        -9.329872909802361e-07
      ]
    },
    {
      "children": [
        8
      ],
      "extras": {
        "Flags": 14,
        "ID": 23,
        "Parent ID": 20
      },
      "name": "C_hips4",
      "rotation": [
        -2.384185791015625e-06,
        1.0132789611816406e-06,
        1.4010754362248079e-11,
        1.0
      ],
      "scale": [
        1.0,
        1.0,
        1.0
      ],
      "translation": [
        0.36256805062294006,
        9.43586883295211e-07,
        6.044515998837596e-08
      ]
    },
    {
      "children": [
        9
      ],
      "extras": {
        "Flags": 14,
        "ID": 26,
        "Parent ID": 23
      },
      "name": "C_Hips5",
      "rotation": [
        -1.430511474609375e-06,
        8.344651405423065e-07,
        1.1140376815488295e-11,
        1.0
      ],
      "scale": [
        1.0,
        1.0,
        1.0
      ],
      "translation": [
        0.33581995964050293,
        -3.1648903586756205e-06,
        -3.6195688153384253e-06
      ]
    },
    {
      "extras": {
        "Flags": 14,
        "ID": 29,
        "Parent ID": 26
      },
      "name": "xC_Hips",
      "rotation": [
        -7.629395440744702e-06,
        2.9802333756379085e-07,
        1.1538879227113163e-11,
        1.0
      ],
      "scale": [
        1.0,
        1.0,
        1.0
      ],
      "translation": [
        0.2765215337276459,
        2.848467772764707e-07,
        -5.7220457705398076e-08
      ]
    },
    {
      "children": [
        11
      ],
      "extras": {
        "Flags": 603979790,
        "ID": 52,
        "Parent ID": 20
      },
      "name": "Cloth_Bone_009",
      "rotation": [
        0.7057245969772339,
        0.0798695906996727,
        0.044285453855991364,
        0.7025755643844604
      ],
      "scale": [
        1.0,
        1.0,
        1.0
      ],
      "translation": [
        0.2014344036579132,
        -0.0178214218467474,
        0.031757887452840805
      ]
    },
    {
      "children": [
        12
      ],
      "extras": {
        "Flags": 603979790,
        "ID": 54,
        "Parent ID": 52
      },
      "name": "Cloth_Bone_010",
      "rotation": [
        -0.00834098644554615,
        -0.014732880517840385,
        0.07434750348329544,
        0.9970886707305908
      ],
      "scale": [
        1.0,
        1.0,
        1.0
      ],
      "translation": [
        0.14252853393554688,
        -2.551078637225146e-07,
        9.53674295089968e-09
      ]
    },
    {
      "children": [
        13
      ],
      "extras": {
        "Flags": 603979790,
        "ID": 56,
        "Parent ID": 54
      },
      "name": "Cloth_Bone_011",
      "rotation": [
        -0.02235267497599125,
        -0.1252753883600235,
        -0.10709252208471298,
        0.9860718250274658
      ],
      "scale": [
        1.0,
        1.0,
        1.0
      ],
      "translation": [
        0.14159782230854034,
        6.294250169958104e-07,
        1.776356799695581e-17
      ]
    },
    {
      "children": [
        14
      ],
      "extras": {
        "Flags": 603979790,
        "ID": 58,
        "Parent ID": 56
      },
      "name": "Cloth_Bone_012",
      "rotation": [
        0.024253467097878456,
        0.15700921416282654,
        0.04776039719581604,
        0.9861434102058411
      ],
      "scale": [
        1.0,
        1.0,
        1.0
      ],
      "translation": [
        0.11317332834005356,
        -9.298324243900424e-08,
        -4.76837147544984e-09
      ]
    },
    {
      "children": [
        15
      ],
      "extras": {
        "Flags": 603979790,
        "ID": 60,
        "Parent ID": 58
      },
      "name": "Cloth_Bone_013",
      "rotation": [
        -0.04935330152511597,
        -0.1804809272289276,
        -0.1423705518245697,
        0.971967875957489
      ],
      "scale": [
        1.0,
        1.0,
        1.0
      ],
      "translation": [
        0.08769813179969788,
        -3.5762786065873797e-09,
        0.0
      ]
    },
    {
      "children": [
        16
      ],
      "extras": {
        "Flags": 603979790,
        "ID": 62,
        "Parent ID": 60
      },
      "name": "Cloth_Bone_014",
      "rotation": [
        0.12390004843473434,
        0.12914279103279114,
        0.30791622400283813,
        0.9344295263290405
      ],
      "scale": [
        1.0,
        1.0,
        1.0
      ],
      "translation": [
        0.07337974011898041,
        -4.76837147544984e-09,
        2.38418573772492e-09
      ]
    },
    {
      "extras": {
        "Flags": 67108878,
        "ID": 64,
        "Parent ID": 62
      },
      "name": "Cloth_Bone_015",
      "rotation": [
        -0.059623874723911285,
        -0.13607092201709747,
        -0.0659075528383255,
        0.9867045879364014
      ],
      "scale": [
        1.0,
        1.0,
        1.0
      ],
      "translation": [
        0.06629756838083267,
        6.67572024326546e-08,
        0.0
      ]
    },
    {
      "children": [
        18
      ],
      "extras": {
        "Flags": 603979790,
        "ID": 66,
        "Parent ID": 20
      },
      "name": "Cloth_Bone_001",
      "rotation": [
        0.7072194814682007,
        0.00827950332313776,
        -0.0034816667903214693,
        0.7069370150566101
      ],
      "scale": [
        1.0,
        1.0,
        1.0
      ],
      "translation": [
        0.18214042484760284,
        -0.025617526844143867,
        -0.02762565389275551
      ]
    },
    {
      "children": [
        19
      ],
      "extras": {
        "Flags": 603979790,
        "ID": 68,
        "Parent ID": 66
      },
      "name": "Cloth_Bone_002",
      "rotation": [
        -0.006764179095625877,
        -0.03011420927941799,
        0.06465114653110504,
        0.9974305033683777
      ],
      "scale": [
        1.0,
        1.0,
        1.0
      ],
      "translation": [
        0.16745734214782715,
        1.907348590179936e-08,
        7.1525572131747595e-09
      ]
    },
    {
      "children": [
        20
      ],
      "extras": {
        "Flags": 603979790,
        "ID": 70,
        "Parent ID": 68
      },
      "name": "Cloth_Bone_003",
      "rotation": [
        0.0353391170501709,
        0.1965009570121765,
        -0.1115608662366867,
        0.9734950661659241
      ],
      "scale": [
        1.0,
        1.0,
        1.0
      ],
      "translation": [
        0.13189543783664703,
        9.53674295089968e-09,
        0.0
      ]
    },
    {
      "children": [
        21
      ],
      "extras": {
        "Flags": 603979790,
        "ID": 72,
        "Parent ID": 70
      },
      "name": "Cloth_Bone_004",
      "rotation": [
        -0.029701318591833115,
        -0.23337408900260925,
        0.17093348503112793,
        0.9567842483520508
      ],
      "scale": [
        1.0,
        1.0,
        1.0
      ],
      "translation": [
        0.11488063633441925,
        0.0,
        0.0
      ]
    },
    {
      "children": [
        22
      ],
      "extras": {
        "Flags": 603979790,
        "ID": 74,
        "Parent ID": 72
      },
      "name": "Cloth_Bone_005",
      "rotation": [
        -0.02970077656209469,
        0.018774880096316338,
        -0.14990052580833435,
        0.9880765080451965
      ],
      "scale": [
        1.0,
        1.0,
        1.0
      ],
      "translation": [
        0.10936969518661499,
        0.0,
        0.0
      ]
    },
    {
      "children": [
        23
      ],
      "extras": {
        "Flags": 603979790,
        "ID": 76,
        "Parent ID": 74
      },
      "name": "Cloth_Bone_006",
      "rotation": [
        -0.004318639170378447,
        0.08447703719139099,
        0.1045515388250351,
        0.9909157156944275
      ],
      "scale": [
        1.0,
        1.0,
        1.0
      ],
      "translation": [
        0.10805148631334305,
        -9.53674295089968e-09,
        0.0
      ]
    },
    {
      "children": [
        24
      ],
      "extras": {
        "Flags": 603979790,
        "ID": 78,
        "Parent ID": 76
      },
      "name": "Cloth_Bone_007",
      "rotation": [
        0.05384701117873192,
        -0.02287719026207924,
        -0.13742443919181824,
        0.9887829422950745
      ],
      "scale": [
        1.0,
        1.0,
        1.0
      ],
      "translation": [
        0.06889843940734863,
        -1.4305113893442467e-07,
        3.3306689994292145e-18
      ]
    },
    {
      "extras": {
        "Flags": 67108878,
        "ID": 80,
        "Parent ID": 78
      },
      "name": "Cloth_Bone_008",
      "rotation": [
        -0.013567219488322735,
        0.058215223252773285,
        0.08741097897291183,
        0.9943773150444031
      ],
      "scale": [
        1.0,
        1.0,
        1.0
      ],
      "translation": [
        0.0797545313835144,
        -2.6226043559063328e-08,
        -2.2204459996194763e-18
      ]
    },
    {
      "extras": {
        "Flags": 14,
        "ID": 31,
        "Parent ID": 14
      },
      "name": "C_BodyDeform2_Def",
      "rotation": [
        -1.6109943240527613e-12,
        -0.7071033120155334,
        -1.6109788199616948e-12,
        0.7071101665496826
      ],
      "scale": [
        0.9999999403953552,
        0.9999999403953552,
        0.9999999403953552
      ],
      "translation": [
        0.11936965584754944,
        1.3087570138736737e-08,
        -1.073332896339707e-06
      ]
    },
    {
      "extras": {
        "Flags": 14,
        "ID": 33,
        "Parent ID": 5
      },
      "name": "C_BodyDeform_Def",
      "rotation": [
        0.0,
        0.0,
        0.0,
        1.0
      ],
      "scale": [
        1.0,
        1.0,
        1.0
      ],
      "translation": [
        0.0,
        0.0,
        0.0
      ]
    },
    {
      "extras": {
        "Flags": 14,
        "ID": 35,
        "Parent ID": 5
      },
      "name": "DirectAt",
      "rotation": [
        0.0,
        0.0,
        0.0,
        1.0
      ],
      "scale": [
        1.0,
        1.0,
        1.0
      ],
      "translation": [
        -1.531513333929979e-07,
        1.577721775177193e-32,
        -5.996703839628026e-05
      ]
    },
    {
      "extras": {
        "Flags": 526,
        "Has GPU LODs": false,
        "ID": 40,
        "Material Path": "Materials\\Actors\\FloaterA\\FloaterA_Gossamer\\FloaterA_Gossamer_FX.mat",
        "NiIntegerExtraData:MaterialID": 1758639786,
        "Parent ID": 3
      },
      "mesh": 0,
      "name": "FloaterA_Gossamer_OuterShell:1",
      "rotation": [
        0.0,
        0.0,
        0.0,
        1.0
      ],
      "scale": [
        1.0,
        1.0,
        1.0
      ],
      "skin": 0,
      "translation": [
        0.0,
        0.0,
        0.0
      ]
    },
    {
      "extras": {
        "Flags": 526,
        "Has GPU LODs": false,
        "ID": 46,
        "Material Path": "Materials\\Actors\\FloaterA\\FloaterA_Gossamer\\FloaterA_Gossamer.mat",
        "NiIntegerExtraData:MaterialID": 1689059904,
        "Parent ID": 3
      },
      "mesh": 1,
      "name": "FloaterA_Gossamer_InnerShell:0",
      "rotation": [
        0.0,
        0.0,
        0.0,
        1.0
      ],
      "scale": [
        1.0,
        1.0,
        1.0
      ],
      "skin": 1,
      "translation": [
        0.0,
        0.0,
        0.0
      ]
    },
    {
      "extras": {
        "Flags": 526,
        "Has GPU LODs": false,
        "ID": 82,
        "Material Path": "Materials\\Actors\\FloaterA\\FloaterA_Gossamer\\FloaterA_Gossamer.mat",
        "NiIntegerExtraData:MaterialID": 1689059904,
        "Parent ID": 3
      },
      "mesh": 2,
      "name": "FloaterA_Gossamer_Tendrils:0",
      "rotation": [
        0.0,
        0.0,
        0.0,
        1.0
      ],
      "scale": [
        1.0,
        1.0,
        1.0
      ],
      "skin": 2,
      "translation": [
        0.0,
        0.0,
        0.0
      ]
    }
  ],
  "scenes": [
    {
      "name": "ExportScene",
      "nodes": [
        0
      ]
    }
  ],
  "skins": [
    {
      "inverseBindMatrices": 0,
      "joints": [
        5,
        4,
        6,
        7,
        2,
        25,
        26
      ],
      "skeleton": 1
    },
    {
      "inverseBindMatrices": 1,
      "joints": [
        4,
        2,
        5,
        6,
        7,
        26,
        25
      ],
      "skeleton": 1
    },
    {
      "inverseBindMatrices": 2,
      "joints": [
        5,
        6,
        7,
        17,
        10,
        18,
        11,
        19,
        20,
        21,
        22,
        23,
        24,
        12,
        13,
        14,
        15,
        16
      ],
      "skeleton": 1
    }
  ]
}
