{
  "accessors": [
    {
      "bufferView": 0,
      "componentType": 5126,
      "count": 36,
      "type": "MAT4"
    },
    {
      "bufferView": 1,
      "componentType": 5126,
      "count": 2,
      "type": "MAT4"
    },
    {
      "bufferView": 2,
      "componentType": 5126,
      "count": 16526,
      "max": [
        0.7578356266021729,
        0.7280495762825012,
        2.1253089904785156
      ],
      "min": [
        -0.8656269907951355,
        -0.617084264755249,
        -0.09411908686161041
      ],
      "type": "VEC3"
    },
    {
      "bufferView": 3,
      "componentType": 5126,
      "count": 16526,
      "type": "VEC3"
    },
    {
      "bufferView": 4,
      "componentType": 5126,
      "count": 16526,
      "type": "VEC4"
    },
    {
      "bufferView": 5,
      "componentType": 5126,
      "count": 16526,
      "type": "VEC2"
    },
    {
      "bufferView": 6,
      "componentType": 5126,
      "count": 16526,
      "type": "VEC4"
    },
    {
      "bufferView": 7,
      "componentType": 5126,
      "count": 16526,
      "type": "VEC4"
    },
    {
      "bufferView": 8,
      "componentType": 5123,
      "count": 16526,
      "type": "VEC4"
    },
    {
      "bufferView": 9,
      "componentType": 5123,
      "count": 16526,
      "type": "VEC4"
    },
    {
      "bufferView": 10,
      "componentType": 5123,
      "count": 77142,
      "type": "SCALAR"
    },
    {
      "bufferView": 11,
      "componentType": 5126,
      "count": 1821,
      "max": [
        0.5134434103965759,
        0.5764335989952087,
        2.1286048889160156
      ],
      "min": [
        -0.6562700271606445,
        -0.5645924210548401,
        1.547898769378662
      ],
      "type": "VEC3"
    },
    {
      "bufferView": 12,
      "componentType": 5126,
      "count": 1821,
      "type": "VEC3"
    },
    {
      "bufferView": 13,
      "componentType": 5126,
      "count": 1821,
      "type": "VEC4"
    },
    {
      "bufferView": 14,
      "componentType": 5126,
      "count": 1821,
      "type": "VEC2"
    },
    {
      "bufferView": 15,
      "componentType": 5126,
      "count": 1821,
      "type": "VEC4"
    },
    {
      "bufferView": 16,
      "componentType": 5123,
      "count": 1821,
      "type": "VEC4"
    },
    {
      "bufferView": 17,
      "componentType": 5123,
      "count": 8820,
      "type": "SCALAR"
    }
  ],
  "asset": {
    "generator": "NifSkope glTF 2.0 Exporter v1.2",
    "version": "2.0"
  },
  "bufferViews": [
    {
      "buffer": 0,
      "byteLength": 2304
    },
    {
      "buffer": 0,
      "byteLength": 128,
      "byteOffset": 2304
    },
    {
      "buffer": 0,
      "byteLength": 198312,
      "byteOffset": 2432,
      "target": 34962
    },
    {
      "buffer": 0,
      "byteLength": 198312,
      "byteOffset": 200744,
      "target": 34962
    },
    {
      "buffer": 0,
      "byteLength": 264416,
      "byteOffset": 399056,
      "target": 34962
    },
    {
      "buffer": 0,
      "byteLength": 132208,
      "byteOffset": 663472,
      "target": 34962
    },
    {
      "buffer": 0,
      "byteLength": 264416,
      "byteOffset": 795680,
      "target": 34962
    },
    {
      "buffer": 0,
      "byteLength": 264416,
      "byteOffset": 1060096,
      "target": 34962
    },
    {
      "buffer": 0,
      "byteLength": 132208,
      "byteOffset": 1324512,
      "target": 34962
    },
    {
      "buffer": 0,
      "byteLength": 132208,
      "byteOffset": 1456720,
      "target": 34962
    },
    {
      "buffer": 0,
      "byteLength": 154284,
      "byteOffset": 1588928,
      "target": 34963
    },
    {
      "buffer": 0,
      "byteLength": 21852,
      "byteOffset": 1743212,
      "target": 34962
    },
    {
      "buffer": 0,
      "byteLength": 21852,
      "byteOffset": 1765064,
      "target": 34962
    },
    {
      "buffer": 0,
      "byteLength": 29136,
      "byteOffset": 1786916,
      "target": 34962
    },
    {
      "buffer": 0,
      "byteLength": 14568,
      "byteOffset": 1816052,
      "target": 34962
    },
    {
      "buffer": 0,
      "byteLength": 29136,
      "byteOffset": 1830620,
      "target": 34962
    },
    {
      "buffer": 0,
      "byteLength": 14568,
      "byteOffset": 1859756,
      "target": 34962
    },
    {
      "buffer": 0,
      "byteLength": 17640,
      "byteOffset": 1874324,
      "target": 34963
    }
  ],
  "buffers": [
    {
      "byteLength": 1891964,
      "name": "Jellyfin.bin",
      "uri": "Jellyfin.bin"
    }
  ],
  "materials": [
    {
      "extras": {
        "Material Path": "Default"
      },
      "name": "Default"
    },
    {
      "extras": {
        "Material Path": "materials/actors/floatera/floatera_jellyfin/floatera_jellyfin_01.mat"
      },
      "name": "Materials/Actors/Floatera/Floatera_Jellyfin/Floatera_Jellyfin_01"
    },
    {
      "extras": {
        "Material Path": "materials/actors/floatera/floatera_jellyfin/floatera_jellyfin_02.mat"
      },
      "name": "Materials/Actors/Floatera/Floatera_Jellyfin/Floatera_Jellyfin_02"
    }
  ],
  "meshes": [
    {
      "name": "FloaterA_JellyFin:0",
      "primitives": [
        {
          "attributes": {
            "JOINTS_0": 8,
            "JOINTS_1": 9,
            "NORMAL": 3,
            "POSITION": 2,
            "TANGENT": 4,
            "TEXCOORD_0": 5,
            "WEIGHTS_0": 6,
            "WEIGHTS_1": 7
          },
          "indices": 10,
          "material": 1,
          "mode": 4
        }
      ]
    },
    {
      "name": "FloaterA_05_JellyFin_02:0",
      "primitives": [
        {
          "attributes": {
            "JOINTS_0": 16,
            "NORMAL": 12,
            "POSITION": 11,
            "TANGENT": 13,
            "TEXCOORD_0": 14,
            "WEIGHTS_0": 15
          },
          "indices": 17,
          "material": 2,
          "mode": 4
        }
      ]
    }
  ],
  "nodes": [
    {
      "children": [
        1,
        42,
        43
      ],
      "extras": {
        "Flags": 14,
        "ID": 3,
        "Parent ID": 0
      },
      "name": "Root",
      "rotation": [
        -0.7071067690849304,
        0.0,
        0.0,
        0.7071067690849304
      ],
      "scale": [
        1.0,
        1.0,
        1.0
      ],
      "translation": [
        0.0,
        0.0,
        -0.0
      ]
    },
    {
      "children": [
        2,
        4,
        40,
        41
      ],
      "extras": {
        "Flags": 14,
        "ID": 5,
        "Parent ID": 3
      },
      "name": "COM",
      "rotation": [
        0.0,
        0.0,
        0.0,
        1.0
      ],
      "scale": [
        1.0,
        1.0,
        1.0
      ],
      "translation": [
        0.0,
        0.0,
        1.800459861755371
      ]
    },
    {
      "children": [
        3
      ],
      "extras": {
        "Flags": 14,
        "ID": 9,
        "Parent ID": 5
      },
      "name": "C_spine",
      "rotation": [
        0.0,
        -0.7071034908294678,
        0.0,
        0.7071100473403931
      ],
      "scale": [
        1.0,
        1.0,
        1.0
      ],
      "translation": [
        0.0,
        0.0,
        0.0
      ]
    },
    {
      "extras": {
        "Flags": 14,
        "ID": 12,
        "Parent ID": 9
      },
      "name": "xC_spine",
      "rotation": [
        5.245208285487024e-07,
        -3.576278459149762e-06,
        2.344790811167896e-12,
        1.0
      ],
      "scale": [
        1.0,
        1.0,
        1.0
      ],
      "translation": [
        0.1484997570514679,
        3.9239598237372775e-08,
        -4.577659922233579e-07
      ]
    },
    {
      "children": [
        5,
        39
      ],
      "extras": {
        "Flags": 14,
        "ID": 14,
        "Parent ID": 5
      },
      "name": "C_hips",
      "rotation": [
        3.392837584215158e-07,
        0.7071033716201782,
        -3.392805467683502e-07,
        0.7071101665496826
      ],
      "scale": [
        1.0,
        1.0,
        1.0
      ],
      "translation": [
        0.0,
        -2.000479959463064e-08,
        0.0
      ]
    },
    {
      "children": [
        6,
        15,
        16,
        17,
        18,
        19,
        20,
        21,
        22,
        23,
        24,
        25,
        26,
        27,
        28,
        29,
        30,
        31,
        32,
        33,
        34,
        35,
        36,
        37,
        38
      ],
      "extras": {
        "Flags": 14,
        "ID": 17,
        "Parent ID": 14
      },
      "name": "C_hips2",
      "rotation": [
        -2.384185791015625e-06,
        1.430511474609375e-06,
        1.0684954657169676e-11,
        1.0
      ],
      "scale": [
        1.0,
        1.0,
        1.0
      ],
      "translation": [
        0.3977999687194824,
        -1.9533253237113968e-07,
        -2.2888182229507947e-06
      ]
    },
    {
      "children": [
        7,
        10,
        11,
        12,
        13,
        14
      ],
      "extras": {
        "Flags": 14,
        "ID": 20,
        "Parent ID": 17
      },
      "name": "C_hips3",
      "rotation": [
        -4.76837158203125e-06,
        2.980229965032777e-07,
        1.648425319855651e-11,
        1.0
      ],
      "scale": [
        1.0,
        1.0,
        1.0
      ],
      "translation": [
        0.3994598388671875,
        1.8131551087208209e-06,
        -9.329872909802361e-07
      ]
    },
    {
      "children": [
        8
      ],
      "extras": {
        "Flags": 14,
        "ID": 23,
        "Parent ID": 20
      },
      "name": "C_hips4",
      "rotation": [
        -2.384185791015625e-06,
        1.0132789611816406e-06,
        1.4010754362248079e-11,
        1.0
      ],
      "scale": [
        1.0,
        1.0,
        1.0
      ],
      "translation": [
        0.36256805062294006,
        9.43586883295211e-07,
        6.044515998837596e-08
      ]
    },
    {
      "children": [
        9
      ],
      "extras": {
        "Flags": 14,
        "ID": 26,
        "Parent ID": 23
      },
      "name": "C_Hips5",
      "rotation": [
        -1.430511474609375e-06,
        8.344651405423065e-07,
        1.1140376815488295e-11,
        1.0
      ],
      "scale": [
        1.0,
        1.0,
        1.0
      ],
      "translation": [
        0.33581995964050293,
        -3.1648903586756205e-06,
        -3.6195688153384253e-06
      ]
    },
    {
      "extras": {
        "Flags": 14,
        "ID": 29,
        "Parent ID": 26
      },
      "name": "xC_Hips",
      "rotation": [
        -7.629395440744702e-06,
        2.9802333756379085e-07,
        1.1538879227113163e-11,
        1.0
      ],
      "scale": [
        1.0,
        1.0,
        1.0
      ],
      "translation": [
        0.2765215337276459,
        2.848467772764707e-07,
        -5.7220457705398076e-08
      ]
    },
    {
      "extras": {
        "Flags": 67108878,
        "ID": 40,
        "Parent ID": 20
      },
      "name": "CLOTH_Bone_25",
      "rotation": [
        0.6998274922370911,
        0.5398181080818176,
        -0.44912827014923096,
        -0.13084998726844788
      ],
      "scale": [
        1.0,
        1.0,
        1.0
      ],
      "translation": [
        0.05986221134662628,
        -0.003370737424120307,
        0.045681990683078766
      ]
    },
    {
      "extras": {
        "Flags": 67108878,
        "ID": 42,
        "Parent ID": 20
      },
      "name": "CLOTH_Bone_26",
      "rotation": [
        0.6231827139854431,
        -0.2570423185825348,
        -0.5709176659584045,
        0.4686424434185028
      ],
      "scale": [
        1.0,
        1.0,
        1.0
      ],
      "translation": [
        0.10509246587753296,
        -0.04406552389264107,
        0.01812286302447319
      ]
    },
    {
      "extras": {
        "Flags": 67108878,
        "ID": 44,
        "Parent ID": 20
      },
      "name": "CLOTH_Bone_27",
      "rotation": [
        -0.09089802205562592,
        -0.6631121635437012,
        0.02739664539694786,
        0.7424750328063965
      ],
      "scale": [
        1.0,
        1.0,
        1.0
      ],
      "translation": [
        0.13361534476280212,
        0.006704782601445913,
        0.043624646961688995
      ]
    },
    {
      "extras": {
        "Flags": 67108878,
        "ID": 46,
        "Parent ID": 20
      },
      "name": "CLOTH_Bone_28",
      "rotation": [
        0.694463849067688,
        0.30964839458465576,
        -0.6205180287361145,
        -0.1918209046125412
      ],
      "scale": [
        1.0,
        1.0,
        1.0
      ],
      "translation": [
        0.14575889706611633,
        -0.004593747667968273,
        -0.008710632100701332
      ]
    },
    {
      "extras": {
        "Flags": 67108878,
        "ID": 48,
        "Parent ID": 20
      },
      "name": "CLOTH_Bone_29",
      "rotation": [
        0.46330130100250244,
        -0.2866091728210449,
        -0.5642983913421631,
        0.6203018426895142
      ],
      "scale": [
        1.0,
        1.0,
        1.0
      ],
      "translation": [
        0.1761920154094696,
        -0.03066110797226429,
        0.020555725321173668
      ]
    },
    {
      "extras": {
        "Flags": 67108878,
        "ID": 50,
        "Parent ID": 17
      },
      "name": "CLOTH_Bone_08",
      "rotation": [
        0.7964213490486145,
        0.22931206226348877,
        -0.5237017273902893,
        -0.19714340567588806
      ],
      "scale": [
        1.0,
        1.0,
        1.0
      ],
      "translation": [
        0.09998840093612671,
        0.04235776513814926,
        -0.13286344707012177
      ]
    },
    {
      "extras": {
        "Flags": 67108878,
        "ID": 52,
        "Parent ID": 17
      },
      "name": "CLOTH_Bone_09",
      "rotation": [
        0.8108198642730713,
        -0.1814073920249939,
        -0.5343561172485352,
        0.15532562136650085
      ],
      "scale": [
        1.0,
        1.0,
        1.0
      ],
      "translation": [
        0.09500304609537125,
        -0.0994381383061409,
        -0.11647185683250427
      ]
    },
    {
      "extras": {
        "Flags": 67108878,
        "ID": 54,
        "Parent ID": 17
      },
      "name": "CLOTH_Bone_10",
      "rotation": [
        0.49123355746269226,
        -0.5021061301231384,
        -0.4423748254776001,
        0.5575693249702454
      ],
      "scale": [
        1.0,
        1.0,
        1.0
      ],
      "translation": [
        0.0820811465382576,
        -0.15080423653125763,
        0.013923951424658298
      ]
    },
    {
      "extras": {
        "Flags": 67108878,
        "ID": 56,
        "Parent ID": 17
      },
      "name": "CLOTH_Bone_11",
      "rotation": [
        0.1506686806678772,
        -0.6786130666732788,
        -0.11538900434970856,
        0.7095552682876587
      ],
      "scale": [
        1.0,
        1.0,
        1.0
      ],
      "translation": [
        0.11446334421634674,
        -0.061877258121967316,
        0.12924468517303467
      ]
    },
    {
      "extras": {
        "Flags": 67108878,
        "ID": 58,
        "Parent ID": 17
      },
      "name": "CLOTH_Bone_12",
      "rotation": [
        -0.35844486951828003,
        -0.6141130924224854,
        0.22603866457939148,
        0.6657994389533997
      ],
      "scale": [
        1.0,
        1.0,
        1.0
      ],
      "translation": [
        0.11523894965648651,
        0.08277137577533722,
        0.08699523657560349
      ]
    },
    {
      "extras": {
        "Flags": 67108878,
        "ID": 60,
        "Parent ID": 17
      },
      "name": "CLOTH_Bone_04",
      "rotation": [
        0.47456085681915283,
        -0.5298964381217957,
        -0.3661477565765381,
        0.599947988986969
      ],
      "scale": [
        1.0,
        1.0,
        1.0
      ],
      "translation": [
        -0.007924957200884819,
        -0.14371316134929657,
        0.05493425205349922
      ]
    },
    {
      "extras": {
        "Flags": 67108878,
        "ID": 62,
        "Parent ID": 17
      },
      "name": "CLOTH_Bone_03",
      "rotation": [
        0.7962122559547424,
        -0.1406928151845932,
        -0.5818272829055786,
        0.08791250735521317
      ],
      "scale": [
        1.0,
        1.0,
        1.0
      ],
      "translation": [
        0.013464507646858692,
        -0.05529414862394333,
        -0.15143638849258423
      ]
    },
    {
      "extras": {
        "Flags": 67108878,
        "ID": 64,
        "Parent ID": 17
      },
      "name": "CLOTH_Bone_02",
      "rotation": [
        0.7555596232414246,
        0.287885844707489,
        -0.5444744825363159,
        -0.22315676510334015
      ],
      "scale": [
        1.0,
        1.0,
        1.0
      ],
      "translation": [
        -0.016351623460650444,
        0.14182205498218536,
        -0.012260990217328072
      ]
    },
    {
      "extras": {
        "Flags": 67108878,
        "ID": 66,
        "Parent ID": 17
      },
      "name": "CLOTH_Bone_05",
      "rotation": [
        0.17226238548755646,
        -0.7149936556816101,
        -0.09043591469526291,
        0.6715140342712402
      ],
      "scale": [
        1.0,
        1.0,
        1.0
      ],
      "translation": [
        -0.01613204926252365,
        -0.019737843424081802,
        0.139962300658226
      ]
    },
    {
      "extras": {
        "Flags": 67108878,
        "ID": 68,
        "Parent ID": 17
      },
      "name": "CLOTH_Bone_06",
      "rotation": [
        -0.2903020679950714,
        -0.682959258556366,
        0.14513041079044342,
        0.6543918251991272
      ],
      "scale": [
        1.0,
        1.0,
        1.0
      ],
      "translation": [
        0.0016767883207648993,
        0.09687471389770508,
        0.10750655829906464
      ]
    },
    {
      "extras": {
        "Flags": 67108878,
        "ID": 70,
        "Parent ID": 17
      },
      "name": "CLOTH_Bone_01",
      "rotation": [
        -0.057122014462947845,
        -0.7224769592285156,
        0.0030713360756635666,
        0.6890244483947754
      ],
      "scale": [
        1.0,
        1.0,
        1.0
      ],
      "translation": [
        -0.07502105832099915,
        -0.010676536709070206,
        0.15583017468452454
      ]
    },
    {
      "extras": {
        "Flags": 67108878,
        "ID": 72,
        "Parent ID": 17
      },
      "name": "CLOTH_Bone_14",
      "rotation": [
        0.8309125900268555,
        -0.1765526980161667,
        -0.506089448928833,
        0.14928758144378662
      ],
      "scale": [
        1.0,
        1.0,
        1.0
      ],
      "translation": [
        0.1845816820859909,
        -0.05149339884519577,
        -0.07727234065532684
      ]
    },
    {
      "extras": {
        "Flags": 67108878,
        "ID": 74,
        "Parent ID": 17
      },
      "name": "CLOTH_Bone_13",
      "rotation": [
        0.820163905620575,
        0.256294846534729,
        -0.44119617342948914,
        -0.2588244080543518
      ],
      "scale": [
        1.0,
        1.0,
        1.0
      ],
      "translation": [
        0.17239250242710114,
        0.09718123078346252,
        -0.05503784120082855
      ]
    },
    {
      "extras": {
        "Flags": 67108878,
        "ID": 76,
        "Parent ID": 17
      },
      "name": "CLOTH_Bone_15",
      "rotation": [
        0.41340601444244385,
        -0.5447974801063538,
        -0.43704938888549805,
        0.5841909050941467
      ],
      "scale": [
        1.0,
        1.0,
        1.0
      ],
      "translation": [
        0.20151633024215698,
        -0.11366258561611176,
        0.01168846059590578
      ]
    },
    {
      "extras": {
        "Flags": 67108878,
        "ID": 78,
        "Parent ID": 17
      },
      "name": "CLOTH_Bone_16",
      "rotation": [
        0.023176679387688637,
        -0.7513921856880188,
        -0.06667904555797577,
        0.6560689806938171
      ],
      "scale": [
        1.0,
        1.0,
        1.0
      ],
      "translation": [
        0.20946578681468964,
        -0.011760515160858631,
        0.07170410454273224
      ]
    },
    {
      "extras": {
        "Flags": 67108878,
        "ID": 80,
        "Parent ID": 17
      },
      "name": "CLOTH_Bone_17",
      "rotation": [
        -0.5450838804244995,
        -0.5856953263282776,
        0.26453250646591187,
        0.5383931994438171
      ],
      "scale": [
        1.0,
        1.0,
        1.0
      ],
      "translation": [
        0.22850799560546875,
        0.02618393674492836,
        0.024024276062846184
      ]
    },
    {
      "extras": {
        "Flags": 67108878,
        "ID": 82,
        "Parent ID": 17
      },
      "name": "CLOTH_Bone_18",
      "rotation": [
        0.8034847378730774,
        0.1332850158214569,
        -0.5751439332962036,
        -0.07652992010116577
      ],
      "scale": [
        1.0,
        1.0,
        1.0
      ],
      "translation": [
        0.2623482346534729,
        -0.04371831938624382,
        -0.01346793957054615
      ]
    },
    {
      "extras": {
        "Flags": 67108878,
        "ID": 84,
        "Parent ID": 17
      },
      "name": "CLOTH_Bone_19",
      "rotation": [
        0.5920788645744324,
        -0.410904198884964,
        -0.5605655908584595,
        0.4078807830810547
      ],
      "scale": [
        1.0,
        1.0,
        1.0
      ],
      "translation": [
        0.27609381079673767,
        -0.0850815623998642,
        0.07426024973392487
      ]
    },
    {
      "extras": {
        "Flags": 67108878,
        "ID": 86,
        "Parent ID": 17
      },
      "name": "CLOTH_Bone_20",
      "rotation": [
        0.11190829426050186,
        -0.7669387459754944,
        -0.12853339314460754,
        0.6186765432357788
      ],
      "scale": [
        1.0,
        1.0,
        1.0
      ],
      "translation": [
        0.2969333529472351,
        -0.011769035831093788,
        0.09913536161184311
      ]
    },
    {
      "extras": {
        "Flags": 67108878,
        "ID": 88,
        "Parent ID": 17
      },
      "name": "CLOTH_Bone_21",
      "rotation": [
        -0.49867743253707886,
        -0.6261682510375977,
        0.3197537958621979,
        0.5069432854652405
      ],
      "scale": [
        1.0,
        1.0,
        1.0
      ],
      "translation": [
        0.3215119242668152,
        0.041702814400196075,
        0.029310530051589012
      ]
    },
    {
      "extras": {
        "Flags": 67108878,
        "ID": 90,
        "Parent ID": 17
      },
      "name": "CLOTH_Bone_22",
      "rotation": [
        0.8041113615036011,
        -0.059222739189863205,
        -0.5887235403060913,
        0.05746498331427574
      ],
      "scale": [
        1.0,
        1.0,
        1.0
      ],
      "translation": [
        0.34447425603866577,
        -0.03407418355345726,
        -0.008318251930177212
      ]
    },
    {
      "extras": {
        "Flags": 67108878,
        "ID": 92,
        "Parent ID": 17
      },
      "name": "CLOTH_Bone_23",
      "rotation": [
        0.4497613310813904,
        -0.4638778865337372,
        -0.4551113545894623,
        0.6127036213874817
      ],
      "scale": [
        1.0,
        1.0,
        1.0
      ],
      "translation": [
        0.3657204210758209,
        -0.07429616153240204,
        0.034314800053834915
      ]
    },
    {
      "extras": {
        "Flags": 67108878,
        "ID": 94,
        "Parent ID": 17
      },
      "name": "CLOTH_Bone_24",
      "rotation": [
        -0.14029714465141296,
        -0.6552401781082153,
        -0.053679924458265305,
        0.740334689617157
      ],
      "scale": [
        1.0,
        1.0,
        1.0
      ],
      "translation": [
        0.38645461201667786,
        -0.02240288443863392,
        0.07075110822916031
      ]
    },
    {
      "extras": {
        "Flags": 67108878,
        "ID": 96,
        "Parent ID": 17
      },
      "name": "CLOTH_Bone_07",
      "rotation": [
        0.6048803329467773,
        0.5515756607055664,
        -0.4156271815299988,
        -0.39640653133392334
      ],
      "scale": [
        1.0,
        1.0,
        1.0
      ],
      "translation": [
        0.06438689678907394,
        0.1404491811990738,
        -0.015129241161048412
      ]
    },
    {
      "extras": {
        "Flags": 14,
        "ID": 31,
        "Parent ID": 14
      },
      "name": "C_BodyDeform2_Def",
      "rotation": [
        -1.6109943240527613e-12,
        -0.7071033120155334,
        -1.6109788199616948e-12,
        0.7071101665496826
      ],
      "scale": [
        0.9999999403953552,
        0.9999999403953552,
        0.9999999403953552
      ],
      "translation": [
        0.11936965584754944,
        1.3087570138736737e-08,
        -1.073332896339707e-06
      ]
    },
    {
      "extras": {
        "Flags": 14,
        "ID": 33,
        "Parent ID": 5
      },
      "name": "C_BodyDeform_Def",
      "rotation": [
        0.0,
        0.0,
        0.0,
        1.0
      ],
      "scale": [
        1.0,
        1.0,
        1.0
      ],
      "translation": [
        0.0,
        0.0,
        0.0
      ]
    },
    {
      "extras": {
        "Flags": 14,
        "ID": 35,
        "Parent ID": 5
      },
      "name": "DirectAt",
      "rotation": [
        0.0,
        0.0,
        0.0,
        1.0
      ],
      "scale": [
        1.0,
        1.0,
        1.0
      ],
      "translation": [
        -1.531513333929979e-07,
        1.577721775177193e-32,
        -5.996703839628026e-05
      ]
    },
    {
      "extras": {
        "Flags": 526,
        "Has GPU LODs": false,
        "ID": 98,
        "Material Path": "Materials\\Actors\\FloaterA\\FloaterA_Jellyfin\\FloaterA_JellyFin_01.mat",
        "NiIntegerExtraData:MaterialID": 1121618954,
        "Parent ID": 3
      },
      "mesh": 0,
      "name": "FloaterA_JellyFin:0",
      "rotation": [
        3.0616171314629196e-17,
        0.0,
        0.0,
        1.0
      ],
      "scale": [
        1.0,
        1.0,
        1.0
      ],
      "skin": 0,
      "translation": [
        0.0,
        0.0,
        0.0
      ]
    },
    {
      "extras": {
        "Flags": 526,
        "Has GPU LODs": false,
        "ID": 104,
        "Material Path": "Materials\\Actors\\FloaterA\\FloaterA_Jellyfin\\FloaterA_JellyFin_02.mat",
        "NiIntegerExtraData:MaterialID": 91944666,
        "Parent ID": 3
      },
      "mesh": 1,
      "name": "FloaterA_05_JellyFin_02:0",
      "rotation": [
        3.0616171314629196e-17,
        0.0,
        0.0,
        1.0
      ],
      "scale": [
        1.0,
        1.0,
        1.0
      ],
      "skin": 1,
      "translation": [
        0.0,
        0.0,
        0.0
      ]
    }
  ],
  "scenes": [
    {
      "name": "ExportScene",
      "nodes": [
        0
      ]
    }
  ],
  "skins": [
    {
      "inverseBindMatrices": 0,
      "joints": [
        4,
        5,
        2,
        6,
        7,
        8,
        30,
        31,
        14,
        13,
        10,
        11,
        12,
        37,
        36,
        35,
        33,
        34,
        32,
        16,
        17,
        29,
        21,
        18,
        19,
        28,
        39,
        25,
        26,
        23,
        24,
        15,
        38,
        27,
        20,
        22
      ],
      "skeleton": 1
    },
    {
      "inverseBindMatrices": 1,
      "joints": [
        4,
        40
      ],
      "skeleton": 1
    }
  ]
}
