{
  "accessors": [
    {
      "bufferView": 0,
      "componentType": 5126,
      "count": 14,
      "type": "MAT4"
    },
    {
      "bufferView": 1,
      "componentType": 5126,
      "count": 5,
      "type": "MAT4"
    },
    {
      "bufferView": 2,
      "componentType": 5126,
      "count": 10005,
      "max": [
        0.3658559024333954,
        0.3658559024333954,
        2.0348520278930664
      ],
      "min": [
        -0.3665883243083954,
        -0.46290475130081177,
        0.0003662221133708954
      ],
      "type": "VEC3"
    },
    {
      "bufferView": 3,
      "componentType": 5126,
      "count": 10005,
      "type": "VEC3"
    },
    {
      "bufferView": 4,
      "componentType": 5126,
      "count": 10005,
      "type": "VEC4"
    },
    {
      "bufferView": 5,
      "componentType": 5126,
      "count": 10005,
      "type": "VEC2"
    },
    {
      "bufferView": 6,
      "componentType": 5126,
      "count": 10005,
      "type": "VEC4"
    },
    {
      "bufferView": 7,
      "componentType": 5123,
      "count": 10005,
      "type": "VEC4"
    },
    {
      "bufferView": 8,
      "componentType": 5123,
      "count": 51045,
      "type": "SCALAR"
    },
    {
      "bufferView": 9,
      "componentType": 5126,
      "count": 596,
      "max": [
        0.22070986032485962,
        0.48634296655654907,
        2.1878108978271484
      ],
      "min": [
        -0.28003785014152527,
        -0.430799275636673,
        1.5632801055908203
      ],
      "type": "VEC3"
    },
    {
      "bufferView": 10,
      "componentType": 5126,
      "count": 596,
      "type": "VEC3"
    },
    {
      "bufferView": 11,
      "componentType": 5126,
      "count": 596,
      "type": "VEC4"
    },
    {
      "bufferView": 12,
      "componentType": 5126,
      "count": 596,
      "type": "VEC2"
    },
    {
      "bufferView": 13,
      "componentType": 5126,
      "count": 596,
      "type": "VEC4"
    },
    {
      "bufferView": 14,
      "componentType": 5123,
      "count": 596,
      "type": "VEC4"
    },
    {
      "bufferView": 15,
      "componentType": 5123,
      "count": 3261,
      "type": "SCALAR"
    }
  ],
  "asset": {
    "generator": "NifSkope glTF 2.0 Exporter v1.2",
    "version": "2.0"
  },
  "bufferViews": [
    {
      "buffer": 0,
      "byteLength": 896
    },
    {
      "buffer": 0,
      "byteLength": 320,
      "byteOffset": 896
    },
    {
      "buffer": 0,
      "byteLength": 120060,
      "byteOffset": 1216,
      "target": 34962
    },
    {
      "buffer": 0,
      "byteLength": 120060,
      "byteOffset": 121276,
      "target": 34962
    },
    {
      "buffer": 0,
      "byteLength": 160080,
      "byteOffset": 241336,
      "target": 34962
    },
    {
      "buffer": 0,
      "byteLength": 80040,
      "byteOffset": 401416,
      "target": 34962
    },
    {
      "buffer": 0,
      "byteLength": 160080,
      "byteOffset": 481456,
      "target": 34962
    },
    {
      "buffer": 0,
      "byteLength": 80040,
      "byteOffset": 641536,
      "target": 34962
    },
    {
      "buffer": 0,
      "byteLength": 102090,
      "byteOffset": 721576,
      "target": 34963
    },
    {
      "buffer": 0,
      "byteLength": 7152,
      "byteOffset": 823668,
      "target": 34962
    },
    {
      "buffer": 0,
      "byteLength": 7152,
      "byteOffset": 830820,
      "target": 34962
    },
    {
      "buffer": 0,
      "byteLength": 9536,
      "byteOffset": 837972,
      "target": 34962
    },
    {
      "buffer": 0,
      "byteLength": 4768,
      "byteOffset": 847508,
      "target": 34962
    },
    {
      "buffer": 0,
      "byteLength": 9536,
      "byteOffset": 852276,
      "target": 34962
    },
    {
      "buffer": 0,
      "byteLength": 4768,
      "byteOffset": 861812,
      "target": 34962
    },
    {
      "buffer": 0,
      "byteLength": 6522,
      "byteOffset": 866580,
      "target": 34963
    }
  ],
  "buffers": [
    {
      "byteLength": 873102,
      "name": "Metropus.bin",
      "uri": "Metropus.bin"
    }
  ],
  "materials": [
    {
      "extras": {
        "Material Path": "Default"
      },
      "name": "Default"
    },
    {
      "extras": {
        "Material Path": "materials/actors/floatera/floatera_metropus/floatera_metropus_body.mat"
      },
      "name": "Materials/Actors/Floatera/Floatera_Metropus/Floatera_Metropus_Body"
    },
    {
      "extras": {
        "Material Path": "materials/actors/floatera/floatera_metropus/floatera_metropus_cap.mat"
      },
      "name": "Materials/Actors/Floatera/Floatera_Metropus/Floatera_Metropus_Cap"
    }
  ],
  "meshes": [
    {
      "name": "FloaterA_Metropus:0",
      "primitives": [
        {
          "attributes": {
            "JOINTS_0": 7,
            "NORMAL": 3,
            "POSITION": 2,
            "TANGENT": 4,
            "TEXCOORD_0": 5,
            "WEIGHTS_0": 6
          },
          "indices": 8,
          "material": 1,
          "mode": 4
        }
      ]
    },
    {
      "name": "FloaterA_Metropus_cap:0",
      "primitives": [
        {
          "attributes": {
            "JOINTS_0": 14,
            "NORMAL": 10,
            "POSITION": 9,
            "TANGENT": 11,
            "TEXCOORD_0": 12,
            "WEIGHTS_0": 13
          },
          "indices": 15,
          "material": 2,
          "mode": 4
        }
      ]
    }
  ],
  "nodes": [
    {
      "children": [
        1,
        19,
        20
      ],
      "extras": {
        "Flags": 14,
        "ID": 3,
        "Parent ID": 0
      },
      "name": "Root",
      "rotation": [
        -0.7071067690849304,
        0.0,
        0.0,
        0.7071067690849304
      ],
      "scale": [
        1.0,
        1.0,
        1.0
      ],
      "translation": [
        0.0,
        0.0,
        -0.0
      ]
    },
    {
      "children": [
        2,
        4,
        17,
        18
      ],
      "extras": {
        "Flags": 14,
        "ID": 5,
        "Parent ID": 3
      },
      "name": "COM",
      "rotation": [
        0.0,
        0.0,
        0.0,
        1.0
      ],
      "scale": [
        1.0,
        1.0,
        1.0
      ],
      "translation": [
        0.0,
        0.0,
        1.800459861755371
      ]
    },
    {
      "children": [
        3
      ],
      "extras": {
        "Flags": 14,
        "ID": 9,
        "Parent ID": 5
      },
      "name": "C_spine",
      "rotation": [
        0.0,
        -0.7071034908294678,
        0.0,
        0.7071100473403931
      ],
      "scale": [
        1.0,
        1.0,
        1.0
      ],
      "translation": [
        0.0,
        0.0,
        0.0
      ]
    },
    {
      "extras": {
        "Flags": 14,
        "ID": 12,
        "Parent ID": 9
      },
      "name": "xC_spine",
      "rotation": [
        5.245208285487024e-07,
        -3.576278459149762e-06,
        2.344790811167896e-12,
        1.0
      ],
      "scale": [
        1.0,
        1.0,
        1.0
      ],
      "translation": [
        0.1484997570514679,
        3.9239598237372775e-08,
        -4.577659922233579e-07
      ]
    },
    {
      "children": [
        5,
        15,
        16
      ],
      "extras": {
        "Flags": 14,
        "ID": 14,
        "Parent ID": 5
      },
      "name": "C_hips",
      "rotation": [
        3.392837584215158e-07,
        0.7071033716201782,
        -3.392805467683502e-07,
        0.7071101665496826
      ],
      "scale": [
        1.0,
        1.0,
        1.0
      ],
      "translation": [
        0.0,
        -2.000479959463064e-08,
        0.0
      ]
    },
    {
      "children": [
        6,
        10,
        11,
        12,
        13,
        14
      ],
      "extras": {
        "Flags": 14,
        "ID": 17,
        "Parent ID": 14
      },
      "name": "C_hips2",
      "rotation": [
        -2.384185791015625e-06,
        1.430511474609375e-06,
        1.0684954657169676e-11,
        1.0
      ],
      "scale": [
        1.0,
        1.0,
        1.0
      ],
      "translation": [
        0.3977999687194824,
        -1.9533253237113968e-07,
        -2.2888182229507947e-06
      ]
    },
    {
      "children": [
        7
      ],
      "extras": {
        "Flags": 14,
        "ID": 20,
        "Parent ID": 17
      },
      "name": "C_hips3",
      "rotation": [
        -4.76837158203125e-06,
        2.980229965032777e-07,
        1.648425319855651e-11,
        1.0
      ],
      "scale": [
        1.0,
        1.0,
        1.0
      ],
      "translation": [
        0.3994598388671875,
        1.8131551087208209e-06,
        -9.329872909802361e-07
      ]
    },
    {
      "children": [
        8
      ],
      "extras": {
        "Flags": 14,
        "ID": 23,
        "Parent ID": 20
      },
      "name": "C_hips4",
      "rotation": [
        -2.384185791015625e-06,
        1.0132789611816406e-06,
        1.4010754362248079e-11,
        1.0
      ],
      "scale": [
        1.0,
        1.0,
        1.0
      ],
      "translation": [
        0.36256805062294006,
        9.43586883295211e-07,
        6.044515998837596e-08
      ]
    },
    {
      "children": [
        9
      ],
      "extras": {
        "Flags": 14,
        "ID": 26,
        "Parent ID": 23
      },
      "name": "C_Hips5",
      "rotation": [
        -1.430511474609375e-06,
        8.344651405423065e-07,
        1.1140376815488295e-11,
        1.0
      ],
      "scale": [
        1.0,
        1.0,
        1.0
      ],
      "translation": [
        0.33581995964050293,
        -3.1648903586756205e-06,
        -3.6195688153384253e-06
      ]
    },
    {
      "extras": {
        "Flags": 14,
        "ID": 29,
        "Parent ID": 26
      },
      "name": "xC_Hips",
      "rotation": [
        -7.629395440744702e-06,
        2.9802333756379085e-07,
        1.1538879227113163e-11,
        1.0
      ],
      "scale": [
        1.0,
        1.0,
        1.0
      ],
      "translation": [
        0.2765215337276459,
        2.848467772764707e-07,
        -5.7220457705398076e-08
      ]
    },
    {
      "extras": {
        "Flags": 67108878,
        "ID": 40,
        "Parent ID": 17
      },
      "name": "Tentacle_Spring_02",
      "rotation": [
        -0.30736133456230164,
        2.026950141953421e-06,
        1.5650183513571392e-06,
        0.9515928626060486
      ],
      "scale": [
        1.0,
        1.0,
        1.0
      ],
      "translation": [
        0.3079257905483246,
        -0.2661063075065613,
        -0.1965217888355255
      ]
    },
    {
      "extras": {
        "Flags": 67108878,
        "ID": 42,
        "Parent ID": 17
      },
      "name": "Tentacle_Spring_01",
      "rotation": [
        -0.29713526368141174,
        2.041879270109348e-06,
        1.5426385289174505e-06,
        0.9548354148864746
      ],
      "scale": [
        1.0,
        1.0,
        1.0
      ],
      "translation": [
        0.3490583598613739,
        0.14026692509651184,
        0.19274556636810303
      ]
    },
    {
      "extras": {
        "Flags": 67108878,
        "ID": 44,
        "Parent ID": 17
      },
      "name": "Tentacle_Spring_03",
      "rotation": [
        -0.3021450638771057,
        2.0365741875139065e-06,
        1.5542353821729193e-06,
        0.9532619714736938
      ],
      "scale": [
        1.0,
        1.0,
        1.0
      ],
      "translation": [
        0.3342217206954956,
        -0.220207080245018,
        0.19176070392131805
      ]
    },
    {
      "extras": {
        "Flags": 67108878,
        "ID": 46,
        "Parent ID": 17
      },
      "name": "Tentacle_Spring_05",
      "rotation": [
        -0.7071053981781006,
        2.3180812149803387e-06,
        2.3180718926596455e-06,
        0.7071081399917603
      ],
      "scale": [
        1.0,
        1.0,
        1.0
      ],
      "translation": [
        0.11349410563707352,
        0.24274849891662598,
        0.18939046561717987
      ]
    },
    {
      "extras": {
        "Flags": 67108878,
        "ID": 48,
        "Parent ID": 17
      },
      "name": "Tentacle_Spring_04",
      "rotation": [
        -0.7070926427841187,
        -0.004629009868949652,
        -0.004628961440175772,
        0.7070906162261963
      ],
      "scale": [
        1.0,
        1.0,
        1.0
      ],
      "translation": [
        0.08362869173288345,
        -0.06670796126127243,
        -0.2381608486175537
      ]
    },
    {
      "extras": {
        "Flags": 14,
        "ID": 31,
        "Parent ID": 14
      },
      "name": "C_BodyDeform2_Def",
      "rotation": [
        -1.6109943240527613e-12,
        -0.7071033120155334,
        -1.6109788199616948e-12,
        0.7071101665496826
      ],
      "scale": [
        0.9999999403953552,
        0.9999999403953552,
        0.9999999403953552
      ],
      "translation": [
        0.11936965584754944,
        1.3087570138736737e-08,
        -1.073332896339707e-06
      ]
    },
    {
      "extras": {
        "Flags": 67108878,
        "ID": 50,
        "Parent ID": 14
      },
      "name": "Head_Spring_01",
      "rotation": [
        -0.0009433880331926048,
        -0.7071061134338379,
        0.0009432194055989385,
        0.7071061730384827
      ],
      "scale": [
        1.0,
        1.0,
        1.0
      ],
      "translation": [
        1.958073037044983e-09,
        0.044795408844947815,
        0.0136264031752944
      ]
    },
    {
      "extras": {
        "Flags": 14,
        "ID": 33,
        "Parent ID": 5
      },
      "name": "C_BodyDeform_Def",
      "rotation": [
        0.0,
        0.0,
        0.0,
        1.0
      ],
      "scale": [
        1.0,
        1.0,
        1.0
      ],
      "translation": [
        0.0,
        0.0,
        0.0
      ]
    },
    {
      "extras": {
        "Flags": 14,
        "ID": 35,
        "Parent ID": 5
      },
      "name": "DirectAt",
      "rotation": [
        0.0,
        0.0,
        0.0,
        1.0
      ],
      "scale": [
        1.0,
        1.0,
        1.0
      ],
      "translation": [
        -1.531513333929979e-07,
        1.577721775177193e-32,
        -5.996703839628026e-05
      ]
    },
    {
      "extras": {
        "Flags": 526,
        "Has GPU LODs": false,
        "ID": 52,
        "Material Path": "Materials\\Actors\\FloaterA\\FloaterA_Metropus\\FloaterA_Metropus_Body.mat",
        "NiIntegerExtraData:MaterialID": 1669545604,
        "Parent ID": 3
      },
      "mesh": 0,
      "name": "FloaterA_Metropus:0",
      "rotation": [
        0.0,
        0.0,
        0.0,
        1.0
      ],
      "scale": [
        1.0,
        1.0,
        1.0
      ],
      "skin": 0,
      "translation": [
        0.0,
        0.0,
        0.0
      ]
    },
    {
      "extras": {
        "Flags": 526,
        "Has GPU LODs": false,
        "ID": 58,
        "Material Path": "Materials\\Actors\\FloaterA\\FloaterA_Metropus\\FloaterA_Metropus_Cap.mat",
        "NiIntegerExtraData:MaterialID": 1763813770,
        "Parent ID": 3
      },
      "mesh": 1,
      "name": "FloaterA_Metropus_cap:0",
      "rotation": [
        0.0,
        0.0,
        0.0,
        1.0
      ],
      "scale": [
        1.0,
        1.0,
        1.0
      ],
      "skin": 1,
      "translation": [
        0.0,
        0.0,
        0.0
      ]
    }
  ],
  "scenes": [
    {
      "name": "ExportScene",
      "nodes": [
        0
      ]
    }
  ],
  "skins": [
    {
      "inverseBindMatrices": 0,
      "joints": [
        5,
        4,
        11,
        10,
        8,
        7,
        6,
        17,
        16,
        2,
        15,
        12,
        13,
        14
      ],
      "skeleton": 1
    },
    {
      "inverseBindMatrices": 1,
      "joints": [
        4,
        15,
        16,
        17,
        2
      ],
      "skeleton": 1
    }
  ]
}
