{
  "accessors": [
    {
      "bufferView": 0,
      "componentType": 5126,
      "count": 33,
      "type": "MAT4"
    },
    {
      "bufferView": 1,
      "componentType": 5126,
      "count": 5697,
      "max": [
        0.7260353565216064,
        1.120578646659851,
        1.1051973104476929
      ],
      "min": [
        -0.7260353565216064,
        -1.0918302536010742,
        -0.0046388134360313416
      ],
      "type": "VEC3"
    },
    {
      "bufferView": 2,
      "componentType": 5126,
      "count": 5697,
      "type": "VEC3"
    },
    {
      "bufferView": 3,
      "componentType": 5126,
      "count": 5697,
      "type": "VEC4"
    },
    {
      "bufferView": 4,
      "componentType": 5126,
      "count": 5697,
      "type": "VEC2"
    },
    {
      "bufferView": 5,
      "componentType": 5126,
      "count": 5697,
      "type": "VEC4"
    },
    {
      "bufferView": 6,
      "componentType": 5126,
      "count": 5697,
      "type": "VEC4"
    },
    {
      "bufferView": 7,
      "componentType": 5123,
      "count": 5697,
      "type": "VEC4"
    },
    {
      "bufferView": 8,
      "componentType": 5123,
      "count": 5697,
      "type": "VEC4"
    },
    {
      "bufferView": 9,
      "componentType": 5123,
      "count": 26244,
      "type": "SCALAR"
    }
  ],
  "asset": {
    "generator": "NifSkope glTF 2.0 Exporter v1.2",
    "version": "2.0"
  },
  "bufferViews": [
    {
      "buffer": 0,
      "byteLength": 2112
    },
    {
      "buffer": 0,
      "byteLength": 68364,
      "byteOffset": 2112,
      "target": 34962
    },
    {
      "buffer": 0,
      "byteLength": 68364,
      "byteOffset": 70476,
      "target": 34962
    },
    {
      "buffer": 0,
      "byteLength": 91152,
      "byteOffset": 138840,
      "target": 34962
    },
    {
      "buffer": 0,
      "byteLength": 45576,
      "byteOffset": 229992,
      "target": 34962
    },
    {
      "buffer": 0,
      "byteLength": 91152,
      "byteOffset": 275568,
      "target": 34962
    },
    {
      "buffer": 0,
      "byteLength": 91152,
      "byteOffset": 366720,
      "target": 34962
    },
    {
      "buffer": 0,
      "byteLength": 45576,
      "byteOffset": 457872,
      "target": 34962
    },
    {
      "buffer": 0,
      "byteLength": 45576,
      "byteOffset": 503448,
      "target": 34962
    },
    {
      "buffer": 0,
      "byteLength": 52488,
      "byteOffset": 549024,
      "target": 34963
    }
  ],
  "buffers": [
    {
      "byteLength": 601512,
      "name": "AAHopper.bin",
      "uri": "AAHopper.bin"
    }
  ],
  "materials": [
    {
      "extras": {
        "Material Path": "Default"
      },
      "name": "Default"
    },
    {
      "extras": {
        "Material Path": "materials/actors/hoppera/hoppera_aahopper/hoppera_aahopper.mat"
      },
      "name": "Materials/Actors/Hoppera/Hoppera_Aahopper/Hoppera_Aahopper"
    }
  ],
  "meshes": [
    {
      "name": "HopperA_AAHopper:0",
      "primitives": [
        {
          "attributes": {
            "JOINTS_0": 7,
            "JOINTS_1": 8,
            "NORMAL": 2,
            "POSITION": 1,
            "TANGENT": 3,
            "TEXCOORD_0": 4,
            "WEIGHTS_0": 5,
            "WEIGHTS_1": 6
          },
          "indices": 9,
          "material": 1,
          "mode": 4
        }
      ]
    }
  ],
  "nodes": [
    {
      "children": [
        1,
        74
      ],
      "extras": {
        "Flags": 536870926,
        "ID": 3,
        "Parent ID": 0
      },
      "name": "Root",
      "rotation": [
        -0.7071067690849304,
        0.0,
        0.0,
        0.7071067690849304
      ],
      "scale": [
        1.0,
        1.0,
        1.0
      ],
      "translation": [
        0.0,
        0.0,
        -0.0
      ]
    },
    {
      "children": [
        2,
        52
      ],
      "extras": {
        "Flags": 536870926,
        "ID": 5,
        "Parent ID": 3
      },
      "name": "COM",
      "rotation": [
        0.0,
        0.0,
        0.0,
        1.0
      ],
      "scale": [
        1.0,
        1.0,
        1.0
      ],
      "translation": [
        2.7863197971100817e-08,
        0.046132396906614304,
        0.608485996723175
      ]
    },
    {
      "children": [
        3,
        42,
        47
      ],
      "extras": {
        "Flags": 536870926,
        "ID": 9,
        "Parent ID": 5
      },
      "name": "C_spine1",
      "rotation": [
        -0.49999845027923584,
        -0.5000016093254089,
        0.5000016689300537,
        0.4999982714653015
      ],
      "scale": [
        1.0,
        1.0,
        1.0
      ],
      "translation": [
        -7.080029718053993e-08,
        0.0,
        0.0
      ]
    },
    {
      "children": [
        4,
        5,
        25,
        30,
        33,
        36,
        41
      ],
      "extras": {
        "Flags": 536870926,
        "ID": 12,
        "Parent ID": 9
      },
      "name": "C_spine2",
      "rotation": [
        -4.76836959251159e-07,
        1.3448293429974e-06,
        -2.3841793961310032e-07,
        1.0
      ],
      "scale": [
        0.9999994039535522,
        0.9999994039535522,
        0.9999994039535522
      ],
      "translation": [
        0.17624250054359436,
        -1.1444091541079615e-07,
        -3.2894348578338395e-08
      ]
    },
    {
      "extras": {
        "Flags": 536870927,
        "ID": 15,
        "Parent ID": 12
      },
      "name": "xC_spine",
      "rotation": [
        -5.960540505611789e-08,
        8.940662610257277e-08,
        1.8626457176651456e-07,
        1.0
      ],
      "scale": [
        1.000000238418579,
        1.000000238418579,
        1.000000238418579
      ],
      "translation": [
        0.17913098633289337,
        -9.91821252682712e-07,
        -6.149127784738084e-07
      ]
    },
    {
      "children": [
        6,
        7
      ],
      "extras": {
        "Flags": 536870926,
        "ID": 17,
        "Parent ID": 12
      },
      "name": "C_Neck1",
      "rotation": [
        -1.9091530703008175e-06,
        5.656155508404481e-07,
        0.00317260785959661,
        0.9999949336051941
      ],
      "scale": [
        1.0000003576278687,
        1.0000003576278687,
        1.0000003576278687
      ],
      "translation": [
        0.14752496778964996,
        -0.0644778460264206,
        2.6423819576848473e-07
      ]
    },
    {
      "extras": {
        "Flags": 536870927,
        "ID": 20,
        "Parent ID": 17
      },
      "name": "xC_Neck",
      "rotation": [
        -1.3723970369028393e-05,
        5.364245794226008e-07,
        9.534486480333726e-07,
        1.0
      ],
      "scale": [
        1.000000238418579,
        1.000000238418579,
        1.000000238418579
      ],
      "translation": [
        0.10740001499652863,
        8.392333938900265e-07,
        1.845962742663687e-07
      ]
    },
    {
      "children": [
        8,
        9,
        11,
        16,
        21,
        23
      ],
      "extras": {
        "Flags": 536870926,
        "ID": 22,
        "Parent ID": 17
      },
      "name": "C_Head1",
      "rotation": [
        -1.430511474609375e-05,
        -1.6689464246155694e-06,
        1.1315324854876962e-06,
        1.0
      ],
      "scale": [
        1.0000004768371582,
        1.0000004768371582,
        1.0000004768371582
      ],
      "translation": [
        0.10739997774362564,
        9.155273232863692e-07,
        1.8459613215782156e-07
      ]
    },
    {
      "extras": {
        "Flags": 536870927,
        "ID": 25,
        "Parent ID": 22
      },
      "name": "xC_Head",
      "rotation": [
        -7.303277698156307e-07,
        -4.0233126696875843e-07,
        1.0942738271069175e-08,
        1.0
      ],
      "scale": [
        1.0000007152557373,
        1.0000007152557373,
        1.0000007152557373
      ],
      "translation": [
        0.5157122015953064,
        -3.8146970382513246e-07,
        -3.1888717444417125e-07
      ]
    },
    {
      "children": [
        10
      ],
      "extras": {
        "Flags": 536870926,
        "ID": 27,
        "Parent ID": 22
      },
      "name": "C_Jaw1",
      "rotation": [
        -5.090701051813085e-07,
        5.751765996819813e-08,
        0.25881922245025635,
        0.9659257531166077
      ],
      "scale": [
        1.0000004768371582,
        1.0000004768371582,
        1.0000004768371582
      ],
      "translation": [
        0.019519537687301636,
        0.1665533483028412,
        3.112712931852002e-08
      ]
    },
    {
      "extras": {
        "Flags": 536870927,
        "ID": 29,
        "Parent ID": 27
      },
      "name": "xC_Jaw",
      "rotation": [
        -8.195518717002415e-07,
        5.215487135501462e-07,
        -3.129237313714839e-07,
        1.0
      ],
      "scale": [
        1.0000008344650269,
        1.0000008344650269,
        1.0000008344650269
      ],
      "translation": [
        0.2546575963497162,
        6.866454782539222e-07,
        1.140404464194944e-07
      ]
    },
    {
      "children": [
        12
      ],
      "extras": {
        "Flags": 536870926,
        "ID": 31,
        "Parent ID": 22
      },
      "name": "R_Antennae1",
      "rotation": [
        0.040813058614730835,
        0.17525255680084229,
        -0.3402644991874695,
        0.9229522347450256
      ],
      "scale": [
        0.9999998211860657,
        0.9999998211860657,
        0.9999998211860657
      ],
      "translation": [
        0.08725501596927643,
        -0.11501678079366684,
        -0.11229373514652252
      ]
    },
    {
      "children": [
        13
      ],
      "extras": {
        "Flags": 536870926,
        "ID": 34,
        "Parent ID": 31
      },
      "name": "R_Antennae2",
      "rotation": [
        3.948795495034574e-07,
        -4.7683553816568747e-07,
        -1.1920874385396019e-06,
        1.0
      ],
      "scale": [
        1.000004529953003,
        1.000004529953003,
        1.000004529953003
      ],
      "translation": [
        0.24721649289131165,
        -1.411438006471144e-06,
        -1.5830993334020604e-06
      ]
    },
    {
      "children": [
        14
      ],
      "extras": {
        "Flags": 536870926,
        "ID": 37,
        "Parent ID": 34
      },
      "name": "R_Antennae3",
      "rotation": [
        1.693487433840346e-06,
        -5.2167129069857765e-06,
        0.01040321309119463,
        0.999945878982544
      ],
      "scale": [
        0.9999971389770508,
        0.9999971389770508,
        0.9999971389770508
      ],
      "translation": [
        0.16478881239891052,
        3.585815420592553e-06,
        -7.438659395120339e-07
      ]
    },
    {
      "children": [
        15
      ],
      "extras": {
        "Flags": 536870926,
        "ID": 40,
        "Parent ID": 37
      },
      "name": "R_Antennae4",
      "rotation": [
        -4.883229962615587e-07,
        0.0001496936019975692,
        7.672631181776524e-05,
        1.0
      ],
      "scale": [
        0.9999980330467224,
        0.9999980330467224,
        0.9999980330467224
      ],
      "translation": [
        0.1353961080312729,
        3.585815420592553e-06,
        -2.155303945983178e-06
      ]
    },
    {
      "extras": {
        "Flags": 536870927,
        "ID": 43,
        "Parent ID": 40
      },
      "name": "xR_Antennae",
      "rotation": [
        9.167586085823132e-07,
        -2.3765969672240317e-06,
        0.00014240993186831474,
        1.0
      ],
      "scale": [
        1.0000032186508179,
        1.0000032186508179,
        1.0000032186508179
      ],
      "translation": [
        0.1262030005455017,
        3.4713742934400216e-05,
        -2.250671286674333e-06
      ]
    },
    {
      "children": [
        17
      ],
      "extras": {
        "Flags": 536870926,
        "ID": 45,
        "Parent ID": 22
      },
      "name": "L_Antennae1",
      "rotation": [
        0.9229535460472107,
        -0.34027066826820374,
        0.17524069547653198,
        0.0407836027443409
      ],
      "scale": [
        1.0000011920928955,
        1.0000011920928955,
        1.0000011920928955
      ],
      "translation": [
        0.08725627511739731,
        -0.11502410471439362,
        0.11228430271148682
      ]
    },
    {
      "children": [
        18
      ],
      "extras": {
        "Flags": 536870926,
        "ID": 48,
        "Parent ID": 45
      },
      "name": "L_Antennae2",
      "rotation": [
        -1.184646635010722e-06,
        1.5310907883758773e-06,
        2.026558377110632e-06,
        1.0
      ],
      "scale": [
        1.0000007152557373,
        1.0000007152557373,
        1.0000007152557373
      ],
      "translation": [
        0.2472158819437027,
        6.103515488575795e-07,
        4.386901650832442e-07
      ]
    },
    {
      "children": [
        19
      ],
      "extras": {
        "Flags": 536870926,
        "ID": 51,
        "Parent ID": 48
      },
      "name": "L_Antennae3",
      "rotation": [
        -1.7184507896672585e-06,
        -4.750759217131417e-06,
        -0.010404875501990318,
        0.999945878982544
      ],
      "scale": [
        0.999997615814209,
        0.999997615814209,
        0.999997615814209
      ],
      "translation": [
        0.16478751599788666,
        -2.7465819130156888e-06,
        4.1961669694501325e-07
      ]
    },
    {
      "children": [
        20
      ],
      "extras": {
        "Flags": 536870926,
        "ID": 54,
        "Parent ID": 51
      },
      "name": "L_Antennae4",
      "rotation": [
        -1.4121065987637849e-06,
        0.00014914621715433896,
        -7.343290053540841e-05,
        1.0
      ],
      "scale": [
        0.9999974370002747,
        0.9999974370002747,
        0.9999974370002747
      ],
      "translation": [
        0.13539642095565796,
        -2.937316821771674e-06,
        -2.5367735361214727e-06
      ]
    },
    {
      "extras": {
        "Flags": 536870927,
        "ID": 57,
        "Parent ID": 54
      },
      "name": "xL_Antennae",
      "rotation": [
        2.8289579745433e-07,
        -1.572108772052161e-06,
        -0.00014437692880164832,
        1.0
      ],
      "scale": [
        1.0000029802322388,
        1.0000029802322388,
        1.0000029802322388
      ],
      "translation": [
        0.12620635330677032,
        -3.73458860849496e-05,
        -2.9945372261863668e-06
      ]
    },
    {
      "children": [
        22
      ],
      "extras": {
        "Flags": 536870926,
        "ID": 59,
        "Parent ID": 22
      },
      "name": "R_Jaw1",
      "rotation": [
        0.18211527168750763,
        0.15755438804626465,
        0.26600509881973267,
        0.933408796787262
      ],
      "scale": [
        1.000002384185791,
        1.000002384185791,
        1.000002384185791
      ],
      "translation": [
        0.03168174624443054,
        0.11252486705780029,
        -0.18478605151176453
      ]
    },
    {
      "extras": {
        "Flags": 536870927,
        "ID": 62,
        "Parent ID": 59
      },
      "name": "xR_Jaw",
      "rotation": [
        1.9371505288745539e-07,
        1.1920954534616612e-07,
        -2.980241120553728e-08,
        1.0
      ],
      "scale": [
        0.9999978542327881,
        0.9999978542327881,
        0.9999978542327881
      ],
      "translation": [
        0.2670709788799286,
        -1.3732909565078444e-06,
        1.7547606603329768e-06
      ]
    },
    {
      "children": [
        24
      ],
      "extras": {
        "Flags": 536870926,
        "ID": 64,
        "Parent ID": 22
      },
      "name": "L_Jaw1",
      "rotation": [
        0.9334148168563843,
        0.26600098609924316,
        0.15755900740623474,
        0.1820862740278244
      ],
      "scale": [
        1.0000022649765015,
        1.0000022649765015,
        1.0000022649765015
      ],
      "translation": [
        0.031682852655649185,
        0.112512968480587,
        0.18479005992412567
      ]
    },
    {
      "extras": {
        "Flags": 536870927,
        "ID": 67,
        "Parent ID": 64
      },
      "name": "xL_Jaw",
      "rotation": [
        1.7881352221138513e-07,
        -8.568191560698324e-07,
        -1.3411066390744963e-07,
        1.0
      ],
      "scale": [
        0.9999972581863403,
        0.9999972581863403,
        0.9999972581863403
      ],
      "translation": [
        0.2670709490776062,
        1.8310546465727384e-06,
        1.716613724056515e-06
      ]
    },
    {
      "children": [
        26
      ],
      "extras": {
        "Flags": 536870926,
        "ID": 69,
        "Parent ID": 12
      },
      "name": "R_FrontLeg1",
      "rotation": [
        -0.4377419650554657,
        -0.5570112466812134,
        0.44036221504211426,
        0.551544725894928
      ],
      "scale": [
        0.9999991655349731,
        0.9999991655349731,
        0.9999991655349731
      ],
      "translation": [
        0.10644353926181793,
        0.11400516331195831,
        -0.13294059038162231
      ]
    },
    {
      "children": [
        27
      ],
      "extras": {
        "Flags": 536870926,
        "ID": 72,
        "Parent ID": 69
      },
      "name": "R_FrontLeg2",
      "rotation": [
        0.03386387228965759,
        0.015712875872850418,
        0.6333323121070862,
        0.7729789614677429
      ],
      "scale": [
        0.9999973773956299,
        0.9999973773956299,
        0.9999973773956299
      ],
      "translation": [
        0.05413677170872688,
        -0.0001377105654682964,
        -0.0005330276326276362
      ]
    },
    {
      "children": [
        28
      ],
      "extras": {
        "Flags": 536870926,
        "ID": 75,
        "Parent ID": 72
      },
      "name": "R_FrontLeg3",
      "rotation": [
        -0.04258367791771889,
        0.0051030064933001995,
        -0.4660075902938843,
        0.8837406635284424
      ],
      "scale": [
        1.0000022649765015,
        1.0000022649765015,
        1.0000022649765015
      ],
      "translation": [
        0.2947305738925934,
        -6.103515488575795e-07,
        9.155273232863692e-07
      ]
    },
    {
      "children": [
        29
      ],
      "extras": {
        "Flags": 536870926,
        "ID": 78,
        "Parent ID": 75
      },
      "name": "R_FrontLeg4",
      "rotation": [
        0.014561427757143974,
        -0.018306853249669075,
        0.5581119656562805,
        0.8294358849525452
      ],
      "scale": [
        1.0000011920928955,
        1.0000011920928955,
        1.0000011920928955
      ],
      "translation": [
        0.2977009117603302,
        5.722045557376987e-07,
        -3.814697265625e-06
      ]
    },
    {
      "extras": {
        "Flags": 536870927,
        "ID": 81,
        "Parent ID": 78
      },
      "name": "xR_FrontLeg",
      "rotation": [
        -5.936909701631521e-07,
        -1.1442174354669987e-06,
        0.00019777445413637906,
        1.0
      ],
      "scale": [
        1.000006079673767,
        1.000006079673767,
        1.000006079673767
      ],
      "translation": [
        0.09135986119508743,
        -2.288818308215923e-07,
        3.8146970382513246e-07
      ]
    },
    {
      "children": [
        31
      ],
      "extras": {
        "Flags": 536870926,
        "ID": 83,
        "Parent ID": 12
      },
      "name": "R_Wing1",
      "rotation": [
        -0.24605081975460052,
        0.9068648815155029,
        0.33951905369758606,
        0.042212069034576416
      ],
      "scale": [
        1.0000016689300537,
        1.0000016689300537,
        1.0000016689300537
      ],
      "translation": [
        0.09627052396535873,
        -0.10627807676792145,
        -0.09638695418834686
      ]
    },
    {
      "children": [
        32
      ],
      "extras": {
        "Flags": 536870926,
        "ID": 86,
        "Parent ID": 83
      },
      "name": "R_Wing2",
      "rotation": [
        -4.4130734977443353e-07,
        2.686011555397272e-07,
        0.033239856362342834,
        0.9994474053382874
      ],
      "scale": [
        1.0000011920928955,
        1.0000011920928955,
        1.0000011920928955
      ],
      "translation": [
        0.8506688475608826,
        1.0681152389224735e-06,
        -2.250671286674333e-06
      ]
    },
    {
      "extras": {
        "Flags": 536870927,
        "ID": 89,
        "Parent ID": 86
      },
      "name": "xR_Wing",
      "rotation": [
        -1.287081431655679e-06,
        5.381717755881255e-07,
        0.010256156325340271,
        0.9999473690986633
      ],
      "scale": [
        0.9999982118606567,
        0.9999982118606567,
        0.9999982118606567
      ],
      "translation": [
        0.9032678008079529,
        5.4931638260313775e-06,
        3.2806394756335067e-06
      ]
    },
    {
      "children": [
        34
      ],
      "extras": {
        "Flags": 536870926,
        "ID": 91,
        "Parent ID": 12
      },
      "name": "L_Wing1",
      "rotation": [
        0.04221251234412193,
        0.3395179808139801,
        0.9068652987480164,
        -0.24605083465576172
      ],
      "scale": [
        1.0000009536743164,
        1.0000009536743164,
        1.0000009536743164
      ],
      "translation": [
        0.09627128392457962,
        -0.10627815127372742,
        0.09638466686010361
      ]
    },
    {
      "children": [
        35
      ],
      "extras": {
        "Flags": 536870926,
        "ID": 94,
        "Parent ID": 91
      },
      "name": "L_Wing2",
      "rotation": [
        -9.313921509601641e-07,
        1.1342708603478968e-06,
        -0.03323943912982941,
        0.9994474053382874
      ],
      "scale": [
        1.0000008344650269,
        1.0000008344650269,
        1.0000008344650269
      ],
      "translation": [
        0.8506691455841064,
        -7.629394076502649e-07,
        -2.2888182229507947e-06
      ]
    },
    {
      "extras": {
        "Flags": 536870927,
        "ID": 97,
        "Parent ID": 94
      },
      "name": "xL_Wing",
      "rotation": [
        2.195464503529365e-06,
        4.7669828973084805e-07,
        -0.01025630533695221,
        0.9999473690986633
      ],
      "scale": [
        0.9999969601631165,
        0.9999969601631165,
        0.9999969601631165
      ],
      "translation": [
        0.903264582157135,
        -4.0435788832837716e-06,
        4.272460955689894e-06
      ]
    },
    {
      "children": [
        37
      ],
      "extras": {
        "Flags": 536870926,
        "ID": 99,
        "Parent ID": 12
      },
      "name": "L_FrontLeg1",
      "rotation": [
        -0.5515453219413757,
        -0.4403645694255829,
        0.5570098161697388,
        0.437740683555603
      ],
      "scale": [
        0.999998927116394,
        0.999998927116394,
        0.999998927116394
      ],
      "translation": [
        0.10644464194774628,
        0.11400493234395981,
        0.1329374611377716
      ]
    },
    {
      "children": [
        38
      ],
      "extras": {
        "Flags": 536870926,
        "ID": 102,
        "Parent ID": 99
      },
      "name": "L_FrontLeg2",
      "rotation": [
        -0.03390509635210037,
        0.01573614403605461,
        -0.6337692737579346,
        0.7726185321807861
      ],
      "scale": [
        0.9999980926513672,
        0.9999980926513672,
        0.9999980926513672
      ],
      "translation": [
        0.054136693477630615,
        0.00013767242489848286,
        -0.0005329131963662803
      ]
    },
    {
      "children": [
        39
      ],
      "extras": {
        "Flags": 536870926,
        "ID": 105,
        "Parent ID": 102
      },
      "name": "L_FrontLeg3",
      "rotation": [
        0.04258347675204277,
        0.0051040141843259335,
        0.46600833535194397,
        0.883740246295929
      ],
      "scale": [
        1.0000022649765015,
        1.0000022649765015,
        1.0000022649765015
      ],
      "translation": [
        0.29473015666007996,
        8.010864007701457e-07,
        1.3732909565078444e-06
      ]
    },
    {
      "children": [
        40
      ],
      "extras": {
        "Flags": 536870926,
        "ID": 108,
        "Parent ID": 105
      },
      "name": "L_FrontLeg4",
      "rotation": [
        -0.014518463052809238,
        -0.0183010995388031,
        -0.557644248008728,
        0.8297512531280518
      ],
      "scale": [
        1.0000014305114746,
        1.0000014305114746,
        1.0000014305114746
      ],
      "translation": [
        0.29770132899284363,
        -6.103515488575795e-07,
        -2.822876012942288e-06
      ]
    },
    {
      "extras": {
        "Flags": 536870927,
        "ID": 111,
        "Parent ID": 108
      },
      "name": "xL_FrontLeg",
      "rotation": [
        9.175881814371678e-07,
        -3.73562238564773e-06,
        -0.00019852047262247652,
        1.0
      ],
      "scale": [
        1.000001311302185,
        1.000001311302185,
        1.000001311302185
      ],
      "translation": [
        0.0913597121834755,
        3.0517577442878974e-07,
        1.9073485191256623e-07
      ]
    },
    {
      "extras": {
        "Flags": 14,
        "ID": 113,
        "Parent ID": 12
      },
      "name": "DirectAt",
      "rotation": [
        0.49123942852020264,
        0.5086094737052917,
        -0.4912375211715698,
        0.5086115598678589
      ],
      "scale": [
        1.0000004768371582,
        1.0000004768371582,
        1.0000004768371582
      ],
      "translation": [
        0.0,
        1.1444091541079615e-07,
        7.2759574515531e-14
      ]
    },
    {
      "children": [
        43
      ],
      "extras": {
        "Flags": 536870926,
        "ID": 115,
        "Parent ID": 9
      },
      "name": "R_MidLeg1",
      "rotation": [
        -0.56623774766922,
        -0.3416458070278168,
        0.6100896000862122,
        0.436398446559906
      ],
      "scale": [
        1.0000007152557373,
        1.0000007152557373,
        1.0000007152557373
      ],
      "translation": [
        0.07366253435611725,
        0.10086902230978012,
        -0.16577456891536713
      ]
    },
    {
      "children": [
        44
      ],
      "extras": {
        "Flags": 536870926,
        "ID": 118,
        "Parent ID": 115
      },
      "name": "R_MidLeg2",
      "rotation": [
        -0.12036368995904922,
        -0.0009861424332484603,
        0.5528666377067566,
        0.8245301842689514
      ],
      "scale": [
        1.0000001192092896,
        1.0000001192092896,
        1.0000001192092896
      ],
      "translation": [
        0.08544562757015228,
        -6.866454782539222e-07,
        -1.335144048653092e-07
      ]
    },
    {
      "children": [
        45
      ],
      "extras": {
        "Flags": 536870926,
        "ID": 121,
        "Parent ID": 118
      },
      "name": "R_MidLeg3",
      "rotation": [
        0.04833529517054558,
        0.02364182658493519,
        -0.5927839875221252,
        0.8035619854927063
      ],
      "scale": [
        1.0000003576278687,
        1.0000003576278687,
        1.0000003576278687
      ],
      "translation": [
        0.29395633935928345,
        0.00022766113397665322,
        0.0002574872924014926
      ]
    },
    {
      "children": [
        46
      ],
      "extras": {
        "Flags": 536870926,
        "ID": 124,
        "Parent ID": 121
      },
      "name": "R_MidLeg4",
      "rotation": [
        0.017134971916675568,
        -0.004832365084439516,
        0.3910137116909027,
        0.9202126264572144
      ],
      "scale": [
        1.0000015497207642,
        1.0000015497207642,
        1.0000015497207642
      ],
      "translation": [
        0.39141592383384705,
        1.7929077102962765e-06,
        -1.7642973944020923e-06
      ]
    },
    {
      "extras": {
        "Flags": 536870927,
        "ID": 127,
        "Parent ID": 124
      },
      "name": "xR_MidLeg",
      "rotation": [
        2.4447588842235746e-08,
        1.0964581633743364e-06,
        -4.3213387357354804e-07,
        1.0
      ],
      "scale": [
        0.9999996423721313,
        0.9999996423721313,
        0.9999996423721313
      ],
      "translation": [
        0.1143670603632927,
        2.288818308215923e-07,
        9.5367431640625e-07
      ]
    },
    {
      "children": [
        48
      ],
      "extras": {
        "Flags": 536870926,
        "ID": 129,
        "Parent ID": 9
      },
      "name": "L_MidLeg1",
      "rotation": [
        -0.4363965392112732,
        -0.6100856065750122,
        0.3416486382484436,
        0.5662418603897095
      ],
      "scale": [
        1.000001072883606,
        1.000001072883606,
        1.000001072883606
      ],
      "translation": [
        0.07366468012332916,
        0.10086891055107117,
        0.1657734513282776
      ]
    },
    {
      "children": [
        49
      ],
      "extras": {
        "Flags": 536870926,
        "ID": 132,
        "Parent ID": 129
      },
      "name": "L_MidLeg2",
      "rotation": [
        0.12020847201347351,
        -0.0010037192841991782,
        -0.5528690218925476,
        0.8245512247085571
      ],
      "scale": [
        1.0000007152557373,
        1.0000007152557373,
        1.0000007152557373
      ],
      "translation": [
        0.08544551581144333,
        5.722045557376987e-07,
        -5.7220457705398076e-08
      ]
    },
    {
      "children": [
        50
      ],
      "extras": {
        "Flags": 536870926,
        "ID": 135,
        "Parent ID": 132
      },
      "name": "L_MidLeg3",
      "rotation": [
        -0.04833490774035454,
        0.023641731590032578,
        0.592783510684967,
        0.8035624027252197
      ],
      "scale": [
        1.0,
        1.0,
        1.0
      ],
      "translation": [
        0.2939564883708954,
        -0.00022747038747183979,
        0.0002573156380094588
      ]
    },
    {
      "children": [
        51
      ],
      "extras": {
        "Flags": 536870926,
        "ID": 138,
        "Parent ID": 135
      },
      "name": "L_MidLeg4",
      "rotation": [
        -0.016980595886707306,
        -0.004861869383603334,
        -0.3910180330276489,
        0.920213520526886
      ],
      "scale": [
        1.000001311302185,
        1.000001311302185,
        1.000001311302185
      ],
      "translation": [
        0.3914160132408142,
        -9.5367431640625e-07,
        -2.3937225250847405e-06
      ]
    },
    {
      "extras": {
        "Flags": 536870927,
        "ID": 141,
        "Parent ID": 138
      },
      "name": "xL_MidLeg",
      "rotation": [
        3.1606742822987144e-07,
        -1.0553626452747267e-06,
        7.897617138041824e-07,
        1.0
      ],
      "scale": [
        1.0000001192092896,
        1.0000001192092896,
        1.0000001192092896
      ],
      "translation": [
        0.11436714231967926,
        -6.103515488575795e-07,
        5.149840944795869e-07
      ]
    },
    {
      "children": [
        53,
        54,
        61,
        64,
        69
      ],
      "extras": {
        "Flags": 536870926,
        "ID": 143,
        "Parent ID": 5
      },
      "name": "C_hips1",
      "rotation": [
        -0.49999988079071045,
        0.5000004172325134,
        -0.49999988079071045,
        0.4999997615814209
      ],
      "scale": [
        0.9999989867210388,
        0.9999989867210388,
        0.9999989867210388
      ],
      "translation": [
        -7.080029718053993e-08,
        0.0,
        0.0
      ]
    },
    {
      "extras": {
        "Flags": 536870927,
        "ID": 146,
        "Parent ID": 143
      },
      "name": "xC_hips",
      "rotation": [
        1.0812651680680574e-06,
        5.066405606157787e-07,
        5.709003403353563e-07,
        1.0
      ],
      "scale": [
        1.0000004768371582,
        1.0000004768371582,
        1.0000004768371582
      ],
      "translation": [
        0.09548310935497284,
        1.5258788721439487e-07,
        -3.786242075420887e-07
      ]
    },
    {
      "children": [
        55
      ],
      "extras": {
        "Flags": 536870926,
        "ID": 148,
        "Parent ID": 143
      },
      "name": "C_Tail1",
      "rotation": [
        -1.7078248220059322e-06,
        1.8206626464234432e-06,
        0.14271298050880432,
        0.9897640943527222
      ],
      "scale": [
        1.0000026226043701,
        1.0000026226043701,
        1.0000026226043701
      ],
      "translation": [
        0.2271474450826645,
        0.020613135769963264,
        -4.177617256573285e-07
      ]
    },
    {
      "children": [
        56
      ],
      "extras": {
        "Flags": 536870926,
        "ID": 151,
        "Parent ID": 148
      },
      "name": "C_Tail2",
      "rotation": [
        -1.5515162203882937e-06,
        1.5670751736251987e-06,
        -0.07793740928173065,
        0.9969582557678223
      ],
      "scale": [
        0.9999967217445374,
        0.9999967217445374,
        0.9999967217445374
      ],
      "translation": [
        0.3645433783531189,
        3.0517577442878974e-07,
        3.5500312378644594e-07
      ]
    },
    {
      "children": [
        57
      ],
      "extras": {
        "Flags": 536870926,
        "ID": 154,
        "Parent ID": 151
      },
      "name": "C_Tail3",
      "rotation": [
        -5.2140831030556e-06,
        1.5560425481453422e-06,
        -0.020722338929772377,
        0.999785304069519
      ],
      "scale": [
        0.9999997019767761,
        0.9999997019767761,
        0.9999997019767761
      ],
      "translation": [
        0.3363162577152252,
        2.2888182229507947e-06,
        1.0349178864998976e-06
      ]
    },
    {
      "children": [
        58
      ],
      "extras": {
        "Flags": 536870926,
        "ID": 157,
        "Parent ID": 154
      },
      "name": "C_Tail4",
      "rotation": [
        -7.106655175448395e-06,
        7.5019870564574376e-06,
        -0.0061368513852357864,
        0.999981164932251
      ],
      "scale": [
        1.0000003576278687,
        1.0000003576278687,
        1.0000003576278687
      ],
      "translation": [
        0.2588408589363098,
        -6.866454782539222e-07,
        7.593745294798282e-07
      ]
    },
    {
      "children": [
        59
      ],
      "extras": {
        "Flags": 536870926,
        "ID": 160,
        "Parent ID": 157
      },
      "name": "C_Tail5",
      "rotation": [
        -2.0053761545568705e-05,
        -2.9223897399788257e-06,
        -0.008834488689899445,
        0.9999609589576721
      ],
      "scale": [
        1.0000007152557373,
        1.0000007152557373,
        1.0000007152557373
      ],
      "translation": [
        0.2572253346443176,
        2.5558470042597037e-06,
        8.12087648682791e-07
      ]
    },
    {
      "children": [
        60
      ],
      "extras": {
        "Flags": 536870926,
        "ID": 163,
        "Parent ID": 160
      },
      "name": "C_Tail6",
      "rotation": [
        -3.4577584301587194e-05,
        1.8877764773606032e-07,
        -0.026143193244934082,
        0.9996582269668579
      ],
      "scale": [
        1.0000025033950806,
        1.0000025033950806,
        1.0000025033950806
      ],
      "translation": [
        0.19676238298416138,
        5.416869953478454e-06,
        1.8330243847231031e-06
      ]
    },
    {
      "extras": {
        "Flags": 536870927,
        "ID": 166,
        "Parent ID": 163
      },
      "name": "xC_Tail",
      "rotation": [
        -3.921272582374513e-05,
        1.260765316146717e-06,
        -0.0066078114323318005,
        0.9999781847000122
      ],
      "scale": [
        0.9999971389770508,
        0.9999971389770508,
        0.9999971389770508
      ],
      "translation": [
        0.38372769951820374,
        -1.983642505365424e-06,
        2.7010123631043825e-06
      ]
    },
    {
      "children": [
        62
      ],
      "extras": {
        "Flags": 536870926,
        "ID": 168,
        "Parent ID": 143
      },
      "name": "C_Thorax1",
      "rotation": [
        -1.5596336879752926e-06,
        -3.5425463806859625e-07,
        -0.23799163103103638,
        0.9712672233581543
      ],
      "scale": [
        1.000002145767212,
        1.000002145767212,
        1.000002145767212
      ],
      "translation": [
        0.14513082802295685,
        -0.14574581384658813,
        -1.1816292726507527e-06
      ]
    },
    {
      "children": [
        63
      ],
      "extras": {
        "Flags": 536870926,
        "ID": 171,
        "Parent ID": 168
      },
      "name": "C_Thorax2",
      "rotation": [
        2.7044370654039085e-06,
        1.6043683217503713e-06,
        0.12889747321605682,
        0.9916579127311707
      ],
      "scale": [
        0.9999973773956299,
        0.9999973773956299,
        0.9999973773956299
      ],
      "translation": [
        0.457705557346344,
        8.392333938900265e-07,
        -1.4513509540847735e-06
      ]
    },
    {
      "extras": {
        "Flags": 536870927,
        "ID": 174,
        "Parent ID": 171
      },
      "name": "xC_Thorax",
      "rotation": [
        -1.5087449867223768e-07,
        1.93715919749593e-07,
        5.811445475956134e-07,
        1.0
      ],
      "scale": [
        1.000001311302185,
        1.000001311302185,
        1.000001311302185
      ],
      "translation": [
        0.6063337326049805,
        3.2806394756335067e-06,
        9.094937354348076e-07
      ]
    },
    {
      "children": [
        65
      ],
      "extras": {
        "Flags": 536870926,
        "ID": 176,
        "Parent ID": 143
      },
      "name": "R_BackLeg1",
      "rotation": [
        0.9381717443466187,
        0.22034043073654175,
        0.23160001635551453,
        0.13283583521842957
      ],
      "scale": [
        0.9999990463256836,
        0.9999990463256836,
        0.9999990463256836
      ],
      "translation": [
        0.06468009948730469,
        0.019490927457809448,
        0.21316200494766235
      ]
    },
    {
      "children": [
        66
      ],
      "extras": {
        "Flags": 536870926,
        "ID": 179,
        "Parent ID": 176
      },
      "name": "R_BackLeg2",
      "rotation": [
        0.09408151358366013,
        -0.26017263531684875,
        0.43982452154159546,
        0.8544081449508667
      ],
      "scale": [
        1.0000004768371582,
        1.0000004768371582,
        1.0000004768371582
      ],
      "translation": [
        0.14600883424282074,
        -1.5258788721439487e-07,
        6.484985419774603e-07
      ]
    },
    {
      "children": [
        67
      ],
      "extras": {
        "Flags": 536870926,
        "ID": 182,
        "Parent ID": 179
      },
      "name": "R_BackLeg3",
      "rotation": [
        -0.013621528632938862,
        -0.01080471370369196,
        -0.8323833346366882,
        0.553927481174469
      ],
      "scale": [
        0.9999967217445374,
        0.9999967217445374,
        0.9999967217445374
      ],
      "translation": [
        0.6955550909042358,
        -3.8146970382513246e-07,
        0.0
      ]
    },
    {
      "children": [
        68
      ],
      "extras": {
        "Flags": 536870926,
        "ID": 185,
        "Parent ID": 182
      },
      "name": "R_BackLeg4",
      "rotation": [
        0.00962815247476101,
        -0.014545238576829433,
        0.5000994801521301,
        0.8657922744750977
      ],
      "scale": [
        0.9999985098838806,
        0.9999985098838806,
        0.9999985098838806
      ],
      "translation": [
        0.7176716923713684,
        -5.798339770990424e-06,
        2.288818308215923e-07
      ]
    },
    {
      "extras": {
        "Flags": 536870927,
        "ID": 188,
        "Parent ID": 185
      },
      "name": "xR_BackLeg",
      "rotation": [
        -2.266627916469588e-06,
        2.9903819722676417e-06,
        0.04253150150179863,
        0.9990951418876648
      ],
      "scale": [
        0.9999983906745911,
        0.9999983906745911,
        0.9999983906745911
      ],
      "translation": [
        0.25230979919433594,
        -2.136230477844947e-06,
        4.577636616431846e-07
      ]
    },
    {
      "children": [
        70
      ],
      "extras": {
        "Flags": 536870926,
        "ID": 190,
        "Parent ID": 143
      },
      "name": "L_BackLeg1",
      "rotation": [
        0.13283509016036987,
        0.23159976303577423,
        0.2203405499458313,
        0.9381718635559082
      ],
      "scale": [
        0.9999991059303284,
        0.9999991059303284,
        0.9999991059303284
      ],
      "translation": [
        0.06467994302511215,
        0.019491080194711685,
        -0.21316197514533997
      ]
    },
    {
      "children": [
        71
      ],
      "extras": {
        "Flags": 536870926,
        "ID": 193,
        "Parent ID": 190
      },
      "name": "L_BackLeg2",
      "rotation": [
        -0.09414979815483093,
        -0.260145366191864,
        -0.43964725732803345,
        0.8545001149177551
      ],
      "scale": [
        1.0000015497207642,
        1.0000015497207642,
        1.0000015497207642
      ],
      "translation": [
        0.1460089236497879,
        3.0517577442878974e-07,
        7.152557373046875e-07
      ]
    },
    {
      "children": [
        72
      ],
      "extras": {
        "Flags": 536870926,
        "ID": 196,
        "Parent ID": 193
      },
      "name": "L_BackLeg3",
      "rotation": [
        0.013622445985674858,
        -0.01080290600657463,
        0.832383930683136,
        0.5539266467094421
      ],
      "scale": [
        0.9999990463256836,
        0.9999990463256836,
        0.9999990463256836
      ],
      "translation": [
        0.695553719997406,
        1.9073486328125e-06,
        3.623962356869015e-07
      ]
    },
    {
      "children": [
        73
      ],
      "extras": {
        "Flags": 536870926,
        "ID": 199,
        "Parent ID": 196
      },
      "name": "L_BackLeg4",
      "rotation": [
        -0.00963709969073534,
        -0.014560732059180737,
        -0.5002850294113159,
        0.8656846880912781
      ],
      "scale": [
        0.9999991655349731,
        0.9999991655349731,
        0.9999991655349731
      ],
      "translation": [
        0.7176720499992371,
        7.858276148908772e-06,
        4.0054320038507285e-07
      ]
    },
    {
      "extras": {
        "Flags": 536870927,
        "ID": 202,
        "Parent ID": 199
      },
      "name": "xL_BackLeg",
      "rotation": [
        2.017250153585337e-06,
        3.641280500232824e-06,
        -0.04253241792321205,
        0.99909508228302
      ],
      "scale": [
        0.9999979734420776,
        0.9999979734420776,
        0.9999979734420776
      ],
      "translation": [
        0.2523100972175598,
        1.2969970839549205e-06,
        2.441406195430318e-06
      ]
    },
    {
      "extras": {
        "Flags": 526,
        "Has GPU LODs": false,
        "ID": 210,
        "Material Path": "Materials\\Actors\\HopperA\\HopperA_AAHopper\\HopperA_AAHopper.mat",
        "NiIntegerExtraData:MaterialID": -862718505,
        "Parent ID": 3
      },
      "mesh": 0,
      "name": "HopperA_AAHopper:0",
      "rotation": [
        -4.371139183945161e-08,
        4.371138473402425e-08,
        4.371139183945161e-08,
        1.0
      ],
      "scale": [
        1.0,
        1.0,
        1.0
      ],
      "skin": 0,
      "translation": [
        3.4123658565476944e-07,
        -2.1457671550706436e-07,
        2.288818308215923e-07
      ]
    }
  ],
  "scenes": [
    {
      "name": "ExportScene",
      "nodes": [
        0
      ]
    }
  ],
  "skins": [
    {
      "inverseBindMatrices": 0,
      "joints": [
        7,
        5,
        3,
        2,
        36,
        47,
        25,
        61,
        62,
        69,
        64,
        52,
        65,
        23,
        21,
        42,
        37,
        70,
        72,
        71,
        48,
        49,
        50,
        38,
        39,
        67,
        66,
        43,
        44,
        45,
        26,
        27,
        28
      ],
      "skeleton": 1
    }
  ]
}
