{
  "accessors": [
    {
      "bufferView": 0,
      "componentType": 5126,
      "count": 70,
      "type": "MAT4"
    },
    {
      "bufferView": 1,
      "componentType": 5126,
      "count": 50,
      "type": "MAT4"
    },
    {
      "bufferView": 2,
      "componentType": 5126,
      "count": 18474,
      "max": [
        0.6836146116256714,
        1.7012238502502441,
        5.3387861251831055
      ],
      "min": [
        -0.6836146116256714,
        -5.816095352172852,
        -0.007324442267417908
      ],
      "type": "VEC3"
    },
    {
      "bufferView": 3,
      "componentType": 5126,
      "count": 18474,
      "type": "VEC3"
    },
    {
      "bufferView": 4,
      "componentType": 5126,
      "count": 18474,
      "type": "VEC4"
    },
    {
      "bufferView": 5,
      "componentType": 5126,
      "count": 18474,
      "type": "VEC2"
    },
    {
      "bufferView": 6,
      "componentType": 5126,
      "count": 18474,
      "type": "VEC4"
    },
    {
      "bufferView": 7,
      "componentType": 5126,
      "count": 18474,
      "type": "VEC4"
    },
    {
      "bufferView": 8,
      "componentType": 5123,
      "count": 18474,
      "type": "VEC4"
    },
    {
      "bufferView": 9,
      "componentType": 5123,
      "count": 18474,
      "type": "VEC4"
    },
    {
      "bufferView": 10,
      "componentType": 5123,
      "count": 54060,
      "type": "SCALAR"
    },
    {
      "bufferView": 11,
      "componentType": 5126,
      "count": 10116,
      "max": [
        0.6867885589599609,
        1.6318857669830322,
        5.320963382720947
      ],
      "min": [
        -0.6867885589599609,
        -6.322947025299072,
        -0.0019531846046447754
      ],
      "type": "VEC3"
    },
    {
      "bufferView": 12,
      "componentType": 5126,
      "count": 10116,
      "type": "VEC3"
    },
    {
      "bufferView": 13,
      "componentType": 5126,
      "count": 10116,
      "type": "VEC4"
    },
    {
      "bufferView": 14,
      "componentType": 5126,
      "count": 10116,
      "type": "VEC2"
    },
    {
      "bufferView": 15,
      "componentType": 5126,
      "count": 10116,
      "type": "VEC4"
    },
    {
      "bufferView": 16,
      "componentType": 5126,
      "count": 10116,
      "type": "VEC4"
    },
    {
      "bufferView": 17,
      "componentType": 5123,
      "count": 10116,
      "type": "VEC4"
    },
    {
      "bufferView": 18,
      "componentType": 5123,
      "count": 10116,
      "type": "VEC4"
    },
    {
      "bufferView": 19,
      "componentType": 5123,
      "count": 48174,
      "type": "SCALAR"
    }
  ],
  "asset": {
    "generator": "NifSkope glTF 2.0 Exporter v1.2",
    "version": "2.0"
  },
  "bufferViews": [
    {
      "buffer": 0,
      "byteLength": 4480
    },
    {
      "buffer": 0,
      "byteLength": 3200,
      "byteOffset": 4480
    },
    {
      "buffer": 0,
      "byteLength": 221688,
      "byteOffset": 7680,
      "target": 34962
    },
    {
      "buffer": 0,
      "byteLength": 221688,
      "byteOffset": 229368,
      "target": 34962
    },
    {
      "buffer": 0,
      "byteLength": 295584,
      "byteOffset": 451056,
      "target": 34962
    },
    {
      "buffer": 0,
      "byteLength": 147792,
      "byteOffset": 746640,
      "target": 34962
    },
    {
      "buffer": 0,
      "byteLength": 295584,
      "byteOffset": 894432,
      "target": 34962
    },
    {
      "buffer": 0,
      "byteLength": 295584,
      "byteOffset": 1190016,
      "target": 34962
    },
    {
      "buffer": 0,
      "byteLength": 147792,
      "byteOffset": 1485600,
      "target": 34962
    },
    {
      "buffer": 0,
      "byteLength": 147792,
      "byteOffset": 1633392,
      "target": 34962
    },
    {
      "buffer": 0,
      "byteLength": 108120,
      "byteOffset": 1781184,
      "target": 34963
    },
    {
      "buffer": 0,
      "byteLength": 121392,
      "byteOffset": 1889304,
      "target": 34962
    },
    {
      "buffer": 0,
      "byteLength": 121392,
      "byteOffset": 2010696,
      "target": 34962
    },
    {
      "buffer": 0,
      "byteLength": 161856,
      "byteOffset": 2132088,
      "target": 34962
    },
    {
      "buffer": 0,
      "byteLength": 80928,
      "byteOffset": 2293944,
      "target": 34962
    },
    {
      "buffer": 0,
      "byteLength": 161856,
      "byteOffset": 2374872,
      "target": 34962
    },
    {
      "buffer": 0,
      "byteLength": 161856,
      "byteOffset": 2536728,
      "target": 34962
    },
    {
      "buffer": 0,
      "byteLength": 80928,
      "byteOffset": 2698584,
      "target": 34962
    },
    {
      "buffer": 0,
      "byteLength": 80928,
      "byteOffset": 2779512,
      "target": 34962
    },
    {
      "buffer": 0,
      "byteLength": 96348,
      "byteOffset": 2860440,
      "target": 34963
    }
  ],
  "buffers": [
    {
      "byteLength": 2956788,
      "name": "Kelpstrider.bin",
      "uri": "Kelpstrider.bin"
    }
  ],
  "materials": [
    {
      "extras": {
        "Material Path": "Default"
      },
      "name": "Default"
    },
    {
      "extras": {
        "Material Path": "materials/actors/quadrupedb/quadrupedb_kelpstrider/quadrupedb_kelpstrider_02.mat"
      },
      "name": "Materials/Actors/Quadrupedb/Quadrupedb_Kelpstrider/Quadrupedb_Kelpstrider_02"
    },
    {
      "extras": {
        "Material Path": "materials/actors/quadrupedb/quadrupedb_kelpstrider/quadrupedb_kelpstrider_01.mat"
      },
      "name": "Materials/Actors/Quadrupedb/Quadrupedb_Kelpstrider/Quadrupedb_Kelpstrider_01"
    }
  ],
  "meshes": [
    {
      "name": "QuadrupedB_KelpStrider:0",
      "primitives": [
        {
          "attributes": {
            "JOINTS_0": 8,
            "JOINTS_1": 9,
            "NORMAL": 3,
            "POSITION": 2,
            "TANGENT": 4,
            "TEXCOORD_0": 5,
            "WEIGHTS_0": 6,
            "WEIGHTS_1": 7
          },
          "indices": 10,
          "material": 1,
          "mode": 4
        }
      ]
    },
    {
      "name": "QuadrupedB_KelpStrider:1",
      "primitives": [
        {
          "attributes": {
            "JOINTS_0": 17,
            "JOINTS_1": 18,
            "NORMAL": 12,
            "POSITION": 11,
            "TANGENT": 13,
            "TEXCOORD_0": 14,
            "WEIGHTS_0": 15,
            "WEIGHTS_1": 16
          },
          "indices": 19,
          "material": 2,
          "mode": 4
        }
      ]
    }
  ],
  "nodes": [
    {
      "children": [
        1,
        118,
        119
      ],
      "extras": {
        "Flags": 14,
        "ID": 3,
        "Parent ID": 0
      },
      "name": "Root",
      "rotation": [
        -0.7071067690849304,
        -1.0677029393946214e-07,
        1.0677029393946214e-07,
        0.7071067690849304
      ],
      "scale": [
        1.0,
        1.0,
        1.0
      ],
      "translation": [
        0.0,
        0.0,
        -0.0
      ]
    },
    {
      "children": [
        2,
        48
      ],
      "extras": {
        "Flags": 14,
        "ID": 5,
        "Parent ID": 3
      },
      "name": "COM",
      "rotation": [
        1.5060099940455984e-06,
        7.549800074002633e-08,
        7.549799363459897e-08,
        1.0
      ],
      "scale": [
        1.0,
        1.0,
        1.0
      ],
      "translation": [
        -1.698477092304529e-07,
        -1.482593297958374,
        2.0570759773254395
      ]
    },
    {
      "children": [
        3,
        32,
        40
      ],
      "extras": {
        "Flags": 14,
        "ID": 9,
        "Parent ID": 5
      },
      "name": "C_hips",
      "rotation": [
        0.5000016689300537,
        -0.49999886751174927,
        0.4999997615814209,
        -0.49999964237213135
      ],
      "scale": [
        1.0,
        1.0,
        1.0
      ],
      "translation": [
        -1.3546814336962143e-08,
        -0.08971542119979858,
        3.0517577442878974e-07
      ]
    },
    {
      "children": [
        4,
        29,
        30
      ],
      "extras": {
        "Flags": 14,
        "ID": 12,
        "Parent ID": 9
      },
      "name": "C_Tail",
      "rotation": [
        4.02974658850197e-12,
        2.603393568278989e-06,
        0.06327350437641144,
        0.9979962110519409
      ],
      "scale": [
        1.0,
        1.0,
        1.0
      ],
      "translation": [
        0.38012558221817017,
        0.014348907396197319,
        -7.438071634169319e-07
      ]
    },
    {
      "children": [
        5,
        26,
        27
      ],
      "extras": {
        "Flags": 14,
        "ID": 15,
        "Parent ID": 12
      },
      "name": "C_Tail2",
      "rotation": [
        5.4439862395838645e-08,
        -1.1908489341294626e-06,
        0.0456673763692379,
        0.9989566802978516
      ],
      "scale": [
        1.0,
        1.0,
        1.0
      ],
      "translation": [
        0.4654458463191986,
        3.0517577442878974e-07,
        -2.91038298062124e-13
      ]
    },
    {
      "children": [
        6,
        21,
        22,
        24
      ],
      "extras": {
        "Flags": 14,
        "ID": 18,
        "Parent ID": 15
      },
      "name": "C_Tail3",
      "rotation": [
        1.975455798941539e-09,
        4.901714945049207e-08,
        -0.04026515409350395,
        0.999189019203186
      ],
      "scale": [
        1.0,
        1.0,
        1.0
      ],
      "translation": [
        0.6478004455566406,
        -1.5258788721439487e-07,
        5.82076596124248e-13
      ]
    },
    {
      "children": [
        7,
        17,
        18,
        20
      ],
      "extras": {
        "Flags": 14,
        "ID": 21,
        "Parent ID": 18
      },
      "name": "C_Tail4",
      "rotation": [
        1.2844904029307713e-09,
        3.775264545424761e-08,
        -0.034002672880887985,
        0.9994217157363892
      ],
      "scale": [
        1.0,
        1.0,
        1.0
      ],
      "translation": [
        0.5937368869781494,
        -1.5258788721439487e-07,
        -2.91038298062124e-13
      ]
    },
    {
      "children": [
        8,
        16
      ],
      "extras": {
        "Flags": 14,
        "ID": 24,
        "Parent ID": 21
      },
      "name": "C_Tail5",
      "rotation": [
        7.372992216758689e-10,
        3.1526546706572844e-08,
        -0.02337481454014778,
        0.9997267723083496
      ],
      "scale": [
        1.0,
        1.0,
        1.0
      ],
      "translation": [
        0.5301858186721802,
        2.8421708795129297e-16,
        -5.82076596124248e-13
      ]
    },
    {
      "children": [
        9
      ],
      "extras": {
        "Flags": 14,
        "ID": 27,
        "Parent ID": 24
      },
      "name": "C_Tail6",
      "rotation": [
        1.5664136654436334e-10,
        1.0902103220189474e-08,
        -0.014350874349474907,
        0.9998970031738281
      ],
      "scale": [
        1.0,
        1.0,
        1.0
      ],
      "translation": [
        0.5084185600280762,
        3.0517577442878974e-07,
        -1.45519149031062e-13
      ]
    },
    {
      "children": [
        10,
        14
      ],
      "extras": {
        "Flags": 14,
        "ID": 30,
        "Parent ID": 27
      },
      "name": "C_Tail7",
      "rotation": [
        1.979788555317441e-10,
        1.5916665319082313e-08,
        -0.01243750099092722,
        0.9999226331710815
      ],
      "scale": [
        1.0,
        1.0,
        1.0
      ],
      "translation": [
        0.43135252594947815,
        -3.0517577442878974e-07,
        2.91038298062124e-13
      ]
    },
    {
      "children": [
        11
      ],
      "extras": {
        "Flags": 14,
        "ID": 33,
        "Parent ID": 30
      },
      "name": "C_Tail8",
      "rotation": [
        1.1368580095328859e-13,
        1.8395804373744955e-15,
        0.0005561289144679904,
        0.9999998211860657
      ],
      "scale": [
        1.0,
        1.0,
        1.0
      ],
      "translation": [
        0.3672875761985779,
        3.0517577442878974e-07,
        2.91038298062124e-13
      ]
    },
    {
      "children": [
        12
      ],
      "extras": {
        "Flags": 14,
        "ID": 36,
        "Parent ID": 33
      },
      "name": "C_Tail9",
      "rotation": [
        4.3422127005143807e-10,
        2.3126490944491707e-08,
        -0.018775073811411858,
        0.9998237490653992
      ],
      "scale": [
        1.0,
        1.0,
        1.0
      ],
      "translation": [
        0.30377867817878723,
        -4.577636616431846e-07,
        -1.45519149031062e-13
      ]
    },
    {
      "children": [
        13
      ],
      "extras": {
        "Flags": 14,
        "ID": 39,
        "Parent ID": 36
      },
      "name": "C_Tail10",
      "rotation": [
        1.0662412064377236e-09,
        3.6493716493168904e-08,
        -0.029199987649917603,
        0.9995735883712769
      ],
      "scale": [
        1.0,
        1.0,
        1.0
      ],
      "translation": [
        0.27113035321235657,
        -1.5258788721439487e-07,
        7.275957180502557e-13
      ]
    },
    {
      "extras": {
        "Flags": 14,
        "ID": 42,
        "Parent ID": 39
      },
      "name": "C_Tail11",
      "rotation": [
        1.0587911840678754e-22,
        -1.3234889800848443e-23,
        -1.3877787807814457e-17,
        1.0
      ],
      "scale": [
        1.0,
        1.0,
        1.0
      ],
      "translation": [
        0.21567687392234802,
        -1.5258788721439487e-07,
        0.0
      ]
    },
    {
      "children": [
        15
      ],
      "extras": {
        "Flags": 67108878,
        "ID": 250,
        "Parent ID": 30
      },
      "name": "CLOTH_Bone_27",
      "rotation": [
        0.5282531976699829,
        0.5565630197525024,
        -0.46712204813957214,
        -0.43929851055145264
      ],
      "scale": [
        1.0,
        1.0,
        1.0
      ],
      "translation": [
        0.17865538597106934,
        0.12291869521141052,
        -0.016760559752583504
      ]
    },
    {
      "extras": {
        "Flags": 67108878,
        "ID": 252,
        "Parent ID": 250
      },
      "name": "CLOTH_Bone_28",
      "rotation": [
        -2.390982558608812e-07,
        6.8265944719314575e-06,
        4.118535557040559e-08,
        1.0
      ],
      "scale": [
        1.0,
        1.0,
        1.0
      ],
      "translation": [
        0.30419570207595825,
        7.629394360719743e-08,
        -1.8310546465727384e-06
      ]
    },
    {
      "extras": {
        "Flags": 14,
        "ID": 45,
        "Parent ID": 24
      },
      "name": "C_TailComb5",
      "rotation": [
        5.437952381726063e-07,
        2.7560917104096916e-08,
        0.05061756819486618,
        0.9987180829048157
      ],
      "scale": [
        1.0,
        1.0,
        1.0
      ],
      "translation": [
        0.01951507478952408,
        -0.2291305512189865,
        0.009284422732889652
      ]
    },
    {
      "extras": {
        "Flags": 14,
        "ID": 47,
        "Parent ID": 21
      },
      "name": "C_TailComb4",
      "rotation": [
        5.461651539917511e-07,
        2.699910339742928e-08,
        0.04937368258833885,
        0.998780369758606
      ],
      "scale": [
        1.0,
        1.0,
        1.0
      ],
      "translation": [
        0.01631835848093033,
        -0.31045135855674744,
        -0.0002476861700415611
      ]
    },
    {
      "children": [
        19
      ],
      "extras": {
        "Flags": 67108878,
        "ID": 254,
        "Parent ID": 21
      },
      "name": "CLOTH_Bone_24",
      "rotation": [
        7.91718335335645e-08,
        -1.4894848732183164e-07,
        0.6821391582489014,
        0.73122239112854
      ],
      "scale": [
        1.0,
        1.0,
        1.0
      ],
      "translation": [
        0.04600280523300171,
        0.2145393341779709,
        0.0029003906529396772
      ]
    },
    {
      "extras": {
        "Flags": 67108878,
        "ID": 256,
        "Parent ID": 254
      },
      "name": "CLOTH_Bone_25",
      "rotation": [
        -4.3711398944878965e-08,
        4.371138828673793e-08,
        1.6292067073209182e-07,
        1.0
      ],
      "scale": [
        1.0,
        1.0,
        1.0
      ],
      "translation": [
        0.31159523129463196,
        3.0517577442878974e-07,
        4.708766709882184e-08
      ]
    },
    {
      "extras": {
        "Flags": 67108878,
        "ID": 258,
        "Parent ID": 21
      },
      "name": "CLOTH_Bone_26",
      "rotation": [
        0.6383122801780701,
        0.6077979803085327,
        -0.3343316316604614,
        -0.33370858430862427
      ],
      "scale": [
        1.0,
        1.0,
        1.0
      ],
      "translation": [
        0.24665649235248566,
        0.20742294192314148,
        0.010589753277599812
      ]
    },
    {
      "extras": {
        "Flags": 14,
        "ID": 49,
        "Parent ID": 18
      },
      "name": "C_TailComb3",
      "rotation": [
        5.551220851884864e-07,
        1.7717415312645812e-09,
        0.0031916219741106033,
        0.9999948740005493
      ],
      "scale": [
        1.0,
        1.0,
        1.0
      ],
      "translation": [
        0.0034344482701271772,
        -0.3468347191810608,
        -3.818832965407637e-07
      ]
    },
    {
      "children": [
        23
      ],
      "extras": {
        "Flags": 67108878,
        "ID": 260,
        "Parent ID": 18
      },
      "name": "CLOTH_Bone_20",
      "rotation": [
        -0.5209188461303711,
        -0.4568859040737152,
        0.49014103412628174,
        0.5288295149803162
      ],
      "scale": [
        1.0,
        1.0,
        1.0
      ],
      "translation": [
        0.21734465658664703,
        0.2106483429670334,
        0.04915466159582138
      ]
    },
    {
      "extras": {
        "Flags": 67108878,
        "ID": 262,
        "Parent ID": 260
      },
      "name": "CLOTH_Bone_21",
      "rotation": [
        1.1249446288275067e-05,
        1.646572968638793e-06,
        -4.777870117322891e-07,
        1.0
      ],
      "scale": [
        1.0,
        1.0,
        1.0
      ],
      "translation": [
        0.3085705637931824,
        -1.5258788721439487e-07,
        6.103515488575795e-07
      ]
    },
    {
      "children": [
        25
      ],
      "extras": {
        "Flags": 67108878,
        "ID": 264,
        "Parent ID": 18
      },
      "name": "CLOTH_Bone_22",
      "rotation": [
        0.7539939880371094,
        0.6568813920021057,
        -6.071265090668021e-08,
        -7.955990781738365e-07
      ],
      "scale": [
        1.0,
        1.0,
        1.0
      ],
      "translation": [
        0.41941037774086,
        0.19782240688800812,
        0.042035672813653946
      ]
    },
    {
      "extras": {
        "Flags": 67108878,
        "ID": 266,
        "Parent ID": 264
      },
      "name": "CLOTH_Bone_23",
      "rotation": [
        1.0,
        2.0568215099853182e-12,
        -2.7100270472146804e-06,
        7.589671326968528e-07
      ],
      "scale": [
        1.0,
        1.0,
        1.0
      ],
      "translation": [
        0.19990798830986023,
        -5.684341759025859e-16,
        7.581710406157072e-07
      ]
    },
    {
      "extras": {
        "Flags": 14,
        "ID": 51,
        "Parent ID": 15
      },
      "name": "C_TailComb2",
      "rotation": [
        5.556726137001533e-07,
        3.277681415170264e-08,
        -0.018674246966838837,
        0.999825656414032
      ],
      "scale": [
        1.0,
        1.0,
        1.0
      ],
      "translation": [
        -0.02356826700270176,
        -0.35630735754966736,
        -3.956589864628768e-07
      ]
    },
    {
      "children": [
        28
      ],
      "extras": {
        "Flags": 67108878,
        "ID": 268,
        "Parent ID": 15
      },
      "name": "CLOTH_Bone_18",
      "rotation": [
        0.7528808116912842,
        0.6379154324531555,
        -0.1518702507019043,
        0.05630030855536461
      ],
      "scale": [
        1.0,
        1.0,
        1.0
      ],
      "translation": [
        0.6732282638549805,
        0.11393966525793076,
        -0.11202819645404816
      ]
    },
    {
      "extras": {
        "Flags": 67108878,
        "ID": 270,
        "Parent ID": 268
      },
      "name": "CLOTH_Bone_19",
      "rotation": [
        -1.9101426005363464e-06,
        -2.2351724737745826e-07,
        -8.568210319026548e-08,
        1.0
      ],
      "scale": [
        1.0,
        1.0,
        1.0
      ],
      "translation": [
        0.2614070177078247,
        -6.103515488575795e-07,
        -7.629394360719743e-08
      ]
    },
    {
      "extras": {
        "Flags": 14,
        "ID": 53,
        "Parent ID": 12
      },
      "name": "C_TailComb",
      "rotation": [
        1.066685740624962e-06,
        -1.5160868542807293e-06,
        -0.07610347867012024,
        0.9970998764038086
      ],
      "scale": [
        1.0,
        1.0,
        1.0
      ],
      "translation": [
        -0.07437881082296371,
        -0.3974073827266693,
        -1.0404938848296297e-06
      ]
    },
    {
      "children": [
        31
      ],
      "extras": {
        "Flags": 67108878,
        "ID": 272,
        "Parent ID": 12
      },
      "name": "CLOTH_Bone_16",
      "rotation": [
        0.4953698515892029,
        0.4099797010421753,
        0.42741891741752625,
        0.6354828476905823
      ],
      "scale": [
        1.0,
        1.0,
        1.0
      ],
      "translation": [
        0.4396400451660156,
        0.2818414270877838,
        -0.14018677175045013
      ]
    },
    {
      "extras": {
        "Flags": 67108878,
        "ID": 274,
        "Parent ID": 272
      },
      "name": "CLOTH_Bone_17",
      "rotation": [
        1.1781232842622558e-06,
        1.0877845397772035e-06,
        -2.3841985807848687e-07,
        1.0
      ],
      "scale": [
        1.0,
        1.0,
        1.0
      ],
      "translation": [
        0.19921500980854034,
        -7.629394360719743e-08,
        0.0
      ]
    },
    {
      "children": [
        33
      ],
      "extras": {
        "Flags": 14,
        "ID": 55,
        "Parent ID": 9
      },
      "name": "L_Pelvis",
      "rotation": [
        -0.002700116252526641,
        0.6806371808052063,
        -0.0029066666029393673,
        0.7326099276542664
      ],
      "scale": [
        1.0,
        1.0,
        1.0
      ],
      "translation": [
        0.07884155213832855,
        0.09944595396518707,
        0.10950756072998047
      ]
    },
    {
      "children": [
        34,
        38
      ],
      "extras": {
        "Flags": 14,
        "ID": 57,
        "Parent ID": 55
      },
      "name": "L_Thigh",
      "rotation": [
        -0.5148810148239136,
        -0.43606695532798767,
        0.5664008855819702,
        0.47321581840515137
      ],
      "scale": [
        1.0,
        1.0,
        1.0
      ],
      "translation": [
        0.49447718262672424,
        -0.0060353088192641735,
        -0.026259001344442368
      ]
    },
    {
      "children": [
        35
      ],
      "extras": {
        "Flags": 14,
        "ID": 60,
        "Parent ID": 57
      },
      "name": "L_Calf",
      "rotation": [
        2.4593836300823568e-08,
        1.0088913171557579e-07,
        -0.23247651755809784,
        0.9726020097732544
      ],
      "scale": [
        1.0,
        1.0,
        1.0
      ],
      "translation": [
        0.9770010113716125,
        -2.8421708795129297e-16,
        0.0
      ]
    },
    {
      "children": [
        36
      ],
      "extras": {
        "Flags": 14,
        "ID": 63,
        "Parent ID": 60
      },
      "name": "L_Ankle",
      "rotation": [
        -0.006411702837795019,
        0.005406413227319717,
        0.35073426365852356,
        0.9364374876022339
      ],
      "scale": [
        1.0,
        1.0,
        1.0
      ],
      "translation": [
        0.7220368981361389,
        4.577636616431846e-07,
        3.814697180359872e-08
      ]
    },
    {
      "children": [
        37
      ],
      "extras": {
        "Flags": 14,
        "ID": 66,
        "Parent ID": 63
      },
      "name": "L_Toe",
      "rotation": [
        1.3830894204147626e-05,
        -7.391247345367447e-05,
        0.439085990190506,
        0.8984450697898865
      ],
      "scale": [
        1.0,
        1.0,
        1.0
      ],
      "translation": [
        0.24676184356212616,
        7.629394076502649e-07,
        3.814697180359872e-08
      ]
    },
    {
      "extras": {
        "Flags": 14,
        "ID": 69,
        "Parent ID": 66
      },
      "name": "xL_Toe",
      "rotation": [
        -9.31322685637781e-10,
        -6.938895558268453e-18,
        7.450581485102248e-09,
        1.0
      ],
      "scale": [
        1.0,
        1.0,
        1.0
      ],
      "translation": [
        0.30421897768974304,
        -9.536742595628311e-08,
        -7.629394360719743e-08
      ]
    },
    {
      "children": [
        39
      ],
      "extras": {
        "Flags": 14,
        "ID": 71,
        "Parent ID": 57
      },
      "name": "L_BackTwist",
      "rotation": [
        1.8182168270985954e-10,
        1.1920930376163597e-07,
        6.482005687757919e-07,
        1.0
      ],
      "scale": [
        1.0,
        1.0,
        1.0
      ],
      "translation": [
        -1.5258788153005298e-06,
        -1.5258788153005298e-06,
        2.670288097306184e-07
      ]
    },
    {
      "extras": {
        "Flags": 14,
        "ID": 73,
        "Parent ID": 71
      },
      "name": "xL_BackTwist",
      "rotation": [
        -1.2951204553246498e-09,
        2.3283067140944524e-10,
        -1.4901161193847656e-08,
        1.0
      ],
      "scale": [
        1.0,
        1.0,
        1.0
      ],
      "translation": [
        0.9770028591156006,
        1.5258788721439487e-07,
        3.814697180359872e-08
      ]
    },
    {
      "children": [
        41
      ],
      "extras": {
        "Flags": 14,
        "ID": 75,
        "Parent ID": 9
      },
      "name": "R_Pelvis",
      "rotation": [
        -0.6806349754333496,
        -0.0027008678298443556,
        0.732611894607544,
        0.002907690592110157
      ],
      "scale": [
        1.0,
        1.0,
        1.0
      ],
      "translation": [
        0.0788409411907196,
        0.09944610297679901,
        -0.10950743407011032
      ]
    },
    {
      "children": [
        42,
        46
      ],
      "extras": {
        "Flags": 14,
        "ID": 77,
        "Parent ID": 75
      },
      "name": "R_Thigh",
      "rotation": [
        -0.5148810148239136,
        -0.4360669255256653,
        0.5664008855819702,
        0.47321581840515137
      ],
      "scale": [
        1.0000009536743164,
        1.0000009536743164,
        1.0000009536743164
      ],
      "translation": [
        -0.4944775402545929,
        0.006036071572452784,
        0.026258086785674095
      ]
    },
    {
      "children": [
        43
      ],
      "extras": {
        "Flags": 14,
        "ID": 80,
        "Parent ID": 77
      },
      "name": "R_Calf",
      "rotation": [
        2.488311778847674e-08,
        1.0022152707733767e-07,
        -0.23247651755809784,
        0.9726020097732544
      ],
      "scale": [
        1.0,
        1.0,
        1.0
      ],
      "translation": [
        -0.9770027995109558,
        7.629394076502649e-07,
        -9.5367431640625e-07
      ]
    },
    {
      "children": [
        44
      ],
      "extras": {
        "Flags": 14,
        "ID": 83,
        "Parent ID": 80
      },
      "name": "R_Ankle",
      "rotation": [
        -0.00641170609742403,
        0.005406422074884176,
        0.3507342040538788,
        0.9364374876022339
      ],
      "scale": [
        1.0,
        1.0,
        1.0
      ],
      "translation": [
        -0.7220348715782166,
        -2.441406195430318e-06,
        7.24792471373803e-07
      ]
    },
    {
      "children": [
        45
      ],
      "extras": {
        "Flags": 14,
        "ID": 86,
        "Parent ID": 83
      },
      "name": "R_Toe",
      "rotation": [
        1.3831671822117642e-05,
        -7.391194230876863e-05,
        0.4390859007835388,
        0.8984450697898865
      ],
      "scale": [
        1.0,
        1.0,
        1.0
      ],
      "translation": [
        -0.24676039814949036,
        4.272460955689894e-06,
        -2.288818308215923e-07
      ]
    },
    {
      "extras": {
        "Flags": 14,
        "ID": 89,
        "Parent ID": 86
      },
      "name": "xR_Toe",
      "rotation": [
        -1.8626449271863521e-09,
        -2.3283067140944524e-10,
        1.4901161193847656e-08,
        1.0
      ],
      "scale": [
        1.0,
        1.0,
        1.0
      ],
      "translation": [
        -0.30421996116638184,
        -2.0980834847250662e-07,
        -7.629394360719743e-08
      ]
    },
    {
      "children": [
        47
      ],
      "extras": {
        "Flags": 14,
        "ID": 91,
        "Parent ID": 77
      },
      "name": "R_BackTwist",
      "rotation": [
        6.765736859648541e-10,
        1.2660170511935576e-07,
        7.152559646783629e-07,
        1.0
      ],
      "scale": [
        1.0,
        1.0,
        1.0
      ],
      "translation": [
        0.0,
        3.0517577442878974e-07,
        -9.91821252682712e-07
      ]
    },
    {
      "extras": {
        "Flags": 14,
        "ID": 93,
        "Parent ID": 91
      },
      "name": "xR_BackTwist",
      "rotation": [
        -1.673470528817944e-10,
        -1.7462299661819003e-10,
        -1.4901162970204496e-08,
        1.0
      ],
      "scale": [
        1.0,
        1.0,
        1.0
      ],
      "translation": [
        -0.977003276348114,
        2.136230477844947e-06,
        -7.629394360719743e-08
      ]
    },
    {
      "children": [
        49
      ],
      "extras": {
        "Flags": 14,
        "ID": 95,
        "Parent ID": 5
      },
      "name": "C_spine",
      "rotation": [
        0.5000014305114746,
        0.49999862909317017,
        -0.5000001192092896,
        -0.4999997615814209
      ],
      "scale": [
        1.0,
        1.0,
        1.0
      ],
      "translation": [
        9.277427714948772e-09,
        0.06144149601459503,
        -1.5258788721439487e-07
      ]
    },
    {
      "children": [
        50,
        117
      ],
      "extras": {
        "Flags": 14,
        "ID": 98,
        "Parent ID": 95
      },
      "name": "C_spine2",
      "rotation": [
        3.546718474467525e-11,
        -5.209260566547828e-16,
        1.0658141036401503e-14,
        1.0
      ],
      "scale": [
        1.0,
        1.0,
        1.0
      ],
      "translation": [
        0.3499997556209564,
        0.0,
        3.7980496525591434e-10
      ]
    },
    {
      "children": [
        51,
        108,
        109,
        110,
        111,
        113,
        115
      ],
      "extras": {
        "Flags": 14,
        "ID": 101,
        "Parent ID": 98
      },
      "name": "C_spine3",
      "rotation": [
        3.546718474467525e-11,
        -5.178253337326808e-16,
        1.0658141036401503e-14,
        1.0
      ],
      "scale": [
        1.0,
        1.0,
        1.0
      ],
      "translation": [
        0.3499999940395355,
        -1.3732909565078444e-06,
        1.774994302650157e-06
      ]
    },
    {
      "children": [
        52,
        53,
        87,
        95,
        103,
        104,
        106
      ],
      "extras": {
        "Flags": 14,
        "ID": 104,
        "Parent ID": 101
      },
      "name": "C_spine4",
      "rotation": [
        5.453334311900093e-11,
        -9.298324584960938e-06,
        7.8239139611469e-08,
        1.0
      ],
      "scale": [
        1.0,
        1.0,
        1.0
      ],
      "translation": [
        0.34999969601631165,
        0.0,
        -1.0338002311982564e-06
      ]
    },
    {
      "extras": {
        "Flags": 14,
        "ID": 107,
        "Parent ID": 104
      },
      "name": "C_Belly3",
      "rotation": [
        -2.9568840886895487e-07,
        8.144981620716862e-06,
        -0.05155922472476959,
        0.9986699223518372
      ],
      "scale": [
        1.0,
        1.0,
        1.0
      ],
      "translation": [
        0.17106568813323975,
        0.6051726937294006,
        -3.582530041512655e-07
      ]
    },
    {
      "children": [
        54
      ],
      "extras": {
        "Flags": 14,
        "ID": 109,
        "Parent ID": 104
      },
      "name": "C_Neck",
      "rotation": [
        -4.796491339220665e-06,
        6.882525667606387e-06,
        -0.5710597038269043,
        0.8209085464477539
      ],
      "scale": [
        1.0,
        1.0,
        1.0
      ],
      "translation": [
        0.28406012058258057,
        -0.6194268465042114,
        -3.0208800581021933e-06
      ]
    },
    {
      "children": [
        55,
        86
      ],
      "extras": {
        "Flags": 14,
        "ID": 112,
        "Parent ID": 109
      },
      "name": "C_Neck2",
      "rotation": [
        -3.440961404699294e-10,
        2.186731329345548e-08,
        0.015811553224921227,
        0.999875009059906
      ],
      "scale": [
        1.0,
        1.0,
        1.0
      ],
      "translation": [
        0.5753471255302429,
        -7.629394360719743e-08,
        -3.2014213328934726e-12
      ]
    },
    {
      "children": [
        56,
        85
      ],
      "extras": {
        "Flags": 14,
        "ID": 115,
        "Parent ID": 112
      },
      "name": "C_Neck3",
      "rotation": [
        1.7657023846512354e-12,
        6.551381836252543e-15,
        -0.0005652903928421438,
        0.9999998211860657
      ],
      "scale": [
        1.0,
        1.0,
        1.0
      ],
      "translation": [
        0.45103758573532104,
        0.0,
        0.0
      ]
    },
    {
      "children": [
        57,
        82,
        83,
        84
      ],
      "extras": {
        "Flags": 14,
        "ID": 118,
        "Parent ID": 115
      },
      "name": "C_Neck4",
      "rotation": [
        1.7665849252196386e-12,
        1.1919713263294773e-13,
        0.07182382792234421,
        0.9974173307418823
      ],
      "scale": [
        1.0,
        1.0,
        1.0
      ],
      "translation": [
        0.4270526170730591,
        -3.0517577442878974e-07,
        3.561199113377711e-09
      ]
    },
    {
      "children": [
        58,
        78,
        79,
        80,
        81
      ],
      "extras": {
        "Flags": 14,
        "ID": 121,
        "Parent ID": 118
      },
      "name": "C_Neck5",
      "rotation": [
        1.5151006534444567e-12,
        2.8401602901115264e-13,
        0.1927354633808136,
        0.9812507629394531
      ],
      "scale": [
        1.0,
        1.0,
        1.0
      ],
      "translation": [
        0.41563230752944946,
        -2.8421708795129297e-16,
        2.0008883330584204e-13
      ]
    },
    {
      "children": [
        59
      ],
      "extras": {
        "Flags": 14,
        "ID": 124,
        "Parent ID": 121
      },
      "name": "C_Neck6",
      "rotation": [
        1.6547467606223276e-12,
        -1.6215536400611408e-13,
        -0.09566600620746613,
        0.9954134821891785
      ],
      "scale": [
        1.0,
        1.0,
        1.0
      ],
      "translation": [
        0.31006956100463867,
        3.0517577442878974e-07,
        5.366018501935799e-13
      ]
    },
    {
      "children": [
        60,
        61,
        66,
        71,
        72,
        75
      ],
      "extras": {
        "Flags": 14,
        "ID": 127,
        "Parent ID": 124
      },
      "name": "C_Head",
      "rotation": [
        6.354105067628291e-13,
        2.7401334239812725e-13,
        0.41026827692985535,
        0.9119648933410645
      ],
      "scale": [
        1.0,
        1.0,
        1.0
      ],
      "translation": [
        0.2555941641330719,
        0.13570372760295868,
        0.0007975877379067242
      ]
    },
    {
      "extras": {
        "Flags": 14,
        "ID": 130,
        "Parent ID": 127
      },
      "name": "C_Horn",
      "rotation": [
        4.303225256598736e-13,
        -1.6305298040572569e-12,
        1.4551916963090328e-11,
        1.0
      ],
      "scale": [
        1.0,
        1.0,
        1.0
      ],
      "translation": [
        0.472065269947052,
        -0.1765301525592804,
        -0.0012785112485289574
      ]
    },
    {
      "children": [
        62
      ],
      "extras": {
        "Flags": 14,
        "ID": 132,
        "Parent ID": 127
      },
      "name": "R_Chintacle",
      "rotation": [
        -0.5216926336288452,
        -0.47732236981391907,
        0.5227909684181213,
        0.4761194884777069
      ],
      "scale": [
        1.0,
        1.0,
        1.0
      ],
      "translation": [
        0.053667906671762466,
        0.16372863948345184,
        -0.219412162899971
      ]
    },
    {
      "children": [
        63
      ],
      "extras": {
        "Flags": 14,
        "ID": 135,
        "Parent ID": 132
      },
      "name": "R_Chintacle1",
      "rotation": [
        2.596746595528998e-09,
        -2.386678090715577e-07,
        -0.04552079364657402,
        0.9989633560180664
      ],
      "scale": [
        1.0,
        1.0,
        1.0
      ],
      "translation": [
        0.2628933787345886,
        -7.629394360719743e-08,
        -1.5258788721439487e-07
      ]
    },
    {
      "children": [
        64
      ],
      "extras": {
        "Flags": 14,
        "ID": 138,
        "Parent ID": 135
      },
      "name": "R_Chintacle2",
      "rotation": [
        -4.385380947269368e-15,
        4.336808689942018e-19,
        -1.4210851327070215e-14,
        1.0
      ],
      "scale": [
        1.0,
        1.0,
        1.0
      ],
      "translation": [
        0.3451184034347534,
        0.0,
        -1.5258788721439487e-07
      ]
    },
    {
      "children": [
        65
      ],
      "extras": {
        "Flags": 14,
        "ID": 141,
        "Parent ID": 138
      },
      "name": "R_Chintacle3",
      "rotation": [
        2.3953061756287752e-14,
        1.164152940713592e-10,
        -1.4210851327070215e-14,
        1.0
      ],
      "scale": [
        1.0,
        1.0,
        1.0
      ],
      "translation": [
        0.20545165240764618,
        1.907348590179936e-08,
        -7.629394360719743e-08
      ]
    },
    {
      "extras": {
        "Flags": 14,
        "ID": 144,
        "Parent ID": 141
      },
      "name": "R_Chintacle4",
      "rotation": [
        -1.6263934643490074e-12,
        4.3368195466875575e-19,
        -6.821209721195876e-13,
        1.0
      ],
      "scale": [
        1.0,
        1.0,
        1.0
      ],
      "translation": [
        0.1848803609609604,
        0.0,
        -1.5258788721439487e-07
      ]
    },
    {
      "children": [
        67
      ],
      "extras": {
        "Flags": 14,
        "ID": 146,
        "Parent ID": 127
      },
      "name": "L_Chintacle",
      "rotation": [
        -0.47732362151145935,
        0.521691620349884,
        -0.47612059116363525,
        0.5227899551391602
      ],
      "scale": [
        1.0,
        1.0,
        1.0
      ],
      "translation": [
        0.053666915744543076,
        0.16372741758823395,
        0.21781744062900543
      ]
    },
    {
      "children": [
        68
      ],
      "extras": {
        "Flags": 14,
        "ID": 149,
        "Parent ID": 146
      },
      "name": "L_Chintacle1",
      "rotation": [
        -6.991979911719071e-12,
        3.1859543757513376e-13,
        -0.04551864415407181,
        0.998963475227356
      ],
      "scale": [
        1.0,
        1.0,
        1.0
      ],
      "translation": [
        -0.26289916038513184,
        -7.105427198782324e-17,
        -1.4210854397564648e-16
      ]
    },
    {
      "children": [
        69
      ],
      "extras": {
        "Flags": 14,
        "ID": 152,
        "Parent ID": 149
      },
      "name": "L_Chintacle2",
      "rotation": [
        1.6462942120654134e-12,
        -4.3367980916904194e-19,
        6.394884621840902e-13,
        1.0
      ],
      "scale": [
        1.0,
        1.0,
        1.0
      ],
      "translation": [
        -0.345110148191452,
        0.0,
        1.4210854397564648e-16
      ]
    },
    {
      "children": [
        70
      ],
      "extras": {
        "Flags": 14,
        "ID": 155,
        "Parent ID": 152
      },
      "name": "L_Chintacle3",
      "rotation": [
        1.6480983244804293e-12,
        1.0773607488957246e-24,
        6.536993168992922e-13,
        1.0
      ],
      "scale": [
        1.0,
        1.0,
        1.0
      ],
      "translation": [
        -0.20546020567417145,
        1.907348590179936e-08,
        0.0
      ]
    },
    {
      "extras": {
        "Flags": 14,
        "ID": 158,
        "Parent ID": 155
      },
      "name": "L_Chintacle4",
      "rotation": [
        1.6463774787922603e-12,
        -4.3367975747025366e-19,
        6.679101716144942e-13,
        1.0
      ],
      "scale": [
        1.0,
        1.0,
        1.0
      ],
      "translation": [
        -0.18488067388534546,
        1.907348590179936e-08,
        -7.629394360719743e-08
      ]
    },
    {
      "extras": {
        "Flags": 14,
        "ID": 160,
        "Parent ID": 127
      },
      "name": "C_Jaw",
      "rotation": [
        4.0701903653017624e-13,
        -1.6250442831655665e-12,
        -0.0023166437167674303,
        0.9999973177909851
      ],
      "scale": [
        1.0,
        1.0,
        1.0
      ],
      "translation": [
        0.12568877637386322,
        0.08741150051355362,
        0.003380492329597473
      ]
    },
    {
      "children": [
        73
      ],
      "extras": {
        "Flags": 14,
        "ID": 163,
        "Parent ID": 127
      },
      "name": "L_Ear",
      "rotation": [
        0.535944938659668,
        -0.4815209209918976,
        0.46815168857574463,
        0.5116000175476074
      ],
      "scale": [
        1.0,
        1.0,
        1.0
      ],
      "translation": [
        -0.008968276903033257,
        -0.13781188428401947,
        0.26458740234375
      ]
    },
    {
      "children": [
        74
      ],
      "extras": {
        "Flags": 14,
        "ID": 165,
        "Parent ID": 163
      },
      "name": "L_Ear2",
      "rotation": [
        -4.6566125955216364e-10,
        4.470348358154297e-08,
        -9.313225746154785e-10,
        1.0
      ],
      "scale": [
        1.0,
        1.0,
        1.0
      ],
      "translation": [
        0.3700040280818939,
        5.187988335819682e-06,
        1.068115216185106e-05
      ]
    },
    {
      "extras": {
        "Flags": 14,
        "ID": 167,
        "Parent ID": 165
      },
      "name": "L_Ear3",
      "rotation": [
        1.9515643240642143e-18,
        3.725290742551124e-09,
        -9.89530235528946e-10,
        1.0
      ],
      "scale": [
        1.0,
        1.0,
        1.0
      ],
      "translation": [
        0.16499465703964233,
        -1.2969970157428179e-05,
        -8.544921911379788e-06
      ]
    },
    {
      "children": [
        76
      ],
      "extras": {
        "Flags": 14,
        "ID": 169,
        "Parent ID": 127
      },
      "name": "R_Ear",
      "rotation": [
        0.4815204441547394,
        0.5359452962875366,
        0.5115997195243835,
        -0.46815207600593567
      ],
      "scale": [
        1.0,
        1.0,
        1.0
      ],
      "translation": [
        -0.008964919485151768,
        -0.13781219720840454,
        -0.26458740234375
      ]
    },
    {
      "children": [
        77
      ],
      "extras": {
        "Flags": 14,
        "ID": 171,
        "Parent ID": 169
      },
      "name": "R_Ear2",
      "rotation": [
        8.451355934524507e-17,
        3.91155481338501e-08,
        -2.1827872842550278e-09,
        1.0
      ],
      "scale": [
        1.0,
        1.0,
        1.0
      ],
      "translation": [
        -0.3700040280818939,
        -5.7220458984375e-06,
        -9.765624781721272e-06
      ]
    },
    {
      "extras": {
        "Flags": 14,
        "ID": 173,
        "Parent ID": 171
      },
      "name": "R_Ear3",
      "rotation": [
        4.6566123179658803e-10,
        1.862645149230957e-09,
        -2.2118913367563664e-09,
        1.0
      ],
      "scale": [
        1.0,
        1.0,
        1.0
      ],
      "translation": [
        -0.1649940460920334,
        7.476806331396801e-06,
        7.62939453125e-06
      ]
    },
    {
      "extras": {
        "Flags": 14,
        "ID": 175,
        "Parent ID": 121
      },
      "name": "C_Comb4",
      "rotation": [
        8.632478909476049e-08,
        3.066177356458866e-08,
        -0.18113048374652863,
        0.9834590554237366
      ],
      "scale": [
        1.0,
        1.0,
        1.0
      ],
      "translation": [
        -0.12554535269737244,
        -0.3336114287376404,
        -5.636530531205608e-08
      ]
    },
    {
      "extras": {
        "Flags": 14,
        "ID": 177,
        "Parent ID": 121
      },
      "name": "L_Hood2",
      "rotation": [
        9.033648495915259e-08,
        1.5212989978863334e-08,
        -0.007682222872972488,
        0.9999704957008362
      ],
      "scale": [
        1.0,
        1.0,
        1.0
      ],
      "translation": [
        0.22595000267028809,
        0.11554473638534546,
        0.2942737340927124
      ]
    },
    {
      "extras": {
        "Flags": 14,
        "ID": 179,
        "Parent ID": 121
      },
      "name": "R_Hood2",
      "rotation": [
        -8.901831095170509e-13,
        -1.5293110744787897e-12,
        0.9999704957008362,
        0.007682177238166332
      ],
      "scale": [
        1.0,
        1.0,
        1.0
      ],
      "translation": [
        0.22595489025115967,
        0.11554290354251862,
        -0.2942740023136139
      ]
    },
    {
      "extras": {
        "Flags": 14,
        "ID": 181,
        "Parent ID": 121
      },
      "name": "C_Throat",
      "rotation": [
        9.033648495915259e-08,
        1.5212989978863334e-08,
        -0.007682222872972488,
        0.9999704957008362
      ],
      "scale": [
        1.0,
        1.0,
        1.0
      ],
      "translation": [
        -0.02123565599322319,
        0.27221739292144775,
        4.595597502543569e-08
      ]
    },
    {
      "extras": {
        "Flags": 14,
        "ID": 183,
        "Parent ID": 118
      },
      "name": "C_Comb3",
      "rotation": [
        8.458764710894684e-08,
        9.990162030959482e-10,
        0.011813109740614891,
        0.999930202960968
      ],
      "scale": [
        1.0,
        1.0,
        1.0
      ],
      "translation": [
        0.017212828621268272,
        -0.3128289580345154,
        -5.964987082052176e-08
      ]
    },
    {
      "extras": {
        "Flags": 14,
        "ID": 185,
        "Parent ID": 118
      },
      "name": "L_Hood",
      "rotation": [
        8.458764710894684e-08,
        9.990162030959482e-10,
        0.011813109740614891,
        0.999930202960968
      ],
      "scale": [
        1.0,
        1.0,
        1.0
      ],
      "translation": [
        -0.0018017577240243554,
        0.29625120759010315,
        0.24020510911941528
      ]
    },
    {
      "extras": {
        "Flags": 14,
        "ID": 187,
        "Parent ID": 118
      },
      "name": "R_Hood",
      "rotation": [
        -2.6914844593502185e-13,
        -1.7658927705527239e-12,
        0.999930202960968,
        -0.01181306503713131
      ],
      "scale": [
        1.0,
        1.0,
        1.0
      ],
      "translation": [
        -0.001797485281713307,
        0.2962501347064972,
        -0.24020496010780334
      ]
    },
    {
      "extras": {
        "Flags": 14,
        "ID": 189,
        "Parent ID": 115
      },
      "name": "C_Comb2",
      "rotation": [
        8.696838449395727e-08,
        -1.8461867590247039e-09,
        -0.02122434787452221,
        0.9997747540473938
      ],
      "scale": [
        1.0,
        1.0,
        1.0
      ],
      "translation": [
        0.018663330003619194,
        -0.28084197640419006,
        -4.836211431324955e-08
      ]
    },
    {
      "extras": {
        "Flags": 14,
        "ID": 191,
        "Parent ID": 112
      },
      "name": "C_Comb",
      "rotation": [
        8.671801765558484e-08,
        -8.511820137613313e-10,
        -0.009815524332225323,
        0.9999518394470215
      ],
      "scale": [
        1.0,
        1.0,
        1.0
      ],
      "translation": [
        -0.028974609449505806,
        -0.3109016418457031,
        -5.428032423537843e-08
      ]
    },
    {
      "children": [
        88
      ],
      "extras": {
        "Flags": 14,
        "ID": 193,
        "Parent ID": 104
      },
      "name": "L_Clav",
      "rotation": [
        0.025659427046775818,
        0.7699042558670044,
        0.02123970352113247,
        0.6372894644737244
      ],
      "scale": [
        1.0,
        1.0,
        1.0
      ],
      "translation": [
        0.27021265029907227,
        0.08305542171001434,
        -0.27362674474716187
      ]
    },
    {
      "children": [
        89,
        93
      ],
      "extras": {
        "Flags": 14,
        "ID": 195,
        "Parent ID": 193
      },
      "name": "L_Bicep",
      "rotation": [
        0.6314502954483032,
        0.4389398396015167,
        -0.4929946959018707,
        -0.4068889021873474
      ],
      "scale": [
        1.0,
        1.0,
        1.0
      ],
      "translation": [
        -0.7545561194419861,
        0.0,
        -5.626678216685832e-07
      ]
    },
    {
      "children": [
        90
      ],
      "extras": {
        "Flags": 14,
        "ID": 198,
        "Parent ID": 195
      },
      "name": "L_Elbow",
      "rotation": [
        -0.00502684386447072,
        -0.013190209865570068,
        -0.16557922959327698,
        0.9860954880714417
      ],
      "scale": [
        1.0,
        1.0,
        1.0
      ],
      "translation": [
        0.9142260551452637,
        1.5258788721439487e-07,
        1.9073485191256623e-07
      ]
    },
    {
      "children": [
        91
      ],
      "extras": {
        "Flags": 14,
        "ID": 201,
        "Parent ID": 198
      },
      "name": "L_Wrist",
      "rotation": [
        -0.004472787491977215,
        -0.010933345183730125,
        -0.13567490875720978,
        0.9906830191612244
      ],
      "scale": [
        1.0,
        1.0,
        1.0
      ],
      "translation": [
        0.8463480472564697,
        4.768371297814156e-08,
        -1.5258788721439487e-07
      ]
    },
    {
      "children": [
        92
      ],
      "extras": {
        "Flags": 14,
        "ID": 204,
        "Parent ID": 201
      },
      "name": "L_Hand",
      "rotation": [
        -0.008504558354616165,
        0.021850500255823135,
        -0.4485044479370117,
        0.8934729695320129
      ],
      "scale": [
        1.0,
        1.0,
        1.0
      ],
      "translation": [
        0.19990131258964539,
        -9.53674295089968e-09,
        3.814697180359872e-08
      ]
    },
    {
      "extras": {
        "Flags": 14,
        "ID": 207,
        "Parent ID": 204
      },
      "name": "xL_Hand",
      "rotation": [
        -4.6566123179658803e-10,
        1.1641534958251043e-10,
        -2.980232594040899e-08,
        1.0
      ],
      "scale": [
        1.0,
        1.0,
        1.0
      ],
      "translation": [
        0.350969523191452,
        -4.768371297814156e-08,
        -3.814697180359872e-08
      ]
    },
    {
      "children": [
        94
      ],
      "extras": {
        "Flags": 14,
        "ID": 209,
        "Parent ID": 195
      },
      "name": "L_FrontTwist",
      "rotation": [
        0.031602125614881516,
        1.4537536507930326e-08,
        -9.695189646663493e-07,
        0.9995005130767822
      ],
      "scale": [
        1.0,
        1.0,
        1.0
      ],
      "translation": [
        3.0517577442878974e-07,
        1.5258788153005298e-06,
        -3.814697180359872e-08
      ]
    },
    {
      "extras": {
        "Flags": 14,
        "ID": 211,
        "Parent ID": 209
      },
      "name": "xL_FrontTwist",
      "rotation": [
        -1.8626449271863521e-09,
        1.8626449271863521e-09,
        1.4901159417490817e-08,
        1.0
      ],
      "scale": [
        1.0,
        1.0,
        1.0
      ],
      "translation": [
        0.9142260551452637,
        3.814697180359872e-08,
        3.814697180359872e-08
      ]
    },
    {
      "children": [
        96
      ],
      "extras": {
        "Flags": 14,
        "ID": 213,
        "Parent ID": 104
      },
      "name": "R_Clav",
      "rotation": [
        0.7698936462402344,
        -0.025659339502453804,
        -0.6373022794723511,
        0.021239856258034706
      ],
      "scale": [
        1.0,
        1.0,
        1.0
      ],
      "translation": [
        0.2702217400074005,
        0.08305542171001434,
        0.27361825108528137
      ]
    },
    {
      "children": [
        97,
        101
      ],
      "extras": {
        "Flags": 14,
        "ID": 215,
        "Parent ID": 213
      },
      "name": "R_Bicep",
      "rotation": [
        0.6314502954483032,
        0.4389398992061615,
        -0.4929946959018707,
        -0.4068889021873474
      ],
      "scale": [
        1.0,
        1.0,
        1.0
      ],
      "translation": [
        0.7545561194419861,
        -3.0517577442878974e-07,
        5.4836272056491e-07
      ]
    },
    {
      "children": [
        98
      ],
      "extras": {
        "Flags": 14,
        "ID": 218,
        "Parent ID": 215
      },
      "name": "R_Elbow",
      "rotation": [
        -0.005026844330132008,
        -0.013190209865570068,
        -0.16557927429676056,
        0.9860954284667969
      ],
      "scale": [
        1.0,
        1.0,
        1.0
      ],
      "translation": [
        -0.9142224192619324,
        -7.24792471373803e-07,
        1.5258788721439487e-07
      ]
    },
    {
      "children": [
        99
      ],
      "extras": {
        "Flags": 14,
        "ID": 221,
        "Parent ID": 218
      },
      "name": "R_Wrist",
      "rotation": [
        -0.004472787491977215,
        -0.010933343321084976,
        -0.13567490875720978,
        0.9906830191612244
      ],
      "scale": [
        1.0,
        1.0,
        1.0
      ],
      "translation": [
        -0.8463520407676697,
        -1.0108947208209429e-06,
        -4.1961669694501325e-07
      ]
    },
    {
      "children": [
        100
      ],
      "extras": {
        "Flags": 14,
        "ID": 224,
        "Parent ID": 221
      },
      "name": "R_Hand",
      "rotation": [
        -0.008504558354616165,
        0.021850498393177986,
        -0.4485044777393341,
        0.8934729695320129
      ],
      "scale": [
        1.0,
        1.0,
        1.0
      ],
      "translation": [
        -0.1999015212059021,
        2.384185791015625e-07,
        6.866454782539222e-07
      ]
    },
    {
      "extras": {
        "Flags": 14,
        "ID": 227,
        "Parent ID": 224
      },
      "name": "xR_Hand",
      "rotation": [
        4.656613428188905e-10,
        2.3283067140944524e-10,
        -2.7863995832877464e-17,
        1.0
      ],
      "scale": [
        1.0,
        1.0,
        1.0
      ],
      "translation": [
        -0.35097000002861023,
        2.47955313170678e-07,
        -4.1961669694501325e-07
      ]
    },
    {
      "children": [
        102
      ],
      "extras": {
        "Flags": 14,
        "ID": 229,
        "Parent ID": 215
      },
      "name": "R_FrontTwist",
      "rotation": [
        0.031602125614881516,
        6.722413559145934e-08,
        -7.177386578405276e-07,
        0.9995005130767822
      ],
      "scale": [
        1.0,
        1.0,
        1.0
      ],
      "translation": [
        -3.0517577442878974e-07,
        -1.5640258652638295e-06,
        3.814697180359872e-08
      ]
    },
    {
      "extras": {
        "Flags": 14,
        "ID": 231,
        "Parent ID": 229
      },
      "name": "xR_FrontTwist",
      "rotation": [
        1.8626450382086546e-09,
        -1.862645149230957e-09,
        -2.9802322387695313e-08,
        1.0
      ],
      "scale": [
        1.0,
        1.0,
        1.0
      ],
      "translation": [
        -0.9142217040061951,
        -7.24792471373803e-07,
        2.670288097306184e-07
      ]
    },
    {
      "extras": {
        "Flags": 67108878,
        "ID": 276,
        "Parent ID": 104
      },
      "name": "CLOTH_Bone_00",
      "rotation": [
        0.5000041723251343,
        0.5000039339065552,
        0.4999959468841553,
        0.4999959468841553
      ],
      "scale": [
        1.0,
        1.0,
        1.0
      ],
      "translation": [
        0.6370185613632202,
        0.44028472900390625,
        -0.01629181019961834
      ]
    },
    {
      "children": [
        105
      ],
      "extras": {
        "Flags": 67108878,
        "ID": 278,
        "Parent ID": 104
      },
      "name": "CLOTH_Bone_02",
      "rotation": [
        0.500004231929779,
        0.5000040531158447,
        0.4999958872795105,
        0.4999958276748657
      ],
      "scale": [
        1.0,
        1.0,
        1.0
      ],
      "translation": [
        0.5187355875968933,
        0.6650050282478333,
        -0.017131956294178963
      ]
    },
    {
      "extras": {
        "Flags": 67108878,
        "ID": 280,
        "Parent ID": 278
      },
      "name": "CLOTH_Bone_03",
      "rotation": [
        1.0,
        1.6292068494294654e-07,
        -4.371141315573368e-08,
        -1.1920927533992653e-07
      ],
      "scale": [
        1.0,
        1.0,
        1.0
      ],
      "translation": [
        0.2209334522485733,
        5.960464477539063e-08,
        3.814697180359872e-08
      ]
    },
    {
      "children": [
        107
      ],
      "extras": {
        "Flags": 67108878,
        "ID": 282,
        "Parent ID": 104
      },
      "name": "CLOTH_Bone_04",
      "rotation": [
        0.5000041723251343,
        0.5000039339065552,
        0.4999959468841553,
        0.4999959468841553
      ],
      "scale": [
        1.0,
        1.0,
        1.0
      ],
      "translation": [
        0.4199802577495575,
        0.716842770576477,
        -0.021719971671700478
      ]
    },
    {
      "extras": {
        "Flags": 67108878,
        "ID": 284,
        "Parent ID": 282
      },
      "name": "CLOTH_Bone_05",
      "rotation": [
        3.019916050561733e-07,
        9.90660004252181e-15,
        3.2804223337734584e-08,
        1.0
      ],
      "scale": [
        1.0,
        1.0,
        1.0
      ],
      "translation": [
        0.25715696811676025,
        1.668930060816365e-08,
        1.5258788721439487e-07
      ]
    },
    {
      "extras": {
        "Flags": 14,
        "ID": 233,
        "Parent ID": 101
      },
      "name": "C_Belly2",
      "rotation": [
        1.7491871062702558e-07,
        -1.2027060165564762e-06,
        -0.05155898258090019,
        0.9986699223518372
      ],
      "scale": [
        1.0,
        1.0,
        1.0
      ],
      "translation": [
        0.08177577704191208,
        0.6621453762054443,
        8.519680250174133e-08
      ]
    },
    {
      "extras": {
        "Flags": 14,
        "ID": 235,
        "Parent ID": 101
      },
      "name": "DirectAt",
      "rotation": [
        0.5000005960464478,
        0.49999940395355225,
        -0.49999940395355225,
        0.5000005960464478
      ],
      "scale": [
        1.0,
        1.0,
        1.0
      ],
      "translation": [
        0.0,
        0.0,
        0.0
      ]
    },
    {
      "extras": {
        "Flags": 67108878,
        "ID": 286,
        "Parent ID": 101
      },
      "name": "CLOTH_Bone_06",
      "rotation": [
        0.6496903896331787,
        0.6663751602172852,
        -0.2791093587875366,
        -0.2365257740020752
      ],
      "scale": [
        1.0,
        1.0,
        1.0
      ],
      "translation": [
        0.23312148451805115,
        0.6531966924667358,
        0.11079849302768707
      ]
    },
    {
      "children": [
        112
      ],
      "extras": {
        "Flags": 67108878,
        "ID": 288,
        "Parent ID": 101
      },
      "name": "CLOTH_Bone_07",
      "rotation": [
        0.4999995231628418,
        0.4999992847442627,
        0.5000007152557373,
        0.5000004768371582
      ],
      "scale": [
        1.0,
        1.0,
        1.0
      ],
      "translation": [
        0.15817046165466309,
        0.6608424186706543,
        -0.02704971469938755
      ]
    },
    {
      "extras": {
        "Flags": 67108878,
        "ID": 290,
        "Parent ID": 288
      },
      "name": "CLOTH_Bone_08",
      "rotation": [
        0.6997424960136414,
        -2.774324002530193e-06,
        -2.8948866201972123e-06,
        0.7143951654434204
      ],
      "scale": [
        1.0,
        1.0,
        1.0
      ],
      "translation": [
        0.26166778802871704,
        1.8429756210025516e-06,
        -7.629394360719743e-08
      ]
    },
    {
      "children": [
        114
      ],
      "extras": {
        "Flags": 67108878,
        "ID": 292,
        "Parent ID": 101
      },
      "name": "CLOTH_Bone_09",
      "rotation": [
        0.09618359059095383,
        0.07672764360904694,
        0.7005345821380615,
        0.7029315829277039
      ],
      "scale": [
        1.0,
        1.0,
        1.0
      ],
      "translation": [
        0.12236487865447998,
        0.6019828915596008,
        -0.172432079911232
      ]
    },
    {
      "extras": {
        "Flags": 67108878,
        "ID": 294,
        "Parent ID": 292
      },
      "name": "CLOTH_Bone_10",
      "rotation": [
        -0.0001180175895569846,
        -5.721491561416769e-06,
        3.195081035300973e-06,
        1.0
      ],
      "scale": [
        1.0,
        1.0,
        1.0
      ],
      "translation": [
        0.25244733691215515,
        -1.716613724056515e-06,
        -0.0006726455758325756
      ]
    },
    {
      "children": [
        116
      ],
      "extras": {
        "Flags": 67108878,
        "ID": 296,
        "Parent ID": 101
      },
      "name": "CLOTH_Bone_11",
      "rotation": [
        0.5000004172325134,
        0.5000005960464478,
        -0.49999940395355225,
        -0.49999958276748657
      ],
      "scale": [
        1.0,
        1.0,
        1.0
      ],
      "translation": [
        0.0013580322265625,
        0.6101366877555847,
        -0.014137420803308487
      ]
    },
    {
      "extras": {
        "Flags": 67108878,
        "ID": 298,
        "Parent ID": 296
      },
      "name": "CLOTH_Bone_12",
      "rotation": [
        1.1924815801478417e-08,
        1.6292068494294654e-07,
        3.377662665116077e-07,
        1.0
      ],
      "scale": [
        1.0,
        1.0,
        1.0
      ],
      "translation": [
        0.18375007808208466,
        -2.2649764730431343e-08,
        -2.288818308215923e-07
      ]
    },
    {
      "extras": {
        "Flags": 14,
        "ID": 237,
        "Parent ID": 98
      },
      "name": "C_Belly",
      "rotation": [
        1.3103938556469075e-07,
        -1.1939653177250875e-06,
        -0.013472387567162514,
        0.9999092221260071
      ],
      "scale": [
        1.0,
        1.0,
        1.0
      ],
      "translation": [
        -0.06248374655842781,
        0.5703073143959045,
        8.127975092975248e-07
      ]
    },
    {
      "extras": {
        "Flags": 526,
        "Has GPU LODs": false,
        "ID": 300,
        "Material Path": "Materials\\Actors\\QuadrupedB\\QuadrupedB_KelpStrider\\QuadrupedB_KelpStrider_02.mat",
        "NiIntegerExtraData:MaterialID": 2033714218,
        "Parent ID": 3
      },
      "mesh": 0,
      "name": "QuadrupedB_KelpStrider:0",
      "rotation": [
        0.0,
        0.0,
        0.0,
        1.0
      ],
      "scale": [
        1.0,
        1.0,
        1.0
      ],
      "skin": 0,
      "translation": [
        0.0,
        0.0,
        0.0
      ]
    },
    {
      "extras": {
        "Flags": 526,
        "Has GPU LODs": false,
        "ID": 306,
        "Material Path": "Materials\\Actors\\QuadrupedB\\QuadrupedB_KelpStrider\\QuadrupedB_KelpStrider_01.mat",
        "NiIntegerExtraData:MaterialID": 1050181370,
        "Parent ID": 3
      },
      "mesh": 1,
      "name": "QuadrupedB_KelpStrider:1",
      "rotation": [
        0.0,
        0.0,
        0.0,
        1.0
      ],
      "scale": [
        1.0,
        1.0,
        1.0
      ],
      "skin": 1,
      "translation": [
        0.0,
        0.0,
        0.0
      ]
    }
  ],
  "scenes": [
    {
      "name": "ExportScene",
      "nodes": [
        0
      ]
    }
  ],
  "skins": [
    {
      "inverseBindMatrices": 0,
      "joints": [
        115,
        116,
        49,
        50,
        51,
        110,
        111,
        112,
        25,
        4,
        5,
        6,
        24,
        15,
        8,
        9,
        14,
        23,
        3,
        22,
        20,
        7,
        87,
        93,
        88,
        38,
        34,
        33,
        2,
        46,
        40,
        101,
        32,
        96,
        95,
        48,
        41,
        10,
        11,
        42,
        104,
        105,
        103,
        106,
        19,
        18,
        31,
        30,
        28,
        27,
        107,
        113,
        53,
        57,
        58,
        56,
        59,
        55,
        54,
        29,
        26,
        21,
        17,
        99,
        43,
        44,
        91,
        35,
        36,
        114
      ],
      "skeleton": 1
    },
    {
      "inverseBindMatrices": 1,
      "joints": [
        49,
        50,
        51,
        4,
        5,
        6,
        8,
        9,
        3,
        7,
        87,
        93,
        88,
        38,
        34,
        33,
        2,
        46,
        40,
        101,
        32,
        96,
        95,
        48,
        41,
        10,
        11,
        42,
        53,
        57,
        58,
        56,
        59,
        55,
        54,
        29,
        26,
        21,
        17,
        99,
        98,
        97,
        43,
        44,
        91,
        90,
        89,
        35,
        36,
        12
      ],
      "skeleton": 1
    }
  ]
}
