{
  "accessors": [
    {
      "bufferView": 0,
      "componentType": 5126,
      "count": 26,
      "type": "MAT4"
    },
    {
      "bufferView": 1,
      "componentType": 5126,
      "count": 40,
      "type": "MAT4"
    },
    {
      "bufferView": 2,
      "componentType": 5126,
      "count": 12204,
      "max": [
        0.7278054356575012,
        1.6492202281951904,
        5.107577800750732
      ],
      "min": [
        -0.7278054356575012,
        -0.6616412997245789,
        -0.004150517284870148
      ],
      "type": "VEC3"
    },
    {
      "bufferView": 3,
      "componentType": 5126,
      "count": 12204,
      "type": "VEC3"
    },
    {
      "bufferView": 4,
      "componentType": 5126,
      "count": 12204,
      "type": "VEC4"
    },
    {
      "bufferView": 5,
      "componentType": 5126,
      "count": 12204,
      "type": "VEC2"
    },
    {
      "bufferView": 6,
      "componentType": 5126,
      "count": 12204,
      "type": "VEC4"
    },
    {
      "bufferView": 7,
      "componentType": 5126,
      "count": 12204,
      "type": "VEC4"
    },
    {
      "bufferView": 8,
      "componentType": 5123,
      "count": 12204,
      "type": "VEC4"
    },
    {
      "bufferView": 9,
      "componentType": 5123,
      "count": 12204,
      "type": "VEC4"
    },
    {
      "bufferView": 10,
      "componentType": 5123,
      "count": 55878,
      "type": "SCALAR"
    },
    {
      "bufferView": 11,
      "componentType": 5126,
      "count": 8069,
      "max": [
        0.6213568449020386,
        -0.110843226313591,
        2.77816104888916
      ],
      "min": [
        -0.6213568449020386,
        -6.4286627769470215,
        -0.005859553813934326
      ],
      "type": "VEC3"
    },
    {
      "bufferView": 12,
      "componentType": 5126,
      "count": 8069,
      "type": "VEC3"
    },
    {
      "bufferView": 13,
      "componentType": 5126,
      "count": 8069,
      "type": "VEC4"
    },
    {
      "bufferView": 14,
      "componentType": 5126,
      "count": 8069,
      "type": "VEC2"
    },
    {
      "bufferView": 15,
      "componentType": 5126,
      "count": 8069,
      "type": "VEC4"
    },
    {
      "bufferView": 16,
      "componentType": 5126,
      "count": 8069,
      "type": "VEC4"
    },
    {
      "bufferView": 17,
      "componentType": 5123,
      "count": 8069,
      "type": "VEC4"
    },
    {
      "bufferView": 18,
      "componentType": 5123,
      "count": 8069,
      "type": "VEC4"
    },
    {
      "bufferView": 19,
      "componentType": 5123,
      "count": 38004,
      "type": "SCALAR"
    }
  ],
  "asset": {
    "generator": "NifSkope glTF 2.0 Exporter v1.2",
    "version": "2.0"
  },
  "bufferViews": [
    {
      "buffer": 0,
      "byteLength": 1664
    },
    {
      "buffer": 0,
      "byteLength": 2560,
      "byteOffset": 1664
    },
    {
      "buffer": 0,
      "byteLength": 146448,
      "byteOffset": 4224,
      "target": 34962
    },
    {
      "buffer": 0,
      "byteLength": 146448,
      "byteOffset": 150672,
      "target": 34962
    },
    {
      "buffer": 0,
      "byteLength": 195264,
      "byteOffset": 297120,
      "target": 34962
    },
    {
      "buffer": 0,
      "byteLength": 97632,
      "byteOffset": 492384,
      "target": 34962
    },
    {
      "buffer": 0,
      "byteLength": 195264,
      "byteOffset": 590016,
      "target": 34962
    },
    {
      "buffer": 0,
      "byteLength": 195264,
      "byteOffset": 785280,
      "target": 34962
    },
    {
      "buffer": 0,
      "byteLength": 97632,
      "byteOffset": 980544,
      "target": 34962
    },
    {
      "buffer": 0,
      "byteLength": 97632,
      "byteOffset": 1078176,
      "target": 34962
    },
    {
      "buffer": 0,
      "byteLength": 111756,
      "byteOffset": 1175808,
      "target": 34963
    },
    {
      "buffer": 0,
      "byteLength": 96828,
      "byteOffset": 1287564,
      "target": 34962
    },
    {
      "buffer": 0,
      "byteLength": 96828,
      "byteOffset": 1384392,
      "target": 34962
    },
    {
      "buffer": 0,
      "byteLength": 129104,
      "byteOffset": 1481220,
      "target": 34962
    },
    {
      "buffer": 0,
      "byteLength": 64552,
      "byteOffset": 1610324,
      "target": 34962
    },
    {
      "buffer": 0,
      "byteLength": 129104,
      "byteOffset": 1674876,
      "target": 34962
    },
    {
      "buffer": 0,
      "byteLength": 129104,
      "byteOffset": 1803980,
      "target": 34962
    },
    {
      "buffer": 0,
      "byteLength": 64552,
      "byteOffset": 1933084,
      "target": 34962
    },
    {
      "buffer": 0,
      "byteLength": 64552,
      "byteOffset": 1997636,
      "target": 34962
    },
    {
      "buffer": 0,
      "byteLength": 76008,
      "byteOffset": 2062188,
      "target": 34963
    }
  ],
  "buffers": [
    {
      "byteLength": 2138196,
      "name": "Scoopback.bin",
      "uri": "Scoopback.bin"
    }
  ],
  "materials": [
    {
      "extras": {
        "Material Path": "Default"
      },
      "name": "Default"
    },
    {
      "extras": {
        "Material Path": "materials/actors/quadrupedb/quadrupedb_scoopback/quadrupedb_scoopback_01.mat"
      },
      "name": "Materials/Actors/Quadrupedb/Quadrupedb_Scoopback/Quadrupedb_Scoopback_01"
    },
    {
      "extras": {
        "Material Path": "materials/actors/quadrupedb/quadrupedb_scoopback/quadrupedb_scoopback_02.mat"
      },
      "name": "Materials/Actors/Quadrupedb/Quadrupedb_Scoopback/Quadrupedb_Scoopback_02"
    }
  ],
  "meshes": [
    {
      "name": "QuadrupedB_ScoopBack:0",
      "primitives": [
        {
          "attributes": {
            "JOINTS_0": 8,
            "JOINTS_1": 9,
            "NORMAL": 3,
            "POSITION": 2,
            "TANGENT": 4,
            "TEXCOORD_0": 5,
            "WEIGHTS_0": 6,
            "WEIGHTS_1": 7
          },
          "indices": 10,
          "material": 1,
          "mode": 4
        }
      ]
    },
    {
      "name": "QuadrupedB_ScoopBack:1",
      "primitives": [
        {
          "attributes": {
            "JOINTS_0": 17,
            "JOINTS_1": 18,
            "NORMAL": 12,
            "POSITION": 11,
            "TANGENT": 13,
            "TEXCOORD_0": 14,
            "WEIGHTS_0": 15,
            "WEIGHTS_1": 16
          },
          "indices": 19,
          "material": 2,
          "mode": 4
        }
      ]
    }
  ],
  "nodes": [
    {
      "children": [
        1,
        93,
        94
      ],
      "extras": {
        "Flags": 14,
        "ID": 3,
        "Parent ID": 0
      },
      "name": "Root",
      "rotation": [
        -0.7071067690849304,
        -1.0677029393946214e-07,
        1.0677029393946214e-07,
        0.7071067690849304
      ],
      "scale": [
        1.0,
        1.0,
        1.0
      ],
      "translation": [
        0.0,
        0.0,
        -0.0
      ]
    },
    {
      "children": [
        2,
        35
      ],
      "extras": {
        "Flags": 14,
        "ID": 5,
        "Parent ID": 3
      },
      "name": "COM",
      "rotation": [
        1.5060099940455984e-06,
        7.549800074002633e-08,
        7.549799363459897e-08,
        1.0
      ],
      "scale": [
        1.0,
        1.0,
        1.0
      ],
      "translation": [
        -1.698477092304529e-07,
        -1.482593297958374,
        2.0570759773254395
      ]
    },
    {
      "children": [
        3,
        19,
        27
      ],
      "extras": {
        "Flags": 14,
        "ID": 9,
        "Parent ID": 5
      },
      "name": "C_hips",
      "rotation": [
        0.5000016689300537,
        -0.49999886751174927,
        0.4999997615814209,
        -0.49999964237213135
      ],
      "scale": [
        1.0,
        1.0,
        1.0
      ],
      "translation": [
        -1.3546814336962143e-08,
        -0.08971542119979858,
        3.0517577442878974e-07
      ]
    },
    {
      "children": [
        4,
        18
      ],
      "extras": {
        "Flags": 14,
        "ID": 12,
        "Parent ID": 9
      },
      "name": "C_Tail",
      "rotation": [
        4.02974658850197e-12,
        2.603393568278989e-06,
        0.06327350437641144,
        0.9979962110519409
      ],
      "scale": [
        1.0,
        1.0,
        1.0
      ],
      "translation": [
        0.38012558221817017,
        0.014348907396197319,
        -7.438071634169319e-07
      ]
    },
    {
      "children": [
        5,
        17
      ],
      "extras": {
        "Flags": 14,
        "ID": 15,
        "Parent ID": 12
      },
      "name": "C_Tail2",
      "rotation": [
        5.4439862395838645e-08,
        -1.1908489341294626e-06,
        0.0456673763692379,
        0.9989566802978516
      ],
      "scale": [
        1.0,
        1.0,
        1.0
      ],
      "translation": [
        0.4654458463191986,
        3.0517577442878974e-07,
        -2.91038298062124e-13
      ]
    },
    {
      "children": [
        6,
        16
      ],
      "extras": {
        "Flags": 14,
        "ID": 18,
        "Parent ID": 15
      },
      "name": "C_Tail3",
      "rotation": [
        1.975455798941539e-09,
        4.901714945049207e-08,
        -0.04026515409350395,
        0.999189019203186
      ],
      "scale": [
        1.0,
        1.0,
        1.0
      ],
      "translation": [
        0.6478004455566406,
        -1.5258788721439487e-07,
        5.82076596124248e-13
      ]
    },
    {
      "children": [
        7,
        15
      ],
      "extras": {
        "Flags": 14,
        "ID": 21,
        "Parent ID": 18
      },
      "name": "C_Tail4",
      "rotation": [
        1.2844904029307713e-09,
        3.775264545424761e-08,
        -0.034002672880887985,
        0.9994217157363892
      ],
      "scale": [
        1.0,
        1.0,
        1.0
      ],
      "translation": [
        0.5937368869781494,
        -1.5258788721439487e-07,
        -2.91038298062124e-13
      ]
    },
    {
      "children": [
        8,
        14
      ],
      "extras": {
        "Flags": 14,
        "ID": 24,
        "Parent ID": 21
      },
      "name": "C_Tail5",
      "rotation": [
        7.372992216758689e-10,
        3.1526546706572844e-08,
        -0.02337481454014778,
        0.9997267723083496
      ],
      "scale": [
        1.0,
        1.0,
        1.0
      ],
      "translation": [
        0.5301858186721802,
        2.8421708795129297e-16,
        -5.82076596124248e-13
      ]
    },
    {
      "children": [
        9
      ],
      "extras": {
        "Flags": 14,
        "ID": 27,
        "Parent ID": 24
      },
      "name": "C_Tail6",
      "rotation": [
        1.5664136654436334e-10,
        1.0902103220189474e-08,
        -0.014350874349474907,
        0.9998970031738281
      ],
      "scale": [
        1.0,
        1.0,
        1.0
      ],
      "translation": [
        0.5084185600280762,
        3.0517577442878974e-07,
        -1.45519149031062e-13
      ]
    },
    {
      "children": [
        10
      ],
      "extras": {
        "Flags": 14,
        "ID": 30,
        "Parent ID": 27
      },
      "name": "C_Tail7",
      "rotation": [
        1.979788555317441e-10,
        1.5916665319082313e-08,
        -0.01243750099092722,
        0.9999226331710815
      ],
      "scale": [
        1.0,
        1.0,
        1.0
      ],
      "translation": [
        0.43135252594947815,
        -3.0517577442878974e-07,
        2.91038298062124e-13
      ]
    },
    {
      "children": [
        11
      ],
      "extras": {
        "Flags": 14,
        "ID": 33,
        "Parent ID": 30
      },
      "name": "C_Tail8",
      "rotation": [
        1.1368580095328859e-13,
        1.8395804373744955e-15,
        0.0005561289144679904,
        0.9999998211860657
      ],
      "scale": [
        1.0,
        1.0,
        1.0
      ],
      "translation": [
        0.3672875761985779,
        3.0517577442878974e-07,
        2.91038298062124e-13
      ]
    },
    {
      "children": [
        12
      ],
      "extras": {
        "Flags": 14,
        "ID": 36,
        "Parent ID": 33
      },
      "name": "C_Tail9",
      "rotation": [
        4.3422127005143807e-10,
        2.3126490944491707e-08,
        -0.018775073811411858,
        0.9998237490653992
      ],
      "scale": [
        1.0,
        1.0,
        1.0
      ],
      "translation": [
        0.30377867817878723,
        -4.577636616431846e-07,
        -1.45519149031062e-13
      ]
    },
    {
      "children": [
        13
      ],
      "extras": {
        "Flags": 14,
        "ID": 39,
        "Parent ID": 36
      },
      "name": "C_Tail10",
      "rotation": [
        1.0662412064377236e-09,
        3.6493716493168904e-08,
        -0.029199987649917603,
        0.9995735883712769
      ],
      "scale": [
        1.0,
        1.0,
        1.0
      ],
      "translation": [
        0.27113035321235657,
        -1.5258788721439487e-07,
        7.275957180502557e-13
      ]
    },
    {
      "extras": {
        "Flags": 14,
        "ID": 42,
        "Parent ID": 39
      },
      "name": "C_Tail11",
      "rotation": [
        1.0587911840678754e-22,
        -1.3234889800848443e-23,
        -1.3877787807814457e-17,
        1.0
      ],
      "scale": [
        1.0,
        1.0,
        1.0
      ],
      "translation": [
        0.21567687392234802,
        -1.5258788721439487e-07,
        0.0
      ]
    },
    {
      "extras": {
        "Flags": 14,
        "ID": 45,
        "Parent ID": 24
      },
      "name": "C_TailComb5",
      "rotation": [
        5.437952381726063e-07,
        2.7560917104096916e-08,
        0.05061756819486618,
        0.9987180829048157
      ],
      "scale": [
        1.0,
        1.0,
        1.0
      ],
      "translation": [
        0.01951507478952408,
        -0.2291305512189865,
        0.009284422732889652
      ]
    },
    {
      "extras": {
        "Flags": 14,
        "ID": 47,
        "Parent ID": 21
      },
      "name": "C_TailComb4",
      "rotation": [
        5.461651539917511e-07,
        2.699910339742928e-08,
        0.04937368258833885,
        0.998780369758606
      ],
      "scale": [
        1.0,
        1.0,
        1.0
      ],
      "translation": [
        0.01631835848093033,
        -0.31045135855674744,
        -0.0002476861700415611
      ]
    },
    {
      "extras": {
        "Flags": 14,
        "ID": 49,
        "Parent ID": 18
      },
      "name": "C_TailComb3",
      "rotation": [
        5.551220851884864e-07,
        1.7717415312645812e-09,
        0.0031916219741106033,
        0.9999948740005493
      ],
      "scale": [
        1.0,
        1.0,
        1.0
      ],
      "translation": [
        0.0034344482701271772,
        -0.3468347191810608,
        -3.818832965407637e-07
      ]
    },
    {
      "extras": {
        "Flags": 14,
        "ID": 51,
        "Parent ID": 15
      },
      "name": "C_TailComb2",
      "rotation": [
        5.556726137001533e-07,
        3.277681415170264e-08,
        -0.018674246966838837,
        0.999825656414032
      ],
      "scale": [
        1.0,
        1.0,
        1.0
      ],
      "translation": [
        -0.02356826700270176,
        -0.35630735754966736,
        -3.956589864628768e-07
      ]
    },
    {
      "extras": {
        "Flags": 14,
        "ID": 53,
        "Parent ID": 12
      },
      "name": "C_TailComb",
      "rotation": [
        1.066685740624962e-06,
        -1.5160868542807293e-06,
        -0.07610347867012024,
        0.9970998764038086
      ],
      "scale": [
        1.0,
        1.0,
        1.0
      ],
      "translation": [
        -0.07437881082296371,
        -0.3974073827266693,
        -1.0404938848296297e-06
      ]
    },
    {
      "children": [
        20
      ],
      "extras": {
        "Flags": 14,
        "ID": 55,
        "Parent ID": 9
      },
      "name": "L_Pelvis",
      "rotation": [
        -0.002700116252526641,
        0.6806371808052063,
        -0.0029066666029393673,
        0.7326099276542664
      ],
      "scale": [
        1.0,
        1.0,
        1.0
      ],
      "translation": [
        0.07884155213832855,
        0.09944595396518707,
        0.10950756072998047
      ]
    },
    {
      "children": [
        21,
        25
      ],
      "extras": {
        "Flags": 14,
        "ID": 57,
        "Parent ID": 55
      },
      "name": "L_Thigh",
      "rotation": [
        -0.5148810148239136,
        -0.43606695532798767,
        0.5664008855819702,
        0.47321581840515137
      ],
      "scale": [
        1.0,
        1.0,
        1.0
      ],
      "translation": [
        0.49447718262672424,
        -0.0060353088192641735,
        -0.026259001344442368
      ]
    },
    {
      "children": [
        22
      ],
      "extras": {
        "Flags": 14,
        "ID": 60,
        "Parent ID": 57
      },
      "name": "L_Calf",
      "rotation": [
        2.4593836300823568e-08,
        1.0088913171557579e-07,
        -0.23247651755809784,
        0.9726020097732544
      ],
      "scale": [
        1.0,
        1.0,
        1.0
      ],
      "translation": [
        0.9770010113716125,
        -2.8421708795129297e-16,
        0.0
      ]
    },
    {
      "children": [
        23
      ],
      "extras": {
        "Flags": 14,
        "ID": 63,
        "Parent ID": 60
      },
      "name": "L_Ankle",
      "rotation": [
        -0.006411702837795019,
        0.005406413227319717,
        0.35073426365852356,
        0.9364374876022339
      ],
      "scale": [
        1.0,
        1.0,
        1.0
      ],
      "translation": [
        0.7220368981361389,
        4.577636616431846e-07,
        3.814697180359872e-08
      ]
    },
    {
      "children": [
        24
      ],
      "extras": {
        "Flags": 14,
        "ID": 66,
        "Parent ID": 63
      },
      "name": "L_Toe",
      "rotation": [
        1.3830894204147626e-05,
        -7.391247345367447e-05,
        0.439085990190506,
        0.8984450697898865
      ],
      "scale": [
        1.0,
        1.0,
        1.0
      ],
      "translation": [
        0.24676184356212616,
        7.629394076502649e-07,
        3.814697180359872e-08
      ]
    },
    {
      "extras": {
        "Flags": 14,
        "ID": 69,
        "Parent ID": 66
      },
      "name": "xL_Toe",
      "rotation": [
        -9.31322685637781e-10,
        -6.938895558268453e-18,
        7.450581485102248e-09,
        1.0
      ],
      "scale": [
        1.0,
        1.0,
        1.0
      ],
      "translation": [
        0.30421897768974304,
        -9.536742595628311e-08,
        -7.629394360719743e-08
      ]
    },
    {
      "children": [
        26
      ],
      "extras": {
        "Flags": 14,
        "ID": 71,
        "Parent ID": 57
      },
      "name": "L_BackTwist",
      "rotation": [
        1.8182168270985954e-10,
        1.1920930376163597e-07,
        6.482005687757919e-07,
        1.0
      ],
      "scale": [
        1.0,
        1.0,
        1.0
      ],
      "translation": [
        -1.5258788153005298e-06,
        -1.5258788153005298e-06,
        2.670288097306184e-07
      ]
    },
    {
      "extras": {
        "Flags": 14,
        "ID": 73,
        "Parent ID": 71
      },
      "name": "xL_BackTwist",
      "rotation": [
        -1.2951204553246498e-09,
        2.3283067140944524e-10,
        -1.4901161193847656e-08,
        1.0
      ],
      "scale": [
        1.0,
        1.0,
        1.0
      ],
      "translation": [
        0.9770028591156006,
        1.5258788721439487e-07,
        3.814697180359872e-08
      ]
    },
    {
      "children": [
        28
      ],
      "extras": {
        "Flags": 14,
        "ID": 75,
        "Parent ID": 9
      },
      "name": "R_Pelvis",
      "rotation": [
        -0.6806349754333496,
        -0.0027008678298443556,
        0.732611894607544,
        0.002907690592110157
      ],
      "scale": [
        1.0,
        1.0,
        1.0
      ],
      "translation": [
        0.0788409411907196,
        0.09944610297679901,
        -0.10950743407011032
      ]
    },
    {
      "children": [
        29,
        33
      ],
      "extras": {
        "Flags": 14,
        "ID": 77,
        "Parent ID": 75
      },
      "name": "R_Thigh",
      "rotation": [
        -0.5148810148239136,
        -0.4360669255256653,
        0.5664008855819702,
        0.47321581840515137
      ],
      "scale": [
        1.0000009536743164,
        1.0000009536743164,
        1.0000009536743164
      ],
      "translation": [
        -0.4944775402545929,
        0.006036071572452784,
        0.026258086785674095
      ]
    },
    {
      "children": [
        30
      ],
      "extras": {
        "Flags": 14,
        "ID": 80,
        "Parent ID": 77
      },
      "name": "R_Calf",
      "rotation": [
        2.488311778847674e-08,
        1.0022152707733767e-07,
        -0.23247651755809784,
        0.9726020097732544
      ],
      "scale": [
        1.0,
        1.0,
        1.0
      ],
      "translation": [
        -0.9770027995109558,
        7.629394076502649e-07,
        -9.5367431640625e-07
      ]
    },
    {
      "children": [
        31
      ],
      "extras": {
        "Flags": 14,
        "ID": 83,
        "Parent ID": 80
      },
      "name": "R_Ankle",
      "rotation": [
        -0.00641170609742403,
        0.005406422074884176,
        0.3507342040538788,
        0.9364374876022339
      ],
      "scale": [
        1.0,
        1.0,
        1.0
      ],
      "translation": [
        -0.7220348715782166,
        -2.441406195430318e-06,
        7.24792471373803e-07
      ]
    },
    {
      "children": [
        32
      ],
      "extras": {
        "Flags": 14,
        "ID": 86,
        "Parent ID": 83
      },
      "name": "R_Toe",
      "rotation": [
        1.3831671822117642e-05,
        -7.391194230876863e-05,
        0.4390859007835388,
        0.8984450697898865
      ],
      "scale": [
        1.0,
        1.0,
        1.0
      ],
      "translation": [
        -0.24676039814949036,
        4.272460955689894e-06,
        -2.288818308215923e-07
      ]
    },
    {
      "extras": {
        "Flags": 14,
        "ID": 89,
        "Parent ID": 86
      },
      "name": "xR_Toe",
      "rotation": [
        -1.8626449271863521e-09,
        -2.3283067140944524e-10,
        1.4901161193847656e-08,
        1.0
      ],
      "scale": [
        1.0,
        1.0,
        1.0
      ],
      "translation": [
        -0.30421996116638184,
        -2.0980834847250662e-07,
        -7.629394360719743e-08
      ]
    },
    {
      "children": [
        34
      ],
      "extras": {
        "Flags": 14,
        "ID": 91,
        "Parent ID": 77
      },
      "name": "R_BackTwist",
      "rotation": [
        6.765736859648541e-10,
        1.2660170511935576e-07,
        7.152559646783629e-07,
        1.0
      ],
      "scale": [
        1.0,
        1.0,
        1.0
      ],
      "translation": [
        0.0,
        3.0517577442878974e-07,
        -9.91821252682712e-07
      ]
    },
    {
      "extras": {
        "Flags": 14,
        "ID": 93,
        "Parent ID": 91
      },
      "name": "xR_BackTwist",
      "rotation": [
        -1.673470528817944e-10,
        -1.7462299661819003e-10,
        -1.4901162970204496e-08,
        1.0
      ],
      "scale": [
        1.0,
        1.0,
        1.0
      ],
      "translation": [
        -0.977003276348114,
        2.136230477844947e-06,
        -7.629394360719743e-08
      ]
    },
    {
      "children": [
        36
      ],
      "extras": {
        "Flags": 14,
        "ID": 95,
        "Parent ID": 5
      },
      "name": "C_spine",
      "rotation": [
        0.5000014305114746,
        0.49999862909317017,
        -0.5000001192092896,
        -0.4999997615814209
      ],
      "scale": [
        1.0,
        1.0,
        1.0
      ],
      "translation": [
        9.277427714948772e-09,
        0.06144149601459503,
        -1.5258788721439487e-07
      ]
    },
    {
      "children": [
        37,
        92
      ],
      "extras": {
        "Flags": 14,
        "ID": 98,
        "Parent ID": 95
      },
      "name": "C_spine2",
      "rotation": [
        3.546718474467525e-11,
        -5.209260566547828e-16,
        1.0658141036401503e-14,
        1.0
      ],
      "scale": [
        1.0,
        1.0,
        1.0
      ],
      "translation": [
        0.3499997556209564,
        0.0,
        3.7980496525591434e-10
      ]
    },
    {
      "children": [
        38,
        90,
        91
      ],
      "extras": {
        "Flags": 14,
        "ID": 101,
        "Parent ID": 98
      },
      "name": "C_spine3",
      "rotation": [
        3.546718474467525e-11,
        -5.178253337326808e-16,
        1.0658141036401503e-14,
        1.0
      ],
      "scale": [
        1.0,
        1.0,
        1.0
      ],
      "translation": [
        0.3499999940395355,
        -1.3732909565078444e-06,
        1.774994302650157e-06
      ]
    },
    {
      "children": [
        39,
        40,
        74,
        82
      ],
      "extras": {
        "Flags": 14,
        "ID": 104,
        "Parent ID": 101
      },
      "name": "C_spine4",
      "rotation": [
        5.453334311900093e-11,
        -9.298324584960938e-06,
        7.8239139611469e-08,
        1.0
      ],
      "scale": [
        1.0,
        1.0,
        1.0
      ],
      "translation": [
        0.34999969601631165,
        0.0,
        -1.0338002311982564e-06
      ]
    },
    {
      "extras": {
        "Flags": 14,
        "ID": 107,
        "Parent ID": 104
      },
      "name": "C_Belly3",
      "rotation": [
        -2.9568840886895487e-07,
        8.144981620716862e-06,
        -0.05155922472476959,
        0.9986699223518372
      ],
      "scale": [
        1.0,
        1.0,
        1.0
      ],
      "translation": [
        0.17106568813323975,
        0.6051726937294006,
        -3.582530041512655e-07
      ]
    },
    {
      "children": [
        41
      ],
      "extras": {
        "Flags": 14,
        "ID": 109,
        "Parent ID": 104
      },
      "name": "C_Neck",
      "rotation": [
        -4.796491339220665e-06,
        6.882525667606387e-06,
        -0.5710597038269043,
        0.8209085464477539
      ],
      "scale": [
        1.0,
        1.0,
        1.0
      ],
      "translation": [
        0.28406012058258057,
        -0.6194268465042114,
        -3.0208800581021933e-06
      ]
    },
    {
      "children": [
        42,
        73
      ],
      "extras": {
        "Flags": 14,
        "ID": 112,
        "Parent ID": 109
      },
      "name": "C_Neck2",
      "rotation": [
        -3.440961404699294e-10,
        2.186731329345548e-08,
        0.015811553224921227,
        0.999875009059906
      ],
      "scale": [
        1.0,
        1.0,
        1.0
      ],
      "translation": [
        0.5753471255302429,
        -7.629394360719743e-08,
        -3.2014213328934726e-12
      ]
    },
    {
      "children": [
        43,
        72
      ],
      "extras": {
        "Flags": 14,
        "ID": 115,
        "Parent ID": 112
      },
      "name": "C_Neck3",
      "rotation": [
        1.7657023846512354e-12,
        6.551381836252543e-15,
        -0.0005652903928421438,
        0.9999998211860657
      ],
      "scale": [
        1.0,
        1.0,
        1.0
      ],
      "translation": [
        0.45103758573532104,
        0.0,
        0.0
      ]
    },
    {
      "children": [
        44,
        69,
        70,
        71
      ],
      "extras": {
        "Flags": 14,
        "ID": 118,
        "Parent ID": 115
      },
      "name": "C_Neck4",
      "rotation": [
        1.7665849252196386e-12,
        1.1919713263294773e-13,
        0.07182382792234421,
        0.9974173307418823
      ],
      "scale": [
        1.0,
        1.0,
        1.0
      ],
      "translation": [
        0.4270526170730591,
        -3.0517577442878974e-07,
        3.561199113377711e-09
      ]
    },
    {
      "children": [
        45,
        65,
        66,
        67,
        68
      ],
      "extras": {
        "Flags": 14,
        "ID": 121,
        "Parent ID": 118
      },
      "name": "C_Neck5",
      "rotation": [
        1.5151006534444567e-12,
        2.8401602901115264e-13,
        0.1927354633808136,
        0.9812507629394531
      ],
      "scale": [
        1.0,
        1.0,
        1.0
      ],
      "translation": [
        0.41563230752944946,
        -2.8421708795129297e-16,
        2.0008883330584204e-13
      ]
    },
    {
      "children": [
        46
      ],
      "extras": {
        "Flags": 14,
        "ID": 124,
        "Parent ID": 121
      },
      "name": "C_Neck6",
      "rotation": [
        1.6547467606223276e-12,
        -1.6215536400611408e-13,
        -0.09566600620746613,
        0.9954134821891785
      ],
      "scale": [
        1.0,
        1.0,
        1.0
      ],
      "translation": [
        0.31006956100463867,
        3.0517577442878974e-07,
        5.366018501935799e-13
      ]
    },
    {
      "children": [
        47,
        48,
        53,
        58,
        59,
        62
      ],
      "extras": {
        "Flags": 14,
        "ID": 127,
        "Parent ID": 124
      },
      "name": "C_Head",
      "rotation": [
        6.354105067628291e-13,
        2.7401334239812725e-13,
        0.41026827692985535,
        0.9119648933410645
      ],
      "scale": [
        1.0,
        1.0,
        1.0
      ],
      "translation": [
        0.2555941641330719,
        0.13570372760295868,
        0.0007975877379067242
      ]
    },
    {
      "extras": {
        "Flags": 14,
        "ID": 130,
        "Parent ID": 127
      },
      "name": "C_Horn",
      "rotation": [
        4.303225256598736e-13,
        -1.6305298040572569e-12,
        1.4551916963090328e-11,
        1.0
      ],
      "scale": [
        1.0,
        1.0,
        1.0
      ],
      "translation": [
        0.472065269947052,
        -0.1765301525592804,
        -0.0012785112485289574
      ]
    },
    {
      "children": [
        49
      ],
      "extras": {
        "Flags": 14,
        "ID": 132,
        "Parent ID": 127
      },
      "name": "R_Chintacle",
      "rotation": [
        -0.5216926336288452,
        -0.47732236981391907,
        0.5227909684181213,
        0.4761194884777069
      ],
      "scale": [
        1.0,
        1.0,
        1.0
      ],
      "translation": [
        0.053667906671762466,
        0.16372863948345184,
        -0.219412162899971
      ]
    },
    {
      "children": [
        50
      ],
      "extras": {
        "Flags": 14,
        "ID": 135,
        "Parent ID": 132
      },
      "name": "R_Chintacle1",
      "rotation": [
        2.596746595528998e-09,
        -2.386678090715577e-07,
        -0.04552079364657402,
        0.9989633560180664
      ],
      "scale": [
        1.0,
        1.0,
        1.0
      ],
      "translation": [
        0.2628933787345886,
        -7.629394360719743e-08,
        -1.5258788721439487e-07
      ]
    },
    {
      "children": [
        51
      ],
      "extras": {
        "Flags": 14,
        "ID": 138,
        "Parent ID": 135
      },
      "name": "R_Chintacle2",
      "rotation": [
        -4.385380947269368e-15,
        4.336808689942018e-19,
        -1.4210851327070215e-14,
        1.0
      ],
      "scale": [
        1.0,
        1.0,
        1.0
      ],
      "translation": [
        0.3451184034347534,
        0.0,
        -1.5258788721439487e-07
      ]
    },
    {
      "children": [
        52
      ],
      "extras": {
        "Flags": 14,
        "ID": 141,
        "Parent ID": 138
      },
      "name": "R_Chintacle3",
      "rotation": [
        2.3953061756287752e-14,
        1.164152940713592e-10,
        -1.4210851327070215e-14,
        1.0
      ],
      "scale": [
        1.0,
        1.0,
        1.0
      ],
      "translation": [
        0.20545165240764618,
        1.907348590179936e-08,
        -7.629394360719743e-08
      ]
    },
    {
      "extras": {
        "Flags": 14,
        "ID": 144,
        "Parent ID": 141
      },
      "name": "R_Chintacle4",
      "rotation": [
        -1.6263934643490074e-12,
        4.3368195466875575e-19,
        -6.821209721195876e-13,
        1.0
      ],
      "scale": [
        1.0,
        1.0,
        1.0
      ],
      "translation": [
        0.1848803609609604,
        0.0,
        -1.5258788721439487e-07
      ]
    },
    {
      "children": [
        54
      ],
      "extras": {
        "Flags": 14,
        "ID": 146,
        "Parent ID": 127
      },
      "name": "L_Chintacle",
      "rotation": [
        -0.47732362151145935,
        0.521691620349884,
        -0.47612059116363525,
        0.5227899551391602
      ],
      "scale": [
        1.0,
        1.0,
        1.0
      ],
      "translation": [
        0.053666915744543076,
        0.16372741758823395,
        0.21781744062900543
      ]
    },
    {
      "children": [
        55
      ],
      "extras": {
        "Flags": 14,
        "ID": 149,
        "Parent ID": 146
      },
      "name": "L_Chintacle1",
      "rotation": [
        -6.991979911719071e-12,
        3.1859543757513376e-13,
        -0.04551864415407181,
        0.998963475227356
      ],
      "scale": [
        1.0,
        1.0,
        1.0
      ],
      "translation": [
        -0.26289916038513184,
        -7.105427198782324e-17,
        -1.4210854397564648e-16
      ]
    },
    {
      "children": [
        56
      ],
      "extras": {
        "Flags": 14,
        "ID": 152,
        "Parent ID": 149
      },
      "name": "L_Chintacle2",
      "rotation": [
        1.6462942120654134e-12,
        -4.3367980916904194e-19,
        6.394884621840902e-13,
        1.0
      ],
      "scale": [
        1.0,
        1.0,
        1.0
      ],
      "translation": [
        -0.345110148191452,
        0.0,
        1.4210854397564648e-16
      ]
    },
    {
      "children": [
        57
      ],
      "extras": {
        "Flags": 14,
        "ID": 155,
        "Parent ID": 152
      },
      "name": "L_Chintacle3",
      "rotation": [
        1.6480983244804293e-12,
        1.0773607488957246e-24,
        6.536993168992922e-13,
        1.0
      ],
      "scale": [
        1.0,
        1.0,
        1.0
      ],
      "translation": [
        -0.20546020567417145,
        1.907348590179936e-08,
        0.0
      ]
    },
    {
      "extras": {
        "Flags": 14,
        "ID": 158,
        "Parent ID": 155
      },
      "name": "L_Chintacle4",
      "rotation": [
        1.6463774787922603e-12,
        -4.3367975747025366e-19,
        6.679101716144942e-13,
        1.0
      ],
      "scale": [
        1.0,
        1.0,
        1.0
      ],
      "translation": [
        -0.18488067388534546,
        1.907348590179936e-08,
        -7.629394360719743e-08
      ]
    },
    {
      "extras": {
        "Flags": 14,
        "ID": 160,
        "Parent ID": 127
      },
      "name": "C_Jaw",
      "rotation": [
        4.0701903653017624e-13,
        -1.6250442831655665e-12,
        -0.0023166437167674303,
        0.9999973177909851
      ],
      "scale": [
        1.0,
        1.0,
        1.0
      ],
      "translation": [
        0.12568877637386322,
        0.08741150051355362,
        0.003380492329597473
      ]
    },
    {
      "children": [
        60
      ],
      "extras": {
        "Flags": 14,
        "ID": 163,
        "Parent ID": 127
      },
      "name": "L_Ear",
      "rotation": [
        0.535944938659668,
        -0.4815209209918976,
        0.46815168857574463,
        0.5116000175476074
      ],
      "scale": [
        1.0,
        1.0,
        1.0
      ],
      "translation": [
        -0.008968276903033257,
        -0.13781188428401947,
        0.26458740234375
      ]
    },
    {
      "children": [
        61
      ],
      "extras": {
        "Flags": 14,
        "ID": 165,
        "Parent ID": 163
      },
      "name": "L_Ear2",
      "rotation": [
        -4.6566125955216364e-10,
        4.470348358154297e-08,
        -9.313225746154785e-10,
        1.0
      ],
      "scale": [
        1.0,
        1.0,
        1.0
      ],
      "translation": [
        0.3700040280818939,
        5.187988335819682e-06,
        1.068115216185106e-05
      ]
    },
    {
      "extras": {
        "Flags": 14,
        "ID": 167,
        "Parent ID": 165
      },
      "name": "L_Ear3",
      "rotation": [
        1.9515643240642143e-18,
        3.725290742551124e-09,
        -9.89530235528946e-10,
        1.0
      ],
      "scale": [
        1.0,
        1.0,
        1.0
      ],
      "translation": [
        0.16499465703964233,
        -1.2969970157428179e-05,
        -8.544921911379788e-06
      ]
    },
    {
      "children": [
        63
      ],
      "extras": {
        "Flags": 14,
        "ID": 169,
        "Parent ID": 127
      },
      "name": "R_Ear",
      "rotation": [
        0.4815204441547394,
        0.5359452962875366,
        0.5115997195243835,
        -0.46815207600593567
      ],
      "scale": [
        1.0,
        1.0,
        1.0
      ],
      "translation": [
        -0.008964919485151768,
        -0.13781219720840454,
        -0.26458740234375
      ]
    },
    {
      "children": [
        64
      ],
      "extras": {
        "Flags": 14,
        "ID": 171,
        "Parent ID": 169
      },
      "name": "R_Ear2",
      "rotation": [
        8.451355934524507e-17,
        3.91155481338501e-08,
        -2.1827872842550278e-09,
        1.0
      ],
      "scale": [
        1.0,
        1.0,
        1.0
      ],
      "translation": [
        -0.3700040280818939,
        -5.7220458984375e-06,
        -9.765624781721272e-06
      ]
    },
    {
      "extras": {
        "Flags": 14,
        "ID": 173,
        "Parent ID": 171
      },
      "name": "R_Ear3",
      "rotation": [
        4.6566123179658803e-10,
        1.862645149230957e-09,
        -2.2118913367563664e-09,
        1.0
      ],
      "scale": [
        1.0,
        1.0,
        1.0
      ],
      "translation": [
        -0.1649940460920334,
        7.476806331396801e-06,
        7.62939453125e-06
      ]
    },
    {
      "extras": {
        "Flags": 14,
        "ID": 175,
        "Parent ID": 121
      },
      "name": "C_Comb4",
      "rotation": [
        8.632478909476049e-08,
        3.066177356458866e-08,
        -0.18113048374652863,
        0.9834590554237366
      ],
      "scale": [
        1.0,
        1.0,
        1.0
      ],
      "translation": [
        -0.12554535269737244,
        -0.3336114287376404,
        -5.636530531205608e-08
      ]
    },
    {
      "extras": {
        "Flags": 14,
        "ID": 177,
        "Parent ID": 121
      },
      "name": "L_Hood2",
      "rotation": [
        9.033648495915259e-08,
        1.5212989978863334e-08,
        -0.007682222872972488,
        0.9999704957008362
      ],
      "scale": [
        1.0,
        1.0,
        1.0
      ],
      "translation": [
        0.22595000267028809,
        0.11554473638534546,
        0.2942737340927124
      ]
    },
    {
      "extras": {
        "Flags": 14,
        "ID": 179,
        "Parent ID": 121
      },
      "name": "R_Hood2",
      "rotation": [
        -8.901831095170509e-13,
        -1.5293110744787897e-12,
        0.9999704957008362,
        0.007682177238166332
      ],
      "scale": [
        1.0,
        1.0,
        1.0
      ],
      "translation": [
        0.22595489025115967,
        0.11554290354251862,
        -0.2942740023136139
      ]
    },
    {
      "extras": {
        "Flags": 14,
        "ID": 181,
        "Parent ID": 121
      },
      "name": "C_Throat",
      "rotation": [
        9.033648495915259e-08,
        1.5212989978863334e-08,
        -0.007682222872972488,
        0.9999704957008362
      ],
      "scale": [
        1.0,
        1.0,
        1.0
      ],
      "translation": [
        -0.02123565599322319,
        0.27221739292144775,
        4.595597502543569e-08
      ]
    },
    {
      "extras": {
        "Flags": 14,
        "ID": 183,
        "Parent ID": 118
      },
      "name": "C_Comb3",
      "rotation": [
        8.458764710894684e-08,
        9.990162030959482e-10,
        0.011813109740614891,
        0.999930202960968
      ],
      "scale": [
        1.0,
        1.0,
        1.0
      ],
      "translation": [
        0.017212828621268272,
        -0.3128289580345154,
        -5.964987082052176e-08
      ]
    },
    {
      "extras": {
        "Flags": 14,
        "ID": 185,
        "Parent ID": 118
      },
      "name": "L_Hood",
      "rotation": [
        8.458764710894684e-08,
        9.990162030959482e-10,
        0.011813109740614891,
        0.999930202960968
      ],
      "scale": [
        1.0,
        1.0,
        1.0
      ],
      "translation": [
        -0.0018017577240243554,
        0.29625120759010315,
        0.24020510911941528
      ]
    },
    {
      "extras": {
        "Flags": 14,
        "ID": 187,
        "Parent ID": 118
      },
      "name": "R_Hood",
      "rotation": [
        -2.6914844593502185e-13,
        -1.7658927705527239e-12,
        0.999930202960968,
        -0.01181306503713131
      ],
      "scale": [
        1.0,
        1.0,
        1.0
      ],
      "translation": [
        -0.001797485281713307,
        0.2962501347064972,
        -0.24020496010780334
      ]
    },
    {
      "extras": {
        "Flags": 14,
        "ID": 189,
        "Parent ID": 115
      },
      "name": "C_Comb2",
      "rotation": [
        8.696838449395727e-08,
        -1.8461867590247039e-09,
        -0.02122434787452221,
        0.9997747540473938
      ],
      "scale": [
        1.0,
        1.0,
        1.0
      ],
      "translation": [
        0.018663330003619194,
        -0.28084197640419006,
        -4.836211431324955e-08
      ]
    },
    {
      "extras": {
        "Flags": 14,
        "ID": 191,
        "Parent ID": 112
      },
      "name": "C_Comb",
      "rotation": [
        8.671801765558484e-08,
        -8.511820137613313e-10,
        -0.009815524332225323,
        0.9999518394470215
      ],
      "scale": [
        1.0,
        1.0,
        1.0
      ],
      "translation": [
        -0.028974609449505806,
        -0.3109016418457031,
        -5.428032423537843e-08
      ]
    },
    {
      "children": [
        75
      ],
      "extras": {
        "Flags": 14,
        "ID": 193,
        "Parent ID": 104
      },
      "name": "L_Clav",
      "rotation": [
        0.025659427046775818,
        0.7699042558670044,
        0.02123970352113247,
        0.6372894644737244
      ],
      "scale": [
        1.0,
        1.0,
        1.0
      ],
      "translation": [
        0.27021265029907227,
        0.08305542171001434,
        -0.27362674474716187
      ]
    },
    {
      "children": [
        76,
        80
      ],
      "extras": {
        "Flags": 14,
        "ID": 195,
        "Parent ID": 193
      },
      "name": "L_Bicep",
      "rotation": [
        0.6314502954483032,
        0.4389398396015167,
        -0.4929946959018707,
        -0.4068889021873474
      ],
      "scale": [
        1.0,
        1.0,
        1.0
      ],
      "translation": [
        -0.7545561194419861,
        0.0,
        -5.626678216685832e-07
      ]
    },
    {
      "children": [
        77
      ],
      "extras": {
        "Flags": 14,
        "ID": 198,
        "Parent ID": 195
      },
      "name": "L_Elbow",
      "rotation": [
        -0.00502684386447072,
        -0.013190209865570068,
        -0.16557922959327698,
        0.9860954880714417
      ],
      "scale": [
        1.0,
        1.0,
        1.0
      ],
      "translation": [
        0.9142260551452637,
        1.5258788721439487e-07,
        1.9073485191256623e-07
      ]
    },
    {
      "children": [
        78
      ],
      "extras": {
        "Flags": 14,
        "ID": 201,
        "Parent ID": 198
      },
      "name": "L_Wrist",
      "rotation": [
        -0.004472787491977215,
        -0.010933345183730125,
        -0.13567490875720978,
        0.9906830191612244
      ],
      "scale": [
        1.0,
        1.0,
        1.0
      ],
      "translation": [
        0.8463480472564697,
        4.768371297814156e-08,
        -1.5258788721439487e-07
      ]
    },
    {
      "children": [
        79
      ],
      "extras": {
        "Flags": 14,
        "ID": 204,
        "Parent ID": 201
      },
      "name": "L_Hand",
      "rotation": [
        -0.008504558354616165,
        0.021850500255823135,
        -0.4485044479370117,
        0.8934729695320129
      ],
      "scale": [
        1.0,
        1.0,
        1.0
      ],
      "translation": [
        0.19990131258964539,
        -9.53674295089968e-09,
        3.814697180359872e-08
      ]
    },
    {
      "extras": {
        "Flags": 14,
        "ID": 207,
        "Parent ID": 204
      },
      "name": "xL_Hand",
      "rotation": [
        -4.6566123179658803e-10,
        1.1641534958251043e-10,
        -2.980232594040899e-08,
        1.0
      ],
      "scale": [
        1.0,
        1.0,
        1.0
      ],
      "translation": [
        0.350969523191452,
        -4.768371297814156e-08,
        -3.814697180359872e-08
      ]
    },
    {
      "children": [
        81
      ],
      "extras": {
        "Flags": 14,
        "ID": 209,
        "Parent ID": 195
      },
      "name": "L_FrontTwist",
      "rotation": [
        0.031602125614881516,
        1.4537536507930326e-08,
        -9.695189646663493e-07,
        0.9995005130767822
      ],
      "scale": [
        1.0,
        1.0,
        1.0
      ],
      "translation": [
        3.0517577442878974e-07,
        1.5258788153005298e-06,
        -3.814697180359872e-08
      ]
    },
    {
      "extras": {
        "Flags": 14,
        "ID": 211,
        "Parent ID": 209
      },
      "name": "xL_FrontTwist",
      "rotation": [
        -1.8626449271863521e-09,
        1.8626449271863521e-09,
        1.4901159417490817e-08,
        1.0
      ],
      "scale": [
        1.0,
        1.0,
        1.0
      ],
      "translation": [
        0.9142260551452637,
        3.814697180359872e-08,
        3.814697180359872e-08
      ]
    },
    {
      "children": [
        83
      ],
      "extras": {
        "Flags": 14,
        "ID": 213,
        "Parent ID": 104
      },
      "name": "R_Clav",
      "rotation": [
        0.7698936462402344,
        -0.025659339502453804,
        -0.6373022794723511,
        0.021239856258034706
      ],
      "scale": [
        1.0,
        1.0,
        1.0
      ],
      "translation": [
        0.2702217400074005,
        0.08305542171001434,
        0.27361825108528137
      ]
    },
    {
      "children": [
        84,
        88
      ],
      "extras": {
        "Flags": 14,
        "ID": 215,
        "Parent ID": 213
      },
      "name": "R_Bicep",
      "rotation": [
        0.6314502954483032,
        0.4389398992061615,
        -0.4929946959018707,
        -0.4068889021873474
      ],
      "scale": [
        1.0,
        1.0,
        1.0
      ],
      "translation": [
        0.7545561194419861,
        -3.0517577442878974e-07,
        5.4836272056491e-07
      ]
    },
    {
      "children": [
        85
      ],
      "extras": {
        "Flags": 14,
        "ID": 218,
        "Parent ID": 215
      },
      "name": "R_Elbow",
      "rotation": [
        -0.005026844330132008,
        -0.013190209865570068,
        -0.16557927429676056,
        0.9860954284667969
      ],
      "scale": [
        1.0,
        1.0,
        1.0
      ],
      "translation": [
        -0.9142224192619324,
        -7.24792471373803e-07,
        1.5258788721439487e-07
      ]
    },
    {
      "children": [
        86
      ],
      "extras": {
        "Flags": 14,
        "ID": 221,
        "Parent ID": 218
      },
      "name": "R_Wrist",
      "rotation": [
        -0.004472787491977215,
        -0.010933343321084976,
        -0.13567490875720978,
        0.9906830191612244
      ],
      "scale": [
        1.0,
        1.0,
        1.0
      ],
      "translation": [
        -0.8463520407676697,
        -1.0108947208209429e-06,
        -4.1961669694501325e-07
      ]
    },
    {
      "children": [
        87
      ],
      "extras": {
        "Flags": 14,
        "ID": 224,
        "Parent ID": 221
      },
      "name": "R_Hand",
      "rotation": [
        -0.008504558354616165,
        0.021850498393177986,
        -0.4485044777393341,
        0.8934729695320129
      ],
      "scale": [
        1.0,
        1.0,
        1.0
      ],
      "translation": [
        -0.1999015212059021,
        2.384185791015625e-07,
        6.866454782539222e-07
      ]
    },
    {
      "extras": {
        "Flags": 14,
        "ID": 227,
        "Parent ID": 224
      },
      "name": "xR_Hand",
      "rotation": [
        4.656613428188905e-10,
        2.3283067140944524e-10,
        -2.7863995832877464e-17,
        1.0
      ],
      "scale": [
        1.0,
        1.0,
        1.0
      ],
      "translation": [
        -0.35097000002861023,
        2.47955313170678e-07,
        -4.1961669694501325e-07
      ]
    },
    {
      "children": [
        89
      ],
      "extras": {
        "Flags": 14,
        "ID": 229,
        "Parent ID": 215
      },
      "name": "R_FrontTwist",
      "rotation": [
        0.031602125614881516,
        6.722413559145934e-08,
        -7.177386578405276e-07,
        0.9995005130767822
      ],
      "scale": [
        1.0,
        1.0,
        1.0
      ],
      "translation": [
        -3.0517577442878974e-07,
        -1.5640258652638295e-06,
        3.814697180359872e-08
      ]
    },
    {
      "extras": {
        "Flags": 14,
        "ID": 231,
        "Parent ID": 229
      },
      "name": "xR_FrontTwist",
      "rotation": [
        1.8626450382086546e-09,
        -1.862645149230957e-09,
        -2.9802322387695313e-08,
        1.0
      ],
      "scale": [
        1.0,
        1.0,
        1.0
      ],
      "translation": [
        -0.9142217040061951,
        -7.24792471373803e-07,
        2.670288097306184e-07
      ]
    },
    {
      "extras": {
        "Flags": 14,
        "ID": 233,
        "Parent ID": 101
      },
      "name": "C_Belly2",
      "rotation": [
        1.7491871062702558e-07,
        -1.2027060165564762e-06,
        -0.05155898258090019,
        0.9986699223518372
      ],
      "scale": [
        1.0,
        1.0,
        1.0
      ],
      "translation": [
        0.08177577704191208,
        0.6621453762054443,
        8.519680250174133e-08
      ]
    },
    {
      "extras": {
        "Flags": 14,
        "ID": 235,
        "Parent ID": 101
      },
      "name": "DirectAt",
      "rotation": [
        0.5000005960464478,
        0.49999940395355225,
        -0.49999940395355225,
        0.5000005960464478
      ],
      "scale": [
        1.0,
        1.0,
        1.0
      ],
      "translation": [
        0.0,
        0.0,
        0.0
      ]
    },
    {
      "extras": {
        "Flags": 14,
        "ID": 237,
        "Parent ID": 98
      },
      "name": "C_Belly",
      "rotation": [
        1.3103938556469075e-07,
        -1.1939653177250875e-06,
        -0.013472387567162514,
        0.9999092221260071
      ],
      "scale": [
        1.0,
        1.0,
        1.0
      ],
      "translation": [
        -0.06248374655842781,
        0.5703073143959045,
        8.127975092975248e-07
      ]
    },
    {
      "extras": {
        "Flags": 526,
        "Has GPU LODs": false,
        "ID": 250,
        "Material Path": "Materials\\Actors\\QuadrupedB\\QuadrupedB_ScoopBack\\QuadrupedB_ScoopBack_01.mat",
        "NiIntegerExtraData:MaterialID": 1045975287,
        "Parent ID": 3
      },
      "mesh": 0,
      "name": "QuadrupedB_ScoopBack:0",
      "rotation": [
        0.0,
        0.0,
        0.0,
        1.0
      ],
      "scale": [
        1.0,
        1.0,
        1.0
      ],
      "skin": 0,
      "translation": [
        0.0,
        0.0,
        0.0
      ]
    },
    {
      "extras": {
        "Flags": 526,
        "Has GPU LODs": false,
        "ID": 256,
        "Material Path": "Materials\\Actors\\QuadrupedB\\QuadrupedB_ScoopBack\\QuadrupedB_ScoopBack_02.mat",
        "NiIntegerExtraData:MaterialID": 2046306855,
        "Parent ID": 3
      },
      "mesh": 1,
      "name": "QuadrupedB_ScoopBack:1",
      "rotation": [
        0.0,
        0.0,
        0.0,
        1.0
      ],
      "scale": [
        1.0,
        1.0,
        1.0
      ],
      "skin": 1,
      "translation": [
        0.0,
        0.0,
        0.0
      ]
    }
  ],
  "scenes": [
    {
      "name": "ExportScene",
      "nodes": [
        0
      ]
    }
  ],
  "skins": [
    {
      "inverseBindMatrices": 0,
      "joints": [
        38,
        41,
        42,
        83,
        82,
        88,
        80,
        37,
        39,
        90,
        36,
        40,
        72,
        43,
        44,
        46,
        45,
        58,
        84,
        85,
        86,
        74,
        75,
        76,
        77,
        78
      ],
      "skeleton": 1
    },
    {
      "inverseBindMatrices": 1,
      "joints": [
        38,
        41,
        83,
        82,
        88,
        80,
        37,
        39,
        90,
        36,
        92,
        27,
        28,
        3,
        33,
        20,
        35,
        2,
        40,
        29,
        4,
        30,
        31,
        17,
        5,
        16,
        15,
        6,
        7,
        8,
        9,
        10,
        11,
        74,
        75,
        19,
        25,
        21,
        22,
        23
      ],
      "skeleton": 1
    }
  ]
}
