{
  "accessors": [
    {
      "bufferView": 0,
      "componentType": 5126,
      "count": 54,
      "type": "MAT4"
    },
    {
      "bufferView": 1,
      "componentType": 5126,
      "count": 17545,
      "max": [
        2.5071566104888916,
        1.809137225151062,
        2.2713096141815186
      ],
      "min": [
        -2.5061800479888916,
        -5.83465051651001,
        -1.6455579996109009
      ],
      "type": "VEC3"
    },
    {
      "bufferView": 2,
      "componentType": 5126,
      "count": 17545,
      "type": "VEC3"
    },
    {
      "bufferView": 3,
      "componentType": 5126,
      "count": 17545,
      "type": "VEC4"
    },
    {
      "bufferView": 4,
      "componentType": 5126,
      "count": 17545,
      "type": "VEC2"
    },
    {
      "bufferView": 5,
      "componentType": 5126,
      "count": 17545,
      "type": "VEC4"
    },
    {
      "bufferView": 6,
      "componentType": 5126,
      "count": 17545,
      "type": "VEC4"
    },
    {
      "bufferView": 7,
      "componentType": 5123,
      "count": 17545,
      "type": "VEC4"
    },
    {
      "bufferView": 8,
      "componentType": 5123,
      "count": 17545,
      "type": "VEC4"
    },
    {
      "bufferView": 9,
      "componentType": 5123,
      "count": 93852,
      "type": "SCALAR"
    }
  ],
  "asset": {
    "generator": "NifSkope glTF 2.0 Exporter v1.2",
    "version": "2.0"
  },
  "bufferViews": [
    {
      "buffer": 0,
      "byteLength": 3456
    },
    {
      "buffer": 0,
      "byteLength": 210540,
      "byteOffset": 3456,
      "target": 34962
    },
    {
      "buffer": 0,
      "byteLength": 210540,
      "byteOffset": 213996,
      "target": 34962
    },
    {
      "buffer": 0,
      "byteLength": 280720,
      "byteOffset": 424536,
      "target": 34962
    },
    {
      "buffer": 0,
      "byteLength": 140360,
      "byteOffset": 705256,
      "target": 34962
    },
    {
      "buffer": 0,
      "byteLength": 280720,
      "byteOffset": 845616,
      "target": 34962
    },
    {
      "buffer": 0,
      "byteLength": 280720,
      "byteOffset": 1126336,
      "target": 34962
    },
    {
      "buffer": 0,
      "byteLength": 140360,
      "byteOffset": 1407056,
      "target": 34962
    },
    {
      "buffer": 0,
      "byteLength": 140360,
      "byteOffset": 1547416,
      "target": 34962
    },
    {
      "buffer": 0,
      "byteLength": 187704,
      "byteOffset": 1687776,
      "target": 34963
    }
  ],
  "buffers": [
    {
      "byteLength": 1875480,
      "name": "Ghostpipe.bin",
      "uri": "Ghostpipe.bin"
    }
  ],
  "materials": [
    {
      "extras": {
        "Material Path": "Default"
      },
      "name": "Default"
    },
    {
      "extras": {
        "Material Path": "materials/actors/swimmera/swimmera_ghostpipe/swimmera_ghostpipe.mat"
      },
      "name": "Materials/Actors/Swimmera/Swimmera_Ghostpipe/Swimmera_Ghostpipe"
    }
  ],
  "meshes": [
    {
      "name": "SwimmerA_Ghostpipe:0",
      "primitives": [
        {
          "attributes": {
            "JOINTS_0": 7,
            "JOINTS_1": 8,
            "NORMAL": 2,
            "POSITION": 1,
            "TANGENT": 3,
            "TEXCOORD_0": 4,
            "WEIGHTS_0": 5,
            "WEIGHTS_1": 6
          },
          "indices": 9,
          "material": 1,
          "mode": 4
        }
      ]
    }
  ],
  "nodes": [
    {
      "children": [
        1,
        89
      ],
      "extras": {
        "Flags": 14,
        "ID": 3,
        "Parent ID": 0
      },
      "name": "Root",
      "rotation": [
        -0.7071067690849304,
        0.0,
        0.0,
        0.7071067690849304
      ],
      "scale": [
        1.0,
        1.0,
        1.0
      ],
      "translation": [
        0.0,
        0.0,
        -0.0
      ]
    },
    {
      "children": [
        2,
        76
      ],
      "extras": {
        "Flags": 14,
        "ID": 5,
        "Parent ID": 3
      },
      "name": "COM",
      "rotation": [
        0.0,
        0.0,
        0.0,
        1.0
      ],
      "scale": [
        1.0,
        1.0,
        1.0
      ],
      "translation": [
        0.0,
        0.10626710951328278,
        0.9279154539108276
      ]
    },
    {
      "children": [
        3,
        63,
        64,
        69,
        70,
        75
      ],
      "extras": {
        "Flags": 14,
        "ID": 9,
        "Parent ID": 5
      },
      "name": "C_spine",
      "rotation": [
        0.4999992847442627,
        -0.500000536441803,
        0.5000007152557373,
        -0.49999940395355225
      ],
      "scale": [
        1.0,
        1.0,
        1.0
      ],
      "translation": [
        -3.932069319034781e-07,
        -0.1403547078371048,
        -0.0021556091960519552
      ]
    },
    {
      "children": [
        4,
        50,
        51,
        52,
        53,
        54,
        55,
        57,
        59,
        61
      ],
      "extras": {
        "Flags": 14,
        "ID": 12,
        "Parent ID": 9
      },
      "name": "C_spine2",
      "rotation": [
        4.715161594504025e-11,
        -4.1390554771601464e-22,
        -2.2666397409278748e-29,
        1.0
      ],
      "scale": [
        1.0,
        1.0,
        1.0
      ],
      "translation": [
        0.5,
        0.0,
        3.797322178922258e-10
      ]
    },
    {
      "children": [
        5,
        48,
        49
      ],
      "extras": {
        "Flags": 14,
        "ID": 15,
        "Parent ID": 12
      },
      "name": "C_spine3",
      "rotation": [
        4.715161594504025e-11,
        -4.139026699514324e-22,
        -9.035435935810202e-29,
        1.0
      ],
      "scale": [
        1.0,
        1.0,
        1.0
      ],
      "translation": [
        0.5000000596046448,
        1.5258788721439487e-07,
        1.7749919152265647e-06
      ]
    },
    {
      "children": [
        6,
        37,
        38,
        42,
        43,
        47
      ],
      "extras": {
        "Flags": 14,
        "ID": 18,
        "Parent ID": 15
      },
      "name": "C_spine4",
      "rotation": [
        1.476781717746345e-11,
        -9.298324584960938e-06,
        7.823907566262278e-08,
        1.0
      ],
      "scale": [
        1.0,
        1.0,
        1.0
      ],
      "translation": [
        0.5,
        0.0,
        -1.0338002311982564e-06
      ]
    },
    {
      "children": [
        7,
        35,
        36
      ],
      "extras": {
        "Flags": 14,
        "ID": 21,
        "Parent ID": 18
      },
      "name": "C_spine5",
      "rotation": [
        5.613641193810662e-20,
        7.904222911747638e-06,
        -7.105427357601002e-15,
        1.0
      ],
      "scale": [
        1.0,
        1.0,
        1.0
      ],
      "translation": [
        0.5,
        6.103515488575795e-07,
        -4.33680859300679e-21
      ]
    },
    {
      "children": [
        8,
        22,
        23,
        24,
        29,
        34
      ],
      "extras": {
        "Flags": 14,
        "ID": 24,
        "Parent ID": 21
      },
      "name": "C_spine6",
      "rotation": [
        3.7658119870129235e-28,
        5.299909206705859e-14,
        -7.105427357601002e-15,
        1.0
      ],
      "scale": [
        1.0,
        1.0,
        1.0
      ],
      "translation": [
        0.5,
        0.0,
        -2.0372681406449766e-12
      ]
    },
    {
      "children": [
        9
      ],
      "extras": {
        "Flags": 14,
        "ID": 27,
        "Parent ID": 24
      },
      "name": "C_spine7",
      "rotation": [
        2.647015509948777e-23,
        5.299909206705859e-14,
        -7.105427357601002e-15,
        1.0
      ],
      "scale": [
        1.0,
        1.0,
        1.0
      ],
      "translation": [
        0.5401321053504944,
        6.103515488575795e-07,
        -2.5906248879437044e-07
      ]
    },
    {
      "children": [
        10
      ],
      "extras": {
        "Flags": 14,
        "ID": 30,
        "Parent ID": 27
      },
      "name": "C_spine8",
      "rotation": [
        2.647015509948777e-23,
        5.299909206705859e-14,
        -7.105427357601002e-15,
        1.0
      ],
      "scale": [
        1.0,
        1.0,
        1.0
      ],
      "translation": [
        0.4077685475349426,
        -6.103515488575795e-07,
        -1.9557715802420716e-07
      ]
    },
    {
      "children": [
        11
      ],
      "extras": {
        "Flags": 14,
        "ID": 33,
        "Parent ID": 30
      },
      "name": "C_spine9",
      "rotation": [
        3.7658119870129235e-28,
        5.299909206705859e-14,
        -7.105427357601002e-15,
        1.0
      ],
      "scale": [
        1.0,
        1.0,
        1.0
      ],
      "translation": [
        0.42760223150253296,
        0.0,
        -2.050891652061182e-07
      ]
    },
    {
      "children": [
        12
      ],
      "extras": {
        "Flags": 14,
        "ID": 36,
        "Parent ID": 33
      },
      "name": "C_spine10",
      "rotation": [
        2.647015509948777e-23,
        5.299909206705859e-14,
        -7.105427357601002e-15,
        1.0
      ],
      "scale": [
        1.0,
        1.0,
        1.0
      ],
      "translation": [
        0.3946731388568878,
        0.0,
        -1.8929596024008788e-07
      ]
    },
    {
      "children": [
        13,
        16,
        19
      ],
      "extras": {
        "Flags": 14,
        "ID": 39,
        "Parent ID": 36
      },
      "name": "C_spine11",
      "rotation": [
        3.7658119870129235e-28,
        5.299909206705859e-14,
        -7.105427357601002e-15,
        1.0
      ],
      "scale": [
        1.0,
        1.0,
        1.0
      ],
      "translation": [
        0.4398736357688904,
        -6.103515488575795e-07,
        -2.1097483227094926e-07
      ]
    },
    {
      "children": [
        14
      ],
      "extras": {
        "Flags": 14,
        "ID": 42,
        "Parent ID": 39
      },
      "name": "C_spine12",
      "rotation": [
        2.647015509948777e-23,
        5.299909206705859e-14,
        -7.105427357601002e-15,
        1.0
      ],
      "scale": [
        1.0,
        1.0,
        1.0
      ],
      "translation": [
        0.40951141715049744,
        -1.4210854397564648e-16,
        -1.964127278597516e-07
      ]
    },
    {
      "children": [
        15
      ],
      "extras": {
        "Flags": 14,
        "ID": 45,
        "Parent ID": 42
      },
      "name": "C_spine13",
      "rotation": [
        2.647015509948777e-23,
        5.299909206705859e-14,
        -7.105427357601002e-15,
        1.0
      ],
      "scale": [
        1.0,
        1.0,
        1.0
      ],
      "translation": [
        0.3699212670326233,
        -5.340576194612368e-07,
        -1.774233453488705e-07
      ]
    },
    {
      "extras": {
        "Flags": 14,
        "ID": 47,
        "Parent ID": 45
      },
      "name": "C_spine14",
      "rotation": [
        2.6469779601696886e-23,
        -6.3409442141448835e-09,
        1.6784339581507013e-31,
        1.0
      ],
      "scale": [
        1.0,
        1.0,
        1.0
      ],
      "translation": [
        0.28521299362182617,
        0.0,
        -1.367955633213569e-07
      ]
    },
    {
      "children": [
        17
      ],
      "extras": {
        "Flags": 14,
        "ID": 49,
        "Parent ID": 39
      },
      "name": "C_TopTail",
      "rotation": [
        8.274763274584984e-08,
        1.609551389947228e-07,
        -0.45722004771232605,
        0.8893535733222961
      ],
      "scale": [
        1.0,
        1.0,
        1.0
      ],
      "translation": [
        0.21288970112800598,
        -0.23807288706302643,
        -4.726403801669221e-08
      ]
    },
    {
      "children": [
        18
      ],
      "extras": {
        "Flags": 14,
        "ID": 52,
        "Parent ID": 49
      },
      "name": "C_TopTail2",
      "rotation": [
        -7.516326450129895e-11,
        1.6412856851388824e-08,
        0.004580353386700153,
        0.9999895095825195
      ],
      "scale": [
        1.0,
        1.0,
        1.0
      ],
      "translation": [
        0.6099267601966858,
        3.0517577442878974e-07,
        -5.82076596124248e-13
      ]
    },
    {
      "extras": {
        "Flags": 14,
        "ID": 55,
        "Parent ID": 52
      },
      "name": "C_TopTail3",
      "rotation": [
        -1.4210853868169056e-14,
        5.684341886080802e-14,
        -1.4901161193847656e-08,
        1.0
      ],
      "scale": [
        1.0,
        1.0,
        1.0
      ],
      "translation": [
        0.4963717460632324,
        0.0,
        0.0
      ]
    },
    {
      "children": [
        20
      ],
      "extras": {
        "Flags": 14,
        "ID": 57,
        "Parent ID": 39
      },
      "name": "C_BotTail",
      "rotation": [
        0.8988145589828491,
        0.4383291006088257,
        -7.73215802496452e-08,
        2.54334423743785e-07
      ],
      "scale": [
        1.0,
        1.0,
        1.0
      ],
      "translation": [
        0.21289001405239105,
        0.20140281319618225,
        -1.4850346019557037e-07
      ]
    },
    {
      "children": [
        21
      ],
      "extras": {
        "Flags": 14,
        "ID": 60,
        "Parent ID": 57
      },
      "name": "C_BotTail2",
      "rotation": [
        5.6824662163224016e-14,
        1.4601314881029608e-15,
        0.025686904788017273,
        0.9996700286865234
      ],
      "scale": [
        1.0,
        1.0,
        1.0
      ],
      "translation": [
        0.6099273562431335,
        -5.684341759025859e-16,
        1.0186340703224883e-12
      ]
    },
    {
      "extras": {
        "Flags": 14,
        "ID": 63,
        "Parent ID": 60
      },
      "name": "C_BotTail3",
      "rotation": [
        4.263256414560601e-14,
        7.105427357601002e-15,
        -3.0292258760486853e-28,
        1.0
      ],
      "scale": [
        1.0,
        1.0,
        1.0
      ],
      "translation": [
        0.4934750199317932,
        6.103515488575795e-07,
        -1.45519149031062e-13
      ]
    },
    {
      "extras": {
        "Flags": 14,
        "ID": 65,
        "Parent ID": 24
      },
      "name": "C_BackFinF",
      "rotation": [
        0.8713504672050476,
        -0.4906611442565918,
        -1.7655493422807922e-07,
        2.6084543947035854e-07
      ],
      "scale": [
        1.0,
        1.0,
        1.0
      ],
      "translation": [
        -0.16226546466350555,
        -0.39471107721328735,
        -5.012897418055218e-06
      ]
    },
    {
      "extras": {
        "Flags": 14,
        "ID": 68,
        "Parent ID": 24
      },
      "name": "C_BackFinG",
      "rotation": [
        0.9238795638084412,
        -0.3826833963394165,
        -2.015498239416047e-07,
        2.562960901286715e-07
      ],
      "scale": [
        1.0,
        1.0,
        1.0
      ],
      "translation": [
        0.14767363667488098,
        -0.3101828694343567,
        -5.1810252443829086e-06
      ]
    },
    {
      "children": [
        25
      ],
      "extras": {
        "Flags": 14,
        "ID": 70,
        "Parent ID": 24
      },
      "name": "L_FinD",
      "rotation": [
        -0.3813644051551819,
        0.1856805831193924,
        0.3856698274612427,
        0.8193550705909729
      ],
      "scale": [
        1.0,
        1.0,
        1.0
      ],
      "translation": [
        0.2377801388502121,
        0.192729189991951,
        -0.3485594093799591
      ]
    },
    {
      "children": [
        26
      ],
      "extras": {
        "Flags": 14,
        "ID": 73,
        "Parent ID": 70
      },
      "name": "L_FinD2",
      "rotation": [
        -0.019076282158493996,
        0.0326811745762825,
        -0.05480131879448891,
        0.9977799654006958
      ],
      "scale": [
        1.0,
        1.0,
        1.0
      ],
      "translation": [
        0.5370217561721802,
        -0.016616057604551315,
        0.0019396209390833974
      ]
    },
    {
      "children": [
        27
      ],
      "extras": {
        "Flags": 14,
        "ID": 76,
        "Parent ID": 73
      },
      "name": "L_FinD3",
      "rotation": [
        0.0023554363287985325,
        -0.002995393006131053,
        -0.06218060106039047,
        0.9980576038360596
      ],
      "scale": [
        1.0,
        1.0,
        1.0
      ],
      "translation": [
        0.4032609462738037,
        3.0517577442878974e-07,
        -1.5258788721439487e-07
      ]
    },
    {
      "children": [
        28
      ],
      "extras": {
        "Flags": 14,
        "ID": 78,
        "Parent ID": 76
      },
      "name": "L_FinD4",
      "rotation": [
        -0.040411077439785004,
        -2.84065606592776e-07,
        -7.198726166279812e-07,
        0.9991831183433533
      ],
      "scale": [
        1.0,
        1.0,
        1.0
      ],
      "translation": [
        0.3028485178947449,
        0.0,
        -1.5258788721439487e-07
      ]
    },
    {
      "extras": {
        "Flags": 67108878,
        "ID": 204,
        "Parent ID": 78
      },
      "name": "Cloth_Bone_FinD_L",
      "rotation": [
        -5.551115123125783e-17,
        1.3183189434842068e-23,
        -2.374872281052376e-07,
        1.0
      ],
      "scale": [
        1.0,
        1.0,
        1.0
      ],
      "translation": [
        0.3386019766330719,
        0.007742233108729124,
        0.0034164427779614925
      ]
    },
    {
      "children": [
        30
      ],
      "extras": {
        "Flags": 14,
        "ID": 80,
        "Parent ID": 24
      },
      "name": "R_FinD",
      "rotation": [
        -0.18568019568920135,
        -0.3813640773296356,
        0.8193553686141968,
        -0.38566967844963074
      ],
      "scale": [
        1.0,
        1.0,
        1.0
      ],
      "translation": [
        0.2377825826406479,
        0.19272948801517487,
        0.3485592305660248
      ]
    },
    {
      "children": [
        31
      ],
      "extras": {
        "Flags": 14,
        "ID": 83,
        "Parent ID": 80
      },
      "name": "R_FinD2",
      "rotation": [
        -0.019076289609074593,
        0.032681167125701904,
        -0.0548013374209404,
        0.9977799654006958
      ],
      "scale": [
        1.0,
        1.0,
        1.0
      ],
      "translation": [
        -0.5370190143585205,
        0.016616210341453552,
        -0.0019369506044313312
      ]
    },
    {
      "children": [
        32
      ],
      "extras": {
        "Flags": 14,
        "ID": 86,
        "Parent ID": 83
      },
      "name": "R_FinD3",
      "rotation": [
        0.002355464268475771,
        -0.0029951860196888447,
        -0.06218066066503525,
        0.9980576038360596
      ],
      "scale": [
        1.0,
        1.0,
        1.0
      ],
      "translation": [
        -0.4032629430294037,
        -2.2888182229507947e-06,
        -4.19616708313697e-06
      ]
    },
    {
      "children": [
        33
      ],
      "extras": {
        "Flags": 14,
        "ID": 88,
        "Parent ID": 86
      },
      "name": "R_FinD4",
      "rotation": [
        0.04041104018688202,
        -7.504712584704976e-08,
        -1.1878132255560558e-08,
        0.9991831183433533
      ],
      "scale": [
        1.0,
        1.0,
        1.0
      ],
      "translation": [
        -0.30284667015075684,
        1.678466787780053e-06,
        3.967285010730848e-06
      ]
    },
    {
      "extras": {
        "Flags": 67108878,
        "ID": 206,
        "Parent ID": 88
      },
      "name": "Cloth_Bone_FinD_R",
      "rotation": [
        1.4901138101208744e-08,
        8.195639367158947e-08,
        1.7508865823856468e-07,
        1.0
      ],
      "scale": [
        1.0,
        1.0,
        1.0
      ],
      "translation": [
        -0.3259679973125458,
        -0.02457885630428791,
        -0.012235717847943306
      ]
    },
    {
      "extras": {
        "Flags": 67108878,
        "ID": 208,
        "Parent ID": 24
      },
      "name": "Cloth_Bone_Back6",
      "rotation": [
        -0.691655158996582,
        0.7219793796539307,
        0.01476450264453888,
        -0.011870418675243855
      ],
      "scale": [
        1.0,
        1.0,
        1.0
      ],
      "translation": [
        0.11758849769830704,
        -0.12463141977787018,
        -0.005034951958805323
      ]
    },
    {
      "extras": {
        "Flags": 14,
        "ID": 90,
        "Parent ID": 21
      },
      "name": "C_BackFinE",
      "rotation": [
        0.8808335661888123,
        -0.4734260141849518,
        -1.8054589645544183e-07,
        2.5934676273209334e-07
      ],
      "scale": [
        1.0,
        1.0,
        1.0
      ],
      "translation": [
        -0.0708218365907669,
        -0.4285231828689575,
        -4.809156052942853e-06
      ]
    },
    {
      "extras": {
        "Flags": 14,
        "ID": 93,
        "Parent ID": 21
      },
      "name": "C_BellyFinF",
      "rotation": [
        0.8957110047340393,
        0.44463667273521423,
        -2.986215861255914e-07,
        -6.913959538223935e-08
      ],
      "scale": [
        1.0,
        1.0,
        1.0
      ],
      "translation": [
        0.2233181744813919,
        0.4781084358692169,
        -5.1590886869234964e-06
      ]
    },
    {
      "extras": {
        "Flags": 14,
        "ID": 95,
        "Parent ID": 18
      },
      "name": "C_BackFinD",
      "rotation": [
        0.887071430683136,
        -0.4616321921348572,
        -7.181388355093077e-06,
        3.873484274663497e-06
      ],
      "scale": [
        1.0,
        1.0,
        1.0
      ],
      "translation": [
        -0.044183652848005295,
        -0.47078758478164673,
        4.037217877339572e-06
      ]
    },
    {
      "children": [
        39
      ],
      "extras": {
        "Flags": 14,
        "ID": 98,
        "Parent ID": 18
      },
      "name": "L_FinC",
      "rotation": [
        -0.39762046933174133,
        0.14295558631420135,
        0.3807741403579712,
        0.8224796056747437
      ],
      "scale": [
        1.0,
        1.0,
        1.0
      ],
      "translation": [
        -0.10296737402677536,
        0.18969328701496124,
        -0.5482045412063599
      ]
    },
    {
      "children": [
        40
      ],
      "extras": {
        "Flags": 14,
        "ID": 101,
        "Parent ID": 98
      },
      "name": "L_FinC2",
      "rotation": [
        -0.0029964062850922346,
        0.005223479121923447,
        -0.012813587673008442,
        0.9998997449874878
      ],
      "scale": [
        1.0,
        1.0,
        1.0
      ],
      "translation": [
        0.46615996956825256,
        -0.022373123094439507,
        0.0
      ]
    },
    {
      "children": [
        41
      ],
      "extras": {
        "Flags": 14,
        "ID": 104,
        "Parent ID": 101
      },
      "name": "L_FinC3",
      "rotation": [
        0.0230511836707592,
        0.01949315145611763,
        -0.08221685141324997,
        0.996157169342041
      ],
      "scale": [
        1.0,
        1.0,
        1.0
      ],
      "translation": [
        0.5393885970115662,
        -2.288818308215923e-07,
        3.0517577442878974e-07
      ]
    },
    {
      "extras": {
        "Flags": 14,
        "ID": 107,
        "Parent ID": 104
      },
      "name": "L_FinC4",
      "rotation": [
        -3.3306701326666537e-16,
        -1.4901162970204496e-08,
        -2.2351745343485163e-08,
        1.0
      ],
      "scale": [
        1.0,
        1.0,
        1.0
      ],
      "translation": [
        0.45712003111839294,
        0.0,
        1.4210854397564648e-16
      ]
    },
    {
      "extras": {
        "Flags": 14,
        "ID": 109,
        "Parent ID": 18
      },
      "name": "C_BellyFinE",
      "rotation": [
        0.8957110643386841,
        0.44463661313056946,
        -7.3387909651501104e-06,
        -3.4949835026054643e-06
      ],
      "scale": [
        1.0,
        1.0,
        1.0
      ],
      "translation": [
        0.23668257892131805,
        0.6099039912223816,
        -7.90059573319013e-07
      ]
    },
    {
      "children": [
        44
      ],
      "extras": {
        "Flags": 14,
        "ID": 111,
        "Parent ID": 18
      },
      "name": "R_FinC",
      "rotation": [
        -0.14294223487377167,
        -0.39762648940086365,
        0.8224819302558899,
        -0.38076791167259216
      ],
      "scale": [
        1.0,
        1.0,
        1.0
      ],
      "translation": [
        -0.10294875502586365,
        0.1896902471780777,
        0.5482080578804016
      ]
    },
    {
      "children": [
        45
      ],
      "extras": {
        "Flags": 14,
        "ID": 114,
        "Parent ID": 111
      },
      "name": "R_FinC2",
      "rotation": [
        -0.002996407449245453,
        0.005223419517278671,
        -0.012813573703169823,
        0.9998997449874878
      ],
      "scale": [
        1.0,
        1.0,
        1.0
      ],
      "translation": [
        -0.46615996956825256,
        0.022371215745806694,
        -2.822876012942288e-06
      ]
    },
    {
      "children": [
        46
      ],
      "extras": {
        "Flags": 14,
        "ID": 117,
        "Parent ID": 114
      },
      "name": "R_FinC3",
      "rotation": [
        0.023051273077726364,
        0.01949310675263405,
        -0.08221659809350967,
        0.996157169342041
      ],
      "scale": [
        1.0,
        1.0,
        1.0
      ],
      "translation": [
        -0.5393908619880676,
        1.8310546465727384e-06,
        -2.2888182229507947e-06
      ]
    },
    {
      "extras": {
        "Flags": 14,
        "ID": 120,
        "Parent ID": 117
      },
      "name": "R_FinC4",
      "rotation": [
        -1.4901161193847656e-08,
        -1.6653345369377348e-16,
        7.450580596923828e-09,
        1.0
      ],
      "scale": [
        1.0,
        1.0,
        1.0
      ],
      "translation": [
        -0.457120805978775,
        -2.822876012942288e-06,
        3.967285010730848e-06
      ]
    },
    {
      "extras": {
        "Flags": 67108878,
        "ID": 210,
        "Parent ID": 18
      },
      "name": "Cloth_Bone_Back5",
      "rotation": [
        0.8015514612197876,
        -0.5979257822036743,
        -6.062653483240865e-06,
        4.940799499308923e-06
      ],
      "scale": [
        1.0,
        1.0,
        1.0
      ],
      "translation": [
        0.2363850325345993,
        -0.20388290286064148,
        1.5378928708287276e-07
      ]
    },
    {
      "extras": {
        "Flags": 14,
        "ID": 122,
        "Parent ID": 15
      },
      "name": "C_BackFinC",
      "rotation": [
        0.8574129939079285,
        -0.5146288871765137,
        1.0815628002092126e-06,
        -4.1212285850633634e-07
      ],
      "scale": [
        1.0,
        1.0,
        1.0
      ],
      "translation": [
        0.04725997895002365,
        -0.44542890787124634,
        1.2037786518703797e-06
      ]
    },
    {
      "extras": {
        "Flags": 14,
        "ID": 125,
        "Parent ID": 15
      },
      "name": "C_BellyFinD",
      "rotation": [
        0.9043421745300293,
        0.42680826783180237,
        1.0352157460147282e-06,
        5.176408421903034e-07
      ],
      "scale": [
        1.0,
        1.0,
        1.0
      ],
      "translation": [
        0.23730674386024475,
        0.6778689622879028,
        1.395663048242568e-06
      ]
    },
    {
      "extras": {
        "Flags": 14,
        "ID": 127,
        "Parent ID": 12
      },
      "name": "DirectAt",
      "rotation": [
        0.5000007152557373,
        -0.49999940395355225,
        0.499999463558197,
        0.500000536441803
      ],
      "scale": [
        1.0,
        1.0,
        1.0
      ],
      "translation": [
        0.0,
        0.0,
        0.0
      ]
    },
    {
      "extras": {
        "Flags": 14,
        "ID": 129,
        "Parent ID": 12
      },
      "name": "C_BackFinB",
      "rotation": [
        0.8470302820205688,
        -0.5315446853637695,
        1.1528941286087502e-06,
        -4.915496560897736e-07
      ],
      "scale": [
        1.0,
        1.0,
        1.0
      ],
      "translation": [
        0.0034574507735669613,
        -0.4228878617286682,
        1.6840776879689656e-06
      ]
    },
    {
      "extras": {
        "Flags": 14,
        "ID": 132,
        "Parent ID": 12
      },
      "name": "C_BellyFinC",
      "rotation": [
        0.819282591342926,
        0.5733899474143982,
        9.905094202622422e-07,
        9.994744232244557e-07
      ],
      "scale": [
        1.0,
        1.0,
        1.0
      ],
      "translation": [
        0.3465915620326996,
        0.6468377709388733,
        2.25131361730746e-06
      ]
    },
    {
      "extras": {
        "Flags": 14,
        "ID": 134,
        "Parent ID": 12
      },
      "name": "C_BellyFinB",
      "rotation": [
        0.8209161758422852,
        0.5710487365722656,
        9.876521289697848e-07,
        1.0022980632129475e-06
      ],
      "scale": [
        1.0,
        1.0,
        1.0
      ],
      "translation": [
        -0.05629299208521843,
        0.6455530524253845,
        1.2962627806700766e-06
      ]
    },
    {
      "extras": {
        "Flags": 67108878,
        "ID": 212,
        "Parent ID": 12
      },
      "name": "Cloth_Bone_Back4",
      "rotation": [
        -0.688372790813446,
        0.7253570556640625,
        -9.848612307905569e-07,
        9.321472589363111e-07
      ],
      "scale": [
        1.0,
        1.0,
        1.0
      ],
      "translation": [
        0.2975153625011444,
        -0.3146098256111145,
        2.595720843601157e-06
      ]
    },
    {
      "children": [
        56
      ],
      "extras": {
        "Flags": 67108878,
        "ID": 214,
        "Parent ID": 12
      },
      "name": "Cloth_Bone_FinFrontL01",
      "rotation": [
        0.7066807746887207,
        0.42349371314048767,
        -0.024544423446059227,
        0.5662623047828674
      ],
      "scale": [
        1.0,
        1.0,
        1.0
      ],
      "translation": [
        0.09287726879119873,
        0.18771643936634064,
        -0.38924911618232727
      ]
    },
    {
      "extras": {
        "Flags": 67108878,
        "ID": 216,
        "Parent ID": 214
      },
      "name": "Cloth_Bone_FinFrontL02",
      "rotation": [
        0.052611857652664185,
        -0.22190262377262115,
        0.17370626330375671,
        0.9580278396606445
      ],
      "scale": [
        1.0,
        1.0,
        1.0
      ],
      "translation": [
        0.9689120054244995,
        1.1444091541079615e-07,
        -1.4210854397564648e-16
      ]
    },
    {
      "children": [
        58
      ],
      "extras": {
        "Flags": 67108878,
        "ID": 218,
        "Parent ID": 12
      },
      "name": "Cloth_Bone_FinFrontR01",
      "rotation": [
        0.5565735697746277,
        -0.041864022612571716,
        0.43614840507507324,
        0.7058666944503784
      ],
      "scale": [
        1.0,
        1.0,
        1.0
      ],
      "translation": [
        0.1036762222647667,
        0.18771667778491974,
        0.34974533319473267
      ]
    },
    {
      "extras": {
        "Flags": 67108878,
        "ID": 220,
        "Parent ID": 218
      },
      "name": "Cloth_Bone_FinFrontR02",
      "rotation": [
        -0.05761222913861275,
        -0.22294846177101135,
        -0.198961079120636,
        0.952569842338562
      ],
      "scale": [
        1.0,
        1.0,
        1.0
      ],
      "translation": [
        0.971683919429779,
        -5.7220457705398076e-08,
        -1.4210854397564648e-16
      ]
    },
    {
      "children": [
        60
      ],
      "extras": {
        "Flags": 67108878,
        "ID": 222,
        "Parent ID": 12
      },
      "name": "Cloth_Bone_FinBackL01",
      "rotation": [
        0.7068103551864624,
        0.40147078037261963,
        -0.020472897216677666,
        0.5820834636688232
      ],
      "scale": [
        1.0,
        1.0,
        1.0
      ],
      "translation": [
        0.4153200685977936,
        0.11639228463172913,
        -0.2534826695919037
      ]
    },
    {
      "extras": {
        "Flags": 67108878,
        "ID": 224,
        "Parent ID": 222
      },
      "name": "Cloth_Bone_FinBackL02",
      "rotation": [
        0.041087403893470764,
        -0.16350078582763672,
        0.16078221797943115,
        0.9724857211112976
      ],
      "scale": [
        1.0,
        1.0,
        1.0
      ],
      "translation": [
        0.7864355444908142,
        1.4210854397564648e-16,
        1.5258788721439487e-07
      ]
    },
    {
      "children": [
        62
      ],
      "extras": {
        "Flags": 67108878,
        "ID": 226,
        "Parent ID": 12
      },
      "name": "Cloth_Bone_FinBackR01",
      "rotation": [
        0.5774760842323303,
        -0.022388698533177376,
        0.4080699384212494,
        0.7067524194717407
      ],
      "scale": [
        1.0,
        1.0,
        1.0
      ],
      "translation": [
        0.4153193235397339,
        0.11639274656772614,
        0.24175123870372772
      ]
    },
    {
      "extras": {
        "Flags": 67108878,
        "ID": 228,
        "Parent ID": 226
      },
      "name": "Cloth_Bone_FinBackR02",
      "rotation": [
        -0.04453380033373833,
        -0.18216270208358765,
        -0.17289793491363525,
        0.9669228792190552
      ],
      "scale": [
        1.0,
        1.0,
        1.0
      ],
      "translation": [
        0.7760772705078125,
        -1.9073485191256623e-07,
        0.0
      ]
    },
    {
      "extras": {
        "Flags": 14,
        "ID": 136,
        "Parent ID": 9
      },
      "name": "C_BackFinA",
      "rotation": [
        0.880642294883728,
        -0.4737817347049713,
        1.0610083336359821e-06,
        -4.624769474048662e-07
      ],
      "scale": [
        1.0,
        1.0,
        1.0
      ],
      "translation": [
        0.02262643352150917,
        -0.4082806408405304,
        5.409136178968765e-07
      ]
    },
    {
      "children": [
        65
      ],
      "extras": {
        "Flags": 14,
        "ID": 138,
        "Parent ID": 9
      },
      "name": "L_FinB",
      "rotation": [
        -0.2728360593318939,
        0.23914653062820435,
        0.43909743428230286,
        0.8219262957572937
      ],
      "scale": [
        1.0,
        1.0,
        1.0
      ],
      "translation": [
        0.05375361442565918,
        0.2709887623786926,
        -0.46197637915611267
      ]
    },
    {
      "children": [
        66
      ],
      "extras": {
        "Flags": 14,
        "ID": 141,
        "Parent ID": 138
      },
      "name": "L_FinB2",
      "rotation": [
        0.01321709156036377,
        -0.031373459845781326,
        -0.05543413385748863,
        0.9978817701339722
      ],
      "scale": [
        0.9999989867210388,
        0.9999989867210388,
        0.9999989867210388
      ],
      "translation": [
        0.730417788028717,
        -0.09289197623729706,
        1.4210854397564648e-16
      ]
    },
    {
      "children": [
        67
      ],
      "extras": {
        "Flags": 14,
        "ID": 144,
        "Parent ID": 141
      },
      "name": "L_FinB3",
      "rotation": [
        0.04206341877579689,
        -0.025312304496765137,
        -0.053534992039203644,
        0.9973584413528442
      ],
      "scale": [
        1.0,
        1.0,
        1.0
      ],
      "translation": [
        0.5882645845413208,
        -3.814697180359872e-08,
        7.629394360719743e-08
      ]
    },
    {
      "children": [
        68
      ],
      "extras": {
        "Flags": 14,
        "ID": 147,
        "Parent ID": 144
      },
      "name": "L_FinB4",
      "rotation": [
        -2.7755575615628914e-17,
        -4.1359030627651384e-25,
        1.4901161193847656e-08,
        1.0
      ],
      "scale": [
        1.0,
        1.0,
        1.0
      ],
      "translation": [
        0.5950401425361633,
        1.335144048653092e-07,
        1.5258788721439487e-07
      ]
    },
    {
      "extras": {
        "Flags": 67108878,
        "ID": 230,
        "Parent ID": 147
      },
      "name": "Cloth_Bone_FinB_L",
      "rotation": [
        -2.384185791015625e-07,
        4.470347292340193e-08,
        2.980232949312267e-08,
        1.0
      ],
      "scale": [
        1.0,
        1.0,
        1.0
      ],
      "translation": [
        0.38105452060699463,
        -0.02264312654733658,
        0.02611236460506916
      ]
    },
    {
      "extras": {
        "Flags": 14,
        "ID": 149,
        "Parent ID": 9
      },
      "name": "C_BellyFinA",
      "rotation": [
        0.7839130163192749,
        0.6208706498146057,
        1.0479229786142241e-06,
        9.391036428496591e-07
      ],
      "scale": [
        1.0,
        1.0,
        1.0
      ],
      "translation": [
        0.08808828145265579,
        0.6403950452804565,
        4.5456351926986827e-07
      ]
    },
    {
      "children": [
        71
      ],
      "extras": {
        "Flags": 14,
        "ID": 151,
        "Parent ID": 9
      },
      "name": "R_FinB",
      "rotation": [
        -0.2391486018896103,
        -0.2728345990180969,
        0.8219257593154907,
        -0.43909820914268494
      ],
      "scale": [
        1.0,
        1.0,
        1.0
      ],
      "translation": [
        0.05375128611922264,
        0.2709899842739105,
        0.4619764983654022
      ]
    },
    {
      "children": [
        72
      ],
      "extras": {
        "Flags": 14,
        "ID": 154,
        "Parent ID": 151
      },
      "name": "R_FinB2",
      "rotation": [
        0.013217108324170113,
        -0.03137344866991043,
        -0.05543409660458565,
        0.9978817701339722
      ],
      "scale": [
        1.0,
        1.0,
        1.0
      ],
      "translation": [
        -0.7304206490516663,
        0.09288997203111649,
        -2.0599363779183477e-06
      ]
    },
    {
      "children": [
        73
      ],
      "extras": {
        "Flags": 14,
        "ID": 157,
        "Parent ID": 154
      },
      "name": "R_FinB3",
      "rotation": [
        0.04206342622637749,
        -0.025312243029475212,
        -0.05353497713804245,
        0.997358500957489
      ],
      "scale": [
        1.0,
        1.0,
        1.0
      ],
      "translation": [
        -0.5882618427276611,
        2.670288040462765e-06,
        4.19616708313697e-06
      ]
    },
    {
      "children": [
        74
      ],
      "extras": {
        "Flags": 14,
        "ID": 160,
        "Parent ID": 157
      },
      "name": "R_FinB4",
      "rotation": [
        -1.4901161193847656e-08,
        -1.4901161193847656e-08,
        -1.6653345369377348e-16,
        1.0
      ],
      "scale": [
        1.0,
        1.0,
        1.0
      ],
      "translation": [
        -0.5950397253036499,
        1.2969970839549205e-06,
        -2.7465819130156888e-06
      ]
    },
    {
      "extras": {
        "Flags": 67108878,
        "ID": 232,
        "Parent ID": 160
      },
      "name": "Cloth_Bone_FinB_R",
      "rotation": [
        -2.980230462412692e-08,
        -3.725292962997173e-09,
        8.940696716308594e-08,
        1.0
      ],
      "scale": [
        1.0,
        1.0,
        1.0
      ],
      "translation": [
        -0.38191771507263184,
        -0.04853912070393562,
        -0.02261451631784439
      ]
    },
    {
      "extras": {
        "Flags": 67108878,
        "ID": 234,
        "Parent ID": 9
      },
      "name": "Cloth_Bone_Back3",
      "rotation": [
        -0.6932482719421387,
        0.7171918749809265,
        0.03777942433953285,
        0.06012745574116707
      ],
      "scale": [
        1.0,
        1.0,
        1.0
      ],
      "translation": [
        0.15732212364673615,
        -0.3804016709327698,
        -0.2802221477031708
      ]
    },
    {
      "children": [
        77,
        81,
        85
      ],
      "extras": {
        "Flags": 14,
        "ID": 162,
        "Parent ID": 5
      },
      "name": "C_neck",
      "rotation": [
        -0.5000007152557373,
        -0.499999463558197,
        0.4999992251396179,
        0.5000004768371582
      ],
      "scale": [
        1.0,
        1.0,
        1.0
      ],
      "translation": [
        -3.932069319034781e-07,
        0.14430108666419983,
        -0.0021556091960519552
      ]
    },
    {
      "children": [
        78,
        79,
        80
      ],
      "extras": {
        "Flags": 14,
        "ID": 165,
        "Parent ID": 162
      },
      "name": "C_head",
      "rotation": [
        1.0587911840678754e-22,
        -3.813253898299167e-14,
        1.9852334701272664e-23,
        1.0
      ],
      "scale": [
        1.0,
        1.0,
        1.0
      ],
      "translation": [
        0.3592163622379303,
        1.4210854397564648e-16,
        -3.334560005896492e-07
      ]
    },
    {
      "extras": {
        "Flags": 14,
        "ID": 168,
        "Parent ID": 165
      },
      "name": "C_jaw",
      "rotation": [
        -1.1311840353300795e-11,
        -3.813253898299167e-14,
        6.186095757449372e-24,
        1.0
      ],
      "scale": [
        1.0,
        1.0,
        1.0
      ],
      "translation": [
        0.21687239408493042,
        0.2560012638568878,
        4.160222317750595e-07
      ]
    },
    {
      "extras": {
        "Flags": 67108878,
        "ID": 236,
        "Parent ID": 165
      },
      "name": "Cloth_Bone_Back1",
      "rotation": [
        1.0651139064066228e-06,
        -5.336862045624002e-07,
        -0.6178318858146667,
        0.7863101959228516
      ],
      "scale": [
        1.0,
        1.0,
        1.0
      ],
      "translation": [
        0.394829124212265,
        -0.38150709867477417,
        0.020248714834451675
      ]
    },
    {
      "extras": {
        "Flags": 67108878,
        "ID": 238,
        "Parent ID": 165
      },
      "name": "Cloth_Bone_Back2",
      "rotation": [
        0.03782132267951965,
        0.037125635892152786,
        -0.7126200795173645,
        0.6995455622673035
      ],
      "scale": [
        1.0,
        1.0,
        1.0
      ],
      "translation": [
        0.13120849430561066,
        -0.5037676692008972,
        -0.13771073520183563
      ]
    },
    {
      "children": [
        82
      ],
      "extras": {
        "Flags": 14,
        "ID": 171,
        "Parent ID": 162
      },
      "name": "L_FinA",
      "rotation": [
        0.46217119693756104,
        0.801952064037323,
        0.32794874906539917,
        -0.18899822235107422
      ],
      "scale": [
        1.0,
        1.0,
        1.0
      ],
      "translation": [
        0.10785308480262756,
        0.27584365010261536,
        0.4310389757156372
      ]
    },
    {
      "children": [
        83
      ],
      "extras": {
        "Flags": 14,
        "ID": 174,
        "Parent ID": 171
      },
      "name": "L_FinA2",
      "rotation": [
        -0.007123482413589954,
        0.008658976294100285,
        -0.02955460734665394,
        0.9995002746582031
      ],
      "scale": [
        1.0,
        1.0,
        1.0
      ],
      "translation": [
        0.6491514444351196,
        -0.04265636205673218,
        0.0015536498976871371
      ]
    },
    {
      "children": [
        84
      ],
      "extras": {
        "Flags": 14,
        "ID": 177,
        "Parent ID": 174
      },
      "name": "L_FinA3",
      "rotation": [
        0.02164914831519127,
        -0.018664158880710602,
        -0.060004089027643204,
        0.9977887868881226
      ],
      "scale": [
        1.0,
        1.0,
        1.0
      ],
      "translation": [
        0.5183560848236084,
        -7.629394360719743e-08,
        1.4210854397564648e-16
      ]
    },
    {
      "extras": {
        "Flags": 14,
        "ID": 180,
        "Parent ID": 177
      },
      "name": "L_FinA4",
      "rotation": [
        -2.7755575615628914e-16,
        1.4901161193847656e-08,
        1.4901161193847656e-08,
        1.0
      ],
      "scale": [
        1.0,
        1.0,
        1.0
      ],
      "translation": [
        0.5296284556388855,
        3.814697180359872e-08,
        -1.5258788721439487e-07
      ]
    },
    {
      "children": [
        86
      ],
      "extras": {
        "Flags": 14,
        "ID": 182,
        "Parent ID": 162
      },
      "name": "R_FinA",
      "rotation": [
        0.8019518256187439,
        -0.4621720612049103,
        0.1889997273683548,
        0.327947199344635
      ],
      "scale": [
        1.0,
        1.0,
        1.0
      ],
      "translation": [
        0.10785488039255142,
        0.2758401334285736,
        -0.4310380816459656
      ]
    },
    {
      "children": [
        87
      ],
      "extras": {
        "Flags": 14,
        "ID": 185,
        "Parent ID": 182
      },
      "name": "R_FinA2",
      "rotation": [
        -0.007123483344912529,
        0.00865897350013256,
        -0.029554547742009163,
        0.9995002746582031
      ],
      "scale": [
        1.0,
        1.0,
        1.0
      ],
      "translation": [
        -0.649156928062439,
        0.04265281558036804,
        -0.0015591430710628629
      ]
    },
    {
      "children": [
        88
      ],
      "extras": {
        "Flags": 14,
        "ID": 188,
        "Parent ID": 185
      },
      "name": "R_FinA3",
      "rotation": [
        0.021649163216352463,
        -0.018664158880710602,
        -0.060004059225320816,
        0.9977887868881226
      ],
      "scale": [
        1.0,
        1.0,
        1.0
      ],
      "translation": [
        -0.518352746963501,
        2.822876012942288e-06,
        1.449584942747606e-06
      ]
    },
    {
      "extras": {
        "Flags": 14,
        "ID": 191,
        "Parent ID": 188
      },
      "name": "R_FinA4",
      "rotation": [
        -1.4901162970204496e-08,
        1.4901161193847656e-08,
        2.980232594040899e-08,
        1.0
      ],
      "scale": [
        1.0,
        1.0,
        1.0
      ],
      "translation": [
        -0.5296298861503601,
        -1.7356871921947459e-06,
        2.136230477844947e-06
      ]
    },
    {
      "extras": {
        "Flags": 526,
        "Has GPU LODs": false,
        "ID": 240,
        "Material Path": "Materials\\Actors\\SwimmerA\\SwimmerA_Ghostpipe\\SwimmerA_Ghostpipe.mat",
        "NiIntegerExtraData:MaterialID": 1622121398,
        "Parent ID": 3
      },
      "mesh": 0,
      "name": "SwimmerA_Ghostpipe:0",
      "rotation": [
        3.0616171314629196e-17,
        0.0,
        0.0,
        1.0
      ],
      "scale": [
        1.0,
        1.0,
        1.0
      ],
      "skin": 0,
      "translation": [
        0.0,
        0.0,
        0.0
      ]
    }
  ],
  "scenes": [
    {
      "name": "ExportScene",
      "nodes": [
        0
      ]
    }
  ],
  "skins": [
    {
      "inverseBindMatrices": 0,
      "joints": [
        77,
        76,
        2,
        3,
        64,
        78,
        79,
        4,
        54,
        75,
        70,
        57,
        80,
        73,
        61,
        59,
        7,
        6,
        24,
        29,
        8,
        30,
        56,
        55,
        60,
        28,
        68,
        25,
        26,
        27,
        65,
        66,
        67,
        69,
        49,
        5,
        42,
        52,
        9,
        11,
        12,
        13,
        14,
        10,
        34,
        58,
        62,
        33,
        74,
        31,
        32,
        71,
        72,
        47
      ],
      "skeleton": 1
    }
  ]
}
