{
  "accessors": [
    {
      "bufferView": 0,
      "componentType": 5126,
      "count": 28,
      "type": "MAT4"
    },
    {
      "bufferView": 1,
      "componentType": 5126,
      "count": 5360,
      "max": [
        0.24854274094104767,
        0.6821497082710266,
        0.3706473112106323
      ],
      "min": [
        -0.24854274094104767,
        -0.7549974322319031,
        -0.0022583696991205215
      ],
      "type": "VEC3"
    },
    {
      "bufferView": 2,
      "componentType": 5126,
      "count": 5360,
      "type": "VEC3"
    },
    {
      "bufferView": 3,
      "componentType": 5126,
      "count": 5360,
      "type": "VEC4"
    },
    {
      "bufferView": 4,
      "componentType": 5126,
      "count": 5360,
      "type": "VEC2"
    },
    {
      "bufferView": 5,
      "componentType": 5126,
      "count": 5360,
      "type": "VEC4"
    },
    {
      "bufferView": 6,
      "componentType": 5126,
      "count": 5360,
      "type": "VEC4"
    },
    {
      "bufferView": 7,
      "componentType": 5123,
      "count": 5360,
      "type": "VEC4"
    },
    {
      "bufferView": 8,
      "componentType": 5123,
      "count": 5360,
      "type": "VEC4"
    },
    {
      "bufferView": 9,
      "componentType": 5123,
      "count": 26784,
      "type": "SCALAR"
    }
  ],
  "asset": {
    "generator": "NifSkope glTF 2.0 Exporter v1.2",
    "version": "2.0"
  },
  "bufferViews": [
    {
      "buffer": 0,
      "byteLength": 1792
    },
    {
      "buffer": 0,
      "byteLength": 64320,
      "byteOffset": 1792,
      "target": 34962
    },
    {
      "buffer": 0,
      "byteLength": 64320,
      "byteOffset": 66112,
      "target": 34962
    },
    {
      "buffer": 0,
      "byteLength": 85760,
      "byteOffset": 130432,
      "target": 34962
    },
    {
      "buffer": 0,
      "byteLength": 42880,
      "byteOffset": 216192,
      "target": 34962
    },
    {
      "buffer": 0,
      "byteLength": 85760,
      "byteOffset": 259072,
      "target": 34962
    },
    {
      "buffer": 0,
      "byteLength": 85760,
      "byteOffset": 344832,
      "target": 34962
    },
    {
      "buffer": 0,
      "byteLength": 42880,
      "byteOffset": 430592,
      "target": 34962
    },
    {
      "buffer": 0,
      "byteLength": 42880,
      "byteOffset": 473472,
      "target": 34962
    },
    {
      "buffer": 0,
      "byteLength": 53568,
      "byteOffset": 516352,
      "target": 34963
    }
  ],
  "buffers": [
    {
      "byteLength": 569920,
      "name": "Carnasnail.bin",
      "uri": "Carnasnail.bin"
    }
  ],
  "materials": [
    {
      "extras": {
        "Material Path": "Default"
      },
      "name": "Default"
    },
    {
      "extras": {
        "Material Path": "materials/actors/critter/critter_carasnail/critter_carasnail.mat"
      },
      "name": "Materials/Actors/Critter/Critter_Carasnail/Critter_Carasnail"
    }
  ],
  "meshes": [
    {
      "name": "Critter_Carasnail:0",
      "primitives": [
        {
          "attributes": {
            "JOINTS_0": 7,
            "JOINTS_1": 8,
            "NORMAL": 2,
            "POSITION": 1,
            "TANGENT": 3,
            "TEXCOORD_0": 4,
            "WEIGHTS_0": 5,
            "WEIGHTS_1": 6
          },
          "indices": 9,
          "material": 1,
          "mode": 4
        }
      ]
    }
  ],
  "nodes": [
    {
      "children": [
        1,
        31
      ],
      "extras": {
        "Flags": 14,
        "ID": 3,
        "Parent ID": 0
      },
      "name": "Root",
      "rotation": [
        -0.7071067690849304,
        0.0,
        0.0,
        0.7071067690849304
      ],
      "scale": [
        1.0,
        1.0,
        1.0
      ],
      "translation": [
        0.0,
        0.0,
        -0.0
      ]
    },
    {
      "children": [
        2,
        21
      ],
      "extras": {
        "Flags": 14,
        "ID": 5,
        "Parent ID": 3
      },
      "name": "COM",
      "rotation": [
        0.0,
        0.0,
        0.0,
        1.0
      ],
      "scale": [
        1.0,
        1.0,
        1.0
      ],
      "translation": [
        -7.055160011759654e-08,
        -0.1134679839015007,
        0.14947298169136047
      ]
    },
    {
      "children": [
        3,
        17,
        18,
        19,
        20
      ],
      "extras": {
        "Flags": 14,
        "ID": 9,
        "Parent ID": 5
      },
      "name": "C_spine1",
      "rotation": [
        -0.47396788001060486,
        -0.5247414708137512,
        0.47396883368492126,
        0.5247422456741333
      ],
      "scale": [
        0.9999986290931702,
        0.9999986290931702,
        0.9999986290931702
      ],
      "translation": [
        3.540208057262184e-11,
        1.907348590179936e-08,
        -9.53674295089968e-09
      ]
    },
    {
      "children": [
        4,
        5,
        7,
        8,
        10,
        11,
        14
      ],
      "extras": {
        "Flags": 14,
        "ID": 12,
        "Parent ID": 9
      },
      "name": "C_spine2",
      "rotation": [
        -1.4283332347986288e-05,
        -2.986942945426563e-06,
        0.12404534220695496,
        0.9922765493392944
      ],
      "scale": [
        1.0000020265579224,
        1.0000020265579224,
        1.0000020265579224
      ],
      "translation": [
        0.17462179064750671,
        4.0054320038507285e-07,
        -5.791018793388503e-07
      ]
    },
    {
      "extras": {
        "Flags": 14,
        "ID": 15,
        "Parent ID": 12
      },
      "name": "C_Head1",
      "rotation": [
        1.3910386769566685e-05,
        -2.217424935224699e-06,
        0.13338996469974518,
        0.99106365442276
      ],
      "scale": [
        0.9999984502792358,
        0.9999984502792358,
        0.9999984502792358
      ],
      "translation": [
        0.11231440305709839,
        -5.340576194612368e-07,
        -1.0532210126257269e-07
      ]
    },
    {
      "children": [
        6
      ],
      "extras": {
        "Flags": 14,
        "ID": 17,
        "Parent ID": 12
      },
      "name": "R_FrontLegA1",
      "rotation": [
        0.7704458236694336,
        0.26800337433815,
        -0.3094203770160675,
        0.48871922492980957
      ],
      "scale": [
        0.9999966025352478,
        0.9999966025352478,
        0.9999966025352478
      ],
      "translation": [
        0.11477503180503845,
        0.039286497980356216,
        -0.08537007868289948
      ]
    },
    {
      "extras": {
        "Flags": 14,
        "ID": 20,
        "Parent ID": 17
      },
      "name": "R_FrontLegA2",
      "rotation": [
        0.011891722679138184,
        0.40226489305496216,
        -0.005870243534445763,
        0.9154272675514221
      ],
      "scale": [
        1.0000029802322388,
        1.0000029802322388,
        1.0000029802322388
      ],
      "translation": [
        0.07594668120145798,
        -3.0517577442878974e-07,
        -7.24792471373803e-07
      ]
    },
    {
      "extras": {
        "Flags": 14,
        "ID": 22,
        "Parent ID": 12
      },
      "name": "R_FrontLegB1",
      "rotation": [
        0.7568560838699341,
        0.4755221903324127,
        -0.22680774331092834,
        0.38678911328315735
      ],
      "scale": [
        1.0000042915344238,
        1.0000042915344238,
        1.0000042915344238
      ],
      "translation": [
        0.06483405083417892,
        0.06131717562675476,
        -0.1330820471048355
      ]
    },
    {
      "children": [
        9
      ],
      "extras": {
        "Flags": 14,
        "ID": 25,
        "Parent ID": 12
      },
      "name": "L_FrontLegA1",
      "rotation": [
        0.48874348402023315,
        -0.30942580103874207,
        0.26799476146698,
        0.7704312205314636
      ],
      "scale": [
        1.0000008344650269,
        1.0000008344650269,
        1.0000008344650269
      ],
      "translation": [
        0.11477560549974442,
        0.039281826466321945,
        0.0853731781244278
      ]
    },
    {
      "extras": {
        "Flags": 14,
        "ID": 28,
        "Parent ID": 25
      },
      "name": "L_FrontLegA2",
      "rotation": [
        -0.011892501264810562,
        0.4022650122642517,
        0.00586961954832077,
        0.9154272079467773
      ],
      "scale": [
        1.000002145767212,
        1.000002145767212,
        1.000002145767212
      ],
      "translation": [
        0.07594610750675201,
        -2.288818308215923e-07,
        -8.48770127959142e-07
      ]
    },
    {
      "extras": {
        "Flags": 14,
        "ID": 30,
        "Parent ID": 12
      },
      "name": "L_FrontLegB1",
      "rotation": [
        0.386812686920166,
        -0.22682051360607147,
        0.47551557421684265,
        0.7568442821502686
      ],
      "scale": [
        1.000002384185791,
        1.000002384185791,
        1.000002384185791
      ],
      "translation": [
        0.0648348405957222,
        0.06130954623222351,
        0.1330859661102295
      ]
    },
    {
      "children": [
        12
      ],
      "extras": {
        "Flags": 14,
        "ID": 33,
        "Parent ID": 12
      },
      "name": "R_Antenna1",
      "rotation": [
        0.706582248210907,
        -0.02749146707355976,
        -0.06263606995344162,
        0.7043169736862183
      ],
      "scale": [
        0.9999982118606567,
        0.9999982118606567,
        0.9999982118606567
      ],
      "translation": [
        0.060038719326257706,
        -0.009290999732911587,
        -0.09998755902051926
      ]
    },
    {
      "children": [
        13
      ],
      "extras": {
        "Flags": 14,
        "ID": 35,
        "Parent ID": 33
      },
      "name": "R_Antenna2",
      "rotation": [
        0.005590599961578846,
        0.1334298700094223,
        0.01166602410376072,
        0.9909738302230835
      ],
      "scale": [
        1.0000017881393433,
        1.0000017881393433,
        1.0000017881393433
      ],
      "translation": [
        0.08722490817308426,
        3.814697180359872e-08,
        4.386901650832442e-07
      ]
    },
    {
      "extras": {
        "Flags": 14,
        "ID": 37,
        "Parent ID": 35
      },
      "name": "R_Antenna3",
      "rotation": [
        0.005659287795424461,
        -0.07987093925476074,
        0.07943223416805267,
        0.9936192035675049
      ],
      "scale": [
        0.9999987483024597,
        0.9999987483024597,
        0.9999987483024597
      ],
      "translation": [
        0.24416862428188324,
        -9.72747784544481e-07,
        -8.773803301664884e-07
      ]
    },
    {
      "children": [
        15
      ],
      "extras": {
        "Flags": 14,
        "ID": 39,
        "Parent ID": 12
      },
      "name": "L_Antenna1",
      "rotation": [
        0.704338014125824,
        -0.06263475865125656,
        -0.027494113892316818,
        0.7065613269805908
      ],
      "scale": [
        0.9999983906745911,
        0.9999983906745911,
        0.9999983906745911
      ],
      "translation": [
        0.06003936752676964,
        -0.009296550415456295,
        0.09998806565999985
      ]
    },
    {
      "children": [
        16
      ],
      "extras": {
        "Flags": 14,
        "ID": 41,
        "Parent ID": 39
      },
      "name": "L_Antenna2",
      "rotation": [
        -0.005591430235654116,
        0.1334301382303238,
        -0.011665617115795612,
        0.9909737706184387
      ],
      "scale": [
        1.000002384185791,
        1.000002384185791,
        1.000002384185791
      ],
      "translation": [
        0.08722482621669769,
        -5.912780807193485e-07,
        3.433227391269611e-07
      ]
    },
    {
      "extras": {
        "Flags": 14,
        "ID": 43,
        "Parent ID": 41
      },
      "name": "L_Antenna3",
      "rotation": [
        -0.005659774877130985,
        -0.07987089455127716,
        -0.07943204045295715,
        0.9936192035675049
      ],
      "scale": [
        0.999997615814209,
        0.999997615814209,
        0.999997615814209
      ],
      "translation": [
        0.24416814744472504,
        -2.0027160019253643e-07,
        -9.5367431640625e-07
      ]
    },
    {
      "extras": {
        "Flags": 14,
        "ID": 45,
        "Parent ID": 9
      },
      "name": "R_MiddleLegA1",
      "rotation": [
        0.5232500433921814,
        0.6710240840911865,
        -0.40941745042800903,
        0.32911011576652527
      ],
      "scale": [
        0.9999977350234985,
        0.9999977350234985,
        0.9999977350234985
      ],
      "translation": [
        0.1381070464849472,
        0.06808318942785263,
        -0.1329622119665146
      ]
    },
    {
      "extras": {
        "Flags": 14,
        "ID": 48,
        "Parent ID": 9
      },
      "name": "R_MiddleLegB1",
      "rotation": [
        0.39016804099082947,
        0.7515903115272522,
        -0.49400752782821655,
        0.19707225263118744
      ],
      "scale": [
        0.9999979734420776,
        0.9999979734420776,
        0.9999979734420776
      ],
      "translation": [
        0.050585582852363586,
        0.06677951663732529,
        -0.13348422944545746
      ]
    },
    {
      "extras": {
        "Flags": 14,
        "ID": 51,
        "Parent ID": 9
      },
      "name": "L_MiddleLegA1",
      "rotation": [
        0.32910940051078796,
        -0.4094175100326538,
        0.6710224151611328,
        0.5232522487640381
      ],
      "scale": [
        0.9999983310699463,
        0.9999983310699463,
        0.9999983310699463
      ],
      "translation": [
        0.1381072849035263,
        0.06808365881443024,
        0.13296175003051758
      ]
    },
    {
      "extras": {
        "Flags": 14,
        "ID": 54,
        "Parent ID": 9
      },
      "name": "L_MiddleLegB1",
      "rotation": [
        0.1970731019973755,
        -0.49400657415390015,
        0.7515907883644104,
        0.39016789197921753
      ],
      "scale": [
        1.0000052452087402,
        1.0000052452087402,
        1.0000052452087402
      ],
      "translation": [
        0.05058575049042702,
        0.06677982956171036,
        0.13348378241062164
      ]
    },
    {
      "children": [
        22,
        27,
        28,
        29,
        30
      ],
      "extras": {
        "Flags": 14,
        "ID": 57,
        "Parent ID": 5
      },
      "name": "C_hips1",
      "rotation": [
        -0.4194098711013794,
        0.5700966119766235,
        -0.41831809282302856,
        0.5692934989929199
      ],
      "scale": [
        1.000000238418579,
        1.000000238418579,
        1.000000238418579
      ],
      "translation": [
        2.0187052029996266e-09,
        1.907348590179936e-08,
        -9.53674295089968e-09
      ]
    },
    {
      "children": [
        23,
        25
      ],
      "extras": {
        "Flags": 14,
        "ID": 60,
        "Parent ID": 57
      },
      "name": "C_Hips2",
      "rotation": [
        -2.1457663024193607e-06,
        1.2525721331257955e-06,
        -4.917358182865428e-07,
        1.0
      ],
      "scale": [
        0.9999996423721313,
        0.9999996423721313,
        0.9999996423721313
      ],
      "translation": [
        0.13230706751346588,
        6.103515488575795e-07,
        -2.2627412477049802e-07
      ]
    },
    {
      "children": [
        24
      ],
      "extras": {
        "Flags": 14,
        "ID": 63,
        "Parent ID": 60
      },
      "name": "R_BackLegC1",
      "rotation": [
        0.6892992854118347,
        -0.015997949987649918,
        0.08928707242012024,
        0.7187755703926086
      ],
      "scale": [
        0.9999995827674866,
        0.9999995827674866,
        0.9999995827674866
      ],
      "translation": [
        0.08034147322177887,
        0.009230746887624264,
        0.03196772560477257
      ]
    },
    {
      "extras": {
        "Flags": 14,
        "ID": 66,
        "Parent ID": 63
      },
      "name": "R_BackLegC2",
      "rotation": [
        -0.018077289685606956,
        -0.12969659268856049,
        -0.13835272192955017,
        0.981687605381012
      ],
      "scale": [
        1.0000007152557373,
        1.0000007152557373,
        1.0000007152557373
      ],
      "translation": [
        0.1252707988023758,
        -1.0251998361354708e-07,
        9.536742595628311e-08
      ]
    },
    {
      "children": [
        26
      ],
      "extras": {
        "Flags": 14,
        "ID": 68,
        "Parent ID": 60
      },
      "name": "L_BackLegC1",
      "rotation": [
        0.7200977802276611,
        0.08931683748960495,
        -0.015825480222702026,
        0.6879180669784546
      ],
      "scale": [
        0.9999999403953552,
        0.9999999403953552,
        0.9999999403953552
      ],
      "translation": [
        0.08034158498048782,
        0.009353389963507652,
        -0.03193119540810585
      ]
    },
    {
      "extras": {
        "Flags": 14,
        "ID": 71,
        "Parent ID": 68
      },
      "name": "L_BackLegC2",
      "rotation": [
        0.01807747408747673,
        -0.12969635426998138,
        0.13835373520851135,
        0.9816874861717224
      ],
      "scale": [
        1.0000003576278687,
        1.0000003576278687,
        1.0000003576278687
      ],
      "translation": [
        0.12527108192443848,
        -5.006789933759137e-07,
        7.629394360719743e-08
      ]
    },
    {
      "extras": {
        "Flags": 14,
        "ID": 73,
        "Parent ID": 57
      },
      "name": "R_BackLegA1",
      "rotation": [
        0.4851956069469452,
        -0.13507965207099915,
        0.3378799855709076,
        0.7950948476791382
      ],
      "scale": [
        1.000002384185791,
        1.000002384185791,
        1.000002384185791
      ],
      "translation": [
        0.046382177621126175,
        0.05958278477191925,
        0.11816639453172684
      ]
    },
    {
      "extras": {
        "Flags": 14,
        "ID": 76,
        "Parent ID": 57
      },
      "name": "R_BackLegB1",
      "rotation": [
        0.5963571667671204,
        -0.08905032277107239,
        0.102995865046978,
        0.7910878658294678
      ],
      "scale": [
        1.0000040531158447,
        1.0000040531158447,
        1.0000040531158447
      ],
      "translation": [
        0.12738338112831116,
        0.04118797183036804,
        0.08173530548810959
      ]
    },
    {
      "extras": {
        "Flags": 14,
        "ID": 79,
        "Parent ID": 57
      },
      "name": "L_BackLegA1",
      "rotation": [
        0.7960222959518433,
        0.338139146566391,
        -0.13443338871002197,
        0.48367151618003845
      ],
      "scale": [
        1.0000011920928955,
        1.0000011920928955,
        1.0000011920928955
      ],
      "translation": [
        0.04638196900486946,
        0.06003513187170029,
        -0.1179371103644371
      ]
    },
    {
      "extras": {
        "Flags": 14,
        "ID": 82,
        "Parent ID": 57
      },
      "name": "L_BackLegB1",
      "rotation": [
        0.7922275066375732,
        0.10316655784845352,
        -0.08885351568460464,
        0.594842255115509
      ],
      "scale": [
        1.0000008344650269,
        1.0000008344650269,
        1.0000008344650269
      ],
      "translation": [
        0.12738333642482758,
        0.041500892490148544,
        -0.08157680928707123
      ]
    },
    {
      "extras": {
        "Flags": 526,
        "Has GPU LODs": false,
        "ID": 88,
        "Material Path": "Materials\\Actors\\Critter\\Critter_Carasnail\\Critter_Carasnail.mat",
        "NiIntegerExtraData:MaterialID": 1734802707,
        "Parent ID": 3
      },
      "mesh": 0,
      "name": "Critter_Carasnail:0",
      "rotation": [
        3.0616171314629196e-17,
        0.0,
        0.0,
        1.0
      ],
      "scale": [
        1.0,
        1.0,
        1.0
      ],
      "skin": 0,
      "translation": [
        0.0,
        0.0,
        0.0
      ]
    }
  ],
  "scenes": [
    {
      "name": "ExportScene",
      "nodes": [
        0
      ]
    }
  ],
  "skins": [
    {
      "inverseBindMatrices": 0,
      "joints": [
        3,
        11,
        12,
        13,
        21,
        2,
        22,
        14,
        15,
        10,
        29,
        19,
        17,
        16,
        26,
        25,
        24,
        23,
        7,
        6,
        5,
        18,
        27,
        28,
        9,
        8,
        20,
        30
      ],
      "skeleton": 1
    }
  ]
}
