{
  "accessors": [
    {
      "bufferView": 0,
      "componentType": 5126,
      "count": 44,
      "type": "MAT4"
    },
    {
      "bufferView": 1,
      "componentType": 5126,
      "count": 4,
      "type": "MAT4"
    },
    {
      "bufferView": 2,
      "componentType": 5126,
      "count": 3,
      "type": "MAT4"
    },
    {
      "bufferView": 3,
      "componentType": 5126,
      "count": 3,
      "type": "MAT4"
    },
    {
      "bufferView": 4,
      "componentType": 5126,
      "count": 5063,
      "max": [
        0.14410839974880219,
        0.6490066051483154,
        0.2535477876663208
      ],
      "min": [
        -0.14648884534835815,
        -1.2563860416412354,
        -0.02868739888072014
      ],
      "type": "VEC3"
    },
    {
      "bufferView": 5,
      "componentType": 5126,
      "count": 5063,
      "type": "VEC3"
    },
    {
      "bufferView": 6,
      "componentType": 5126,
      "count": 5063,
      "type": "VEC4"
    },
    {
      "bufferView": 7,
      "componentType": 5126,
      "count": 5063,
      "type": "VEC2"
    },
    {
      "bufferView": 8,
      "componentType": 5126,
      "count": 5063,
      "type": "VEC4"
    },
    {
      "bufferView": 9,
      "componentType": 5126,
      "count": 5063,
      "type": "VEC4"
    },
    {
      "bufferView": 10,
      "componentType": 5123,
      "count": 5063,
      "type": "VEC4"
    },
    {
      "bufferView": 11,
      "componentType": 5123,
      "count": 5063,
      "type": "VEC4"
    },
    {
      "bufferView": 12,
      "componentType": 5123,
      "count": 21261,
      "type": "SCALAR"
    },
    {
      "bufferView": 13,
      "componentType": 5126,
      "count": 424,
      "max": [
        0.02771080657839775,
        0.6277657151222229,
        0.13171789050102234
      ],
      "min": [
        -0.02941984310746193,
        0.5901669263839722,
        0.07794427126646042
      ],
      "type": "VEC3"
    },
    {
      "bufferView": 14,
      "componentType": 5126,
      "count": 424,
      "type": "VEC3"
    },
    {
      "bufferView": 15,
      "componentType": 5126,
      "count": 424,
      "type": "VEC4"
    },
    {
      "bufferView": 16,
      "componentType": 5126,
      "count": 424,
      "type": "VEC2"
    },
    {
      "bufferView": 17,
      "componentType": 5126,
      "count": 424,
      "type": "VEC4"
    },
    {
      "bufferView": 18,
      "componentType": 5123,
      "count": 424,
      "type": "VEC4"
    },
    {
      "bufferView": 19,
      "componentType": 5123,
      "count": 1758,
      "type": "SCALAR"
    },
    {
      "bufferView": 20,
      "componentType": 5126,
      "count": 1102,
      "max": [
        0.03833124786615372,
        0.6490676403045654,
        0.14038515090942383
      ],
      "min": [
        -0.039979249238967896,
        0.6019470691680908,
        0.06256294250488281
      ],
      "type": "VEC3"
    },
    {
      "bufferView": 21,
      "componentType": 5126,
      "count": 1102,
      "type": "VEC3"
    },
    {
      "bufferView": 22,
      "componentType": 5126,
      "count": 1102,
      "type": "VEC4"
    },
    {
      "bufferView": 23,
      "componentType": 5126,
      "count": 1102,
      "type": "VEC2"
    },
    {
      "bufferView": 24,
      "componentType": 5126,
      "count": 1102,
      "type": "VEC4"
    },
    {
      "bufferView": 25,
      "componentType": 5123,
      "count": 1102,
      "type": "VEC4"
    },
    {
      "bufferView": 26,
      "componentType": 5123,
      "count": 3912,
      "type": "SCALAR"
    },
    {
      "bufferView": 27,
      "componentType": 5126,
      "count": 144,
      "max": [
        0.043153174221515656,
        0.6333811283111572,
        0.15216529369354248
      ],
      "min": [
        -0.044801171869039536,
        0.5879696011543274,
        0.05066072568297386
      ],
      "type": "VEC3"
    },
    {
      "bufferView": 28,
      "componentType": 5126,
      "count": 144,
      "type": "VEC3"
    },
    {
      "bufferView": 29,
      "componentType": 5126,
      "count": 144,
      "type": "VEC4"
    },
    {
      "bufferView": 30,
      "componentType": 5126,
      "count": 144,
      "type": "VEC2"
    },
    {
      "bufferView": 31,
      "componentType": 5126,
      "count": 144,
      "type": "VEC4"
    },
    {
      "bufferView": 32,
      "componentType": 5123,
      "count": 144,
      "type": "VEC4"
    },
    {
      "bufferView": 33,
      "componentType": 5123,
      "count": 672,
      "type": "SCALAR"
    }
  ],
  "asset": {
    "generator": "NifSkope glTF 2.0 Exporter v1.2",
    "version": "2.0"
  },
  "bufferViews": [
    {
      "buffer": 0,
      "byteLength": 2816
    },
    {
      "buffer": 0,
      "byteLength": 256,
      "byteOffset": 2816
    },
    {
      "buffer": 0,
      "byteLength": 192,
      "byteOffset": 3072
    },
    {
      "buffer": 0,
      "byteLength": 192,
      "byteOffset": 3264
    },
    {
      "buffer": 0,
      "byteLength": 60756,
      "byteOffset": 3456,
      "target": 34962
    },
    {
      "buffer": 0,
      "byteLength": 60756,
      "byteOffset": 64212,
      "target": 34962
    },
    {
      "buffer": 0,
      "byteLength": 81008,
      "byteOffset": 124968,
      "target": 34962
    },
    {
      "buffer": 0,
      "byteLength": 40504,
      "byteOffset": 205976,
      "target": 34962
    },
    {
      "buffer": 0,
      "byteLength": 81008,
      "byteOffset": 246480,
      "target": 34962
    },
    {
      "buffer": 0,
      "byteLength": 81008,
      "byteOffset": 327488,
      "target": 34962
    },
    {
      "buffer": 0,
      "byteLength": 40504,
      "byteOffset": 408496,
      "target": 34962
    },
    {
      "buffer": 0,
      "byteLength": 40504,
      "byteOffset": 449000,
      "target": 34962
    },
    {
      "buffer": 0,
      "byteLength": 42522,
      "byteOffset": 489504,
      "target": 34963
    },
    {
      "buffer": 0,
      "byteLength": 5088,
      "byteOffset": 532028,
      "target": 34962
    },
    {
      "buffer": 0,
      "byteLength": 5088,
      "byteOffset": 537116,
      "target": 34962
    },
    {
      "buffer": 0,
      "byteLength": 6784,
      "byteOffset": 542204,
      "target": 34962
    },
    {
      "buffer": 0,
      "byteLength": 3392,
      "byteOffset": 548988,
      "target": 34962
    },
    {
      "buffer": 0,
      "byteLength": 6784,
      "byteOffset": 552380,
      "target": 34962
    },
    {
      "buffer": 0,
      "byteLength": 3392,
      "byteOffset": 559164,
      "target": 34962
    },
    {
      "buffer": 0,
      "byteLength": 3516,
      "byteOffset": 562556,
      "target": 34963
    },
    {
      "buffer": 0,
      "byteLength": 13224,
      "byteOffset": 566072,
      "target": 34962
    },
    {
      "buffer": 0,
      "byteLength": 13224,
      "byteOffset": 579296,
      "target": 34962
    },
    {
      "buffer": 0,
      "byteLength": 17632,
      "byteOffset": 592520,
      "target": 34962
    },
    {
      "buffer": 0,
      "byteLength": 8816,
      "byteOffset": 610152,
      "target": 34962
    },
    {
      "buffer": 0,
      "byteLength": 17632,
      "byteOffset": 618968,
      "target": 34962
    },
    {
      "buffer": 0,
      "byteLength": 8816,
      "byteOffset": 636600,
      "target": 34962
    },
    {
      "buffer": 0,
      "byteLength": 7824,
      "byteOffset": 645416,
      "target": 34963
    },
    {
      "buffer": 0,
      "byteLength": 1728,
      "byteOffset": 653240,
      "target": 34962
    },
    {
      "buffer": 0,
      "byteLength": 1728,
      "byteOffset": 654968,
      "target": 34962
    },
    {
      "buffer": 0,
      "byteLength": 2304,
      "byteOffset": 656696,
      "target": 34962
    },
    {
      "buffer": 0,
      "byteLength": 1152,
      "byteOffset": 659000,
      "target": 34962
    },
    {
      "buffer": 0,
      "byteLength": 2304,
      "byteOffset": 660152,
      "target": 34962
    },
    {
      "buffer": 0,
      "byteLength": 1152,
      "byteOffset": 662456,
      "target": 34962
    },
    {
      "buffer": 0,
      "byteLength": 1344,
      "byteOffset": 663608,
      "target": 34963
    }
  ],
  "buffers": [
    {
      "byteLength": 664952,
      "name": "Heatleech.bin",
      "uri": "Heatleech.bin"
    }
  ],
  "materials": [
    {
      "extras": {
        "Material Path": "Default"
      },
      "name": "Default"
    },
    {
      "extras": {
        "Material Path": "materials/actors/parasitea/parasitea_heatleech/parasitea_heatleech.mat"
      },
      "name": "Materials/Actors/Parasitea/Parasitea_Heatleech/Parasitea_Heatleech"
    }
  ],
  "meshes": [
    {
      "name": "ParasiteA_HeatLeech_body:0",
      "primitives": [
        {
          "attributes": {
            "JOINTS_0": 10,
            "JOINTS_1": 11,
            "NORMAL": 5,
            "POSITION": 4,
            "TANGENT": 6,
            "TEXCOORD_0": 7,
            "WEIGHTS_0": 8,
            "WEIGHTS_1": 9
          },
          "indices": 12,
          "material": 1,
          "mode": 4
        }
      ]
    },
    {
      "name": "ParasiteA_HeatLeech_teeth:0",
      "primitives": [
        {
          "attributes": {
            "JOINTS_0": 18,
            "NORMAL": 14,
            "POSITION": 13,
            "TANGENT": 15,
            "TEXCOORD_0": 16,
            "WEIGHTS_0": 17
          },
          "indices": 19,
          "material": 1,
          "mode": 4
        }
      ]
    },
    {
      "name": "ParasiteA_HeatLeech_beak:0",
      "primitives": [
        {
          "attributes": {
            "JOINTS_0": 25,
            "NORMAL": 21,
            "POSITION": 20,
            "TANGENT": 22,
            "TEXCOORD_0": 23,
            "WEIGHTS_0": 24
          },
          "indices": 26,
          "material": 1,
          "mode": 4
        }
      ]
    },
    {
      "name": "ParasiteA_HeatLeech_gums:0",
      "primitives": [
        {
          "attributes": {
            "JOINTS_0": 32,
            "NORMAL": 28,
            "POSITION": 27,
            "TANGENT": 29,
            "TEXCOORD_0": 30,
            "WEIGHTS_0": 31
          },
          "indices": 33,
          "material": 1,
          "mode": 4
        }
      ]
    }
  ],
  "nodes": [
    {
      "children": [
        1,
        52,
        53,
        54,
        55
      ],
      "extras": {
        "Flags": 14,
        "ID": 3,
        "Parent ID": 0
      },
      "name": "Root",
      "rotation": [
        -0.7071067690849304,
        -1.0677029393946214e-07,
        1.0677029393946214e-07,
        0.7071067690849304
      ],
      "scale": [
        1.0,
        1.0,
        1.0
      ],
      "translation": [
        0.0,
        0.0,
        -0.0
      ]
    },
    {
      "children": [
        2,
        27
      ],
      "extras": {
        "Flags": 14,
        "ID": 5,
        "Parent ID": 3
      },
      "name": "COM",
      "rotation": [
        1.5060099940455984e-06,
        7.549800074002633e-08,
        7.549799363459897e-08,
        1.0
      ],
      "scale": [
        1.0,
        1.0,
        1.0
      ],
      "translation": [
        -2.2675491176215896e-24,
        4.0170055773546443e-16,
        0.11671602725982666
      ]
    },
    {
      "children": [
        3
      ],
      "extras": {
        "Flags": 14,
        "ID": 9,
        "Parent ID": 5
      },
      "name": "C_spine",
      "rotation": [
        0.5000013709068298,
        0.49999868869781494,
        -0.5000001788139343,
        -0.4999997615814209
      ],
      "scale": [
        1.0,
        1.0,
        1.0
      ],
      "translation": [
        0.0,
        0.0,
        0.0
      ]
    },
    {
      "children": [
        4,
        25,
        26
      ],
      "extras": {
        "Flags": 14,
        "ID": 12,
        "Parent ID": 9
      },
      "name": "C_spine2",
      "rotation": [
        -3.1086244689504383e-15,
        -1.6576524775017303e-16,
        -1.0302869668521453e-13,
        1.0
      ],
      "scale": [
        1.0,
        1.0,
        1.0
      ],
      "translation": [
        0.09689999371767044,
        6.67572024326546e-08,
        -7.787818390170287e-07
      ]
    },
    {
      "children": [
        5,
        22,
        23,
        24
      ],
      "extras": {
        "Flags": 14,
        "ID": 15,
        "Parent ID": 12
      },
      "name": "C_spine3",
      "rotation": [
        -3.1086244689504383e-15,
        -1.6576526098506283e-16,
        -1.0302869668521453e-13,
        1.0
      ],
      "scale": [
        1.0,
        1.0,
        1.0
      ],
      "translation": [
        0.09689997136592865,
        7.629394360719743e-08,
        2.2760816591471666e-06
      ]
    },
    {
      "children": [
        6
      ],
      "extras": {
        "Flags": 14,
        "ID": 18,
        "Parent ID": 15
      },
      "name": "C_spine4",
      "rotation": [
        7.243828475424208e-13,
        -9.298324584960938e-06,
        7.823898329206713e-08,
        1.0
      ],
      "scale": [
        1.0,
        1.0,
        1.0
      ],
      "translation": [
        0.09689998626708984,
        7.629394360719743e-08,
        -1.7574606090420275e-06
      ]
    },
    {
      "children": [
        7
      ],
      "extras": {
        "Flags": 14,
        "ID": 21,
        "Parent ID": 18
      },
      "name": "C_spine5",
      "rotation": [
        -1.3006482284423637e-13,
        7.910563908808399e-06,
        1.6048943507485092e-08,
        1.0
      ],
      "scale": [
        1.0,
        1.0,
        1.0
      ],
      "translation": [
        0.09689996391534805,
        -9.53674295089968e-09,
        -1.164153192248496e-12
      ]
    },
    {
      "children": [
        8
      ],
      "extras": {
        "Flags": 14,
        "ID": 24,
        "Parent ID": 21
      },
      "name": "C_spine6",
      "rotation": [
        -3.1086244689504383e-15,
        -1.289511523955159e-15,
        -9.947598300641403e-14,
        1.0
      ],
      "scale": [
        1.0,
        1.0,
        1.0
      ],
      "translation": [
        0.09690002351999283,
        0.0,
        -3.5652190834983832e-12
      ]
    },
    {
      "children": [
        9
      ],
      "extras": {
        "Flags": 14,
        "ID": 27,
        "Parent ID": 24
      },
      "name": "C_head",
      "rotation": [
        2.126732383950225e-12,
        5.140443022355612e-07,
        -2.384186927884002e-07,
        1.0
      ],
      "scale": [
        1.0,
        1.0,
        1.0
      ],
      "translation": [
        0.058933790773153305,
        -4.768371297814156e-08,
        -1.4086445787597768e-07
      ]
    },
    {
      "children": [
        10,
        11,
        12,
        13,
        14,
        15,
        16,
        17,
        18,
        19,
        20,
        21
      ],
      "extras": {
        "Flags": 14,
        "ID": 30,
        "Parent ID": 27
      },
      "name": "C_head2",
      "rotation": [
        -2.6645352591003757e-15,
        1.5514547688276568e-15,
        -9.947598300641403e-14,
        1.0
      ],
      "scale": [
        1.0,
        1.0,
        1.0
      ],
      "translation": [
        0.03602607548236847,
        1.907348590179936e-08,
        -1.4903685041645076e-07
      ]
    },
    {
      "extras": {
        "Flags": 14,
        "ID": 32,
        "Parent ID": 30
      },
      "name": "C_throat",
      "rotation": [
        -2.6645352591003757e-15,
        1.5514547688276568e-15,
        -9.947598300641403e-14,
        1.0
      ],
      "scale": [
        1.0,
        1.0,
        1.0
      ],
      "translation": [
        0.017023468390107155,
        0.014667796902358532,
        -7.2759574515531e-14
      ]
    },
    {
      "extras": {
        "Flags": 14,
        "ID": 34,
        "Parent ID": 30
      },
      "name": "C_innerBeakTop",
      "rotation": [
        6.551245235186798e-08,
        1.5514482043223156e-15,
        -9.947598300641403e-14,
        1.0
      ],
      "scale": [
        1.0,
        1.0,
        1.0
      ],
      "translation": [
        0.027556266635656357,
        0.012345504947006702,
        -7.2759574515531e-14
      ]
    },
    {
      "extras": {
        "Flags": 14,
        "ID": 36,
        "Parent ID": 30
      },
      "name": "C_innerBeakBot",
      "rotation": [
        6.551245235186798e-08,
        1.5514482043223156e-15,
        -9.947598300641403e-14,
        1.0
      ],
      "scale": [
        1.0,
        1.0,
        1.0
      ],
      "translation": [
        0.027260322123765945,
        0.022104844450950623,
        1.5743425763048435e-07
      ]
    },
    {
      "extras": {
        "Flags": 14,
        "ID": 38,
        "Parent ID": 30
      },
      "name": "R_headspikeTop",
      "rotation": [
        0.3392828702926636,
        0.1267513930797577,
        -0.3262022137641907,
        0.8731628656387329
      ],
      "scale": [
        1.0,
        1.0,
        1.0
      ],
      "translation": [
        0.0031388471834361553,
        -0.02971699647605419,
        -0.06287981569766998
      ]
    },
    {
      "extras": {
        "Flags": 14,
        "ID": 40,
        "Parent ID": 30
      },
      "name": "C_headSpike",
      "rotation": [
        1.2265938487132644e-08,
        3.426601935530016e-08,
        -0.33702054619789124,
        0.941497266292572
      ],
      "scale": [
        1.0,
        1.0,
        1.0
      ],
      "translation": [
        0.0033606719225645065,
        -0.056720562279224396,
        -1.4228272959826427e-07
      ]
    },
    {
      "extras": {
        "Flags": 14,
        "ID": 42,
        "Parent ID": 30
      },
      "name": "R_headspikeMid",
      "rotation": [
        0.7537567019462585,
        0.16762450337409973,
        -0.17694473266601563,
        0.6102814674377441
      ],
      "scale": [
        1.0,
        1.0,
        1.0
      ],
      "translation": [
        0.016565512865781784,
        0.01846221834421158,
        -0.05294669419527054
      ]
    },
    {
      "extras": {
        "Flags": 14,
        "ID": 44,
        "Parent ID": 30
      },
      "name": "R_headspikeBot",
      "rotation": [
        0.9061413407325745,
        0.27806606888771057,
        -0.19042634963989258,
        0.2555873692035675
      ],
      "scale": [
        1.0,
        1.0,
        1.0
      ],
      "translation": [
        0.00707603432238102,
        0.05906325578689575,
        -0.023474058136343956
      ]
    },
    {
      "extras": {
        "Flags": 14,
        "ID": 46,
        "Parent ID": 30
      },
      "name": "L_headspikeMid",
      "rotation": [
        -0.16762468218803406,
        0.7537562847137451,
        0.6102818250656128,
        0.17694488167762756
      ],
      "scale": [
        1.0,
        1.0,
        1.0
      ],
      "translation": [
        0.01656513102352619,
        0.018462181091308594,
        0.05294635146856308
      ]
    },
    {
      "extras": {
        "Flags": 14,
        "ID": 48,
        "Parent ID": 30
      },
      "name": "L_headspikeBot",
      "rotation": [
        -0.2780661880970001,
        0.9061412811279297,
        0.25558727979660034,
        0.19042663276195526
      ],
      "scale": [
        1.0,
        1.0,
        1.0
      ],
      "translation": [
        0.007075919769704342,
        0.05906323716044426,
        0.02347378619015217
      ]
    },
    {
      "extras": {
        "Flags": 14,
        "ID": 50,
        "Parent ID": 30
      },
      "name": "C_throat2",
      "rotation": [
        -2.6645352591003757e-15,
        1.5514547688276568e-15,
        -9.947598300641403e-14,
        1.0
      ],
      "scale": [
        1.0,
        1.0,
        1.0
      ],
      "translation": [
        0.02834094874560833,
        0.014667787589132786,
        -3.165187001386016e-09
      ]
    },
    {
      "extras": {
        "Flags": 14,
        "ID": 52,
        "Parent ID": 30
      },
      "name": "C_throat3",
      "rotation": [
        -2.6645352591003757e-15,
        1.5514547688276568e-15,
        -9.947598300641403e-14,
        1.0
      ],
      "scale": [
        1.0,
        1.0,
        1.0
      ],
      "translation": [
        0.03620433807373047,
        0.014667787589132786,
        -3.165478101863073e-09
      ]
    },
    {
      "extras": {
        "Flags": 14,
        "ID": 54,
        "Parent ID": 30
      },
      "name": "L_headspikeTop",
      "rotation": [
        -0.12675191462039948,
        0.33928224444389343,
        0.8731630444526672,
        0.3262022137641907
      ],
      "scale": [
        0.9999999403953552,
        0.9999999403953552,
        0.9999999403953552
      ],
      "translation": [
        0.0031385421752929688,
        -0.029716767370700836,
        0.06287950277328491
      ]
    },
    {
      "extras": {
        "Flags": 14,
        "ID": 56,
        "Parent ID": 15
      },
      "name": "R_stumpA",
      "rotation": [
        0.6582025289535522,
        0.6582016348838806,
        -0.25839829444885254,
        0.25839963555336
      ],
      "scale": [
        1.0,
        1.0,
        1.0
      ],
      "translation": [
        -0.010828875936567783,
        0.052385590970516205,
        -0.04931476339697838
      ]
    },
    {
      "extras": {
        "Flags": 14,
        "ID": 58,
        "Parent ID": 15
      },
      "name": "L_stumpA",
      "rotation": [
        0.6582023501396179,
        -0.6582018136978149,
        -0.2583983540534973,
        -0.2583995759487152
      ],
      "scale": [
        1.0,
        1.0,
        1.0
      ],
      "translation": [
        -0.01082906685769558,
        0.052385639399290085,
        0.04931464046239853
      ]
    },
    {
      "extras": {
        "Flags": 14,
        "ID": 60,
        "Parent ID": 15
      },
      "name": "DirectAt",
      "rotation": [
        0.503351092338562,
        0.4966262876987457,
        -0.5033500790596008,
        0.4966273605823517
      ],
      "scale": [
        1.0,
        1.0,
        1.0
      ],
      "translation": [
        1.907348590179936e-08,
        -9.53674295089968e-09,
        -6.391535833927264e-08
      ]
    },
    {
      "extras": {
        "Flags": 14,
        "ID": 62,
        "Parent ID": 12
      },
      "name": "R_stumpB",
      "rotation": [
        0.6582025289535522,
        0.6582016348838806,
        -0.25839829444885254,
        0.25839963555336
      ],
      "scale": [
        1.0,
        1.0,
        1.0
      ],
      "translation": [
        0.001310758525505662,
        0.05665269121527672,
        -0.05327342078089714
      ]
    },
    {
      "extras": {
        "Flags": 14,
        "ID": 64,
        "Parent ID": 12
      },
      "name": "L_stumpB",
      "rotation": [
        0.6582023501396179,
        -0.6582018136978149,
        -0.2583983540534973,
        -0.2583995759487152
      ],
      "scale": [
        1.0,
        1.0,
        1.0
      ],
      "translation": [
        0.0013105964753776789,
        0.056652721017599106,
        0.053273335099220276
      ]
    },
    {
      "children": [
        28,
        50,
        51
      ],
      "extras": {
        "Flags": 14,
        "ID": 66,
        "Parent ID": 5
      },
      "name": "C_body",
      "rotation": [
        -0.48659956455230713,
        0.5130506157875061,
        -0.4866010844707489,
        0.5130490064620972
      ],
      "scale": [
        1.0,
        1.0,
        1.0
      ],
      "translation": [
        0.0,
        0.0,
        0.0
      ]
    },
    {
      "children": [
        29,
        48,
        49
      ],
      "extras": {
        "Flags": 14,
        "ID": 69,
        "Parent ID": 66
      },
      "name": "C_body2",
      "rotation": [
        4.9630852530399765e-24,
        2.6645356826168493e-15,
        -1.862645593320167e-09,
        1.0
      ],
      "scale": [
        0.9999998807907104,
        0.9999998807907104,
        0.9999998807907104
      ],
      "translation": [
        0.08499997854232788,
        5.7220457705398076e-08,
        -7.787808726789081e-07
      ]
    },
    {
      "children": [
        30,
        46,
        47
      ],
      "extras": {
        "Flags": 14,
        "ID": 72,
        "Parent ID": 69
      },
      "name": "C_body3",
      "rotation": [
        -4.632210483663869e-23,
        -1.7763564158837768e-15,
        3.7252889661942845e-09,
        1.0
      ],
      "scale": [
        1.000000238418579,
        1.000000238418579,
        1.000000238418579
      ],
      "translation": [
        0.08499996364116669,
        6.67572024326546e-08,
        2.276081431773491e-06
      ]
    },
    {
      "children": [
        31
      ],
      "extras": {
        "Flags": 14,
        "ID": 75,
        "Parent ID": 72
      },
      "name": "C_body4",
      "rotation": [
        4.5341516457207687e-13,
        -9.29832549445564e-06,
        5.0291429687376876e-08,
        1.0
      ],
      "scale": [
        0.9999998807907104,
        0.9999998807907104,
        0.9999998807907104
      ],
      "translation": [
        0.08499997854232788,
        6.67572024326546e-08,
        -1.7574708408574224e-06
      ]
    },
    {
      "children": [
        32
      ],
      "extras": {
        "Flags": 14,
        "ID": 78,
        "Parent ID": 75
      },
      "name": "C_body5",
      "rotation": [
        -1.0110006343211353e-07,
        7.908730367489625e-06,
        -0.017364822328090668,
        0.9998492002487183
      ],
      "scale": [
        1.0,
        1.0,
        1.0
      ],
      "translation": [
        0.08499997854232788,
        9.53674295089968e-09,
        1.3387761385597052e-11
      ]
    },
    {
      "children": [
        33
      ],
      "extras": {
        "Flags": 14,
        "ID": 81,
        "Parent ID": 78
      },
      "name": "C_body6",
      "rotation": [
        7.105427357601002e-15,
        1.4488410471358293e-14,
        -1.0294634813134204e-28,
        1.0
      ],
      "scale": [
        1.0,
        1.0,
        1.0
      ],
      "translation": [
        0.08500007539987564,
        1.907348590179936e-08,
        -3.6743585604681606e-12
      ]
    },
    {
      "children": [
        34
      ],
      "extras": {
        "Flags": 14,
        "ID": 84,
        "Parent ID": 81
      },
      "name": "C_tail",
      "rotation": [
        0.0001442978682462126,
        0.00724395178258419,
        0.0050449613481760025,
        0.9999610185623169
      ],
      "scale": [
        1.000000238418579,
        1.000000238418579,
        1.000000238418579
      ],
      "translation": [
        0.08494087308645248,
        0.003119354136288166,
        0.0005277424352243543
      ]
    },
    {
      "children": [
        35
      ],
      "extras": {
        "Flags": 14,
        "ID": 87,
        "Parent ID": 84
      },
      "name": "C_tail2",
      "rotation": [
        -0.0005579192657023668,
        -0.013113683089613914,
        0.01778724417090416,
        0.9997556209564209
      ],
      "scale": [
        1.000000238418579,
        1.000000238418579,
        1.000000238418579
      ],
      "translation": [
        0.08415175974369049,
        9.53674295089968e-09,
        -1.1102229998097382e-18
      ]
    },
    {
      "children": [
        36,
        41
      ],
      "extras": {
        "Flags": 14,
        "ID": 90,
        "Parent ID": 87
      },
      "name": "C_tail3",
      "rotation": [
        -6.730261487009059e-11,
        -5.483117293536566e-10,
        -7.450582373280668e-09,
        1.0
      ],
      "scale": [
        0.9999998807907104,
        0.9999998807907104,
        0.9999998807907104
      ],
      "translation": [
        0.08846515417098999,
        9.53674295089968e-09,
        1.7881393032936899e-09
      ]
    },
    {
      "children": [
        37
      ],
      "extras": {
        "Flags": 14,
        "ID": 93,
        "Parent ID": 90
      },
      "name": "R_tailtip",
      "rotation": [
        -0.008854917250573635,
        -0.14924949407577515,
        -0.004679716192185879,
        0.9887488484382629
      ],
      "scale": [
        1.0,
        1.0,
        1.0
      ],
      "translation": [
        0.06586044281721115,
        -0.003976783715188503,
        0.01087502297013998
      ]
    },
    {
      "children": [
        38
      ],
      "extras": {
        "Flags": 14,
        "ID": 96,
        "Parent ID": 93
      },
      "name": "R_tailtip1",
      "rotation": [
        0.0011666209902614355,
        0.034670330584049225,
        -0.020070597529411316,
        0.9991965889930725
      ],
      "scale": [
        0.9999999403953552,
        0.9999999403953552,
        0.9999999403953552
      ],
      "translation": [
        0.055671460926532745,
        -9.53674295089968e-09,
        -7.629394360719743e-08
      ]
    },
    {
      "children": [
        39
      ],
      "extras": {
        "Flags": 14,
        "ID": 99,
        "Parent ID": 96
      },
      "name": "R_tailtip2",
      "rotation": [
        0.00018758645455818623,
        0.023575905710458755,
        -0.004373837262392044,
        0.9997124671936035
      ],
      "scale": [
        1.0000001192092896,
        1.0000001192092896,
        1.0000001192092896
      ],
      "translation": [
        0.10384948551654816,
        9.53674295089968e-09,
        -3.552713599391162e-17
      ]
    },
    {
      "children": [
        40
      ],
      "extras": {
        "Flags": 14,
        "ID": 102,
        "Parent ID": 99
      },
      "name": "R_tailtip3",
      "rotation": [
        9.705126103654038e-06,
        0.044023286551237106,
        -0.0013045863015577197,
        0.9990296363830566
      ],
      "scale": [
        1.0000001192092896,
        1.0000001192092896,
        1.0000001192092896
      ],
      "translation": [
        0.17497901618480682,
        0.0,
        9.53674295089968e-09
      ]
    },
    {
      "extras": {
        "Flags": 14,
        "ID": 105,
        "Parent ID": 102
      },
      "name": "R_tailtip4",
      "rotation": [
        5.8207653974573503e-11,
        1.5836008060432505e-09,
        -1.1641532182693481e-10,
        1.0
      ],
      "scale": [
        1.0,
        1.0,
        1.0
      ],
      "translation": [
        0.14451545476913452,
        9.53674295089968e-09,
        -3.576278473360617e-08
      ]
    },
    {
      "children": [
        42
      ],
      "extras": {
        "Flags": 14,
        "ID": 107,
        "Parent ID": 90
      },
      "name": "L_tailtip",
      "rotation": [
        0.009496073238551617,
        0.1608453094959259,
        -0.004679036792367697,
        0.9869228601455688
      ],
      "scale": [
        1.0,
        1.0,
        1.0
      ],
      "translation": [
        0.065586619079113,
        -0.003960228059440851,
        -0.012424330227077007
      ]
    },
    {
      "children": [
        43
      ],
      "extras": {
        "Flags": 14,
        "ID": 110,
        "Parent ID": 107
      },
      "name": "L_tailtip1",
      "rotation": [
        -0.0011664272751659155,
        -0.03466577082872391,
        -0.020070113241672516,
        0.9991967678070068
      ],
      "scale": [
        0.9999998211860657,
        0.9999998211860657,
        0.9999998211860657
      ],
      "translation": [
        0.055671997368335724,
        9.53674295089968e-09,
        -1.907348590179936e-08
      ]
    },
    {
      "children": [
        44
      ],
      "extras": {
        "Flags": 14,
        "ID": 113,
        "Parent ID": 110
      },
      "name": "L_tailtip2",
      "rotation": [
        -0.00018743924738373607,
        -0.023572301492094994,
        -0.004372879862785339,
        0.9997125267982483
      ],
      "scale": [
        1.0,
        1.0,
        1.0
      ],
      "translation": [
        0.10384833812713623,
        9.53674295089968e-09,
        3.552713599391162e-17
      ]
    },
    {
      "children": [
        45
      ],
      "extras": {
        "Flags": 14,
        "ID": 116,
        "Parent ID": 113
      },
      "name": "L_tailtip3",
      "rotation": [
        -9.64555874816142e-06,
        -0.04402622953057289,
        -0.0013052960857748985,
        0.9990295171737671
      ],
      "scale": [
        1.0000001192092896,
        1.0000001192092896,
        1.0000001192092896
      ],
      "translation": [
        0.1749797761440277,
        -9.53674295089968e-09,
        -3.814697180359872e-08
      ]
    },
    {
      "extras": {
        "Flags": 14,
        "ID": 119,
        "Parent ID": 116
      },
      "name": "L_tailtip4",
      "rotation": [
        -2.9103830456733704e-11,
        -6.333437330141578e-09,
        2.493535956541102e-19,
        1.0
      ],
      "scale": [
        1.0,
        1.0,
        1.0
      ],
      "translation": [
        0.14451530575752258,
        9.53674295089968e-09,
        1.668930060816365e-08
      ]
    },
    {
      "extras": {
        "Flags": 14,
        "ID": 121,
        "Parent ID": 72
      },
      "name": "R_stumpE",
      "rotation": [
        0.25147274136543274,
        -0.26514407992362976,
        0.640562117099762,
        0.6753815412521362
      ],
      "scale": [
        0.9999999403953552,
        0.9999999403953552,
        0.9999999403953552
      ],
      "translation": [
        0.03578752279281616,
        0.04111749678850174,
        0.06187897548079491
      ]
    },
    {
      "extras": {
        "Flags": 14,
        "ID": 123,
        "Parent ID": 72
      },
      "name": "L_stumpE",
      "rotation": [
        -0.26514261960983276,
        -0.2514742314815521,
        -0.6753820776939392,
        0.6405615210533142
      ],
      "scale": [
        1.0,
        1.0,
        1.0
      ],
      "translation": [
        0.03578771650791168,
        0.04111749678850174,
        -0.06187877431511879
      ]
    },
    {
      "extras": {
        "Flags": 14,
        "ID": 125,
        "Parent ID": 69
      },
      "name": "R_stumpD",
      "rotation": [
        0.25147268176078796,
        -0.2651440501213074,
        0.6405621767044067,
        0.6753815412521362
      ],
      "scale": [
        1.0,
        1.0,
        1.0
      ],
      "translation": [
        0.00692264549434185,
        0.04840359091758728,
        0.05315970256924629
      ]
    },
    {
      "extras": {
        "Flags": 14,
        "ID": 127,
        "Parent ID": 69
      },
      "name": "L_stumpD",
      "rotation": [
        -0.26514261960983276,
        -0.2514742314815521,
        -0.6753821969032288,
        0.6405614614486694
      ],
      "scale": [
        0.9999999403953552,
        0.9999999403953552,
        0.9999999403953552
      ],
      "translation": [
        0.006922912318259478,
        0.04840362071990967,
        -0.0531596876680851
      ]
    },
    {
      "extras": {
        "Flags": 14,
        "ID": 129,
        "Parent ID": 66
      },
      "name": "R_stumpC",
      "rotation": [
        0.2514726221561432,
        -0.2651442587375641,
        0.6405620574951172,
        0.675381600856781
      ],
      "scale": [
        0.9999998807907104,
        0.9999998807907104,
        0.9999998807907104
      ],
      "translation": [
        0.000275869359029457,
        0.0532570444047451,
        0.05315869301557541
      ]
    },
    {
      "extras": {
        "Flags": 14,
        "ID": 131,
        "Parent ID": 66
      },
      "name": "L_stumpC",
      "rotation": [
        -0.26514261960983276,
        -0.2514742314815521,
        -0.6753820776939392,
        0.6405615210533142
      ],
      "scale": [
        0.9999998807907104,
        0.9999998807907104,
        0.9999998807907104
      ],
      "translation": [
        0.0002761304203886539,
        0.05325708165764809,
        -0.05315881222486496
      ]
    },
    {
      "extras": {
        "Flags": 14,
        "Has GPU LODs": false,
        "ID": 136,
        "Material Path": "Materials\\Actors\\ParasiteA\\ParasiteA_HeatLeech\\ParasiteA_HeatLeech.mat",
        "NiIntegerExtraData:MaterialID": 2128011891,
        "Parent ID": 3
      },
      "mesh": 0,
      "name": "ParasiteA_HeatLeech_body:0",
      "rotation": [
        1.6292068494294654e-07,
        -4.3711395392165286e-08,
        -4.371138118131057e-08,
        1.0
      ],
      "scale": [
        1.0,
        1.0,
        1.0
      ],
      "skin": 0,
      "translation": [
        0.0,
        0.0,
        0.0
      ]
    },
    {
      "extras": {
        "Flags": 14,
        "Has GPU LODs": false,
        "ID": 142,
        "Material Path": "Materials\\Actors\\ParasiteA\\ParasiteA_HeatLeech\\ParasiteA_HeatLeech.mat",
        "NiIntegerExtraData:MaterialID": 2128011891,
        "Parent ID": 3
      },
      "mesh": 1,
      "name": "ParasiteA_HeatLeech_teeth:0",
      "rotation": [
        1.6292068494294654e-07,
        -4.3711395392165286e-08,
        -4.371138118131057e-08,
        1.0
      ],
      "scale": [
        1.0,
        1.0,
        1.0
      ],
      "skin": 1,
      "translation": [
        0.0,
        0.0,
        0.0
      ]
    },
    {
      "extras": {
        "Flags": 526,
        "Has GPU LODs": false,
        "ID": 148,
        "Material Path": "Materials\\Actors\\ParasiteA\\ParasiteA_HeatLeech\\ParasiteA_HeatLeech.mat",
        "NiIntegerExtraData:MaterialID": 2128011891,
        "Parent ID": 3
      },
      "mesh": 2,
      "name": "ParasiteA_HeatLeech_beak:0",
      "rotation": [
        1.6292068494294654e-07,
        -4.3711395392165286e-08,
        -4.371138118131057e-08,
        1.0
      ],
      "scale": [
        1.0,
        1.0,
        1.0
      ],
      "skin": 2,
      "translation": [
        0.0,
        0.0,
        0.0
      ]
    },
    {
      "extras": {
        "Flags": 526,
        "Has GPU LODs": false,
        "ID": 154,
        "Material Path": "Materials\\Actors\\ParasiteA\\ParasiteA_HeatLeech\\ParasiteA_HeatLeech.mat",
        "NiIntegerExtraData:MaterialID": 2128011891,
        "Parent ID": 3
      },
      "mesh": 3,
      "name": "ParasiteA_HeatLeech_gums:0",
      "rotation": [
        1.6292068494294654e-07,
        -4.3711395392165286e-08,
        -4.371138118131057e-08,
        1.0
      ],
      "scale": [
        1.0,
        1.0,
        1.0
      ],
      "skin": 3,
      "translation": [
        0.0,
        0.0,
        0.0
      ]
    }
  ],
  "scenes": [
    {
      "name": "ExportScene",
      "nodes": [
        0
      ]
    }
  ],
  "skins": [
    {
      "inverseBindMatrices": 0,
      "joints": [
        8,
        7,
        9,
        6,
        18,
        21,
        5,
        17,
        14,
        4,
        13,
        16,
        15,
        3,
        22,
        23,
        2,
        25,
        27,
        26,
        50,
        51,
        28,
        48,
        29,
        46,
        49,
        30,
        47,
        31,
        32,
        33,
        34,
        35,
        41,
        36,
        37,
        38,
        39,
        40,
        42,
        43,
        44,
        45
      ],
      "skeleton": 1
    },
    {
      "inverseBindMatrices": 1,
      "joints": [
        9,
        20,
        19,
        10
      ],
      "skeleton": 1
    },
    {
      "inverseBindMatrices": 2,
      "joints": [
        11,
        12,
        9
      ],
      "skeleton": 1
    },
    {
      "inverseBindMatrices": 3,
      "joints": [
        9,
        12,
        11
      ],
      "skeleton": 1
    }
  ]
}
