{
  "accessors": [
    {
      "bufferView": 0,
      "componentType": 5126,
      "count": 16,
      "type": "MAT4"
    },
    {
      "bufferView": 1,
      "componentType": 5126,
      "count": 2907,
      "max": [
        0.09778130799531937,
        0.2303537130355835,
        0.17047639191150665
      ],
      "min": [
        -0.09778130799531937,
        -0.3643299639225006,
        -0.005890072323381901
      ],
      "type": "VEC3"
    },
    {
      "bufferView": 2,
      "componentType": 5126,
      "count": 2907,
      "type": "VEC3"
    },
    {
      "bufferView": 3,
      "componentType": 5126,
      "count": 2907,
      "type": "VEC4"
    },
    {
      "bufferView": 4,
      "componentType": 5126,
      "count": 2907,
      "type": "VEC2"
    },
    {
      "bufferView": 5,
      "componentType": 5126,
      "count": 2907,
      "type": "VEC4"
    },
    {
      "bufferView": 6,
      "componentType": 5126,
      "count": 2907,
      "type": "VEC4"
    },
    {
      "bufferView": 7,
      "componentType": 5123,
      "count": 2907,
      "type": "VEC4"
    },
    {
      "bufferView": 8,
      "componentType": 5123,
      "count": 2907,
      "type": "VEC4"
    },
    {
      "bufferView": 9,
      "componentType": 5123,
      "count": 12228,
      "type": "SCALAR"
    }
  ],
  "asset": {
    "generator": "NifSkope glTF 2.0 Exporter v1.2",
    "version": "2.0"
  },
  "bufferViews": [
    {
      "buffer": 0,
      "byteLength": 1024
    },
    {
      "buffer": 0,
      "byteLength": 34884,
      "byteOffset": 1024,
      "target": 34962
    },
    {
      "buffer": 0,
      "byteLength": 34884,
      "byteOffset": 35908,
      "target": 34962
    },
    {
      "buffer": 0,
      "byteLength": 46512,
      "byteOffset": 70792,
      "target": 34962
    },
    {
      "buffer": 0,
      "byteLength": 23256,
      "byteOffset": 117304,
      "target": 34962
    },
    {
      "buffer": 0,
      "byteLength": 46512,
      "byteOffset": 140560,
      "target": 34962
    },
    {
      "buffer": 0,
      "byteLength": 46512,
      "byteOffset": 187072,
      "target": 34962
    },
    {
      "buffer": 0,
      "byteLength": 23256,
      "byteOffset": 233584,
      "target": 34962
    },
    {
      "buffer": 0,
      "byteLength": 23256,
      "byteOffset": 256840,
      "target": 34962
    },
    {
      "buffer": 0,
      "byteLength": 24456,
      "byteOffset": 280096,
      "target": 34963
    }
  ],
  "buffers": [
    {
      "byteLength": 304552,
      "name": "Split Snail.bin",
      "uri": "Split Snail.bin"
    }
  ],
  "materials": [
    {
      "extras": {
        "Material Path": "Default"
      },
      "name": "Default"
    },
    {
      "extras": {
        "Material Path": "materials/actors/larvaa/larvaa_splitsnail/larvaa_splitsnail.mat"
      },
      "name": "Materials/Actors/Larvaa/Larvaa_Splitsnail/Larvaa_Splitsnail"
    }
  ],
  "meshes": [
    {
      "name": "LarvaA_SplitSnail:0",
      "primitives": [
        {
          "attributes": {
            "JOINTS_0": 7,
            "JOINTS_1": 8,
            "NORMAL": 2,
            "POSITION": 1,
            "TANGENT": 3,
            "TEXCOORD_0": 4,
            "WEIGHTS_0": 5,
            "WEIGHTS_1": 6
          },
          "indices": 9,
          "material": 1,
          "mode": 4
        }
      ]
    }
  ],
  "nodes": [
    {
      "children": [
        1,
        18
      ],
      "extras": {
        "Flags": 14,
        "ID": 3,
        "Parent ID": 0
      },
      "name": "Root",
      "rotation": [
        -0.7071067690849304,
        0.0,
        0.0,
        0.7071067690849304
      ],
      "scale": [
        1.0,
        1.0,
        1.0
      ],
      "translation": [
        0.0,
        0.0,
        -0.0
      ]
    },
    {
      "children": [
        2,
        9
      ],
      "extras": {
        "Flags": 14,
        "ID": 5,
        "Parent ID": 3
      },
      "name": "COM",
      "rotation": [
        0.0,
        0.0,
        0.0,
        1.0
      ],
      "scale": [
        1.0,
        1.0,
        1.0
      ],
      "translation": [
        0.0,
        -0.0002683830098249018,
        0.046907100826501846
      ]
    },
    {
      "children": [
        3
      ],
      "extras": {
        "Flags": 14,
        "ID": 7,
        "Parent ID": 5
      },
      "name": "C_Spine7",
      "rotation": [
        0.4991283714771271,
        0.5008478760719299,
        0.4991522431373596,
        0.5008686184883118
      ],
      "scale": [
        1.0,
        1.0,
        1.0
      ],
      "translation": [
        -1.077651972991589e-06,
        0.014603838324546814,
        -0.005301303695887327
      ]
    },
    {
      "children": [
        4
      ],
      "extras": {
        "Flags": 14,
        "ID": 11,
        "Parent ID": 7
      },
      "name": "C_Spine8",
      "rotation": [
        -6.428555025195237e-06,
        7.698743047512835e-07,
        -0.01196689810603857,
        0.9999284148216248
      ],
      "scale": [
        1.0,
        1.0,
        1.0
      ],
      "translation": [
        0.042522259056568146,
        1.4305113893442467e-07,
        2.5758636112982458e-08
      ]
    },
    {
      "children": [
        5
      ],
      "extras": {
        "Flags": 14,
        "ID": 14,
        "Parent ID": 11
      },
      "name": "C_Spine9",
      "rotation": [
        -1.0989127986249514e-05,
        -1.7714295097448485e-07,
        -0.048987094312906265,
        0.9987993836402893
      ],
      "scale": [
        1.0000009536743164,
        1.0000009536743164,
        1.0000009536743164
      ],
      "translation": [
        0.04263671860098839,
        -7.152556946721234e-08,
        1.480279010479535e-08
      ]
    },
    {
      "children": [
        6
      ],
      "extras": {
        "Flags": 14,
        "ID": 17,
        "Parent ID": 14
      },
      "name": "C_Neck",
      "rotation": [
        -1.0484896847628988e-05,
        -4.1556546648280346e-07,
        0.016889767721295357,
        0.9998573660850525
      ],
      "scale": [
        1.0,
        1.0,
        1.0
      ],
      "translation": [
        0.03798409551382065,
        -4.76837147544984e-09,
        3.222492495069673e-08
      ]
    },
    {
      "children": [
        7,
        8
      ],
      "extras": {
        "Flags": 14,
        "ID": 20,
        "Parent ID": 17
      },
      "name": "C_Head",
      "rotation": [
        -6.675618806184502e-06,
        -2.4120564035001735e-07,
        0.00041763120680116117,
        0.9999998807907104
      ],
      "scale": [
        1.0,
        1.0,
        1.0
      ],
      "translation": [
        0.03633534535765648,
        -1.8596648487800849e-07,
        1.7231796434202806e-08
      ]
    },
    {
      "extras": {
        "Flags": 14,
        "ID": 22,
        "Parent ID": 20
      },
      "name": "L_Mouth1",
      "rotation": [
        0.9628473520278931,
        -0.20788045227527618,
        0.1684752106666565,
        -0.03642578423023224
      ],
      "scale": [
        1.0000009536743164,
        1.0000009536743164,
        1.0000009536743164
      ],
      "translation": [
        -0.005650329403579235,
        0.012481278739869595,
        -0.03603390231728554
      ]
    },
    {
      "extras": {
        "Flags": 14,
        "ID": 24,
        "Parent ID": 20
      },
      "name": "R_Mouth1",
      "rotation": [
        -0.036317020654678345,
        0.16850145161151886,
        -0.20786140859127045,
        0.9628509283065796
      ],
      "scale": [
        1.0000009536743164,
        1.0000009536743164,
        1.0000009536743164
      ],
      "translation": [
        -0.005650138948112726,
        0.012473025359213352,
        0.03603862226009369
      ]
    },
    {
      "children": [
        10
      ],
      "extras": {
        "Flags": 14,
        "ID": 26,
        "Parent ID": 5
      },
      "name": "C_Spine6",
      "rotation": [
        0.5111488103866577,
        0.4885760247707367,
        0.5111712217330933,
        0.48859429359436035
      ],
      "scale": [
        0.9999989867210388,
        0.9999989867210388,
        0.9999989867210388
      ],
      "translation": [
        -8.916854881135805e-07,
        -0.029379967600107193,
        -0.007288503460586071
      ]
    },
    {
      "children": [
        11
      ],
      "extras": {
        "Flags": 14,
        "ID": 29,
        "Parent ID": 26
      },
      "name": "C_Spine5",
      "rotation": [
        6.677274086541729e-06,
        -1.9003377360604645e-07,
        0.007246995344758034,
        0.999973714351654
      ],
      "scale": [
        1.0,
        1.0,
        1.0
      ],
      "translation": [
        -0.04358302056789398,
        -0.000631790142506361,
        -3.201072118486081e-08
      ]
    },
    {
      "children": [
        12
      ],
      "extras": {
        "Flags": 14,
        "ID": 32,
        "Parent ID": 29
      },
      "name": "C_Spine4",
      "rotation": [
        5.7146739891322795e-06,
        -5.582995754593867e-07,
        -0.014245026744902134,
        0.9998985528945923
      ],
      "scale": [
        1.0,
        1.0,
        1.0
      ],
      "translation": [
        -0.03707859292626381,
        0.001056623412296176,
        -3.647699386988279e-08
      ]
    },
    {
      "children": [
        13
      ],
      "extras": {
        "Flags": 14,
        "ID": 35,
        "Parent ID": 32
      },
      "name": "C_Spine3",
      "rotation": [
        2.612200660223607e-06,
        4.874087267126015e-07,
        0.02273130789399147,
        0.9997416138648987
      ],
      "scale": [
        1.0,
        1.0,
        1.0
      ],
      "translation": [
        -0.04064035415649414,
        -0.0018489884678274393,
        -5.275942349669549e-09
      ]
    },
    {
      "children": [
        14
      ],
      "extras": {
        "Flags": 14,
        "ID": 38,
        "Parent ID": 35
      },
      "name": "C_Spine2",
      "rotation": [
        1.649993237151648e-06,
        -7.579182010886143e-07,
        -0.025704413652420044,
        0.99966961145401
      ],
      "scale": [
        1.0000009536743164,
        1.0000009536743164,
        1.0000009536743164
      ],
      "translation": [
        -0.04090796411037445,
        0.0021051119547337294,
        -3.580287710747143e-08
      ]
    },
    {
      "children": [
        15
      ],
      "extras": {
        "Flags": 14,
        "ID": 41,
        "Parent ID": 38
      },
      "name": "C_Spine1",
      "rotation": [
        2.6274758511135587e-06,
        -1.7682577890809625e-07,
        0.0234603863209486,
        0.9997247457504272
      ],
      "scale": [
        1.0,
        1.0,
        1.0
      ],
      "translation": [
        -0.04293748736381531,
        -0.0020163224544376135,
        -4.6595157954243405e-08
      ]
    },
    {
      "children": [
        16
      ],
      "extras": {
        "Flags": 14,
        "ID": 44,
        "Parent ID": 41
      },
      "name": "C_Spine",
      "rotation": [
        1.976338580789161e-06,
        -4.3630925006254984e-07,
        0.020553210750222206,
        0.999788761138916
      ],
      "scale": [
        0.9999989867210388,
        0.9999989867210388,
        0.9999989867210388
      ],
      "translation": [
        -0.041053447872400284,
        -0.0016885948134586215,
        -1.1444098646506973e-07
      ]
    },
    {
      "children": [
        17
      ],
      "extras": {
        "Flags": 14,
        "ID": 47,
        "Parent ID": 44
      },
      "name": "C_hips",
      "rotation": [
        -2.0328159280325053e-06,
        1.1877687029482331e-06,
        0.9999977350234985,
        -0.002128560096025467
      ],
      "scale": [
        1.0000009536743164,
        1.0000009536743164,
        1.0000009536743164
      ],
      "translation": [
        1.907348590179936e-08,
        -1.907348590179936e-08,
        -2.38418573772492e-09
      ]
    },
    {
      "extras": {
        "Flags": 14,
        "ID": 50,
        "Parent ID": 47
      },
      "name": "C_hips1",
      "rotation": [
        -4.7489018584201403e-07,
        5.4077872846391983e-08,
        -0.04483245685696602,
        0.9989945292472839
      ],
      "scale": [
        1.0000020265579224,
        1.0000020265579224,
        1.0000020265579224
      ],
      "translation": [
        0.038613203912973404,
        -3.33786012163273e-08,
        2.4703403767034615e-08
      ]
    },
    {
      "extras": {
        "Flags": 526,
        "Has GPU LODs": false,
        "ID": 56,
        "Material Path": "Materials\\Actors\\LarvaA\\LarvaA_SplitSnail\\LarvaA_SplitSnail.mat",
        "NiIntegerExtraData:MaterialID": -1845827418,
        "Parent ID": 3
      },
      "mesh": 0,
      "name": "LarvaA_SplitSnail:0",
      "rotation": [
        0.0,
        0.0,
        0.0,
        1.0
      ],
      "scale": [
        1.0,
        1.0,
        1.0
      ],
      "skin": 0,
      "translation": [
        0.0,
        0.0,
        0.0
      ]
    }
  ],
  "scenes": [
    {
      "name": "ExportScene",
      "nodes": [
        0
      ]
    }
  ],
  "skins": [
    {
      "inverseBindMatrices": 0,
      "joints": [
        3,
        4,
        2,
        9,
        10,
        11,
        12,
        5,
        7,
        13,
        14,
        16,
        17,
        6,
        8,
        15
      ],
      "skeleton": 1
    }
  ]
}
