{
  "accessors": [
    {
      "bufferView": 0,
      "componentType": 5126,
      "count": 58,
      "type": "MAT4"
    },
    {
      "bufferView": 1,
      "componentType": 5126,
      "count": 15349,
      "max": [
        0.4741355776786804,
        1.5657216310501099,
        1.2952055931091309
      ],
      "min": [
        -0.4741355776786804,
        -4.301888942718506,
        -0.010498367249965668
      ],
      "type": "VEC3"
    },
    {
      "bufferView": 2,
      "componentType": 5126,
      "count": 15349,
      "type": "VEC3"
    },
    {
      "bufferView": 3,
      "componentType": 5126,
      "count": 15349,
      "type": "VEC4"
    },
    {
      "bufferView": 4,
      "componentType": 5126,
      "count": 15349,
      "type": "VEC2"
    },
    {
      "bufferView": 5,
      "componentType": 5126,
      "count": 15349,
      "type": "VEC4"
    },
    {
      "bufferView": 6,
      "componentType": 5126,
      "count": 15349,
      "type": "VEC4"
    },
    {
      "bufferView": 7,
      "componentType": 5123,
      "count": 15349,
      "type": "VEC4"
    },
    {
      "bufferView": 8,
      "componentType": 5123,
      "count": 15349,
      "type": "VEC4"
    },
    {
      "bufferView": 9,
      "componentType": 5123,
      "count": 72840,
      "type": "SCALAR"
    }
  ],
  "asset": {
    "generator": "NifSkope glTF 2.0 Exporter v1.2",
    "version": "2.0"
  },
  "bufferViews": [
    {
      "buffer": 0,
      "byteLength": 3712
    },
    {
      "buffer": 0,
      "byteLength": 184188,
      "byteOffset": 3712,
      "target": 34962
    },
    {
      "buffer": 0,
      "byteLength": 184188,
      "byteOffset": 187900,
      "target": 34962
    },
    {
      "buffer": 0,
      "byteLength": 245584,
      "byteOffset": 372088,
      "target": 34962
    },
    {
      "buffer": 0,
      "byteLength": 122792,
      "byteOffset": 617672,
      "target": 34962
    },
    {
      "buffer": 0,
      "byteLength": 245584,
      "byteOffset": 740464,
      "target": 34962
    },
    {
      "buffer": 0,
      "byteLength": 245584,
      "byteOffset": 986048,
      "target": 34962
    },
    {
      "buffer": 0,
      "byteLength": 122792,
      "byteOffset": 1231632,
      "target": 34962
    },
    {
      "buffer": 0,
      "byteLength": 122792,
      "byteOffset": 1354424,
      "target": 34962
    },
    {
      "buffer": 0,
      "byteLength": 145680,
      "byteOffset": 1477216,
      "target": 34963
    }
  ],
  "buffers": [
    {
      "byteLength": 1622896,
      "name": "Anteater.bin",
      "uri": "Anteater.bin"
    }
  ],
  "materials": [
    {
      "extras": {
        "Material Path": "Default"
      },
      "name": "Default"
    },
    {
      "extras": {
        "Material Path": "materials/actors/quadrupedc/quadrupedc_anteater/quadrupedc_anteater.mat"
      },
      "name": "Materials/Actors/Quadrupedc/Quadrupedc_Anteater/Quadrupedc_Anteater"
    }
  ],
  "meshes": [
    {
      "name": "QuadrupedC_Anteater:0",
      "primitives": [
        {
          "attributes": {
            "JOINTS_0": 7,
            "JOINTS_1": 8,
            "NORMAL": 2,
            "POSITION": 1,
            "TANGENT": 3,
            "TEXCOORD_0": 4,
            "WEIGHTS_0": 5,
            "WEIGHTS_1": 6
          },
          "indices": 9,
          "material": 1,
          "mode": 4
        }
      ]
    }
  ],
  "nodes": [
    {
      "children": [
        1,
        83
      ],
      "extras": {
        "Flags": 14,
        "ID": 4,
        "Parent ID": 0
      },
      "name": "Root",
      "rotation": [
        -0.7071067690849304,
        0.0,
        0.0,
        0.7071067690849304
      ],
      "scale": [
        1.0,
        1.0,
        1.0
      ],
      "translation": [
        0.0,
        0.0,
        -0.0
      ]
    },
    {
      "children": [
        2,
        40
      ],
      "extras": {
        "Flags": 14,
        "ID": 6,
        "Parent ID": 4
      },
      "name": "COM",
      "rotation": [
        0.0,
        0.0,
        0.0,
        1.0
      ],
      "scale": [
        1.0,
        1.0,
        1.0
      ],
      "translation": [
        -3.9321099620792666e-07,
        -1.2975437641143799,
        0.6617069840431213
      ]
    },
    {
      "children": [
        3,
        18,
        29
      ],
      "extras": {
        "Flags": 14,
        "ID": 10,
        "Parent ID": 6
      },
      "name": "C_hips",
      "rotation": [
        -0.4842119514942169,
        0.5153046250343323,
        -0.4835198223590851,
        0.5159539580345154
      ],
      "scale": [
        1.0,
        1.0,
        1.0
      ],
      "translation": [
        -1.0986695928028034e-11,
        -1.0070800271932967e-05,
        0.0
      ]
    },
    {
      "children": [
        4,
        17
      ],
      "extras": {
        "Flags": 14,
        "ID": 13,
        "Parent ID": 10
      },
      "name": "C_Tail1",
      "rotation": [
        0.00011236334103159606,
        0.0015420379349961877,
        0.00920052919536829,
        0.999956488609314
      ],
      "scale": [
        1.0,
        1.0,
        1.0
      ],
      "translation": [
        0.4251452684402466,
        -1.4210854397564648e-16,
        1.490116086078075e-10
      ]
    },
    {
      "children": [
        5,
        16
      ],
      "extras": {
        "Flags": 14,
        "ID": 16,
        "Parent ID": 13
      },
      "name": "C_Tail2",
      "rotation": [
        2.8748781915055588e-05,
        -0.002000140957534313,
        0.030339522287249565,
        0.9995376467704773
      ],
      "scale": [
        1.0,
        1.0,
        1.0
      ],
      "translation": [
        0.3275456130504608,
        0.0,
        -2.98023217215615e-10
      ]
    },
    {
      "children": [
        6,
        15
      ],
      "extras": {
        "Flags": 14,
        "ID": 19,
        "Parent ID": 16
      },
      "name": "C_Tail3",
      "rotation": [
        -9.861926628218498e-06,
        7.633888890268281e-05,
        -0.011364469304680824,
        0.9999353885650635
      ],
      "scale": [
        1.0,
        1.0,
        1.0
      ],
      "translation": [
        0.34159865975379944,
        -1.4210854397564648e-16,
        -1.19209286886246e-09
      ]
    },
    {
      "children": [
        7,
        14
      ],
      "extras": {
        "Flags": 14,
        "ID": 22,
        "Parent ID": 19
      },
      "name": "C_Tail4",
      "rotation": [
        -4.4694192183669657e-05,
        0.00015505430928897113,
        -0.003906231140717864,
        0.9999923706054688
      ],
      "scale": [
        1.0,
        1.0,
        1.0
      ],
      "translation": [
        0.374673455953598,
        -1.5258788721439487e-07,
        -2.98023217215615e-10
      ]
    },
    {
      "children": [
        8,
        13
      ],
      "extras": {
        "Flags": 14,
        "ID": 25,
        "Parent ID": 22
      },
      "name": "C_Tail5",
      "rotation": [
        0.00022530088608618826,
        -0.000514537503477186,
        -0.004345283843576908,
        0.9999904036521912
      ],
      "scale": [
        1.0,
        1.0,
        1.0
      ],
      "translation": [
        0.35902130603790283,
        -1.5258788721439487e-07,
        5.9604643443123e-10
      ]
    },
    {
      "children": [
        9,
        12
      ],
      "extras": {
        "Flags": 14,
        "ID": 28,
        "Parent ID": 25
      },
      "name": "C_Tail6",
      "rotation": [
        8.72221717145294e-05,
        -0.0001506875123595819,
        -0.002807358978316188,
        0.9999960064888
      ],
      "scale": [
        1.0,
        1.0,
        1.0
      ],
      "translation": [
        0.3369903564453125,
        4.577636616431846e-07,
        5.9604643443123e-10
      ]
    },
    {
      "children": [
        10,
        11
      ],
      "extras": {
        "Flags": 14,
        "ID": 31,
        "Parent ID": 28
      },
      "name": "C_Tail7",
      "rotation": [
        -0.0001192861091112718,
        0.00016525322280358523,
        -0.0024227940011769533,
        0.9999970197677612
      ],
      "scale": [
        1.0,
        1.0,
        1.0
      ],
      "translation": [
        0.3463275134563446,
        1.5258788721439487e-07,
        0.0
      ]
    },
    {
      "extras": {
        "Flags": 14,
        "ID": 34,
        "Parent ID": 31
      },
      "name": "C_Tail8",
      "rotation": [
        0.000184267497388646,
        -0.00022234738571569324,
        0.0033694999292492867,
        0.9999942779541016
      ],
      "scale": [
        1.0,
        1.0,
        1.0
      ],
      "translation": [
        0.27809080481529236,
        7.629394360719743e-08,
        -3.5762786065873797e-09
      ]
    },
    {
      "extras": {
        "Flags": 14,
        "ID": 36,
        "Parent ID": 31
      },
      "name": "C_BackfinL",
      "rotation": [
        -0.0011799178319051862,
        0.0007350815576501191,
        -0.719448447227478,
        0.6945444345474243
      ],
      "scale": [
        1.0,
        1.0,
        1.0
      ],
      "translation": [
        0.018838806077837944,
        -0.13863776624202728,
        -0.004215039312839508
      ]
    },
    {
      "extras": {
        "Flags": 14,
        "ID": 38,
        "Parent ID": 28
      },
      "name": "C_BackfinK",
      "rotation": [
        -0.0013807674404233694,
        0.0007679161499254405,
        -0.7211290597915649,
        0.6927989721298218
      ],
      "scale": [
        1.0,
        1.0,
        1.0
      ],
      "translation": [
        0.031962890177965164,
        -0.24354194104671478,
        -0.0030655956361442804
      ]
    },
    {
      "extras": {
        "Flags": 14,
        "ID": 41,
        "Parent ID": 25
      },
      "name": "C_BackfinJ",
      "rotation": [
        -0.00121035345364362,
        0.0007311775698326528,
        -0.7230713367462158,
        0.6907719373703003
      ],
      "scale": [
        1.0,
        1.0,
        1.0
      ],
      "translation": [
        0.014542846009135246,
        -0.2913270592689514,
        -0.002072207862511277
      ]
    },
    {
      "extras": {
        "Flags": 14,
        "ID": 44,
        "Parent ID": 22
      },
      "name": "C_BackfinI",
      "rotation": [
        -0.0006803878350183368,
        0.000544860668014735,
        -0.7260664105415344,
        0.6876240968704224
      ],
      "scale": [
        1.0,
        1.0,
        1.0
      ],
      "translation": [
        0.005617370363324881,
        -0.31265249848365784,
        -0.0015293919714167714
      ]
    },
    {
      "extras": {
        "Flags": 14,
        "ID": 47,
        "Parent ID": 19
      },
      "name": "C_BackfinH",
      "rotation": [
        -0.0008224933408200741,
        0.0006225282559171319,
        -0.728746771812439,
        0.6847825050354004
      ],
      "scale": [
        1.0,
        1.0,
        1.0
      ],
      "translation": [
        -0.011363677680492401,
        -0.32773247361183167,
        -0.0006779927061870694
      ]
    },
    {
      "extras": {
        "Flags": 14,
        "ID": 50,
        "Parent ID": 16
      },
      "name": "C_BackfinG",
      "rotation": [
        -0.0008783774683251977,
        0.0006777754169888794,
        -0.7364819645881653,
        0.6764562726020813
      ],
      "scale": [
        1.0,
        1.0,
        1.0
      ],
      "translation": [
        -0.024218901991844177,
        -0.301707923412323,
        0.00011295556760160252
      ]
    },
    {
      "extras": {
        "Flags": 14,
        "ID": 53,
        "Parent ID": 13
      },
      "name": "C_BackfinF",
      "rotation": [
        0.0005933166830800474,
        -0.0006804275908507407,
        -0.7156197428703308,
        0.6984894871711731
      ],
      "scale": [
        1.0,
        1.0,
        1.0
      ],
      "translation": [
        -0.025331726297736168,
        -0.3018434941768646,
        -0.0005699917674064636
      ]
    },
    {
      "children": [
        19
      ],
      "extras": {
        "Flags": 14,
        "ID": 56,
        "Parent ID": 10
      },
      "name": "L_Hip",
      "rotation": [
        0.526071310043335,
        0.47981753945350647,
        -0.505163848400116,
        0.4876818060874939
      ],
      "scale": [
        1.0,
        1.0,
        1.0
      ],
      "translation": [
        -0.018708037212491035,
        -0.007880859076976776,
        -0.10358418524265289
      ]
    },
    {
      "children": [
        20,
        27
      ],
      "extras": {
        "Flags": 14,
        "ID": 59,
        "Parent ID": 56
      },
      "name": "L_BackFemur",
      "rotation": [
        -0.056579530239105225,
        0.6432162523269653,
        0.040407631546258926,
        0.7625213861465454
      ],
      "scale": [
        1.0,
        1.0,
        1.0
      ],
      "translation": [
        0.19617284834384918,
        7.629394360719743e-08,
        -3.8146970382513246e-07
      ]
    },
    {
      "children": [
        21
      ],
      "extras": {
        "Flags": 14,
        "ID": 62,
        "Parent ID": 59
      },
      "name": "L_BackTibia",
      "rotation": [
        1.0789780624520517e-08,
        1.2693951667586134e-08,
        0.3918652832508087,
        0.9200226068496704
      ],
      "scale": [
        1.0,
        1.0,
        1.0
      ],
      "translation": [
        0.3152402341365814,
        4.577636616431846e-07,
        -1.5258788721439487e-07
      ]
    },
    {
      "children": [
        22,
        26
      ],
      "extras": {
        "Flags": 14,
        "ID": 65,
        "Parent ID": 62
      },
      "name": "L_BackAnkle",
      "rotation": [
        0.07792401313781738,
        0.06091875955462456,
        -0.6158608198165894,
        0.781621515750885
      ],
      "scale": [
        1.0,
        1.0,
        1.0
      ],
      "translation": [
        0.25224098563194275,
        7.629394360719743e-08,
        7.629394360719743e-08
      ]
    },
    {
      "children": [
        23,
        24,
        25
      ],
      "extras": {
        "Flags": 14,
        "ID": 68,
        "Parent ID": 65
      },
      "name": "L_BackToe",
      "rotation": [
        0.001712340977974236,
        0.016526294872164726,
        -0.45613476634025574,
        0.8897556066513062
      ],
      "scale": [
        1.0,
        1.0,
        1.0
      ],
      "translation": [
        0.17386527359485626,
        -7.629394360719743e-08,
        0.0
      ]
    },
    {
      "extras": {
        "Flags": 14,
        "ID": 70,
        "Parent ID": 68
      },
      "name": "L_BackToeCenter",
      "rotation": [
        0.028665030375123024,
        0.9995890855789185,
        -4.369334050124962e-08,
        -1.3260568199058298e-09
      ],
      "scale": [
        1.0,
        1.0,
        1.0
      ],
      "translation": [
        0.05862533301115036,
        0.0066489363089203835,
        3.814697180359872e-08
      ]
    },
    {
      "extras": {
        "Flags": 14,
        "ID": 72,
        "Parent ID": 68
      },
      "name": "L_BackToeInner",
      "rotation": [
        2.031334085314529e-12,
        0.11681069433689117,
        -2.389171217635766e-13,
        0.9931542277336121
      ],
      "scale": [
        1.0,
        1.0,
        1.0
      ],
      "translation": [
        0.0011724852956831455,
        0.0059126755222678185,
        -0.0637480691075325
      ]
    },
    {
      "extras": {
        "Flags": 14,
        "ID": 74,
        "Parent ID": 68
      },
      "name": "L_BackToeInner1",
      "rotation": [
        2.064250896952058e-12,
        -0.1545737087726593,
        3.22960489731669e-13,
        0.9879812598228455
      ],
      "scale": [
        1.0,
        1.0,
        1.0
      ],
      "translation": [
        -0.0004116821219213307,
        0.005912680644541979,
        0.04876308515667915
      ]
    },
    {
      "extras": {
        "Flags": 14,
        "ID": 76,
        "Parent ID": 65
      },
      "name": "L_OutterBackToe1",
      "rotation": [
        -0.31908994913101196,
        -0.3080762028694153,
        -0.20335933566093445,
        0.8728777766227722
      ],
      "scale": [
        1.0,
        1.0,
        1.0
      ],
      "translation": [
        0.0589238740503788,
        0.052707135677337646,
        0.0641726702451706
      ]
    },
    {
      "children": [
        28
      ],
      "extras": {
        "Flags": 14,
        "ID": 78,
        "Parent ID": 59
      },
      "name": "L_BackLegUpperTwist1",
      "rotation": [
        -1.001362548436191e-08,
        1.8477442154107848e-06,
        1.031905526360788e-06,
        1.0
      ],
      "scale": [
        1.0,
        1.0,
        1.0
      ],
      "translation": [
        0.0,
        0.0,
        0.0
      ]
    },
    {
      "extras": {
        "Flags": 14,
        "ID": 80,
        "Parent ID": 78
      },
      "name": "L_BackLegUpperTwist2",
      "rotation": [
        0.0375979021191597,
        1.6781023077783175e-06,
        -1.5710837715232628e-06,
        0.9992929697036743
      ],
      "scale": [
        1.0,
        1.0,
        1.0
      ],
      "translation": [
        0.18188968300819397,
        4.348754828242818e-06,
        -5.340576194612368e-07
      ]
    },
    {
      "children": [
        30
      ],
      "extras": {
        "Flags": 14,
        "ID": 82,
        "Parent ID": 10
      },
      "name": "R_Hip",
      "rotation": [
        -0.47912153601646423,
        0.5267052054405212,
        0.48836973309516907,
        0.5044988989830017
      ],
      "scale": [
        1.0,
        1.0,
        1.0
      ],
      "translation": [
        -0.018433531746268272,
        -0.0078984834253788,
        0.10363248735666275
      ]
    },
    {
      "children": [
        31,
        38
      ],
      "extras": {
        "Flags": 14,
        "ID": 85,
        "Parent ID": 82
      },
      "name": "R_BackFemur",
      "rotation": [
        -0.0565793439745903,
        0.6432162523269653,
        0.04040747135877609,
        0.7625213861465454
      ],
      "scale": [
        1.0,
        1.0,
        1.0
      ],
      "translation": [
        -0.1961727887392044,
        -6.9427487687789835e-06,
        -6.866454782539222e-07
      ]
    },
    {
      "children": [
        32
      ],
      "extras": {
        "Flags": 14,
        "ID": 88,
        "Parent ID": 85
      },
      "name": "R_BackTibia",
      "rotation": [
        4.887164450906312e-09,
        -1.9675392426421467e-09,
        0.39186522364616394,
        0.9200226068496704
      ],
      "scale": [
        1.0,
        1.0,
        1.0
      ],
      "translation": [
        -0.31524109840393066,
        7.019042641331907e-06,
        6.103515488575795e-07
      ]
    },
    {
      "children": [
        33,
        37
      ],
      "extras": {
        "Flags": 14,
        "ID": 91,
        "Parent ID": 88
      },
      "name": "R_BackAnkle",
      "rotation": [
        0.07792399823665619,
        0.06091877445578575,
        -0.6158608198165894,
        0.781621515750885
      ],
      "scale": [
        1.0,
        1.0,
        1.0
      ],
      "translation": [
        -0.25224578380584717,
        -4.5776364459015895e-06,
        -1.2588500339916209e-06
      ]
    },
    {
      "children": [
        34,
        35,
        36
      ],
      "extras": {
        "Flags": 14,
        "ID": 94,
        "Parent ID": 91
      },
      "name": "R_BackToe",
      "rotation": [
        0.0017123357392847538,
        0.01652628742158413,
        -0.45613473653793335,
        0.8897556066513062
      ],
      "scale": [
        1.0,
        1.0,
        1.0
      ],
      "translation": [
        -0.1738654226064682,
        1.6021728015402914e-06,
        8.392333938900265e-07
      ]
    },
    {
      "extras": {
        "Flags": 14,
        "ID": 96,
        "Parent ID": 94
      },
      "name": "R_BackToeCenter",
      "rotation": [
        0.028665028512477875,
        0.9995890855789185,
        -4.369465500531078e-08,
        -1.3777049501229044e-09
      ],
      "scale": [
        1.0,
        1.0,
        1.0
      ],
      "translation": [
        -0.05862975865602493,
        -0.006648645270615816,
        -4.577636616431846e-07
      ]
    },
    {
      "extras": {
        "Flags": 14,
        "ID": 98,
        "Parent ID": 94
      },
      "name": "R_BackToeInner",
      "rotation": [
        8.70571670308351e-12,
        0.11681069433689117,
        -1.02393039793508e-12,
        0.9931542277336121
      ],
      "scale": [
        1.0,
        1.0,
        1.0
      ],
      "translation": [
        -0.0011744690127670765,
        -0.005912494380027056,
        0.06374771147966385
      ]
    },
    {
      "extras": {
        "Flags": 14,
        "ID": 100,
        "Parent ID": 94
      },
      "name": "R_BackToeInner1",
      "rotation": [
        -1.2006118321750137e-09,
        -0.15457367897033691,
        -7.729055617744507e-09,
        0.9879812598228455
      ],
      "scale": [
        1.0,
        1.0,
        1.0
      ],
      "translation": [
        0.0004109191941097379,
        -0.005912628024816513,
        -0.04876350238919258
      ]
    },
    {
      "extras": {
        "Flags": 14,
        "ID": 102,
        "Parent ID": 91
      },
      "name": "R_OutterBackToe1",
      "rotation": [
        -0.31908997893333435,
        -0.3080762028694153,
        -0.20335932075977325,
        0.8728777766227722
      ],
      "scale": [
        1.0,
        1.0,
        1.0
      ],
      "translation": [
        -0.05892539769411087,
        -0.05270446836948395,
        -0.06417247653007507
      ]
    },
    {
      "children": [
        39
      ],
      "extras": {
        "Flags": 14,
        "ID": 104,
        "Parent ID": 85
      },
      "name": "R_BackLegUpperTwist1",
      "rotation": [
        1.792609971573711e-08,
        1.8104915397998411e-06,
        1.0300429948983947e-06,
        1.0
      ],
      "scale": [
        1.0,
        1.0,
        1.0
      ],
      "translation": [
        0.0,
        0.0,
        0.0
      ]
    },
    {
      "extras": {
        "Flags": 14,
        "ID": 106,
        "Parent ID": 104
      },
      "name": "R_BackLegUpperTwist2",
      "rotation": [
        0.0375978983938694,
        1.6930630408751313e-06,
        -1.5697827393523767e-06,
        0.9992929697036743
      ],
      "scale": [
        1.0,
        1.0,
        1.0
      ],
      "translation": [
        -0.1818905919790268,
        4.425048700795742e-06,
        1.2588500339916209e-06
      ]
    },
    {
      "children": [
        41,
        80
      ],
      "extras": {
        "Flags": 14,
        "ID": 108,
        "Parent ID": 6
      },
      "name": "C_spine",
      "rotation": [
        -0.47836366295814514,
        -0.5207362771034241,
        0.4783625304698944,
        0.5207409262657166
      ],
      "scale": [
        1.0,
        1.0,
        1.0
      ],
      "translation": [
        4.074536281289953e-12,
        -1.0070800271932967e-05,
        0.0
      ]
    },
    {
      "children": [
        42,
        77
      ],
      "extras": {
        "Flags": 14,
        "ID": 111,
        "Parent ID": 108
      },
      "name": "C_spine2",
      "rotation": [
        7.438387683578185e-10,
        -4.291767254471779e-06,
        -0.01024848222732544,
        0.9999474883079529
      ],
      "scale": [
        1.0000009536743164,
        1.0000009536743164,
        1.0000009536743164
      ],
      "translation": [
        0.3293062448501587,
        7.629394360719743e-08,
        2.9103828722010228e-12
      ]
    },
    {
      "children": [
        43,
        74
      ],
      "extras": {
        "Flags": 14,
        "ID": 114,
        "Parent ID": 111
      },
      "name": "C_spine3",
      "rotation": [
        8.51700789894494e-08,
        3.6527071642922238e-06,
        -0.023310700431466103,
        0.999728262424469
      ],
      "scale": [
        1.0,
        1.0,
        1.0
      ],
      "translation": [
        0.33171191811561584,
        7.629394360719743e-08,
        -1.164153192248496e-12
      ]
    },
    {
      "children": [
        44,
        51,
        53,
        54,
        64
      ],
      "extras": {
        "Flags": 14,
        "ID": 117,
        "Parent ID": 114
      },
      "name": "C_spine4",
      "rotation": [
        -3.815889548786089e-10,
        -1.5021448234620038e-05,
        -0.012008138000965118,
        0.9999278783798218
      ],
      "scale": [
        1.0,
        1.0,
        1.0
      ],
      "translation": [
        0.29580679535865784,
        2.8421708795129297e-16,
        -2.91038298062124e-13
      ]
    },
    {
      "children": [
        45
      ],
      "extras": {
        "Flags": 14,
        "ID": 120,
        "Parent ID": 117
      },
      "name": "C_spine5",
      "rotation": [
        1.42118182998828e-13,
        9.228885573975276e-06,
        0.01164532545953989,
        0.9999321699142456
      ],
      "scale": [
        1.0,
        1.0,
        1.0
      ],
      "translation": [
        0.22520434856414795,
        0.0,
        1.0842021482516974e-21
      ]
    },
    {
      "children": [
        46,
        50
      ],
      "extras": {
        "Flags": 14,
        "ID": 123,
        "Parent ID": 120
      },
      "name": "C_Neck1",
      "rotation": [
        -1.8169300801673671e-06,
        1.2900861293019261e-05,
        -0.044107433408498764,
        0.9990267753601074
      ],
      "scale": [
        1.0,
        1.0,
        1.0
      ],
      "translation": [
        0.16261345148086548,
        7.629394360719743e-08,
        -1.746229788372744e-12
      ]
    },
    {
      "children": [
        47
      ],
      "extras": {
        "Flags": 14,
        "ID": 126,
        "Parent ID": 123
      },
      "name": "C_Neck2",
      "rotation": [
        -2.2737367544323206e-13,
        -3.410605402699024e-13,
        1.4901161193847656e-08,
        1.0
      ],
      "scale": [
        1.0,
        1.0,
        1.0
      ],
      "translation": [
        0.19629351794719696,
        0.0,
        1.164153192248496e-12
      ]
    },
    {
      "children": [
        48,
        49
      ],
      "extras": {
        "Flags": 14,
        "ID": 129,
        "Parent ID": 126
      },
      "name": "C_Head1",
      "rotation": [
        -9.782053211893071e-07,
        -5.647886155202286e-06,
        0.12362658232450485,
        0.9923288226127625
      ],
      "scale": [
        1.0,
        1.0,
        1.0
      ],
      "translation": [
        0.16178542375564575,
        -0.05246314778923988,
        -1.4312849998532329e-06
      ]
    },
    {
      "extras": {
        "Flags": 14,
        "ID": 132,
        "Parent ID": 129
      },
      "name": "C_Jaw1",
      "rotation": [
        6.5103879318823e-13,
        -3.716673518283642e-06,
        -0.0035095023922622204,
        0.9999938607215881
      ],
      "scale": [
        1.0,
        1.0,
        1.0
      ],
      "translation": [
        0.10276447236537933,
        0.02632148750126362,
        3.535595851644757e-06
      ]
    },
    {
      "extras": {
        "Flags": 67108878,
        "ID": 224,
        "Parent ID": 129
      },
      "name": "Head_LookAt",
      "rotation": [
        0.004706673324108124,
        0.7070884704589844,
        -0.00025978629128076136,
        0.7071093320846558
      ],
      "scale": [
        1.0,
        1.0,
        1.0
      ],
      "translation": [
        0.6309229135513306,
        -0.12063262611627579,
        8.697510565980338e-06
      ]
    },
    {
      "extras": {
        "Flags": 14,
        "ID": 135,
        "Parent ID": 123
      },
      "name": "C_BackfinA",
      "rotation": [
        0.7688087224960327,
        -0.6394788026809692,
        6.758186373190256e-06,
        -6.571341600647429e-06
      ],
      "scale": [
        1.0,
        1.0,
        1.0
      ],
      "translation": [
        0.08482808619737625,
        -0.2218935340642929,
        -3.92086576539441e-06
      ]
    },
    {
      "children": [
        52
      ],
      "extras": {
        "Flags": 14,
        "ID": 137,
        "Parent ID": 117
      },
      "name": "C_BackfinB",
      "rotation": [
        0.7271470427513123,
        -0.6864817142486572,
        8.509920917276759e-06,
        -7.972110324772075e-06
      ],
      "scale": [
        1.0,
        1.0,
        1.0
      ],
      "translation": [
        0.15319791436195374,
        -0.3339138627052307,
        -1.1314768926240504e-06
      ]
    },
    {
      "extras": {
        "Flags": 14,
        "ID": 140,
        "Parent ID": 137
      },
      "name": "C_BackfinB2",
      "rotation": [
        2.557954065576795e-12,
        0.0,
        0.0,
        1.0
      ],
      "scale": [
        1.0,
        1.0,
        1.0
      ],
      "translation": [
        0.22029045224189758,
        -1.776356799695581e-17,
        -5.82076596124248e-13
      ]
    },
    {
      "extras": {
        "Flags": 14,
        "ID": 142,
        "Parent ID": 117
      },
      "name": "DirectAt",
      "rotation": [
        0.4541380703449249,
        0.5419954657554626,
        -0.45415154099464417,
        0.5419832468032837
      ],
      "scale": [
        1.0,
        1.0,
        1.0
      ],
      "translation": [
        0.0,
        0.0,
        0.0
      ]
    },
    {
      "children": [
        55
      ],
      "extras": {
        "Flags": 14,
        "ID": 144,
        "Parent ID": 117
      },
      "name": "L_FrontHip",
      "rotation": [
        0.4454452097415924,
        -0.3755922317504883,
        0.6245496869087219,
        0.5200446844100952
      ],
      "scale": [
        1.0,
        1.0,
        1.0
      ],
      "translation": [
        0.23675040900707245,
        0.03498367220163345,
        0.06396212428808212
      ]
    },
    {
      "children": [
        56,
        62
      ],
      "extras": {
        "Flags": 14,
        "ID": 147,
        "Parent ID": 144
      },
      "name": "L_Thigh",
      "rotation": [
        0.17751364409923553,
        0.520842432975769,
        0.16034166514873505,
        0.8194526433944702
      ],
      "scale": [
        1.0,
        1.0,
        1.0
      ],
      "translation": [
        0.2532567083835602,
        9.53674295089968e-09,
        -7.629394360719743e-08
      ]
    },
    {
      "children": [
        57
      ],
      "extras": {
        "Flags": 14,
        "ID": 150,
        "Parent ID": 147
      },
      "name": "L_Calf",
      "rotation": [
        2.5761137667501544e-09,
        -1.0816189055518066e-09,
        -0.3871263563632965,
        0.9220266938209534
      ],
      "scale": [
        1.0,
        1.0,
        1.0
      ],
      "translation": [
        0.2473115622997284,
        0.0,
        0.0
      ]
    },
    {
      "children": [
        58
      ],
      "extras": {
        "Flags": 14,
        "ID": 153,
        "Parent ID": 150
      },
      "name": "L_Ankle",
      "rotation": [
        -0.07148728519678116,
        -0.000440072501078248,
        -0.28587907552719116,
        0.9555953741073608
      ],
      "scale": [
        1.0,
        1.0,
        1.0
      ],
      "translation": [
        0.36289867758750916,
        -5.329070399086743e-17,
        7.105427198782324e-17
      ]
    },
    {
      "children": [
        59,
        60,
        61
      ],
      "extras": {
        "Flags": 14,
        "ID": 156,
        "Parent ID": 153
      },
      "name": "L_Foot",
      "rotation": [
        0.00030105793848633766,
        0.0008268948877230287,
        -0.31523850560188293,
        0.9490121006965637
      ],
      "scale": [
        1.0,
        1.0,
        1.0
      ],
      "translation": [
        0.13925479352474213,
        0.019251782447099686,
        5.6571960158180445e-05
      ]
    },
    {
      "extras": {
        "Flags": 14,
        "ID": 158,
        "Parent ID": 156
      },
      "name": "L_FrontToeIn",
      "rotation": [
        4.594890006676122e-12,
        0.18224383890628815,
        -8.516544132246284e-13,
        0.9832533597946167
      ],
      "scale": [
        1.0,
        1.0,
        1.0
      ],
      "translation": [
        -0.01348072849214077,
        -2.38418573772492e-09,
        -0.05528400465846062
      ]
    },
    {
      "extras": {
        "Flags": 14,
        "ID": 160,
        "Parent ID": 156
      },
      "name": "L_FrontToeOut",
      "rotation": [
        -6.23711304825747e-10,
        -0.2047683596611023,
        -2.984933855643135e-09,
        0.9788104891777039
      ],
      "scale": [
        1.0,
        1.0,
        1.0
      ],
      "translation": [
        -0.013480723835527897,
        -2.38418573772492e-09,
        0.07126796245574951
      ]
    },
    {
      "extras": {
        "Flags": 14,
        "ID": 162,
        "Parent ID": 156
      },
      "name": "L_FrontToeCenter",
      "rotation": [
        0.01714332029223442,
        0.9998530149459839,
        4.370358652749928e-08,
        7.875755048125654e-10
      ],
      "scale": [
        1.0,
        1.0,
        1.0
      ],
      "translation": [
        0.059438690543174744,
        0.002156543778255582,
        0.0
      ]
    },
    {
      "children": [
        63
      ],
      "extras": {
        "Flags": 14,
        "ID": 164,
        "Parent ID": 147
      },
      "name": "L_FrontLegUpperTwist1",
      "rotation": [
        1.97626627596037e-06,
        1.2740497368213255e-06,
        1.490091108280467e-07,
        1.0
      ],
      "scale": [
        1.0,
        1.0,
        1.0
      ],
      "translation": [
        0.0,
        0.0,
        0.0
      ]
    },
    {
      "extras": {
        "Flags": 14,
        "ID": 166,
        "Parent ID": 164
      },
      "name": "L_FrontLegUpperTwist2",
      "rotation": [
        2.173707571273553e-06,
        8.195627998475175e-08,
        -5.960483662192928e-08,
        1.0
      ],
      "scale": [
        1.0,
        1.0,
        1.0
      ],
      "translation": [
        0.14668944478034973,
        -1.7547606603329768e-06,
        8.010864007701457e-07
      ]
    },
    {
      "children": [
        65
      ],
      "extras": {
        "Flags": 14,
        "ID": 168,
        "Parent ID": 117
      },
      "name": "R_FrontHip",
      "rotation": [
        -0.37560799717903137,
        -0.44543084502220154,
        -0.5200338363647461,
        0.6245597004890442
      ],
      "scale": [
        1.0,
        1.0,
        1.0
      ],
      "translation": [
        0.236747607588768,
        0.03498329222202301,
        -0.06397451460361481
      ]
    },
    {
      "children": [
        66,
        72
      ],
      "extras": {
        "Flags": 14,
        "ID": 171,
        "Parent ID": 168
      },
      "name": "R_Thigh",
      "rotation": [
        0.17751364409923553,
        0.5208424925804138,
        0.16034157574176788,
        0.8194526433944702
      ],
      "scale": [
        1.0,
        1.0,
        1.0
      ],
      "translation": [
        -0.25325679779052734,
        -8.678435960973729e-07,
        3.8146970382513246e-07
      ]
    },
    {
      "children": [
        67
      ],
      "extras": {
        "Flags": 14,
        "ID": 174,
        "Parent ID": 171
      },
      "name": "R_Calf",
      "rotation": [
        -5.15222309260821e-09,
        2.163236034746774e-09,
        -0.3871263563632965,
        0.9220266938209534
      ],
      "scale": [
        1.0,
        1.0,
        1.0
      ],
      "translation": [
        -0.24731092154979706,
        4.1961669694501325e-07,
        -1.5258788721439487e-07
      ]
    },
    {
      "children": [
        68
      ],
      "extras": {
        "Flags": 14,
        "ID": 177,
        "Parent ID": 174
      },
      "name": "R_Ankle",
      "rotation": [
        -0.07148727774620056,
        -0.0004400491598062217,
        -0.2858792543411255,
        0.9555953145027161
      ],
      "scale": [
        1.0,
        1.0,
        1.0
      ],
      "translation": [
        -0.3628985583782196,
        2.47955313170678e-07,
        3.433227391269611e-07
      ]
    },
    {
      "children": [
        69,
        70,
        71
      ],
      "extras": {
        "Flags": 14,
        "ID": 180,
        "Parent ID": 177
      },
      "name": "R_Foot",
      "rotation": [
        0.00030105802579782903,
        0.0008268951787613332,
        -0.3152385354042053,
        0.9490121006965637
      ],
      "scale": [
        1.0,
        1.0,
        1.0
      ],
      "translation": [
        -0.13925449550151825,
        -0.01925198920071125,
        -5.6648252211743966e-05
      ]
    },
    {
      "extras": {
        "Flags": 14,
        "ID": 182,
        "Parent ID": 180
      },
      "name": "R_FrontToeIn",
      "rotation": [
        -1.8719240046927155e-10,
        0.18224386870861053,
        9.818802437777663e-10,
        0.9832533597946167
      ],
      "scale": [
        1.0,
        1.0,
        1.0
      ],
      "translation": [
        0.01348075084388256,
        6.67572024326546e-08,
        0.055283963680267334
      ]
    },
    {
      "extras": {
        "Flags": 14,
        "ID": 184,
        "Parent ID": 180
      },
      "name": "R_FrontToeOut",
      "rotation": [
        2.0269598499655928e-10,
        -0.2047683298587799,
        9.93888193967507e-10,
        0.9788104891777039
      ],
      "scale": [
        1.0,
        1.0,
        1.0
      ],
      "translation": [
        0.013480732217431068,
        5.2452087118126656e-08,
        -0.07126857340335846
      ]
    },
    {
      "extras": {
        "Flags": 14,
        "ID": 186,
        "Parent ID": 180
      },
      "name": "R_FrontToeCenter",
      "rotation": [
        0.01714331842958927,
        0.9998530149459839,
        4.3700556062731266e-08,
        1.0497903657480379e-09
      ],
      "scale": [
        1.0,
        1.0,
        1.0
      ],
      "translation": [
        -0.05943873152136803,
        -0.002156548434868455,
        -1.9073485191256623e-07
      ]
    },
    {
      "children": [
        73
      ],
      "extras": {
        "Flags": 14,
        "ID": 188,
        "Parent ID": 171
      },
      "name": "R_FrontLegUpperTwist1",
      "rotation": [
        1.9539145341695985e-06,
        1.2889511253888486e-06,
        1.7881147584830615e-07,
        1.0
      ],
      "scale": [
        1.0,
        1.0,
        1.0
      ],
      "translation": [
        0.0,
        0.0,
        0.0
      ]
    },
    {
      "extras": {
        "Flags": 14,
        "ID": 190,
        "Parent ID": 188
      },
      "name": "R_FrontLegUpperTwist2",
      "rotation": [
        2.162531018257141e-06,
        7.823099679171719e-08,
        -4.470365411179955e-08,
        1.0
      ],
      "scale": [
        1.0,
        1.0,
        1.0
      ],
      "translation": [
        -0.14668887853622437,
        1.678466787780053e-06,
        -8.773803301664884e-07
      ]
    },
    {
      "children": [
        75
      ],
      "extras": {
        "Flags": 14,
        "ID": 192,
        "Parent ID": 114
      },
      "name": "C_BackfinC",
      "rotation": [
        0.7080198526382446,
        -0.7061924934387207,
        2.0428627976798452e-05,
        -1.8455823010299355e-05
      ],
      "scale": [
        1.0,
        1.0,
        1.0
      ],
      "translation": [
        0.0716305524110794,
        -0.3628487288951874,
        1.8282784139955766e-06
      ]
    },
    {
      "children": [
        76
      ],
      "extras": {
        "Flags": 14,
        "ID": 195,
        "Parent ID": 192
      },
      "name": "C_BackfinC2",
      "rotation": [
        9.489792285322096e-10,
        -7.153554406613694e-07,
        -0.015457491390407085,
        0.9998805522918701
      ],
      "scale": [
        1.0,
        1.0,
        1.0
      ],
      "translation": [
        0.2768242657184601,
        -7.629394360719743e-08,
        -2.328306384496992e-12
      ]
    },
    {
      "extras": {
        "Flags": 14,
        "ID": 197,
        "Parent ID": 195
      },
      "name": "C_BackfinC3",
      "rotation": [
        -1.875833039247099e-12,
        4.547474050965727e-13,
        -3.725290742551124e-09,
        1.0
      ],
      "scale": [
        1.0,
        1.0,
        1.0
      ],
      "translation": [
        0.30994004011154175,
        3.814697180359872e-08,
        -6.984919153490976e-12
      ]
    },
    {
      "children": [
        78
      ],
      "extras": {
        "Flags": 14,
        "ID": 199,
        "Parent ID": 111
      },
      "name": "C_BackfinD",
      "rotation": [
        -0.67774498462677,
        0.7352970838546753,
        -1.916946166602429e-05,
        1.572356813994702e-05
      ],
      "scale": [
        1.0000009536743164,
        1.0000009536743164,
        1.0000009536743164
      ],
      "translation": [
        0.023559723049402237,
        -0.3692673444747925,
        2.51952792496013e-06
      ]
    },
    {
      "children": [
        79
      ],
      "extras": {
        "Flags": 14,
        "ID": 202,
        "Parent ID": 199
      },
      "name": "C_BackfinD2",
      "rotation": [
        5.522020063430944e-10,
        -2.384267077104596e-07,
        -0.0062484401278197765,
        0.9999804496765137
      ],
      "scale": [
        1.0,
        1.0,
        1.0
      ],
      "translation": [
        0.32130491733551025,
        2.288818308215923e-07,
        4.656612768993984e-12
      ]
    },
    {
      "extras": {
        "Flags": 14,
        "ID": 204,
        "Parent ID": 202
      },
      "name": "C_BackfinD3",
      "rotation": [
        6.821211889600221e-13,
        -5.929233054160803e-21,
        -7.450582373280668e-09,
        1.0
      ],
      "scale": [
        1.0,
        1.0,
        1.0
      ],
      "translation": [
        0.37391188740730286,
        7.629394360719743e-08,
        4.656612768993984e-12
      ]
    },
    {
      "children": [
        81
      ],
      "extras": {
        "Flags": 14,
        "ID": 206,
        "Parent ID": 108
      },
      "name": "C_BackfinE",
      "rotation": [
        -0.6694722771644592,
        0.7428370118141174,
        -2.3169530322775245e-05,
        1.927645644173026e-05
      ],
      "scale": [
        1.0,
        1.0,
        1.0
      ],
      "translation": [
        -0.03346717730164528,
        -0.319498211145401,
        4.424678650138958e-07
      ]
    },
    {
      "children": [
        82
      ],
      "extras": {
        "Flags": 14,
        "ID": 209,
        "Parent ID": 206
      },
      "name": "C_BackfinE2",
      "rotation": [
        -4.093564029417074e-12,
        8.627202419120295e-08,
        0.0015918777789920568,
        0.9999987483024597
      ],
      "scale": [
        1.0,
        1.0,
        1.0
      ],
      "translation": [
        0.3004534840583801,
        -5.340576194612368e-07,
        1.3969838306981952e-11
      ]
    },
    {
      "extras": {
        "Flags": 14,
        "ID": 211,
        "Parent ID": 209
      },
      "name": "C_BackfinE3",
      "rotation": [
        -1.705302782664675e-12,
        -4.547474050965727e-13,
        -7.7548202148368975e-25,
        1.0
      ],
      "scale": [
        1.0,
        1.0,
        1.0
      ],
      "translation": [
        0.3459937870502472,
        3.0517577442878974e-07,
        1.3969838306981952e-11
      ]
    },
    {
      "extras": {
        "Flags": 526,
        "Has GPU LODs": false,
        "ID": 226,
        "Material Path": "Materials\\Actors\\QuadrupedC\\QuadrupedC_Anteater\\QuadrupedC_Anteater.mat",
        "NiIntegerExtraData:MaterialID": -252001473,
        "Parent ID": 4
      },
      "mesh": 0,
      "name": "QuadrupedC_Anteater:0",
      "rotation": [
        3.0616171314629196e-17,
        0.0,
        0.0,
        1.0
      ],
      "scale": [
        1.0,
        1.0,
        1.0
      ],
      "skin": 0,
      "translation": [
        0.0,
        0.0,
        0.0
      ]
    }
  ],
  "scenes": [
    {
      "name": "ExportScene",
      "nodes": [
        0
      ]
    }
  ],
  "skins": [
    {
      "inverseBindMatrices": 0,
      "joints": [
        45,
        46,
        47,
        2,
        29,
        40,
        41,
        42,
        43,
        64,
        72,
        44,
        3,
        4,
        5,
        38,
        73,
        18,
        54,
        10,
        6,
        7,
        8,
        9,
        27,
        49,
        66,
        65,
        67,
        33,
        34,
        35,
        36,
        68,
        70,
        69,
        71,
        62,
        63,
        55,
        56,
        57,
        22,
        23,
        24,
        25,
        58,
        60,
        59,
        61,
        39,
        30,
        31,
        32,
        19,
        28,
        20,
        21
      ],
      "skeleton": 1
    }
  ]
}
