{
  "accessors": [
    {
      "bufferView": 0,
      "componentType": 5126,
      "count": 44,
      "type": "MAT4"
    },
    {
      "bufferView": 1,
      "componentType": 5126,
      "count": 80,
      "type": "MAT4"
    },
    {
      "bufferView": 2,
      "componentType": 5126,
      "count": 15005,
      "max": [
        1.1822870969772339,
        0.36805322766304016,
        2.1342203617095947
      ],
      "min": [
        -1.1854609251022339,
        -2.4298837184906006,
        -0.04589983820915222
      ],
      "type": "VEC3"
    },
    {
      "bufferView": 3,
      "componentType": 5126,
      "count": 15005,
      "type": "VEC3"
    },
    {
      "bufferView": 4,
      "componentType": 5126,
      "count": 15005,
      "type": "VEC4"
    },
    {
      "bufferView": 5,
      "componentType": 5126,
      "count": 15005,
      "type": "VEC2"
    },
    {
      "bufferView": 6,
      "componentType": 5126,
      "count": 15005,
      "type": "VEC4"
    },
    {
      "bufferView": 7,
      "componentType": 5126,
      "count": 15005,
      "type": "VEC4"
    },
    {
      "bufferView": 8,
      "componentType": 5123,
      "count": 15005,
      "type": "VEC4"
    },
    {
      "bufferView": 9,
      "componentType": 5123,
      "count": 15005,
      "type": "VEC4"
    },
    {
      "bufferView": 10,
      "componentType": 5123,
      "count": 75750,
      "type": "SCALAR"
    },
    {
      "bufferView": 11,
      "componentType": 5126,
      "count": 22395,
      "max": [
        2.0287485122680664,
        2.5928525924682617,
        2.156437873840332
      ],
      "min": [
        -2.0318002700805664,
        -0.8371837735176086,
        -0.09118930995464325
      ],
      "type": "VEC3"
    },
    {
      "bufferView": 12,
      "componentType": 5126,
      "count": 22395,
      "type": "VEC3"
    },
    {
      "bufferView": 13,
      "componentType": 5126,
      "count": 22395,
      "type": "VEC4"
    },
    {
      "bufferView": 14,
      "componentType": 5126,
      "count": 22395,
      "type": "VEC2"
    },
    {
      "bufferView": 15,
      "componentType": 5126,
      "count": 22395,
      "type": "VEC4"
    },
    {
      "bufferView": 16,
      "componentType": 5126,
      "count": 22395,
      "type": "VEC4"
    },
    {
      "bufferView": 17,
      "componentType": 5123,
      "count": 22395,
      "type": "VEC4"
    },
    {
      "bufferView": 18,
      "componentType": 5123,
      "count": 22395,
      "type": "VEC4"
    },
    {
      "bufferView": 19,
      "componentType": 5123,
      "count": 109098,
      "type": "SCALAR"
    }
  ],
  "asset": {
    "generator": "NifSkope glTF 2.0 Exporter v1.2",
    "version": "2.0"
  },
  "bufferViews": [
    {
      "buffer": 0,
      "byteLength": 2816
    },
    {
      "buffer": 0,
      "byteLength": 5120,
      "byteOffset": 2816
    },
    {
      "buffer": 0,
      "byteLength": 180060,
      "byteOffset": 7936,
      "target": 34962
    },
    {
      "buffer": 0,
      "byteLength": 180060,
      "byteOffset": 187996,
      "target": 34962
    },
    {
      "buffer": 0,
      "byteLength": 240080,
      "byteOffset": 368056,
      "target": 34962
    },
    {
      "buffer": 0,
      "byteLength": 120040,
      "byteOffset": 608136,
      "target": 34962
    },
    {
      "buffer": 0,
      "byteLength": 240080,
      "byteOffset": 728176,
      "target": 34962
    },
    {
      "buffer": 0,
      "byteLength": 240080,
      "byteOffset": 968256,
      "target": 34962
    },
    {
      "buffer": 0,
      "byteLength": 120040,
      "byteOffset": 1208336,
      "target": 34962
    },
    {
      "buffer": 0,
      "byteLength": 120040,
      "byteOffset": 1328376,
      "target": 34962
    },
    {
      "buffer": 0,
      "byteLength": 151500,
      "byteOffset": 1448416,
      "target": 34963
    },
    {
      "buffer": 0,
      "byteLength": 268740,
      "byteOffset": 1599916,
      "target": 34962
    },
    {
      "buffer": 0,
      "byteLength": 268740,
      "byteOffset": 1868656,
      "target": 34962
    },
    {
      "buffer": 0,
      "byteLength": 358320,
      "byteOffset": 2137396,
      "target": 34962
    },
    {
      "buffer": 0,
      "byteLength": 179160,
      "byteOffset": 2495716,
      "target": 34962
    },
    {
      "buffer": 0,
      "byteLength": 358320,
      "byteOffset": 2674876,
      "target": 34962
    },
    {
      "buffer": 0,
      "byteLength": 358320,
      "byteOffset": 3033196,
      "target": 34962
    },
    {
      "buffer": 0,
      "byteLength": 179160,
      "byteOffset": 3391516,
      "target": 34962
    },
    {
      "buffer": 0,
      "byteLength": 179160,
      "byteOffset": 3570676,
      "target": 34962
    },
    {
      "buffer": 0,
      "byteLength": 218196,
      "byteOffset": 3749836,
      "target": 34963
    }
  ],
  "buffers": [
    {
      "byteLength": 3968032,
      "name": "Base.bin",
      "uri": "Base.bin"
    }
  ],
  "materials": [
    {
      "extras": {
        "Material Path": "Default"
      },
      "name": "Default"
    },
    {
      "extras": {
        "Material Path": "materials/actors/terrormorph/terrormorpha_02.mat"
      },
      "name": "Materials/Actors/Terrormorph/Terrormorpha_02"
    },
    {
      "extras": {
        "Material Path": "materials/actors/terrormorph/terrormorpha_01.mat"
      },
      "name": "Materials/Actors/Terrormorph/Terrormorpha_01"
    }
  ],
  "meshes": [
    {
      "name": "Terrormorph_Base:0",
      "primitives": [
        {
          "attributes": {
            "JOINTS_0": 8,
            "JOINTS_1": 9,
            "NORMAL": 3,
            "POSITION": 2,
            "TANGENT": 4,
            "TEXCOORD_0": 5,
            "WEIGHTS_0": 6,
            "WEIGHTS_1": 7
          },
          "indices": 10,
          "material": 1,
          "mode": 4
        }
      ]
    },
    {
      "name": "Terrormorph_Base:1",
      "primitives": [
        {
          "attributes": {
            "JOINTS_0": 17,
            "JOINTS_1": 18,
            "NORMAL": 12,
            "POSITION": 11,
            "TANGENT": 13,
            "TEXCOORD_0": 14,
            "WEIGHTS_0": 15,
            "WEIGHTS_1": 16
          },
          "indices": 19,
          "material": 2,
          "mode": 4
        }
      ]
    }
  ],
  "nodes": [
    {
      "children": [
        1,
        116,
        117
      ],
      "extras": {
        "Flags": 14,
        "ID": 3,
        "Parent ID": 0
      },
      "name": "Root",
      "rotation": [
        -0.7071067690849304,
        1.6858739115832577e-07,
        -1.6858739115832577e-07,
        0.7071067690849304
      ],
      "scale": [
        1.0,
        1.0,
        1.0
      ],
      "translation": [
        0.0,
        0.0,
        -0.0
      ]
    },
    {
      "children": [
        2,
        92
      ],
      "extras": {
        "Flags": 14,
        "ID": 5,
        "Parent ID": 3
      },
      "name": "COM",
      "rotation": [
        1.5060099940455984e-06,
        7.549800074002633e-08,
        7.549800784545369e-08,
        1.0
      ],
      "scale": [
        1.0,
        1.0,
        1.0
      ],
      "translation": [
        -9.843159176625704e-08,
        -1.224039912223816,
        1.360239028930664
      ]
    },
    {
      "children": [
        3
      ],
      "extras": {
        "Flags": 14,
        "ID": 9,
        "Parent ID": 5
      },
      "name": "C_spine",
      "rotation": [
        -0.4155435264110565,
        -0.5721221566200256,
        0.41554200649261475,
        0.5721229910850525
      ],
      "scale": [
        1.0,
        1.0,
        1.0
      ],
      "translation": [
        -8.114670322356687e-07,
        0.0909951776266098,
        0.07317093014717102
      ]
    },
    {
      "children": [
        4
      ],
      "extras": {
        "Flags": 14,
        "ID": 12,
        "Parent ID": 9
      },
      "name": "C_spine2",
      "rotation": [
        -8.765211134686979e-08,
        -2.63196011474065e-06,
        0.05733776092529297,
        0.9983548521995544
      ],
      "scale": [
        1.0,
        1.0,
        1.0
      ],
      "translation": [
        0.2540449798107147,
        -2.8421708795129297e-16,
        2.91038298062124e-13
      ]
    },
    {
      "children": [
        5,
        88,
        89,
        90,
        91
      ],
      "extras": {
        "Flags": 14,
        "ID": 15,
        "Parent ID": 12
      },
      "name": "C_spine3",
      "rotation": [
        9.956845189919988e-14,
        4.739207270176848e-06,
        0.04308824986219406,
        0.9990713000297546
      ],
      "scale": [
        1.0,
        1.0,
        1.0
      ],
      "translation": [
        0.3349115550518036,
        3.0517577442878974e-07,
        -4.36557447093186e-13
      ]
    },
    {
      "children": [
        6,
        7,
        85,
        86,
        87
      ],
      "extras": {
        "Flags": 14,
        "ID": 18,
        "Parent ID": 15
      },
      "name": "C_spine4",
      "rotation": [
        -1.412873462669495e-08,
        -4.536200776783517e-06,
        0.049448247998952866,
        0.9987766742706299
      ],
      "scale": [
        1.0,
        1.0,
        1.0
      ],
      "translation": [
        0.24533292651176453,
        3.0517577442878974e-07,
        -5.82076596124248e-13
      ]
    },
    {
      "extras": {
        "Flags": 14,
        "ID": 21,
        "Parent ID": 18
      },
      "name": "DirectAt",
      "rotation": [
        0.5000009536743164,
        0.4999990463256836,
        -0.49999910593032837,
        0.5000008940696716
      ],
      "scale": [
        1.0,
        1.0,
        1.0
      ],
      "translation": [
        -1.907348590179936e-08,
        -2.8421708795129297e-16,
        1.45519149031062e-13
      ]
    },
    {
      "children": [
        8,
        45,
        57,
        64,
        65,
        77,
        84
      ],
      "extras": {
        "Flags": 14,
        "ID": 23,
        "Parent ID": 18
      },
      "name": "C_spine5",
      "rotation": [
        3.4106037763957653e-13,
        3.5882394603357903e-13,
        4.6566112077428556e-10,
        1.0
      ],
      "scale": [
        1.0,
        1.0,
        1.0
      ],
      "translation": [
        0.3588668406009674,
        -2.8421708795129297e-16,
        -1.5279510512736239e-12
      ]
    },
    {
      "children": [
        9
      ],
      "extras": {
        "Flags": 14,
        "ID": 26,
        "Parent ID": 23
      },
      "name": "C_Neck1",
      "rotation": [
        0.0,
        3.0045023322600173e-06,
        0.1921555995941162,
        0.9813644886016846
      ],
      "scale": [
        1.0,
        1.0,
        1.0
      ],
      "translation": [
        0.16589927673339844,
        0.06129348650574684,
        -9.583726523487712e-07
      ]
    },
    {
      "children": [
        10
      ],
      "extras": {
        "Flags": 14,
        "ID": 29,
        "Parent ID": 26
      },
      "name": "C_Neck2",
      "rotation": [
        5.494736221578478e-09,
        -6.725462753820466e-06,
        -0.1205904558300972,
        0.9927023649215698
      ],
      "scale": [
        1.0,
        1.0,
        1.0
      ],
      "translation": [
        0.1581079512834549,
        -1.5258788721439487e-07,
        -8.73114894186372e-13
      ]
    },
    {
      "children": [
        11
      ],
      "extras": {
        "Flags": 14,
        "ID": 32,
        "Parent ID": 29
      },
      "name": "C_Neck3",
      "rotation": [
        2.465810222673781e-09,
        4.672101994174227e-08,
        -0.052705179899930954,
        0.9986101388931274
      ],
      "scale": [
        1.0,
        1.0,
        1.0
      ],
      "translation": [
        0.14240193367004395,
        -0.014787902124226093,
        8.302781111524382e-07
      ]
    },
    {
      "children": [
        12,
        16,
        20,
        21,
        25,
        36,
        37,
        41
      ],
      "extras": {
        "Flags": 14,
        "ID": 35,
        "Parent ID": 32
      },
      "name": "C_Head",
      "rotation": [
        1.7053025658242404e-13,
        -1.0302869668521453e-13,
        1.862645149230957e-09,
        1.0
      ],
      "scale": [
        1.0,
        1.0,
        1.0
      ],
      "translation": [
        0.11828231811523438,
        -6.103515488575795e-07,
        -5.82076596124248e-13
      ]
    },
    {
      "children": [
        13
      ],
      "extras": {
        "Flags": 14,
        "ID": 38,
        "Parent ID": 35
      },
      "name": "R_faceFingerB1",
      "rotation": [
        -0.0351109504699707,
        0.7062344551086426,
        0.7021006345748901,
        -0.08399297297000885
      ],
      "scale": [
        1.0,
        1.0,
        1.0
      ],
      "translation": [
        0.20592071115970612,
        0.06390594691038132,
        -0.20545081794261932
      ]
    },
    {
      "children": [
        14
      ],
      "extras": {
        "Flags": 14,
        "ID": 40,
        "Parent ID": 38
      },
      "name": "R_faceFingerB2",
      "rotation": [
        0.010842612013220787,
        0.022831760346889496,
        -0.05401661619544029,
        0.9982200860977173
      ],
      "scale": [
        1.0,
        1.0,
        1.0
      ],
      "translation": [
        -0.1943444460630417,
        -3.814697180359872e-08,
        3.0517577442878974e-07
      ]
    },
    {
      "children": [
        15
      ],
      "extras": {
        "Flags": 14,
        "ID": 42,
        "Parent ID": 40
      },
      "name": "R_faceFingerB3",
      "rotation": [
        0.012521691620349884,
        0.01785116270184517,
        -0.09299977123737335,
        0.9954273700714111
      ],
      "scale": [
        1.0,
        1.0,
        1.0
      ],
      "translation": [
        -0.1903003603219986,
        3.814697180359872e-08,
        3.0517577442878974e-07
      ]
    },
    {
      "extras": {
        "Flags": 14,
        "ID": 44,
        "Parent ID": 42
      },
      "name": "R_faceFingerB4",
      "rotation": [
        3.259629011154175e-09,
        1.2343641733747468e-16,
        2.0838342607021332e-08,
        1.0
      ],
      "scale": [
        1.0,
        1.0,
        1.0
      ],
      "translation": [
        -0.11354216933250427,
        3.814697180359872e-08,
        4.577636616431846e-07
      ]
    },
    {
      "children": [
        17
      ],
      "extras": {
        "Flags": 14,
        "ID": 46,
        "Parent ID": 35
      },
      "name": "R_faceFingerA1",
      "rotation": [
        0.03758624568581581,
        0.7061077356338501,
        0.7070956826210022,
        -0.003853022586554289
      ],
      "scale": [
        1.0,
        1.0,
        1.0
      ],
      "translation": [
        0.1971534639596939,
        -0.014529570937156677,
        -0.19962263107299805
      ]
    },
    {
      "children": [
        18
      ],
      "extras": {
        "Flags": 14,
        "ID": 48,
        "Parent ID": 46
      },
      "name": "R_faceFingerA2",
      "rotation": [
        0.012534277513623238,
        0.024524204432964325,
        -0.03500621020793915,
        0.999007523059845
      ],
      "scale": [
        1.0,
        1.0,
        1.0
      ],
      "translation": [
        -0.19798141717910767,
        -9.53674295089968e-09,
        -1.5258788721439487e-07
      ]
    },
    {
      "children": [
        19
      ],
      "extras": {
        "Flags": 14,
        "ID": 50,
        "Parent ID": 48
      },
      "name": "R_faceFingerA3",
      "rotation": [
        -0.006568982731550932,
        -0.00857757031917572,
        -0.09496961534023285,
        0.9954215288162231
      ],
      "scale": [
        1.0,
        1.0,
        1.0
      ],
      "translation": [
        -0.19036605954170227,
        -1.907348590179936e-08,
        3.0517577442878974e-07
      ]
    },
    {
      "extras": {
        "Flags": 14,
        "ID": 52,
        "Parent ID": 50
      },
      "name": "R_faceFingerA4",
      "rotation": [
        2.3283064365386963e-10,
        4.656612873077393e-10,
        -5.209585651755333e-09,
        1.0
      ],
      "scale": [
        1.0,
        1.0,
        1.0
      ],
      "translation": [
        -0.11518646031618118,
        7.105427198782324e-17,
        -3.0517577442878974e-07
      ]
    },
    {
      "extras": {
        "Flags": 14,
        "ID": 54,
        "Parent ID": 35
      },
      "name": "R_Jaw",
      "rotation": [
        1.0044854207080789e-05,
        2.7236008008912904e-06,
        0.9999366998672485,
        0.011249142698943615
      ],
      "scale": [
        1.0,
        1.0,
        1.0
      ],
      "translation": [
        0.0219657514244318,
        0.07672271877527237,
        -0.009345248341560364
      ]
    },
    {
      "children": [
        22
      ],
      "extras": {
        "Flags": 14,
        "ID": 56,
        "Parent ID": 35
      },
      "name": "R_faceFingerC1",
      "rotation": [
        -0.09868571162223816,
        0.700186014175415,
        0.6981869339942932,
        -0.11196283251047134
      ],
      "scale": [
        1.0,
        1.0,
        1.0
      ],
      "translation": [
        0.14617179334163666,
        0.13289092481136322,
        -0.20873922109603882
      ]
    },
    {
      "children": [
        23
      ],
      "extras": {
        "Flags": 14,
        "ID": 58,
        "Parent ID": 56
      },
      "name": "R_faceFingerC2",
      "rotation": [
        0.011786584742367268,
        0.023695839568972588,
        -0.027670474722981453,
        0.9992666840553284
      ],
      "scale": [
        1.0,
        1.0,
        1.0
      ],
      "translation": [
        -0.1943431794643402,
        -1.907348590179936e-08,
        -4.577636616431846e-07
      ]
    },
    {
      "children": [
        24
      ],
      "extras": {
        "Flags": 14,
        "ID": 60,
        "Parent ID": 58
      },
      "name": "R_faceFingerC3",
      "rotation": [
        0.005674549378454685,
        0.007846067659556866,
        -0.11681938171386719,
        0.993105947971344
      ],
      "scale": [
        1.0,
        1.0,
        1.0
      ],
      "translation": [
        -0.18946948647499084,
        0.0029002188239246607,
        0.00021148681116756052
      ]
    },
    {
      "extras": {
        "Flags": 14,
        "ID": 62,
        "Parent ID": 60
      },
      "name": "R_faceFingerC4",
      "rotation": [
        3.725290742551124e-09,
        1.4901162970204496e-08,
        5.587935891782081e-09,
        1.0
      ],
      "scale": [
        1.0,
        1.0,
        1.0
      ],
      "translation": [
        -0.1087367981672287,
        7.629394360719743e-08,
        1.5258788721439487e-07
      ]
    },
    {
      "children": [
        26,
        31
      ],
      "extras": {
        "Flags": 14,
        "ID": 64,
        "Parent ID": 35
      },
      "name": "C_Jaw",
      "rotation": [
        1.0136083119505201e-06,
        -4.882703592556936e-07,
        -0.011249066330492496,
        0.9999366998672485
      ],
      "scale": [
        1.0,
        1.0,
        1.0
      ],
      "translation": [
        0.001400909386575222,
        0.07718612253665924,
        2.5582397711332305e-07
      ]
    },
    {
      "children": [
        27
      ],
      "extras": {
        "Flags": 14,
        "ID": 67,
        "Parent ID": 64
      },
      "name": "R_faceFingerDBase",
      "rotation": [
        -0.12339307367801666,
        0.6962563395500183,
        0.6532719135284424,
        -0.27062326669692993
      ],
      "scale": [
        1.0,
        1.0,
        1.0
      ],
      "translation": [
        0.05270301550626755,
        0.11127135902643204,
        -0.1500171273946762
      ]
    },
    {
      "children": [
        28
      ],
      "extras": {
        "Flags": 14,
        "ID": 69,
        "Parent ID": 67
      },
      "name": "R_faceFingerD1",
      "rotation": [
        -0.03979761525988579,
        -0.06986373662948608,
        -0.10304712504148483,
        0.9914214611053467
      ],
      "scale": [
        1.0,
        1.0,
        1.0
      ],
      "translation": [
        -0.15618351101875305,
        3.814697180359872e-08,
        0.0
      ]
    },
    {
      "children": [
        29
      ],
      "extras": {
        "Flags": 14,
        "ID": 71,
        "Parent ID": 69
      },
      "name": "R_faceFingerD2",
      "rotation": [
        0.01863042265176773,
        0.02040230482816696,
        -0.04423026368021965,
        0.9986392259597778
      ],
      "scale": [
        1.0,
        1.0,
        1.0
      ],
      "translation": [
        -0.19819778203964233,
        2.8610228852699038e-08,
        0.0
      ]
    },
    {
      "children": [
        30
      ],
      "extras": {
        "Flags": 14,
        "ID": 73,
        "Parent ID": 71
      },
      "name": "R_faceFingerD3",
      "rotation": [
        -0.05004667118191719,
        -0.044249165803194046,
        -0.06116131693124771,
        0.9958898425102234
      ],
      "scale": [
        1.0,
        1.0,
        1.0
      ],
      "translation": [
        -0.181827574968338,
        0.0011824797838926315,
        -0.0009494018158875406
      ]
    },
    {
      "extras": {
        "Flags": 14,
        "ID": 75,
        "Parent ID": 73
      },
      "name": "R_faceFingerD4",
      "rotation": [
        -2.9802322387695313e-08,
        1.4901161193847656e-08,
        7.450581485102248e-09,
        1.0
      ],
      "scale": [
        1.0,
        1.0,
        1.0
      ],
      "translation": [
        -0.10917892307043076,
        -1.907348590179936e-08,
        0.0
      ]
    },
    {
      "children": [
        32
      ],
      "extras": {
        "Flags": 14,
        "ID": 77,
        "Parent ID": 64
      },
      "name": "L_faceFingerDBase",
      "rotation": [
        0.6962568759918213,
        0.12340059876441956,
        0.2706156075000763,
        0.6532731652259827
      ],
      "scale": [
        1.0,
        1.0,
        1.0
      ],
      "translation": [
        0.05270599201321602,
        0.1112724244594574,
        0.15001484751701355
      ]
    },
    {
      "children": [
        33
      ],
      "extras": {
        "Flags": 14,
        "ID": 79,
        "Parent ID": 77
      },
      "name": "L_faceFingerD1",
      "rotation": [
        -0.03979761153459549,
        -0.06986377388238907,
        -0.10304711759090424,
        0.9914214611053467
      ],
      "scale": [
        1.0,
        1.0,
        1.0
      ],
      "translation": [
        0.15618373453617096,
        -3.814697180359872e-08,
        0.0
      ]
    },
    {
      "children": [
        34
      ],
      "extras": {
        "Flags": 14,
        "ID": 81,
        "Parent ID": 79
      },
      "name": "L_faceFingerD2",
      "rotation": [
        0.01863042451441288,
        0.020402440801262856,
        -0.044230274856090546,
        0.9986392259597778
      ],
      "scale": [
        1.0,
        1.0,
        1.0
      ],
      "translation": [
        0.19819793105125427,
        5.7220457705398076e-08,
        0.0
      ]
    },
    {
      "children": [
        35
      ],
      "extras": {
        "Flags": 14,
        "ID": 83,
        "Parent ID": 81
      },
      "name": "L_faceFingerD3",
      "rotation": [
        -0.05215458571910858,
        -0.04174399748444557,
        -0.012293723411858082,
        0.9976904392242432
      ],
      "scale": [
        1.0,
        1.0,
        1.0
      ],
      "translation": [
        0.17186930775642395,
        -2.670288097306184e-07,
        1.983642505365424e-06
      ]
    },
    {
      "extras": {
        "Flags": 14,
        "ID": 85,
        "Parent ID": 83
      },
      "name": "L_faceFingerD4",
      "rotation": [
        1.4901161193847656e-08,
        1.4901159417490817e-08,
        -3.725290076417309e-09,
        1.0
      ],
      "scale": [
        1.0,
        1.0,
        1.0
      ],
      "translation": [
        0.11925094574689865,
        5.7220457705398076e-08,
        2.593994167909841e-06
      ]
    },
    {
      "extras": {
        "Flags": 14,
        "ID": 87,
        "Parent ID": 35
      },
      "name": "L_Jaw",
      "rotation": [
        1.0136083119505201e-06,
        -4.882698476649239e-07,
        -0.011249066330492496,
        0.9999366998672485
      ],
      "scale": [
        1.0,
        1.0,
        1.0
      ],
      "translation": [
        0.02196609415113926,
        0.07672347873449326,
        0.00934230163693428
      ]
    },
    {
      "children": [
        38
      ],
      "extras": {
        "Flags": 14,
        "ID": 89,
        "Parent ID": 35
      },
      "name": "L_faceFingerA1",
      "rotation": [
        0.7061068415641785,
        -0.03757963329553604,
        0.0038464406970888376,
        0.7070969343185425
      ],
      "scale": [
        1.0,
        1.0,
        1.0
      ],
      "translation": [
        0.19715720415115356,
        -0.014528960920870304,
        0.1996193677186966
      ]
    },
    {
      "children": [
        39
      ],
      "extras": {
        "Flags": 14,
        "ID": 91,
        "Parent ID": 89
      },
      "name": "L_faceFingerA2",
      "rotation": [
        0.012534276582300663,
        0.024524198845028877,
        -0.03500621020793915,
        0.999007523059845
      ],
      "scale": [
        1.0,
        1.0,
        1.0
      ],
      "translation": [
        0.19798164069652557,
        1.907348590179936e-08,
        -1.5258788721439487e-07
      ]
    },
    {
      "children": [
        40
      ],
      "extras": {
        "Flags": 14,
        "ID": 93,
        "Parent ID": 91
      },
      "name": "L_faceFingerA3",
      "rotation": [
        -0.007143381051719189,
        -0.008105475455522537,
        -0.02627725712954998,
        0.9995962977409363
      ],
      "scale": [
        1.0,
        1.0,
        1.0
      ],
      "translation": [
        0.1903659850358963,
        1.1444091541079615e-07,
        4.1198727558366954e-06
      ]
    },
    {
      "extras": {
        "Flags": 14,
        "ID": 95,
        "Parent ID": 93
      },
      "name": "L_faceFingerA4",
      "rotation": [
        9.313225746154785e-10,
        4.6566123179658803e-10,
        7.214111086284447e-09,
        1.0
      ],
      "scale": [
        1.0,
        1.0,
        1.0
      ],
      "translation": [
        0.11518599838018417,
        -3.433227391269611e-07,
        -3.5095213206659537e-06
      ]
    },
    {
      "children": [
        42
      ],
      "extras": {
        "Flags": 14,
        "ID": 97,
        "Parent ID": 35
      },
      "name": "L_faceFingerB1",
      "rotation": [
        0.7062343955039978,
        0.035117484629154205,
        0.08398637175559998,
        0.7021011710166931
      ],
      "scale": [
        1.0,
        1.0,
        1.0
      ],
      "translation": [
        0.20592430233955383,
        0.06390685588121414,
        0.20544719696044922
      ]
    },
    {
      "children": [
        43
      ],
      "extras": {
        "Flags": 14,
        "ID": 99,
        "Parent ID": 97
      },
      "name": "L_faceFingerB2",
      "rotation": [
        0.010842609219253063,
        0.02283174730837345,
        -0.0540166012942791,
        0.9982200860977173
      ],
      "scale": [
        1.0,
        1.0,
        1.0
      ],
      "translation": [
        0.19434501230716705,
        3.814697180359872e-08,
        -3.0517577442878974e-07
      ]
    },
    {
      "children": [
        44
      ],
      "extras": {
        "Flags": 14,
        "ID": 101,
        "Parent ID": 99
      },
      "name": "L_faceFingerB3",
      "rotation": [
        0.014149829745292664,
        0.016590343788266182,
        0.0013186727883294225,
        0.9997614026069641
      ],
      "scale": [
        1.0,
        1.0,
        1.0
      ],
      "translation": [
        0.19030150771141052,
        -1.335144048653092e-07,
        -4.1198727558366954e-06
      ]
    },
    {
      "extras": {
        "Flags": 14,
        "ID": 103,
        "Parent ID": 101
      },
      "name": "L_faceFingerB4",
      "rotation": [
        -1.862645149230957e-09,
        -1.4901161193847656e-08,
        1.862645149230957e-09,
        1.0
      ],
      "scale": [
        1.0,
        1.0,
        1.0
      ],
      "translation": [
        0.11354079842567444,
        -7.05719003235572e-07,
        7.171630841185106e-06
      ]
    },
    {
      "children": [
        46
      ],
      "extras": {
        "Flags": 14,
        "ID": 105,
        "Parent ID": 23
      },
      "name": "L_FrontClav",
      "rotation": [
        0.6169110536575317,
        -0.021213671192526817,
        0.7858045101165771,
        -0.03849685192108154
      ],
      "scale": [
        1.0,
        1.0,
        1.0
      ],
      "translation": [
        -0.038639891892671585,
        -0.09696640074253082,
        0.2658214867115021
      ]
    },
    {
      "children": [
        47
      ],
      "extras": {
        "Flags": 14,
        "ID": 108,
        "Parent ID": 105
      },
      "name": "L_Bicep",
      "rotation": [
        -0.511439323425293,
        0.1488180011510849,
        -0.4630381762981415,
        0.7084339261054993
      ],
      "scale": [
        1.0,
        1.0,
        1.0
      ],
      "translation": [
        0.32175201177597046,
        -0.026753997430205345,
        0.026900900527834892
      ]
    },
    {
      "children": [
        48
      ],
      "extras": {
        "Flags": 14,
        "ID": 111,
        "Parent ID": 108
      },
      "name": "L_Elbow",
      "rotation": [
        2.0440024783852095e-08,
        4.044894907906382e-08,
        -0.29814910888671875,
        0.9545193314552307
      ],
      "scale": [
        1.0,
        1.0,
        1.0
      ],
      "translation": [
        1.029985785484314,
        -3.814697180359872e-08,
        -6.103515488575795e-07
      ]
    },
    {
      "children": [
        49,
        55
      ],
      "extras": {
        "Flags": 14,
        "ID": 114,
        "Parent ID": 111
      },
      "name": "L_Wrist",
      "rotation": [
        2.2351740014414645e-08,
        1.1102230246251565e-16,
        4.163336011472092e-17,
        1.0
      ],
      "scale": [
        1.0,
        1.0,
        1.0
      ],
      "translation": [
        1.0801604986190796,
        -3.814697180359872e-08,
        3.0517577442878974e-07
      ]
    },
    {
      "children": [
        50,
        51,
        53
      ],
      "extras": {
        "Flags": 14,
        "ID": 117,
        "Parent ID": 114
      },
      "name": "L_Knuckle",
      "rotation": [
        -0.3893771767616272,
        0.014534013345837593,
        -0.37720736861228943,
        0.8401718735694885
      ],
      "scale": [
        1.0,
        1.0,
        1.0
      ],
      "translation": [
        0.25835976004600525,
        -0.04198892414569855,
        0.0009544372442178428
      ]
    },
    {
      "extras": {
        "Flags": 14,
        "ID": 119,
        "Parent ID": 117
      },
      "name": "xL_Finger",
      "rotation": [
        -6.834003501987596e-11,
        5.2001833950043874e-09,
        7.450580596923828e-09,
        1.0
      ],
      "scale": [
        1.0,
        1.0,
        1.0
      ],
      "translation": [
        0.44856125116348267,
        0.0,
        3.0517577442878974e-07
      ]
    },
    {
      "children": [
        52
      ],
      "extras": {
        "Flags": 14,
        "ID": 121,
        "Parent ID": 117
      },
      "name": "L_ToeMid",
      "rotation": [
        -6.834009053102719e-11,
        1.2650763991928216e-08,
        7.450580596923828e-09,
        1.0
      ],
      "scale": [
        1.0,
        1.0,
        1.0
      ],
      "translation": [
        0.06002311408519745,
        0.013652581721544266,
        -0.010289916768670082
      ]
    },
    {
      "extras": {
        "Flags": 14,
        "ID": 123,
        "Parent ID": 121
      },
      "name": "L_ToeMid2",
      "rotation": [
        1.6082424281194108e-10,
        8.833007214548161e-09,
        -2.2237243645412077e-17,
        1.0
      ],
      "scale": [
        1.0,
        1.0,
        1.0
      ],
      "translation": [
        0.12236709147691727,
        -9.53674295089968e-09,
        1.5258788721439487e-07
      ]
    },
    {
      "children": [
        54
      ],
      "extras": {
        "Flags": 14,
        "ID": 125,
        "Parent ID": 117
      },
      "name": "L_ToePinky",
      "rotation": [
        2.9486817432200496e-09,
        -0.3619694411754608,
        7.139390412191915e-09,
        0.9321900010108948
      ],
      "scale": [
        1.0,
        1.0,
        1.0
      ],
      "translation": [
        0.008259735070168972,
        0.0,
        0.09305205941200256
      ]
    },
    {
      "extras": {
        "Flags": 14,
        "ID": 127,
        "Parent ID": 125
      },
      "name": "L_ToePinky2",
      "rotation": [
        -4.445227583701588e-17,
        -2.3865137421807958e-08,
        -1.8626449271863521e-09,
        1.0
      ],
      "scale": [
        1.0,
        1.0,
        1.0
      ],
      "translation": [
        0.09546691924333572,
        9.53674295089968e-09,
        -2.670288097306184e-07
      ]
    },
    {
      "children": [
        56
      ],
      "extras": {
        "Flags": 14,
        "ID": 129,
        "Parent ID": 114
      },
      "name": "L_ToeThumb",
      "rotation": [
        0.014421984553337097,
        0.32227545976638794,
        -0.561164915561676,
        0.7622496485710144
      ],
      "scale": [
        1.0,
        1.0,
        1.0
      ],
      "translation": [
        0.16068732738494873,
        -0.04666820541024208,
        -0.11192519962787628
      ]
    },
    {
      "extras": {
        "Flags": 14,
        "ID": 131,
        "Parent ID": 129
      },
      "name": "L_ToeThumb2",
      "rotation": [
        -1.1796116989664328e-16,
        -3.166496398421259e-08,
        -3.7252898543727042e-09,
        1.0
      ],
      "scale": [
        1.0,
        1.0,
        1.0
      ],
      "translation": [
        0.13228309154510498,
        3.814697180359872e-08,
        -1.5258788721439487e-07
      ]
    },
    {
      "children": [
        58
      ],
      "extras": {
        "Flags": 14,
        "ID": 133,
        "Parent ID": 23
      },
      "name": "L_SpiderLegBase",
      "rotation": [
        -0.03293926641345024,
        -0.24804987013339996,
        0.2832406163215637,
        0.9258299469947815
      ],
      "scale": [
        1.0,
        1.0,
        1.0
      ],
      "translation": [
        0.00817709881812334,
        0.3089631497859955,
        0.27534443140029907
      ]
    },
    {
      "children": [
        59
      ],
      "extras": {
        "Flags": 14,
        "ID": 136,
        "Parent ID": 133
      },
      "name": "L_SpiderLegFont",
      "rotation": [
        0.022872954607009888,
        0.043802596628665924,
        -0.5040774345397949,
        0.86224365234375
      ],
      "scale": [
        1.0,
        1.0,
        1.0
      ],
      "translation": [
        0.6951931118965149,
        0.023183058947324753,
        -0.04640985280275345
      ]
    },
    {
      "children": [
        60
      ],
      "extras": {
        "Flags": 14,
        "ID": 139,
        "Parent ID": 136
      },
      "name": "L_SpiderLeg2",
      "rotation": [
        -0.0009913680842146277,
        0.005161110311746597,
        0.5723989009857178,
        0.8199584484100342
      ],
      "scale": [
        1.0,
        1.0,
        1.0
      ],
      "translation": [
        1.002668857574463,
        -3.814697180359872e-08,
        7.629394360719743e-08
      ]
    },
    {
      "children": [
        61
      ],
      "extras": {
        "Flags": 14,
        "ID": 142,
        "Parent ID": 139
      },
      "name": "L_SpiderLeg3",
      "rotation": [
        -0.00024142934125848114,
        -0.008785603567957878,
        0.18780043721199036,
        0.9821678996086121
      ],
      "scale": [
        1.0,
        1.0,
        1.0
      ],
      "translation": [
        0.9026762247085571,
        1.5258788721439487e-07,
        -1.5258788721439487e-07
      ]
    },
    {
      "children": [
        62,
        63
      ],
      "extras": {
        "Flags": 14,
        "ID": 145,
        "Parent ID": 142
      },
      "name": "L_SpiderToeBase",
      "rotation": [
        0.039341140538454056,
        0.0707826241850853,
        0.22396992146968842,
        0.9712257981300354
      ],
      "scale": [
        1.0,
        1.0,
        1.0
      ],
      "translation": [
        0.7943570017814636,
        0.03446365147829056,
        -0.009110946208238602
      ]
    },
    {
      "extras": {
        "Flags": 14,
        "ID": 147,
        "Parent ID": 145
      },
      "name": "L_SpiderToeOut",
      "rotation": [
        -0.03342292085289955,
        -4.334386084723003e-19,
        -1.4494881359809905e-20,
        0.9994412660598755
      ],
      "scale": [
        1.0,
        1.0,
        1.0
      ],
      "translation": [
        5.2452087118126656e-08,
        -0.11563964933156967,
        0.05038486421108246
      ]
    },
    {
      "extras": {
        "Flags": 14,
        "ID": 149,
        "Parent ID": 145
      },
      "name": "L_SpiderToeIn",
      "rotation": [
        0.056435611099004745,
        -4.714891810309041e-10,
        -8.994992251043499e-11,
        0.9984062314033508
      ],
      "scale": [
        1.0,
        1.0,
        1.0
      ],
      "translation": [
        3.814697180359872e-08,
        -0.11938568204641342,
        -0.04948341101408005
      ]
    },
    {
      "extras": {
        "Flags": 14,
        "ID": 151,
        "Parent ID": 23
      },
      "name": "C_Chest",
      "rotation": [
        1.0587911840678754e-22,
        6.972201272272341e-14,
        -8.673617379884035e-19,
        1.0
      ],
      "scale": [
        1.0,
        1.0,
        1.0
      ],
      "translation": [
        -0.005773663520812988,
        0.509096086025238,
        1.8189892951256392e-13
      ]
    },
    {
      "children": [
        66
      ],
      "extras": {
        "Flags": 14,
        "ID": 153,
        "Parent ID": 23
      },
      "name": "R_FrontClav",
      "rotation": [
        -0.021213004365563393,
        -0.616909384727478,
        0.03849654272198677,
        0.785805881023407
      ],
      "scale": [
        1.0,
        1.0,
        1.0
      ],
      "translation": [
        -0.03864075988531113,
        -0.0969638004899025,
        -0.2658218443393707
      ]
    },
    {
      "children": [
        67
      ],
      "extras": {
        "Flags": 14,
        "ID": 156,
        "Parent ID": 153
      },
      "name": "R_Bicep",
      "rotation": [
        -0.511439323425293,
        0.1488179862499237,
        -0.4630381464958191,
        0.7084339261054993
      ],
      "scale": [
        1.0,
        1.0,
        1.0
      ],
      "translation": [
        -0.32175207138061523,
        0.026752013713121414,
        -0.026900649070739746
      ]
    },
    {
      "children": [
        68
      ],
      "extras": {
        "Flags": 14,
        "ID": 159,
        "Parent ID": 156
      },
      "name": "R_Elbow",
      "rotation": [
        1.8666215240159545e-08,
        9.780680265691899e-09,
        -0.29814907908439636,
        0.9545193314552307
      ],
      "scale": [
        1.0,
        1.0,
        1.0
      ],
      "translation": [
        -1.0299850702285767,
        3.8146970382513246e-07,
        1.983642505365424e-06
      ]
    },
    {
      "children": [
        69,
        75
      ],
      "extras": {
        "Flags": 14,
        "ID": 162,
        "Parent ID": 159
      },
      "name": "R_Wrist",
      "rotation": [
        7.4505792646561986e-09,
        1.4901161193847656e-08,
        1.4901161193847656e-08,
        1.0
      ],
      "scale": [
        1.0,
        1.0,
        1.0
      ],
      "translation": [
        -1.0801610946655273,
        -1.8310546465727384e-06,
        -2.899169885495212e-06
      ]
    },
    {
      "children": [
        70,
        71,
        73
      ],
      "extras": {
        "Flags": 14,
        "ID": 165,
        "Parent ID": 162
      },
      "name": "R_Knuckle",
      "rotation": [
        -0.3893771767616272,
        0.01453396026045084,
        -0.37720730900764465,
        0.8401718735694885
      ],
      "scale": [
        1.0,
        1.0,
        1.0
      ],
      "translation": [
        -0.2583611309528351,
        0.0419868640601635,
        -0.0009567260276526213
      ]
    },
    {
      "extras": {
        "Flags": 14,
        "ID": 167,
        "Parent ID": 165
      },
      "name": "xR_Finger",
      "rotation": [
        5.1130662204190713e-11,
        -1.903622370846847e-09,
        3.725290742551124e-09,
        1.0
      ],
      "scale": [
        1.0,
        1.0,
        1.0
      ],
      "translation": [
        -0.4485603868961334,
        -3.814697180359872e-08,
        6.713867151120212e-06
      ]
    },
    {
      "children": [
        72
      ],
      "extras": {
        "Flags": 14,
        "ID": 169,
        "Parent ID": 165
      },
      "name": "R_ToeMid",
      "rotation": [
        2.8396132667474205e-10,
        -1.903622592891452e-09,
        7.450581485102248e-09,
        1.0
      ],
      "scale": [
        1.0,
        1.0,
        1.0
      ],
      "translation": [
        -0.060022275894880295,
        -0.01365266740322113,
        0.010290374979376793
      ]
    },
    {
      "extras": {
        "Flags": 14,
        "ID": 171,
        "Parent ID": 169
      },
      "name": "R_ToeMid2",
      "rotation": [
        5.195487096099072e-11,
        -1.8851353811299987e-09,
        -3.7252898543727042e-09,
        1.0
      ],
      "scale": [
        1.0,
        1.0,
        1.0
      ],
      "translation": [
        -0.1223670169711113,
        0.0,
        3.204345603080583e-06
      ]
    },
    {
      "children": [
        74
      ],
      "extras": {
        "Flags": 14,
        "ID": 173,
        "Parent ID": 165
      },
      "name": "R_ToePinky",
      "rotation": [
        4.570161582506671e-09,
        -0.3619694411754608,
        7.769009435776297e-09,
        0.9321900010108948
      ],
      "scale": [
        1.0,
        1.0,
        1.0
      ],
      "translation": [
        -0.00825935322791338,
        -3.814697180359872e-08,
        -0.09304671734571457
      ]
    },
    {
      "extras": {
        "Flags": 14,
        "ID": 175,
        "Parent ID": 173
      },
      "name": "R_ToePinky2",
      "rotation": [
        -3.7252898543727042e-09,
        2.9103830456733704e-09,
        1.862645149230957e-09,
        1.0
      ],
      "scale": [
        1.0,
        1.0,
        1.0
      ],
      "translation": [
        -0.0954689010977745,
        -1.776356799695581e-17,
        -3.547668484316091e-06
      ]
    },
    {
      "children": [
        76
      ],
      "extras": {
        "Flags": 14,
        "ID": 177,
        "Parent ID": 162
      },
      "name": "R_ToeThumb",
      "rotation": [
        0.014421962201595306,
        0.3222754895687103,
        -0.5611646175384521,
        0.7622498273849487
      ],
      "scale": [
        1.0,
        1.0,
        1.0
      ],
      "translation": [
        -0.1606874018907547,
        0.046667326241731644,
        0.11192473769187927
      ]
    },
    {
      "extras": {
        "Flags": 14,
        "ID": 179,
        "Parent ID": 177
      },
      "name": "R_ToeThumb2",
      "rotation": [
        2.980232594040899e-08,
        -2.7939682567534874e-08,
        -1.862645326866641e-08,
        1.0
      ],
      "scale": [
        1.0,
        1.0,
        1.0
      ],
      "translation": [
        -0.13228599727153778,
        9.91821252682712e-07,
        1.3732909565078444e-06
      ]
    },
    {
      "children": [
        78
      ],
      "extras": {
        "Flags": 14,
        "ID": 181,
        "Parent ID": 23
      },
      "name": "R_SpiderLegBase",
      "rotation": [
        0.24805179238319397,
        -0.032940573990345,
        0.9258293509483337,
        -0.28324055671691895
      ],
      "scale": [
        1.0,
        1.0,
        1.0
      ],
      "translation": [
        0.008175753988325596,
        0.3089616298675537,
        -0.2753435969352722
      ]
    },
    {
      "children": [
        79
      ],
      "extras": {
        "Flags": 14,
        "ID": 184,
        "Parent ID": 181
      },
      "name": "R_SpiderLegFont",
      "rotation": [
        0.022872941568493843,
        0.04380260780453682,
        -0.5040773749351501,
        0.86224365234375
      ],
      "scale": [
        1.0,
        1.0,
        1.0
      ],
      "translation": [
        -0.695194661617279,
        -0.023185348138213158,
        0.04640945419669151
      ]
    },
    {
      "children": [
        80
      ],
      "extras": {
        "Flags": 14,
        "ID": 187,
        "Parent ID": 184
      },
      "name": "R_SpiderLeg2",
      "rotation": [
        -0.0009914243128150702,
        0.005161029752343893,
        0.572398841381073,
        0.819958508014679
      ],
      "scale": [
        1.0,
        1.0,
        1.0
      ],
      "translation": [
        -1.0026665925979614,
        -3.128051730527659e-06,
        1.449584942747606e-06
      ]
    },
    {
      "children": [
        81
      ],
      "extras": {
        "Flags": 14,
        "ID": 190,
        "Parent ID": 187
      },
      "name": "R_SpiderLeg3",
      "rotation": [
        -0.0002414328046143055,
        -0.008785590529441833,
        0.1878006011247635,
        0.9821678400039673
      ],
      "scale": [
        1.0,
        1.0,
        1.0
      ],
      "translation": [
        -0.9026697874069214,
        6.103515488575795e-07,
        -9.91821252682712e-07
      ]
    },
    {
      "children": [
        82,
        83
      ],
      "extras": {
        "Flags": 14,
        "ID": 193,
        "Parent ID": 190
      },
      "name": "R_SpiderToeBase",
      "rotation": [
        0.03934115543961525,
        0.0707826316356659,
        0.2239699512720108,
        0.9712257981300354
      ],
      "scale": [
        1.0,
        1.0,
        1.0
      ],
      "translation": [
        -0.7943580746650696,
        -0.03445983678102493,
        0.00911582913249731
      ]
    },
    {
      "extras": {
        "Flags": 14,
        "ID": 195,
        "Parent ID": 193
      },
      "name": "R_SpiderToeOut",
      "rotation": [
        -0.04138709604740143,
        -0.008933618664741516,
        0.013789809308946133,
        0.999008059501648
      ],
      "scale": [
        1.0,
        1.0,
        1.0
      ],
      "translation": [
        -1.0490417423625331e-07,
        0.11563903838396072,
        -0.05038947984576225
      ]
    },
    {
      "extras": {
        "Flags": 14,
        "ID": 197,
        "Parent ID": 193
      },
      "name": "R_SpiderToeIn",
      "rotation": [
        0.056435585021972656,
        2.4559951294911286e-10,
        2.193196457778157e-10,
        0.9984062314033508
      ],
      "scale": [
        1.0,
        1.0,
        1.0
      ],
      "translation": [
        -9.059905892172537e-08,
        0.11938628554344177,
        0.04947814717888832
      ]
    },
    {
      "extras": {
        "Flags": 14,
        "ID": 199,
        "Parent ID": 23
      },
      "name": "C_BackCyst1",
      "rotation": [
        -0.01967170648276806,
        0.16180266439914703,
        0.944594144821167,
        -0.2849119007587433
      ],
      "scale": [
        1.0,
        1.0,
        1.0
      ],
      "translation": [
        -0.03311311453580856,
        -0.28271758556365967,
        0.1609703153371811
      ]
    },
    {
      "extras": {
        "Flags": 14,
        "ID": 201,
        "Parent ID": 18
      },
      "name": "C_BackCyst2",
      "rotation": [
        0.001243005390278995,
        -0.08274102956056595,
        0.9863816499710083,
        -0.14213961362838745
      ],
      "scale": [
        1.0,
        1.0,
        1.0
      ],
      "translation": [
        0.19611378014087677,
        -0.3883480727672577,
        -0.17570072412490845
      ]
    },
    {
      "extras": {
        "Flags": 14,
        "ID": 203,
        "Parent ID": 18
      },
      "name": "C_BackCyst3",
      "rotation": [
        0.005985436495393515,
        0.11877240240573883,
        0.9889969229698181,
        -0.08799081295728683
      ],
      "scale": [
        1.0,
        1.0,
        1.0
      ],
      "translation": [
        0.033140409737825394,
        -0.38506439328193665,
        0.1405153125524521
      ]
    },
    {
      "extras": {
        "Flags": 14,
        "ID": 205,
        "Parent ID": 18
      },
      "name": "C_BackCyst8",
      "rotation": [
        0.026933562010526657,
        -0.09008839726448059,
        0.9951895475387573,
        -0.027503522112965584
      ],
      "scale": [
        1.0,
        1.0,
        1.0
      ],
      "translation": [
        -0.03721034899353981,
        -0.41672971844673157,
        -0.02614295482635498
      ]
    },
    {
      "extras": {
        "Flags": 14,
        "ID": 207,
        "Parent ID": 15
      },
      "name": "C_BackCyst4",
      "rotation": [
        -0.018677417188882828,
        -0.2512591779232025,
        0.9531712532043457,
        0.16728591918945313
      ],
      "scale": [
        1.0,
        1.0,
        1.0
      ],
      "translation": [
        0.14862479269504547,
        -0.3344219923019409,
        -0.22687789797782898
      ]
    },
    {
      "extras": {
        "Flags": 14,
        "ID": 209,
        "Parent ID": 15
      },
      "name": "C_BackCyst5",
      "rotation": [
        -8.881784197001252e-15,
        1.3833380242082166e-13,
        -7.450581485102248e-09,
        1.0
      ],
      "scale": [
        1.0,
        1.0,
        1.0
      ],
      "translation": [
        -0.15989409387111664,
        -0.23154327273368835,
        -0.2792365550994873
      ]
    },
    {
      "extras": {
        "Flags": 14,
        "ID": 211,
        "Parent ID": 15
      },
      "name": "C_BackCyst6",
      "rotation": [
        0.11052043735980988,
        0.17670369148254395,
        0.9565587639808655,
        0.20385369658470154
      ],
      "scale": [
        1.0,
        1.0,
        1.0
      ],
      "translation": [
        -0.12884490191936493,
        -0.27296507358551025,
        0.20802533626556396
      ]
    },
    {
      "extras": {
        "Flags": 14,
        "ID": 213,
        "Parent ID": 15
      },
      "name": "C_BackCyst7",
      "rotation": [
        -0.010830613784492016,
        0.31154534220695496,
        0.9495959281921387,
        -0.033011917024850845
      ],
      "scale": [
        1.0,
        1.0,
        1.0
      ],
      "translation": [
        -0.0074365995824337006,
        -0.2389686554670334,
        0.291398286819458
      ]
    },
    {
      "children": [
        93,
        96,
        106
      ],
      "extras": {
        "Flags": 14,
        "ID": 215,
        "Parent ID": 5
      },
      "name": "C_hips",
      "rotation": [
        -0.42168790102005005,
        0.5676088929176331,
        -0.4216892123222351,
        0.5676069855690002
      ],
      "scale": [
        1.0,
        1.0,
        1.0
      ],
      "translation": [
        1.394353830619366e-06,
        -0.09978080540895462,
        -0.0365612767636776
      ]
    },
    {
      "children": [
        94
      ],
      "extras": {
        "Flags": 14,
        "ID": 218,
        "Parent ID": 215
      },
      "name": "C_TailBase",
      "rotation": [
        -5.467591712715603e-09,
        -1.4389922853297321e-06,
        -0.11224812269210815,
        0.9936801791191101
      ],
      "scale": [
        1.0,
        1.0,
        1.0
      ],
      "translation": [
        0.16782623529434204,
        0.03468170017004013,
        -7.989630148586002e-07
      ]
    },
    {
      "children": [
        95
      ],
      "extras": {
        "Flags": 14,
        "ID": 221,
        "Parent ID": 218
      },
      "name": "C_Tail",
      "rotation": [
        6.892272352843065e-08,
        -2.2823908807367843e-07,
        0.2890828549861908,
        0.9573041200637817
      ],
      "scale": [
        1.0,
        1.0,
        1.0
      ],
      "translation": [
        0.21197128295898438,
        6.103515488575795e-07,
        -7.2759574515531e-14
      ]
    },
    {
      "extras": {
        "Flags": 14,
        "ID": 224,
        "Parent ID": 221
      },
      "name": "C_Tail2",
      "rotation": [
        -1.4210854715202004e-14,
        -0.0,
        0.0,
        1.0
      ],
      "scale": [
        1.0,
        1.0,
        1.0
      ],
      "translation": [
        0.2322424203157425,
        0.0,
        1.45519149031062e-13
      ]
    },
    {
      "children": [
        97
      ],
      "extras": {
        "Flags": 14,
        "ID": 226,
        "Parent ID": 215
      },
      "name": "R_BackClav",
      "rotation": [
        0.06021261215209961,
        0.7197882533073425,
        -0.143779918551445,
        0.6764662861824036
      ],
      "scale": [
        1.0,
        1.0,
        1.0
      ],
      "translation": [
        0.07768402248620987,
        0.04317596182227135,
        0.04393753781914711
      ]
    },
    {
      "children": [
        98
      ],
      "extras": {
        "Flags": 14,
        "ID": 229,
        "Parent ID": 226
      },
      "name": "R_Thigh",
      "rotation": [
        0.662826657295227,
        -0.28598693013191223,
        -0.27017974853515625,
        0.6370833516120911
      ],
      "scale": [
        1.0,
        1.0,
        1.0
      ],
      "translation": [
        -0.28256064653396606,
        -1.5258788721439487e-07,
        1.5258788153005298e-06
      ]
    },
    {
      "children": [
        99
      ],
      "extras": {
        "Flags": 14,
        "ID": 232,
        "Parent ID": 229
      },
      "name": "R_Calf",
      "rotation": [
        -1.9384195582006214e-08,
        2.383154473761806e-08,
        -0.5995741486549377,
        0.8003191947937012
      ],
      "scale": [
        1.0,
        1.0,
        1.0
      ],
      "translation": [
        -0.8263294100761414,
        -3.5095213206659537e-06,
        -2.0599363779183477e-06
      ]
    },
    {
      "children": [
        100
      ],
      "extras": {
        "Flags": 14,
        "ID": 235,
        "Parent ID": 232
      },
      "name": "R_Foot",
      "rotation": [
        0.5649459958076477,
        0.7912318110466003,
        0.21905288100242615,
        -0.08248686790466309
      ],
      "scale": [
        1.0,
        1.0,
        1.0
      ],
      "translation": [
        -0.9393096566200256,
        1.7929077102962765e-06,
        -5.340576194612368e-07
      ]
    },
    {
      "children": [
        101,
        102,
        104
      ],
      "extras": {
        "Flags": 14,
        "ID": 238,
        "Parent ID": 235
      },
      "name": "R_Toe",
      "rotation": [
        -0.08612845093011856,
        0.01506094727665186,
        -0.4348490238189697,
        0.8962485194206238
      ],
      "scale": [
        1.0,
        1.0,
        1.0
      ],
      "translation": [
        -0.3711828589439392,
        0.005766906775534153,
        -0.034361954778432846
      ]
    },
    {
      "extras": {
        "Flags": 14,
        "ID": 241,
        "Parent ID": 238
      },
      "name": "xR_Toe",
      "rotation": [
        5.8207657444020455e-11,
        1.2405507732182741e-09,
        3.725290298461914e-09,
        1.0
      ],
      "scale": [
        1.0,
        1.0,
        1.0
      ],
      "translation": [
        -0.26026594638824463,
        3.099441414633475e-07,
        6.179809588502394e-06
      ]
    },
    {
      "children": [
        103
      ],
      "extras": {
        "Flags": 14,
        "ID": 243,
        "Parent ID": 238
      },
      "name": "R_BackToeOut",
      "rotation": [
        5.8207657444020455e-11,
        1.2405507732182741e-09,
        3.725290298461914e-09,
        1.0
      ],
      "scale": [
        1.0,
        1.0,
        1.0
      ],
      "translation": [
        -0.053997039794921875,
        1.9073485191256623e-07,
        -0.07903221249580383
      ]
    },
    {
      "extras": {
        "Flags": 14,
        "ID": 245,
        "Parent ID": 243
      },
      "name": "R_BackToeOut2",
      "rotation": [
        2.9103830456733704e-10,
        1.2405507732182741e-09,
        3.725290298461914e-09,
        1.0
      ],
      "scale": [
        1.0,
        1.0,
        1.0
      ],
      "translation": [
        -0.09742996096611023,
        -2.527236802052357e-07,
        3.662109293145477e-06
      ]
    },
    {
      "children": [
        105
      ],
      "extras": {
        "Flags": 14,
        "ID": 247,
        "Parent ID": 238
      },
      "name": "R_BackToeIn",
      "rotation": [
        5.8207657444020455e-11,
        1.2405507732182741e-09,
        3.725290298461914e-09,
        1.0
      ],
      "scale": [
        1.0,
        1.0,
        1.0
      ],
      "translation": [
        -0.06290008127689362,
        -1.3828277189986693e-07,
        0.07534149289131165
      ]
    },
    {
      "extras": {
        "Flags": 14,
        "ID": 249,
        "Parent ID": 247
      },
      "name": "R_BackToeIn2",
      "rotation": [
        2.9103830456733704e-10,
        1.2405507732182741e-09,
        3.725290298461914e-09,
        1.0
      ],
      "scale": [
        1.0,
        1.0,
        1.0
      ],
      "translation": [
        -0.09743010997772217,
        -1.1444091541079615e-07,
        -3.0517577442878974e-07
      ]
    },
    {
      "children": [
        107
      ],
      "extras": {
        "Flags": 14,
        "ID": 251,
        "Parent ID": 215
      },
      "name": "L_BackClav",
      "rotation": [
        0.7197906970977783,
        -0.060211870819330215,
        -0.6764636635780334,
        -0.14378012716770172
      ],
      "scale": [
        1.0,
        1.0,
        1.0
      ],
      "translation": [
        0.0776839405298233,
        0.04317764192819595,
        -0.043936990201473236
      ]
    },
    {
      "children": [
        108
      ],
      "extras": {
        "Flags": 14,
        "ID": 254,
        "Parent ID": 251
      },
      "name": "L_Thigh",
      "rotation": [
        0.662826657295227,
        -0.28598693013191223,
        -0.27017977833747864,
        0.6370833516120911
      ],
      "scale": [
        1.0,
        1.0,
        1.0
      ],
      "translation": [
        0.2825601100921631,
        3.8146970382513246e-07,
        -1.678466787780053e-06
      ]
    },
    {
      "children": [
        109
      ],
      "extras": {
        "Flags": 14,
        "ID": 257,
        "Parent ID": 254
      },
      "name": "L_Calf",
      "rotation": [
        -1.1925686216329723e-08,
        8.934351036771204e-09,
        -0.5995741486549377,
        0.8003191947937012
      ],
      "scale": [
        1.0,
        1.0,
        1.0
      ],
      "translation": [
        0.8263285756111145,
        3.967285010730848e-06,
        1.0681152389224735e-06
      ]
    },
    {
      "children": [
        110
      ],
      "extras": {
        "Flags": 14,
        "ID": 260,
        "Parent ID": 257
      },
      "name": "L_Foot",
      "rotation": [
        0.5649459362030029,
        0.7912318110466003,
        0.21905289590358734,
        -0.08248689025640488
      ],
      "scale": [
        1.0,
        1.0,
        1.0
      ],
      "translation": [
        0.9393088817596436,
        -2.326965386600932e-06,
        1.0681152389224735e-06
      ]
    },
    {
      "children": [
        111,
        112,
        114
      ],
      "extras": {
        "Flags": 14,
        "ID": 263,
        "Parent ID": 260
      },
      "name": "L_Toe",
      "rotation": [
        -0.08612780272960663,
        0.015060655772686005,
        -0.43484920263290405,
        0.8962485194206238
      ],
      "scale": [
        1.0,
        1.0,
        1.0
      ],
      "translation": [
        0.3711821734905243,
        -0.0057664490304887295,
        0.034359969198703766
      ]
    },
    {
      "extras": {
        "Flags": 14,
        "ID": 266,
        "Parent ID": 263
      },
      "name": "xL_Toe",
      "rotation": [
        1.1641530794914701e-10,
        -8.221829883581222e-10,
        -3.7252894102834944e-09,
        1.0
      ],
      "scale": [
        1.0,
        1.0,
        1.0
      ],
      "translation": [
        0.26026275753974915,
        -1.4305114426349519e-08,
        -2.288818308215923e-07
      ]
    },
    {
      "children": [
        113
      ],
      "extras": {
        "Flags": 14,
        "ID": 268,
        "Parent ID": 263
      },
      "name": "L_BackToeOut",
      "rotation": [
        4.6566123179658803e-10,
        2.8994684431182804e-09,
        -8.28906359464997e-18,
        1.0
      ],
      "scale": [
        1.0,
        1.0,
        1.0
      ],
      "translation": [
        0.05399627611041069,
        -3.33786012163273e-08,
        0.07903190702199936
      ]
    },
    {
      "extras": {
        "Flags": 14,
        "ID": 270,
        "Parent ID": 268
      },
      "name": "L_BackToeOut2",
      "rotation": [
        -5.8207657444020455e-11,
        1.0513757642272026e-09,
        -3.7252898543727042e-09,
        1.0
      ],
      "scale": [
        1.0,
        1.0,
        1.0
      ],
      "translation": [
        0.09743224829435349,
        -1.907348590179936e-08,
        7.629394360719743e-08
      ]
    },
    {
      "children": [
        115
      ],
      "extras": {
        "Flags": 14,
        "ID": 272,
        "Parent ID": 263
      },
      "name": "L_BackToeIn",
      "rotation": [
        4.6566123179658803e-10,
        2.8994684431182804e-09,
        -8.28906359464997e-18,
        1.0
      ],
      "scale": [
        1.0,
        1.0,
        1.0
      ],
      "translation": [
        0.06290191411972046,
        2.384185648907078e-08,
        -0.0753384381532669
      ]
    },
    {
      "extras": {
        "Flags": 14,
        "ID": 274,
        "Parent ID": 272
      },
      "name": "L_BackToeIn2",
      "rotation": [
        -5.8207657444020455e-11,
        1.0513757642272026e-09,
        -3.7252898543727042e-09,
        1.0
      ],
      "scale": [
        1.0,
        1.0,
        1.0
      ],
      "translation": [
        0.09743240475654602,
        -9.53674295089968e-09,
        0.0
      ]
    },
    {
      "extras": {
        "Flags": 526,
        "Has GPU LODs": false,
        "ID": 287,
        "Material Path": "Materials\\Actors\\Terrormorph\\TerrormorphA_02.mat",
        "NiIntegerExtraData:MaterialID": 378023497,
        "Parent ID": 3
      },
      "mesh": 0,
      "name": "Terrormorph_Base:0",
      "rotation": [
        3.0616171314629196e-17,
        0.0,
        0.0,
        1.0
      ],
      "scale": [
        1.0,
        1.0,
        1.0
      ],
      "skin": 0,
      "translation": [
        0.0,
        0.0,
        0.0
      ]
    },
    {
      "extras": {
        "Flags": 526,
        "Has GPU LODs": false,
        "ID": 293,
        "Material Path": "Materials\\Actors\\Terrormorph\\TerrormorphA_01.mat",
        "NiIntegerExtraData:MaterialID": 1361597593,
        "Parent ID": 3
      },
      "mesh": 1,
      "name": "Terrormorph_Base:1",
      "rotation": [
        3.0616171314629196e-17,
        0.0,
        0.0,
        1.0
      ],
      "scale": [
        1.0,
        1.0,
        1.0
      ],
      "skin": 1,
      "translation": [
        0.0,
        0.0,
        0.0
      ]
    }
  ],
  "scenes": [
    {
      "name": "ExportScene",
      "nodes": [
        0
      ]
    }
  ],
  "skins": [
    {
      "inverseBindMatrices": 0,
      "joints": [
        98,
        99,
        100,
        97,
        104,
        96,
        2,
        3,
        92,
        94,
        102,
        105,
        103,
        93,
        95,
        66,
        65,
        7,
        5,
        8,
        77,
        46,
        45,
        4,
        106,
        107,
        9,
        10,
        57,
        64,
        25,
        108,
        109,
        110,
        114,
        112,
        115,
        113,
        87,
        84,
        91,
        85,
        88,
        89
      ],
      "skeleton": 1
    },
    {
      "inverseBindMatrices": 1,
      "joints": [
        3,
        78,
        79,
        80,
        81,
        83,
        82,
        66,
        65,
        7,
        5,
        8,
        67,
        68,
        75,
        76,
        69,
        72,
        73,
        71,
        74,
        77,
        46,
        45,
        11,
        4,
        9,
        10,
        57,
        64,
        25,
        58,
        41,
        31,
        26,
        16,
        21,
        12,
        36,
        17,
        27,
        13,
        18,
        37,
        14,
        19,
        28,
        38,
        32,
        42,
        15,
        29,
        39,
        33,
        30,
        40,
        43,
        44,
        34,
        35,
        22,
        23,
        24,
        47,
        48,
        55,
        56,
        49,
        53,
        51,
        54,
        52,
        60,
        63,
        62,
        61,
        59,
        20,
        90,
        86
      ],
      "skeleton": 1
    }
  ]
}
