{
  "accessors": [
    {
      "bufferView": 0,
      "componentType": 5126,
      "count": 37,
      "type": "MAT4"
    },
    {
      "bufferView": 1,
      "componentType": 5126,
      "count": 24044,
      "max": [
        1.3424482345581055,
        1.767509937286377,
        2.4323251247406006
      ],
      "min": [
        -1.3424482345581055,
        -2.1339762210845947,
        -0.005981627851724625
      ],
      "type": "VEC3"
    },
    {
      "bufferView": 2,
      "componentType": 5126,
      "count": 24044,
      "type": "VEC3"
    },
    {
      "bufferView": 3,
      "componentType": 5126,
      "count": 24044,
      "type": "VEC4"
    },
    {
      "bufferView": 4,
      "componentType": 5126,
      "count": 24044,
      "type": "VEC2"
    },
    {
      "bufferView": 5,
      "componentType": 5126,
      "count": 24044,
      "type": "VEC4"
    },
    {
      "bufferView": 6,
      "componentType": 5126,
      "count": 24044,
      "type": "VEC4"
    },
    {
      "bufferView": 7,
      "componentType": 5123,
      "count": 24044,
      "type": "VEC4"
    },
    {
      "bufferView": 8,
      "componentType": 5123,
      "count": 24044,
      "type": "VEC4"
    },
    {
      "bufferView": 9,
      "componentType": 5123,
      "count": 121356,
      "type": "SCALAR"
    }
  ],
  "asset": {
    "generator": "NifSkope glTF 2.0 Exporter v1.2",
    "version": "2.0"
  },
  "bufferViews": [
    {
      "buffer": 0,
      "byteLength": 2368
    },
    {
      "buffer": 0,
      "byteLength": 288528,
      "byteOffset": 2368,
      "target": 34962
    },
    {
      "buffer": 0,
      "byteLength": 288528,
      "byteOffset": 290896,
      "target": 34962
    },
    {
      "buffer": 0,
      "byteLength": 384704,
      "byteOffset": 579424,
      "target": 34962
    },
    {
      "buffer": 0,
      "byteLength": 192352,
      "byteOffset": 964128,
      "target": 34962
    },
    {
      "buffer": 0,
      "byteLength": 384704,
      "byteOffset": 1156480,
      "target": 34962
    },
    {
      "buffer": 0,
      "byteLength": 384704,
      "byteOffset": 1541184,
      "target": 34962
    },
    {
      "buffer": 0,
      "byteLength": 192352,
      "byteOffset": 1925888,
      "target": 34962
    },
    {
      "buffer": 0,
      "byteLength": 192352,
      "byteOffset": 2118240,
      "target": 34962
    },
    {
      "buffer": 0,
      "byteLength": 242712,
      "byteOffset": 2310592,
      "target": 34963
    }
  ],
  "buffers": [
    {
      "byteLength": 2553304,
      "name": "Galloping Beetle.bin",
      "uri": "Galloping Beetle.bin"
    }
  ],
  "materials": [
    {
      "extras": {
        "Material Path": "Default"
      },
      "name": "Default"
    },
    {
      "extras": {
        "Material Path": "materials/actors/octopedea/octopedea_gallopingbeetle/octopedea_gallopingbeetle.mat"
      },
      "name": "Materials/Actors/Octopedea/Octopedea_Gallopingbeetle/Octopedea_Gallopingbeetle"
    }
  ],
  "meshes": [
    {
      "name": "OctopedeA_07_GallopingBeetle:0",
      "primitives": [
        {
          "attributes": {
            "JOINTS_0": 7,
            "JOINTS_1": 8,
            "NORMAL": 2,
            "POSITION": 1,
            "TANGENT": 3,
            "TEXCOORD_0": 4,
            "WEIGHTS_0": 5,
            "WEIGHTS_1": 6
          },
          "indices": 9,
          "material": 1,
          "mode": 4
        }
      ]
    }
  ],
  "nodes": [
    {
      "children": [
        1,
        76
      ],
      "extras": {
        "Flags": 536870926,
        "ID": 10,
        "Parent ID": 0
      },
      "name": "Root",
      "rotation": [
        -0.7071067690849304,
        0.0,
        0.0,
        0.7071067690849304
      ],
      "scale": [
        1.0,
        1.0,
        1.0
      ],
      "translation": [
        0.0,
        0.0,
        -0.0
      ]
    },
    {
      "children": [
        2,
        55
      ],
      "extras": {
        "Flags": 536870926,
        "ID": 12,
        "Parent ID": 10
      },
      "name": "COM",
      "rotation": [
        0.0,
        0.0,
        0.0,
        1.0
      ],
      "scale": [
        1.0,
        1.0,
        1.0
      ],
      "translation": [
        4.7940691416670234e-08,
        -0.414806991815567,
        0.704992949962616
      ]
    },
    {
      "children": [
        3,
        47,
        51
      ],
      "extras": {
        "Flags": 536870926,
        "ID": 16,
        "Parent ID": 12
      },
      "name": "C_Spine1",
      "rotation": [
        -0.4484699070453644,
        -0.5466935634613037,
        0.44846999645233154,
        0.5466951131820679
      ],
      "scale": [
        1.0,
        1.0,
        1.0
      ],
      "translation": [
        6.010995701188904e-09,
        0.0037200164515525103,
        0.0006440734723582864
      ]
    },
    {
      "children": [
        4,
        39,
        43
      ],
      "extras": {
        "Flags": 536870926,
        "ID": 19,
        "Parent ID": 16
      },
      "name": "C_Spine2",
      "rotation": [
        -1.5485569747397676e-05,
        -2.8823075126638287e-07,
        0.01754278875887394,
        0.9998461008071899
      ],
      "scale": [
        1.0,
        1.0,
        1.0
      ],
      "translation": [
        0.3198350965976715,
        4.577636616431846e-07,
        -3.484461331026978e-06
      ]
    },
    {
      "children": [
        5,
        6,
        10,
        17,
        25,
        33,
        37,
        38
      ],
      "extras": {
        "Flags": 536870926,
        "ID": 22,
        "Parent ID": 19
      },
      "name": "C_Spine3",
      "rotation": [
        -3.508766894810833e-05,
        -3.1150368613452883e-06,
        0.07504773885011673,
        0.9971799254417419
      ],
      "scale": [
        0.9999989867210388,
        0.9999989867210388,
        0.9999989867210388
      ],
      "translation": [
        0.3609221577644348,
        -3.8146970382513246e-07,
        7.414950232487172e-06
      ]
    },
    {
      "extras": {
        "Flags": 536870927,
        "ID": 25,
        "Parent ID": 22
      },
      "name": "xC_spine",
      "rotation": [
        8.053769562366142e-08,
        4.5450761376741866e-07,
        -2.1187599941185908e-07,
        1.0
      ],
      "scale": [
        1.0,
        1.0,
        1.0
      ],
      "translation": [
        0.3969312608242035,
        -1.2969970839549205e-06,
        -1.0634120144459303e-06
      ]
    },
    {
      "children": [
        7
      ],
      "extras": {
        "Flags": 536870926,
        "ID": 27,
        "Parent ID": 22
      },
      "name": "R_LegA_1",
      "rotation": [
        0.8053038120269775,
        -0.1642385572195053,
        -0.5599836707115173,
        0.10454534739255905
      ],
      "scale": [
        1.0000020265579224,
        1.0000020265579224,
        1.0000020265579224
      ],
      "translation": [
        0.21655716001987457,
        0.34633708000183105,
        -0.2867191731929779
      ]
    },
    {
      "children": [
        8
      ],
      "extras": {
        "Flags": 536870926,
        "ID": 30,
        "Parent ID": 27
      },
      "name": "R_LegA_2",
      "rotation": [
        -3.610786279750755e-06,
        -8.705664527042245e-07,
        -0.5607441067695618,
        0.8279891610145569
      ],
      "scale": [
        0.9999970197677612,
        0.9999970197677612,
        0.9999970197677612
      ],
      "translation": [
        0.5373358130455017,
        3.8146970382513246e-07,
        -1.1062621751989354e-06
      ]
    },
    {
      "children": [
        9
      ],
      "extras": {
        "Flags": 536870926,
        "ID": 33,
        "Parent ID": 30
      },
      "name": "R_LegA_3",
      "rotation": [
        4.270677436579717e-06,
        -4.5731613340649346e-07,
        -0.3648777902126312,
        0.9310554265975952
      ],
      "scale": [
        1.0,
        1.0,
        1.0
      ],
      "translation": [
        0.3976149559020996,
        1.5258788153005298e-06,
        -1.5258788153005298e-06
      ]
    },
    {
      "extras": {
        "Flags": 536870927,
        "ID": 36,
        "Parent ID": 33
      },
      "name": "xR_LegA",
      "rotation": [
        -5.581574896496022e-06,
        -6.249214834497252e-07,
        4.908045525553462e-07,
        1.0
      ],
      "scale": [
        0.9999979734420776,
        0.9999979734420776,
        0.9999979734420776
      ],
      "translation": [
        0.4051232933998108,
        5.798339770990424e-06,
        5.836486707266886e-06
      ]
    },
    {
      "children": [
        11
      ],
      "extras": {
        "Flags": 536870926,
        "ID": 38,
        "Parent ID": 22
      },
      "name": "C_Head1",
      "rotation": [
        5.381582013797015e-05,
        -1.2661332220886834e-05,
        0.15204672515392303,
        0.988373339176178
      ],
      "scale": [
        1.0000009536743164,
        1.0000009536743164,
        1.0000009536743164
      ],
      "translation": [
        0.3353530764579773,
        -0.211922749876976,
        -1.583942139404826e-05
      ]
    },
    {
      "children": [
        12,
        13,
        15,
        16
      ],
      "extras": {
        "Flags": 536870926,
        "ID": 41,
        "Parent ID": 38
      },
      "name": "C_Head2",
      "rotation": [
        -1.2576511835504789e-05,
        -3.611830607042066e-06,
        0.12829330563545227,
        0.9917362928390503
      ],
      "scale": [
        1.0,
        1.0,
        1.0
      ],
      "translation": [
        0.3449707627296448,
        4.341125531936996e-05,
        8.689000424055848e-06
      ]
    },
    {
      "extras": {
        "Flags": 536870927,
        "ID": 44,
        "Parent ID": 41
      },
      "name": "xC_Head",
      "rotation": [
        -4.644663022190798e-06,
        9.30084479477955e-06,
        0.0797874927520752,
        0.9968119263648987
      ],
      "scale": [
        1.0000009536743164,
        1.0000009536743164,
        1.0000009536743164
      ],
      "translation": [
        0.5376135110855103,
        3.814697265625e-06,
        1.144790803664364e-05
      ]
    },
    {
      "children": [
        14
      ],
      "extras": {
        "Flags": 536870926,
        "ID": 46,
        "Parent ID": 41
      },
      "name": "C_Jaw1",
      "rotation": [
        1.4319664387585362e-06,
        3.910900829851016e-07,
        -0.00864581298083067,
        0.9999626278877258
      ],
      "scale": [
        1.0,
        1.0,
        1.0
      ],
      "translation": [
        0.09342357516288757,
        0.23893851041793823,
        -1.3258678336569574e-05
      ]
    },
    {
      "extras": {
        "Flags": 536870927,
        "ID": 48,
        "Parent ID": 46
      },
      "name": "xC_Jaw",
      "rotation": [
        5.7730964897473314e-08,
        4.274921820979216e-07,
        -6.407494765880983e-07,
        1.0
      ],
      "scale": [
        1.0000009536743164,
        1.0000009536743164,
        1.0000009536743164
      ],
      "translation": [
        0.30026915669441223,
        1.5258788153005298e-06,
        2.1243002379378595e-07
      ]
    },
    {
      "extras": {
        "Flags": 67108878,
        "ID": 204,
        "Parent ID": 41
      },
      "name": "LookAt_Face_R",
      "rotation": [
        0.5947001576423645,
        0.5029799342155457,
        -0.4788700044155121,
        0.4050016701221466
      ],
      "scale": [
        1.0,
        1.0,
        1.0
      ],
      "translation": [
        0.06675750762224197,
        -0.05742240697145462,
        -0.07972068339586258
      ]
    },
    {
      "extras": {
        "Flags": 67108878,
        "ID": 206,
        "Parent ID": 41
      },
      "name": "LookAt_Face_L",
      "rotation": [
        0.4763275384902954,
        0.4028680622577667,
        -0.5967375040054321,
        0.5046916007995605
      ],
      "scale": [
        1.0,
        1.0,
        1.0
      ],
      "translation": [
        0.06344558298587799,
        -0.05783630162477493,
        0.07327010482549667
      ]
    },
    {
      "children": [
        18
      ],
      "extras": {
        "Flags": 536870926,
        "ID": 50,
        "Parent ID": 22
      },
      "name": "R_Clavicle",
      "rotation": [
        0.7150474190711975,
        0.2972759008407593,
        -0.1911849081516266,
        0.6031439304351807
      ],
      "scale": [
        1.0000029802322388,
        1.0000029802322388,
        1.0000029802322388
      ],
      "translation": [
        0.3614833652973175,
        0.20401382446289063,
        -0.15344350039958954
      ]
    },
    {
      "children": [
        19
      ],
      "extras": {
        "Flags": 536870926,
        "ID": 53,
        "Parent ID": 50
      },
      "name": "R_Biceps",
      "rotation": [
        -0.03341509774327278,
        0.11573534458875656,
        -0.02268257364630699,
        0.992458701133728
      ],
      "scale": [
        0.9999989867210388,
        0.9999989867210388,
        0.9999989867210388
      ],
      "translation": [
        0.2560388147830963,
        -2.098083541568485e-06,
        1.1444091796875e-05
      ]
    },
    {
      "children": [
        20,
        21
      ],
      "extras": {
        "Flags": 536870926,
        "ID": 56,
        "Parent ID": 53
      },
      "name": "R_Forearm",
      "rotation": [
        0.016041047871112823,
        -0.06349256634712219,
        0.2553594708442688,
        0.9646257758140564
      ],
      "scale": [
        1.0000029802322388,
        1.0000029802322388,
        1.0000029802322388
      ],
      "translation": [
        0.56939297914505,
        5.722045557376987e-07,
        3.8146970382513246e-07
      ]
    },
    {
      "extras": {
        "Flags": 536870927,
        "ID": 59,
        "Parent ID": 56
      },
      "name": "xR_Arm",
      "rotation": [
        8.568229077354772e-07,
        4.626802819984732e-06,
        -1.3522824247047538e-06,
        1.0
      ],
      "scale": [
        1.0000009536743164,
        1.0000009536743164,
        1.0000009536743164
      ],
      "translation": [
        0.37551650404930115,
        -7.24792471373803e-07,
        3.8146970382513246e-07
      ]
    },
    {
      "children": [
        22,
        23
      ],
      "extras": {
        "Flags": 536870926,
        "ID": 61,
        "Parent ID": 56
      },
      "name": "R_Wrist",
      "rotation": [
        -0.15595577657222748,
        0.05517445132136345,
        0.15313675999641418,
        0.9742600917816162
      ],
      "scale": [
        1.0,
        1.0,
        1.0
      ],
      "translation": [
        0.37551695108413696,
        -1.0108947208209429e-06,
        -6.103515488575795e-07
      ]
    },
    {
      "extras": {
        "Flags": 536870927,
        "ID": 64,
        "Parent ID": 61
      },
      "name": "xR_Wrist",
      "rotation": [
        5.25905420545314e-07,
        -1.0728850838859216e-06,
        -6.904739393576165e-07,
        1.0
      ],
      "scale": [
        0.9999989867210388,
        0.9999989867210388,
        0.9999989867210388
      ],
      "translation": [
        0.7719177007675171,
        3.2806394756335067e-06,
        -1.6860962205100805e-05
      ]
    },
    {
      "children": [
        24
      ],
      "extras": {
        "Flags": 536870926,
        "ID": 66,
        "Parent ID": 61
      },
      "name": "R_Claw1",
      "rotation": [
        0.06462619453668594,
        -0.0800328478217125,
        0.020514458417892456,
        0.994483470916748
      ],
      "scale": [
        1.0000009536743164,
        1.0000009536743164,
        1.0000009536743164
      ],
      "translation": [
        0.013495330698788166,
        -0.009970092214643955,
        0.04021751135587692
      ]
    },
    {
      "extras": {
        "Flags": 536870927,
        "ID": 68,
        "Parent ID": 66
      },
      "name": "xR_Claw",
      "rotation": [
        8.940718032590667e-08,
        -1.192094174484737e-07,
        5.653136554428784e-07,
        1.0
      ],
      "scale": [
        0.9999989867210388,
        0.9999989867210388,
        0.9999989867210388
      ],
      "translation": [
        0.7719252109527588,
        -1.678466787780053e-06,
        -1.583099401614163e-05
      ]
    },
    {
      "children": [
        26
      ],
      "extras": {
        "Flags": 536870926,
        "ID": 70,
        "Parent ID": 22
      },
      "name": "L_Clavicle",
      "rotation": [
        0.603212833404541,
        -0.19121848046779633,
        0.29726043343544006,
        0.7149866819381714
      ],
      "scale": [
        1.0000029802322388,
        1.0000029802322388,
        1.0000029802322388
      ],
      "translation": [
        0.3614817261695862,
        0.20398341119289398,
        0.15348243713378906
      ]
    },
    {
      "children": [
        27
      ],
      "extras": {
        "Flags": 536870926,
        "ID": 73,
        "Parent ID": 70
      },
      "name": "L_Biceps",
      "rotation": [
        0.033415134996175766,
        0.11573556065559387,
        0.0226821918040514,
        0.992458701133728
      ],
      "scale": [
        1.0,
        1.0,
        1.0
      ],
      "translation": [
        0.2560391128063202,
        1.7547606603329768e-06,
        1.1672973414533772e-05
      ]
    },
    {
      "children": [
        28,
        29
      ],
      "extras": {
        "Flags": 536870926,
        "ID": 76,
        "Parent ID": 73
      },
      "name": "L_Forearm",
      "rotation": [
        -0.01603914052248001,
        -0.06349450349807739,
        -0.2553582191467285,
        0.9646260142326355
      ],
      "scale": [
        1.0000029802322388,
        1.0000029802322388,
        1.0000029802322388
      ],
      "translation": [
        0.5693932771682739,
        -1.182556161438697e-06,
        5.340576194612368e-07
      ]
    },
    {
      "extras": {
        "Flags": 536870927,
        "ID": 79,
        "Parent ID": 76
      },
      "name": "xL_Arm",
      "rotation": [
        -1.8104965420207009e-06,
        5.163243258721195e-06,
        1.0244626764688292e-06,
        1.0
      ],
      "scale": [
        1.0000009536743164,
        1.0000009536743164,
        1.0000009536743164
      ],
      "translation": [
        0.37551626563072205,
        3.0517577442878974e-07,
        -3.0517577442878974e-07
      ]
    },
    {
      "children": [
        30,
        31
      ],
      "extras": {
        "Flags": 536870926,
        "ID": 81,
        "Parent ID": 76
      },
      "name": "L_Wrist",
      "rotation": [
        0.15595291554927826,
        0.05517703667283058,
        -0.15313585102558136,
        0.9742605090141296
      ],
      "scale": [
        0.9999989867210388,
        0.9999989867210388,
        0.9999989867210388
      ],
      "translation": [
        0.3755168914794922,
        2.670288097306184e-07,
        -9.91821252682712e-07
      ]
    },
    {
      "extras": {
        "Flags": 536870927,
        "ID": 84,
        "Parent ID": 81
      },
      "name": "xL_Wrist",
      "rotation": [
        -4.4345583205540606e-07,
        1.3113032082401332e-06,
        6.311177571660664e-07,
        1.0
      ],
      "scale": [
        0.9999989867210388,
        0.9999989867210388,
        0.9999989867210388
      ],
      "translation": [
        0.7719178795814514,
        -4.501342573348666e-06,
        -1.5792846170370467e-05
      ]
    },
    {
      "children": [
        32
      ],
      "extras": {
        "Flags": 536870926,
        "ID": 86,
        "Parent ID": 81
      },
      "name": "L_Claw1",
      "rotation": [
        -0.06462512910366058,
        -0.0800291895866394,
        -0.020515266805887222,
        0.9944838285446167
      ],
      "scale": [
        1.0000009536743164,
        1.0000009536743164,
        1.0000009536743164
      ],
      "translation": [
        0.013495483435690403,
        0.009970168583095074,
        0.04021743685007095
      ]
    },
    {
      "extras": {
        "Flags": 536870927,
        "ID": 88,
        "Parent ID": 86
      },
      "name": "xL_Claw",
      "rotation": [
        1.1399411050661001e-06,
        1.0281811455570278e-06,
        -6.342328902064764e-07,
        1.0
      ],
      "scale": [
        0.9999979734420776,
        0.9999979734420776,
        0.9999979734420776
      ],
      "translation": [
        0.7719253301620483,
        3.8146970382513246e-07,
        -1.182556115963962e-05
      ]
    },
    {
      "children": [
        34
      ],
      "extras": {
        "Flags": 536870926,
        "ID": 90,
        "Parent ID": 22
      },
      "name": "L_LegA_1",
      "rotation": [
        0.10462985187768936,
        -0.5600407123565674,
        -0.1645318865776062,
        0.805193305015564
      ],
      "scale": [
        1.0000020265579224,
        1.0000020265579224,
        1.0000020265579224
      ],
      "translation": [
        0.2165541797876358,
        0.3462802767753601,
        0.28678470849990845
      ]
    },
    {
      "children": [
        35
      ],
      "extras": {
        "Flags": 536870926,
        "ID": 93,
        "Parent ID": 90
      },
      "name": "L_LegA_2",
      "rotation": [
        3.521799953887239e-06,
        -1.207531568070408e-06,
        0.5607444643974304,
        0.8279889225959778
      ],
      "scale": [
        0.9999970197677612,
        0.9999970197677612,
        0.9999970197677612
      ],
      "translation": [
        0.5373361706733704,
        -4.0054320038507285e-07,
        -1.1444091114753974e-06
      ]
    },
    {
      "children": [
        36
      ],
      "extras": {
        "Flags": 536870926,
        "ID": 96,
        "Parent ID": 93
      },
      "name": "L_LegA_3",
      "rotation": [
        -2.3128682187234517e-06,
        4.279754648450762e-07,
        0.364878386259079,
        0.9310551881790161
      ],
      "scale": [
        1.0,
        1.0,
        1.0
      ],
      "translation": [
        0.39761507511138916,
        -1.7547606603329768e-06,
        -1.5640258652638295e-06
      ]
    },
    {
      "extras": {
        "Flags": 536870927,
        "ID": 99,
        "Parent ID": 96
      },
      "name": "xL_LegA",
      "rotation": [
        -6.682254820589151e-07,
        1.8160766046548815e-07,
        8.046641823966638e-07,
        1.0
      ],
      "scale": [
        0.9999979734420776,
        0.9999979734420776,
        0.9999979734420776
      ],
      "translation": [
        0.40512359142303467,
        -6.408691206161166e-06,
        5.9890744523727335e-06
      ]
    },
    {
      "extras": {
        "Flags": 67108878,
        "ID": 208,
        "Parent ID": 22
      },
      "name": "LookAt_Antenna_L",
      "rotation": [
        -0.2927776575088501,
        0.5104525685310364,
        0.40230506658554077,
        0.7013344764709473
      ],
      "scale": [
        1.0,
        1.0,
        1.0
      ],
      "translation": [
        0.848236620426178,
        -0.5560783743858337,
        0.1693378984928131
      ]
    },
    {
      "extras": {
        "Flags": 67108878,
        "ID": 210,
        "Parent ID": 22
      },
      "name": "LookAt_Antenna_R",
      "rotation": [
        -0.40053123235702515,
        0.6982986330986023,
        0.29519832134246826,
        0.514598548412323
      ],
      "scale": [
        1.0,
        1.0,
        1.0
      ],
      "translation": [
        0.8482387065887451,
        -0.5560445189476013,
        -0.1763603389263153
      ]
    },
    {
      "children": [
        40
      ],
      "extras": {
        "Flags": 536870926,
        "ID": 101,
        "Parent ID": 19
      },
      "name": "R_LegB_1",
      "rotation": [
        0.7278120517730713,
        -0.12298156321048737,
        -0.6385945677757263,
        0.2176283448934555
      ],
      "scale": [
        1.0000009536743164,
        1.0000009536743164,
        1.0000009536743164
      ],
      "translation": [
        0.2052677422761917,
        0.2871342897415161,
        -0.33647412061691284
      ]
    },
    {
      "children": [
        41
      ],
      "extras": {
        "Flags": 536870926,
        "ID": 104,
        "Parent ID": 101
      },
      "name": "R_LegB_2",
      "rotation": [
        -4.8081797103805e-06,
        -1.6692490589775844e-07,
        -0.6023263931274414,
        0.7982499003410339
      ],
      "scale": [
        1.0000009536743164,
        1.0000009536743164,
        1.0000009536743164
      ],
      "translation": [
        0.6045043468475342,
        -1.2969970839549205e-06,
        -1.5640258652638295e-06
      ]
    },
    {
      "children": [
        42
      ],
      "extras": {
        "Flags": 536870926,
        "ID": 107,
        "Parent ID": 104
      },
      "name": "R_LegB_3",
      "rotation": [
        2.4860915800672956e-05,
        -6.605564067285741e-06,
        -0.3666444420814514,
        0.9303611516952515
      ],
      "scale": [
        0.9999979734420776,
        0.9999979734420776,
        0.9999979734420776
      ],
      "translation": [
        0.47880589962005615,
        1.3732909565078444e-06,
        -1.5163420812314143e-06
      ]
    },
    {
      "extras": {
        "Flags": 536870927,
        "ID": 110,
        "Parent ID": 107
      },
      "name": "xR_LegB",
      "rotation": [
        -2.4814378321025288e-06,
        -6.697827292789782e-10,
        1.592560323615544e-07,
        1.0
      ],
      "scale": [
        1.0000009536743164,
        1.0000009536743164,
        1.0000009536743164
      ],
      "translation": [
        0.4595772922039032,
        6.9427487687789835e-06,
        -2.2888182229507947e-06
      ]
    },
    {
      "children": [
        44
      ],
      "extras": {
        "Flags": 536870926,
        "ID": 112,
        "Parent ID": 19
      },
      "name": "L_LegB_1",
      "rotation": [
        0.21778839826583862,
        -0.6385641098022461,
        -0.12312634289264679,
        0.7277664542198181
      ],
      "scale": [
        1.0000009536743164,
        1.0000009536743164,
        1.0000009536743164
      ],
      "translation": [
        0.20526669919490814,
        0.28711462020874023,
        0.33649975061416626
      ]
    },
    {
      "children": [
        45
      ],
      "extras": {
        "Flags": 536870926,
        "ID": 115,
        "Parent ID": 112
      },
      "name": "L_LegB_2",
      "rotation": [
        5.380240963859251e-06,
        -4.0495984876542934e-07,
        0.6023262143135071,
        0.7982500195503235
      ],
      "scale": [
        1.0000009536743164,
        1.0000009536743164,
        1.0000009536743164
      ],
      "translation": [
        0.6045045256614685,
        1.3160705520931515e-06,
        -1.3542174883696134e-06
      ]
    },
    {
      "children": [
        46
      ],
      "extras": {
        "Flags": 536870926,
        "ID": 118,
        "Parent ID": 115
      },
      "name": "L_LegB_3",
      "rotation": [
        -2.3665383196203038e-05,
        -6.345012934616534e-06,
        0.3666444718837738,
        0.9303611516952515
      ],
      "scale": [
        0.9999979734420776,
        0.9999979734420776,
        0.9999979734420776
      ],
      "translation": [
        0.4788057208061218,
        -1.3732909565078444e-06,
        -1.783370976227161e-06
      ]
    },
    {
      "extras": {
        "Flags": 536870927,
        "ID": 121,
        "Parent ID": 118
      },
      "name": "xL_LegB",
      "rotation": [
        1.2381831311358837e-06,
        -9.313275484146288e-08,
        -4.461031437585916e-07,
        1.0
      ],
      "scale": [
        1.0000009536743164,
        1.0000009536743164,
        1.0000009536743164
      ],
      "translation": [
        0.45957714319229126,
        -6.713867151120212e-06,
        -2.7751921152230352e-06
      ]
    },
    {
      "children": [
        48
      ],
      "extras": {
        "Flags": 536870926,
        "ID": 123,
        "Parent ID": 16
      },
      "name": "R_LegC_1",
      "rotation": [
        -0.6164342761039734,
        0.0897994264960289,
        0.7372328639030457,
        -0.2615962028503418
      ],
      "scale": [
        1.0000009536743164,
        1.0000009536743164,
        1.0000009536743164
      ],
      "translation": [
        0.2158581167459488,
        0.22443312406539917,
        -0.29907894134521484
      ]
    },
    {
      "children": [
        49
      ],
      "extras": {
        "Flags": 536870926,
        "ID": 126,
        "Parent ID": 123
      },
      "name": "R_LegC_2",
      "rotation": [
        -1.1350711019986193e-06,
        -3.3097828691097675e-06,
        -0.544766366481781,
        0.8385878801345825
      ],
      "scale": [
        1.0000020265579224,
        1.0000020265579224,
        1.0000020265579224
      ],
      "translation": [
        0.6026408076286316,
        -1.1253356433371664e-06,
        2.8610228852699038e-08
      ]
    },
    {
      "children": [
        50
      ],
      "extras": {
        "Flags": 536870926,
        "ID": 129,
        "Parent ID": 126
      },
      "name": "R_LegC_3",
      "rotation": [
        7.256006483657984e-06,
        -2.2791507490182994e-06,
        -0.3833220899105072,
        0.9236147403717041
      ],
      "scale": [
        0.9999979734420776,
        0.9999979734420776,
        0.9999979734420776
      ],
      "translation": [
        0.538249671459198,
        -8.468628038826864e-06,
        1.6212463549436507e-07
      ]
    },
    {
      "extras": {
        "Flags": 536870927,
        "ID": 132,
        "Parent ID": 129
      },
      "name": "xR_LegC",
      "rotation": [
        -8.707344932190608e-06,
        9.155512543657096e-07,
        -1.8700901591728325e-06,
        1.0
      ],
      "scale": [
        0.9999989867210388,
        0.9999989867210388,
        0.9999989867210388
      ],
      "translation": [
        0.4783771336078644,
        1.739501931297127e-05,
        -2.155303945983178e-06
      ]
    },
    {
      "children": [
        52
      ],
      "extras": {
        "Flags": 536870926,
        "ID": 134,
        "Parent ID": 16
      },
      "name": "L_LegC_1",
      "rotation": [
        0.2615951895713806,
        -0.7372338175773621,
        -0.08979763835668564,
        0.6164337396621704
      ],
      "scale": [
        1.0000020265579224,
        1.0000020265579224,
        1.0000020265579224
      ],
      "translation": [
        0.21585717797279358,
        0.22443407773971558,
        0.2990790009498596
      ]
    },
    {
      "children": [
        53
      ],
      "extras": {
        "Flags": 536870926,
        "ID": 137,
        "Parent ID": 134
      },
      "name": "L_LegC_2",
      "rotation": [
        1.3231576758698793e-06,
        -3.897310307365842e-06,
        0.544766902923584,
        0.8385874629020691
      ],
      "scale": [
        1.0000029802322388,
        1.0000029802322388,
        1.0000029802322388
      ],
      "translation": [
        0.6026409268379211,
        1.0108947208209429e-06,
        -2.8610228852699038e-08
      ]
    },
    {
      "children": [
        54
      ],
      "extras": {
        "Flags": 536870926,
        "ID": 140,
        "Parent ID": 137
      },
      "name": "L_LegC_3",
      "rotation": [
        -4.831765181734227e-06,
        -1.2436636325219297e-06,
        0.38332194089889526,
        0.9236147999763489
      ],
      "scale": [
        0.9999979734420776,
        0.9999979734420776,
        0.9999979734420776
      ],
      "translation": [
        0.5382497906684875,
        7.553100203949725e-06,
        -4.76837158203125e-07
      ]
    },
    {
      "extras": {
        "Flags": 536870927,
        "ID": 143,
        "Parent ID": 140
      },
      "name": "xL_LegC",
      "rotation": [
        9.373369721288327e-06,
        1.3327364740689518e-06,
        1.3410932524493546e-06,
        1.0
      ],
      "scale": [
        0.9999989867210388,
        0.9999989867210388,
        0.9999989867210388
      ],
      "translation": [
        0.47837722301483154,
        -1.815795803850051e-05,
        -2.6035309019789565e-06
      ]
    },
    {
      "children": [
        56,
        57,
        61,
        72
      ],
      "extras": {
        "Flags": 536870926,
        "ID": 145,
        "Parent ID": 12
      },
      "name": "C_hips",
      "rotation": [
        -0.4591647684574127,
        0.5377432703971863,
        -0.45916420221328735,
        0.5377435684204102
      ],
      "scale": [
        1.0,
        1.0,
        1.0
      ],
      "translation": [
        3.5877927295757672e-09,
        -0.0022340393625199795,
        -0.00035507199936546385
      ]
    },
    {
      "extras": {
        "Flags": 536870927,
        "ID": 148,
        "Parent ID": 145
      },
      "name": "xC_hips",
      "rotation": [
        -2.384186643666908e-07,
        4.5076006927047274e-07,
        -1.1920908349338788e-07,
        1.0
      ],
      "scale": [
        1.0000009536743164,
        1.0000009536743164,
        1.0000009536743164
      ],
      "translation": [
        0.5065000057220459,
        -3.0517577442878974e-07,
        9.357492558592639e-07
      ]
    },
    {
      "children": [
        58
      ],
      "extras": {
        "Flags": 536870926,
        "ID": 150,
        "Parent ID": 145
      },
      "name": "R_LegD_1",
      "rotation": [
        0.90462726354599,
        -0.21536698937416077,
        0.36618661880493164,
        -0.034262798726558685
      ],
      "scale": [
        1.0,
        1.0,
        1.0
      ],
      "translation": [
        0.030868662521243095,
        0.16421851515769958,
        0.23261693120002747
      ]
    },
    {
      "children": [
        59
      ],
      "extras": {
        "Flags": 536870926,
        "ID": 153,
        "Parent ID": 150
      },
      "name": "R_LegD_2",
      "rotation": [
        4.8428682930534706e-05,
        9.711931488709524e-05,
        -0.449922651052475,
        0.893067479133606
      ],
      "scale": [
        1.0,
        1.0,
        1.0
      ],
      "translation": [
        0.6227945685386658,
        -1.4210854397564648e-16,
        1.1444091541079615e-07
      ]
    },
    {
      "children": [
        60
      ],
      "extras": {
        "Flags": 536870926,
        "ID": 156,
        "Parent ID": 153
      },
      "name": "R_LegD_3",
      "rotation": [
        -5.281784979160875e-06,
        -9.817061072681099e-05,
        -0.2173183262348175,
        0.9761008024215698
      ],
      "scale": [
        0.9999989867210388,
        0.9999989867210388,
        0.9999989867210388
      ],
      "translation": [
        0.4880931079387665,
        6.332397333608242e-06,
        4.434585662238533e-06
      ]
    },
    {
      "extras": {
        "Flags": 536870927,
        "ID": 159,
        "Parent ID": 156
      },
      "name": "xR_LegD",
      "rotation": [
        -1.0432433555251919e-05,
        -9.719758963910863e-06,
        4.0223022779173334e-07,
        1.0
      ],
      "scale": [
        0.9999989867210388,
        0.9999989867210388,
        0.9999989867210388
      ],
      "translation": [
        0.5112614035606384,
        -6.103515261202119e-06,
        -5.359649549063761e-06
      ]
    },
    {
      "children": [
        62
      ],
      "extras": {
        "Flags": 536870926,
        "ID": 161,
        "Parent ID": 145
      },
      "name": "C_Tail1",
      "rotation": [
        -1.6239481510638143e-06,
        1.5008030231911107e-06,
        0.021342968568205833,
        0.9997722506523132
      ],
      "scale": [
        1.0000009536743164,
        1.0000009536743164,
        1.0000009536743164
      ],
      "translation": [
        0.33745384216308594,
        -0.07265884429216385,
        -3.2076259230962023e-06
      ]
    },
    {
      "children": [
        63
      ],
      "extras": {
        "Flags": 536870926,
        "ID": 164,
        "Parent ID": 161
      },
      "name": "C_Tail2",
      "rotation": [
        -2.653734327395796e-06,
        6.27010024345509e-07,
        -0.0021423010621219873,
        0.9999976754188538
      ],
      "scale": [
        1.0,
        1.0,
        1.0
      ],
      "translation": [
        0.4267768859863281,
        1.3732909565078444e-06,
        1.4496442872768966e-06
      ]
    },
    {
      "children": [
        64
      ],
      "extras": {
        "Flags": 536870926,
        "ID": 167,
        "Parent ID": 164
      },
      "name": "C_Tail3",
      "rotation": [
        -3.0270808792920434e-07,
        6.250143655961438e-07,
        -0.07174525409936905,
        0.997422993183136
      ],
      "scale": [
        0.9999989867210388,
        0.9999989867210388,
        0.9999989867210388
      ],
      "translation": [
        0.39785581827163696,
        -2.0599363779183477e-06,
        1.5722848729637917e-06
      ]
    },
    {
      "children": [
        65
      ],
      "extras": {
        "Flags": 536870926,
        "ID": 170,
        "Parent ID": 167
      },
      "name": "C_Tail4",
      "rotation": [
        8.499991395183315e-07,
        7.972394655553217e-08,
        -0.0023180164862424135,
        0.9999973177909851
      ],
      "scale": [
        1.0000009536743164,
        1.0000009536743164,
        1.0000009536743164
      ],
      "translation": [
        0.3861145079135895,
        -2.288818308215923e-07,
        2.304580448253546e-06
      ]
    },
    {
      "children": [
        66
      ],
      "extras": {
        "Flags": 536870926,
        "ID": 173,
        "Parent ID": 170
      },
      "name": "C_Tail5",
      "rotation": [
        -3.2530040243727854e-06,
        9.186014722217806e-07,
        -0.016225239261984825,
        0.9998683929443359
      ],
      "scale": [
        0.9999989867210388,
        0.9999989867210388,
        0.9999989867210388
      ],
      "translation": [
        0.427031546831131,
        7.591247594973538e-06,
        -5.467058485919551e-07
      ]
    },
    {
      "children": [
        67
      ],
      "extras": {
        "Flags": 536870926,
        "ID": 176,
        "Parent ID": 173
      },
      "name": "C_Tail6",
      "rotation": [
        -3.927253601432312e-06,
        9.841381825026474e-07,
        0.01786794699728489,
        0.9998403787612915
      ],
      "scale": [
        0.9999989867210388,
        0.9999989867210388,
        0.9999989867210388
      ],
      "translation": [
        0.40774625539779663,
        -7.057189577608369e-06,
        1.1693191481754184e-06
      ]
    },
    {
      "children": [
        68
      ],
      "extras": {
        "Flags": 536870926,
        "ID": 179,
        "Parent ID": 176
      },
      "name": "C_Tail7",
      "rotation": [
        -9.697706445876975e-06,
        1.7738078383899847e-07,
        -0.012332024984061718,
        0.9999239444732666
      ],
      "scale": [
        1.0000009536743164,
        1.0000009536743164,
        1.0000009536743164
      ],
      "translation": [
        0.42572906613349915,
        -1.449584942747606e-06,
        2.242722530354513e-06
      ]
    },
    {
      "children": [
        69
      ],
      "extras": {
        "Flags": 536870926,
        "ID": 182,
        "Parent ID": 179
      },
      "name": "C_Tail8",
      "rotation": [
        -4.2815954657271504e-06,
        5.405953743320424e-06,
        0.0003929472004529089,
        0.9999999403953552
      ],
      "scale": [
        1.0000009536743164,
        1.0000009536743164,
        1.0000009536743164
      ],
      "translation": [
        0.36599457263946533,
        3.395080511836568e-06,
        1.8154061081077089e-06
      ]
    },
    {
      "children": [
        70
      ],
      "extras": {
        "Flags": 536870926,
        "ID": 185,
        "Parent ID": 182
      },
      "name": "C_Tail9",
      "rotation": [
        3.9786939964869816e-07,
        5.327009375832858e-07,
        -0.00380579917691648,
        0.9999927282333374
      ],
      "scale": [
        1.0,
        1.0,
        1.0
      ],
      "translation": [
        0.2985287308692932,
        -4.272460955689894e-06,
        6.914697223692201e-07
      ]
    },
    {
      "children": [
        71
      ],
      "extras": {
        "Flags": 536870926,
        "ID": 188,
        "Parent ID": 185
      },
      "name": "C_Tail10",
      "rotation": [
        -5.066003723186441e-07,
        1.6286129493892076e-06,
        -0.006318430881947279,
        0.9999800324440002
      ],
      "scale": [
        1.0,
        1.0,
        1.0
      ],
      "translation": [
        0.3254010081291199,
        -2.2888182229507947e-06,
        1.996802154735633e-07
      ]
    },
    {
      "extras": {
        "Flags": 536870927,
        "ID": 191,
        "Parent ID": 188
      },
      "name": "xC_Tail",
      "rotation": [
        4.917669116366596e-07,
        -1.2238098179295775e-06,
        1.3869753274775576e-06,
        1.0
      ],
      "scale": [
        0.9999979734420776,
        0.9999979734420776,
        0.9999979734420776
      ],
      "translation": [
        0.23927459120750427,
        -4.95910626341356e-07,
        5.92498111018358e-07
      ]
    },
    {
      "children": [
        73
      ],
      "extras": {
        "Flags": 536870926,
        "ID": 193,
        "Parent ID": 145
      },
      "name": "L_LegD_1",
      "rotation": [
        -0.03426347300410271,
        0.36618757247924805,
        -0.21536603569984436,
        0.9046270847320557
      ],
      "scale": [
        1.0,
        1.0,
        1.0
      ],
      "translation": [
        0.030868319794535637,
        0.16421878337860107,
        -0.2326170653104782
      ]
    },
    {
      "children": [
        74
      ],
      "extras": {
        "Flags": 536870926,
        "ID": 196,
        "Parent ID": 193
      },
      "name": "L_LegD_2",
      "rotation": [
        -4.691009962698445e-05,
        9.790266631171107e-05,
        0.4499216377735138,
        0.8930680155754089
      ],
      "scale": [
        1.0,
        1.0,
        1.0
      ],
      "translation": [
        0.6227942705154419,
        -4.95910626341356e-07,
        -7.629394360719743e-08
      ]
    },
    {
      "children": [
        75
      ],
      "extras": {
        "Flags": 536870926,
        "ID": 199,
        "Parent ID": 196
      },
      "name": "L_LegD_3",
      "rotation": [
        5.0874009502877016e-06,
        -9.899679571390152e-05,
        0.2173204869031906,
        0.9761002659797668
      ],
      "scale": [
        0.9999989867210388,
        0.9999989867210388,
        0.9999989867210388
      ],
      "translation": [
        0.48809298872947693,
        -5.9509275160962716e-06,
        4.854201961279614e-06
      ]
    },
    {
      "extras": {
        "Flags": 536870927,
        "ID": 202,
        "Parent ID": 199
      },
      "name": "xL_LegD",
      "rotation": [
        1.0385650057287421e-05,
        -9.658744602347724e-06,
        8.94170682386175e-07,
        1.0
      ],
      "scale": [
        0.9999989867210388,
        0.9999989867210388,
        0.9999989867210388
      ],
      "translation": [
        0.511261522769928,
        3.814697265625e-06,
        -6.4849850787140895e-06
      ]
    },
    {
      "extras": {
        "Flags": 526,
        "Has GPU LODs": false,
        "ID": 212,
        "Material Path": "Materials\\Actors\\OctopedeA\\OctopedeA_GallopingBeetle\\OctopedeA_GallopingBeetle.mat",
        "NiIntegerExtraData:MaterialID": 1502760842,
        "Parent ID": 10
      },
      "mesh": 0,
      "name": "OctopedeA_07_GallopingBeetle:0",
      "rotation": [
        3.0616171314629196e-17,
        0.0,
        0.0,
        1.0
      ],
      "scale": [
        1.0,
        1.0,
        1.0
      ],
      "skin": 0,
      "translation": [
        0.0,
        0.0,
        0.0
      ]
    }
  ],
  "scenes": [
    {
      "name": "ExportScene",
      "nodes": [
        0
      ]
    }
  ],
  "skins": [
    {
      "inverseBindMatrices": 0,
      "joints": [
        55,
        57,
        2,
        3,
        47,
        4,
        39,
        72,
        51,
        43,
        45,
        44,
        73,
        74,
        41,
        40,
        58,
        59,
        11,
        10,
        33,
        61,
        62,
        6,
        63,
        37,
        38,
        15,
        52,
        53,
        34,
        35,
        48,
        49,
        7,
        8,
        16
      ],
      "skeleton": 1
    }
  ]
}
